<svg width="1470" height="453" viewBox="0 0 1470 453" fill="none" xmlns="http://www.w3.org/2000/svg">
<g clip-path="url(#clip0_755_2821)">
<path opacity="0.15" d="M883.631 258.718L874.31 253.262L865.175 221.775L882.777 185.723L965.281 151.981L982.857 187.165L964.376 225.855L883.631 258.718Z" fill="white"/>
<path opacity="0.15" d="M733.455 26.4771L739.959 27.8463L751.427 44.4486L748.175 68.9242L706.583 104.696L689.468 87.5804L692.72 61.3933L733.455 26.4771Z" fill="white"/>
<path opacity="0.15" d="M801.576 59.6818L823.655 81.7611L791.649 113.768L761.012 109.489L738.932 74.059L742.527 52.322L801.576 59.6818Z" fill="#ECFF00"/>
<path opacity="0.15" d="M826.835 400.282L829 410.735L811.932 438.286L773.813 449.23L694.426 410.998L708.62 374.803L749.258 362.759L826.835 400.282Z" fill="white"/>
<path opacity="0.15" d="M1393.22 120.765L1318.59 163.849L1328.8 181.526L1369.11 192.316L1428.31 158.135L1409.2 125.044L1393.22 120.765Z" fill="#ECFF00"/>
<path opacity="0.15" d="M1397.21 145.382L1411.73 145.999L1437.25 171.523L1438.31 211.131L1418.33 231.11L1412.7 231.286L1398.35 216.939L1397.21 145.382Z" fill="white"/>
<path opacity="0.15" d="M1373.65 384.554L1415.93 413.652L1373.75 474.936L1322.95 477.163L1276.69 426.486L1276.01 390.28L1373.65 384.554Z" fill="#ECFF00"/>
<g opacity="0.7">
<path d="M1004.87 45.22L1101.74 71.1776L1103.47 72.9368L1104.55 106.109L1002.6 78.7921L1001.66 49.799L1003.23 46.4647L1004.87 45.22Z" fill="#518997"/>
<path d="M1005.83 45.4786L1101.74 71.1773L1103.47 72.9365L1104.55 106.109L1006.95 79.957L1005.83 45.4786Z" fill="#1F6779"/>
<path fill-rule="evenodd" clip-rule="evenodd" d="M1013.05 54.7703L1013.72 81.7709L1102.62 105.591L1101.65 76.3328L1015.63 53.2816L1013.05 54.7703Z" fill="#82AAB5"/>
<path d="M1047.27 63.9473L1008.25 63.9473L1008.25 102.964L1047.27 102.964L1047.27 63.9473Z" fill="white"/>
<path d="M1037.76 70.9502L1017.75 70.9502L1017.75 95.9608L1037.76 95.9608L1037.76 70.9502Z" fill="#06566A" fill-opacity="0.25"/>
<path fill-rule="evenodd" clip-rule="evenodd" d="M1022.72 76.3032C1023.53 76.3033 1024.18 75.6647 1024.18 74.8776C1024.18 74.09 1023.53 73.452 1022.72 73.4519C1021.91 73.4519 1021.26 74.0904 1021.26 74.8775C1021.26 75.6647 1021.91 76.3032 1022.72 76.3032ZM1029.02 75.6696L1034.1 82.956L1027.6 82.9559L1023.94 82.9559L1021.26 82.9561L1024.43 78.5208L1025.75 80.3671L1029.02 75.6696Z" fill="#06566A"/>
<path d="M1035.26 85.4564L1020.26 85.4564L1020.26 87.4573L1035.26 87.4573L1035.26 85.4564Z" fill="#06566A"/>
<path d="M1035.26 88.4575L1020.26 88.4575L1020.26 90.4584L1035.26 90.4584L1035.26 88.4575Z" fill="#06566A"/>
<path d="M1031.26 91.4587L1020.25 91.4587L1020.25 93.4596L1031.26 93.4596L1031.26 91.4587Z" fill="#06566A"/>
<path fill-rule="evenodd" clip-rule="evenodd" d="M1007.75 63.4476L1047.77 63.4476L1047.77 103.465L1007.75 103.465L1007.75 63.4476ZM1008.75 64.4481L1008.75 102.464L1046.77 102.464L1046.77 64.4481L1008.75 64.4481Z" fill="#06566A"/>
<path d="M1087 74.9939L1049.31 64.8956L1039.21 102.583L1076.9 112.681L1087 74.9939Z" fill="white"/>
<path d="M1062.15 72.9984L1057.32 71.7037L1056.93 73.1532L1061.77 74.4479L1062.15 72.9984Z" fill="#06566A"/>
<path d="M1067.95 74.5525L1063.12 73.2578L1062.73 74.7073L1067.56 76.002L1067.95 74.5525Z" fill="#06566A"/>
<path d="M1071.17 78.0042L1056.68 74.1202L1055.9 77.0192L1070.39 80.9032L1071.17 78.0042Z" fill="#06566A"/>
<path d="M1074.58 84.6144L1055.25 79.4358L1051.37 93.9308L1070.69 99.1094L1074.58 84.6144Z" fill="#06566A"/>
<path d="M1070.05 101.525L1050.72 96.3461L1050.27 98.0372L1069.59 103.216L1070.05 101.525Z" fill="#06566A" fill-opacity="0.25"/>
<path d="M1069.33 104.182L1050.01 99.0035L1049.55 100.695L1068.88 105.873L1069.33 104.182Z" fill="#06566A" fill-opacity="0.25"/>
<path fill-rule="evenodd" clip-rule="evenodd" d="M1048.95 64.2834L1087.61 74.6406L1077.25 113.294L1038.6 102.937L1048.95 64.2834ZM1049.66 65.5087L1039.82 102.229L1076.54 112.069L1086.38 75.348L1049.66 65.5087Z" fill="#06566A"/>
<path d="M1115.9 92.2749L1082.11 72.7666L1062.6 106.556L1096.39 126.064L1115.9 92.2749Z" fill="white"/>
<path d="M1106 100.421L1080.01 85.4142L1072.5 98.4101L1098.49 113.416L1106 100.421Z" fill="#06566A"/>
<path fill-rule="evenodd" clip-rule="evenodd" d="M1081.93 72.0824L1116.58 92.0909L1096.57 126.747L1061.92 106.738L1081.93 72.0824ZM1082.29 73.449L1063.28 106.372L1096.21 125.38L1115.22 92.4571L1082.29 73.449Z" fill="#06566A"/>
<path d="M1007.59 85.3069L1108.09 112.235L1098.83 146.782L1091.79 150.85L1001.68 126.704C999.007 125.99 997.423 123.247 998.138 120.578L1007.59 85.3069Z" fill="#387888"/>
<path opacity="0.1" d="M1007.59 85.3069L1018.7 88.2846L1108.09 112.235L1106.92 116.584L1017.54 92.6331L1010.62 100.1L998.438 119.46L1000.75 110.824L1007.59 85.3069Z" fill="black"/>
<path d="M1006.95 79.9574L1109.12 107.334L1110.93 109.371L1109.76 113.72L1006.12 85.9496L1005.66 84.7891L1006.95 79.9574Z" fill="#518997"/>
<path d="M1006.95 79.9574L1109.12 107.334L1110.93 109.371L1007.82 82.52L1006.12 85.9496L1005.66 84.7891L1006.95 79.9574Z" fill="#387888"/>
<path d="M1040.07 87.7946L1044.41 88.9597L1045.76 91.6519L1043.11 101.557L1036.83 99.8738L1040.07 87.7946Z" fill="#CDDDE1"/>
<path d="M1040.07 87.7946L1044.41 88.9597L1040.43 91.2588L1038.04 100.197L1036.83 99.8738L1040.07 87.7946Z" fill="#B4CCD2"/>
<path d="M1072.44 96.4686L1076.79 97.6338L1078.14 100.326L1075.48 110.231L1069.2 108.548L1072.44 96.4686Z" fill="#CDDDE1"/>
<path d="M1072.44 96.4686L1076.79 97.6338L1072.8 99.9329L1070.41 108.871L1069.2 108.548L1072.44 96.4686Z" fill="#B4CCD2"/>
</g>
<g opacity="0.7">
<path d="M724.859 90.507L586.245 56.7014L580.244 68.31L581.244 77.2074L735.349 114.791L739.205 98.9771L724.859 90.507Z" fill="#9BBBC3"/>
<path d="M719.022 104.733L712.405 92.8085M587.093 59.8535L593.159 74.0369L587.093 59.8535ZM610.504 81.0288L605.074 64.2386L610.504 81.0288ZM622.503 70.8829L629.12 82.8072L622.503 70.8829ZM647.1 87.1923L641.034 73.0089L647.1 87.1923ZM658.464 79.6531L664.53 93.8366L658.464 79.6531ZM682.425 98.5692L676.995 81.7791L682.425 98.5692ZM694.425 88.4234L700.406 102.954L694.425 88.4234Z" stroke="#82AAB5" stroke-width="5"/>
<path d="M584.326 76.486L736.209 113.528L736.989 120.899L731.513 126.744L581.02 90.0409L579.591 83.0644L584.326 76.486Z" fill="#387888"/>
<path d="M589.671 85.5227L590.518 82.047L593.646 82.8099L595.753 87.0061L592.121 89.0659L589.671 85.5227Z" fill="#9BBBC3"/>
<path d="M655.185 101.501L656.033 98.025L659.161 98.7879L661.267 102.984L657.635 105.044L655.185 101.501Z" fill="#9BBBC3"/>
<path d="M617.645 91.609L616.267 93.4823L613.669 94.3215L611.91 90.2104L615.195 88.0655L617.645 91.609Z" fill="#9BBBC3"/>
<path d="M704.882 112.884L703.505 114.758L700.906 115.597L699.147 111.486L702.432 109.341L704.882 112.884Z" fill="#9BBBC3"/>
<path d="M633.633 95.5078L633.993 97.805L636.909 99.4368L639.367 96.9064L636.659 93.6681L633.633 95.5078Z" fill="#9BBBC3"/>
<path d="M677.425 106.188L677.785 108.485L680.701 110.117L683.16 107.587L680.451 104.348L677.425 106.188Z" fill="#9BBBC3"/>
<path d="M719.814 65.7094L688.243 61.1361L682.536 88.508L712.736 96.2416L719.814 65.7094Z" fill="#ECFF00"/>
<path d="M719.814 65.7094L688.243 61.1361L682.536 88.508L690.067 65.6635L719.814 65.7094Z" fill="#06566A" fill-opacity="0.2"/>
<path d="M720.529 67.6664L686.315 60.6913L688.535 53.083L720.973 59.364L720.529 67.6664Z" fill="#ECFF00"/>
<path d="M720.529 67.6664L686.315 60.6913L688.535 53.083L720.973 59.364L720.529 67.6664Z" fill="#06566A" fill-opacity="0.3"/>
<path d="M686.315 60.6912L688.535 53.0828L694.784 54.2928L691.801 54.8699L688.648 57.9893L689.024 61.3519L686.315 60.6912Z" fill="#06566A" fill-opacity="0.3"/>
<path d="M642.96 49.0875L638.935 48.1055L637.152 55.8717L641.073 56.8278L640.932 51.8861L642.96 49.0875Z" fill="#06566A" fill-opacity="0.3"/>
<path d="M670.325 60.269L638.754 55.6957L632.877 83.7626L663.844 90.9088L670.325 60.269Z" fill="#ECFF00"/>
<path d="M642.346 53.4453L638.754 55.6957L632.877 83.7626L639.5 66.6509L639.562 58.7305L660.825 61.0784L642.346 53.4453Z" fill="#06566A" fill-opacity="0.2"/>
<path d="M673.024 55.6652L638.935 48.1049L637.152 55.8711L670.744 63.5984L673.024 55.6652Z" fill="#ECFF00"/>
<path d="M673.024 55.6652L638.935 48.1049L637.152 55.8711L670.744 63.5984L673.024 55.6652Z" fill="#06566A" fill-opacity="0.3"/>
<path d="M624.855 44.3917L592.758 38.9537L587.051 66.3256L616.988 73.6269L624.855 44.3917Z" fill="#ECFF00"/>
<path d="M600.973 40.9576L592.758 38.954L587.05 66.3258L589.976 67.0393L593.588 43.0315L599.537 41.94L600.973 40.9576Z" fill="#06566A" fill-opacity="0.2"/>
<path d="M590.746 38.8355L625.587 46.9643L627.24 40.1869L625.756 38.7204L593.433 30.8374L590.746 38.8355Z" fill="#ECFF00"/>
<path d="M590.746 38.8355L625.587 46.9643L627.24 40.1869L625.756 38.7204L593.433 30.8374L590.746 38.8355Z" fill="#06566A" fill-opacity="0.3"/>
<path d="M590.714 38.87L591.843 39.1454L594.868 32.8749L625.724 38.7549L593.401 30.8719L590.714 38.87Z" fill="#06566A" fill-opacity="0.3"/>
</g>
<g opacity="0.7">
<path d="M710.111 287.627L762.432 320.257L774.739 350.616L774.429 351.038L774.951 352.326L749.77 386.645L706.469 387.812L674.383 357.747L674.458 356.305L674.171 356.037L674.541 348.864L688.815 343.078L693.805 327.221L684.138 315.402L671.988 310.262L671.776 308.551L678.65 296.635L710.111 287.627Z" fill="#387888"/>
<path d="M762.432 320.257L710.111 287.627L678.65 296.635L671.776 308.552L683.925 313.692L694.135 326.173L688.815 343.078L674.541 348.864L674.171 356.037L706.257 386.102L749.558 384.935L774.739 350.616L762.432 320.257Z" fill="#518997"/>
<path opacity="0.5" d="M762.432 320.257L710.111 287.627L678.65 296.635L671.776 308.552L683.925 313.692L694.135 326.173L688.815 343.078L674.541 348.864L674.171 356.037L689.207 358.375L703.425 343.485L697.448 315.094L713.501 298.877L762.432 320.257Z" fill="#387888"/>
<path d="M711.005 309.444L712.331 317.334L704.289 320.594L700.866 312.15L707.495 308.292L711.005 309.444Z" fill="#ECFF00"/>
<path d="M729.404 307.565L721.429 308.206L720.232 316.801L729.256 318.058L731.378 310.688L729.404 307.565Z" fill="#ECFF00"/>
<path d="M729.404 307.565L721.429 308.206L720.232 316.801L729.256 318.058L731.378 310.688L729.404 307.565Z" fill="#06566A" fill-opacity="0.3"/>
<path d="M748.13 323.528L742.494 329.206L735.156 324.575L740.018 316.87L747.018 320.005L748.13 323.528Z" fill="#ECFF00"/>
<path d="M748.13 323.528L742.494 329.206L735.156 324.575L740.018 316.87L747.018 320.005L748.13 323.528Z" fill="#06566A" fill-opacity="0.5"/>
<path d="M749.514 337.616L756.826 340.863L755.108 349.369L746.177 347.566L746.617 339.908L749.514 337.616Z" fill="#ECFF00"/>
<path d="M749.514 337.616L756.826 340.863L755.108 349.369L746.177 347.566L746.617 339.908L749.514 337.616Z" fill="#06566A" fill-opacity="0.6"/>
<path d="M737.257 363.888L744.25 360.001L750.011 366.489L743.198 372.539L737.346 367.582L737.257 363.888Z" fill="#ECFF00"/>
<path d="M737.257 363.888L744.25 360.001L750.011 366.489L743.198 372.539L737.346 367.582L737.257 363.888Z" fill="#06566A" fill-opacity="0.7"/>
<path d="M697.172 331.913L689.641 342.793L709.908 365.295L720.365 354.607L713.959 344.778L706.494 341.035L703.954 334.989L697.172 331.913Z" fill="#ECFF00"/>
<path d="M697.482 339.783L691.252 346.15M704.714 342.854L699.137 347.189L696.937 351.713M710.186 349.544L705.959 353.864L701.485 356.163M714.062 354.226L706.734 363.08" stroke="#06566A" stroke-opacity="0.2" stroke-width="2"/>
<path d="M673.613 370.42L687.008 360.336L691.739 364.966L674.858 379.514L669.676 374.444L673.613 370.42Z" fill="#82AAB5"/>
<path d="M678.033 373.66L690.147 363.726L691.739 364.967L674.858 379.515L673.007 377.704L675.61 376.768L678.033 373.66Z" fill="#6A9AA6"/>
<path d="M700.977 374.005L691.74 364.966L687.008 360.337L679.978 350.395L688.727 341.453L713.285 365.483L700.977 374.005Z" fill="#B4CCD2"/>
<path d="M700.977 374.004L691.74 364.965L687.008 360.336L679.978 350.394L688.727 341.452L689.92 342.382L683.436 350.701L700.977 374.004Z" fill="#06566A" fill-opacity="0.1"/>
<path d="M722.328 348.979L699.689 391.03L701.915 392.765L726.594 352.303L722.328 348.979Z" fill="#B4CCD2"/>
<path d="M726.594 352.303L723.18 354.197L702.102 390.855L699.69 391.03L701.915 392.765L726.594 352.303Z" fill="#9BBBC3"/>
<path d="M721.684 348.771L727.564 352.255L726.139 355.03L724.316 354.709L720.985 352.773L720.051 351.384L721.684 348.771Z" fill="white"/>
<path d="M725.687 351.781L727.564 352.254L726.139 355.03L724.316 354.709L724.849 354.025L725.082 352.558L725.687 351.781Z" fill="#E6EEF0"/>
<path d="M722.974 345.046L722.188 349.677L726.594 352.304L729.498 350.131L728.749 345.917L731.265 340.618L729.424 340.393L722.974 345.046Z" fill="#ECFF00"/>
</g>
<g opacity="0.7">
<path d="M1332.44 88.0273L1338.47 89.197L1372.66 66.1112L1378.05 38.3738L1371.97 29.3743L1326.97 59.7503L1323.93 75.428L1332.44 88.0273Z" fill="#06708A"/>
<path d="M1319.24 86.7184L1286.07 80.285L1268.02 52.382L1279.06 43.8858L1292.62 46.5177L1325.72 82.3442L1319.24 86.7184Z" fill="#06708A"/>
<path d="M1347.42 95.4694L1311.54 88.5096L1259.64 123.804L1243.85 205.208L1257.7 225.726L1327.05 239.178L1347.57 225.327L1367.1 124.628L1347.42 95.4694Z" fill="#ECFF00"/>
<circle cx="1293.94" cy="221.18" r="1.53557" transform="rotate(10.9783 1293.94 221.18)" fill="white"/>
<circle cx="1308.85" cy="174.957" r="1.22846" transform="rotate(10.9783 1308.85 174.957)" fill="white"/>
<circle cx="1289.83" cy="156.877" r="1.84268" transform="rotate(10.9783 1289.83 156.877)" fill="white"/>
<circle cx="1302.86" cy="202.577" r="1.22846" transform="rotate(10.9783 1302.86 202.577)" fill="white"/>
<circle cx="1293.36" cy="183.84" r="1.22846" transform="rotate(10.9783 1293.36 183.84)" fill="white"/>
<circle cx="1306.46" cy="200.147" r="1.22846" transform="rotate(10.9783 1306.46 200.147)" fill="white"/>
<path d="M1295.13 94.0858L1257.69 119.359L1241.02 205.284L1260.04 233.061L1313.03 251.787L1337.03 236.109L1363.13 125.735L1346.55 101.558L1295.13 94.0858Z" stroke="#065669" stroke-opacity="0.4" stroke-width="2"/>
<circle cx="1286.08" cy="195.567" r="1.84268" transform="rotate(10.9783 1286.08 195.567)" fill="white"/>
<circle cx="1277.62" cy="211.758" r="1.53557" transform="rotate(10.9783 1277.62 211.758)" fill="white"/>
<circle cx="1302.77" cy="186.918" r="1.84268" transform="rotate(10.9783 1302.77 186.918)" fill="white"/>
<circle cx="1305.87" cy="180.636" r="1.84268" transform="rotate(10.9783 1305.87 180.636)" fill="white"/>
<circle cx="1300.66" cy="175.245" r="2.45691" transform="rotate(10.9783 1300.66 175.245)" fill="white"/>
</g>
<g opacity="0.7">
<path d="M1206.93 392.74L1227.03 384.726L1227.19 400.519L1216.61 404.736L1210.81 402.484L1206.93 392.74Z" fill="#B4CCD2"/>
<path d="M1206.93 392.74L1210.15 391.454L1213.56 399.997L1218.55 403.963L1216.61 404.736L1210.81 402.484L1206.93 392.74Z" fill="#9BBBC3"/>
<path d="M1249.96 375.504L1267.89 368.355L1273.37 382.115L1261.91 386.687L1257.38 384.416L1249.96 375.504Z" fill="#B4CCD2"/>
<path d="M1249.96 375.505L1254.68 373.621L1260.5 383.17L1264.27 385.743L1261.9 386.687L1257.38 384.417L1249.96 375.505Z" fill="#9BBBC3"/>
<path d="M1180.05 345.628L1249.1 318.097L1264.75 321.112L1280.24 359.952L1277.21 367.296L1200.83 397.748L1180.05 345.628Z" fill="#387888"/>
<path d="M1177.14 344.375L1246.18 316.843L1261.84 319.858L1277.32 358.698L1274.29 366.042L1197.92 396.495L1177.14 344.375Z" fill="#518997"/>
<path d="M1177.14 344.375L1246.48 316.725L1230.31 324.708L1184.18 344.756L1199.99 384.4L1197.67 388.431L1196.71 393.469L1177.14 344.375Z" fill="#387888"/>
<path d="M1240.44 331.94L1178.21 356.753L1189.85 385.958L1190.34 387.195L1193.26 388.445L1195.1 387.71L1261.02 361.429L1250.5 335.056L1240.44 331.94Z" fill="#82AAB5"/>
<path d="M1178.21 356.753L1240.23 332.023L1248.25 335.47L1258.1 360.175L1192.22 386.444L1189.71 385.601L1178.21 356.753Z" fill="#6A9AA6"/>
<path d="M1183.65 336.462L1196.16 331.474L1197.98 336.061L1185.48 341.048L1183.65 336.462Z" fill="#B4CCD2"/>
<path d="M1183.65 336.462L1196.16 331.474L1185.57 337.063L1186.93 340.47L1185.48 341.048L1183.65 336.462Z" fill="#9BBBC3"/>
<path d="M1179.49 328.455L1195.96 321.888L1199.28 330.227L1180.52 337.709L1178.19 331.871L1179.49 328.455Z" fill="#9BBBC3"/>
<path d="M1179.49 328.455L1195.96 321.888L1180.65 329.918L1180.18 332.381L1180.52 337.709L1178.19 331.871L1179.49 328.455Z" fill="#82AAB5"/>
<path d="M1205.29 357.592L1233.26 346.44L1240.53 349.391L1242.54 354.438L1209.31 367.687L1205.29 357.592Z" fill="#518997"/>
<path d="M1204.04 357.055L1232.01 345.902L1239.28 348.853L1241.29 353.901L1208.06 367.15L1204.04 357.055Z" fill="#1F6779"/>
<path d="M1216.52 356.285L1233.39 349.556L1234.01 353.448L1218.48 359.643L1216.52 356.285Z" fill="#ECFF00"/>
<path d="M1216.52 356.285L1233.39 349.556L1234.01 353.448L1218.48 359.643L1216.52 356.285Z" fill="#06566A" fill-opacity="0.3"/>
<path d="M1211.69 358.207L1227.68 351.835L1228.3 355.727L1213.65 361.565L1211.69 358.207Z" fill="#ECFF00"/>
<path d="M1196.61 357.993L1192.51 359.629L1191.44 362.142L1193.07 366.229L1194.07 366.659L1199.96 364.311L1197.61 358.422L1196.61 357.993Z" fill="#518997"/>
<path d="M1192.51 359.629L1196.61 357.993L1198.96 363.881L1193.07 366.229L1191.44 362.142L1192.51 359.629Z" fill="#1F6779"/>
<path d="M1199.97 366.406L1194.08 368.754L1196.43 374.642L1197.42 375.072L1201.62 373.399L1202.67 371.118L1200.97 366.835L1199.97 366.406Z" fill="#518997"/>
<path d="M1194.08 368.754L1199.97 366.406L1201.67 370.688L1200.62 372.97L1196.43 374.642L1194.08 368.754Z" fill="#1F6779"/>
<path d="M1231.2 303.628L1225.13 302.02L1224.36 313.715L1228.17 313.599L1227.92 321.759L1232.43 308.919L1228.38 310.184L1231.2 303.628Z" fill="#ECFF00"/>
<path d="M1204.28 310.785L1199.85 315.24L1209.59 321.753L1211.39 318.397L1218.33 322.694L1209.47 312.362L1208.54 316.503L1204.28 310.785Z" fill="#ECFF00"/>
</g>
</g>
<defs>
<clipPath id="clip0_755_2821">
<rect width="1470" height="453" fill="white"/>
</clipPath>
</defs>
</svg>
