<svg width="480" height="340" viewBox="0 0 480 340" fill="none" xmlns="http://www.w3.org/2000/svg">
<path d="M45.7317 0.650146H408.557L416.262 5.17415L451.083 120.084H69.2566L38.8227 19.651L41.1806 6.53135L45.7317 0.650146Z" fill="#518997"/>
<path d="M49.351 0.650146H408.557L416.262 5.17415L451.083 120.084H85.543L49.351 0.650146Z" fill="#1F6779"/>
<path fill-rule="evenodd" clip-rule="evenodd" d="M83.2646 26.3627L110.895 120.084H443.844L413.081 18.7461H90.8812L83.2646 26.3627Z" fill="#82AAB5"/>
<path d="M211.432 26.392L75.0925 62.9241L111.625 199.264L247.964 162.731L211.432 26.392Z" fill="white"/>
<path d="M184.778 59.7615L114.86 78.4958L138.278 165.893L208.196 147.159L184.778 59.7615Z" fill="#06566A" fill-opacity="0.25"/>
<path fill-rule="evenodd" clip-rule="evenodd" d="M137.22 92.5505C140.045 91.7941 141.735 88.9494 140.998 86.1988C140.262 83.4464 137.375 81.8305 134.551 82.5869C131.728 83.3433 130.036 86.188 130.772 88.9386C131.51 91.6892 134.397 93.3069 137.22 92.5505ZM158.647 84.4363L183.205 105.145L160.506 111.227L147.735 114.649L138.336 117.168L145.269 98.6996L151.611 103.915L158.647 84.4363Z" fill="#06566A"/>
<path d="M189.622 112.794L137.184 126.844L139.057 133.836L191.495 119.785L189.622 112.794Z" fill="#06566A"/>
<path d="M192.432 123.28L139.994 137.331L141.867 144.323L194.305 130.272L192.432 123.28Z" fill="#06566A"/>
<path d="M181.257 137.516L142.802 147.82L144.676 154.812L183.13 144.508L181.257 137.516Z" fill="#06566A"/>
<path fill-rule="evenodd" clip-rule="evenodd" d="M72.8761 61.6443L212.711 24.1755L250.18 164.011L110.345 201.48L72.8761 61.6443ZM77.3087 64.2035L112.904 197.047L245.748 161.452L210.152 28.6081L77.3087 64.2035Z" fill="#06566A"/>
<path d="M360.603 27.7941H219.454V168.943H360.603V27.7941Z" fill="white"/>
<path d="M271.932 44.0806H253.836V49.5094H271.932V44.0806Z" fill="#06566A"/>
<path d="M293.647 44.0806H275.551V49.5094H293.647V44.0806Z" fill="#06566A"/>
<path d="M308.124 53.1284H253.836V63.986H308.124V53.1284Z" fill="#06566A"/>
<path d="M326.22 73.0342H253.836V127.322H326.22V73.0342Z" fill="#06566A"/>
<path fill-rule="evenodd" clip-rule="evenodd" d="M270.969 82.0823V86.9085V87.2487H270.124H262.884V118.274H270.969H271.706H279.17H311.743H317.172V113.448V86.9085V82.0823H311.743H276.456H270.969ZM270.969 91.5537V113.249H268.658V91.5537H270.969ZM275.589 87.2487H312.552V93.5823H275.589V87.2487ZM292.464 98.7849H275.589V102.404H292.464V98.7849ZM275.589 106.023H292.464V109.643H275.589V106.023ZM312.956 98.7849H296.083V102.404H312.956V98.7849ZM296.083 106.023H312.956V109.643H296.083V106.023Z" fill="white"/>
<path d="M326.22 136.37H253.836V142.704H326.22V136.37Z" fill="#06566A" fill-opacity="0.25"/>
<path d="M326.22 146.323H253.836V152.657H326.22V146.323Z" fill="#06566A" fill-opacity="0.25"/>
<path fill-rule="evenodd" clip-rule="evenodd" d="M217.644 25.9845H362.412V170.753H217.644V25.9845ZM221.263 29.6037V167.133H358.793V29.6037H221.263Z" fill="#06566A"/>
<path d="M477.784 61.114L341.444 24.5819L304.912 160.921L441.252 197.453L477.784 61.114Z" fill="white"/>
<path d="M450.812 98.8482L345.936 70.7466L331.885 123.185L436.761 151.286L450.812 98.8482Z" fill="#06566A"/>
<path d="M357.204 102.348L353.375 101.322L353.92 99.2064L357.135 100.068C357.702 100.22 358.185 100.272 358.585 100.225C358.988 100.173 359.316 100.03 359.568 99.7981C359.828 99.561 360.014 99.2372 360.125 98.8264C360.248 98.3631 360.261 97.9632 360.159 97.6284C360.065 97.2973 359.852 97.0168 359.519 96.787C359.191 96.5608 358.74 96.3707 358.167 96.2169L356.037 95.6469L352.686 108.151L349.613 107.328L353.609 92.4167L358.813 93.8101C359.68 94.0418 360.432 94.3313 361.071 94.6788C361.717 95.028 362.233 95.4334 362.622 95.8966C363.011 96.3581 363.263 96.8792 363.379 97.4601C363.494 98.0319 363.46 98.6671 363.274 99.3638C363.109 99.9773 362.818 100.507 362.398 100.951C361.985 101.398 361.439 101.704 360.756 101.872C360.081 102.044 359.265 102.019 358.308 101.798L357.204 102.348ZM355.319 108.857L350.782 107.641L352.622 105.565L355.961 106.459C356.5 106.604 356.963 106.637 357.351 106.559C357.74 106.472 358.056 106.3 358.301 106.045C358.545 105.788 358.719 105.466 358.824 105.075C358.94 104.639 358.967 104.239 358.902 103.879C358.845 103.519 358.679 103.211 358.404 102.954C358.131 102.692 357.731 102.489 357.204 102.348L354.245 101.555L354.83 99.4507L358.518 100.439L359.003 101.458C359.915 101.687 360.601 102.044 361.066 102.525C361.536 103.003 361.829 103.539 361.942 104.132C362.059 104.727 362.038 105.326 361.877 105.927C361.621 106.883 361.196 107.632 360.604 108.177C360.014 108.714 359.273 109.038 358.379 109.15C357.492 109.264 356.471 109.166 355.319 108.857ZM375.24 98.2129L378.302 99.0327L375.662 108.886C375.354 110.031 374.85 110.933 374.147 111.586C373.453 112.241 372.622 112.652 371.656 112.816C370.697 112.985 369.66 112.92 368.547 112.621C367.434 112.322 366.496 111.859 365.736 111.231C364.982 110.605 364.464 109.832 364.182 108.917C363.909 108.001 363.925 106.97 364.233 105.822L366.873 95.9708L369.946 96.7924L367.305 106.646C367.126 107.315 367.085 107.889 367.184 108.37C367.282 108.85 367.503 109.242 367.845 109.546C368.196 109.852 368.643 110.078 369.189 110.225C369.748 110.375 370.25 110.402 370.693 110.308C371.142 110.216 371.525 109.986 371.844 109.619C372.168 109.251 372.421 108.734 372.6 108.064L375.24 98.2129ZM387.499 101.497L383.503 116.408L380.441 115.589L384.437 100.676L387.499 101.497ZM392.088 102.726L391.444 105.133L379.276 101.874L379.92 99.467L392.088 102.726ZM400.671 105.026L396.675 119.939L393.612 119.117L397.609 104.206L400.671 105.026ZM405.258 106.255L404.614 108.662L392.446 105.402L393.092 102.996L405.258 106.255ZM417.068 117.038L416.879 117.744C416.575 118.879 416.148 119.854 415.6 120.674C415.052 121.492 414.411 122.145 413.682 122.63C412.954 123.108 412.156 123.41 411.288 123.535C410.426 123.663 409.525 123.602 408.582 123.348C407.647 123.099 406.834 122.7 406.147 122.158C405.464 121.616 404.923 120.956 404.525 120.176C404.129 119.389 403.894 118.502 403.821 117.518C403.756 116.533 403.876 115.475 404.18 114.342L404.368 113.634C404.674 112.494 405.101 111.519 405.647 110.706C406.196 109.887 406.834 109.235 407.565 108.75C408.302 108.267 409.102 107.961 409.961 107.835C410.83 107.708 411.731 107.771 412.667 108.021C413.609 108.274 414.422 108.671 415.104 109.212C415.792 109.755 416.331 110.419 416.722 111.204C417.118 111.991 417.348 112.876 417.415 113.861C417.489 114.838 417.373 115.898 417.068 117.038ZM413.776 116.913L413.97 116.186C414.183 115.393 414.297 114.678 414.315 114.04C414.333 113.399 414.255 112.838 414.085 112.353C413.915 111.868 413.656 111.47 413.309 111.157C412.963 110.837 412.531 110.609 412.012 110.469C411.492 110.33 411.004 110.312 410.544 110.415C410.093 110.515 409.672 110.732 409.283 111.067C408.899 111.403 408.557 111.852 408.251 112.415C407.947 112.977 407.688 113.654 407.477 114.447L407.281 115.172C407.071 115.958 406.957 116.674 406.937 117.321C406.919 117.959 406.995 118.526 407.164 119.016C407.334 119.501 407.593 119.903 407.938 120.223C408.284 120.542 408.716 120.771 409.236 120.911C409.755 121.05 410.244 121.068 410.703 120.963C411.163 120.86 411.584 120.639 411.966 120.303C412.352 119.961 412.696 119.507 413 118.946C413.307 118.376 413.564 117.699 413.776 116.913ZM433.321 113.776L429.326 128.687L426.253 127.863L422.94 116.262L420.262 126.258L417.189 125.435L421.185 110.524L424.257 111.347L427.578 122.961L430.26 112.954L433.321 113.776Z" fill="#ECFF00"/>
<path fill-rule="evenodd" clip-rule="evenodd" d="M340.165 22.3657L480 59.8345L442.531 199.67L302.696 162.201L340.165 22.3657ZM342.724 26.7983L307.128 159.642L439.972 195.237L475.567 62.3937L342.724 26.7983Z" fill="#06566A"/>
<path d="M92.7813 138.18H469.179V267.566L448.368 288.377H110.877C100.885 288.377 92.7813 280.275 92.7813 270.281V138.18Z" fill="#06566A"/>
<path opacity="0.1" d="M92.7813 138.18H134.402H469.179V154.466H134.402L117.211 187.039V239.518C111.125 251.689 92.7813 247.359 92.7813 233.75V138.18Z" fill="black"/>
<path d="M85.543 120.084H468.198L476.417 125.513V141.799H88.2574L85.543 138.18V120.084Z" fill="#518997"/>
<path d="M85.543 120.084H468.198L476.417 125.513L90.9718 128.227L88.2574 141.799L85.543 138.18V120.084Z" fill="#387888"/>
<path d="M208.596 116.465H224.882L232.121 124.608V161.705H208.596V116.465Z" fill="#CDDDE1"/>
<path d="M208.596 116.465H224.882L213.12 128.227V161.705H208.596V116.465Z" fill="#B4CCD2"/>
<path d="M329.839 116.465H346.126L353.364 124.608V161.705H329.839V116.465Z" fill="#CDDDE1"/>
<path d="M329.839 116.465H346.126L334.363 128.227V161.705H329.839V116.465Z" fill="#B4CCD2"/>
<path fill-rule="evenodd" clip-rule="evenodd" d="M267.392 170.928H257.206H253.836V175.231H257.206V246.769L263.993 253.725H275.736V179.477L267.392 170.928Z" fill="#ECFF00"/>
<path fill-rule="evenodd" clip-rule="evenodd" d="M295.276 212.929H271.693L311.646 253.756L323.437 241.705L295.276 212.929Z" fill="#ECFF00"/>
<path fill-rule="evenodd" clip-rule="evenodd" d="M275.837 224.331H294.393L328.292 189.69H299.613L270.776 219.16L275.837 224.331Z" fill="#06566A"/>
<path fill-rule="evenodd" clip-rule="evenodd" d="M269.165 219.297H291.063L318.183 191.583H296.285L269.165 219.297Z" fill="#ECFF00"/>
<path d="M318.186 191.583H304.71V195.888H318.186V191.583Z" fill="#ECFF00"/>
<path fill-rule="evenodd" clip-rule="evenodd" d="M306.226 253.417L319.906 239.436L322.765 242.359L309.083 256.338L306.226 253.417Z" fill="#ECFF00"/>
<path d="M129.732 269.376L239.359 301.949L139.073 337.994L5.92032 296.373L129.732 269.376Z" fill="#06566A" fill-opacity="0.3"/>
<path d="M177.797 199.173L37.9614 161.705L0.492631 301.54L140.328 339.009L177.797 199.173Z" fill="white"/>
<g opacity="0.25">
<path opacity="0.25" d="M51.224 182.121L49.4759 181.652L49.009 183.4L20.9059 288.275L20.439 290.024L22.1871 290.492L127.063 318.594L128.811 319.062L129.279 317.314L157.381 212.437L157.849 210.689L156.101 210.222L51.224 182.121Z" stroke="#06566A" stroke-width="2"/>
<mask id="mask0_756_3012" style="mask-type:alpha" maskUnits="userSpaceOnUse" x="22" y="183" width="134" height="134">
<g opacity="0.25">
<path opacity="0.25" d="M50.7571 183.867L155.633 211.97L127.531 316.846L22.654 288.744L50.7571 183.867Z" fill="#06566A"/>
</g>
</mask>
<g mask="url(#mask0_756_3012)">
<g opacity="0.25">
<path opacity="0.25" d="M155.633 211.969L50.757 183.867L47.9468 194.355L152.823 222.456L155.633 211.969Z" fill="#06566A"/>
<path opacity="0.25" d="M129.413 204.945L76.9745 190.894L75.1011 197.886L127.539 211.936L129.413 204.945Z" fill="white"/>
</g>
</g>
</g>
<path d="M98.511 215.398L54.8124 203.689L44.9769 240.396L88.6754 252.105L98.511 215.398Z" fill="#06566A"/>
<path fill-rule="evenodd" clip-rule="evenodd" d="M62.6136 221.329C64.244 221.765 65.9106 220.828 66.3359 219.236C66.7629 217.643 65.7894 215.998 64.1607 215.56C62.5303 215.124 60.8637 216.062 60.4366 217.654C60.0114 219.248 60.9849 220.893 62.6136 221.329ZM75.6626 223.452L81.9437 240.935L68.8476 237.426L61.4807 235.451L56.0592 233.998L64.8575 226.738L66.5187 231.188L75.6626 223.452Z" fill="#ECFF00"/>
<path d="M140.102 234.972L105.143 225.605L103.894 230.266L138.853 239.634L140.102 234.972Z" fill="#06566A"/>
<path d="M137.916 243.13L102.957 233.763L101.708 238.424L136.667 247.791L137.916 243.13Z" fill="#06566A"/>
<path d="M126.407 248.788L100.771 241.919L99.5219 246.58L125.158 253.449L126.407 248.788Z" fill="#06566A"/>
<path d="M75.4862 266.367L40.5273 257L39.2784 261.661L74.2372 271.028L75.4862 266.367Z" fill="#06566A"/>
<path d="M73.3002 274.525L38.3413 265.158L37.0924 269.819L72.0512 279.186L73.3002 274.525Z" fill="#06566A"/>
<path d="M61.7918 280.185L36.1553 273.316L34.9064 277.977L60.5429 284.846L61.7918 280.185Z" fill="#06566A"/>
<path d="M130.032 272.553L86.3338 260.844L76.4982 297.551L120.197 309.26L130.032 272.553Z" fill="#06566A"/>
<path fill-rule="evenodd" clip-rule="evenodd" d="M94.1349 278.484C95.7654 278.921 97.4302 277.984 97.8573 276.39C98.2844 274.797 97.3108 273.152 95.6803 272.716C94.0517 272.28 92.3851 273.218 91.958 274.81C91.531 276.402 92.5063 278.047 94.1349 278.484ZM107.182 280.606L113.465 298.089L100.369 294.58L93.0022 292.606L87.5788 291.153L96.3789 283.894L98.0401 288.342L107.182 280.606Z" fill="#ECFF00"/>
<path fill-rule="evenodd" clip-rule="evenodd" d="M37.9611 161.705L177.796 199.174L140.328 339.009L0.492371 301.54L37.9611 161.705ZM40.5203 166.137L4.92497 298.981L137.769 334.576L173.364 201.733L40.5203 166.137Z" fill="#06566A"/>
</svg>
