<svg width="250" height="80" viewBox="0 0 250 80" fill="none" xmlns="http://www.w3.org/2000/svg">
<rect width="250" height="80" fill="white"/>
<rect width="80" height="80" fill="#06566A" fill-opacity="0.05"/>
<path d="M16.791 28.9434V30.3145H12.3379V28.9434H16.791ZM12.8594 25.4688V34H11.1016V25.4688H12.8594ZM18.0449 25.4688V34H16.293V25.4688H18.0449ZM25.2988 32.6289V34H20.7578V32.6289H25.2988ZM21.332 25.4688V34H19.5742V25.4688H21.332ZM24.707 28.9434V30.2793H20.7578V28.9434H24.707ZM25.293 25.4688V26.8457H20.7578V25.4688H25.293ZM29.793 26.9277L27.4727 34H25.6035L28.7734 25.4688H29.9629L29.793 26.9277ZM31.7207 34L29.3945 26.9277L29.207 25.4688H30.4082L33.5957 34H31.7207ZM31.6152 30.8242V32.2012H27.1094V30.8242H31.6152ZM37.0059 34H35.1484L35.1602 32.6289H37.0059C37.4668 32.6289 37.8555 32.5254 38.1719 32.3184C38.4883 32.1074 38.7266 31.8008 38.8867 31.3984C39.0508 30.9961 39.1328 30.5098 39.1328 29.9395V29.5234C39.1328 29.0859 39.0859 28.7012 38.9922 28.3691C38.9023 28.0371 38.7676 27.7578 38.5879 27.5312C38.4082 27.3047 38.1875 27.1348 37.9258 27.0215C37.6641 26.9043 37.3633 26.8457 37.0234 26.8457H35.1133V25.4688H37.0234C37.5938 25.4688 38.1152 25.5664 38.5879 25.7617C39.0645 25.9531 39.4766 26.2285 39.8242 26.5879C40.1719 26.9473 40.4395 27.377 40.627 27.877C40.8184 28.373 40.9141 28.9258 40.9141 29.5352V29.9395C40.9141 30.5449 40.8184 31.0977 40.627 31.5977C40.4395 32.0977 40.1719 32.5273 39.8242 32.8867C39.4805 33.2422 39.0684 33.5176 38.5879 33.7129C38.1113 33.9043 37.584 34 37.0059 34ZM36.1445 25.4688V34H34.3867V25.4688H36.1445ZM47.6758 32.6289V34H43.3809V32.6289H47.6758ZM43.9492 25.4688V34H42.1914V25.4688H43.9492ZM50.5527 25.4688V34H48.8008V25.4688H50.5527ZM59.1426 25.4688V34H57.3848L53.957 28.2812V34H52.1992V25.4688H53.957L57.3906 31.1934V25.4688H59.1426ZM66.3965 32.6289V34H61.8555V32.6289H66.3965ZM62.4297 25.4688V34H60.6719V25.4688H62.4297ZM65.8047 28.9434V30.2793H61.8555V28.9434H65.8047ZM66.3906 25.4688V26.8457H61.8555V25.4688H66.3906Z" fill="#06566A"/>
<rect x="10" y="41" width="60" height="4" fill="#06566A" fill-opacity="0.25"/>
<rect x="10" y="47" width="60" height="4" fill="#06566A" fill-opacity="0.25"/>
<rect x="10" y="53" width="44" height="4" fill="#06566A" fill-opacity="0.25"/>
</svg>
