<svg width="250" height="80" viewBox="0 0 250 80" fill="none" xmlns="http://www.w3.org/2000/svg">
<rect width="250" height="80" fill="white"/>
<rect width="80" height="80" fill="#06566A" fill-opacity="0.05"/>
<path fill-rule="evenodd" clip-rule="evenodd" d="M20.9207 33L23 35.1031L18.1874 39.9709L18.1586 40L18.1874 40.0291L23 44.8969L20.9207 47L15 41.0115L14 40L15 38.9885L20.9207 33Z" fill="#06566A"/>
<g clip-path="url(#clip0_758_4241)">
<path d="M34.1777 43.18C34.1777 41.64 34.5044 40.1933 35.1577 38.84C35.811 37.4867 36.6977 36.25 37.8177 35.13C38.9844 33.9633 40.3144 32.9833 41.8077 32.19L43.0677 33.8C41.901 34.7333 40.8977 35.76 40.0577 36.88C39.2177 37.9533 38.7977 39.05 38.7977 40.17C38.7977 40.8233 38.9144 41.2667 39.1477 41.5C39.381 41.7333 39.6844 41.9667 40.0577 42.2C40.571 42.48 41.0377 42.8767 41.4577 43.39C41.8777 43.9033 42.0877 44.6033 42.0877 45.49C42.0877 46.47 41.761 47.31 41.1077 48.01C40.4544 48.71 39.6144 49.06 38.5877 49.06C37.3744 49.06 36.3244 48.57 35.4377 47.59C34.5977 46.61 34.1777 45.14 34.1777 43.18ZM44.8877 43.18C44.8877 41.64 45.2144 40.1933 45.8677 38.84C46.521 37.4867 47.4077 36.25 48.5277 35.13C49.6944 33.9633 51.0244 32.9833 52.5177 32.19L53.7777 33.8C52.611 34.7333 51.6077 35.76 50.7677 36.88C49.9277 37.9533 49.5077 39.05 49.5077 40.17C49.5077 40.8233 49.6244 41.2667 49.8577 41.5C50.091 41.7333 50.3944 41.9667 50.7677 42.2C51.281 42.48 51.7477 42.8767 52.1677 43.39C52.5877 43.9033 52.7977 44.6033 52.7977 45.49C52.7977 46.47 52.471 47.31 51.8177 48.01C51.1644 48.71 50.3244 49.06 49.2977 49.06C48.0844 49.06 47.0344 48.57 46.1477 47.59C45.3077 46.61 44.8877 45.14 44.8877 43.18Z" fill="#06566A"/>
</g>
<path fill-rule="evenodd" clip-rule="evenodd" d="M66.0793 33L64 35.1031L68.8126 39.9709L68.8414 40L68.8126 40.0291L64 44.8969L66.0793 47L72 41.0115L73 40L72 38.9885L66.0793 33Z" fill="#06566A"/>
<defs>
<clipPath id="clip0_758_4241">
<rect width="21" height="18" fill="white" transform="translate(33 31)"/>
</clipPath>
</defs>
</svg>
