<svg width="250" height="80" viewBox="0 0 250 80" fill="none" xmlns="http://www.w3.org/2000/svg">
<path d="M80 0H0V80H80V0Z" fill="#E6EAEB"/>
<g opacity="0.25">
<path d="M10 9H9V10V70V71H10H70H71V70V10V9H70H10Z" stroke="#06566A" stroke-width="2"/>
<mask id="mask0_1832_3942" style="mask-type:alpha" maskUnits="userSpaceOnUse" x="9" y="9" width="62" height="62">
<path d="M10 9.5H9.5V10V70V70.5H10H70H70.5V70V10V9.5H70H10Z" fill="#06566A" stroke="#06566A"/>
</mask>
<g mask="url(#mask0_1832_3942)">
<path d="M70 10H10V16H70V10Z" fill="#06566A"/>
<path d="M55 10H25V14H55V10Z" fill="white"/>
</g>
</g>
<path d="M59 25H21V43H59V25Z" fill="#06566A" fill-opacity="0.25" stroke="#06566A" stroke-width="2"/>
<path d="M59 47H21V65H59V47Z" stroke="#06566A" stroke-opacity="0.25" stroke-width="2"/>
</svg>
