<svg width="250" height="80" viewBox="0 0 250 80" fill="none" xmlns="http://www.w3.org/2000/svg">
<rect width="250" height="80" fill="white"/>
<rect width="80" height="80" fill="#06566A" fill-opacity="0.05"/>
<path fill-rule="evenodd" clip-rule="evenodd" d="M17.9207 33L20 35.1031L15.1874 39.9709L15.1586 40L15.1874 40.0291L20 44.8969L17.9207 47L12 41.0115L11 40L12 38.9885L17.9207 33Z" fill="#06566A"/>
<rect x="30" y="32" width="26" height="4" fill="#06566A"/>
<rect x="30" y="38" width="26" height="4" fill="#06566A"/>
<rect x="30" y="44" width="19.0667" height="4" fill="#06566A"/>
<path fill-rule="evenodd" clip-rule="evenodd" d="M68.0793 33L66 35.1031L70.8126 39.9709L70.8414 40L70.8126 40.0291L66 44.8969L68.0793 47L74 41.0115L75 40L74 38.9885L68.0793 33Z" fill="#06566A"/>
</svg>
