<svg width="250" height="80" viewBox="0 0 250 80" fill="none" xmlns="http://www.w3.org/2000/svg">
<path d="M80 0H0V80H80V0Z" fill="#E6EAEB"/>
<path d="M70 16H43V22H70V16Z" fill="#06566A"/>
<path d="M70 24H43V28H70V24Z" fill="#06566A" fill-opacity="0.25"/>
<path d="M70 30H43V34H70V30Z" fill="#06566A" fill-opacity="0.25"/>
<path d="M70 36H43V40H70V36Z" fill="#06566A" fill-opacity="0.25"/>
<path d="M70 42H10V46H70V42Z" fill="#06566A" fill-opacity="0.25"/>
<path d="M70 48H10V52H70V48Z" fill="#06566A" fill-opacity="0.25"/>
<path d="M54 54H10V58H54V54Z" fill="#06566A" fill-opacity="0.25"/>
<path d="M39 16H10V39H39V16Z" fill="#06566A"/>
<path fill-rule="evenodd" clip-rule="evenodd" d="M17.1375 24.9C18.318 24.9 19.275 24.027 19.275 22.95C19.275 21.873 18.318 21 17.1375 21C15.957 21 15 21.873 15 22.95C15 24.027 15.957 24.9 17.1375 24.9ZM26.3437 24.0333L33.7583 34H24.2683H18.9291H15L19.6341 27.9333L21.5634 30.459L26.3437 24.0333Z" fill="#ECFF00"/>
</svg>
