<svg width="250" height="250" viewBox="0 0 250 250" fill="none" xmlns="http://www.w3.org/2000/svg">
<path d="M64.9639 181.219H103.802L93.5813 207.661H73.1403L64.9639 200.049V181.219Z" fill="#B4CCD2"/>
<path d="M64.9639 181.219H71.1952V197.727L76.8891 207.661H73.1403L64.9639 200.049V181.219Z" fill="#9BBBC3"/>
<path d="M148.166 181.087H182.813V207.677H160.655L154.612 200.879L148.166 181.087Z" fill="#B4CCD2"/>
<path d="M148.165 181.087H157.294L160.654 200.879L165.231 207.677H160.654L154.611 200.879L148.165 181.087Z" fill="#9BBBC3"/>
<path d="M51.4749 84.7987H184.907L209 100.232V175.288L199.063 185.518H51.4749V84.7987Z" fill="white"/>
<path d="M47.446 80.7699H180.878L204.971 96.2027V171.259L195.035 181.489H47.446V80.7699Z" fill="#B4CCD2"/>
<path d="M47.446 80.7699H181.451L149.185 83.3306L58.9445 86.0913V162.701L52.3878 167.877L47.446 175.641V80.7699Z" fill="#9BBBC3"/>
<path d="M161.259 102.123H41V158.56V160.949L45.0267 164.972H48.5919H175.964V114.007L161.259 102.123Z" fill="#82AAB5"/>
<path d="M41 102.123H160.856L171.935 113.202V160.943H44.6234L41 157.87V102.123Z" fill="white"/>
<path d="M63.5613 71.9066H87.7339V80.7699H63.5613V71.9066Z" fill="#B4CCD2"/>
<path d="M63.5613 71.9066H87.7339L66.3639 74.1859V80.7699H63.5613V71.9066Z" fill="#9BBBC3"/>
<path d="M61.9497 55.7914H93.7771V71.9065H57.5181V60.6259L61.9497 55.7914Z" fill="white"/>
<path d="M61.9497 55.7914H93.7771L62.9131 59.002L60.4975 62.7979L57.5181 71.9065V60.6259L61.9497 55.7914Z" fill="#E6EEF0"/>
<path d="M85.5952 121.527H139.648L149.808 131.281V141.035H85.5952V121.527Z" fill="#518997"/>
<path d="M83.8696 119.802H137.922L148.082 129.555V139.309H83.8696V119.802Z" fill="#1F6779"/>
<path d="M105.186 126.812H137.797L136.244 133.713H106.222L105.186 126.812Z" fill="#ECFF00"/>
<path d="M105.186 126.812H137.797L136.244 133.713H106.222L105.186 126.812Z" fill="#06566A" fill-opacity="0.3"/>
<path d="M95.8689 126.812H126.754L125.201 133.713H96.9042L95.8689 126.812Z" fill="#ECFF00"/>
<path d="M70.8651 116.428H62.9365L59.4856 119.91V127.807L60.8659 129.188H72.2454V117.808L70.8651 116.428Z" fill="#518997"/>
<path d="M62.9365 116.428H70.8651V127.807H59.4856V119.91L62.9365 116.428Z" fill="#1F6779"/>
<path d="M70.8651 132.684H59.4856V144.064L60.8659 145.444H68.9713L72.2454 142.341V134.065L70.8651 132.684Z" fill="#518997"/>
<path d="M59.4856 132.684H70.8651V140.96L67.591 144.064H59.4856V132.684Z" fill="#1F6779"/>
<path d="M164.676 48.7733L155.619 42.0538L146.563 61.0438L152.99 63.381L147.147 76.8202L163.215 58.4144L155.619 57.8301L164.676 48.7733Z" fill="#ECFF00"/>
<path d="M115.027 42.8097L104.68 47.2934L116.597 64.6318L121.835 60.2342L130.552 72.014L122.646 48.8954L118.342 55.1816L115.027 42.8097Z" fill="#ECFF00"/>
</svg>
