<svg width="250" height="250" viewBox="0 0 250 250" fill="none" xmlns="http://www.w3.org/2000/svg">
<g clip-path="url(#clip0_537_2157)">
<path d="M5 37L168 21L235.5 75.5V238.5L18 235L5 37Z" fill="#06566A" fill-opacity="0.1"/>
<path d="M15 27L178 11L245.5 65.5V228.5L28 225L15 27Z" fill="white"/>
<path d="M150.421 69.0391H123.205L90.2718 102.174V163.873L103.308 176.898H155.91L168.946 163.873V87.5488L150.421 69.0391Z" fill="#ECFF00"/>
<path d="M115.067 72.9152L92.1752 95.8076V158.541L109.344 175.49L149.186 181.433L163.934 167.126L167.235 85.9023L152.267 71.1543L115.067 72.9152Z" stroke="#065669" stroke-opacity="0.4" stroke-width="2"/>
<path fill-rule="evenodd" clip-rule="evenodd" d="M136.01 97.0748L140.529 95.2433L138.146 89.3633L131.764 91.9496L115.09 117.834L103.372 105.336L98.7435 109.676L116.021 128.104L136.01 97.0748Z" fill="#06566A"/>
<path d="M145.084 145.792L152.032 157.892L155.373 161.062L151.006 165.665L146.992 161.856L140.442 150.45L128.048 162.886L123.554 158.407L137.168 144.748L126.54 126.241L132.042 123.081L141.809 140.09L154.643 127.212L159.137 131.691L145.084 145.792Z" fill="#06566A"/>
<path d="M88.455 102.243C88.455 96.744 91.8388 93.0218 96.9991 93.0218V87.4385C88.455 87.4385 82.7025 93.3602 82.7025 102.243V112.733C82.7025 119.839 80.3338 121.869 74.1582 121.869V127.029C80.3338 127.029 82.7025 129.06 82.7025 136.081V146.655C82.7025 155.538 88.455 161.46 96.9991 161.46V155.876C91.8388 155.876 88.455 152.154 88.455 146.655V135.996C88.455 129.482 87.0168 126.014 82.2795 124.407C87.0168 122.799 88.455 119.416 88.455 112.902V102.243Z" fill="#06566A"/>
<path d="M175.204 109.645C175.204 104.146 171.82 100.424 166.66 100.424V94.8408C175.204 94.8408 180.956 100.763 180.956 109.645V120.135C180.956 127.241 183.325 129.271 189.5 129.271V134.432C183.325 134.432 180.956 136.462 180.956 143.483V154.058C180.956 162.94 175.204 168.862 166.66 168.862V163.279C171.82 163.279 175.204 159.556 175.204 154.058V143.399C175.204 136.885 176.642 133.416 181.379 131.809C176.642 130.202 175.204 126.818 175.204 120.304V109.645Z" fill="#06566A"/>
<circle cx="210.5" cy="210.5" r="38.5" fill="white" stroke="#9BBBC3" stroke-width="3"/>
<path fill-rule="evenodd" clip-rule="evenodd" d="M208.406 200.952C208.696 200.879 208.943 200.808 209.082 200.736C209.638 200.449 209.982 199.496 209.982 198.685C209.982 197.628 209.293 196.886 208.527 196.235C207.976 195.768 207.823 194.898 207.823 194.098C207.823 192.111 209.434 190.5 211.421 190.5C213.408 190.5 215.019 192.111 215.019 194.098C215.019 195.017 214.675 195.855 214.108 196.491C213.775 196.751 213.506 197.084 213.321 197.465C213.136 197.845 213.04 198.262 213.04 198.685C213.04 199.496 213.332 200.241 213.94 200.641C214.144 200.776 214.616 200.87 215.152 200.952H225.676C226.16 200.952 226.624 201.144 226.966 201.487C227.308 201.829 227.5 202.293 227.5 202.777V224.675C227.5 225.159 227.308 225.623 226.966 225.966C226.624 226.308 226.16 226.5 225.676 226.5H197.779C197.295 226.5 196.831 226.308 196.489 225.966C196.147 225.623 195.955 225.159 195.955 224.675V216.861C195.881 216.562 195.808 216.309 195.735 216.166C195.447 215.61 194.495 215.266 193.684 215.266C192.627 215.266 191.885 215.955 191.235 216.722C190.767 217.273 189.898 217.426 189.097 217.426C187.11 217.426 185.5 215.815 185.5 213.827C185.5 211.839 187.11 210.228 189.097 210.228C190.016 210.228 190.854 210.573 191.49 211.14C191.75 211.473 192.083 211.742 192.464 211.927C192.844 212.112 193.261 212.208 193.684 212.208C194.495 212.208 195.24 211.915 195.64 211.308C195.777 211.1 195.872 210.614 195.955 210.065V202.777C195.955 202.293 196.147 201.829 196.489 201.487C196.831 201.144 197.295 200.952 197.779 200.952H208.406Z" fill="#79BFF8"/>
<path fill-rule="evenodd" clip-rule="evenodd" d="M208.776 222.307C208.918 222.307 209.058 222.335 209.189 222.39C209.32 222.444 209.439 222.523 209.539 222.624C209.64 222.724 209.719 222.843 209.773 222.974C209.827 223.105 209.855 223.246 209.855 223.387C209.855 223.529 209.827 223.67 209.773 223.801C209.719 223.932 209.64 224.051 209.539 224.151C209.439 224.251 209.32 224.331 209.189 224.385C209.058 224.44 208.918 224.468 208.776 224.468H203.922C203.635 224.467 203.361 224.354 203.159 224.151C202.956 223.949 202.843 223.674 202.843 223.388C202.843 223.246 202.87 223.105 202.925 222.974C202.979 222.843 203.058 222.724 203.158 222.624C203.258 222.524 203.377 222.444 203.508 222.39C203.639 222.335 203.78 222.307 203.922 222.307H208.776ZM210.395 218.526C210.681 218.526 210.955 218.64 211.158 218.843C211.36 219.046 211.474 219.32 211.473 219.606C211.474 219.893 211.36 220.167 211.158 220.37C210.955 220.573 210.681 220.687 210.395 220.687H206.619C206.332 220.687 206.058 220.573 205.855 220.37C205.653 220.167 205.54 219.893 205.54 219.606C205.54 219.32 205.653 219.046 205.855 218.843C206.058 218.64 206.332 218.526 206.619 218.526H210.395ZM216.598 218.526C216.884 218.526 217.159 218.64 217.361 218.843C217.563 219.046 217.677 219.32 217.677 219.606C217.677 219.893 217.563 220.167 217.361 220.37C217.159 220.573 216.884 220.687 216.598 220.687H214.17C213.884 220.687 213.61 220.573 213.407 220.37C213.205 220.167 213.092 219.893 213.092 219.606C213.092 219.32 213.205 219.046 213.407 218.843C213.61 218.64 213.884 218.526 214.17 218.526H216.598ZM222.262 214.745C222.548 214.745 222.823 214.859 223.025 215.062C223.227 215.264 223.341 215.539 223.341 215.825C223.341 215.967 223.313 216.107 223.259 216.239C223.205 216.37 223.125 216.489 223.025 216.589C222.925 216.689 222.806 216.769 222.675 216.823C222.544 216.878 222.404 216.906 222.262 216.906H206.619C206.332 216.906 206.058 216.792 205.855 216.589C205.653 216.386 205.54 216.112 205.54 215.826C205.54 215.539 205.653 215.265 205.855 215.062C206.058 214.859 206.332 214.745 206.619 214.745H222.262ZM217.677 210.964C217.963 210.964 218.237 211.078 218.44 211.281C218.642 211.483 218.756 211.758 218.755 212.044C218.756 212.331 218.642 212.605 218.44 212.808C218.237 213.01 217.963 213.124 217.677 213.125H206.619C206.332 213.124 206.058 213.01 205.856 212.808C205.653 212.605 205.54 212.331 205.54 212.045C205.54 211.903 205.567 211.762 205.622 211.631C205.676 211.5 205.755 211.381 205.855 211.281C205.956 211.181 206.074 211.101 206.205 211.047C206.336 210.992 206.477 210.964 206.619 210.964H217.677ZM213.361 207.183C213.648 207.183 213.922 207.297 214.124 207.5C214.327 207.702 214.44 207.977 214.44 208.263C214.44 208.405 214.412 208.545 214.358 208.676C214.304 208.807 214.225 208.926 214.125 209.027C214.024 209.127 213.905 209.207 213.774 209.261C213.644 209.316 213.503 209.344 213.361 209.344H203.922C203.635 209.343 203.361 209.23 203.158 209.027C202.956 208.824 202.843 208.55 202.843 208.263C202.843 207.977 202.956 207.702 203.158 207.5C203.361 207.297 203.635 207.183 203.922 207.183H213.361H213.361ZM208.776 203.402C208.918 203.402 209.058 203.43 209.189 203.484C209.32 203.539 209.439 203.618 209.539 203.719C209.64 203.819 209.719 203.938 209.773 204.069C209.827 204.2 209.855 204.34 209.855 204.482C209.855 204.624 209.827 204.764 209.773 204.895C209.719 205.026 209.64 205.145 209.539 205.246C209.439 205.346 209.32 205.426 209.189 205.48C209.058 205.534 208.918 205.562 208.776 205.562H202.034C201.747 205.562 201.473 205.448 201.271 205.246C201.068 205.043 200.955 204.769 200.955 204.482C200.955 204.341 200.982 204.2 201.037 204.069C201.091 203.938 201.17 203.819 201.27 203.719C201.371 203.618 201.49 203.539 201.62 203.484C201.751 203.43 201.892 203.402 202.034 203.402H208.776Z" fill="#C0E6FF"/>
</g>
<defs>
<clipPath id="clip0_537_2157">
<rect width="250" height="250" fill="white"/>
</clipPath>
</defs>
</svg>
