<svg width="250" height="250" viewBox="0 0 250 250" fill="none" xmlns="http://www.w3.org/2000/svg">
<path d="M12.7174 18H200.217L235.346 62.5L209.717 241.5L32.2174 234.229L4 196.5L12.7174 18Z" fill="#06566A" fill-opacity="0.1"/>
<path d="M22.7174 8H210.217L245.346 52.5L219.717 231.5L42.2174 224.229L14 186.5L22.7174 8Z" fill="white"/>
<path fill-rule="evenodd" clip-rule="evenodd" d="M134.717 94.5584V111.058L133.617 111.333H133.067L132.792 110.783L132.242 110.508C130.275 108.946 127.917 107.952 125.425 107.635C122.933 107.318 120.401 107.69 118.105 108.71C115.81 109.73 113.837 111.36 112.402 113.423C110.968 115.485 110.125 117.901 109.967 120.408C109.967 127.833 116.017 133.608 123.442 133.608C127.017 133.608 130.042 132.783 132.242 130.308L133.617 128.933H134.717V142.958C134.717 145.876 133.558 148.673 131.495 150.736C129.432 152.799 126.634 153.958 123.717 153.958H74.2172C71.2999 153.958 68.502 152.799 66.4391 150.736C64.3762 148.673 63.2173 145.876 63.2173 142.958V93.4584C63.2173 90.5411 64.3762 87.7432 66.4391 85.6803C68.502 83.6174 71.2999 82.4585 74.2172 82.4585H123.717C126.634 82.4585 129.432 83.6174 131.495 85.6803C133.558 87.7432 134.717 90.5411 134.717 93.4584V94.5584Z" fill="#79C9FC"/>
<path fill-rule="evenodd" clip-rule="evenodd" d="M140.218 141.858C140.218 144.058 142.143 145.708 144.343 145.708H191.092C193.292 145.708 195.217 144.058 195.217 141.858V94.5585C195.217 92.3585 193.292 90.7085 191.092 90.7085H144.343C142.143 90.7085 140.218 92.3585 140.218 94.5585V112.158C140.218 113.533 139.943 114.358 139.393 114.908C138.568 116.283 135.268 116.833 133.618 116.833C131.693 116.833 129.768 116.008 128.668 114.633C127.275 113.464 125.535 112.787 123.718 112.708C121.649 112.707 119.662 113.51 118.174 114.946C116.686 116.383 115.814 118.341 115.743 120.408C115.743 124.533 119.318 128.108 123.718 128.108C125.368 128.108 127.293 127.833 128.393 126.458C129.768 124.808 131.418 123.708 133.893 123.708C135.543 123.708 139.393 124.258 139.943 125.358L140.493 127.008V141.858H140.218Z" fill="#87E6E5"/>
<circle cx="210" cy="210" r="38.5" fill="white" stroke="#9BBBC3" stroke-width="3"/>
<path fill-rule="evenodd" clip-rule="evenodd" d="M207.906 200.452C208.196 200.379 208.443 200.308 208.582 200.236C209.138 199.949 209.482 198.996 209.482 198.185C209.482 197.128 208.793 196.386 208.027 195.735C207.476 195.268 207.323 194.398 207.323 193.598C207.323 191.611 208.934 190 210.921 190C212.908 190 214.519 191.611 214.519 193.598C214.519 194.517 214.175 195.355 213.608 195.991C213.275 196.251 213.006 196.584 212.821 196.965C212.636 197.345 212.54 197.762 212.54 198.185C212.54 198.996 212.832 199.741 213.44 200.141C213.644 200.276 214.116 200.37 214.652 200.452H225.176C225.66 200.452 226.124 200.644 226.466 200.987C226.808 201.329 227 201.793 227 202.277V224.175C227 224.659 226.808 225.123 226.466 225.466C226.124 225.808 225.66 226 225.176 226H197.279C196.795 226 196.331 225.808 195.989 225.466C195.647 225.123 195.455 224.659 195.455 224.175V216.361C195.381 216.062 195.308 215.809 195.235 215.666C194.947 215.11 193.995 214.766 193.184 214.766C192.127 214.766 191.385 215.455 190.735 216.222C190.267 216.773 189.398 216.926 188.597 216.926C186.61 216.926 185 215.315 185 213.327C185 211.339 186.61 209.728 188.597 209.728C189.516 209.728 190.354 210.073 190.99 210.64C191.25 210.973 191.583 211.242 191.964 211.427C192.344 211.612 192.761 211.708 193.184 211.708C193.995 211.708 194.74 211.415 195.14 210.808C195.277 210.6 195.372 210.114 195.455 209.565V202.277C195.455 201.793 195.647 201.329 195.989 200.987C196.331 200.644 196.795 200.452 197.279 200.452H207.906Z" fill="#79BFF8"/>
<path fill-rule="evenodd" clip-rule="evenodd" d="M208.276 221.807C208.418 221.807 208.558 221.835 208.689 221.89C208.82 221.944 208.939 222.023 209.039 222.124C209.14 222.224 209.219 222.343 209.273 222.474C209.327 222.605 209.355 222.746 209.355 222.887C209.355 223.029 209.327 223.17 209.273 223.301C209.219 223.432 209.14 223.551 209.039 223.651C208.939 223.751 208.82 223.831 208.689 223.885C208.558 223.94 208.418 223.968 208.276 223.968H203.421C203.135 223.967 202.861 223.854 202.659 223.651C202.456 223.449 202.343 223.174 202.343 222.888C202.343 222.746 202.37 222.605 202.425 222.474C202.479 222.343 202.558 222.224 202.658 222.124C202.758 222.024 202.877 221.944 203.008 221.89C203.139 221.835 203.28 221.807 203.421 221.807H208.276ZM209.895 218.026C210.181 218.026 210.455 218.14 210.658 218.343C210.86 218.546 210.974 218.82 210.973 219.106C210.974 219.393 210.86 219.667 210.658 219.87C210.455 220.073 210.181 220.187 209.895 220.187H206.119C205.832 220.187 205.558 220.073 205.355 219.87C205.153 219.667 205.04 219.393 205.04 219.106C205.04 218.82 205.153 218.546 205.355 218.343C205.558 218.14 205.832 218.026 206.119 218.026H209.895ZM216.098 218.026C216.384 218.026 216.659 218.14 216.861 218.343C217.063 218.546 217.177 218.82 217.177 219.106C217.177 219.393 217.063 219.667 216.861 219.87C216.659 220.073 216.384 220.187 216.098 220.187H213.67C213.384 220.187 213.11 220.073 212.907 219.87C212.705 219.667 212.592 219.393 212.592 219.106C212.592 218.82 212.705 218.546 212.907 218.343C213.11 218.14 213.384 218.026 213.67 218.026H216.098ZM221.762 214.245C222.048 214.245 222.323 214.359 222.525 214.562C222.727 214.764 222.841 215.039 222.841 215.325C222.841 215.467 222.813 215.607 222.759 215.739C222.705 215.87 222.625 215.989 222.525 216.089C222.425 216.189 222.306 216.269 222.175 216.323C222.044 216.378 221.904 216.406 221.762 216.406H206.119C205.832 216.406 205.558 216.292 205.355 216.089C205.153 215.886 205.04 215.612 205.04 215.326C205.04 215.039 205.153 214.765 205.355 214.562C205.558 214.359 205.832 214.245 206.119 214.245H221.762ZM217.177 210.464C217.463 210.464 217.737 210.578 217.94 210.781C218.142 210.983 218.256 211.258 218.255 211.544C218.256 211.831 218.142 212.105 217.94 212.308C217.737 212.51 217.463 212.624 217.177 212.625H206.119C205.832 212.624 205.558 212.51 205.356 212.308C205.153 212.105 205.04 211.831 205.04 211.545C205.04 211.403 205.067 211.262 205.122 211.131C205.176 211 205.255 210.881 205.355 210.781C205.455 210.681 205.574 210.601 205.705 210.547C205.836 210.492 205.977 210.464 206.119 210.464H217.177ZM212.861 206.683C213.148 206.683 213.422 206.797 213.624 207C213.827 207.202 213.94 207.477 213.94 207.763C213.94 207.905 213.912 208.045 213.858 208.176C213.804 208.307 213.725 208.426 213.625 208.527C213.524 208.627 213.405 208.707 213.274 208.761C213.144 208.816 213.003 208.844 212.861 208.844H203.421C203.135 208.843 202.861 208.73 202.658 208.527C202.456 208.324 202.343 208.05 202.343 207.763C202.343 207.477 202.456 207.202 202.658 207C202.861 206.797 203.135 206.683 203.421 206.683H212.861H212.861ZM208.276 202.902C208.418 202.902 208.558 202.93 208.689 202.984C208.82 203.039 208.939 203.118 209.039 203.219C209.14 203.319 209.219 203.438 209.273 203.569C209.327 203.7 209.355 203.84 209.355 203.982C209.355 204.124 209.327 204.264 209.273 204.395C209.219 204.526 209.14 204.645 209.039 204.746C208.939 204.846 208.82 204.926 208.689 204.98C208.558 205.034 208.418 205.062 208.276 205.062H201.534C201.247 205.062 200.973 204.948 200.771 204.746C200.568 204.543 200.455 204.269 200.455 203.982C200.455 203.841 200.482 203.7 200.537 203.569C200.591 203.438 200.67 203.319 200.77 203.219C200.871 203.118 200.99 203.039 201.12 202.984C201.251 202.93 201.392 202.902 201.534 202.902H208.276Z" fill="#C0E6FF"/>
</svg>
