<svg width="250" height="250" viewBox="0 0 250 250" fill="none" xmlns="http://www.w3.org/2000/svg">
<path d="M47.3877 17L217.388 26.5L232.388 244H36.3877L8 213.5L16.5374 52L47.3877 17Z" fill="#06566A" fill-opacity="0.1"/>
<path d="M57.3877 7L227.388 16.5L242.388 234H46.3877L18 203.5L26.5374 42L57.3877 7Z" fill="white"/>
<path d="M178.017 151.852H107.21V159H178.017V151.852Z" fill="#073945"/>
<path d="M71.1021 130.478L107.21 151.851V159L71.1021 137.627V130.478Z" fill="#073945"/>
<path d="M178.017 151.851L184.668 145.918V153.067L178.017 159V151.851Z" fill="#073945"/>
<path d="M71.1021 130.478L74.8523 126.882H148.56L184.668 145.918L178.028 151.851H107.21L71.1021 130.478Z" fill="#06566A"/>
<path d="M178.017 128.91H107.21V136.059H178.017V128.91Z" fill="#C5D500"/>
<path d="M71.1021 107.537L107.21 128.91V136.058L71.1021 114.685V107.537Z" fill="#C5D500"/>
<path d="M178.017 128.91L184.668 122.977V130.125L178.017 136.058V128.91Z" fill="#C5D500"/>
<path d="M71.1021 107.537L74.8522 103.941H148.56L184.668 122.977L178.028 128.91H107.21L71.1021 107.537Z" fill="#ECFF00"/>
<path d="M178.017 105.969H107.21V113.118H178.017V105.969Z" fill="#491B6F"/>
<path d="M71.1021 84.5957L107.21 105.969V113.118L71.1021 91.7443V84.5957Z" fill="#491B6F"/>
<path d="M178.017 105.969L184.668 100.036V107.184L178.017 113.117V105.969Z" fill="#491B6F"/>
<path d="M71.1021 84.5959L74.8523 81H148.56L184.668 100.036L178.028 105.969H107.21L71.1021 84.5959Z" fill="#642995"/>
<circle cx="210" cy="210" r="38.5" fill="white" stroke="#9BBBC3" stroke-width="3"/>
<path d="M204 186H192C190.895 186 190 186.895 190 188V200C190 201.105 190.895 202 192 202H204C205.105 202 206 201.105 206 200V188C206 186.895 205.105 186 204 186Z" fill="#61C1FD"/>
<path d="M204 213H192C190.895 213 190 213.895 190 215V227C190 228.105 190.895 229 192 229H204C205.105 229 206 228.105 206 227V215C206 213.895 205.105 213 204 213Z" fill="#BAF0F0"/>
<path d="M228 213H216C214.895 213 214 213.895 214 215V227C214 228.105 214.895 229 216 229H228C229.105 229 230 228.105 230 227V215C230 213.895 229.105 213 228 213Z" fill="#CFF4F4"/>
<path d="M228 186H216C214.895 186 214 186.895 214 188V200C214 201.105 214.895 202 216 202H228C229.105 202 230 201.105 230 200V188C230 186.895 229.105 186 228 186Z" fill="#BAF0F0"/>
<path opacity="0.4" d="M197 204H193C192.448 204 192 204.448 192 205V206C192 206.552 192.448 207 193 207H197C197.552 207 198 206.552 198 206V205C198 204.448 197.552 204 197 204Z" fill="#61C1FD"/>
<path opacity="0.4" d="M204 204H200C199.448 204 199 204.448 199 205V206C199 206.552 199.448 207 200 207H204C204.552 207 205 206.552 205 206V205C205 204.448 204.552 204 204 204Z" fill="#61C1FD"/>
<path opacity="0.4" d="M203 231H193C192.448 231 192 231.448 192 232V233C192 233.552 192.448 234 193 234H203C203.552 234 204 233.552 204 233V232C204 231.448 203.552 231 203 231Z" fill="#61C1FD"/>
<path opacity="0.4" d="M227 204H217C216.448 204 216 204.448 216 205V206C216 206.552 216.448 207 217 207H227C227.552 207 228 206.552 228 206V205C228 204.448 227.552 204 227 204Z" fill="#61C1FD"/>
<path opacity="0.4" d="M223 231H218C217.448 231 217 231.448 217 232V233C217 233.552 217.448 234 218 234H223C223.552 234 224 233.552 224 233V232C224 231.448 223.552 231 223 231Z" fill="#61C1FD"/>
<path opacity="0.4" d="M227 231H226C225.448 231 225 231.448 225 232V233C225 233.552 225.448 234 226 234H227C227.552 234 228 233.552 228 233V232C228 231.448 227.552 231 227 231Z" fill="#61C1FD"/>
</svg>
