<svg width="250" height="250" viewBox="0 0 250 250" fill="none" xmlns="http://www.w3.org/2000/svg">
<path d="M31.1858 22H235.686L228.686 238H11.6858L4 55L31.1858 22Z" fill="#06566A" fill-opacity="0.1"/>
<path d="M41.1858 12H245.686L238.686 228H21.6858L14 45L41.1858 12Z" fill="white"/>
<path d="M180.694 82.666H88.834C86.4559 82.666 84.528 84.5939 84.528 86.972C84.528 89.3501 86.4559 91.2779 88.834 91.2779H180.694C183.072 91.2779 185 89.3501 185 86.972C185 84.5939 183.072 82.666 180.694 82.666Z" fill="white"/>
<path d="M180.694 82.6641H88.8339C86.4558 82.6641 84.528 84.5919 84.528 86.97C84.528 89.3481 86.4558 91.276 88.8339 91.276H180.694C183.072 91.276 185 89.3481 185 86.97C185 84.5919 183.072 82.6641 180.694 82.6641Z" fill="#D7EEFE"/>
<path opacity="0.8" d="M103.187 82.6641H79.5039C77.1258 82.6641 75.1979 84.5919 75.1979 86.97C75.1979 89.3481 77.1258 91.276 79.5039 91.276H103.187C105.565 91.276 107.493 89.3481 107.493 86.97C107.493 84.5919 105.565 82.6641 103.187 82.6641Z" fill="#FC521F"/>
<g filter="url(#filter0_d_537_2156)">
<path d="M107.493 95.5812C112.249 95.5812 116.105 91.7255 116.105 86.9693C116.105 82.2131 112.249 78.3574 107.493 78.3574C102.737 78.3574 98.8809 82.2131 98.8809 86.9693C98.8809 91.7255 102.737 95.5812 107.493 95.5812Z" fill="black"/>
</g>
<path d="M107.493 95.9415C112.447 95.9415 116.463 91.9251 116.463 86.9707C116.463 82.0163 112.447 78 107.493 78C102.538 78 98.5219 82.0163 98.5219 86.9707C98.5219 91.9251 102.538 95.9415 107.493 95.9415Z" fill="white" stroke="black" stroke-opacity="0.05"/>
<path d="M180.694 115.678H88.8334C86.4553 115.678 84.5274 117.606 84.5274 119.984C84.5274 122.362 86.4553 124.29 88.8334 124.29H180.694C183.072 124.29 185 122.362 185 119.984C185 117.606 183.072 115.678 180.694 115.678Z" fill="white"/>
<path d="M180.694 115.678H88.8334C86.4553 115.678 84.5274 117.606 84.5274 119.984C84.5274 122.362 86.4553 124.29 88.8334 124.29H180.694C183.072 124.29 185 122.362 185 119.984C185 117.606 183.072 115.678 180.694 115.678Z" fill="#D7EEFE"/>
<path opacity="0.8" d="M130.099 115.678H79.3059C76.9278 115.678 75 117.606 75 119.984C75 122.362 76.9278 124.29 79.3059 124.29H130.099C132.477 124.29 134.405 122.362 134.405 119.984C134.405 117.606 132.477 115.678 130.099 115.678Z" fill="#FFAE00"/>
<g filter="url(#filter1_d_537_2156)">
<path d="M134.764 128.596C139.52 128.596 143.375 124.74 143.375 119.984C143.375 115.228 139.52 111.372 134.764 111.372C130.007 111.372 126.152 115.228 126.152 119.984C126.152 124.74 130.007 128.596 134.764 128.596Z" fill="black"/>
</g>
<path d="M134.763 128.956C139.718 128.956 143.734 124.939 143.734 119.985C143.734 115.03 139.718 111.014 134.763 111.014C129.809 111.014 125.793 115.03 125.793 119.985C125.793 124.939 129.809 128.956 134.763 128.956Z" fill="white" stroke="black" stroke-opacity="0.05"/>
<path d="M180.694 148.687H88.8334C86.4553 148.687 84.5275 150.615 84.5275 152.993C84.5275 155.371 86.4553 157.299 88.8334 157.299H180.694C183.072 157.299 185 155.371 185 152.993C185 150.615 183.072 148.687 180.694 148.687Z" fill="white"/>
<path d="M180.694 148.687H79.3063C76.9282 148.687 75.0004 150.615 75.0004 152.993C75.0004 155.371 76.9282 157.299 79.3063 157.299H180.694C183.072 157.299 185 155.371 185 152.993C185 150.615 183.072 148.687 180.694 148.687Z" fill="#D7EEFE"/>
<path opacity="0.8" d="M157.729 148.687H79.3063C76.9282 148.687 75.0004 150.615 75.0004 152.993C75.0004 155.371 76.9282 157.299 79.3063 157.299H157.729C160.107 157.299 162.035 155.371 162.035 152.993C162.035 150.615 160.107 148.687 157.729 148.687Z" fill="#66BF3C"/>
<g filter="url(#filter2_d_537_2156)">
<path d="M162.035 161.604C166.791 161.604 170.647 157.748 170.647 152.992C170.647 148.236 166.791 144.38 162.035 144.38C157.279 144.38 153.423 148.236 153.423 152.992C153.423 157.748 157.279 161.604 162.035 161.604Z" fill="black"/>
</g>
<path d="M162.035 161.964C166.989 161.964 171.005 157.948 171.005 152.994C171.005 148.039 166.989 144.023 162.035 144.023C157.08 144.023 153.064 148.039 153.064 152.994C153.064 157.948 157.08 161.964 162.035 161.964Z" fill="white" stroke="black" stroke-opacity="0.05"/>
<circle cx="210" cy="210" r="38.5" fill="white" stroke="#9BBBC3" stroke-width="3"/>
<path fill-rule="evenodd" clip-rule="evenodd" d="M207.906 200.452C208.196 200.379 208.443 200.308 208.582 200.236C209.138 199.949 209.482 198.996 209.482 198.185C209.482 197.128 208.793 196.386 208.027 195.735C207.476 195.268 207.323 194.398 207.323 193.598C207.323 191.611 208.934 190 210.921 190C212.908 190 214.519 191.611 214.519 193.598C214.519 194.517 214.175 195.355 213.608 195.991C213.275 196.251 213.006 196.584 212.821 196.965C212.636 197.345 212.54 197.762 212.54 198.185C212.54 198.996 212.832 199.741 213.44 200.141C213.644 200.276 214.116 200.37 214.652 200.452H225.176C225.66 200.452 226.124 200.644 226.466 200.987C226.808 201.329 227 201.793 227 202.277V224.175C227 224.659 226.808 225.123 226.466 225.466C226.124 225.808 225.66 226 225.176 226H197.279C196.795 226 196.331 225.808 195.989 225.466C195.647 225.123 195.455 224.659 195.455 224.175V216.361C195.381 216.062 195.308 215.809 195.235 215.666C194.947 215.11 193.995 214.766 193.184 214.766C192.127 214.766 191.385 215.455 190.735 216.222C190.267 216.773 189.398 216.926 188.597 216.926C186.61 216.926 185 215.315 185 213.327C185 211.339 186.61 209.728 188.597 209.728C189.516 209.728 190.354 210.073 190.99 210.64C191.25 210.973 191.583 211.242 191.964 211.427C192.344 211.612 192.761 211.708 193.184 211.708C193.995 211.708 194.74 211.415 195.14 210.808C195.277 210.6 195.372 210.114 195.455 209.565V202.277C195.455 201.793 195.647 201.329 195.989 200.987C196.331 200.644 196.795 200.452 197.279 200.452H207.906Z" fill="#79BFF8"/>
<path fill-rule="evenodd" clip-rule="evenodd" d="M208.276 221.807C208.418 221.807 208.558 221.835 208.689 221.89C208.82 221.944 208.939 222.023 209.039 222.124C209.14 222.224 209.219 222.343 209.273 222.474C209.327 222.605 209.355 222.746 209.355 222.887C209.355 223.029 209.327 223.17 209.273 223.301C209.219 223.432 209.14 223.551 209.039 223.651C208.939 223.751 208.82 223.831 208.689 223.885C208.558 223.94 208.418 223.968 208.276 223.968H203.422C203.135 223.967 202.861 223.854 202.659 223.651C202.456 223.449 202.343 223.174 202.343 222.888C202.343 222.746 202.37 222.605 202.425 222.474C202.479 222.343 202.558 222.224 202.658 222.124C202.758 222.024 202.877 221.944 203.008 221.89C203.139 221.835 203.28 221.807 203.422 221.807H208.276ZM209.895 218.026C210.181 218.026 210.455 218.14 210.658 218.343C210.86 218.546 210.974 218.82 210.973 219.106C210.974 219.393 210.86 219.667 210.658 219.87C210.455 220.073 210.181 220.187 209.895 220.187H206.119C205.832 220.187 205.558 220.073 205.355 219.87C205.153 219.667 205.04 219.393 205.04 219.106C205.04 218.82 205.153 218.546 205.355 218.343C205.558 218.14 205.832 218.026 206.119 218.026H209.895ZM216.098 218.026C216.384 218.026 216.659 218.14 216.861 218.343C217.063 218.546 217.177 218.82 217.177 219.106C217.177 219.393 217.063 219.667 216.861 219.87C216.659 220.073 216.384 220.187 216.098 220.187H213.67C213.384 220.187 213.11 220.073 212.907 219.87C212.705 219.667 212.592 219.393 212.592 219.106C212.592 218.82 212.705 218.546 212.907 218.343C213.11 218.14 213.384 218.026 213.67 218.026H216.098ZM221.762 214.245C222.048 214.245 222.323 214.359 222.525 214.562C222.727 214.764 222.841 215.039 222.841 215.325C222.841 215.467 222.813 215.607 222.759 215.739C222.705 215.87 222.625 215.989 222.525 216.089C222.425 216.189 222.306 216.269 222.175 216.323C222.044 216.378 221.904 216.406 221.762 216.406H206.119C205.832 216.406 205.558 216.292 205.355 216.089C205.153 215.886 205.04 215.612 205.04 215.326C205.04 215.039 205.153 214.765 205.355 214.562C205.558 214.359 205.832 214.245 206.119 214.245H221.762ZM217.177 210.464C217.463 210.464 217.737 210.578 217.94 210.781C218.142 210.983 218.256 211.258 218.255 211.544C218.256 211.831 218.142 212.105 217.94 212.308C217.737 212.51 217.463 212.624 217.177 212.625H206.119C205.832 212.624 205.558 212.51 205.356 212.308C205.153 212.105 205.04 211.831 205.04 211.545C205.04 211.403 205.067 211.262 205.122 211.131C205.176 211 205.255 210.881 205.355 210.781C205.456 210.681 205.574 210.601 205.705 210.547C205.836 210.492 205.977 210.464 206.119 210.464H217.177ZM212.861 206.683C213.148 206.683 213.422 206.797 213.624 207C213.827 207.202 213.94 207.477 213.94 207.763C213.94 207.905 213.912 208.045 213.858 208.176C213.804 208.307 213.725 208.426 213.625 208.527C213.524 208.627 213.405 208.707 213.274 208.761C213.144 208.816 213.003 208.844 212.861 208.844H203.422C203.135 208.843 202.861 208.73 202.658 208.527C202.456 208.324 202.343 208.05 202.343 207.763C202.343 207.477 202.456 207.202 202.658 207C202.861 206.797 203.135 206.683 203.422 206.683H212.861H212.861ZM208.276 202.902C208.418 202.902 208.558 202.93 208.689 202.984C208.82 203.039 208.939 203.118 209.039 203.219C209.14 203.319 209.219 203.438 209.273 203.569C209.327 203.7 209.355 203.84 209.355 203.982C209.355 204.124 209.327 204.264 209.273 204.395C209.219 204.526 209.14 204.645 209.039 204.746C208.939 204.846 208.82 204.926 208.689 204.98C208.558 205.034 208.418 205.062 208.276 205.062H201.534C201.247 205.062 200.973 204.948 200.771 204.746C200.568 204.543 200.455 204.269 200.455 203.982C200.455 203.841 200.482 203.7 200.537 203.569C200.591 203.438 200.67 203.319 200.77 203.219C200.871 203.118 200.99 203.039 201.12 202.984C201.251 202.93 201.392 202.902 201.534 202.902H208.276Z" fill="#C0E6FF"/>
<defs>
<filter id="filter0_d_537_2156" x="95.8809" y="76.3574" width="23.2238" height="23.2236" filterUnits="userSpaceOnUse" color-interpolation-filters="sRGB">
<feFlood flood-opacity="0" result="BackgroundImageFix"/>
<feColorMatrix in="SourceAlpha" type="matrix" values="0 0 0 0 0 0 0 0 0 0 0 0 0 0 0 0 0 0 127 0" result="hardAlpha"/>
<feOffset dy="1"/>
<feGaussianBlur stdDeviation="1.5"/>
<feColorMatrix type="matrix" values="0 0 0 0 0 0 0 0 0 0 0 0 0 0 0 0 0 0 0.15 0"/>
<feBlend mode="normal" in2="BackgroundImageFix" result="effect1_dropShadow_537_2156"/>
<feBlend mode="normal" in="SourceGraphic" in2="effect1_dropShadow_537_2156" result="shape"/>
</filter>
<filter id="filter1_d_537_2156" x="123.152" y="109.372" width="23.2238" height="23.2236" filterUnits="userSpaceOnUse" color-interpolation-filters="sRGB">
<feFlood flood-opacity="0" result="BackgroundImageFix"/>
<feColorMatrix in="SourceAlpha" type="matrix" values="0 0 0 0 0 0 0 0 0 0 0 0 0 0 0 0 0 0 127 0" result="hardAlpha"/>
<feOffset dy="1"/>
<feGaussianBlur stdDeviation="1.5"/>
<feColorMatrix type="matrix" values="0 0 0 0 0 0 0 0 0 0 0 0 0 0 0 0 0 0 0.15 0"/>
<feBlend mode="normal" in2="BackgroundImageFix" result="effect1_dropShadow_537_2156"/>
<feBlend mode="normal" in="SourceGraphic" in2="effect1_dropShadow_537_2156" result="shape"/>
</filter>
<filter id="filter2_d_537_2156" x="150.423" y="142.38" width="23.2238" height="23.2236" filterUnits="userSpaceOnUse" color-interpolation-filters="sRGB">
<feFlood flood-opacity="0" result="BackgroundImageFix"/>
<feColorMatrix in="SourceAlpha" type="matrix" values="0 0 0 0 0 0 0 0 0 0 0 0 0 0 0 0 0 0 127 0" result="hardAlpha"/>
<feOffset dy="1"/>
<feGaussianBlur stdDeviation="1.5"/>
<feColorMatrix type="matrix" values="0 0 0 0 0 0 0 0 0 0 0 0 0 0 0 0 0 0 0.15 0"/>
<feBlend mode="normal" in2="BackgroundImageFix" result="effect1_dropShadow_537_2156"/>
<feBlend mode="normal" in="SourceGraphic" in2="effect1_dropShadow_537_2156" result="shape"/>
</filter>
</defs>
</svg>
