<svg width="400" height="400" viewBox="0 0 400 400" fill="none" xmlns="http://www.w3.org/2000/svg">
<path d="M105.031 242.46C131.431 214.46 179.697 230.794 200.531 242.46V280.5C179.864 286.667 140 287 105.031 318.5C83.9991 337.445 14.5307 300.46 37.0307 304.46C59.5307 308.46 72.0307 277.46 105.031 242.46Z" fill="#ECFF00"/>
<path d="M295.5 242.46C269.1 214.46 220.833 230.794 200 242.46V280.5C220.667 286.667 260.531 287 295.5 318.5C316.532 337.445 386 300.46 363.5 304.46C341 308.46 328.5 277.46 295.5 242.46Z" fill="#ECFF00"/>
<path fill-rule="evenodd" clip-rule="evenodd" d="M107.941 245.204C119.92 232.499 137.07 229.589 154.417 231.56C170.339 233.369 185.788 239.245 196 244.56V277.579C192.372 278.471 188.162 279.278 183.504 280.172L183.504 280.172C161.772 284.342 130.263 290.388 102.354 315.528C98.3579 319.127 91.5023 320.465 82.6929 319.749C74.0658 319.048 64.4902 316.449 56.0983 313.334C51.8409 311.754 47.9825 310.077 44.7838 308.504C54.3568 306.961 62.2512 299.791 70.1176 290.703C73.8808 286.355 77.8411 281.317 82.1021 275.895L82.1025 275.895C83.6222 273.961 85.1801 271.979 86.781 269.962C92.9172 262.232 99.8051 253.833 107.941 245.204ZM200.266 284.739C195.399 286.091 189.813 287.172 183.705 288.354C162.014 292.552 133.739 298.024 107.708 321.472C101.188 327.345 91.4733 328.489 82.0452 327.723C72.435 326.942 62.1062 324.098 53.3145 320.834C44.5654 317.587 36.9711 313.787 32.8915 310.893C31.8758 310.172 30.8925 309.379 30.1543 308.546C29.791 308.136 29.3391 307.552 29.0183 306.818C28.7006 306.09 28.3409 304.798 28.866 303.338C29.4107 301.824 30.5759 301.035 31.4116 300.67C32.2117 300.321 33.0079 300.213 33.5982 300.175C34.7997 300.097 36.2189 300.253 37.7308 300.522C46.6184 302.102 54.0081 297.09 64.0689 285.467C67.6981 281.274 71.4848 276.457 75.7013 271.092L75.7014 271.092C77.2439 269.13 78.8441 267.094 80.515 264.989C86.707 257.188 93.7568 248.587 102.121 239.716C116.542 224.421 136.725 221.498 155.32 223.611C172.707 225.586 189.369 232.012 200.265 237.763C211.161 232.011 227.824 225.586 245.211 223.611C263.806 221.498 283.989 224.421 298.41 239.716C306.774 248.587 313.824 257.188 320.016 264.989C321.683 267.09 323.281 269.122 324.82 271.081L324.829 271.092C329.046 276.457 332.833 281.274 336.462 285.467C346.523 297.09 353.912 302.102 362.8 300.522C364.312 300.253 365.731 300.097 366.933 300.175C367.523 300.213 368.319 300.321 369.119 300.67C369.955 301.035 371.12 301.824 371.665 303.338C372.19 304.798 371.83 306.09 371.512 306.817C371.192 307.552 370.74 308.136 370.376 308.546C369.638 309.379 368.655 310.172 367.639 310.893C363.56 313.787 355.965 317.587 347.216 320.834C338.425 324.098 328.096 326.942 318.486 327.723C309.058 328.489 299.343 327.345 292.823 321.472C266.792 298.024 238.517 292.552 216.826 288.354C210.718 287.172 205.132 286.091 200.266 284.739ZM204.531 277.579C208.159 278.471 212.369 279.278 217.027 280.172L217.027 280.172C238.759 284.342 270.268 290.388 298.177 315.528C302.173 319.127 309.029 320.465 317.838 319.749C326.465 319.048 336.041 316.449 344.433 313.334C348.69 311.754 352.548 310.077 355.747 308.504C346.174 306.961 338.28 299.791 330.413 290.703C326.65 286.355 322.69 281.317 318.429 275.896L318.428 275.895C316.909 273.962 315.351 271.979 313.75 269.962C307.614 262.232 300.726 253.833 292.59 245.204C280.611 232.499 263.461 229.589 246.114 231.56C230.191 233.369 214.743 239.245 204.531 244.56V277.579ZM36.1233 303.218C36.1219 303.216 36.1211 303.215 36.121 303.215C36.1207 303.215 36.1247 303.22 36.1338 303.231C36.129 303.225 36.1255 303.22 36.1233 303.218ZM34.0998 308.159C34.0845 308.161 34.0763 308.162 34.0761 308.162C34.0758 308.162 34.0834 308.16 34.0998 308.159ZM366.452 308.162C366.454 308.162 366.455 308.162 366.455 308.162C366.455 308.162 366.447 308.16 366.431 308.159C366.441 308.161 366.448 308.161 366.452 308.162Z" fill="#6F733A"/>
<path d="M268 176C296.167 176 319 153.167 319 125C319 96.8335 296.167 74 268 74C239.833 74 217 96.8335 217 125C217 153.167 239.833 176 268 176Z" fill="#ECFF00"/>
<path fill-rule="evenodd" clip-rule="evenodd" d="M222 125C222 99.5949 242.595 79 268 79C293.405 79 314 99.5949 314 125C314 150.405 293.405 171 268 171C242.595 171 222 150.405 222 125ZM268 69C237.072 69 212 94.0721 212 125C212 155.928 237.072 181 268 181C294.227 181 316.242 162.971 322.329 138.631L347.949 150.594L366 170.901V283.5H376V169V167.099L374.737 165.678L354.737 143.178L354.051 142.406L353.115 141.97L323.903 128.329C323.967 127.227 324 126.118 324 125C324 94.0721 298.928 69 268 69Z" fill="#6F733A"/>
</svg>
