<svg width="250" height="250" viewBox="0 0 250 250" fill="none" xmlns="http://www.w3.org/2000/svg">
<path d="M83.553 55.8654L177.686 46L221.231 71.141L221.254 71.9452L223.102 73.0117L225 138.32L173.678 180.593L106.464 174.47L105.193 172.654L104.593 172.599L98.273 163.567L110.094 143.092L101.174 119.187L78.3168 114.001L58.757 119.242L56.8864 117.371L53.9644 96.4586L83.553 55.8654Z" fill="#06566A"/>
<path d="M177.686 46L83.553 55.8654L53.9644 96.4586L56.8864 117.371L76.4461 112.13L100.584 117.607L110.094 143.092L98.273 163.567L104.593 172.599L171.808 178.722L223.129 136.45L221.231 71.141L177.686 46Z" fill="#1F6779"/>
<path opacity="0.5" d="M177.686 46L83.553 55.8654L53.9644 96.4586L56.8864 117.371L76.4461 112.13L100.584 117.607L110.094 143.092L98.273 163.567L104.593 172.599L125.002 161.242L128.166 129.8L94.1407 101.068L98.273 66.2869L177.686 46Z" fill="#06566A"/>
<path d="M105.223 81.4345L114.273 89.7354L107.613 101.271L95.5008 94.2778L99.8863 83.352L105.223 81.4345Z" fill="#ECFF00"/>
<path d="M125.725 61.8017L116.676 70.1026L123.335 81.6379L135.447 74.645L131.062 63.7192L125.725 61.8017Z" fill="#ECFF00"/>
<path d="M125.725 61.8017L116.676 70.1026L123.335 81.6379L135.447 74.645L131.062 63.7192L125.725 61.8017Z" fill="#06566A" fill-opacity="0.3"/>
<path d="M163.458 63.4553L161.993 75.6478L148.738 76.9655L147.355 63.0484L158.788 60.2386L163.458 63.4553Z" fill="#ECFF00"/>
<path d="M163.458 63.4553L161.993 75.6478L148.738 76.9655L147.355 63.0484L158.788 60.2386L163.458 63.4553Z" fill="#06566A" fill-opacity="0.5"/>
<path d="M178.425 79.2035L190.341 76.2354L196.287 88.1541L183.773 94.3979L177.08 84.7123L178.425 79.2035Z" fill="#ECFF00"/>
<path d="M178.425 79.2035L190.341 76.2354L196.287 88.1541L183.773 94.3979L177.08 84.7123L178.425 79.2035Z" fill="#06566A" fill-opacity="0.6"/>
<path d="M188.379 122.577L193.176 111.272L206.274 113.691L203.734 127.444L191.97 126.965L188.379 122.577Z" fill="#ECFF00"/>
<path d="M188.379 122.577L193.176 111.272L206.274 113.691L203.734 127.444L191.97 126.965L188.379 122.577Z" fill="#06566A" fill-opacity="0.7"/>
<path d="M109.676 121.69L110.826 141.968L156.594 150.086L159.17 127.28L142.14 121.425L129.571 123.937L120.789 119.014L109.676 121.69Z" fill="#ECFF00"/>
<path d="M117.478 130.925L115.944 144.512M129.132 127.819L126.471 138.329L128.075 145.882M142.069 130.754L141.028 139.974L137.779 146.978M151.179 132.766L150.662 150.399" stroke="#06566A" stroke-opacity="0.2" stroke-width="2"/>
<path d="M117.49 190.539L124.192 165.692L134.288 166.832L127.579 200.374L116.521 199.125L117.49 190.539Z" fill="#82AAB5"/>
<path d="M125.897 190.289L131.19 166.832L134.288 166.832L127.579 200.374L123.629 199.928L125.897 196.338L125.897 190.289Z" fill="#6A9AA6"/>
<path d="M154.001 169.058L134.289 166.832L124.192 165.692L106.299 160.289L108.454 141.209L160.86 147.127L154.001 169.058Z" fill="white"/>
<path d="M154.001 169.058L134.288 166.832L124.192 165.692L106.299 160.289L108.454 141.209L110.775 141.209L110.775 157.398L154.001 169.058Z" fill="#06566A" fill-opacity="0.1"/>
<path d="M156.237 118.616L168.508 190.888H172.84L164.538 118.616H156.237Z" fill="#B4CCD2"/>
<path d="M164.538 118.616L162.191 124.129L171.265 188.399L168.508 190.888H172.84L164.538 118.616Z" fill="#9BBBC3"/>
<path d="M155.26 118.972L165.666 117.64L166.56 122.345L164.05 123.677L158.19 124.476L155.748 123.676L155.26 118.972Z" fill="white"/>
<path d="M162.947 118.837L165.666 117.64L166.559 122.345L164.05 123.677L164.05 122.345L162.947 120.349L162.947 118.837Z" fill="#E6EEF0"/>
<path d="M153.307 113.245L156.725 119.593L164.538 118.616L166.003 113.245L161.12 108.85L159.167 100.06L156.725 101.525L153.307 113.245Z" fill="#ECFF00"/>
<path d="M25 124.641L33.5201 120.927H72.625L82.8928 122.238V196.078L72.625 199.137H33.5201L25 194.112L25 124.641Z" fill="#1F6779"/>
<path d="M82.8928 122.238L72.625 120.927H33.5201L25 124.641L34.1755 128.355L44.4432 129.884L71.0958 128.355L82.8928 122.238Z" fill="#06566A"/>
<path d="M76.3384 133.816L72.6245 120.927L82.8923 122.238V196.078L72.6245 199.137L75.683 184.937L76.3384 133.816Z" fill="#06566A"/>
<path d="M37.6704 134.934V128.354H46.8459V134.934L45.3166 137.37V141.025L41.8758 139.807V136.396L37.6704 134.934Z" fill="#ECFF00"/>
<path d="M34.6118 128.355L38.5442 132.068L40.9473 128.355H34.6118Z" fill="#ECFF00"/>
<path d="M69.5661 133.042V128.354H57.3321V150.785L59.0798 154.133L61.7014 152.794V150.116L60.3906 147.103V140.407V137.729L63.0122 136.055L66.0707 135.385L68.2553 136.055L68.6922 138.398L70.4399 137.729V135.05L69.5661 133.042Z" fill="#ECFF00"/>
<path d="M50.1955 132.724L44.6611 130.758V128.354H60.9731L62.1382 131.631L50.1955 132.724Z" fill="#ECFF00"/>
<path opacity="0.3" d="M67.3408 187.55L42.2912 189.469L35.6743 166.451L41.3459 159.258L69.2313 157.34L67.3408 187.55Z" fill="black"/>
<path d="M66.6269 186.836L41.5773 188.755L34.9604 165.737L40.6321 158.544L68.5174 156.626L66.6269 186.836Z" fill="#06566A"/>
<path d="M48.075 163.765L45.4629 163.766H44.5989V164.701H45.4629V180.249L47.2032 181.761H50.2147V175.349L48.9779 174.278H54.1466L60.0213 169.19H61.101V168.255L55.4857 168.255L50.2147 172.82V165.623L48.075 163.765Z" fill="#ECFF00"/>
<path d="M52.0408 175.372L58.6874 181.129L58.0347 181.694L58.7678 182.329L59.4205 181.764L62.4483 179.148L56.5443 174.035L55 175.372H52.0408Z" fill="#ECFF00"/>
</svg>
