<svg width="1070" height="538" viewBox="0 0 1070 538" fill="none" xmlns="http://www.w3.org/2000/svg">
<path d="M309.587 372.883L351.429 369.771L360.939 358.878L340.018 329.312L292.47 321.531V329.312L309.587 340.205L292.47 333.98L224 321.531L227.804 340.205L309.587 372.883Z" fill="#ECFF00"/>
<rect x="484.911" y="359.908" width="157.735" height="105.343" fill="#ECFF00"/>
<path d="M489.737 162.738L525.724 153.266L549.01 125.697L625.219 161.748L652.738 162.738L640.497 220.703L611.781 275.84L572.296 286.867L529.222 275.84L504.095 220.703L489.737 162.738Z" fill="#ECFF00"/>
<path d="M554.629 195.045C555.549 197.541 555.467 200.298 554.399 202.735C553.331 205.171 551.361 207.098 548.903 208.108C546.445 209.118 543.692 209.133 541.224 208.151C538.755 207.168 536.763 205.264 535.668 202.839C534.573 200.415 534.46 197.659 535.353 195.153C536.245 192.646 538.074 190.585 540.454 189.402C542.834 188.22 545.579 188.009 548.111 188.814C550.643 189.618 552.764 191.376 554.029 193.716L545.01 198.605L554.629 195.045Z" fill="black"/>
<ellipse cx="4.22219" cy="4.22967" rx="4.22219" ry="4.22967" transform="matrix(0.999769 0.0215057 -0.0214296 0.99977 539.839 200.92)" fill="white"/>
<path d="M611.079 195.045C612 197.541 611.918 200.298 610.85 202.735C609.781 205.171 607.811 207.098 605.354 208.108C602.896 209.118 600.143 209.133 597.674 208.151C595.206 207.168 593.214 205.264 592.119 202.839C591.024 200.415 590.911 197.659 591.803 195.153C592.696 192.646 594.525 190.585 596.905 189.402C599.284 188.22 602.029 188.009 604.561 188.814C607.094 189.618 609.215 191.376 610.479 193.716L601.461 198.605L611.079 195.045Z" fill="black"/>
<ellipse cx="4.22219" cy="4.22967" rx="4.22219" ry="4.22967" transform="matrix(0.999769 0.0215057 -0.0214296 0.99977 596.289 200.92)" fill="white"/>
<path d="M470.138 45.1122L478.605 36.6295L666.844 7L689.384 19.9031L673.361 100.249L470.138 108.732V45.1122Z" fill="url(#paint0_linear_2059_4827)"/>
<path fill-rule="evenodd" clip-rule="evenodd" d="M669.674 108.732L474.919 117.215L491.854 223.248L521.491 286.868L572.297 299.592L618.868 286.868L652.739 223.248L669.674 108.732ZM526.236 154.31L489.737 162.738L504.095 220.703L529.222 275.84L572.296 286.867L611.781 275.84L640.497 220.703L652.738 162.738L626.058 166.138L549.01 125.697L526.236 154.31Z" fill="#052F3A"/>
<path fill-rule="evenodd" clip-rule="evenodd" d="M449.516 477.727H398.71L411.411 354.728L380.196 304.414L513.925 301.205L544.776 322.918L449.516 344.125V477.727ZM462.218 354.729L647.654 307.624L665.441 329.02V477.727H462.218V354.729ZM529.958 388.66C529.958 398.03 522.376 405.625 513.023 405.625C503.67 405.625 496.088 398.03 496.088 388.66C496.088 379.29 503.67 371.695 513.023 371.695C522.376 371.695 529.958 379.29 529.958 388.66ZM614.634 397.142C623.987 397.142 631.569 389.547 631.569 380.177C631.569 370.807 623.987 363.212 614.634 363.212C605.281 363.212 597.699 370.807 597.699 380.177C597.699 389.547 605.281 397.142 614.634 397.142ZM529.958 443.796C529.958 453.166 522.376 460.761 513.023 460.761C503.67 460.761 496.088 453.166 496.088 443.796C496.088 434.426 503.67 426.831 513.023 426.831C522.376 426.831 529.958 434.426 529.958 443.796ZM614.634 460.761C623.987 460.761 631.569 453.166 631.569 443.796C631.569 434.426 623.987 426.831 614.634 426.831C605.281 426.831 597.699 434.426 597.699 443.796C597.699 453.166 605.281 460.761 614.634 460.761ZM722.543 356.836L678.141 335.439V477.727H741.8L722.543 356.836Z" fill="url(#paint1_linear_2059_4827)"/>
<path d="M358.1 477.727H450.805L364.148 381.442L311.727 386.792L358.1 477.727Z" fill="url(#paint2_linear_2059_4827)"/>
<path fill-rule="evenodd" clip-rule="evenodd" d="M533.996 472.427L552.973 458.569L578.454 444.344L599.303 436.437L636.08 435.455L644.971 436.443L655.196 438.077L665.421 439.711L675.475 442.747L685.528 445.782L695.036 450.068L704.542 454.356L712.286 457.285L720.03 460.216L734.959 463.516L749.887 466.815L751.665 467.699L753.443 468.584L748.998 468.039L744.552 467.494L734.327 465.463L724.103 463.431L714.24 460.369L704.377 457.307L690.538 451.625L676.698 445.942L668.392 443.85L660.086 441.759L651.452 440.647L642.819 439.536H630.301H617.783L609.594 440.608L601.405 441.68L594.736 443.563L588.068 445.444L599.626 444.973L611.185 444.501L623.691 446.203L636.198 447.903L642.807 449.511L649.417 451.118L668.208 456.758L686.999 462.398L705.262 466.058L723.525 469.717L741.151 471.895L758.778 474.071L760.649 474.497L762.52 474.923L763.041 482.992L763.562 491.06L767.581 500.462L771.6 509.863L775.261 514.812L779.512 521.055L781.884 522.241L784.256 523.428L783.956 535.673L774.479 535.003L765.002 534.33L739.662 533.281L714.322 532.232L692.984 531.211L671.645 530.19L636.525 528.534L601.405 526.879L589.402 526.706L577.399 526.533L573.398 528.453L569.397 530.374L563.617 531.853L557.838 533.332L544.501 533.986L531.165 534.639L519.542 533.428L507.919 532.219L499.092 529.396L490.265 526.574L477.818 526.734L465.37 526.895L431.584 528.547L397.797 530.199L376.903 531.215L356.009 532.232L331.114 533.296L306.218 534.361L297.19 535.022L288.161 535.683L285.854 532.979L283.546 530.274V527.575L286.108 524.614H288.48L292.038 523.428L294.985 519.761L298.104 515.3L301.224 510.839L304.421 504.621L307.617 498.402L309.362 491.781L311.109 485.159V480.08V474.999L313.109 474.524L315.11 474.05L332.551 471.876L349.992 469.701L365.893 466.55L381.793 463.398L390.684 460.983L399.576 458.569L413.801 454.304L428.027 450.039L435.849 448.449L443.67 446.859L454.076 445.665L464.481 444.47L475.15 444.97L485.82 445.469L479.151 443.564L472.483 441.657L462.779 440.454L453.074 439.249L436.995 439.843L420.914 440.437L412.886 442.037L404.857 443.638L396.882 446.324L388.906 449.01L382.238 451.998L375.569 454.987L364.626 458.712L353.684 462.436L341.509 464.973L329.335 467.509L325.069 467.987L320.801 468.464L321.23 467.962L321.659 467.459L334.833 464.548L348.007 461.637L355.564 459.364L363.122 457.092L372.902 452.612L382.682 448.133L388.462 445.94L394.241 443.748L401.798 441.684L409.356 439.621L415.58 438.448L421.803 437.276L434.251 435.925L446.699 434.573L433.994 434.449L421.289 434.326L413.066 435.401L404.844 436.475L395.986 438.909L387.128 441.342L375.125 445.044L363.122 448.747L350.23 450.852L337.337 452.956L328.918 453.594L320.499 454.232L320.994 453.652L321.488 453.073L336.081 450.98L350.674 448.888L358.027 447.3L365.38 445.712L373.466 442.616L381.552 439.519L388.341 437.539L395.13 435.557L404.021 433.64L412.912 431.722L434.696 431.77L456.479 431.818L467.148 434.616L486.709 440.752L506.714 450.632L533.996 472.427Z" fill="#5F97A5"/>
<path d="M552.987 482.9L572.992 516.241L524.98 528.743L489.86 516.241L512.977 477.691H535.205L552.987 482.9Z" fill="black" fill-opacity="0.2"/>
<path d="M781.96 520.37H779.308L574.953 509.194L534.288 520.37L483.793 509.194L292.862 520.37H289.307H285.751L283.558 523.148L281.364 525.924V528.855V531.787L283.684 534.724L286.003 537.66L295.079 536.943L304.154 536.224L329.178 535.068L354.202 533.913L375.205 532.809L396.208 531.705L430.169 529.911L464.131 528.117L476.643 527.942L489.155 527.768L498.028 530.833L506.9 533.898L518.584 535.212L530.266 536.526L543.672 535.817L557.078 535.108L562.887 533.501L568.697 531.896L572.718 529.809L576.74 527.724L588.805 527.912L600.871 528.1L636.173 529.897L671.475 531.695L692.924 532.804L714.374 533.913L739.845 535.052L765.316 536.191L774.842 536.921L784.369 537.65L786.684 534.718L789 531.787V528.855V525.924L786.806 523.148L784.613 520.37H781.96Z" fill="#083D4A"/>
<defs>
<linearGradient id="paint0_linear_2059_4827" x1="663.199" y1="29.5136" x2="486.736" y2="100.165" gradientUnits="userSpaceOnUse">
<stop stop-color="#07718B"/>
<stop offset="1" stop-color="#032C36"/>
<stop offset="1" stop-color="#07566B"/>
</linearGradient>
<linearGradient id="paint1_linear_2059_4827" x1="432.773" y1="477.704" x2="643.548" y2="346.795" gradientUnits="userSpaceOnUse">
<stop stop-color="#06566A"/>
<stop offset="1" stop-color="#06708A"/>
</linearGradient>
<linearGradient id="paint2_linear_2059_4827" x1="450.805" y1="477.727" x2="337.403" y2="434.934" gradientUnits="userSpaceOnUse">
<stop stop-color="#174450"/>
<stop offset="1" stop-color="#06708A"/>
</linearGradient>
</defs>
</svg>
