<svg width="700" height="346" viewBox="0 0 700 346" fill="none" xmlns="http://www.w3.org/2000/svg">
<path d="M195.588 246.19L223.742 244.096L230.141 236.766L216.064 216.872L184.071 211.637V216.872L195.588 224.201L184.071 220.013L138 211.637L140.559 224.201L195.588 246.19Z" fill="#ECFF00"/>
<path d="M313.558 237.459H419.692V308.341H313.558V237.459Z" fill="#ECFF00"/>
<path d="M316.805 104.79L341.019 98.4167L356.687 79.8668L407.965 104.124L426.483 104.79L418.246 143.793L398.924 180.892L372.356 188.312L343.373 180.892L326.466 143.793L316.805 104.79Z" fill="#ECFF00"/>
<path d="M360.469 126.529C361.088 128.209 361.033 130.064 360.314 131.703C359.595 133.343 358.27 134.639 356.616 135.319C354.962 135.998 353.11 136.009 351.449 135.348C349.788 134.686 348.448 133.405 347.711 131.774C346.974 130.142 346.898 128.288 347.499 126.602C348.099 124.915 349.33 123.528 350.931 122.733C352.532 121.937 354.379 121.795 356.083 122.336C357.787 122.878 359.214 124.06 360.065 125.635L353.997 128.924L360.469 126.529Z" fill="black"/>
<path d="M356.137 133.45C356.103 135.022 354.804 136.268 353.235 136.235C351.667 136.201 350.422 134.9 350.456 133.328C350.49 131.757 351.789 130.51 353.357 130.544C354.926 130.578 356.17 131.879 356.137 133.45Z" fill="white"/>
<path d="M398.452 126.529C399.071 128.209 399.016 130.064 398.297 131.703C397.578 133.343 396.253 134.639 394.599 135.319C392.945 135.998 391.093 136.009 389.432 135.348C387.771 134.686 386.431 133.405 385.694 131.774C384.957 130.142 384.881 128.288 385.482 126.602C386.082 124.915 387.313 123.528 388.914 122.733C390.515 121.937 392.362 121.795 394.066 122.336C395.77 122.878 397.197 124.06 398.048 125.635L391.98 128.924L398.452 126.529Z" fill="black"/>
<path d="M394.12 133.45C394.086 135.022 392.787 136.268 391.218 136.235C389.65 136.201 388.405 134.9 388.439 133.328C388.473 131.757 389.772 130.51 391.34 130.544C392.909 130.578 394.153 131.879 394.12 133.45Z" fill="white"/>
<path d="M303.618 25.6443L309.315 19.9366L372.645 9.96832L435.974 0L451.141 8.682L440.359 62.7441L303.618 68.4517V25.6443Z" fill="url(#paint0_linear_2119_4589)"/>
<path fill-rule="evenodd" clip-rule="evenodd" d="M437.878 68.4518L306.834 74.1594L318.229 145.505L338.171 188.313L372.356 196.874L403.693 188.313L426.483 145.505L437.878 68.4518ZM341.364 99.1194L316.805 104.79L326.466 143.793L343.373 180.892L372.356 188.312L398.924 180.892L418.246 143.793L426.483 104.79L408.53 107.078L356.687 79.8668L341.364 99.1194Z" fill="#083D4A"/>
<path d="M289.741 316.735H255.556L264.102 233.974L243.099 200.119L333.08 197.96L353.839 212.57L289.741 226.839V316.735Z" fill="#083D4A"/>
<path fill-rule="evenodd" clip-rule="evenodd" d="M298.288 233.974L423.061 202.279L435.029 216.676V316.735H298.288V233.974ZM343.868 256.805C343.868 263.109 338.766 268.22 332.473 268.22C326.18 268.22 321.078 263.109 321.078 256.805C321.078 250.5 326.18 245.389 332.473 245.389C338.766 245.389 343.868 250.5 343.868 256.805ZM400.843 262.513C407.137 262.513 412.238 257.402 412.238 251.097C412.238 244.793 407.137 239.682 400.843 239.682C394.55 239.682 389.448 244.793 389.448 251.097C389.448 257.402 394.55 262.513 400.843 262.513ZM343.868 293.904C343.868 300.209 338.766 305.32 332.473 305.32C326.18 305.32 321.078 300.209 321.078 293.904C321.078 287.6 326.18 282.489 332.473 282.489C338.766 282.489 343.868 287.6 343.868 293.904ZM400.843 305.32C407.137 305.32 412.238 300.209 412.238 293.904C412.238 287.6 407.137 282.489 400.843 282.489C394.55 282.489 389.448 287.6 389.448 293.904C389.448 300.209 394.55 305.32 400.843 305.32Z" fill="#083D4A"/>
<path d="M473.452 235.392L443.576 220.995V316.735H486.409L473.452 235.392Z" fill="#083D4A"/>
<path d="M228.231 316.735H290.609L232.301 251.949L197.028 255.548L228.231 316.735Z" fill="url(#paint1_linear_2119_4589)"/>
<path fill-rule="evenodd" clip-rule="evenodd" d="M364.754 305.938L376.271 297.527L391.736 288.893L404.39 284.095L426.711 283.498L432.107 284.098L444.519 286.081L456.722 289.766L468.262 294.97L477.662 298.527L495.783 302.532L497.942 303.605L492.546 302.944L480.134 300.478L468.162 296.761L451.363 289.863L441.281 287.325L430.801 285.975H415.606L405.666 287.277L397.571 289.561L411.602 288.989L426.783 291.054L434.806 293.005L457.615 299.851L479.783 304.293L501.18 306.936L503.451 307.453L504.083 317.247L508.961 328.658L511.183 331.662L513.763 335.451L516.643 336.891L516.461 344.324L504.957 343.508L474.198 342.235L405.666 338.986L391.096 338.776L386.239 341.107L379.224 342.903L363.035 343.696L348.927 342.227L338.212 338.801L323.103 338.995L256.729 342.235L226.51 343.527L215.551 344.329L212.749 341.047V339.408L214.304 337.611H215.744L217.904 336.891L219.692 334.666L223.479 329.251L227.359 321.703L229.478 313.665V307.499L231.906 306.923L253.077 304.283L272.378 300.458L283.171 297.527L300.439 292.35L309.933 290.42L322.563 288.97L335.514 289.576L327.42 287.263L315.64 285.801L296.122 286.522L286.376 288.465L276.695 291.725L268.601 295.353L255.318 299.874L240.54 302.953L235.36 303.532L235.881 302.923L251.872 299.389L261.046 296.63L272.918 291.193L279.933 288.532L289.106 286.027L296.661 284.604L311.771 282.963L296.349 282.814L286.368 284.117L275.616 287.072L261.046 291.566L245.397 294.12L235.177 294.894L235.777 294.191L253.491 291.651L262.417 289.724L272.232 285.965L280.472 283.56L291.265 281.233L317.707 281.291L324.182 282.989L336.054 286.713L348.196 292.71L364.754 305.938Z" fill="#5F97A5"/>
<path d="M376.28 312.294L388.422 332.529L359.282 340.117L337.967 332.529L351.997 309.132H365.488L376.28 312.294Z" fill="black" fill-opacity="0.2"/>
<path d="M513.64 335.036L389.611 328.253L364.931 335.036L334.284 328.253L218.404 335.036H214.088L211.425 338.407V341.965L214.241 345.529L225.257 344.658L255.633 343.255L322.351 339.737L337.539 339.526L348.309 343.246L362.49 344.841L378.763 343.98L385.814 342.031L390.696 339.499L405.342 339.727L474.23 343.255L505.148 344.638L516.711 345.523L519.522 341.965V338.407L516.859 335.036H513.64Z" fill="#083D4A"/>
<defs>
<linearGradient id="paint0_linear_2119_4589" x1="473.956" y1="76.4669" x2="132.047" y2="146.602" gradientUnits="userSpaceOnUse">
<stop stop-color="#07718B"/>
<stop offset="1" stop-color="#032C36"/>
<stop offset="1" stop-color="#07566B"/>
</linearGradient>
<linearGradient id="paint1_linear_2119_4589" x1="519.522" y1="345.529" x2="191.436" y2="250.889" gradientUnits="userSpaceOnUse">
<stop stop-color="#174450"/>
<stop offset="1" stop-color="#06708A"/>
</linearGradient>
</defs>
</svg>
