<svg width="347" height="165" viewBox="0 0 347 165" fill="none" xmlns="http://www.w3.org/2000/svg">
<path d="M120.887 85.8146L132.738 62.3146L170.405 37.6775H208.073H256.701L273.25 85.8146L338.004 102.492L279.175 125.992L250.396 162H191.567H144.165L120.887 146.081V85.8146Z" fill="#06708A" stroke="#06708A" stroke-width="5"/>
<path d="M158.975 111.747C158.975 109.466 159.736 107.614 161.257 106.192C162.811 104.77 164.745 104.059 167.06 104.059C169.408 104.059 171.342 104.77 172.863 106.192C174.417 107.614 175.195 109.466 175.195 111.747C175.195 113.996 174.434 115.831 172.913 117.253C171.392 118.642 169.441 119.336 167.06 119.336C164.712 119.336 162.778 118.642 161.257 117.253C159.736 115.831 158.975 113.996 158.975 111.747Z" fill="white"/>
<path d="M188.537 111.747C188.537 109.466 189.297 107.614 190.818 106.192C192.373 104.77 194.307 104.059 196.622 104.059C198.969 104.059 200.904 104.77 202.425 106.192C203.979 107.614 204.756 109.466 204.756 111.747C204.756 113.996 203.996 115.831 202.474 117.253C200.953 118.642 199.002 119.336 196.622 119.336C194.274 119.336 192.34 118.642 190.818 117.253C189.297 115.831 188.537 113.996 188.537 111.747Z" fill="white"/>
<path d="M218.098 111.747C218.098 109.466 218.859 107.614 220.38 106.192C221.934 104.77 223.869 104.059 226.183 104.059C228.531 104.059 230.465 104.77 231.986 106.192C233.541 107.614 234.318 109.466 234.318 111.747C234.318 113.996 233.557 115.831 232.036 117.253C230.515 118.642 228.564 119.336 226.183 119.336C223.836 119.336 221.901 118.642 220.38 117.253C218.859 115.831 218.098 113.996 218.098 111.747Z" fill="white"/>
<path d="M155.629 39.5475L147.571 21.7054L121.959 3H96.3471H52.0297V39.5475L8 52.2096L48.0008 70.0517L67.5696 97.3904H107.57H139.801L155.629 85.3038V39.5475Z" stroke="#06708A" stroke-width="5"/>
<path d="M94.738 61.564C94.738 58.0492 95.1648 55.2499 96.0184 53.1662C96.872 51.0824 98.4285 49.0363 100.688 47.0279C102.973 44.9944 104.491 43.35 105.245 42.0947C105.998 40.8143 106.374 39.4712 106.374 38.0653C106.374 33.8225 104.416 31.701 100.5 31.701C98.6419 31.701 97.1481 32.2785 96.0184 33.4333C94.9137 34.5631 94.3363 36.1322 94.2861 38.1406H83.3652C83.4154 33.3454 84.9594 29.5922 87.9972 26.8808C91.06 24.1694 95.2275 22.8137 100.5 22.8137C105.822 22.8137 109.952 24.1067 112.889 26.6925C115.827 29.2533 117.295 32.881 117.295 37.5757C117.295 39.7097 116.818 41.7307 115.864 43.6387C114.91 45.5216 113.241 47.6179 110.856 49.9276L107.805 52.8273C105.897 54.66 104.805 56.8065 104.529 59.2668L104.378 61.564H94.738ZM93.6459 73.125C93.6459 71.4429 94.2108 70.0621 95.3405 68.9826C96.4954 67.878 97.964 67.3256 99.7465 67.3256C101.529 67.3256 102.985 67.878 104.115 68.9826C105.27 70.0621 105.847 71.4429 105.847 73.125C105.847 74.782 105.282 76.1502 104.153 77.2297C103.048 78.3093 101.579 78.849 99.7465 78.849C97.9138 78.849 96.4326 78.3093 95.3029 77.2297C94.1982 76.1502 93.6459 74.782 93.6459 73.125Z" fill="#06708A"/>
</svg>
