<svg width="335" height="207" viewBox="0 0 335 207" fill="none" xmlns="http://www.w3.org/2000/svg">
<path fill-rule="evenodd" clip-rule="evenodd" d="M94.8157 156.138C97.2988 164.68 105.182 170.925 114.525 170.925C125.865 170.925 135.057 161.733 135.057 150.394C135.057 139.056 125.865 129.862 114.525 129.862C105.182 129.862 97.2988 136.11 94.8157 144.654H82.6441L63.6456 111.966L63.6388 111.937L63.6469 111.906L82.6159 79.2722H94.7298C97.2143 87.8164 105.096 94.0625 114.439 94.0625C125.779 94.0625 134.971 84.8691 134.971 73.5319C134.971 62.1934 125.779 53 114.439 53C105.096 53 97.2143 59.2461 94.7298 67.7902H76.2598L76.0707 67.6789L53.7009 106.166L53.5292 106.457H40.2415C37.757 97.9126 29.8756 91.6665 20.5292 91.6665C9.19207 91.6665 0 100.86 0 112.198C0 123.536 9.19207 132.728 20.5292 132.728C29.8756 132.728 37.757 126.482 40.2415 117.94H53.8351L76.0707 156.196L76.1726 156.138H94.8157ZM103.966 148.818C104.944 143.868 109.313 140.122 114.545 140.122H114.544C120.492 140.122 125.332 144.962 125.332 150.91C125.332 156.86 120.492 161.696 114.544 161.696C109.313 161.696 104.945 157.953 103.966 153.007C103.966 153.007 103.681 150.916 103.966 148.818ZM9.93363 112.005C9.93363 106.056 14.7725 101.218 20.7208 101.218C26.6704 101.218 31.5092 106.056 31.5092 112.005C31.5092 117.952 26.6704 122.792 20.7208 122.792C14.7725 122.792 9.93363 117.952 9.93363 112.005ZM125.313 73.1012C125.313 79.0481 120.475 83.8883 114.525 83.8883C109.296 83.8883 104.926 80.1442 103.947 75.1953C103.706 73.2917 103.947 71.0728 103.947 71.0728V71.0071C104.926 66.0582 109.296 62.3141 114.525 62.3141C120.475 62.3141 125.313 67.1516 125.313 73.1012Z" fill="#065669" fill-opacity="0.2"/>
<path d="M116.887 130.137L128.738 106.637L166.405 82H204.073H252.701L269.25 130.137L334.004 146.815L275.175 170.315L246.396 206.323H187.567H140.165L116.887 190.403V130.137Z" fill="#06708A"/>
<path d="M154.975 156.07C154.975 153.788 155.736 151.936 157.257 150.515C158.811 149.093 160.745 148.382 163.06 148.382C165.408 148.382 167.342 149.093 168.863 150.515C170.417 151.936 171.195 153.788 171.195 156.07C171.195 158.318 170.434 160.153 168.913 161.575C167.392 162.964 165.441 163.658 163.06 163.658C160.712 163.658 158.778 162.964 157.257 161.575C155.736 160.153 154.975 158.318 154.975 156.07Z" fill="white"/>
<path d="M184.537 156.07C184.537 153.788 185.297 151.936 186.818 150.515C188.373 149.093 190.307 148.382 192.622 148.382C194.969 148.382 196.904 149.093 198.425 150.515C199.979 151.936 200.756 153.788 200.756 156.07C200.756 158.318 199.996 160.153 198.474 161.575C196.953 162.964 195.002 163.658 192.622 163.658C190.274 163.658 188.34 162.964 186.818 161.575C185.297 160.153 184.537 158.318 184.537 156.07Z" fill="white"/>
<path d="M214.098 156.07C214.098 153.788 214.859 151.936 216.38 150.515C217.934 149.093 219.869 148.382 222.183 148.382C224.531 148.382 226.465 149.093 227.986 150.515C229.541 151.936 230.318 153.788 230.318 156.07C230.318 158.318 229.557 160.153 228.036 161.575C226.515 162.964 224.564 163.658 222.183 163.658C219.836 163.658 217.901 162.964 216.38 161.575C214.859 160.153 214.098 158.318 214.098 156.07Z" fill="white"/>
<path d="M223.629 39.5475L215.571 21.7054L189.959 3H164.347H120.03V39.5475L76 52.2096L116.001 70.0517L135.57 97.3904H175.57H207.801L223.629 85.3038V39.5475Z" stroke="#06708A" stroke-width="5"/>
<path d="M162.738 61.564C162.738 58.0492 163.165 55.2499 164.018 53.1662C164.872 51.0824 166.428 49.0363 168.688 47.0279C170.973 44.9944 172.491 43.35 173.245 42.0947C173.998 40.8143 174.374 39.4712 174.374 38.0653C174.374 33.8225 172.416 31.701 168.5 31.701C166.642 31.701 165.148 32.2785 164.018 33.4333C162.914 34.5631 162.336 36.1322 162.286 38.1406H151.365C151.415 33.3454 152.959 29.5922 155.997 26.8808C159.06 24.1694 163.228 22.8137 168.5 22.8137C173.822 22.8137 177.952 24.1067 180.889 26.6925C183.827 29.2533 185.295 32.881 185.295 37.5757C185.295 39.7097 184.818 41.7307 183.864 43.6387C182.91 45.5216 181.241 47.6179 178.856 49.9276L175.805 52.8273C173.897 54.66 172.805 56.8065 172.529 59.2668L172.378 61.564H162.738ZM161.646 73.125C161.646 71.4429 162.211 70.0621 163.341 68.9826C164.495 67.878 165.964 67.3256 167.747 67.3256C169.529 67.3256 170.985 67.878 172.115 68.9826C173.27 70.0621 173.847 71.4429 173.847 73.125C173.847 74.782 173.282 76.1502 172.153 77.2297C171.048 78.3093 169.579 78.849 167.747 78.849C165.914 78.849 164.433 78.3093 163.303 77.2297C162.198 76.1502 161.646 74.782 161.646 73.125Z" fill="#06708A"/>
</svg>
