<svg width="380" height="380" viewBox="0 0 380 380" fill="none" xmlns="http://www.w3.org/2000/svg">
<path d="M116.923 190.714L147.115 162.281H299.684L314.538 179.061V221.943L365.889 233.596L314.538 264.359V304.211L294.221 323.554H147.115L116.923 302.903V190.714Z" fill="white"/>
<path d="M163.304 256.192C163.304 253.148 164.306 250.678 166.307 248.783C168.352 246.886 170.897 245.938 173.944 245.938C177.033 245.938 179.578 246.886 181.58 248.783C183.625 250.678 184.649 253.148 184.649 256.192C184.649 259.19 183.647 261.637 181.646 263.534C179.644 265.387 177.077 266.312 173.944 266.312C170.854 266.312 168.309 265.387 166.307 263.534C164.306 261.637 163.304 259.19 163.304 256.192Z" fill="#06566A"/>
<path d="M203.083 256.192C203.083 253.148 204.128 250.678 206.221 248.783C208.36 246.886 211.021 245.938 214.206 245.938C217.435 245.938 220.098 246.886 222.19 248.783C224.328 250.678 225.397 253.148 225.397 256.192C225.397 259.19 224.352 261.637 222.258 263.534C220.165 265.387 217.481 266.312 214.206 266.312C210.976 266.312 208.315 265.387 206.221 263.534C204.128 261.637 203.083 259.19 203.083 256.192Z" fill="#06566A"/>
<path d="M242.861 256.192C242.861 253.148 243.908 250.678 246.001 248.783C248.139 246.886 250.801 245.938 253.984 245.938C257.214 245.938 259.875 246.886 261.968 248.783C264.107 250.678 265.176 253.148 265.176 256.192C265.176 259.19 264.129 261.637 262.036 263.534C259.944 265.387 257.26 266.312 253.984 266.312C250.755 266.312 248.093 265.387 246.001 263.534C243.908 261.637 242.861 259.19 242.861 256.192Z" fill="#06566A"/>
<path d="M220.743 106.954L209.464 81.8044L173.616 55.4377H137.768H75.7387V106.954L14.1114 124.802L70.0994 149.952L97.4895 188.488H153.476H198.589L220.743 171.451V106.954Z" stroke="white" stroke-width="5"/>
<path d="M135.826 138.029C135.826 133.098 136.422 129.17 137.613 126.247C138.806 123.323 140.978 120.452 144.134 117.634C147.324 114.781 149.444 112.474 150.496 110.713C151.548 108.916 152.073 107.032 152.073 105.059C152.073 99.1064 149.339 96.1298 143.871 96.1298C141.277 96.1298 139.191 96.9401 137.613 98.5604C136.072 100.146 135.265 102.347 135.195 105.165H119.947C120.017 98.437 122.173 93.1711 126.414 89.3668C130.691 85.5626 136.51 83.6605 143.871 83.6605C151.302 83.6605 157.068 85.4746 161.169 89.1026C165.271 92.6956 167.321 97.7855 167.321 104.372C167.321 107.367 166.655 110.202 165.323 112.879C163.991 115.521 161.661 118.462 158.331 121.703L154.071 125.771C151.407 128.343 149.882 131.354 149.497 134.806L149.286 138.029H135.826ZM134.302 154.25C134.302 151.89 135.09 149.953 136.668 148.438C138.279 146.888 140.33 146.113 142.82 146.113C145.308 146.113 147.341 146.888 148.919 148.438C150.531 149.953 151.337 151.89 151.337 154.25C151.337 156.575 150.548 158.495 148.972 160.009C147.429 161.524 145.378 162.281 142.82 162.281C140.261 162.281 138.193 161.524 136.615 160.009C135.072 158.495 134.302 156.575 134.302 154.25Z" fill="white"/>
</svg>
