<svg width="800" height="600" viewBox="0 0 800 600" fill="none" xmlns="http://www.w3.org/2000/svg">
<path opacity="0.5" d="M385.358 579C562.444 579 706 465.504 706 325.5C706 185.496 562.444 72 385.358 72C208.273 72 64.7169 185.496 64.7169 325.5C64.7169 465.504 208.273 579 385.358 579Z" fill="url(#paint0_radial)"/>
<path d="M328.654 325.341L486.58 487.898L644.507 325.341L486.581 162.784L328.654 325.341Z" fill="#ECFF00" fill-opacity="0.6"/>
<path d="M244.602 325.341L402.529 487.898L560.456 325.341L402.53 162.784L244.602 325.341Z" fill="#ECFF00" fill-opacity="0.6"/>
<path d="M178.895 324.975L310.5 460.439L442.106 324.975L310.5 189.511L178.895 324.975Z" fill="#ECFF00"/>
<path d="M212.563 125.346L208.478 129.55L302.102 225.918L306.186 221.714L212.563 125.346Z" fill="url(#paint1_linear)" fill-opacity="0.5"/>
<path d="M208.359 520.441L212.54 524.744L306.235 428.303L302.054 424L208.359 520.441Z" fill="url(#paint2_linear)" fill-opacity="0.5"/>
<path d="M49.1345 321.926L46 325L49.1345 328.075L212.843 518.067L214.814 520H218.026H503.974H507.186L509.157 518.067L702.865 328.075L706 325L702.865 321.926L509.157 131.933L507.186 130H503.976H218.026H214.814L212.843 131.933L49.1345 321.926Z" stroke="black" stroke-opacity="0.5" stroke-width="10"/>
<path d="M706 328V322H623V328H706Z" fill="url(#paint3_linear)" fill-opacity="0.5"/>
<path d="M484.241 329.754H505.074L494.825 297.322L484.241 329.754ZM485.3 278.479H504.684L533.761 360.899H515.156L509.864 343.957H479.618L473.936 360.899H456L485.3 278.479Z" fill="url(#paint4_linear)"/>
<path d="M534.751 302.174V289.165C540.675 288.896 544.82 288.493 547.189 287.956C550.962 287.108 554.034 285.409 556.403 282.86C558.026 281.117 559.254 278.793 560.088 275.886C560.571 274.143 560.811 272.847 560.811 271.997H576.408V369.234H557.192V302.174H534.751Z" fill="url(#paint5_linear)"/>
<path d="M591.155 298.31V282.574C598.526 282.25 603.685 281.763 606.633 281.115C611.329 280.087 615.15 278.032 618.099 274.951C620.118 272.84 621.647 270.029 622.684 266.514C623.285 264.405 623.585 262.838 623.585 261.809H642.994V379.42H619.081V298.31H591.155Z" fill="url(#paint6_linear)"/>
<path d="M746.486 248.846H780L732.657 337.279V390.532H703.079V337.279L654.103 248.846H688.963L718.349 310.557L746.486 248.846Z" fill="url(#paint7_linear)"/>
<defs>
<radialGradient id="paint0_radial" cx="0" cy="0" r="1" gradientUnits="userSpaceOnUse" gradientTransform="translate(385.358 325.5) rotate(90) scale(253.5 320.642)">
<stop stop-color="#ECFF00"/>
<stop offset="1" stop-color="#C4C4C4" stop-opacity="0"/>
</radialGradient>
<linearGradient id="paint1_linear" x1="210.52" y1="127.448" x2="306.848" y2="221.032" gradientUnits="userSpaceOnUse">
<stop offset="0.505208"/>
<stop offset="1" stop-opacity="0"/>
</linearGradient>
<linearGradient id="paint2_linear" x1="210.45" y1="522.593" x2="306.851" y2="428.938" gradientUnits="userSpaceOnUse">
<stop offset="0.505208"/>
<stop offset="1" stop-opacity="0"/>
</linearGradient>
<linearGradient id="paint3_linear" x1="706" y1="325" x2="622.998" y2="325" gradientUnits="userSpaceOnUse">
<stop/>
<stop offset="1" stop-opacity="0"/>
</linearGradient>
<linearGradient id="paint4_linear" x1="780" y1="320.152" x2="456" y2="320.152" gradientUnits="userSpaceOnUse">
<stop stop-color="#ECFF00"/>
<stop offset="1" stop-color="#065669"/>
</linearGradient>
<linearGradient id="paint5_linear" x1="780" y1="320.152" x2="456" y2="320.152" gradientUnits="userSpaceOnUse">
<stop stop-color="#ECFF00"/>
<stop offset="1" stop-color="#065669"/>
</linearGradient>
<linearGradient id="paint6_linear" x1="780" y1="320.152" x2="456" y2="320.152" gradientUnits="userSpaceOnUse">
<stop stop-color="#ECFF00"/>
<stop offset="1" stop-color="#065669"/>
</linearGradient>
<linearGradient id="paint7_linear" x1="780" y1="320.152" x2="456" y2="320.152" gradientUnits="userSpaceOnUse">
<stop stop-color="#ECFF00"/>
<stop offset="1" stop-color="#065669"/>
</linearGradient>
</defs>
</svg>
