<svg width="800" height="600" viewBox="0 0 800 600" fill="none" xmlns="http://www.w3.org/2000/svg">
<path opacity="0.5" d="M405 73C270.243 73 161 177.318 161 306C161 434.682 270.242 539 405 539C539.757 539 649 434.682 649 306C649 177.318 539.758 73 405 73Z" fill="url(#paint0_radial)"/>
<path fill-rule="evenodd" clip-rule="evenodd" d="M106.662 322.18L110.529 302.624L216.316 302.624L223.115 323.822L243.679 320.097L254.102 302.624L374.339 302.624L384.763 367.948L402.757 380.674L402.757 411.716L376.409 418.855L365.797 496.965L138.15 485.079L106.662 322.18Z" fill="#ECFF00" fill-opacity="0.8"/>
<path fill-rule="evenodd" clip-rule="evenodd" d="M80 372.36L83.2544 355.903L206.616 355.903L212.338 373.742L229.644 370.608L238.415 355.903L313.47 355.903L320.5 409.194L335.643 419.905L335.643 446.028L313.47 452.037L306.281 527.87L106.5 517.868L80 372.36Z" fill="#ECFF00" fill-opacity="0.8"/>
<path fill-rule="evenodd" clip-rule="evenodd" d="M616.559 281.306L595.996 285.031L589.026 263.302L427.743 265.302L419.388 201.978L401.395 189.251L401.395 158.21L427.743 151.071L433.125 94.292L664.07 143.483L696.245 263.302L627.3 263.302L616.559 281.306Z" fill="#ECFF00"/>
<path d="M531.232 524.87L415.681 511.666L424.224 421.556L450.571 414.417L450.571 383.375L432.578 370.649L424.224 307.325L587.036 307.325L586.971 307.635L594.039 329.674L614.604 325.949L625.529 307.635L625.386 307.325L693.691 307.325L716 437.497L531.232 524.87Z" fill="#ECFF00" fill-opacity="0.6"/>
<path d="M605.541 174.033L666.56 420.2L506.594 488.87L178.108 468.47L132.44 310.746L178.108 144.498L336.342 101.87L605.541 174.033Z" stroke="black" stroke-width="10"/>
<path fill-rule="evenodd" clip-rule="evenodd" d="M246.249 278.989L225.686 282.714L218.916 261.606L102.105 261.606L129.727 121.921L329.677 73.497L381.408 90.206L381.408 103.315L377.231 147.375L350.884 154.514L350.884 185.555L368.877 198.282L377.231 261.606L376.267 261.606L256.619 261.606L246.249 278.989ZM376.267 261.606L377.231 261.606L381.408 261.606L376.267 261.606Z" fill="#ECFF00" fill-opacity="0.8"/>
<path fill-rule="evenodd" clip-rule="evenodd" d="M214.746 230.565L196.677 233.838L190.728 215.29L94.6719 215.29L118.943 92.55L291.82 50L337.276 64.682L337.276 76.201L333.606 114.916L310.454 121.189L310.454 148.465L326.266 159.648L333.606 215.29L337.276 215.29L332.759 215.29L223.858 215.29L214.746 230.565Z" fill="#ECFF00"/>
<defs>
<radialGradient id="paint0_radial" cx="0" cy="0" r="1" gradientUnits="userSpaceOnUse" gradientTransform="translate(405 306) rotate(-90) scale(233 244)">
<stop stop-color="#ECFF00"/>
<stop offset="1" stop-color="#C4C4C4" stop-opacity="0"/>
</radialGradient>
</defs>
</svg>
