<svg width="800" height="600" viewBox="0 0 800 600" fill="none" xmlns="http://www.w3.org/2000/svg">
<path opacity="0.5" d="M399.5 600C530.115 600 636 495.458 636 366.5C636 237.542 530.115 133 399.5 133C268.885 133 163 237.542 163 366.5C163 495.458 268.885 600 399.5 600Z" fill="url(#paint0_radial)"/>
<path d="M144.46 389.516L246.267 424.722L202.277 523.543L172.737 511.132L143.443 457.651L144.46 389.516Z" fill="#ECFF00"/>
<path d="M638.035 309.552L536.228 274.346L580.218 175.525L609.759 187.935L639.053 241.417L638.035 309.552Z" fill="#ECFF00"/>
<path d="M402.085 240.607L319.114 286.053L317.137 403.447L361.622 379.082L357.679 464.414L443.65 417.325L440.303 273.605L397.818 296.876L402.085 240.607Z" fill="#ECFF00"/>
<path d="M418.456 234.904L278.504 311.562C237.38 334.087 222.303 385.685 244.828 426.809C267.353 467.933 318.951 483.01 360.075 460.485L500.027 383.827C541.151 361.302 556.229 309.704 533.704 268.58C511.178 227.456 459.58 212.379 418.456 234.904Z" fill="#ECFF00" fill-opacity="0.6" stroke="black" stroke-width="11"/>
<path d="M312.604 411.779L316.354 294.063L325.85 288.861L322.718 395.843L366.203 372.023L363.581 458.582L352.086 464.879L356.089 387.961L312.604 411.779Z" fill="black"/>
<path d="M391.738 304.755L397.539 241.797L407.037 236.595L401.852 288.818L445.337 265L447.922 415.634L436.426 421.931L435.223 280.937L391.738 304.755Z" fill="black"/>
<path fill-rule="evenodd" clip-rule="evenodd" d="M530.896 268.17L569.194 148.546L620.777 168.905L655.82 232.882L654.53 299.402L530.896 268.17ZM615.648 174.962L538.893 263.79L645.686 289.117L649.323 236.441L615.648 174.962ZM615.648 174.962L573.956 158.162L538.893 263.79L615.648 174.962Z" fill="black"/>
<path d="M585.701 205.84L535.44 263.073L540.579 267.586L590.84 210.353L585.701 205.84Z" fill="black"/>
<path d="M591.737 248.24L535.066 262.067L536.687 268.711L593.358 254.884L591.737 248.24Z" fill="black"/>
<path fill-rule="evenodd" clip-rule="evenodd" d="M247.681 427.855L209.383 547.478L157.8 527.12L122.757 463.142L124.046 396.623L247.681 427.855ZM162.928 521.062L239.683 432.235L132.891 406.908L129.254 459.583L162.928 521.062ZM162.928 521.062L204.621 537.863L239.683 432.235L162.928 521.062Z" fill="black"/>
<path d="M192.876 490.184L243.137 432.952L237.998 428.439L187.738 485.672L192.876 490.184Z" fill="black"/>
<path d="M186.84 447.783L243.51 433.957L241.89 427.313L185.219 441.139L186.84 447.783Z" fill="black"/>
<path d="M280.249 178.694V166.971H298.665V148.555H310.477V166.971H328.893V178.694H310.477V197.199H298.665V178.694H280.249Z" fill="#ECFF00"/>
<path d="M526.315 425.585V404.894H558.818V372.391H579.668V404.894H612.17V425.585H579.668V458.246H558.818V425.585H526.315Z" fill="#ECFF00"/>
<path d="M505.618 501.94C511.968 501.94 517.116 496.791 517.116 490.441C517.116 484.091 511.968 478.943 505.618 478.943C499.268 478.943 494.12 484.091 494.12 490.441C494.12 496.791 499.268 501.94 505.618 501.94Z" fill="#ECFF00"/>
<path d="M532.065 111.76C535.24 111.76 537.814 109.186 537.814 106.011C537.814 102.836 535.24 100.262 532.065 100.262C528.89 100.262 526.316 102.836 526.316 106.011C526.316 109.186 528.89 111.76 532.065 111.76Z" fill="#ECFF00"/>
<path d="M151.921 128.555C158.271 128.555 163.419 123.407 163.419 117.057C163.419 110.707 158.271 105.559 151.921 105.559C145.571 105.559 140.423 110.707 140.423 117.057C140.423 123.407 145.571 128.555 151.921 128.555Z" fill="#ECFF00"/>
<path d="M148.89 152.186C174.623 152.186 195.483 131.326 195.483 105.593C195.483 79.8604 174.623 59 148.89 59C123.157 59 102.297 79.8604 102.297 105.593C102.297 131.326 123.157 152.186 148.89 152.186Z" stroke="black" stroke-width="8"/>
<defs>
<radialGradient id="paint0_radial" cx="0" cy="0" r="1" gradientUnits="userSpaceOnUse" gradientTransform="translate(399.5 366.5) rotate(90) scale(233.5 236.5)">
<stop stop-color="#ECFF00"/>
<stop offset="1" stop-color="#C4C4C4" stop-opacity="0"/>
</radialGradient>
</defs>
</svg>
