<svg width="800" height="600" viewBox="0 0 800 600" fill="none" xmlns="http://www.w3.org/2000/svg">
<path opacity="0.5" d="M573.733 271.286C640.461 271.286 694.554 217.944 694.554 152.143C694.554 86.3421 640.461 33 573.733 33C507.006 33 452.913 86.3421 452.913 152.143C452.913 217.944 507.006 271.286 573.733 271.286Z" fill="url(#paint0_radial)"/>
<path d="M582.459 186.309C605.592 186.309 624.344 167.556 624.344 144.424C624.344 121.291 605.592 102.539 582.459 102.539C559.327 102.539 540.574 121.291 540.574 144.424C540.574 167.556 559.327 186.309 582.459 186.309Z" stroke="black" stroke-width="6"/>
<path d="M577.44 149.068L237.074 481.926L158.148 465.166V432.815L577.44 149.068L129.959 429.698L115.866 418.004L148.283 311.989L577.44 149.068L107.411 311.989V254.305L140.53 222.344L577.44 149.068Z" fill="#ECFF00" fill-opacity="0.6"/>
<path d="M579.358 147.15L671.048 521.255L692.31 502.418V466.059L579.358 147.15L699.903 462.554L703.7 449.413L694.968 330.26L579.358 147.15L705.978 330.26V265.427L697.056 229.506L579.358 147.15Z" fill="#ECFF00" fill-opacity="0.6"/>
<path opacity="0.1" d="M578.399 147.15L652.705 526.051L675.027 508.253L676.781 471.869L578.399 147.15L684.597 468.737L689.055 455.774L686.006 336.107L578.399 147.15L697.096 336.652L700.223 271.773L692.969 235.386L578.399 147.15Z" fill="#ECFF00" fill-opacity="0.6"/>
<path d="M578.399 147.15L697.123 547.154L719.298 525.668L717.454 486.328L578.399 147.15L725.537 482.141L729 467.725L713.456 339.258L578.399 147.15L725.434 338.685L722.146 268.538L710.617 230.135L578.399 147.15Z" fill="#ECFF00"/>
<path d="M576.48 150.028L196.312 495.355L114.018 476.134L116.037 441.94L576.48 150.028L86.4677 438.106L72.3146 425.478L113.157 314.04L576.48 150.028L70 313.26L73.5984 252.287L110.566 219.138L576.48 150.028Z" fill="#ECFF00" fill-opacity="0.8"/>
<path d="M581.277 151.946L113.166 509.744" stroke="black" stroke-width="8"/>
<path d="M581.277 149.068L691.59 555.787" stroke="black" stroke-width="8"/>
<path d="M589.843 150.464C589.843 144.904 585.336 140.396 579.775 140.396C574.214 140.396 569.707 144.904 569.707 150.464C569.707 156.025 574.214 160.533 579.775 160.533C585.336 160.533 589.843 156.025 589.843 150.464Z" fill="#ECFF00"/>
<path d="M559.496 280.992C565.293 280.992 569.992 276.293 569.992 270.496C569.992 264.699 565.293 260 559.496 260C553.699 260 549 264.699 549 270.496C549 276.293 553.699 280.992 559.496 280.992Z" fill="#ECFF00"/>
<path d="M67.5114 450.404H56.8103V433.594H40V422.81H56.8103V406H67.5114V422.81H84.4039V433.594H67.5114V450.404Z" fill="#ECFF00"/>
<path d="M510.557 489.371H491.669V459.702H462V440.67H491.669V411H510.557V440.67H540.371V459.702H510.557V489.371Z" fill="#ECFF00"/>
<path d="M179.496 127.248C179.496 124.35 177.147 122 174.248 122C171.35 122 169 124.35 169 127.248C169 130.147 171.35 132.496 174.248 132.496C177.147 132.496 179.496 130.147 179.496 127.248Z" fill="#ECFF00"/>
<path d="M391.874 103.392H386.477V94.9148H378V89.4771H386.477V81H391.874V89.4771H400.392V94.9148H391.874V103.392Z" fill="#ECFF00"/>
<defs>
<radialGradient id="paint0_radial" cx="0" cy="0" r="1" gradientUnits="userSpaceOnUse" gradientTransform="translate(573.733 152.143) rotate(90) scale(119.143 120.821)">
<stop stop-color="#ECFF00"/>
<stop offset="1" stop-color="#C4C4C4" stop-opacity="0"/>
</radialGradient>
</defs>
</svg>
