<svg width="481" height="475" viewBox="0 0 481 475" fill="none" xmlns="http://www.w3.org/2000/svg">
<path opacity="0.2" d="M8 380L0.5 368.5L8 327.5L48.5 296.5L161.5 305V355L118.5 388.5L8 380Z" fill="#065669" fill-opacity="0.2"/>
<ellipse opacity="0.2" cx="240.5" cy="237.5" rx="240.5" ry="237.5" fill="url(#paint0_radial_150:196)"/>
<path d="M261 129H271L318.5 81.5V35.5L306 23L243.5 85.5V111.5L261 129Z" fill="#06708A"/>
<path d="M239.5 131H184.5L147 92L162 75H184.5L248.5 122L239.5 131Z" fill="#06708A"/>
<path d="M287.25 136.25H227.75L155.75 208.75V343.75L184.25 372.25H299.25L327.75 343.75V176.75L287.25 136.25Z" fill="#ECFF00"/>
<circle cx="183.25" cy="318.25" r="3" fill="white"/>
<circle cx="240.75" cy="353.75" r="2.5" fill="white"/>
<circle cx="250.25" cy="275.25" r="2" fill="white"/>
<circle cx="214.25" cy="252.25" r="3" fill="white"/>
<circle cx="249.25" cy="321.25" r="2" fill="white"/>
<circle cx="228.25" cy="294.25" r="2" fill="white"/>
<circle cx="254.25" cy="316.25" r="2" fill="white"/>
<circle cx="206.25" cy="305.25" r="2" fill="white"/>
<circle cx="201.25" cy="309.25" r="2" fill="white"/>
<circle cx="189.25" cy="297.25" r="2" fill="white"/>
<path d="M203.25 150.25L151.25 202.25V344.75L190.25 383.25L280.75 396.75L314.25 364.25L321.75 179.75L287.75 146.25L203.25 150.25Z" stroke="#065669" stroke-opacity="0.4" stroke-width="2"/>
<circle cx="198.25" cy="276.25" r="6" fill="white"/>
<circle cx="192.25" cy="240.25" r="2" fill="white"/>
<circle cx="190.25" cy="337.25" r="5" fill="white"/>
<circle cx="220.25" cy="315.25" r="3" fill="white"/>
<circle cx="184.25" cy="258.25" r="3" fill="white"/>
<circle cx="175.25" cy="299.25" r="3" fill="white"/>
<circle cx="211.75" cy="343.75" r="2.5" fill="white"/>
<circle cx="244.25" cy="296.25" r="3" fill="white"/>
<circle cx="247.25" cy="285.25" r="3" fill="white"/>
<circle cx="237.25" cy="278.25" r="4" fill="white"/>
<defs>
<radialGradient id="paint0_radial_150:196" cx="0" cy="0" r="1" gradientUnits="userSpaceOnUse" gradientTransform="translate(240.5 237.5) rotate(90) scale(237.5 240.5)">
<stop offset="0.333333" stop-color="#ECFF00"/>
<stop offset="1" stop-color="#C4C4C4" stop-opacity="0"/>
</radialGradient>
</defs>
</svg>
