<svg width="960" height="490" viewBox="0 0 960 490" fill="none" xmlns="http://www.w3.org/2000/svg">
<path d="M0 0H905L960 71.3222V425L19.5 400.978L0 375.933V225.672V0Z" fill="#06708A"/>
<ellipse opacity="0.9" cx="475.314" cy="245.33" rx="235.428" ry="232.33" fill="url(#paint0_radial)"/>
<path d="M814 262.137L737.508 270.648L749.112 305.219L695.842 274.606L441.844 289.847L400.969 57.4714L814 48.1075L814 262.137Z" fill="#ECFF00" fill-opacity="0.8"/>
<path d="M85 300.344L192.472 308.446L174.209 333.441L235.699 312.215L475.314 341.36L442.617 82.1828L96.1387 104.501L85 300.344Z" fill="#ECFF00" fill-opacity="0.8"/>
<path d="M190.968 177.622C195.762 177.591 200.56 177.56 205.364 177.53C208.006 190.369 210.673 203.255 213.365 216.186C216.323 203.337 219.23 190.415 222.085 177.422C227.022 177.391 231.953 177.36 236.879 177.329C231.688 195.59 226.41 213.697 221.045 231.649C216.017 231.392 210.999 231.135 205.991 230.878C203.227 217.832 200.504 204.859 197.822 191.958C194.68 204.685 191.509 217.359 188.306 229.982C183.237 229.725 178.173 229.473 173.114 229.226C168.464 211.932 163.874 194.746 159.346 177.668C164.455 177.689 169.56 177.694 174.66 177.684C177.148 190.06 179.657 202.483 182.187 214.952C185.155 202.576 188.082 190.132 190.968 177.622ZM274.636 175.585C277.987 175.554 281.031 176.156 283.8 177.375C286.585 178.61 288.925 180.493 290.776 183.054C292.352 185.23 293.362 187.483 293.775 189.813C294.203 192.113 294.509 195.863 294.708 201.109C295.157 212.58 295.601 224.046 296.039 235.507C291.062 235.25 286.075 234.993 281.077 234.735C280.72 223.028 280.358 211.325 279.991 199.628C279.899 196.526 279.318 194.011 278.262 192.097C276.87 189.412 274.361 188.054 270.72 188.039C266.956 188.023 264.111 189.35 262.198 191.958C260.301 194.536 259.414 198.239 259.506 203.085C259.71 213.27 259.914 223.46 260.118 233.655C255.253 233.408 250.383 233.156 245.508 232.899C245.212 207.91 244.906 182.91 244.59 157.9C249.261 157.787 253.932 157.674 258.603 157.561C258.777 166.542 258.955 175.529 259.139 184.52C261.128 181.249 263.453 178.934 266.13 177.638C268.807 176.31 271.638 175.616 274.636 175.585ZM312.531 247.683C313.153 247.755 313.775 247.832 314.397 247.914C315.851 248.069 317.228 248.099 318.528 247.991C319.828 247.899 320.915 247.544 321.771 246.942C322.598 246.371 323.332 245.121 323.959 243.177C324.617 241.248 324.862 240.059 324.709 239.612C316.855 218.501 309.125 197.591 301.516 176.881C306.779 176.851 312.036 176.82 317.289 176.789C322.021 191.573 326.81 206.464 331.654 221.464C334.592 206.588 337.498 191.66 340.375 176.681C345.423 176.671 350.477 176.671 355.536 176.681C350.548 196.835 345.494 216.855 340.375 236.742C337.315 248.053 334.745 254.967 332.71 257.528C330.66 260.121 326.361 261.186 319.813 260.707C318.497 260.615 317.427 260.538 316.646 260.43C315.851 260.368 314.642 260.244 313.051 260.013C312.878 255.918 312.704 251.808 312.531 247.683Z" fill="#065669" fill-opacity="0.8"/>
<path d="M598.83 143.834C595.617 143.748 592.399 143.667 589.175 143.592C585.298 158.618 581.522 173.751 577.848 188.992C570.78 173.666 563.63 158.27 556.401 142.805C553.734 142.74 551.078 142.676 548.432 142.612C545.487 158.141 542.627 173.768 539.853 189.49C531.938 173.693 523.954 157.836 515.899 141.921C512.697 141.867 509.494 141.813 506.292 141.76C517.056 162.552 527.697 183.22 538.214 203.766C540.796 203.723 543.382 203.68 545.974 203.637C548.727 188.065 551.554 172.567 554.457 157.145C561.644 172.535 568.739 187.834 575.744 203.042C578.325 202.989 580.912 202.935 583.504 202.882C588.452 183.033 593.561 163.35 598.83 143.834ZM645.356 143.126C636.456 142.901 628.905 145.924 623.812 151.277C622.634 138.695 621.461 126.118 620.294 113.546C617.274 113.417 614.253 113.289 611.233 113.16C614.157 142.783 617.097 172.439 620.053 202.126C622.881 202.072 625.713 202.013 628.552 201.949C627.277 188.327 626.003 174.716 624.728 161.116C629.275 154.347 636.729 150.666 644.409 150.811C655.333 151.036 663.189 157.82 663.944 169.411C664.641 179.989 665.342 190.578 666.049 201.178C668.887 201.124 671.72 201.065 674.548 201.001C673.905 190.369 673.273 179.737 672.652 169.105C671.72 153.512 660.522 143.512 645.356 143.126ZM748.948 147.306C745.788 147.252 742.634 147.199 739.485 147.145C731.763 162.557 724.169 178.103 716.704 193.782C707.825 178.028 698.78 162.112 689.569 146.036C686.345 145.961 683.127 145.886 679.914 145.811C690.988 165.113 701.843 184.19 712.479 203.042C708.591 211.906 704.767 220.839 701.008 229.841C703.985 229.713 706.968 229.584 709.956 229.456C722.477 201.59 735.474 174.207 748.948 147.306Z" fill="#065669" fill-opacity="0.8"/>
<path d="M306.179 187.506L277.06 434.079L425.041 430.791L472.777 473.53L472.777 428.558L719.003 423.038L647.876 187.506L306.179 187.506Z" fill="#ECFF00" fill-opacity="0.8"/>
<path d="M456.937 285.972C450.557 285.942 444.185 285.912 437.818 285.882C435.215 296.808 432.51 307.749 429.703 318.705C426.361 307.749 423.101 296.783 419.924 285.808C415.088 285.788 410.247 285.763 405.398 285.733C401.915 296.858 398.324 308.003 394.624 319.168C392.174 308.013 389.775 296.848 387.428 285.673C380.946 285.653 374.446 285.638 367.926 285.628C372.826 306.554 377.999 327.43 383.447 348.256C389.597 348.176 395.753 348.097 401.915 348.017C405.411 337.29 408.843 326.573 412.211 315.867C415.184 326.504 418.265 337.126 421.455 347.733C427.668 347.643 433.888 347.554 440.115 347.464C446.086 326.897 451.693 306.4 456.937 285.972Z" fill="#083D4A"/>
<path d="M497.949 284.284C492.093 284.254 487.5 286.36 483.538 290.215C482.288 279.468 481.038 268.717 479.787 257.96C473.944 257.88 468.107 257.801 462.276 257.721C464.802 287.481 467.278 317.256 469.702 347.046C476.515 346.956 483.328 346.862 490.141 346.762C488.661 334.083 487.181 321.404 485.701 308.725C488.514 304.721 491.978 302.6 495.481 302.585C501.662 302.585 506.389 306.679 507.729 315.254C509.362 325.642 510.982 336.035 512.59 346.433C519.441 346.344 526.299 346.249 533.163 346.149C530.981 334.735 528.787 323.336 526.58 311.952C523.307 294.906 511.843 284.359 497.949 284.284Z" fill="#083D4A"/>
<path d="M595.093 286.525C588.561 286.515 582.048 286.505 575.554 286.495C574.188 298.586 572.689 310.707 571.056 322.858C562.317 310.727 553.781 298.566 545.45 286.375C538.956 286.346 532.461 286.316 525.967 286.286C539.198 306.405 552.92 326.444 567.133 346.403C565.321 355.367 563.376 364.356 561.296 373.37C568.734 373.22 576.172 373.066 583.611 372.907C588.408 343.933 592.235 315.139 595.093 286.525Z" fill="#083D4A"/>
<path d="M120.108 256.889L205.552 63.971L691.548 29.5212L748.692 82.6722L814 378.448L132.081 418.803L120.108 256.889Z" stroke="black" stroke-width="4"/>
<defs>
<radialGradient id="paint0_radial" cx="0" cy="0" r="1" gradientUnits="userSpaceOnUse" gradientTransform="translate(475.314 245.33) rotate(90) scale(232.33 235.428)">
<stop offset="0.213542" stop-color="#ECFF00"/>
<stop offset="1" stop-color="#C4C4C4" stop-opacity="0"/>
</radialGradient>
</defs>
</svg>
