<svg width="998" height="500" viewBox="0 0 998 500" fill="none" xmlns="http://www.w3.org/2000/svg">
<g clip-path="url(#clip0_864_3118)">
<path opacity="0.2" d="M941.025 411.536L966.897 442.403L922.153 479.909L883.271 470.946L858.908 422.925L865.984 395.402L941.025 411.536Z" fill="#ECFF00" fill-opacity="0.4"/>
<g opacity="0.5">
<path d="M921.487 138.984L998.03 62.4409L979.898 44.3094L927.481 44.3219L866.756 105.047L900.697 138.989L921.487 138.984Z" fill="#ECFF00" fill-opacity="0.2"/>
<path d="M871.512 124.82L859.159 111.372L859.159 66.0252L893.404 29.9041L928.899 29.9041L934.059 34.7515V60.2413L871.512 124.82Z" fill="#065669" fill-opacity="0.2"/>
</g>
<g opacity="0.2">
<path d="M778.562 228.376L783.31 230.279L814.901 216.769L823.656 194.931L820.101 186.618L778.534 204.394L773.585 216.737L778.562 228.376Z" fill="#06708A"/>
<path d="M767.975 225.233L741.864 214.765L731.484 189.113L741.84 183.897L752.522 188.179L773.96 222.674L767.975 225.233Z" fill="#06708A"/>
<path d="M789.644 236.814L761.397 225.49L713.416 246.205L687.721 310.295L695.827 329.25L750.423 351.138L769.378 343.032L801.163 263.75L789.644 236.814Z" fill="#ECFF00"/>
<circle cx="726.171" cy="331.221" r="1.27869" transform="rotate(21.8465 726.171 331.221)" fill="white"/>
<circle cx="745.623" cy="295.762" r="1.02296" transform="rotate(21.8465 745.623 295.762)" fill="white"/>
<circle cx="732.909" cy="277.991" r="1.53443" transform="rotate(21.8465 732.909 277.991)" fill="white"/>
<circle cx="736.393" cy="317.41" r="1.02296" transform="rotate(21.8465 736.393 317.41)" fill="white"/>
<circle cx="731.562" cy="300.595" r="1.02296" transform="rotate(21.8465 731.562 300.595)" fill="white"/>
<circle cx="739.718" cy="315.988" r="1.02296" transform="rotate(21.8465 739.718 315.988)" fill="white"/>
<path d="M747.101 227.473L712.517 242.262L685.395 309.914L696.582 335.614L736.977 359.248L759.067 350.195L797.744 264.032L787.978 241.657L747.101 227.473Z" stroke="#065669" stroke-opacity="0.4" stroke-width="2"/>
<circle cx="723.767" cy="309.042" r="1.53443" transform="rotate(21.8465 723.767 309.042)" fill="white"/>
<circle cx="714.307" cy="320.954" r="1.27869" transform="rotate(21.8465 714.307 320.954)" fill="white"/>
<circle cx="738.777" cy="304.589" r="1.53443" transform="rotate(21.8465 738.777 304.589)" fill="white"/>
<circle cx="742.295" cy="299.938" r="1.53443" transform="rotate(21.8465 742.295 299.938)" fill="white"/>
<circle cx="738.88" cy="294.712" r="2.04591" transform="rotate(21.8465 738.88 294.712)" fill="white"/>
</g>
<g opacity="0.2">
<path d="M850.881 440.249L872.875 435.863L870.073 451.992L858.497 454.301L853.007 450.913L850.881 440.249Z" fill="#B4CCD2"/>
<path d="M850.881 440.249L854.409 439.546L856.274 448.894L860.62 453.877L858.497 454.301L853.007 450.913L850.881 440.249Z" fill="#9BBBC3"/>
<path d="M897.984 430.779L917.605 426.866L920.608 441.924L908.059 444.427L903.869 441.259L897.984 430.779Z" fill="#B4CCD2"/>
<path d="M897.984 430.779L903.153 429.748L907.291 440.577L910.651 443.91L908.059 444.427L903.869 441.259L897.984 430.779Z" fill="#9BBBC3"/>
<path d="M832.353 387.17L907.916 372.102L923.303 378.12L931.779 420.625L927.308 427.541L843.727 444.208L832.353 387.17Z" fill="#387888"/>
<path d="M829.617 385.344L905.18 370.275L920.567 376.294L929.043 418.798L924.571 425.714L840.991 442.381L829.617 385.344Z" fill="#518997"/>
<path d="M829.617 385.344L905.504 370.21L887.521 375.304L836.729 387.059L845.381 430.443L842.252 434.115L840.331 439.07L829.617 385.344Z" fill="#387888"/>
<path d="M896.481 384.582L828.378 398.163L834.751 430.123L835.021 431.477L837.755 433.3L839.774 432.897L911.906 418.513L906.151 389.652L896.481 384.582Z" fill="#82AAB5"/>
<path d="M828.378 398.163L896.253 384.627L903.778 389.65L909.169 416.686L837.072 431.064L834.673 429.732L828.378 398.163Z" fill="#6A9AA6"/>
<path d="M837.742 378.503L851.431 375.774L852.432 380.793L838.743 383.523L837.742 378.503Z" fill="#B4CCD2"/>
<path d="M837.742 378.503L851.431 375.774L839.587 379.478L840.33 383.206L838.743 383.523L837.742 378.503Z" fill="#9BBBC3"/>
<path d="M835.01 369.559L853.034 365.965L854.853 375.091L834.32 379.186L833.046 372.798L835.01 369.559Z" fill="#9BBBC3"/>
<path d="M835.01 369.559L853.034 365.965L835.918 371.269L834.978 373.691L834.32 379.186L833.046 372.798L835.01 369.559Z" fill="#82AAB5"/>
<path d="M855.823 404.115L886.434 398.011L893.289 402.387L894.39 407.91L858.026 415.162L855.823 404.115Z" fill="#518997"/>
<path d="M854.651 403.332L885.262 397.227L892.117 401.604L893.218 407.127L856.854 414.379L854.651 403.332Z" fill="#1F6779"/>
<path d="M867.515 404.895L885.982 401.212L885.882 405.296L868.88 408.686L867.515 404.895Z" fill="#ECFF00"/>
<path d="M867.515 404.895L885.982 401.212L885.882 405.296L868.88 408.686L867.515 404.895Z" fill="#06566A" fill-opacity="0.3"/>
<path d="M862.238 405.947L879.729 402.459L879.629 406.543L863.604 409.739L862.238 405.947Z" fill="#ECFF00"/>
<path d="M846.905 402.89L842.415 403.785L840.854 406.147L841.746 410.619L842.684 411.245L849.128 409.96L847.843 403.516L846.905 402.89Z" fill="#518997"/>
<path d="M842.415 403.785L846.905 402.89L848.19 409.334L841.746 410.619L840.854 406.147L842.415 403.785Z" fill="#1F6779"/>
<path d="M848.741 412.097L842.297 413.382L843.582 419.826L844.52 420.452L849.11 419.536L850.613 417.409L849.679 412.722L848.741 412.097Z" fill="#518997"/>
<path d="M842.297 413.382L848.741 412.097L849.676 416.783L848.172 418.911L843.582 419.826L842.297 413.382Z" fill="#1F6779"/>
<path d="M892.392 353.984L886.504 351.202L883.52 362.979L887.423 363.576L885.632 371.847L892.653 359.609L888.286 360.136L892.392 353.984Z" fill="#ECFF00"/>
<path d="M863.601 356.212L858.247 359.92L866.954 368.393L869.424 365.311L875.691 370.998L868.603 358.798L866.876 362.844L863.601 356.212Z" fill="#ECFF00"/>
</g>
<path opacity="0.2" d="M39.4144 484.726L34.9417 477.868L39.4144 453.417L63.567 434.93L130.956 439.999V469.817L105.312 489.795L39.4144 484.726Z" fill="#065669" fill-opacity="0.2"/>
<path opacity="0.4" d="M9 396.465V358H64.7597L87.7196 388.414L76.0905 438.509L54.0252 454.312L9 396.465Z" fill="#ECFF00" fill-opacity="0.4"/>
<g opacity="0.2">
<path d="M548.162 15.4886L643.88 41.1363L645.593 42.8745L646.656 75.6507L545.925 48.6599L544.996 20.0129L546.545 16.7185L548.162 15.4886Z" fill="#518997"/>
<path d="M549.116 15.7441L643.88 41.136L645.593 42.8741L646.656 75.6503L550.222 49.8108L549.116 15.7441Z" fill="#1F6779"/>
<path fill-rule="evenodd" clip-rule="evenodd" d="M556.246 24.9247L556.91 51.6028L644.747 75.1385L643.795 46.2296L558.794 23.4537L556.246 24.9247Z" fill="#82AAB5"/>
<path d="M590.056 33.9922L551.505 33.9922L551.505 72.5428L590.056 72.5428L590.056 33.9922Z" fill="white"/>
<path d="M580.665 40.9114L560.896 40.9114L560.896 65.6233L580.665 65.6233L580.665 40.9114Z" fill="#06566A" fill-opacity="0.25"/>
<path fill-rule="evenodd" clip-rule="evenodd" d="M565.801 46.2003C566.6 46.2005 567.247 45.5695 567.247 44.7917C567.247 44.0136 566.6 43.3832 565.801 43.3831C565.003 43.3831 564.356 44.014 564.355 44.7917C564.356 45.5695 565.003 46.2003 565.801 46.2003ZM572.028 45.5744L577.042 52.7737L570.624 52.7736L567.013 52.7736L564.355 52.7738L567.49 48.3915L568.794 50.2157L572.028 45.5744Z" fill="#06566A"/>
<path d="M578.194 55.2446L563.367 55.2446L563.367 57.2216L578.194 57.2216L578.194 55.2446Z" fill="#06566A"/>
<path d="M578.195 58.2097L563.368 58.2097L563.368 60.1867L578.195 60.1867L578.195 58.2097Z" fill="#06566A"/>
<path d="M574.24 61.1753L563.367 61.1753L563.367 63.1522L574.24 63.1522L574.24 61.1753Z" fill="#06566A"/>
<path fill-rule="evenodd" clip-rule="evenodd" d="M551.011 33.4983L590.55 33.4983L590.55 73.0374L551.011 73.0374L551.011 33.4983ZM552 34.4868L552 72.0489L589.562 72.0489L589.562 34.4868L552 34.4868Z" fill="#06566A"/>
<path d="M629.31 44.9071L592.073 34.9294L582.096 72.1665L619.333 82.1441L629.31 44.9071Z" fill="white"/>
<path d="M604.766 42.9352L599.992 41.656L599.609 43.0882L604.383 44.3674L604.766 42.9352Z" fill="#06566A"/>
<path d="M610.496 44.4708L605.722 43.1917L605.338 44.6238L610.112 45.903L610.496 44.4708Z" fill="#06566A"/>
<path d="M613.675 47.881L599.353 44.0435L598.585 46.9078L612.907 50.7454L613.675 47.881Z" fill="#06566A"/>
<path d="M617.041 54.4124L597.945 49.2957L594.108 63.6176L613.204 68.7343L617.041 54.4124Z" fill="#06566A"/>
<path d="M612.564 71.1209L593.468 66.0042L593.021 67.675L612.117 72.7918L612.564 71.1209Z" fill="#06566A" fill-opacity="0.25"/>
<path d="M611.861 73.7464L592.765 68.6296L592.317 70.3005L611.413 75.4173L611.861 73.7464Z" fill="#06566A" fill-opacity="0.25"/>
<path fill-rule="evenodd" clip-rule="evenodd" d="M591.724 34.3245L629.915 44.5579L619.682 82.7498L581.49 72.5163L591.724 34.3245ZM592.422 35.5351L582.701 71.8174L618.983 81.5392L628.705 45.2569L592.422 35.5351Z" fill="#06566A"/>
<path d="M657.869 61.9816L624.483 42.7063L605.207 76.0921L638.593 95.3675L657.869 61.9816Z" fill="white"/>
<path d="M648.086 70.0301L622.405 55.2029L614.991 68.0436L640.672 82.8708L648.086 70.0301Z" fill="#06566A"/>
<path fill-rule="evenodd" clip-rule="evenodd" d="M624.302 42.0303L658.544 61.7998L638.774 96.0417L604.533 76.2722L624.302 42.0303ZM624.664 43.3806L605.883 75.9104L638.413 94.6915L657.194 62.1617L624.664 43.3806Z" fill="#06566A"/>
<path d="M550.852 55.0964L650.151 81.7035L641.005 115.837L634.044 119.856L545.009 95.9997C542.373 95.2933 540.808 92.5832 541.514 89.9465L550.852 55.0964Z" fill="#387888"/>
<path opacity="0.1" d="M550.852 55.0964L561.833 58.0386L650.151 81.7035L649 86.0001L560.681 62.3351L553.844 69.7131L541.811 88.8413L544.097 80.3093L550.852 55.0964Z" fill="black"/>
<path d="M550.222 49.811L651.171 76.8604L652.956 78.8736L651.805 83.1702L549.403 55.7317L548.942 54.585L550.222 49.811Z" fill="#518997"/>
<path d="M550.222 49.811L651.171 76.8604L652.956 78.8736L551.078 52.3431L549.403 55.7317L548.942 54.585L550.222 49.811Z" fill="#387888"/>
<path d="M582.941 57.5547L587.237 58.706L588.571 61.3659L585.949 71.1526L579.743 69.4896L582.941 57.5547Z" fill="#CDDDE1"/>
<path d="M582.941 57.5547L587.237 58.706L583.303 60.9776L580.936 69.8094L579.743 69.4896L582.941 57.5547Z" fill="#B4CCD2"/>
<path d="M614.926 66.125L619.223 67.2763L620.557 69.9362L617.934 79.7229L611.728 78.06L614.926 66.125Z" fill="#CDDDE1"/>
<path d="M614.926 66.125L619.223 67.2763L615.288 69.5479L612.922 78.3798L611.728 78.06L614.926 66.125Z" fill="#B4CCD2"/>
</g>
<g opacity="0.2">
<path d="M165.724 65.9918L31.6049 33.2823L25.7979 44.5145L26.766 53.1234L175.873 89.4882L179.605 74.1872L165.724 65.9918Z" fill="#9BBBC3"/>
<path d="M160.076 79.756L153.673 68.2184M32.4252 36.332L38.2943 50.0555L32.4252 36.332ZM55.0766 56.8206L49.8225 40.575L55.0766 56.8206ZM66.6867 47.0038L73.0891 58.5414L66.6867 47.0038ZM90.4864 62.7843L84.6171 49.0608L90.4864 62.7843ZM101.481 55.4896L107.351 69.2131L101.481 55.4896ZM124.666 73.7923L119.412 57.5467L124.666 73.7923ZM136.276 63.9755L142.063 78.0352L136.276 63.9755Z" stroke="#82AAB5" stroke-width="5"/>
<path d="M29.7473 52.4254L176.705 88.266L177.46 95.3979L172.162 101.053L26.5487 65.5408L25.1665 58.7905L29.7473 52.4254Z" fill="#387888"/>
<path d="M34.919 61.1686L35.7392 57.8057L38.7658 58.5438L40.8041 62.6039L37.2895 64.5969L34.919 61.1686Z" fill="#9BBBC3"/>
<path d="M98.309 76.6288L99.1292 73.2659L102.156 74.004L104.194 78.0641L100.68 80.0572L98.309 76.6288Z" fill="#9BBBC3"/>
<path d="M61.986 67.0578L60.6531 68.8704L58.1395 69.6824L56.4374 65.7046L59.6157 63.6293L61.986 67.0578Z" fill="#9BBBC3"/>
<path d="M146.395 87.6433L145.062 89.4559L142.548 90.2679L140.846 86.29L144.024 84.2147L146.395 87.6433Z" fill="#9BBBC3"/>
<path d="M77.4554 70.83L77.8042 73.0527L80.6255 74.6316L83.0043 72.1833L80.3837 69.05L77.4554 70.83Z" fill="#9BBBC3"/>
<path d="M119.828 81.164L120.176 83.3867L122.998 84.9656L125.376 82.5173L122.756 79.384L119.828 81.164Z" fill="#9BBBC3"/>
<path d="M160.843 41.998L130.295 37.573L124.773 64.0573L153.994 71.5401L160.843 41.998Z" fill="#ECFF00"/>
<path d="M160.843 41.998L130.295 37.573L124.773 64.0573L132.059 41.9536L160.843 41.998Z" fill="#06566A" fill-opacity="0.2"/>
<path d="M161.534 43.8915L128.43 37.1426L130.578 29.781L161.963 35.8583L161.534 43.8915Z" fill="#ECFF00"/>
<path d="M161.534 43.8915L128.43 37.1426L130.578 29.781L161.963 35.8583L161.534 43.8915Z" fill="#06566A" fill-opacity="0.3"/>
<path d="M128.429 37.1425L130.578 29.7808L136.624 30.9515L133.738 31.51L130.687 34.5282L131.051 37.7817L128.429 37.1425Z" fill="#06566A" fill-opacity="0.3"/>
<path d="M86.4814 25.9123L82.5867 24.9622L80.8614 32.4765L84.6549 33.4017L84.5187 28.6202L86.4814 25.9123Z" fill="#06566A" fill-opacity="0.3"/>
<path d="M112.958 36.7341L82.4107 32.3092L76.7247 59.4659L106.688 66.3803L112.958 36.7341Z" fill="#ECFF00"/>
<path d="M85.8866 30.1317L82.4107 32.3092L76.7247 59.4659L83.1321 42.9091L83.1923 35.2455L103.766 37.5173L85.8866 30.1317Z" fill="#06566A" fill-opacity="0.2"/>
<path d="M115.57 32.2794L82.5861 24.9643L80.8608 32.4787L113.364 39.9554L115.57 32.2794Z" fill="#ECFF00"/>
<path d="M115.57 32.2794L82.5861 24.9643L80.8608 32.4787L113.364 39.9554L115.57 32.2794Z" fill="#06566A" fill-opacity="0.3"/>
<path d="M68.9622 21.3713L37.9058 16.1097L32.3838 42.594L61.3508 49.6585L68.9622 21.3713Z" fill="#ECFF00"/>
<path d="M45.855 18.0485L37.9058 16.1099L32.3838 42.5941L35.2144 43.2844L38.709 20.0551L44.4655 18.999L45.855 18.0485Z" fill="#06566A" fill-opacity="0.2"/>
<path d="M35.9597 15.9951L69.6706 23.8603L71.2699 17.3027L69.8346 15.8838L38.5596 8.25631L35.9597 15.9951Z" fill="#ECFF00"/>
<path d="M35.9597 15.9951L69.6706 23.8603L71.2699 17.3027L69.8346 15.8838L38.5596 8.25631L35.9597 15.9951Z" fill="#06566A" fill-opacity="0.3"/>
<path d="M35.9285 16.0285L37.0212 16.295L39.948 10.2277L69.8032 15.9172L38.5284 8.28976L35.9285 16.0285Z" fill="#06566A" fill-opacity="0.3"/>
</g>
<path opacity="0.2" d="M593.876 423.619L595.296 430.478L584.097 448.554L559.087 455.734L507 430.65L516.313 406.902L542.976 399L593.876 423.619Z" fill="#065669" fill-opacity="0.2"/>
<g opacity="0.2">
<path d="M440.839 408.259L486.045 436.452L496.679 462.682L496.411 463.048L496.862 464.16L475.106 493.812L437.693 494.821L409.97 468.844L410.034 467.598L409.787 467.366L410.106 461.169L422.44 456.17L426.751 442.47L418.398 432.258L407.9 427.816L407.717 426.338L413.656 416.043L440.839 408.259Z" fill="#387888"/>
<path d="M486.045 436.452L440.839 408.259L413.656 416.043L407.717 426.338L418.215 430.78L427.036 441.564L422.44 456.17L410.106 461.169L409.787 467.366L437.509 493.343L474.922 492.335L496.679 462.682L486.045 436.452Z" fill="#518997"/>
<path opacity="0.5" d="M486.045 436.452L440.839 408.259L413.656 416.043L407.717 426.338L418.215 430.78L427.036 441.564L422.44 456.17L410.106 461.169L409.787 467.366L422.778 469.386L435.062 456.522L429.898 431.992L443.768 417.98L486.045 436.452Z" fill="#387888"/>
<path d="M441.612 427.11L442.758 433.927L435.809 436.743L432.852 429.448L438.579 426.114L441.612 427.11Z" fill="#ECFF00"/>
<path d="M457.509 425.486L450.619 426.04L449.584 433.466L457.381 434.553L459.215 428.184L457.509 425.486Z" fill="#ECFF00"/>
<path d="M457.509 425.486L450.619 426.04L449.584 433.466L457.381 434.553L459.215 428.184L457.509 425.486Z" fill="#06566A" fill-opacity="0.3"/>
<path d="M473.688 439.278L468.819 444.184L462.478 440.183L466.68 433.525L472.728 436.234L473.688 439.278Z" fill="#ECFF00"/>
<path d="M473.688 439.278L468.819 444.184L462.478 440.183L466.68 433.525L472.728 436.234L473.688 439.278Z" fill="#06566A" fill-opacity="0.5"/>
<path d="M474.884 451.45L481.202 454.256L479.717 461.605L472.001 460.047L472.381 453.431L474.884 451.45Z" fill="#ECFF00"/>
<path d="M474.884 451.45L481.202 454.256L479.717 461.605L472.001 460.047L472.381 453.431L474.884 451.45Z" fill="#06566A" fill-opacity="0.6"/>
<path d="M464.294 474.15L470.336 470.791L475.314 476.397L469.427 481.625L464.371 477.341L464.294 474.15Z" fill="#ECFF00"/>
<path d="M464.294 474.15L470.336 470.791L475.314 476.397L469.427 481.625L464.371 477.341L464.294 474.15Z" fill="#06566A" fill-opacity="0.7"/>
<path d="M429.659 446.523L423.153 455.924L440.664 475.365L449.699 466.131L444.164 457.639L437.715 454.404L435.52 449.18L429.659 446.523Z" fill="#ECFF00"/>
<path d="M429.928 453.323L424.545 458.825M436.177 455.977L431.358 459.722L429.457 463.63M440.905 461.757L437.252 465.489L433.386 467.475M444.253 465.802L437.922 473.452" stroke="#06566A" stroke-opacity="0.2" stroke-width="2"/>
<path d="M409.305 479.794L420.878 471.081L424.966 475.081L410.38 487.651L405.903 483.27L409.305 479.794Z" fill="#82AAB5"/>
<path d="M413.123 482.593L423.59 474.01L424.966 475.082L410.38 487.652L408.781 486.088L411.03 485.279L413.123 482.593Z" fill="#6A9AA6"/>
<path d="M432.948 482.891L424.966 475.082L420.878 471.082L414.804 462.492L422.363 454.766L443.582 475.528L432.948 482.891Z" fill="#B4CCD2"/>
<path d="M432.948 482.89L424.966 475.081L420.878 471.081L414.804 462.491L422.363 454.765L423.394 455.568L417.791 462.756L432.948 482.89Z" fill="#06566A" fill-opacity="0.1"/>
<path d="M451.395 461.268L431.835 497.601L433.758 499.1L455.081 464.141L451.395 461.268Z" fill="#B4CCD2"/>
<path d="M455.081 464.141L452.131 465.776L433.92 497.45L431.835 497.601L433.758 499.1L455.081 464.141Z" fill="#9BBBC3"/>
<path d="M450.839 461.089L455.919 464.099L454.688 466.497L453.113 466.219L450.235 464.547L449.427 463.347L450.839 461.089Z" fill="white"/>
<path d="M454.298 463.689L455.919 464.099L454.688 466.496L453.112 466.219L453.573 465.628L453.774 464.36L454.298 463.689Z" fill="#E6EEF0"/>
<path d="M451.953 457.87L451.274 461.871L455.081 464.141L457.59 462.263L456.943 458.622L459.117 454.044L457.526 453.85L451.953 457.87Z" fill="#ECFF00"/>
</g>
</g>
<defs>
<clipPath id="clip0_864_3118">
<rect width="998" height="500" fill="white"/>
</clipPath>
</defs>
</svg>
