<svg width="1000" height="607" viewBox="0 0 1000 607" fill="none" xmlns="http://www.w3.org/2000/svg">
<g clip-path="url(#clip0_864_3118)">
<path opacity="0.56" d="M956.079 525.42L981.951 556.286L937.207 593.792L898.325 584.829L873.962 536.809L881.038 509.285L956.079 525.42Z" fill="#ECFF00" fill-opacity="0.4"/>
<path d="M944.626 275.648L950.447 277.982L989.18 261.418L999.915 234.642L995.556 224.449L944.591 246.244L938.523 261.378L944.626 275.648Z" fill="#06708A"/>
<path d="M931.644 271.795L899.63 258.96L886.903 227.508L899.602 221.113L912.698 226.363L938.983 268.656L931.644 271.795Z" fill="#06708A"/>
<path d="M958.213 285.994L923.58 272.109L864.751 297.508L833.247 376.088L843.186 399.328L910.125 426.165L933.365 416.227L972.336 319.02L958.213 285.994Z" fill="#ECFF00"/>
<circle cx="880.39" cy="401.745" r="1.56779" transform="rotate(21.8465 880.39 401.745)" fill="white"/>
<circle cx="904.239" cy="358.269" r="1.25423" transform="rotate(21.8465 904.239 358.269)" fill="white"/>
<circle cx="888.651" cy="336.48" r="1.88135" transform="rotate(21.8465 888.651 336.48)" fill="white"/>
<circle cx="892.922" cy="384.811" r="1.25423" transform="rotate(21.8465 892.922 384.811)" fill="white"/>
<circle cx="886.999" cy="364.194" r="1.25423" transform="rotate(21.8465 886.999 364.194)" fill="white"/>
<circle cx="896.999" cy="383.067" r="1.25423" transform="rotate(21.8465 896.999 383.067)" fill="white"/>
<path d="M906.052 274.541L863.649 292.674L830.394 375.62L844.111 407.131L893.639 436.109L920.723 425.009L968.144 319.365L956.171 291.931L906.052 274.541Z" stroke="#065669" stroke-opacity="0.4" stroke-width="2"/>
<circle cx="877.442" cy="374.551" r="1.88135" transform="rotate(21.8465 877.442 374.551)" fill="white"/>
<circle cx="865.844" cy="389.156" r="1.56779" transform="rotate(21.8465 865.844 389.156)" fill="white"/>
<circle cx="895.846" cy="369.092" r="1.88135" transform="rotate(21.8465 895.846 369.092)" fill="white"/>
<circle cx="900.159" cy="363.39" r="1.88135" transform="rotate(21.8465 900.159 363.39)" fill="white"/>
<circle cx="895.972" cy="356.981" r="2.50846" transform="rotate(21.8465 895.972 356.981)" fill="white"/>
<g opacity="0.5">
<path d="M619.273 593.894L639.888 589.783L637.262 604.9L626.412 607.064L621.266 603.889L619.273 593.894Z" fill="#B4CCD2"/>
<path d="M619.273 593.894L622.581 593.234L624.328 601.997L628.402 606.667L626.412 607.064L621.266 603.889L619.273 593.894Z" fill="#9BBBC3"/>
<path d="M663.422 585.018L681.812 581.351L684.627 595.464L672.865 597.81L668.938 594.841L663.422 585.018Z" fill="#B4CCD2"/>
<path d="M663.422 585.018L668.267 584.052L672.145 594.201L675.294 597.325L672.865 597.81L668.938 594.841L663.422 585.018Z" fill="#9BBBC3"/>
<path d="M601.908 544.145L672.731 530.021L687.153 535.662L695.097 575.501L690.906 581.983L612.569 597.605L601.908 544.145Z" fill="#387888"/>
<path d="M599.343 542.433L670.166 528.309L684.588 533.951L692.533 573.789L688.341 580.271L610.004 595.893L599.343 542.433Z" fill="#518997"/>
<path d="M599.343 542.433L670.47 528.249L653.615 533.023L606.009 544.04L614.118 584.703L611.186 588.144L609.385 592.789L599.343 542.433Z" fill="#387888"/>
<path d="M662.013 541.718L598.182 554.448L604.155 584.403L604.408 585.672L606.971 587.38L608.864 587.003L676.471 573.521L671.076 546.47L662.013 541.718Z" fill="#82AAB5"/>
<path d="M598.182 554.448L661.799 541.761L668.853 546.469L673.906 571.809L606.331 585.285L604.082 584.037L598.182 554.448Z" fill="#6A9AA6"/>
<path d="M606.959 536.021L619.789 533.463L620.728 538.167L607.897 540.726L606.959 536.021Z" fill="#B4CCD2"/>
<path d="M606.959 536.021L619.789 533.463L608.688 536.935L609.385 540.429L607.897 540.726L606.959 536.021Z" fill="#9BBBC3"/>
<path d="M604.398 527.638L621.291 524.27L622.997 532.823L603.751 536.661L602.557 530.674L604.398 527.638Z" fill="#9BBBC3"/>
<path d="M604.398 527.638L621.291 524.27L605.249 529.241L604.369 531.511L603.751 536.661L602.557 530.674L604.398 527.638Z" fill="#82AAB5"/>
<path d="M623.906 560.026L652.596 554.305L659.021 558.407L660.054 563.584L625.971 570.38L623.906 560.026Z" fill="#518997"/>
<path d="M622.807 559.292L651.498 553.571L657.923 557.672L658.955 562.85L624.872 569.646L622.807 559.292Z" fill="#1F6779"/>
<path d="M634.864 560.757L652.173 557.306L652.08 561.133L636.144 564.311L634.864 560.757Z" fill="#ECFF00"/>
<path d="M634.864 560.757L652.173 557.306L652.08 561.133L636.144 564.311L634.864 560.757Z" fill="#06566A" fill-opacity="0.3"/>
<path d="M629.919 561.744L646.312 558.475L646.218 562.302L631.199 565.297L629.919 561.744Z" fill="#ECFF00"/>
<path d="M615.547 558.878L611.339 559.717L609.876 561.931L610.712 566.123L611.59 566.709L617.63 565.505L616.426 559.465L615.547 558.878Z" fill="#518997"/>
<path d="M611.339 559.717L615.547 558.878L616.752 564.918L610.712 566.123L609.876 561.931L611.339 559.717Z" fill="#1F6779"/>
<path d="M617.268 567.507L611.228 568.712L612.432 574.752L613.311 575.338L617.613 574.48L619.023 572.487L618.147 568.094L617.268 567.507Z" fill="#518997"/>
<path d="M611.228 568.712L617.268 567.507L618.144 571.9L616.735 573.894L612.432 574.752L611.228 568.712Z" fill="#1F6779"/>
<path d="M658.18 513.04L652.662 510.432L649.865 521.47L653.524 522.031L651.845 529.782L658.425 518.312L654.332 518.806L658.18 513.04Z" fill="#ECFF00"/>
<path d="M631.196 515.129L626.178 518.604L634.339 526.546L636.653 523.657L642.527 528.987L635.884 517.553L634.265 521.345L631.196 515.129Z" fill="#ECFF00"/>
</g>
<path opacity="0.2" d="M34.4157 375.729L29.3546 367.968L34.4157 340.301L61.7457 319.382L138 325.118V358.858L108.983 381.465L34.4157 375.729Z" fill="#065669" fill-opacity="0.2"/>
<path opacity="0.4" d="M0 275.856V232.331H63.0953L89.0758 266.746L75.9168 323.431L50.9486 341.313L0 275.856Z" fill="#ECFF00" fill-opacity="0.4"/>
<g opacity="0.4">
<path d="M19.4255 536.191L79.3579 552.25L80.4304 553.338L81.0962 573.86L18.0252 556.96L17.4433 539.024L18.4134 536.961L19.4255 536.191Z" fill="#518997"/>
<path d="M20.0233 536.351L79.3579 552.249L80.4304 553.338L81.0962 573.86L20.7154 557.681L20.0233 536.351Z" fill="#1F6779"/>
<path fill-rule="evenodd" clip-rule="evenodd" d="M24.4874 542.099L24.9034 558.803L79.9007 573.54L79.3044 555.439L26.0826 541.178L24.4874 542.099Z" fill="#82AAB5"/>
<path d="M45.6569 547.777L21.5191 547.777L21.5191 571.914L45.6569 571.914L45.6569 547.777Z" fill="white"/>
<path d="M39.7772 552.109L27.3988 552.109L27.3988 567.582L39.7772 567.582L39.7772 552.109Z" fill="#06566A" fill-opacity="0.25"/>
<path fill-rule="evenodd" clip-rule="evenodd" d="M30.4701 555.421C30.9702 555.421 31.3753 555.026 31.3754 554.539C31.3755 554.051 30.9703 553.657 30.4702 553.657C29.9704 553.657 29.565 554.052 29.5649 554.539C29.5651 555.026 29.9703 555.421 30.4701 555.421ZM34.3687 555.029L37.5087 559.536L33.4899 559.536L31.229 559.536L29.5649 559.536L31.5275 556.792L32.3444 557.935L34.3687 555.029Z" fill="#06566A"/>
<path d="M38.23 561.083L28.9462 561.083L28.9462 562.321L38.23 562.321L38.23 561.083Z" fill="#06566A"/>
<path d="M38.2304 562.94L28.9466 562.94L28.9466 564.178L38.2304 564.178L38.2304 562.94Z" fill="#06566A"/>
<path d="M35.7543 564.797L28.9462 564.797L28.9462 566.035L35.7543 566.035L35.7543 564.797Z" fill="#06566A"/>
<path fill-rule="evenodd" clip-rule="evenodd" d="M21.2097 547.467L45.9664 547.467L45.9664 572.224L21.2097 572.224L21.2097 547.467ZM21.8286 548.086L21.8286 571.605L45.3475 571.605L45.3475 548.086L21.8286 548.086Z" fill="#06566A"/>
<path d="M70.2354 554.611L46.92 548.364L40.6727 571.679L63.9881 577.926L70.2354 554.611Z" fill="white"/>
<path d="M54.8675 553.376L51.8784 552.575L51.6381 553.472L54.6273 554.273L54.8675 553.376Z" fill="#06566A"/>
<path d="M58.4548 554.338L55.4656 553.537L55.2254 554.434L58.2145 555.235L58.4548 554.338Z" fill="#06566A"/>
<path d="M60.4453 556.473L51.4779 554.07L50.9973 555.864L59.9648 558.266L60.4453 556.473Z" fill="#06566A"/>
<path d="M62.5533 560.562L50.5967 557.359L48.1939 566.326L60.1505 569.53L62.5533 560.562Z" fill="#06566A"/>
<path d="M59.7501 571.024L47.7935 567.821L47.5132 568.867L59.4698 572.071L59.7501 571.024Z" fill="#06566A" fill-opacity="0.25"/>
<path d="M59.3096 572.668L47.353 569.464L47.0726 570.511L59.0292 573.714L59.3096 572.668Z" fill="#06566A" fill-opacity="0.25"/>
<path fill-rule="evenodd" clip-rule="evenodd" d="M46.701 547.985L70.6142 554.392L64.2067 578.305L40.2935 571.898L46.701 547.985ZM47.1386 548.743L41.0515 571.46L63.769 577.547L69.8562 554.83L47.1386 548.743Z" fill="#06566A"/>
<path d="M88.1166 565.302L67.2127 553.233L55.1438 574.137L76.0477 586.206L88.1166 565.302Z" fill="white"/>
<path d="M81.9915 570.341L65.9115 561.057L61.2696 569.097L77.3496 578.381L81.9915 570.341Z" fill="#06566A"/>
<path fill-rule="evenodd" clip-rule="evenodd" d="M67.0996 552.81L88.5395 565.188L76.1612 586.628L54.7212 574.25L67.0996 552.81ZM67.3261 553.655L55.5666 574.023L75.9346 585.782L87.6941 565.414L67.3261 553.655Z" fill="#06566A"/>
<path d="M21.1103 560.991L83.2845 577.65L77.5578 599.023L73.1992 601.539L17.4516 586.602C15.801 586.159 14.8211 584.462 15.2634 582.811L21.1103 560.991Z" fill="#387888"/>
<path opacity="0.1" d="M21.1103 560.991L27.9853 562.833L83.2845 577.65L82.5637 580.34L27.2645 565.523L22.9831 570.143L15.4489 582.119L16.8803 576.777L21.1103 560.991Z" fill="black"/>
<path d="M20.7153 557.681L83.9233 574.618L85.0406 575.878L84.3198 578.569L20.2026 561.389L19.9144 560.671L20.7153 557.681Z" fill="#518997"/>
<path d="M20.7153 557.681L83.9233 574.618L85.0406 575.878L21.2517 559.267L20.2026 561.389L19.9144 560.671L20.7153 557.681Z" fill="#387888"/>
<path d="M41.2019 562.53L43.8921 563.251L44.7274 564.916L43.0854 571.044L39.1995 570.003L41.2019 562.53Z" fill="#CDDDE1"/>
<path d="M41.2019 562.53L43.8921 563.251L41.4286 564.673L39.9468 570.203L39.1995 570.003L41.2019 562.53Z" fill="#B4CCD2"/>
<path d="M61.229 567.896L63.9192 568.617L64.7545 570.282L63.1125 576.41L59.2266 575.369L61.229 567.896Z" fill="#CDDDE1"/>
<path d="M61.229 567.896L63.9192 568.617L61.4557 570.039L59.9739 575.569L59.2266 575.369L61.229 567.896Z" fill="#B4CCD2"/>
</g>
<g opacity="0.6">
<path d="M150.665 28.0113L15.9962 38.8691L14.0554 51.0907L17.6025 58.7915L167.321 46.7203L166.082 31.3566L150.665 28.0113Z" fill="#9BBBC3"/>
<path d="M149.65 42.5366L140.154 33.7861M17.6964 41.4502L27.3699 52.3955L17.6964 41.4502ZM45.0428 53.5196L35.165 40.0418L45.0428 53.5196ZM52.8105 40.8282L62.3072 49.5787L52.8105 40.8282ZM79.7758 48.1703L70.1021 37.2249L79.7758 48.1703ZM87.7477 38.0114L97.4214 48.9567L87.7477 38.0114ZM114.917 47.8859L105.04 34.4081L114.917 47.8859ZM122.685 35.1945L132.386 46.4775L122.685 35.1945Z" stroke="#82AAB5" stroke-width="5"/>
<path d="M20.1578 57.2256L167.718 45.3285L170.613 51.7224L167.429 58.6065L21.2196 70.3947L17.8594 64.5482L20.1578 57.2256Z" fill="#387888"/>
<path d="M27.6518 63.7588L27.3795 60.3821L30.4185 60.1371L33.5609 63.2824L30.9085 66.215L27.6518 63.7588Z" fill="#9BBBC3"/>
<path d="M91.3016 58.6272L91.0294 55.2505L94.0685 55.0055L97.2109 58.1508L94.5585 61.0834L91.3016 58.6272Z" fill="#9BBBC3"/>
<path d="M54.6107 60.9061L53.9298 63L51.8441 64.5276L49.0393 61.3553L51.354 58.4496L54.6107 60.9061Z" fill="#9BBBC3"/>
<path d="M139.365 54.0723L138.684 56.1663L136.598 57.6938L133.793 54.5215L136.108 51.6159L139.365 54.0723Z" fill="#9BBBC3"/>
<path d="M70.1433 59.6534L71.1509 61.6112L74.2578 62.2104L75.7149 59.2042L72.3165 57.099L70.1433 59.6534Z" fill="#9BBBC3"/>
<path d="M112.689 56.2229L113.697 58.1808L116.804 58.78L118.261 55.7737L114.862 53.6685L112.689 56.2229Z" fill="#9BBBC3"/>
<path d="M138.75 7.22007L109.008 12.5037L112.023 38.8083L141.473 36.7737L138.75 7.22007Z" fill="#ECFF00"/>
<path d="M138.75 7.22007L109.008 12.5037L112.023 38.8083L111.995 16.031L138.75 7.22007Z" fill="#06566A" fill-opacity="0.2"/>
<path d="M139.975 8.76665L107.142 12.6775L106.874 5.17719L137.904 1.17104L139.975 8.76665Z" fill="#ECFF00"/>
<path d="M139.975 8.76665L107.142 12.6775L106.874 5.17719L137.904 1.17104L139.975 8.76665Z" fill="#06566A" fill-opacity="0.3"/>
<path d="M107.142 12.6775L106.874 5.17724L112.851 4.4055L110.342 5.81182L108.435 9.55447L109.774 12.4653L107.142 12.6775Z" fill="#06566A" fill-opacity="0.3"/>
<path d="M64.715 15.1442L60.8042 15.4592L61.5123 22.9714L65.3213 22.6642L63.7242 18.2637L64.715 15.1442Z" fill="#06566A" fill-opacity="0.3"/>
<path d="M92.6427 17.0558L62.9002 22.3394L65.9694 49.3192L95.9342 46.5284L92.6427 17.0558Z" fill="#ECFF00"/>
<path d="M65.46 19.2474L62.9002 22.3394L65.9694 49.3192L66.8305 31.9658L64.5295 24.8271L84.3427 20.6106L65.46 19.2474Z" fill="#06566A" fill-opacity="0.2"/>
<path d="M93.6991 12.1141L60.8043 15.4617L61.5124 22.9739L94.0102 19.9243L93.6991 12.1141Z" fill="#ECFF00"/>
<path d="M93.6991 12.1141L60.8043 15.4617L61.5124 22.9739L94.0102 19.9243L93.6991 12.1141Z" fill="#06566A" fill-opacity="0.3"/>
<path d="M47.0416 16.3133L16.5692 20.9761L19.5839 47.2806L48.6696 44.9356L47.0416 16.3133Z" fill="#ECFF00"/>
<path d="M24.5508 20.333L16.5691 20.9766L19.5838 47.2811L22.426 47.052L18.5287 24.3951L23.5522 21.6434L24.5508 20.333Z" fill="#06566A" fill-opacity="0.2"/>
<path d="M14.7259 21.4681L48.4654 18.408L47.9345 11.8235L46.1646 10.9466L14.7615 13.4785L14.7259 21.4681Z" fill="#ECFF00"/>
<path d="M14.7259 21.4681L48.4654 18.408L47.9345 11.8235L46.1646 10.9466L14.7615 13.4785L14.7259 21.4681Z" fill="#06566A" fill-opacity="0.3"/>
<path d="M14.7071 21.5089L15.8042 21.4204L16.6575 14.8833L46.1455 10.9874L14.7426 13.5193L14.7071 21.5089Z" fill="#06566A" fill-opacity="0.3"/>
</g>
<g opacity="0.7">
<path d="M740.791 7.72962L803.948 47.1179L818.803 83.7637L818.429 84.2738L819.059 85.8284L788.664 127.255L736.395 128.664L697.664 92.3724L697.753 90.6316L697.408 90.3077L697.854 81.6497L715.085 74.6646L721.108 55.5244L709.438 41.2577L694.772 35.0525L694.516 32.9879L702.814 18.604L740.791 7.72962Z" fill="#387888"/>
<path d="M803.948 47.1179L740.791 7.72963L702.814 18.604L694.516 32.9879L709.182 39.193L721.506 54.2594L715.085 74.6646L697.854 81.6497L697.408 90.3077L736.139 126.6L788.408 125.19L818.803 83.7637L803.948 47.1179Z" fill="#518997"/>
<path opacity="0.5" d="M803.948 47.1179L740.791 7.72963L702.814 18.604L694.516 32.9879L709.182 39.193L721.506 54.2594L715.085 74.6646L697.854 81.6497L697.408 90.3077L715.557 93.1297L732.72 75.1567L725.505 40.886L744.883 21.31L803.948 47.1179Z" fill="#387888"/>
<path d="M741.871 34.0656L743.471 43.5894L733.764 47.5247L729.631 37.3318L737.634 32.675L741.871 34.0656Z" fill="#ECFF00"/>
<path d="M764.08 31.7975L754.453 32.5713L753.008 42.9459L763.901 44.4639L766.463 35.5668L764.08 31.7975Z" fill="#ECFF00"/>
<path d="M786.684 51.0657L779.881 57.9201L771.023 52.3298L776.892 43.0285L785.342 46.8128L786.684 51.0657Z" fill="#ECFF00"/>
<path d="M788.355 68.0717L797.181 71.9915L795.107 82.259L784.326 80.0817L784.857 70.8384L788.355 68.0717Z" fill="#ECFF00"/>
<path d="M773.56 99.7849L782 95.0921L788.955 102.925L780.731 110.227L773.666 104.243L773.56 99.7849Z" fill="#ECFF00"/>
<path d="M725.172 61.1871L716.081 74.3209L740.546 101.482L753.169 88.5817L745.436 76.7172L736.425 72.1987L733.359 64.8999L725.172 61.1871Z" fill="#ECFF00"/>
<path d="M725.546 70.6884L718.026 78.3739M734.277 74.3952L727.545 79.6282L724.888 85.0883M740.882 82.4702L735.779 87.6854L730.378 90.4598M745.56 88.1221L736.715 98.8092" stroke="#06566A" stroke-opacity="0.2" stroke-width="2"/>
<path d="M696.734 107.67L712.903 95.4978L718.614 101.086L698.237 118.647L691.982 112.527L696.734 107.67Z" fill="#82AAB5"/>
<path d="M702.069 111.581L716.692 99.5896L718.614 101.087L698.236 118.649L696.002 116.463L699.145 115.333L702.069 111.581Z" fill="#6A9AA6"/>
<path d="M729.765 111.997L718.615 101.086L712.903 95.4981L704.417 83.4971L714.978 72.7039L744.622 101.71L729.765 111.997Z" fill="#B4CCD2"/>
<path d="M729.765 111.996L718.615 101.085L712.904 95.4969L704.417 83.4959L714.978 72.7026L716.418 73.8246L708.591 83.8665L729.765 111.996Z" fill="#06566A" fill-opacity="0.1"/>
<path d="M755.538 81.7878L728.211 132.548L730.897 134.642L760.687 85.8011L755.538 81.7878Z" fill="#B4CCD2"/>
<path d="M760.687 85.8011L756.566 88.0864L731.124 132.337L728.211 132.548L730.898 134.642L760.687 85.8011Z" fill="#9BBBC3"/>
<path d="M754.761 81.5376L761.859 85.7422L760.139 89.0924L757.938 88.7052L753.917 86.3683L752.789 84.6918L754.761 81.5376Z" fill="white"/>
<path d="M759.593 85.1701L761.858 85.7422L760.138 89.0924L757.937 88.7052L758.581 87.879L758.862 86.108L759.593 85.1701Z" fill="#E6EEF0"/>
<path d="M756.318 77.0403L755.369 82.6304L760.687 85.8019L764.193 83.1783L763.288 78.0915L766.326 71.6952L764.104 71.4235L756.318 77.0403Z" fill="#ECFF00"/>
</g>
</g>
<defs>
<clipPath id="clip0_864_3118">
<rect width="1000" height="607" fill="white"/>
</clipPath>
</defs>
</svg>
