<svg width="640" height="482" viewBox="0 0 640 482" fill="none" xmlns="http://www.w3.org/2000/svg">
<g clip-path="url(#clip0_2122_4730)">
<rect width="640" height="482" fill="white"/>
<path opacity="0.56" d="M595.868 424.589L611.802 443.599L584.245 466.697L560.299 461.178L545.294 431.603L549.652 414.652L595.868 424.589Z" fill="#ECFF00" fill-opacity="0.4"/>
<path d="M599.079 228.959L602.664 230.396L626.519 220.194L633.131 203.704L630.446 197.426L599.058 210.849L595.321 220.17L599.079 228.959Z" fill="#06708A"/>
<path d="M591.085 226.586L571.368 218.681L563.53 199.31L571.35 195.372L579.416 198.605L595.604 224.653L591.085 226.586Z" fill="#06708A"/>
<path d="M607.448 235.33L586.118 226.779L549.886 242.421L530.484 290.817L536.605 305.13L577.831 321.658L592.144 315.538L616.146 255.67L607.448 235.33Z" fill="#ECFF00"/>
<circle cx="559.518" cy="306.619" r="0.965563" transform="rotate(21.8465 559.518 306.619)" fill="white"/>
<circle cx="574.206" cy="279.843" r="0.772451" transform="rotate(21.8465 574.206 279.843)" fill="white"/>
<circle cx="564.606" cy="266.423" r="1.15868" transform="rotate(21.8465 564.606 266.423)" fill="white"/>
<circle cx="567.237" cy="296.189" r="0.772451" transform="rotate(21.8465 567.237 296.189)" fill="white"/>
<circle cx="563.589" cy="283.492" r="0.772451" transform="rotate(21.8465 563.589 283.492)" fill="white"/>
<circle cx="569.747" cy="295.116" r="0.772451" transform="rotate(21.8465 569.747 295.116)" fill="white"/>
<path d="M575.323 228.276L549.208 239.444L528.727 290.529L537.175 309.936L567.678 327.782L584.358 320.946L613.564 255.883L606.19 238.987L575.323 228.276Z" stroke="#065669" stroke-opacity="0.4" stroke-width="2"/>
<circle cx="557.703" cy="289.87" r="1.15868" transform="rotate(21.8465 557.703 289.87)" fill="white"/>
<circle cx="550.559" cy="298.865" r="0.965563" transform="rotate(21.8465 550.559 298.865)" fill="white"/>
<circle cx="569.037" cy="286.509" r="1.15868" transform="rotate(21.8465 569.037 286.509)" fill="white"/>
<circle cx="571.693" cy="282.996" r="1.15868" transform="rotate(21.8465 571.693 282.996)" fill="white"/>
<circle cx="569.115" cy="279.05" r="1.5449" transform="rotate(21.8465 569.115 279.05)" fill="white"/>
<g opacity="0.5">
<path d="M457.982 482.265L470.678 479.733L469.06 489.043L462.378 490.376L459.209 488.421L457.982 482.265Z" fill="#B4CCD2"/>
<path d="M457.982 482.265L460.019 481.859L461.095 487.255L463.604 490.132L462.378 490.376L459.209 488.421L457.982 482.265Z" fill="#9BBBC3"/>
<path d="M485.172 476.798L496.498 474.54L498.231 483.232L490.988 484.676L488.569 482.848L485.172 476.798Z" fill="#B4CCD2"/>
<path d="M485.172 476.798L488.156 476.203L490.545 482.454L492.484 484.378L490.988 484.676L488.569 482.848L485.172 476.798Z" fill="#9BBBC3"/>
<path d="M447.287 451.625L490.905 442.927L499.787 446.401L504.68 470.937L502.099 474.929L453.853 484.55L447.287 451.625Z" fill="#387888"/>
<path d="M445.707 450.571L489.326 441.873L498.208 445.347L503.1 469.882L500.519 473.875L452.273 483.496L445.707 450.571Z" fill="#518997"/>
<path d="M445.707 450.571L489.513 441.835L479.132 444.776L449.813 451.561L454.807 476.604L453.001 478.724L451.892 481.584L445.707 450.571Z" fill="#387888"/>
<path d="M484.304 450.131L444.992 457.97L448.671 476.42L448.827 477.201L450.405 478.253L451.571 478.021L493.208 469.717L489.886 453.057L484.304 450.131Z" fill="#82AAB5"/>
<path d="M444.992 457.97L484.173 450.157L488.517 453.057L491.629 468.663L450.011 476.962L448.626 476.194L444.992 457.97Z" fill="#6A9AA6"/>
<path d="M450.398 446.623L458.3 445.047L458.877 447.944L450.975 449.52L450.398 446.623Z" fill="#B4CCD2"/>
<path d="M450.398 446.623L458.3 445.047L451.462 447.185L451.892 449.337L450.975 449.52L450.398 446.623Z" fill="#9BBBC3"/>
<path d="M448.82 441.459L459.225 439.385L460.275 444.653L448.422 447.016L447.687 443.329L448.82 441.459Z" fill="#9BBBC3"/>
<path d="M448.82 441.459L459.225 439.385L449.344 442.446L448.802 443.844L448.422 447.016L447.687 443.329L448.82 441.459Z" fill="#82AAB5"/>
<path d="M460.835 461.406L478.505 457.883L482.462 460.409L483.098 463.598L462.107 467.783L460.835 461.406Z" fill="#518997"/>
<path d="M460.159 460.954L477.828 457.43L481.785 459.957L482.421 463.145L461.43 467.331L460.159 460.954Z" fill="#1F6779"/>
<path d="M467.584 461.857L478.244 459.731L478.186 462.088L468.372 464.045L467.584 461.857Z" fill="#ECFF00"/>
<path d="M467.584 461.857L478.244 459.731L478.186 462.088L468.372 464.045L467.584 461.857Z" fill="#06566A" fill-opacity="0.3"/>
<path d="M464.538 462.464L474.634 460.451L474.577 462.808L465.326 464.653L464.538 462.464Z" fill="#ECFF00"/>
<path d="M455.687 460.699L453.095 461.216L452.194 462.579L452.709 465.161L453.25 465.522L456.97 464.781L456.228 461.061L455.687 460.699Z" fill="#518997"/>
<path d="M453.095 461.216L455.687 460.699L456.429 464.419L452.709 465.161L452.194 462.579L453.095 461.216Z" fill="#1F6779"/>
<path d="M456.747 466.014L453.027 466.756L453.769 470.476L454.31 470.837L456.96 470.308L457.828 469.08L457.288 466.375L456.747 466.014Z" fill="#518997"/>
<path d="M453.027 466.756L456.747 466.014L457.286 468.719L456.418 469.947L453.769 470.476L453.027 466.756Z" fill="#1F6779"/>
<path d="M481.944 432.469L478.545 430.863L476.822 437.661L479.076 438.006L478.042 442.78L482.095 435.716L479.574 436.02L481.944 432.469Z" fill="#ECFF00"/>
<path d="M465.325 433.755L462.234 435.895L467.26 440.786L468.686 439.007L472.303 442.29L468.212 435.248L467.215 437.583L465.325 433.755Z" fill="#ECFF00"/>
</g>
<path opacity="0.2" d="M21.1958 245.794L18.0787 241.015L21.1958 223.975L38.0277 211.091L84.9908 214.624V235.404L67.1199 249.327L21.1958 245.794Z" fill="#065669" fill-opacity="0.2"/>
<path opacity="0.4" d="M0 184.285V157.479H38.8589L54.8596 178.675L46.7553 213.585L31.378 224.599L0 184.285Z" fill="#ECFF00" fill-opacity="0.4"/>
<g opacity="0.4">
<path d="M11.546 432.189L48.4569 442.079L49.1175 442.749L49.5275 455.388L10.6836 444.98L10.3252 433.933L10.9227 432.663L11.546 432.189Z" fill="#518997"/>
<path d="M11.9141 432.287L48.4568 442.078L49.1173 442.749L49.5274 455.388L12.3403 445.424L11.9141 432.287Z" fill="#1F6779"/>
<path fill-rule="evenodd" clip-rule="evenodd" d="M14.6635 435.827L14.9197 446.115L48.7912 455.191L48.4239 444.043L15.6459 435.26L14.6635 435.827Z" fill="#82AAB5"/>
<path d="M27.7012 439.324L12.8353 439.324L12.8353 454.19L27.7012 454.19L27.7012 439.324Z" fill="white"/>
<path d="M24.0801 441.992L16.4565 441.992L16.4565 451.521L24.0801 451.521L24.0801 441.992Z" fill="#06566A" fill-opacity="0.25"/>
<path fill-rule="evenodd" clip-rule="evenodd" d="M18.3481 444.031C18.6561 444.031 18.9056 443.788 18.9056 443.488C18.9057 443.188 18.6561 442.945 18.3481 442.945C18.0403 442.945 17.7907 443.188 17.7906 443.488C17.7907 443.788 18.0403 444.031 18.3481 444.031ZM20.7491 443.79L22.683 446.566L20.2079 446.566L18.8155 446.566L17.7906 446.566L18.9993 444.876L19.5024 445.58L20.7491 443.79Z" fill="#06566A"/>
<path d="M23.1272 447.519L17.4095 447.519L17.4095 448.282L23.1272 448.282L23.1272 447.519Z" fill="#06566A"/>
<path d="M23.1276 448.662L17.4099 448.662L17.4099 449.425L23.1276 449.425L23.1276 448.662Z" fill="#06566A"/>
<path d="M21.6025 449.806L17.4095 449.806L17.4095 450.569L21.6025 450.569L21.6025 449.806Z" fill="#06566A"/>
<path fill-rule="evenodd" clip-rule="evenodd" d="M12.6448 439.133L27.8918 439.133L27.8918 454.38L12.6448 454.38L12.6448 439.133ZM13.026 439.514L13.026 453.999L27.5107 453.999L27.5107 439.514L13.026 439.514Z" fill="#06566A"/>
<path d="M42.8386 443.533L28.4792 439.685L24.6317 454.045L38.991 457.892L42.8386 443.533Z" fill="white"/>
<path d="M33.3739 442.773L31.533 442.279L31.385 442.832L33.2259 443.325L33.3739 442.773Z" fill="#06566A"/>
<path d="M35.5833 443.365L33.7423 442.871L33.5943 443.424L35.4353 443.917L35.5833 443.365Z" fill="#06566A"/>
<path d="M36.8091 444.68L31.2863 443.2L30.9903 444.304L36.5131 445.784L36.8091 444.68Z" fill="#06566A"/>
<path d="M38.1073 447.198L30.7435 445.225L29.2637 450.748L36.6275 452.721L38.1073 447.198Z" fill="#06566A"/>
<path d="M36.381 453.641L29.0172 451.668L28.8446 452.313L36.2083 454.286L36.381 453.641Z" fill="#06566A" fill-opacity="0.25"/>
<path d="M36.1096 454.654L28.7458 452.681L28.5732 453.325L35.937 455.298L36.1096 454.654Z" fill="#06566A" fill-opacity="0.25"/>
<path fill-rule="evenodd" clip-rule="evenodd" d="M28.3442 439.452L43.0718 443.398L39.1255 458.126L24.398 454.179L28.3442 439.452ZM28.6138 439.919L24.8648 453.91L38.856 457.659L42.6049 443.668L28.6138 439.919Z" fill="#06566A"/>
<path d="M53.8512 450.117L40.9769 442.684L33.544 455.558L46.4182 462.991L53.8512 450.117Z" fill="white"/>
<path d="M50.0788 453.221L40.1755 447.503L37.3167 452.455L47.22 458.172L50.0788 453.221Z" fill="#06566A"/>
<path fill-rule="evenodd" clip-rule="evenodd" d="M40.9073 442.423L54.1117 450.047L46.4882 463.251L33.2838 455.628L40.9073 442.423ZM41.0469 442.944L33.8045 455.488L46.3486 462.731L53.591 450.186L41.0469 442.944Z" fill="#06566A"/>
<path d="M12.5836 447.462L50.8752 457.722L47.3483 470.885L44.6639 472.435L10.3303 463.235C9.31377 462.963 8.71024 461.918 8.98268 460.901L12.5836 447.462Z" fill="#387888"/>
<path opacity="0.1" d="M12.5836 447.462L16.8178 448.597L50.8752 457.722L50.4313 459.379L16.3738 450.254L13.737 453.099L9.09688 460.475L9.97846 457.185L12.5836 447.462Z" fill="black"/>
<path d="M12.3403 445.424L51.2686 455.855L51.9567 456.631L51.5128 458.288L12.0245 447.707L11.8471 447.265L12.3403 445.424Z" fill="#518997"/>
<path d="M12.3403 445.424L51.2686 455.855L51.9567 456.631L12.6706 446.4L12.0245 447.707L11.8471 447.265L12.3403 445.424Z" fill="#387888"/>
<path d="M24.9575 448.41L26.6144 448.854L27.1288 449.88L26.1175 453.654L23.7243 453.013L24.9575 448.41Z" fill="#CDDDE1"/>
<path d="M24.9575 448.41L26.6144 448.854L25.0971 449.73L24.1846 453.136L23.7243 453.013L24.9575 448.41Z" fill="#B4CCD2"/>
<path d="M37.2917 451.715L38.9486 452.159L39.463 453.185L38.4518 456.958L36.0585 456.317L37.2917 451.715Z" fill="#CDDDE1"/>
<path d="M37.2917 451.715L38.9486 452.159L37.4314 453.035L36.5188 456.441L36.0585 456.317L37.2917 451.715Z" fill="#B4CCD2"/>
</g>
<g opacity="0.6">
<path d="M92.7909 19.9428L9.8517 26.6298L8.65639 34.1568L10.841 38.8995L103.049 31.4652L102.286 22.003L92.7909 19.9428Z" fill="#9BBBC3"/>
<path d="M92.166 28.8886L86.3173 23.4993M10.8988 28.2195L16.8565 34.9605L10.8988 28.2195ZM27.7408 35.6527L21.6573 27.3521L27.7408 35.6527ZM32.5248 27.8364L38.3736 33.2256L32.5248 27.8364ZM49.132 32.3582L43.1743 25.6172L49.132 32.3582ZM54.0417 26.1016L59.9995 32.8426L54.0417 26.1016ZM70.7747 32.1831L64.6914 23.8824L70.7747 32.1831ZM75.5588 24.3668L81.5332 31.3157L75.5588 24.3668Z" stroke="#82AAB5" stroke-width="5"/>
<path d="M12.4146 37.9354L103.293 30.6082L105.076 34.5461L103.115 38.7858L13.0686 46.0459L10.9991 42.4452L12.4146 37.9354Z" fill="#387888"/>
<path d="M17.0301 41.9588L16.8624 39.8792L18.7341 39.7282L20.6694 41.6654L19.0359 43.4715L17.0301 41.9588Z" fill="#9BBBC3"/>
<path d="M56.2304 38.7984L56.0627 36.7188L57.9345 36.5678L59.8698 38.505L58.2363 40.3111L56.2304 38.7984Z" fill="#9BBBC3"/>
<path d="M33.6334 40.2018L33.214 41.4914L31.9295 42.4322L30.2021 40.4785L31.6277 38.6889L33.6334 40.2018Z" fill="#9BBBC3"/>
<path d="M85.8316 35.9933L85.4122 37.2829L84.1275 38.2237L82.4001 36.27L83.8257 34.4804L85.8316 35.9933Z" fill="#9BBBC3"/>
<path d="M43.1995 39.4304L43.8201 40.6362L45.7336 41.0053L46.631 39.1538L44.538 37.8572L43.1995 39.4304Z" fill="#9BBBC3"/>
<path d="M69.4025 37.3176L70.0231 38.5234L71.9367 38.8925L72.834 37.041L70.741 35.7444L69.4025 37.3176Z" fill="#9BBBC3"/>
<path d="M85.4531 7.13786L67.1354 10.3919L68.9921 26.5923L87.1299 25.3392L85.4531 7.13786Z" fill="#ECFF00"/>
<path d="M85.4531 7.13786L67.1354 10.3919L68.9921 26.5923L68.9748 12.5643L85.4531 7.13786Z" fill="#06566A" fill-opacity="0.2"/>
<path d="M86.2074 8.09042L65.9865 10.499L65.8213 5.87976L84.9315 3.41247L86.2074 8.09042Z" fill="#ECFF00"/>
<path d="M86.2074 8.09042L65.9865 10.499L65.8213 5.87976L84.9315 3.41247L86.2074 8.09042Z" fill="#06566A" fill-opacity="0.3"/>
<path d="M65.9862 10.499L65.821 5.87972L69.5024 5.40443L67.957 6.27055L66.7826 8.57556L67.6072 10.3683L65.9862 10.499Z" fill="#06566A" fill-opacity="0.3"/>
<path d="M39.8565 12.0181L37.4479 12.2122L37.884 16.8387L40.2299 16.6495L39.2462 13.9394L39.8565 12.0181Z" fill="#06566A" fill-opacity="0.3"/>
<path d="M57.0564 13.1957L38.7387 16.4498L40.6289 33.066L59.0835 31.3472L57.0564 13.1957Z" fill="#ECFF00"/>
<path d="M40.3151 14.5455L38.7387 16.4498L40.6289 33.066L41.1592 22.3785L39.7421 17.9819L51.9446 15.3851L40.3151 14.5455Z" fill="#06566A" fill-opacity="0.2"/>
<path d="M57.707 10.1522L37.4479 12.2139L37.884 16.8404L57.8986 14.9623L57.707 10.1522Z" fill="#ECFF00"/>
<path d="M57.707 10.1522L37.4479 12.2139L37.884 16.8404L57.8986 14.9623L57.707 10.1522Z" fill="#06566A" fill-opacity="0.3"/>
<path d="M28.9717 12.7384L10.2045 15.61L12.0612 31.8104L29.9744 30.3661L28.9717 12.7384Z" fill="#ECFF00"/>
<path d="M15.1202 15.214L10.2045 15.6104L12.0612 31.8107L13.8116 31.6696L11.4113 17.7157L14.5052 16.0211L15.1202 15.214Z" fill="#06566A" fill-opacity="0.2"/>
<path d="M9.06956 15.913L29.8488 14.0283L29.5219 9.97307L28.4318 9.43301L9.09145 10.9923L9.06956 15.913Z" fill="#ECFF00"/>
<path d="M9.06956 15.913L29.8488 14.0283L29.5219 9.97307L28.4318 9.43301L9.09145 10.9923L9.06956 15.913Z" fill="#06566A" fill-opacity="0.3"/>
<path d="M9.05772 15.9383L9.73343 15.8839L10.259 11.8578L28.4199 9.45841L9.07961 11.0177L9.05772 15.9383Z" fill="#06566A" fill-opacity="0.3"/>
</g>
<g opacity="0.7">
<path d="M566.511 14.1525L605.407 38.4108L614.557 60.9801L614.326 61.2942L614.714 62.2517L595.995 87.7653L563.803 88.6333L539.95 66.2819L540.005 65.2099L539.792 65.0104L540.067 59.6781L550.679 55.3762L554.389 43.5882L547.201 34.8016L538.169 30.9801L538.011 29.7085L543.122 20.8498L566.511 14.1525Z" fill="#387888"/>
<path d="M605.408 38.4108L566.511 14.1525L543.122 20.8498L538.011 29.7085L547.044 33.5301L554.634 42.8091L550.679 55.3762L540.067 59.6782L539.792 65.0104L563.646 87.3618L595.837 86.4938L614.557 60.9801L605.408 38.4108Z" fill="#518997"/>
<path opacity="0.5" d="M605.408 38.4108L566.511 14.1525L543.122 20.8498L538.011 29.7085L547.044 33.5301L554.634 42.8091L550.679 55.3762L540.067 59.6782L539.792 65.0104L550.97 66.7484L561.54 55.6793L557.097 34.5727L569.031 22.5164L605.408 38.4108Z" fill="#387888"/>
<path d="M567.176 30.3721L568.161 36.2376L562.183 38.6613L559.638 32.3837L564.566 29.5157L567.176 30.3721Z" fill="#ECFF00"/>
<path d="M580.854 28.9754L574.925 29.4519L574.035 35.8414L580.744 36.7763L582.322 31.2968L580.854 28.9754Z" fill="#ECFF00"/>
<path d="M594.775 40.8421L590.585 45.0636L585.13 41.6206L588.745 35.8922L593.949 38.2228L594.775 40.8421Z" fill="#ECFF00"/>
<path d="M595.804 51.3158L601.24 53.7299L599.963 60.0534L593.323 58.7125L593.65 53.0197L595.804 51.3158Z" fill="#ECFF00"/>
<path d="M586.692 70.8472L591.89 67.957L596.174 72.781L591.109 77.2785L586.758 73.5929L586.692 70.8472Z" fill="#ECFF00"/>
<path d="M556.891 47.0758L551.293 55.1646L566.36 71.8927L574.134 63.9475L569.372 56.6404L563.822 53.8575L561.934 49.3624L556.891 47.0758Z" fill="#ECFF00"/>
<path d="M557.122 52.9274L552.491 57.6608M562.499 55.2104L558.353 58.4332L556.717 61.796M566.567 60.1836L563.424 63.3955L560.098 65.1042M569.448 63.6645L564.001 70.2464" stroke="#06566A" stroke-opacity="0.2" stroke-width="2"/>
<path d="M539.377 75.7034L549.335 68.2069L552.853 71.6486L540.303 82.4642L536.451 78.6947L539.377 75.7034Z" fill="#82AAB5"/>
<path d="M542.663 78.1118L551.669 70.7268L552.853 71.6493L540.303 82.4649L538.927 81.1185L540.862 80.4226L542.663 78.1118Z" fill="#6A9AA6"/>
<path d="M559.72 78.3682L552.853 71.6486L549.336 68.2069L544.109 60.8158L550.613 54.1685L568.87 72.0326L559.72 78.3682Z" fill="#B4CCD2"/>
<path d="M559.721 78.3676L552.853 71.648L549.336 68.2063L544.109 60.8151L550.613 54.1678L551.5 54.8589L546.68 61.0434L559.721 78.3676Z" fill="#06566A" fill-opacity="0.1"/>
<path d="M575.593 59.7632L558.763 91.0253L560.418 92.3149L578.765 62.2349L575.593 59.7632Z" fill="#B4CCD2"/>
<path d="M578.765 62.2349L576.227 63.6424L560.557 90.8953L558.763 91.0254L560.418 92.3149L578.765 62.2349Z" fill="#9BBBC3"/>
<path d="M575.114 59.6092L579.486 62.1987L578.427 64.262L577.071 64.0235L574.595 62.5843L573.9 61.5518L575.114 59.6092Z" fill="white"/>
<path d="M578.091 61.8462L579.486 62.1985L578.426 64.2618L577.071 64.0233L577.467 63.5145L577.641 62.4238L578.091 61.8462Z" fill="#E6EEF0"/>
<path d="M576.073 56.8394L575.489 60.2822L578.764 62.2354L580.923 60.6196L580.367 57.4868L582.237 53.5474L580.869 53.3801L576.073 56.8394Z" fill="#ECFF00"/>
</g>
</g>
<defs>
<clipPath id="clip0_2122_4730">
<rect width="640" height="482" fill="white"/>
</clipPath>
</defs>
</svg>
