<?xml version="1.0" encoding="utf-8"?>
<!-- Generator: Adobe Illustrator 25.4.1, SVG Export Plug-In . SVG Version: 6.00 Build 0)  -->
<svg version="1.1" id="Ebene_1" xmlns="http://www.w3.org/2000/svg" xmlns:xlink="http://www.w3.org/1999/xlink" x="0px" y="0px"
	 viewBox="0 0 264 79.2" style="enable-background:new 0 0 264 79.2;" xml:space="preserve">
<style type="text/css">
	.st0{fill:#FFD85F;}
	.st1{fill:#3BB4E7;}
	.st2{fill:#ED5C68;}
	.st3{fill:#308BC5;}
	.st4{fill:#D5465F;}
	.st5{fill:#2A3039;}
</style>
<path class="st0" d="M35.7,48.8c-2.3-2.2-3.7-5.2-3.7-8.6c0-3.4,1.4-6.4,3.6-8.6c1.9-1.9,1.9-4.9,0-6.8c-1.9-1.9-4.9-1.9-6.8,0
	c-3.8,4-6.3,9.4-6.3,15.4c0,6,2.5,11.5,6.4,15.4c1.9,1.9,4.9,1.9,6.8,0C37.4,53.7,37.4,50.8,35.7,48.8z"/>
<path class="st1" d="M35.7,31.7c2.2-2.3,5.2-3.7,8.6-3.7c3.4,0,6.4,1.4,8.6,3.6c1.9,1.9,4.9,1.9,6.8,0c1.9-1.9,1.9-4.9,0-6.8
	c-4-3.8-9.4-6.3-15.4-6.3c-6,0-11.5,2.5-15.4,6.4c-1.9,1.9-1.9,4.9,0,6.8C30.8,33.4,33.8,33.4,35.7,31.7z"/>
<path class="st2" d="M52.8,48.8c-2.2,2.3-5.2,3.7-8.6,3.7c-3.4,0-6.4-1.4-8.6-3.6c-1.9-1.9-4.9-1.9-6.8,0c-1.9,1.9-1.9,4.9,0,6.8
	c4,3.8,9.4,6.3,15.4,6.3c6,0,11.5-2.5,15.4-6.4c1.9-1.9,1.9-4.9,0-6.8C57.7,47.1,54.8,47.1,52.8,48.8z"/>
<path class="st3" d="M32.3,33c2.6,0,4.8-2.1,4.8-4.8c0-2.6-2.1-4.8-4.8-4.8c-2.6,0-4.8,2.1-4.8,4.8C27.5,30.9,29.6,33,32.3,33z"/>
<path class="st4" d="M32.3,57c2.6,0,4.8-2.1,4.8-4.8c0-2.6-2.1-4.8-4.8-4.8c-2.6,0-4.8,2.1-4.8,4.8C27.5,54.9,29.6,57,32.3,57z"/>
<path class="st5" d="M81.1,44.7c1.4-1.1,1.6-0.4,2.7,0.7c0.5,0.5,2.2,1.6,1.1,2.5c-2.2,1.8-4.1,2.6-6.9,2.6
	c-6.3,0-10.8-4.8-10.5-10.9c0.1-2.8,1.2-5.4,3.4-7.2c2-1.6,4.5-2.5,7.1-2.3c1.4,0,2.5,0.3,3.7,0.7c0.8,0.3,1.6,0.7,2.3,1.2
	c1.4,1.1,0.7,1.6-0.3,2.7c-0.3,0.3-0.4,0.5-0.7,0.7c-0.5,0.5-1,1-1.6,0.4c-1.4-1-3.3-1.5-4.9-1.1c-5.4,1.4-5.2,11,1.5,11
	C79,45.8,80.3,45.5,81.1,44.7z M232.6,50.1c-1,0-1.6-0.7-1.6-1.6V27c0-1,0.7-1.6,1.6-1.6h1.8c1,0,1.6,0.7,1.6,1.6v21.4
	c0,1-0.7,1.6-1.6,1.6H232.6z M223.2,47.6c-1.9,1.8-3.8,2.7-6.5,2.7c-5.6,0-8.2-4.6-8.2-9.7V32c0-1,0.7-1.6,1.6-1.6h1.8
	c1,0,1.6,0.7,1.6,1.6v8.7c0,2.8,1.5,5.1,4.6,5.1c3,0,4.9-2.6,4.9-5.3V32c0-1,0.7-1.6,1.6-1.6h1.8c1,0,1.6,0.7,1.6,1.6v16.5
	c0,1-0.7,1.6-1.6,1.6h-1.5c-1,0-1.5-0.8-1.6-1.6L223.2,47.6z M201.9,30.4h3.4c1,0,1.6,0.8,1.6,1.6v1.1c0,1-0.7,1.6-1.6,1.6h-3.4
	v13.6c0,1-0.7,1.6-1.6,1.6h-1.8c-1,0-1.6-0.7-1.6-1.6V29.8c0-4.1,2.3-7.4,6.5-7.8h2.6c1,0,1.6,0.8,1.6,1.6v1.1c0,1-0.7,1.6-1.6,1.6
	h-1.4c-2,0-2.8,1.5-2.8,3.4v0.7L201.9,30.4L201.9,30.4z M189.5,30.4h3.8c1,0,1.6,0.7,1.6,1.6v1.1c0,1-0.7,1.6-1.6,1.6h-3.8v8.3
	c0,1.6,0.8,2.5,2.5,2.5h0.8c1,0,1.6,0.7,1.6,1.6v1.2c0,1-0.7,1.6-1.6,1.6h-2.3c-4.1-0.3-5.9-2.8-5.9-6.9V27c0-1,0.7-1.6,1.6-1.6h1.8
	c1,0,1.6,0.7,1.6,1.6v3.4H189.5L189.5,30.4z M134.8,30.4h3.8c1,0,1.6,0.7,1.6,1.6v1.1c0,1-0.7,1.6-1.6,1.6h-3.8v8.3
	c0,1.6,0.8,2.6,2.5,2.6h0.8c1,0,1.6,0.7,1.6,1.6v1.1c0,1-0.7,1.6-1.6,1.6H137c-4.5,0-7.1-1.9-7.1-6.9V27.1c0-1,0.7-1.6,1.6-1.6h1.8
	c1,0,1.6,0.7,1.6,1.6v3.4C134.9,30.4,134.8,30.4,134.8,30.4z M112.6,32.8c1.8-1.8,3.8-2.7,6.3-2.7c5.6,0,8.5,4.5,8.5,9.7v8.8
	c0,1-0.7,1.6-1.6,1.6h-1.8c-1,0-1.6-0.7-1.6-1.6v-8.7c0-2.8-1.5-5.1-4.6-5.1c-3,0-4.9,2.5-4.9,5.3v8.5c0,1-0.7,1.6-1.6,1.6h-1.8
	c-1,0-1.6-0.7-1.6-1.6V31.9c0-1,0.7-1.6,1.6-1.6h1.5c1,0,1.5,0.8,1.6,1.6L112.6,32.8z M167.4,32.8c1.8-1.8,3.8-2.7,6.3-2.7
	c5.6,0,8.5,4.5,8.5,9.7v8.8c0,1-0.7,1.6-1.6,1.6h-1.8c-1,0-1.6-0.7-1.6-1.6v-8.7c0-2.8-1.5-5.1-4.6-5.1c-3,0-4.9,2.5-4.9,5.3v8.5
	c0,1-0.7,1.6-1.6,1.6h-1.8c-1,0-1.6-0.7-1.6-1.6V31.9c0-1,0.7-1.6,1.6-1.6h1.5c1,0,1.5,0.8,1.6,1.6L167.4,32.8z M95.8,29.9
	c-6,0-10.2,4.4-10.2,10.4c0,6,4.2,10.4,10.2,10.4c6.1,0,10.4-4.2,10.4-10.4C106.1,34.2,101.8,29.9,95.8,29.9z M145.7,42
	c0.4,2.7,3.1,4,5.7,4c1.2,0,2.6-0.3,3.7-0.8c0.1-0.1,0.4-0.1,0.5-0.3c0.7-0.4,1.2-0.5,1.8,0l1,1l0.8,0.8c0.8,1.1,0.3,1.4-0.7,1.9
	c-2,1.4-4.6,2-7.1,2c-6.5,0-10.9-4-10.9-10.5c0-6.3,4.4-10.4,10.5-10.4c6.4,0,10,3.7,10.1,10.1c0,1.8,0.1,2.3-1.6,2.3h-13.8V42z
	 M95.8,34.5c3.1,0,5.2,2.7,5.2,5.7c0,3.1-1.9,5.6-5.2,5.6c-3.3,0-5.2-2.5-5.2-5.6C90.6,37.1,92.7,34.5,95.8,34.5z M145.8,37.8H156
	c-0.4-2.6-2.5-3.6-4.9-3.6C148.6,34.2,146.5,35.5,145.8,37.8z"/>
</svg>
