<svg width="383" height="77" viewBox="0 0 383 77" fill="none" xmlns="http://www.w3.org/2000/svg">
<path fill-rule="evenodd" clip-rule="evenodd" d="M102.031 60.6345C98.7629 60.6345 95.6172 60.1954 92.5941 59.317C89.5709 58.4387 87.0585 57.2233 85.0566 55.6709L88.1206 48.8688C92.2877 51.7694 96.9654 53.2197 102.154 53.2197C104.85 53.2197 106.923 52.7805 108.374 51.9021C109.824 51.0238 110.549 49.8084 110.549 48.256C110.549 46.867 109.885 45.7844 108.558 45.0081C107.23 44.2319 104.871 43.4761 101.48 42.7408C97.6803 41.9646 94.647 41.0249 92.3796 39.9219C90.1122 38.8189 88.4577 37.4605 87.4159 35.8468C86.3742 34.2331 85.8533 32.2415 85.8533 29.872C85.8533 27.2574 86.5784 24.9287 88.0287 22.8861C89.479 20.8434 91.5115 19.2399 94.1261 18.0756C96.7407 16.9113 99.7638 16.3291 103.196 16.3291C106.26 16.3291 109.211 16.7785 112.05 17.6773C114.89 18.576 117.147 19.7812 118.822 21.2928L115.758 28.0949C111.795 25.1943 107.628 23.744 103.257 23.744C100.765 23.744 98.8038 24.224 97.3739 25.1841C95.944 26.1441 95.2291 27.4616 95.2291 29.1366C95.2291 30.1171 95.5049 30.924 96.0564 31.5572C96.6079 32.1904 97.5271 32.7521 98.814 33.2424C100.101 33.7326 101.929 34.2433 104.299 34.7744C109.855 36 113.848 37.5728 116.279 39.4929C118.71 41.4131 119.925 44.0685 119.925 47.4593C119.925 51.5447 118.352 54.7619 115.206 57.1109C112.061 59.46 107.669 60.6345 102.031 60.6345ZM142.108 53.7712C143.048 53.7712 144.028 53.7099 145.05 53.5873L144.56 60.3281C143.375 60.4916 142.19 60.5733 141.005 60.5733C136.43 60.5733 133.09 59.5724 130.986 57.5705C128.882 55.5687 127.83 52.5252 127.83 48.4398V36.9192H122.131V29.9945H127.83V21.1702H137.083V29.9945H144.621V36.9192H137.083V48.3785C137.083 51.9737 138.758 53.7712 142.108 53.7712ZM163.618 60.5733C160.431 60.5733 157.633 59.9298 155.222 58.6429C152.812 57.3561 150.953 55.5381 149.646 53.189C148.338 50.8399 147.685 48.0722 147.685 44.8856C147.685 41.699 148.338 38.9312 149.646 36.5821C150.953 34.2331 152.812 32.4253 155.222 31.1589C157.633 29.8924 160.431 29.2592 163.618 29.2592C166.804 29.2592 169.603 29.8924 172.013 31.1589C174.423 32.4253 176.282 34.2331 177.589 36.5821C178.897 38.9312 179.55 41.699 179.55 44.8856C179.55 48.0722 178.897 50.8399 177.589 53.189C176.282 55.5381 174.423 57.3561 172.013 58.6429C169.603 59.9298 166.804 60.5733 163.618 60.5733ZM163.618 53.5261C168.111 53.5261 170.358 50.6459 170.358 44.8856C170.358 41.985 169.776 39.8198 168.612 38.3899C167.448 36.96 165.783 36.2451 163.618 36.2451C159.124 36.2451 156.877 39.1252 156.877 44.8856C156.877 50.6459 159.124 53.5261 163.618 53.5261ZM205.165 36.8579L199.957 37.4094C197.383 37.6545 195.565 38.3797 194.503 39.5849C193.441 40.79 192.909 42.3935 192.909 44.3953V60.083H183.656V29.9945H192.542V35.0808C194.053 31.6082 197.179 29.7086 201.918 29.3817L204.614 29.1979L205.165 36.8579ZM232.052 30.0558H241.121L222.983 71.1134H213.607L219.367 58.4285L206.989 30.0558H216.609L224.208 49.1752L232.052 30.0558ZM262.569 29.2592C265.184 29.2592 267.492 29.8924 269.494 31.1589C271.496 32.4253 273.059 34.2331 274.182 36.5821C275.305 38.9312 275.867 41.6582 275.867 44.763C275.867 47.8679 275.305 50.6153 274.182 53.0052C273.059 55.3951 271.486 57.2539 269.463 58.5817C267.441 59.9094 265.143 60.5733 262.569 60.5733C260.486 60.5733 258.607 60.1341 256.932 59.2557C255.257 58.3774 253.97 57.162 253.071 55.6096V60.083H243.94V16.8806H253.194V34.039C254.092 32.5274 255.369 31.3529 257.024 30.5154C258.678 29.6779 260.527 29.2592 262.569 29.2592ZM259.873 53.5261C262.038 53.5261 263.713 52.7601 264.898 51.2281C266.083 49.6961 266.675 47.5411 266.675 44.763C266.675 42.0258 266.083 39.9321 264.898 38.4818C263.713 37.0315 262.038 36.3064 259.873 36.3064C257.708 36.3064 256.033 37.0519 254.848 38.5431C253.663 40.0343 253.071 42.1484 253.071 44.8856C253.071 47.6636 253.663 49.7982 254.848 51.2893C256.033 52.7805 257.708 53.5261 259.873 53.5261ZM295.967 60.5733C292.781 60.5733 289.982 59.9298 287.572 58.6429C285.161 57.3561 283.303 55.5381 281.995 53.189C280.688 50.8399 280.034 48.0722 280.034 44.8856C280.034 41.699 280.688 38.9312 281.995 36.5821C283.303 34.2331 285.161 32.4253 287.572 31.1589C289.982 29.8924 292.781 29.2592 295.967 29.2592C299.154 29.2592 301.952 29.8924 304.362 31.1589C306.773 32.4253 308.632 34.2331 309.939 36.5821C311.246 38.9312 311.9 41.699 311.9 44.8856C311.9 48.0722 311.246 50.8399 309.939 53.189C308.632 55.5381 306.773 57.3561 304.362 58.6429C301.952 59.9298 299.154 60.5733 295.967 60.5733ZM295.967 53.5261C300.461 53.5261 302.708 50.6459 302.708 44.8856C302.708 41.985 302.126 39.8198 300.961 38.3899C299.797 36.96 298.132 36.2451 295.967 36.2451C291.473 36.2451 289.226 39.1252 289.226 44.8856C289.226 50.6459 291.473 53.5261 295.967 53.5261ZM330.468 60.5733C327.281 60.5733 324.483 59.9298 322.072 58.6429C319.662 57.3561 317.803 55.5381 316.496 53.189C315.189 50.8399 314.535 48.0722 314.535 44.8856C314.535 41.699 315.189 38.9312 316.496 36.5821C317.803 34.2331 319.662 32.4253 322.072 31.1589C324.483 29.8924 327.281 29.2592 330.468 29.2592C333.654 29.2592 336.453 29.8924 338.863 31.1589C341.273 32.4253 343.132 34.2331 344.44 36.5821C345.747 38.9312 346.401 41.699 346.401 44.8856C346.401 48.0722 345.747 50.8399 344.44 53.189C343.132 55.5381 341.273 57.3561 338.863 58.6429C336.453 59.9298 333.654 60.5733 330.468 60.5733ZM330.468 53.5261C334.962 53.5261 337.209 50.6459 337.209 44.8856C337.209 41.985 336.626 39.8198 335.462 38.3899C334.298 36.96 332.633 36.2451 330.468 36.2451C325.974 36.2451 323.727 39.1252 323.727 44.8856C323.727 50.6459 325.974 53.5261 330.468 53.5261ZM383 60.083H371.663L360.143 46.6627V60.083H350.889V16.8806H360.143V42.8633L371.234 30.0558H382.265L369.641 44.3953L383 60.083Z" fill="#333333"/>
<mask id="mask0_533_2373" style="mask-type:alpha" maskUnits="userSpaceOnUse" x="0" y="0" width="62" height="77">
<path d="M2.37567 70.5844L0.00275796 7.35702C-0.07561 5.26887 1.52551 3.49918 3.61106 3.36884L57.3903 0.0076307C59.5132 -0.125047 61.3417 1.4883 61.4743 3.61114C61.4793 3.69112 61.4818 3.77124 61.4818 3.85138V72.7487C61.4818 74.8757 59.7576 76.6 57.6306 76.6C57.573 76.6 57.5153 76.5987 57.4578 76.5961L6.05141 74.2873C4.04933 74.1974 2.45083 72.5871 2.37567 70.5844Z" fill="white"/>
</mask>
<g mask="url(#mask0_533_2373)">
<path d="M2.37567 70.5844L0.00275796 7.35702C-0.07561 5.26887 1.52551 3.49918 3.61106 3.36884L57.3903 0.0076307C59.5132 -0.125047 61.3417 1.4883 61.4743 3.61114C61.4793 3.69112 61.4818 3.77124 61.4818 3.85138V72.7487C61.4818 74.8757 59.7576 76.6 57.6306 76.6C57.573 76.6 57.5153 76.5987 57.4578 76.5961L6.05141 74.2873C4.04933 74.1974 2.45083 72.5871 2.37567 70.5844Z" fill="#FF4785"/>
<path d="M45.3997 9.41536L45.767 0.58029L53.1525 0L53.4707 9.1113C53.4818 9.4284 53.2337 9.69443 52.9166 9.7055C52.7808 9.71024 52.6478 9.66671 52.541 9.58264L49.6929 7.33902L46.3209 9.89694C46.0681 10.0887 45.7077 10.0392 45.516 9.78643C45.4352 9.68002 45.3941 9.54881 45.3997 9.41536Z" fill="white"/>
<path d="M35.9545 28.8707C35.9545 30.3691 46.0473 29.6509 47.4022 28.5984C47.4022 18.395 41.9272 13.0332 31.9017 13.0332C21.8761 13.0332 16.259 18.4784 16.259 26.6462C16.259 40.8717 35.4568 41.144 35.4568 48.9034C35.4568 51.0815 34.3903 52.3747 32.0439 52.3747C28.9864 52.3747 27.7777 50.8133 27.9199 45.5042C27.9199 44.3525 16.259 43.9934 15.9034 45.5042C14.9982 58.3699 23.0138 62.0809 32.1861 62.0809C41.074 62.0809 48.0421 57.3434 48.0421 48.7673C48.0421 33.5207 28.5598 33.9291 28.5598 26.3739C28.5598 23.311 30.8351 22.9026 32.1861 22.9026C33.6081 22.9026 36.1679 23.1533 35.9545 28.8707Z" fill="white"/>
</g>
</svg>
