<?xml version="1.0" encoding="utf-8"?>
<!-- Generator: Adobe Illustrator 25.4.1, SVG Export Plug-In . SVG Version: 6.00 Build 0)  -->
<svg version="1.1" id="Ebene_1" xmlns="http://www.w3.org/2000/svg" xmlns:xlink="http://www.w3.org/1999/xlink" x="0px" y="0px"
	 viewBox="0 0 264 79.2" style="enable-background:new 0 0 264 79.2;" xml:space="preserve">
<style type="text/css">
	.st0{fill:#464342;}
	.st1{fill:#00749A;}
</style>
<path class="st0" d="M251.8,52.9c-2.3,0-4.2-1.2-5.1-1.9c-0.3,0.3-0.8,1.1-0.9,1.9h-1.1v-7.8h1.1c0.5,3.7,3,5.9,6.4,5.9
	c1.8,0,3.3-1,3.3-2.7c0-1.5-1.3-2.6-3.6-3.7l-3.2-1.5c-2.3-1.1-3.9-2.9-3.9-5.4c0-2.7,2.5-5,6-5c1.9,0,3.4,0.7,4.4,1.5
	c0.3-0.2,0.6-0.8,0.7-1.5h1.1v6.6h-1.2c-0.4-2.6-1.9-4.8-4.8-4.8c-1.6,0-3,0.9-3,2.3c0,1.5,1.2,2.3,3.9,3.5l3.1,1.5
	c2.7,1.3,3.8,3.4,3.8,5.1C258.6,50.4,255.5,52.9,251.8,52.9z"/>
<path class="st1" d="M6.8,39.6c0,9.9,5.7,18.4,14,22.4L8.9,29.5C7.5,32.6,6.8,36,6.8,39.6z"/>
<path class="st1" d="M151.1,33.4H141v1.1c3.2,0,3.7,0.7,3.7,4.7v7.2c0,4-0.5,4.7-3.7,4.7c-2.4-0.3-4.1-1.6-6.3-4.1l-2.6-2.8
	c3.5-0.6,5.3-2.8,5.3-5.3c0-3.1-2.6-5.5-7.6-5.5H120v1.1c3.2,0,3.7,0.7,3.7,4.7v7.2c0,4-0.5,4.7-3.7,4.7v1.1h11.2v-1.1
	c-3.2,0-3.7-0.7-3.7-4.7v-2.1h1l6.2,7.8h16.4c8.1,0,11.5-4.3,11.5-9.4C162.6,37.6,159.1,33.4,151.1,33.4z M127.5,42.6v-7.5h2.3
	c2.5,0,3.7,1.7,3.7,3.8c0,2-1.1,3.7-3.7,3.7H127.5z M151.3,50.4h-0.4c-2,0-2.3-0.5-2.3-3.1V35.1c0,0,2.5,0,2.7,0
	c5.9,0,6.9,4.3,6.9,7.6C158.2,46.1,157.1,50.4,151.3,50.4z"/>
<path class="st1" d="M88.6,44.7l3.9-11.5c1.1-3.3,0.6-4.3-3-4.3v-1.1h10.6v1.1c-3.5,0-4.4,0.8-5.8,5l-6.4,19.2h-0.7l-5.7-17.6
	l-5.9,17.6h-0.7l-6.2-19.3c-1.4-4.1-2.3-5-5.5-5v-1.1h12.5v1.1c-3.3,0-4.2,0.8-3,4.3l3.8,11.5L82,27.8h1.1L88.6,44.7z"/>
<path class="st1" d="M107.8,52.9c-6.2,0-11.3-4.6-11.3-10.1c0-5.5,5.1-10.1,11.3-10.1c6.2,0,11.3,4.6,11.3,10.1
	C119,48.3,113.9,52.9,107.8,52.9z M107.8,34.4c-5.2,0-7,4.7-7,8.3c0,3.7,1.8,8.3,7,8.3c5.2,0,7-4.6,7-8.3
	C114.8,39.1,113,34.4,107.8,34.4z"/>
<path class="st0" d="M176.5,51v1.1h-12.9V51c3.8,0,4.4-1,4.4-6.6v-9c0-5.6-0.7-6.5-4.4-6.5v-1.1h11.7c5.8,0,9,3,9,7
	c0,3.9-3.2,6.9-9,6.9h-3.2v2.8C172.1,50.1,172.8,51,176.5,51z M175.3,29.8h-3.2v9.8h3.2c3.2,0,4.6-2.2,4.6-4.8
	C179.9,32.1,178.5,29.8,175.3,29.8z"/>
<path class="st0" d="M223,46.9l-0.3,1c-0.5,1.9-1.1,2.5-5.1,2.5h-0.8c-2.9,0-3.4-0.7-3.4-4.7v-2.6c4.4,0,4.7,0.4,4.7,3.3h1.1v-8.4
	h-1.1c0,2.9-0.3,3.3-4.7,3.3v-6.3h3.1c4,0,4.6,0.7,5.1,2.5l0.3,1.1h0.9l-0.4-5.3h-16.6v1.1c3.2,0,3.7,0.7,3.7,4.7v7.2
	c0,3.7-0.4,4.6-2.9,4.7c-2.4-0.4-4-1.7-6.2-4.1l-2.6-2.8c3.5-0.6,5.3-2.8,5.3-5.3c0-3.1-2.6-5.5-7.6-5.5h-9.9v1.1
	c3.2,0,3.7,0.7,3.7,4.7v7.2c0,4-0.5,4.7-3.7,4.7v1.1h11.2v-1.1c-3.2,0-3.7-0.7-3.7-4.7v-2h1l6.2,7.8h23.1l0.3-5.3H223z M193.2,42.6
	v-7.5h2.3c2.5,0,3.7,1.7,3.7,3.8c0,2-1.1,3.7-3.7,3.7H193.2z"/>
<path class="st0" d="M234.4,52.9c-2.3,0-4.2-1.2-5.1-1.9c-0.3,0.3-0.8,1.1-0.9,1.9h-1.1v-7.8h1.1c0.5,3.7,3,5.9,6.4,5.9
	c1.8,0,3.3-1,3.3-2.7c0-1.5-1.3-2.6-3.6-3.7l-3.2-1.5c-2.3-1.1-3.9-2.9-3.9-5.4c0-2.7,2.5-5,6-5c1.9,0,3.4,0.7,4.4,1.5
	c0.3-0.2,0.6-0.8,0.7-1.5h1.1v6.6h-1.2c-0.4-2.6-1.9-4.8-4.8-4.8c-1.6,0-3,0.9-3,2.3c0,1.5,1.2,2.3,3.9,3.5l3.1,1.5
	c2.7,1.3,3.8,3.4,3.8,5.1C241.3,50.4,238.2,52.9,234.4,52.9z"/>
<path class="st1" d="M48.5,38.3c0-3.1-1.1-5.2-2.1-6.9c-1.3-2.1-2.4-3.8-2.4-5.8c0-2.3,1.7-4.4,4.2-4.4c0.1,0,0.2,0,0.3,0
	c-4.4-4.1-10.3-6.5-16.8-6.5c-8.7,0-16.4,4.5-20.8,11.2c0.6,0,1.1,0,1.6,0c2.6,0,6.6-0.3,6.6-0.3c1.3-0.1,1.5,1.9,0.2,2.1
	c0,0-1.4,0.2-2.9,0.2l9.1,27l5.4-16.4l-3.9-10.6c-1.3-0.1-2.6-0.2-2.6-0.2c-1.3-0.1-1.2-2.1,0.2-2.1c0,0,4.1,0.3,6.6,0.3
	c2.6,0,6.6-0.3,6.6-0.3c1.3-0.1,1.5,1.9,0.2,2.1c0,0-1.4,0.2-2.9,0.2l9,26.8l2.5-8.3C47.7,43,48.5,40.5,48.5,38.3z"/>
<path class="st1" d="M32.1,41.8l-7.5,21.7c2.2,0.7,4.6,1,7,1c2.9,0,5.7-0.5,8.3-1.4c-0.1-0.1-0.1-0.2-0.2-0.3L32.1,41.8z"/>
<path class="st1" d="M53.5,27.7c0.1,0.8,0.2,1.6,0.2,2.6c0,2.5-0.5,5.4-1.9,8.9l-7.6,22c7.4-4.3,12.4-12.3,12.4-21.5
	C56.6,35.3,55.5,31.2,53.5,27.7z"/>
<path class="st1" d="M31.7,10.6c-16,0-29,13-29,29s13,29,29,29s29-13,29-29S47.7,10.6,31.7,10.6z M31.7,67.3
	C16.4,67.3,4,54.9,4,39.6c0-15.3,12.4-27.7,27.7-27.7s27.7,12.4,27.7,27.7C59.4,54.9,47,67.3,31.7,67.3z"/>
</svg>
