<?xml version="1.0" encoding="utf-8"?>
<!-- Generator: Adobe Illustrator 25.4.1, SVG Export Plug-In . SVG Version: 6.00 Build 0)  -->
<svg version="1.1" id="Ebene_1" xmlns="http://www.w3.org/2000/svg" xmlns:xlink="http://www.w3.org/1999/xlink" x="0px" y="0px"
	 viewBox="0 0 264 79.2" style="enable-background:new 0 0 264 79.2;" xml:space="preserve">
<path d="M99.9,22.9h22.9v1.8H102v13.6h19.5v1.8H102V55h21v1.8H99.9V22.9z M124.8,22.9h2.4L138,37.8l11-14.9l15-18.9l-24.6,35.4
	L152,56.8h-2.5L138,40.9l-11.6,15.9h-2.5l12.8-17.4L124.8,22.9z M152.9,24.7v-1.8h26v1.8h-12v32.1h-2.1V24.7H152.9z"/>
<path d="M71.3,22.9h2.6L110,76.6L95.1,56.8L73.5,25.5l-0.1,31.3h-2.1V22.9z"/>
<path d="M178.7,54.4c0.4,0,0.7-0.3,0.7-0.8c0-0.4-0.3-0.8-0.7-0.8c-0.4,0-0.7,0.3-0.7,0.8C178,54.1,178.3,54.4,178.7,54.4z
	 M180.8,52.5c0,1.3,0.9,2.1,2.2,2.1c1.4,0,2.3-0.8,2.3-2.3V47h-1.1v5.2c0,0.8-0.4,1.3-1.1,1.3c-0.7,0-1.1-0.4-1.1-1H180.8z
	 M186.8,52.4c0.1,1.3,1.2,2.1,2.8,2.1c1.7,0,2.8-0.9,2.8-2.3c0-1.1-0.6-1.7-2.1-2.1l-0.8-0.2c-1-0.2-1.3-0.5-1.3-1
	c0-0.7,0.6-1.1,1.5-1.1c0.9,0,1.4,0.4,1.6,1.1h1.1c-0.1-1.2-1.2-2.1-2.6-2.1c-1.6,0-2.7,0.9-2.7,2.2c0,1.1,0.6,1.7,1.9,2l0.9,0.2
	c1,0.2,1.4,0.6,1.4,1.1c0,0.6-0.7,1.1-1.6,1.1c-1,0-1.7-0.4-1.8-1.1H186.8z"/>
</svg>
