<?xml version="1.0" encoding="utf-8"?>
<!-- Generator: Adobe Illustrator 25.4.1, SVG Export Plug-In . SVG Version: 6.00 Build 0)  -->
<svg version="1.1" id="Ebene_1" xmlns="http://www.w3.org/2000/svg" xmlns:xlink="http://www.w3.org/1999/xlink" x="0px" y="0px"
	 viewBox="0 0 264 79.2" style="enable-background:new 0 0 264 79.2;" xml:space="preserve">
<style type="text/css">
	.st0{fill:#00D8FF;}
	.st1{fill-rule:evenodd;clip-rule:evenodd;fill:#00D8FF;}
</style>
<path class="st0" d="M91.3,27.9c-0.7-0.2-1.4-0.4-2.2-0.6c0.3-0.9,0.5-1.9,0.7-2.9c1.7-8.6,0.4-15.5-3.4-17.6
	c-3.6-2.1-9.7,0-16.2,5.5c-0.9,0.8-1.8,1.7-2.6,2.5c-0.7-0.7-1.4-1.4-2.2-2.1c-6.6-5.7-13.2-8-17-5.9C45,9,43.8,15.2,45.4,23.7
	c0.3,1.2,0.5,2.3,0.9,3.5c-1,0.3-2,0.5-3,0.8c-8.3,2.8-13.6,7.4-13.6,11.7c0,4.2,4.8,8.4,12.9,11.2c1.2,0.4,2.4,0.7,3.6,1
	c-0.3,1.1-0.6,2.2-0.8,3.3c-1.7,8.4-0.5,15,3.1,17c0.9,0.5,1.9,0.7,3.1,0.7c3.8,0,9.1-2.5,14.2-7c0.6-0.6,1.2-1.2,1.8-1.8
	c0.8,0.8,1.6,1.6,2.5,2.4c4.9,4.2,9.7,6.6,13.2,6.6c1.2,0,2.2-0.2,3.1-0.8c3.7-2.1,5-9.4,3.2-18.1c-0.2-0.8-0.4-1.6-0.6-2.5
	c1.1-0.3,2.2-0.6,3.3-1c8.1-2.8,13.2-7.1,13.2-11.2C105.5,35.4,99.8,30.7,91.3,27.9z M71.5,13.6c5.8-5,11.3-7,14.2-5.3
	c3.1,1.8,4.1,8.1,2.6,15.8c-0.2,0.9-0.5,1.9-0.7,2.8C83.8,26,80,25.4,76.1,25c-2.2-3.1-4.6-6.1-7.2-8.9
	C69.8,15.3,70.6,14.4,71.5,13.6z M79.1,46.3c-1.2,2.2-2.6,4.3-4,6.3c-2.5,0.2-5,0.3-7.6,0.3c0,0,0,0,0,0s0,0,0,0
	c-2.5,0-5-0.1-7.5-0.3c-1.4-2-2.7-4-3.8-6.1c0-0.1-0.1-0.2-0.1-0.2c-1.3-2.2-2.5-4.4-3.6-6.7c1-2.2,2.1-4.3,3.4-6.3
	c0.1-0.1,0.2-0.2,0.2-0.3c1.2-2.2,2.6-4.3,4-6.4c2.5-0.2,4.9-0.3,7.4-0.2c2.6,0,5.1,0,7.6,0.2c1.4,2.1,2.7,4.2,3.9,6.4
	c1.3,2.2,2.5,4.4,3.6,6.7C81.6,41.9,80.4,44.1,79.1,46.3z M83.6,41.7c1.3,2.9,2.4,5.9,3.3,9c-3.2,0.8-6.3,1.3-9.6,1.7
	c1.2-1.7,2.2-3.5,3.2-5.3C81.7,45.3,82.7,43.5,83.6,41.7z M61.3,54.4c2.1,0.1,4.2,0.2,6.3,0.2c0.4,0,0.8,0,1.1,0
	c1.7,0,3.5-0.1,5.2-0.2c-1.9,2.6-4,5.1-6.3,7.5C65.4,59.5,63.2,57,61.3,54.4z M57.9,52.4c-3.2-0.4-6.4-0.9-9.6-1.7
	c0.9-3.1,2-6.2,3.4-9.2c0.9,1.8,1.9,3.6,2.9,5.4c0,0.1,0,0.1,0.1,0.2C55.6,48.9,56.7,50.7,57.9,52.4z M51.7,37.6
	c-1.3-3-2.4-6.1-3.3-9.2c3.2-0.7,6.5-1.3,9.7-1.6c-1.1,1.7-2.2,3.4-3.2,5.2c-0.1,0.1-0.2,0.1-0.2,0.2C53.6,33.9,52.6,35.7,51.7,37.6
	z M67.8,17.3c2.2,2.4,4.3,4.9,6.2,7.6c-2.1-0.1-4.3-0.2-6.4-0.2c-2.1,0-4.1,0-6.2,0.1C63.4,22.2,65.5,19.7,67.8,17.3z M80.6,32.2
	c-1-1.8-2.1-3.6-3.2-5.4c3.3,0.4,6.5,0.9,9.7,1.7c-1,3.2-2.1,6.2-3.5,9.3C82.7,35.9,81.7,34,80.6,32.2z M47,23.3
	c-1.4-7.6-0.5-13.3,2.5-15c3.1-1.8,9.1,0.5,15,5.7c0.7,0.7,1.4,1.4,2.1,2.1c-2.7,2.8-5.1,5.7-7.3,8.9c-3.8,0.3-7.7,0.9-11.4,1.8
	C47.5,25.6,47.3,24.5,47,23.3z M43.1,49.3c-7.3-2.5-11.8-6.2-11.8-9.6c0-3.5,5-7.6,12.4-10.1c1-0.3,1.9-0.6,2.9-0.8
	c1.1,3.7,2.4,7.3,4,10.8c-1.6,3.5-3,7.1-4,10.8C45.5,50,44.3,49.7,43.1,49.3z M64.7,64.8c-7,6.2-12.8,7.5-15.3,6.1
	c-2.9-1.7-3.8-7.7-2.3-15.3c0.2-1.1,0.5-2.2,0.8-3.3c3.7,0.9,7.5,1.5,11.3,1.9c2.2,3.1,4.7,6.1,7.3,8.9
	C65.9,63.6,65.3,64.2,64.7,64.8z M88,54.7c1.9,9.1,0.1,14.8-2.4,16.3c-2.9,1.7-8.6-0.5-14.4-5.6c-0.8-0.8-1.6-1.5-2.4-2.3
	c2.7-2.8,5.1-5.7,7.3-8.9c3.8-0.4,7.5-1,11.3-1.9C87.6,53.1,87.8,53.9,88,54.7z M91.7,49.3c-1.1,0.3-2.2,0.6-3.2,0.9
	c-1.1-3.6-2.4-7.2-3.9-10.6c1.6-3.5,3-7.1,4.2-10.8c0.7,0.2,1.4,0.4,2.1,0.6c8.9,2.9,13,7.3,13,10.2C103.8,43,98.9,46.9,91.7,49.3z"
	/>
<path class="st1" d="M146.3,52.8L137.8,40c2.3-0.1,4.4-1.2,6-2.9c1.5-1.7,2.3-4,2.2-6.2c0-1.3-0.2-2.6-0.7-3.8
	c-0.5-1.2-1.2-2.3-2.1-3.2c-0.9-0.9-2-1.6-3.2-2c-1.2-0.4-2.5-0.6-3.8-0.5h-12.6v31.4h4V40.3h6.3l8,12.4L146.3,52.8z M135.6,36.9
	h-8.2V25h8.2c0.8,0,1.6,0.2,2.3,0.5c0.7,0.3,1.4,0.7,1.9,1.3c0.6,0.6,1,1.2,1.3,1.9c0.3,0.7,0.5,1.5,0.5,2.3c0,0.8-0.2,1.6-0.5,2.3
	c-0.3,0.7-0.7,1.4-1.3,1.9c-0.6,0.6-1.2,1-1.9,1.3C137.1,36.8,136.3,36.9,135.6,36.9L135.6,36.9z M160.8,53.4
	c1.7,0.1,3.3-0.2,4.9-0.8c1.6-0.6,3-1.5,4.2-2.7l-1.7-2.3c-1.9,1.8-4.4,2.9-7,2.9c-1.1,0-2.1-0.1-3.1-0.5c-1-0.4-1.9-1-2.7-1.7
	c-0.8-0.7-1.4-1.6-1.8-2.6c-0.4-1-0.6-2-0.6-3.1h18.4v-0.9c0-6.8-4-12.2-10.9-12.2c-1.5,0-3,0.3-4.4,1c-1.4,0.6-2.7,1.5-3.7,2.6
	c-1,1.1-1.9,2.4-2.4,3.9c-0.5,1.4-0.8,3-0.7,4.5c-0.1,1.6,0.1,3.1,0.7,4.6c0.5,1.5,1.4,2.8,2.5,3.9c1.1,1.1,2.4,2,3.9,2.6
	C157.7,53.1,159.2,53.3,160.8,53.4L160.8,53.4z M167.9,40H153c0-2,0.8-3.9,2.2-5.3c1.4-1.4,3.3-2.2,5.3-2.3c1,0,2,0.2,2.9,0.5
	c0.9,0.4,1.8,0.9,2.5,1.6c0.7,0.7,1.2,1.5,1.6,2.5C167.7,38,167.9,39,167.9,40L167.9,40z M194.8,52.8V37.2c0-5.5-4-7.6-8.8-7.6
	c-1.7-0.1-3.4,0.3-4.9,0.9c-1.6,0.6-3,1.6-4.1,2.9l1.6,2.4c0.9-1,1.9-1.8,3.1-2.4c1.2-0.5,2.5-0.8,3.8-0.8c3.3,0,5.7,1.7,5.7,4.8
	v4.1c-0.9-1-2.1-1.9-3.4-2.4c-1.3-0.5-2.7-0.8-4.1-0.7c-1-0.1-2,0.1-3,0.4c-1,0.3-1.8,0.9-2.6,1.6c-0.7,0.7-1.3,1.5-1.7,2.5
	c-0.4,0.9-0.6,2-0.6,3c0,1,0.2,2,0.6,3c0.4,0.9,1,1.8,1.7,2.5c0.7,0.7,1.6,1.2,2.6,1.6c1,0.4,2,0.5,3,0.5c1.4,0,2.8-0.2,4.1-0.8
	c1.3-0.5,2.5-1.4,3.4-2.4v2.6L194.8,52.8z M185,50.8c-0.7,0.1-1.4,0-2-0.2c-0.7-0.2-1.3-0.6-1.8-1c-0.5-0.5-0.9-1-1.2-1.7
	c-0.3-0.6-0.4-1.3-0.4-2s0.1-1.4,0.4-2c0.3-0.6,0.7-1.2,1.2-1.7c0.5-0.5,1.1-0.8,1.8-1c0.7-0.2,1.4-0.3,2-0.2c1.2,0,2.4,0.2,3.5,0.7
	c1.1,0.5,2,1.3,2.8,2.2V48c-0.7,0.9-1.7,1.7-2.8,2.2C187.4,50.7,186.2,50.9,185,50.8L185,50.8z M211.9,53.3c1.6,0.1,3.2-0.2,4.7-0.9
	c1.5-0.7,2.7-1.7,3.7-3l-2.3-2.1c-0.6,0.9-1.5,1.7-2.5,2.2c-1,0.5-2.1,0.8-3.3,0.8c-4.9,0-8-3.8-8-8.8c0-5,3-8.7,8-8.7
	c1.1,0,2.3,0.2,3.3,0.7c1,0.5,1.9,1.3,2.5,2.2l2.3-2.2c-0.9-1.3-2.2-2.3-3.7-3c-1.5-0.7-3.1-1-4.7-0.9c-1.5,0-3.1,0.3-4.5,0.9
	c-1.4,0.6-2.7,1.5-3.8,2.6c-1.1,1.1-1.9,2.4-2.4,3.9c-0.5,1.5-0.8,3-0.7,4.5c-0.1,1.5,0.1,3.1,0.7,4.5c0.5,1.5,1.4,2.8,2.4,3.9
	c1.1,1.1,2.4,2,3.8,2.6C208.8,53,210.3,53.3,211.9,53.3L211.9,53.3z M230.9,53.3c0.8,0,1.5-0.1,2.3-0.3c0.7-0.2,1.4-0.6,2-1.1
	l-1-2.6c-0.6,0.6-1.5,1-2.4,1c-1.6,0-2.3-1.2-2.3-2.9v-14h4.6V30h-4.6v-6.1h-3.5V30h-3.8v3.2h3.8v14.9c-0.1,0.7,0,1.4,0.2,2.1
	c0.2,0.7,0.6,1.3,1.1,1.8c0.5,0.5,1.1,0.9,1.7,1.2C229.5,53.3,230.2,53.4,230.9,53.3L230.9,53.3z"/>
</svg>
