<?xml version="1.0" encoding="utf-8"?>
<!-- Generator: Adobe Illustrator 25.4.1, SVG Export Plug-In . SVG Version: 6.00 Build 0)  -->
<svg version="1.1" id="Ebene_1" xmlns="http://www.w3.org/2000/svg" xmlns:xlink="http://www.w3.org/1999/xlink" x="0px" y="0px"
	 viewBox="0 0 264 79.2" style="enable-background:new 0 0 264 79.2;" xml:space="preserve">
<style type="text/css">
	.st0{fill-rule:evenodd;clip-rule:evenodd;fill:#0E1E25;}
	.st1{fill:url(#SVGID_1_);}
</style>
<path class="st0" d="M108.5,30.4l0.1,2.6c1.7-2,3.9-3,6.6-3c4.7,0,7.1,2.7,7.2,8.1v15h-5.1V38.4c0-1.4-0.3-2.5-0.9-3.2
	c-0.6-0.7-1.6-1-3-1c-2.1,0-3.6,0.9-4.6,2.8v16.2h-5.1V30.4H108.5L108.5,30.4z M137.6,53.5c-3.2,0-5.8-1-7.8-3.1c-2-2-3-4.8-3-8.1
	v-0.6c0-2.3,0.4-4.3,1.3-6.1c0.9-1.8,2.1-3.2,3.7-4.2c1.6-1,3.3-1.5,5.3-1.5c3.1,0,5.5,1,7.2,3c1.7,2,2.5,4.8,2.5,8.4v2.1h-14.8
	c0.2,1.9,0.8,3.4,1.9,4.5c1.1,1.1,2.5,1.6,4.1,1.6c2.3,0,4.2-0.9,5.7-2.8l2.7,2.6c-0.9,1.4-2.1,2.4-3.6,3.2
	C141.2,53.1,139.5,53.5,137.6,53.5L137.6,53.5z M137,34c-1.4,0-2.5,0.5-3.4,1.5c-0.9,1-1.4,2.3-1.6,4.1h9.7v-0.4
	c-0.1-1.7-0.6-3-1.4-3.9C139.5,34.5,138.4,34,137,34L137,34z M157.1,24.8v5.5h4v3.8h-4v12.7c0,0.9,0.2,1.5,0.5,1.9
	c0.3,0.4,1,0.6,1.8,0.6c0.6,0,1.2-0.1,1.8-0.2V53c-1.2,0.3-2.3,0.5-3.4,0.5c-3.9,0-5.9-2.2-5.9-6.5V34.1h-3.7v-3.8h3.7v-5.5
	L157.1,24.8L157.1,24.8z M170.4,53.1h-5.1V20.8h5.1V53.1z M181.3,53.1h-5.1V30.4h5.1V53.1z M175.9,24.5c0-0.8,0.2-1.4,0.7-2
	c0.5-0.5,1.2-0.8,2.1-0.8c0.9,0,1.6,0.3,2.1,0.8c0.5,0.5,0.8,1.2,0.8,2c0,0.8-0.3,1.4-0.8,1.9c-0.5,0.5-1.2,0.8-2.1,0.8
	c-0.9,0-1.6-0.3-2.1-0.8C176.2,25.9,175.9,25.2,175.9,24.5L175.9,24.5z M188.7,53.1V34.1h-3.5v-3.8h3.5v-2.1c0-2.5,0.7-4.5,2.1-5.8
	c1.4-1.4,3.4-2.1,5.9-2.1c0.9,0,1.8,0.1,2.9,0.4l-0.1,4c-0.6-0.1-1.3-0.2-1.9-0.2c-2.4,0-3.6,1.3-3.6,3.8v2h4.6v3.8h-4.6v18.9
	L188.7,53.1L188.7,53.1z M210,45.8l4.6-15.4h5.4l-9,26.2c-1.4,3.8-3.7,5.7-7,5.7c-0.7,0-1.6-0.1-2.5-0.4v-3.9l1,0.1
	c1.3,0,2.3-0.2,2.9-0.7c0.6-0.5,1.2-1.3,1.5-2.4l0.7-2l-8-22.6h5.5L210,45.8z"/>
<radialGradient id="SVGID_1_" cx="272.0751" cy="-32.3813" r="1.32" gradientTransform="matrix(2.123054e-15 34.6721 40.0303 -2.451149e-15 1339.5781 -9395.3125)" gradientUnits="userSpaceOnUse">
	<stop  offset="0" style="stop-color:#20C6B7"/>
	<stop  offset="1" style="stop-color:#4D9ABF"/>
</radialGradient>
<path class="st1" d="M78,31.7L78,31.7C78,31.7,78,31.7,78,31.7C78,31.7,78,31.7,78,31.7C78,31.6,78,31.6,78,31.6l0.9-5.6l4.3,4.3
	l-4.5,1.9c0,0,0,0,0,0h0c0,0,0,0,0,0C78.5,32,78.3,31.9,78,31.7L78,31.7z M84.3,31.4L89,36c1,1,1.4,1.4,1.6,2c0,0.1,0,0.2,0.1,0.2
	l-11.1-4.7c0,0,0,0,0,0c0,0-0.1,0-0.1-0.1c0,0,0.1-0.1,0.1-0.1l0,0L84.3,31.4z M90.5,39.8c-0.2,0.4-0.7,0.9-1.5,1.7l-5.2,5.2
	L77,45.3l0,0c-0.1,0-0.1,0-0.1-0.1c0-0.3-0.1-0.5-0.2-0.8c-0.1-0.2-0.3-0.5-0.5-0.6c0,0,0-0.1,0-0.1c0,0,0,0,0,0l1.3-7.8l0,0
	c0-0.1,0-0.1,0.1-0.1c0.3,0,0.5-0.1,0.8-0.3c0.2-0.1,0.4-0.3,0.6-0.5c0,0,0,0,0,0c0,0,0.1,0,0.1,0L90.5,39.8L90.5,39.8z M82.5,47.9
	L74,56.5l1.5-9l0,0c0,0,0,0,0,0c0,0,0,0,0.1-0.1l0,0c0.3-0.1,0.6-0.3,0.8-0.6c0,0,0.1-0.1,0.1-0.1c0,0,0,0,0,0L82.5,47.9L82.5,47.9z
	 M72.1,58.3l-1,1L60.5,43.8c0,0,0,0,0,0c0,0,0,0,0-0.1c0,0,0,0,0-0.1l0,0c0,0,0.1-0.1,0.1-0.1l0,0l0,0c0,0,0-0.1,0.1-0.1
	c0,0,0.1,0,0.1,0l11.9,2.4c0,0,0.1,0,0.1,0c0,0,0,0,0,0.1c0.1,0.3,0.2,0.6,0.4,0.8c0.2,0.2,0.5,0.4,0.8,0.6c0,0,0,0.1,0,0.1
	c0,0,0,0,0,0.1C73.8,48.4,72.5,56.2,72.1,58.3z M70.1,60.3c-0.7,0.7-1.1,1.1-1.6,1.2c-0.5,0.1-1,0.1-1.4,0c-0.6-0.2-1-0.7-2-1.6
	L54.3,49.2l2.8-4.4c0,0,0,0,0-0.1c0,0,0.1,0,0.1,0c0.6,0.2,1.3,0.2,2-0.1c0,0,0.1,0,0.1,0c0,0,0,0,0,0L70.1,60.3L70.1,60.3z
	 M53.3,48.1l-2.5-2.5l4.9-2.1c0,0,0,0,0,0c0,0,0.1,0,0.1,0.1c0,0.1,0.1,0.1,0.2,0.2l0,0c0,0,0,0,0,0.1L53.3,48.1L53.3,48.1z
	 M49.7,44.6l-3.1-3.1c-0.5-0.5-0.9-0.9-1.2-1.2l9.5,2c0,0,0,0,0,0c0.1,0,0.1,0,0.1,0.1c0,0.1-0.1,0.1-0.1,0.1l0,0L49.7,44.6z
	 M44.9,38.6c0-0.2,0-0.4,0.1-0.6c0.2-0.6,0.7-1,1.6-2l4-4c1.8,2.7,3.7,5.3,5.5,8c0,0,0.1,0.1,0,0.1c-0.2,0.2-0.3,0.4-0.5,0.6
	c0,0,0,0.1-0.1,0.1c0,0,0,0-0.1,0h0L44.9,38.6L44.9,38.6z M51.7,31l5.4-5.4c0.5,0.2,2.3,1,4,1.7c1.2,0.5,2.4,1,2.7,1.2
	c0,0,0.1,0,0.1,0.1c0,0,0,0,0,0.1c-0.1,0.4-0.1,0.8,0,1.2c0.1,0.4,0.3,0.7,0.6,1c0,0,0,0.1,0,0.1l0,0L59,39.4c0,0,0,0-0.1,0.1
	c0,0-0.1,0-0.1,0c-0.2-0.1-0.4-0.1-0.6-0.1c-0.2,0-0.4,0-0.6,0.1h0c0,0,0,0-0.1,0c0,0,0,0-0.1-0.1L51.7,31L51.7,31z M58.1,24.5
	l6.9-6.9c1-1,1.4-1.4,2-1.6c0.5-0.1,1-0.1,1.4,0c0.6,0.2,1,0.7,2,1.6l1.5,1.5l-4.9,7.7c0,0,0,0,0,0.1c0,0-0.1,0-0.1,0
	c-0.4-0.1-0.8-0.1-1.2-0.1c-0.4,0.1-0.8,0.3-1.1,0.5c0,0-0.1,0-0.1,0C63.9,26.9,58.8,24.8,58.1,24.5L58.1,24.5z M73.1,20.1l4.6,4.6
	l-1.1,6.8v0c0,0,0,0,0,0c0,0,0,0-0.1,0c-0.2,0.1-0.5,0.2-0.7,0.3c0,0,0,0,0,0c0,0,0,0,0,0c0,0,0,0-0.1,0l-7-3l0,0c0,0-0.1,0-0.1-0.1
	c0-0.4-0.2-0.8-0.4-1.1c0-0.1-0.1-0.1,0-0.2L73.1,20.1z M68.4,30.4l6.5,2.8c0,0,0.1,0,0.1,0.1c0,0,0,0,0,0.1c0,0.1,0,0.2,0,0.3v0.2
	c0,0,0,0.1-0.1,0.1l0,0c-1,0.4-14.5,6.2-14.5,6.2c0,0,0,0-0.1,0c0,0,0-0.1,0-0.1c0,0,0,0,0,0l5.4-8.3l0,0c0-0.1,0.1-0.1,0.1-0.1
	l0.1,0c0.1,0,0.2,0,0.3,0c0.8,0,1.6-0.4,2-1.1c0,0,0,0,0,0C68.3,30.4,68.3,30.4,68.4,30.4L68.4,30.4z M60.9,41.4l14.7-6.3
	c0,0,0,0,0,0c0.1,0.1,0.1,0.1,0.2,0.2l0,0c0,0,0.1,0,0.1,0.1c0,0,0,0,0,0l-1.3,7.7l0,0c0,0.1,0,0.1-0.1,0.1c-0.3,0-0.7,0.1-0.9,0.3
	s-0.5,0.4-0.7,0.7l0,0c0,0,0,0.1-0.1,0.1c0,0-0.1,0-0.1,0L61.1,42C61.1,42,60.9,41.4,60.9,41.4L60.9,41.4z"/>
</svg>
