<?xml version="1.0" encoding="utf-8"?>
<!-- Generator: Adobe Illustrator 25.4.1, SVG Export Plug-In . SVG Version: 6.00 Build 0)  -->
<svg version="1.1" id="Ebene_1" xmlns="http://www.w3.org/2000/svg" xmlns:xlink="http://www.w3.org/1999/xlink" x="0px" y="0px"
	 viewBox="0 0 264 79.2" style="enable-background:new 0 0 264 79.2;" xml:space="preserve">
<style type="text/css">
	.st0{clip-path:url(#SVGID_00000109010158409957247690000007158557681973319327_);}
	.st1{fill:#FFFFFF;}
	.st2{fill:#663399;}
</style>
<g>
	<defs>
		<rect id="SVGID_1_" x="34.3" y="13.2" width="195.4" height="51.5"/>
	</defs>
	<clipPath id="SVGID_00000110431373846703542990000001345623734990564795_">
		<use xlink:href="#SVGID_1_"  style="overflow:visible;"/>
	</clipPath>
	<g style="clip-path:url(#SVGID_00000110431373846703542990000001345623734990564795_);">
		<path d="M150.2,35.3h5.2v18.4h-5.2v-2.4c-1.8,2.8-4.2,2.9-5.7,2.9c-5.7,0-9.4-4.4-9.4-9.7c0-5.5,3.7-9.7,9-9.7
			c1.5,0,4.2,0.2,5.9,2.9v-2.4H150.2z M140.7,44.5c0,2.9,2,5.1,5.2,5.1c2.9,0,5.2-2.2,5.2-5.1c0-2.9-2-5.1-5.2-5.1
			C142.9,39.3,140.7,41.5,140.7,44.5z"/>
		<path d="M165.5,39.7v14h-5.2v-14h-2v-4.4h2V29h5.2v6.3h3.5v4.4H165.5z"/>
		<path d="M181.2,39.7c-1.3-1.1-2.4-1.3-2.9-1.3c-1.3,0-2,0.6-2,1.5c0,0.6,0.2,1.1,1.7,1.7l1.3,0.4c1.5,0.6,3.7,1.1,4.6,2.6
			c0.6,0.7,0.9,1.8,0.9,3.1c0,1.7-0.6,3.3-2,4.6c-1.5,1.3-3.3,2-5.5,2c-3.9,0-5.9-1.8-7.2-3.1l2.8-3.1c1.1,1.1,2.6,2.2,4.1,2.2
			c1.5,0,2.6-0.7,2.6-2c0-1.1-0.9-1.7-1.7-1.8l-1.1-0.4c-1.3-0.6-2.8-1.1-3.9-2.2c-0.9-0.9-1.5-2-1.5-3.5c0-1.8,0.9-3.3,1.8-4.2
			c1.5-1.1,3.3-1.3,4.8-1.3c1.3,0,3.5,0.2,5.9,2L181.2,39.7z"/>
		<path d="M192.5,37.7c1.8-2.6,4.4-2.9,5.9-2.9c5.3,0,9,4.2,9,9.7s-3.7,9.7-9.2,9.7c-1.1,0-3.9-0.2-5.9-2.9v2.4h-5V22.8h5.2V37.7z
			 M191.9,44.5c0,2.9,2,5.1,5.2,5.1c2.9,0,5.2-2.2,5.2-5.1s-2-5.1-5.2-5.1C193.9,39.3,191.9,41.5,191.9,44.5z"/>
		<path d="M215.9,50.9L207,35.3h6.1l5.7,10.5l5.2-10.5h5.9l-14.7,28.1h-5.9L215.9,50.9z"/>
		<path d="M133.8,38.4h-5.2h-7.7v5.1h6.8c-1.1,3.5-3.7,5.9-8.5,5.9c-5.3,0-9.2-4.4-9.2-9.7s3.7-9.9,9-9.9c2.9,0,5.9,1.5,7.7,3.9
			l4.2-2.8c-2.8-3.9-7.2-6.1-12-6.1c-8.1,0-14.7,6.6-14.7,14.9c0,8.3,6.3,14.9,14.7,14.9c8.5,0,14.7-6.6,14.7-14.9
			C134,39.1,133.8,38.8,133.8,38.4z"/>
		<path class="st1" d="M80.4,38.9H67.5v3.7h8.8c-1.3,5.5-5.3,10.1-10.7,12L44.5,33.4c2.2-6.4,8.5-11,15.7-11c5.5,0,10.5,2.8,13.6,7
			l2.8-2.4c-3.7-5-9.6-8.3-16.4-8.3c-9.6,0-17.7,6.8-19.7,15.8l24.3,24.3C73.6,56.6,80.4,48.5,80.4,38.9z"/>
		<path class="st1" d="M39.8,39.1c0,5.1,2,10.1,5.9,14c3.9,3.9,9,5.9,14,5.9L39.8,39.1z"/>
		<path class="st2" d="M60.1,13.2c-14.2,0-25.8,11.6-25.8,25.7s11.6,25.7,25.8,25.7c14.2,0,25.8-11.6,25.8-25.7S74.3,13.2,60.1,13.2
			z M45.7,53.3c-3.9-3.9-5.9-9-5.9-14l20.1,19.9C54.8,59,49.6,57.1,45.7,53.3z M64.5,58.6L40.4,34.5c2-9,10.1-15.8,19.7-15.8
			c6.8,0,12.7,3.3,16.4,8.3l-2.8,2.4c-3.1-4.2-8.1-7-13.6-7c-7.2,0-13.3,4.6-15.7,11l21.2,21.1c5.3-1.8,9.4-6.4,10.7-12h-8.8v-3.7
			h12.9C80.4,48.5,73.6,56.6,64.5,58.6z"/>
	</g>
</g>
</svg>
