<svg width="951" height="950" viewBox="0 0 951 950" fill="none" xmlns="http://www.w3.org/2000/svg">
<path d="M26.3105 114L220 114L220 67.3765L153.664 -1.70889e-05L5.29259e-06 -3.65517e-06L1.29226e-05 87.2768L26.3105 114Z" fill="#ECFF00" fill-opacity="0.6"/>
<path opacity="0.2" d="M467 41L464.303 104.597L352.582 216.375L179.221 221L91.7705 133.505L91 108.837L153.8 46.0062L467 41Z" fill="#065669" fill-opacity="0.2"/>
<path d="M950.258 733.856L949.645 630.016L800.855 632.311L741.275 715.363L774.199 850.118L833.345 891.873L950.258 733.856Z" fill="#ECFF00" fill-opacity="0.2"/>
<path d="M96.5389 268.087L96 323.992L176.199 324L209 279.789L192.386 206.972L160.863 184L96.5389 268.087Z" fill="#ECFF00" fill-opacity="0.2"/>
<path opacity="0.2" d="M916.457 933.375L928.163 921.066L920.417 873.89L864.23 834.869L700.298 833.631L696.527 890.283L756.138 932.377L916.457 933.375Z" fill="#065669" fill-opacity="0.4"/>
<ellipse opacity="0.1" cx="452" cy="411" rx="399" ry="394" fill="url(#paint0_radial)"/>
<line x1="140" y1="253" x2="738" y2="253" stroke="#065669" stroke-opacity="0.4" stroke-width="2" stroke-linecap="round" stroke-dasharray="2 7"/>
<line x1="140" y1="473" x2="818" y2="473" stroke="#065669" stroke-opacity="0.4" stroke-width="2" stroke-linecap="round" stroke-dasharray="2 7"/>
<line x1="140" y1="693" x2="738" y2="693" stroke="#065669" stroke-opacity="0.4" stroke-width="2" stroke-linecap="round" stroke-dasharray="2 7"/>
<line x1="140" y1="33" x2="668" y2="33" stroke="#065669" stroke-opacity="0.4" stroke-width="2" stroke-linecap="round" stroke-dasharray="2 7"/>
<path d="M865.032 782.831H356.763V806.796H865.032V782.831Z" fill="url(#paint1_linear)"/>
<path d="M192.999 677.981L356.763 782.83V806.796L192.999 701.947V677.981Z" fill="url(#paint2_linear)"/>
<path d="M865.032 783.029L887 761.861V785.627L865.032 806.795V783.029Z" fill="#829BA2"/>
<path d="M192 677.67L204.141 665H722.359L887 761.925L865.032 782.83H356.641L192 677.67Z" fill="#9BBBC3"/>
<ellipse cx="510.889" cy="699.251" rx="49.4913" ry="5.80102" transform="rotate(26.4675 510.889 699.251)" fill="url(#paint3_radial)" fill-opacity="0.1"/>
<ellipse cx="333.889" cy="699.251" rx="49.4913" ry="5.80102" transform="rotate(26.4675 333.889 699.251)" fill="url(#paint4_radial)" fill-opacity="0.1"/>
<ellipse cx="678.889" cy="699.251" rx="49.4913" ry="5.80102" transform="rotate(26.4675 678.889 699.251)" fill="url(#paint5_radial)" fill-opacity="0.1"/>
<path d="M544 643H547L548.5 718L544 720V643Z" fill="#949494"/>
<path d="M543 594H544.5L556 651L553 652L543 594Z" fill="#949494"/>
<path d="M543 594C546.653 612.926 549.341 632.266 553 652.022C550.068 650.148 547.135 648.289 544.202 646.446C544.176 697.636 544.15 668.821 544.124 720C542.647 718.175 541.17 716.351 539.694 714.526C539.73 664.244 539.765 693.968 539.801 643.697C536.867 641.858 533.934 639.999 531 638.121C534.682 623.833 539.327 609.126 543 594Z" fill="#C4C4C4"/>
<path d="M367 563H370L371.5 718L367 720V563Z" fill="#949494"/>
<path d="M366 514H367.5L379 571L376 572L366 514Z" fill="#949494"/>
<path d="M366 514C369.653 532.926 372.341 552.266 376 572.022C373.068 570.148 370.136 568.289 367.202 566.446C367.176 617.636 367.15 668.821 367.125 720C365.647 718.175 364.17 716.351 362.694 714.526C362.73 664.244 362.766 613.968 362.801 563.697C359.868 561.858 356.934 559.999 354 558.121C357.683 543.833 362.327 529.126 366 514Z" fill="#C4C4C4"/>
<path d="M712 523H715L716.5 718L712 720V523Z" fill="#949494"/>
<path d="M711 474H712.5L724 531L721 532L711 474Z" fill="#949494"/>
<path d="M711 474C714.653 492.926 717.341 512.266 721 532.022C718.068 530.148 715.135 528.289 712.202 526.446C712.176 577.636 712.15 668.821 712.124 720C710.647 718.175 709.17 716.351 707.694 714.526C707.73 664.244 707.765 573.968 707.801 523.697C704.867 521.858 701.934 519.999 699 518.121C702.682 503.833 707.327 489.126 711 474Z" fill="#C4C4C4"/>
<path d="M818 607.139H570.075V630.502H818V607.139Z" fill="url(#paint6_linear)"/>
<path d="M536.699 597.126L379 497V520.363L536.699 620.489V597.126Z" fill="url(#paint7_linear)"/>
<path d="M570.075 607.139L536.699 597.126V620.489L570.075 630.502V607.139Z" fill="url(#paint8_linear)"/>
<path d="M379 497H626.987L658.401 502.245L818 607.139H569.767L536.888 597.305L379 497Z" fill="#189EFF"/>
<path d="M379 497H626.987L658.401 502.245L818 607.139H569.767L536.888 597.305L379 497Z" fill="#189EFF"/>
<path d="M379 497H626.987L658.401 502.245L818 607.139H569.767L536.888 597.305L379 497Z" fill="#189EFF"/>
<path d="M379 497H626.987L658.401 502.245L818 607.139H569.767L536.888 597.305L379 497Z" fill="#189EFF"/>
<path d="M379 497H626.987L658.401 502.245L818 607.139H569.767L536.888 597.305L379 497Z" fill="#189EFF"/>
<path d="M379 497H626.987L658.401 502.245L818 607.139H569.767L536.888 597.305L379 497Z" fill="#189EFF"/>
<path d="M379 497H626.987L658.401 502.245L818 607.139H569.767L536.888 597.305L379 497Z" fill="#189EFF"/>
<path d="M379 497H626.987L658.401 502.245L818 607.139H569.767L536.888 597.305L379 497Z" fill="#189EFF"/>
<ellipse cx="565.386" cy="531.536" rx="49.4913" ry="5.80102" transform="rotate(26.4675 565.386 531.536)" fill="url(#paint9_radial)" fill-opacity="0.1"/>
<path d="M596 313H599L600.5 548L596 550V313Z" fill="#949494"/>
<path d="M595 264H596.5L608 321L605 322L595 264Z" fill="#949494"/>
<path d="M595 264C598.653 282.926 601.341 302.266 605 322.022C602.068 320.148 599.135 318.289 596.202 316.446C596.176 367.636 596.15 498.821 596.124 550C594.647 548.175 593.17 546.351 591.694 544.526C591.73 494.244 591.765 363.968 591.801 313.697C588.867 311.858 585.934 309.999 583 308.121C586.682 293.833 591.327 279.126 595 264Z" fill="#C4C4C4"/>
<path d="M490.844 499.574H309.283V513.54H490.844V499.574Z" fill="url(#paint10_linear)"/>
<path d="M178 415.776L309.283 498.875V513.54L178 429.453V415.776Z" fill="url(#paint11_linear)"/>
<path d="M490.844 498.876L509 482.815V496.641L490.844 513.54V498.876Z" fill="url(#paint12_linear)"/>
<path d="M178 416.062L187.674 406H377.811L509 482.972L490.844 499.574H309.283L178 416.062Z" fill="#00749A"/>
<ellipse cx="314.705" cy="428.411" rx="39.7147" ry="5.80102" transform="rotate(26.4675 314.705 428.411)" fill="url(#paint13_radial)" fill-opacity="0.2"/>
<path d="M574 390.029L587.029 377H780.822L926.686 468.2H696.143L574 390.029Z" fill="#2BC1C2"/>
<path d="M574 390.029L587.029 377H780.822L926.686 468.2H696.143L574 390.029Z" fill="#2BC1C2"/>
<path d="M574 390.029L587.029 377H780.822L926.686 468.2H696.143L574 390.029Z" fill="#2BC1C2"/>
<path d="M574 390.029L587.029 377H780.822L926.686 468.2H696.143L574 390.029Z" fill="#2BC1C2"/>
<path d="M574 390.029L587.029 377H780.822L926.686 468.2H696.143L574 390.029Z" fill="#2BC1C2"/>
<path d="M574 390.029L587.029 377H780.822L926.686 468.2H696.143L574 390.029Z" fill="#2BC1C2"/>
<path d="M574 390.029L587.029 377H780.822L926.686 468.2H696.143L574 390.029Z" fill="#2BC1C2"/>
<path d="M574 390.029L587.029 377H780.822L926.686 468.2H696.143L574 390.029Z" fill="#2BC1C2"/>
<path d="M696.143 468.2L574 390.029V412.829L696.143 491V468.2Z" fill="url(#paint14_linear)"/>
<path d="M926.686 468.2H696.143V491H926.686V468.2Z" fill="url(#paint15_linear)"/>
<path d="M338 226H341L342.5 441L338 443V226Z" fill="#949494"/>
<path d="M337 177H338.5L350 234L347 235L337 177Z" fill="#949494"/>
<path d="M337 177C340.653 195.926 343.341 215.266 347 235.022C344.068 233.148 341.136 231.289 338.202 229.446C338.176 280.636 338.15 391.821 338.125 443C336.647 441.175 335.17 439.351 333.694 437.526C333.73 387.244 333.766 276.968 333.801 226.697C330.867 224.858 327.934 222.999 325 221.121C328.683 206.833 333.327 192.126 337 177Z" fill="#C4C4C4"/>
<ellipse cx="704.138" cy="396.893" rx="39.7147" ry="5.80102" transform="rotate(26.4675 704.138 396.893)" fill="url(#paint16_radial)" fill-opacity="0.15"/>
<path d="M727 286H730L731.5 411L727 413V286Z" fill="#949494"/>
<path d="M726 237H727.5L739 294L736 295L726 237Z" fill="#949494"/>
<path d="M726 237C729.653 255.926 732.341 275.266 736 295.022C733.068 293.148 730.136 291.289 727.202 289.446C727.176 340.636 727.15 361.821 727.125 413C725.647 411.175 724.17 409.351 722.694 407.526C722.73 357.244 722.766 336.968 722.801 286.697C719.868 284.858 716.934 282.999 714 281.121C717.683 266.833 722.328 252.126 726 237Z" fill="#C4C4C4"/>
<path d="M850.963 238.352H466.869V267H850.963V238.352Z" fill="url(#paint17_linear)"/>
<path d="M191 62.2207L466.869 238.352V267L191 90.8686V62.2207Z" fill="url(#paint18_linear)"/>
<path d="M850.962 238.352L887.038 203.338V231.986L850.962 267V238.352Z" fill="#411368"/>
<path d="M191 62.2207L211.343 41H611.169L887.037 203.338L851.022 238.352H466.869L191 62.2207Z" fill="#642995"/>
<g filter="url(#filter0_d)">
<path d="M431 37.0862H636.605L661.662 43.9206L728.87 86.0663L771.299 110.556L775 135.046H693.554L691.278 143.589L671.914 145.298L650.272 135.046H600.717L551.742 106.57L559.715 97.457L540.351 86.0663H515.858L431 37.0862Z" fill="black"/>
<path d="M431 37.0862H636.605L661.662 43.9206L728.87 86.0663L771.299 110.556L775 135.046H693.554L691.278 143.589L671.914 145.298L650.272 135.046H600.717L551.742 106.57L559.715 97.457L540.351 86.0663H515.858L431 37.0862Z" fill="black"/>
<path d="M431 37.0862H636.605L661.662 43.9206L728.87 86.0663L771.299 110.556L775 135.046H693.554L691.278 143.589L671.914 145.298L650.272 135.046H600.717L551.742 106.57L559.715 97.457L540.351 86.0663H515.858L431 37.0862Z" fill="black"/>
<path d="M431 37.0862H636.605L661.662 43.9206L728.87 86.0663L771.299 110.556L775 135.046H693.554L691.278 143.589L671.914 145.298L650.272 135.046H600.717L551.742 106.57L559.715 97.457L540.351 86.0663H515.858L431 37.0862Z" fill="black"/>
<path d="M431 37.0862H636.605L661.662 43.9206L728.87 86.0663L771.299 110.556L775 135.046H693.554L691.278 143.589L671.914 145.298L650.272 135.046H600.717L551.742 106.57L559.715 97.457L540.351 86.0663H515.858L431 37.0862Z" fill="black"/>
<path d="M431 37.0862H636.605L661.662 43.9206L728.87 86.0663L771.299 110.556L775 135.046H693.554L691.278 143.589L671.914 145.298L650.272 135.046H600.717L551.742 106.57L559.715 97.457L540.351 86.0663H515.858L431 37.0862Z" fill="black"/>
<path d="M431 37.0862H636.605L661.662 43.9206L728.87 86.0663L771.299 110.556L775 135.046H693.554L691.278 143.589L671.914 145.298L650.272 135.046H600.717L551.742 106.57L559.715 97.457L540.351 86.0663H515.858L431 37.0862Z" fill="black"/>
<path d="M431 37.0862H636.605L661.662 43.9206L728.87 86.0663L771.299 110.556L775 135.046H693.554L691.278 143.589L671.914 145.298L650.272 135.046H600.717L551.742 106.57L559.715 97.457L540.351 86.0663H515.858L431 37.0862Z" fill="black"/>
</g>
<path d="M540.351 68.9802H515.861V88.3445H540.351V68.9802Z" fill="url(#paint19_linear)"/>
<path d="M650.272 117.96H601.292V137.324H650.272V117.96Z" fill="url(#paint20_linear)"/>
<path d="M775 117.96H693.556V137.324H775V117.96Z" fill="url(#paint21_linear)"/>
<path d="M691.278 126.503L671.914 128.212V147.576L691.278 145.868V126.503Z" fill="url(#paint22_linear)"/>
<path d="M559.715 80.371L540.351 68.9802V88.3445L559.715 99.7352V80.371Z" fill="url(#paint23_linear)"/>
<path d="M431 20H636.605L661.662 26.8344L728.87 68.9801L771.299 93.4702L775 117.96H693.554L691.278 126.503L671.914 128.212L650.272 117.96H600.717L551.742 89.4834L559.715 80.3709L540.351 68.9801H515.858L431 20Z" fill="#ECFF00"/>
<path d="M431 20H636.605L661.662 26.8344L728.87 68.9801L771.299 93.4702L775 117.96H693.554L691.278 126.503L671.914 128.212L650.272 117.96H600.717L551.742 89.4834L559.715 80.3709L540.351 68.9801H515.858L431 20Z" fill="#ECFF00"/>
<path d="M431 20H636.605L661.662 26.8344L728.87 68.9801L771.299 93.4702L775 117.96H693.554L691.278 126.503L671.914 128.212L650.272 117.96H600.717L551.742 89.4834L559.715 80.3709L540.351 68.9801H515.858L431 20Z" fill="#ECFF00"/>
<path d="M431 20H636.605L661.662 26.8344L728.87 68.9801L771.299 93.4702L775 117.96H693.554L691.278 126.503L671.914 128.212L650.272 117.96H600.717L551.742 89.4834L559.715 80.3709L540.351 68.9801H515.858L431 20Z" fill="#ECFF00"/>
<path d="M431 20H636.605L661.662 26.8344L728.87 68.9801L771.299 93.4702L775 117.96H693.554L691.278 126.503L671.914 128.212L650.272 117.96H600.717L551.742 89.4834L559.715 80.3709L540.351 68.9801H515.858L431 20Z" fill="#ECFF00"/>
<path d="M431 20H636.605L661.662 26.8344L728.87 68.9801L771.299 93.4702L775 117.96H693.554L691.278 126.503L671.914 128.212L650.272 117.96H600.717L551.742 89.4834L559.715 80.3709L540.351 68.9801H515.858L431 20Z" fill="#ECFF00"/>
<path d="M431 20H636.605L661.662 26.8344L728.87 68.9801L771.299 93.4702L775 117.96H693.554L691.278 126.503L671.914 128.212L650.272 117.96H600.717L551.742 89.4834L559.715 80.3709L540.351 68.9801H515.858L431 20Z" fill="#ECFF00"/>
<path d="M431 20H636.605L661.662 26.8344L728.87 68.9801L771.299 93.4702L775 117.96H693.554L691.278 126.503L671.914 128.212L650.272 117.96H600.717L551.742 89.4834L559.715 80.3709L540.351 68.9801H515.858L431 20Z" fill="#ECFF00"/>
<path d="M671.914 128.212L650.271 117.96V137.324L671.914 147.576V128.212Z" fill="url(#paint24_linear)"/>
<path d="M431 20L515.861 68.9801V88.3444L431 39.3642V20Z" fill="url(#paint25_linear)"/>
<path d="M551.742 89.4834L601.291 117.96V137.324L551.742 108.848V89.4834Z" fill="url(#paint26_linear)"/>
<path d="M691.278 126.503L693.556 117.96V137.324L691.278 145.867V126.503Z" fill="url(#paint27_linear)"/>
<path d="M45.1751 54.8417L51.8366 51.5373L51.4606 48.281L41.4684 53.2375L43.1841 68.0988L46.5148 66.4466L45.9093 61.2015L51.6642 58.3468L51.2933 55.1341L45.5384 57.9888L45.1751 54.8417ZM59.3541 48.6864C57.9351 49.3903 56.9683 50.4013 56.2141 51.6303L56.083 50.4939L52.8902 52.0776L54.1138 62.6772L57.3066 61.0935L56.6077 55.0397C57.2608 53.8377 58.1932 52.8899 59.7426 52.052L59.3541 48.6864ZM65.407 45.6145C62.3916 47.1103 60.4937 50.5242 60.862 53.715C61.2354 56.9495 63.6809 58.2781 66.6963 56.7824C69.7117 55.2866 71.6021 51.8072 71.2287 48.5727C70.8603 45.3819 68.4224 44.1188 65.407 45.6145ZM66.3628 53.7129C65.062 54.3582 64.0637 53.6519 63.8997 52.2313C63.7407 50.8544 64.4792 49.3097 65.78 48.6645C67.061 48.029 68.0569 48.7134 68.2158 50.0903C68.3798 51.5109 67.6438 53.0775 66.3628 53.7129ZM77.9904 39.2803C76.9655 39.7886 76.161 40.5805 75.4705 41.6393L75.3873 40.9181L72.1945 42.5019L73.4182 53.1015L76.6109 51.5177L75.8439 44.8738C76.315 43.9007 76.9028 43.2164 77.4941 42.9231C78.5386 42.4049 79.3117 42.784 79.4858 44.292L80.1191 49.7775L83.3315 48.184L82.6327 42.1302C82.2845 39.1142 80.4145 38.0778 77.9904 39.2803ZM92.1983 40.4122C91.5065 40.9171 90.9869 41.2904 90.5337 41.5152C89.5876 41.9845 88.9753 41.7337 88.8516 40.6628L88.5009 37.625L91.7528 36.0119L91.4021 32.9741L88.1502 34.5871L87.7339 30.9811L84.5412 32.5648L84.9574 36.1709L83.0851 37.0996L83.4358 40.1375L85.3081 39.2087L85.6715 42.3558C86.002 45.2188 87.7562 46.3358 90.0621 45.192C91.0081 44.7227 91.7075 44.2833 92.8987 43.2303L92.1983 40.4122ZM103.105 32.5296C102.737 29.3388 100.383 28.2649 97.6043 29.6434C94.5494 31.1587 92.7869 34.4823 93.1578 37.6949C93.5312 40.9294 95.8877 42.2098 99.0214 40.6554C101.386 39.4822 103.06 37.1962 103.261 34.7858L100.108 36.35C99.8876 36.9677 99.408 37.506 98.7379 37.8384C97.5159 38.4445 96.7601 38.0338 96.3928 37.1993L103.212 33.8167L103.185 33.7609C103.198 33.3382 103.15 32.923 103.105 32.5296ZM97.9196 32.3752C98.9445 31.8669 99.7049 32.1366 100.016 33.207L96.1137 35.1427C96.2266 33.9545 96.8357 32.9129 97.9196 32.3752ZM109.901 23.4512C108.876 23.9595 108.072 24.7514 107.381 25.8102L107.298 25.089L104.105 26.6727L105.329 37.2723L108.522 35.6886L107.755 29.0447C108.226 28.0716 108.814 27.3873 109.405 27.094C110.449 26.5758 111.223 26.9549 111.397 28.4629L112.03 33.9484L115.242 32.3549L114.544 26.3011C114.195 23.2851 112.325 22.2487 109.901 23.4512ZM125.524 10.8494L122.331 12.4332L122.969 17.9624C122.202 17.8117 121.299 17.9359 120.255 18.454C117.673 19.7347 115.777 23.1704 116.141 26.3175C116.507 29.4865 118.95 30.7933 121.531 29.5126C122.576 28.9944 123.408 28.2583 124.059 27.4037L124.122 27.9501L127.315 26.3663L125.524 10.8494ZM121.826 26.2931C120.526 26.9383 119.446 26.2492 119.274 24.7631C119.108 23.3207 119.918 21.6713 121.218 21.026C121.928 20.6741 122.645 20.5723 123.325 21.044L123.703 24.3222C123.201 25.3804 122.536 25.9411 121.826 26.2931ZM49.3983 85.2995C48.9744 81.6279 49.9138 78.574 51.8688 75.2936L50.9078 74.7305C48.5737 78.3376 47.5969 82.1495 48.0384 85.9741C48.4824 89.8205 50.1834 92.281 53.0549 93.329L53.7888 91.9251C51.3267 90.8127 49.8247 88.993 49.3983 85.2995ZM67.4428 67.6607L66.3785 68.1886L62.139 80.9205L55.5783 73.546L54.4943 74.0837L56.2099 88.945L57.6092 88.2509L56.2402 76.7529L61.8829 83.0347L62.829 82.5654L66.4568 71.7544L67.7591 83.2161L69.1584 82.522L67.4428 67.6607ZM80.4019 66.2696L79.0617 66.9344L79.1929 68.0708C78.2643 67.6073 77.1 67.6302 75.7401 68.3048C73.1386 69.5952 71.3023 73.0016 71.6429 75.952C71.986 78.9243 74.3673 80.2385 76.9688 78.9481C78.3287 78.2735 79.3719 77.2015 80.0987 75.9167L80.2274 77.0313L81.5675 76.3666L80.4019 66.2696ZM76.9948 77.5488C74.9846 78.546 73.2551 77.4629 73.0028 75.2775C72.753 73.1138 74.0586 70.5253 76.0689 69.5281C77.3105 68.9122 78.4849 68.9766 79.3948 69.8192L79.8969 74.1683C79.2695 75.7735 78.2365 76.9329 76.9948 77.5488ZM85.0756 63.9513L83.7354 64.6161L84.9011 74.713L86.2412 74.0482L85.4793 67.448C86.1183 65.5829 87.2838 64.1268 88.7766 63.3401L88.6126 61.9195C87.1344 62.6527 85.9786 64.0117 85.2774 65.6997L85.0756 63.9513ZM94.8161 64.6882L99.2957 67.5727L101.05 66.7026L95.6632 63.182L99.1352 56.9771L97.4008 57.8375L92.8947 65.7337L91.6509 54.9593L90.3107 55.6241L92.102 71.141L93.4422 70.4762L93.1218 67.7006L94.8161 64.6882ZM110.122 51.5273L108.782 52.1921L109.612 59.3824C108.962 60.9754 107.858 62.2395 106.715 62.8065C105.059 63.6277 103.797 62.983 103.552 60.8631L102.889 55.1152L101.549 55.78L102.222 61.6153C102.55 64.4564 104.348 65.4129 106.635 64.2789C107.975 63.6141 109.072 62.469 109.811 61.1089L109.947 62.2891L111.287 61.6243L110.122 51.5273ZM118.053 47.3156C116.713 47.9804 115.65 49.0622 114.926 50.3688L114.792 49.2105L113.452 49.8753L115.243 65.3923L116.584 64.7275L115.827 58.171C116.758 58.6565 117.942 58.6237 119.282 57.959C121.903 56.6587 123.72 53.2621 123.377 50.2898C123.036 47.3394 120.675 46.0154 118.053 47.3156ZM118.973 56.7259C117.712 57.3515 116.537 57.2871 115.622 56.4008L115.13 52.1391C115.753 50.4902 116.786 49.3308 118.047 48.7051C120.038 47.7177 121.787 48.791 122.037 50.9546C122.289 53.1401 120.964 55.7385 118.973 56.7259ZM123.571 39.7261C126.031 40.8167 127.536 42.6583 127.959 46.3299C128.386 50.0234 127.444 53.0554 125.491 56.3577L126.452 56.9207C128.784 53.2918 129.763 49.5018 129.319 45.6553C128.878 41.8307 127.174 39.3484 124.305 38.3223L123.571 39.7261Z" fill="black"/>
<path d="M89.3699 480.647C87.1822 481.732 85.4552 480.671 85.1701 478.201C84.885 475.732 86.1932 473.165 88.3808 472.08C90.1546 471.2 91.4708 471.772 92.0597 473.444L95.4693 471.752C94.6114 468.111 91.6677 466.799 88.0019 468.617C83.9617 470.621 81.2828 475.393 81.8 479.873C82.3172 484.353 85.748 486.095 89.7882 484.09C93.454 482.272 95.7922 478.339 95.762 474.288L92.3524 475.979C92.1924 478.022 91.1436 479.767 89.3699 480.647ZM111.275 457.396L108.792 458.628L104.958 468.918L99.2723 463.35L96.8087 464.572L98.5244 479.433L101.855 477.781L100.97 470.295L104.559 473.945L104.561 473.967L106.414 473.048L106.411 473.026L108.799 466.457L109.66 473.91L112.99 472.258L111.275 457.396ZM119.052 453.192C115.898 454.756 113.947 457.711 114.29 460.683C114.563 463.044 115.964 463.805 118.678 463.128L120.948 462.58C122.119 462.253 122.455 462.641 122.513 463.144C122.607 463.952 122.014 464.778 120.773 465.393C119.196 466.176 118.08 465.897 117.712 464.693L114.382 466.346C115.121 469.861 118.022 470.085 121.038 468.589C124.388 466.927 126.381 463.975 126.038 461.003C125.743 458.446 124.02 458.145 121.508 458.767L119.58 459.215C118.547 459.473 117.975 459.387 117.882 458.579C117.771 457.617 118.479 456.711 119.622 456.144C120.982 455.47 121.701 455.922 122.007 456.948L125.357 455.286C124.56 451.453 121.22 452.117 119.052 453.192ZM86.4928 505.685C86.069 502.013 87.0083 498.959 88.9634 495.679L88.0024 495.116C85.6683 498.723 84.6914 502.535 85.1329 506.359C85.577 510.206 87.278 512.666 90.1494 513.714L90.8834 512.31C88.4212 511.198 86.9192 509.378 86.4928 505.685ZM101.792 500.545L104.026 504.012L105.524 503.269L97.7056 491.319L96.3851 491.974L92.0234 509.966L93.5213 509.223L94.7561 504.035L101.792 500.545ZM101.056 499.408L95.1636 502.331L97.2499 493.509L101.056 499.408ZM106.293 487.175L108.009 502.036L109.408 501.342L108.843 496.447L111.937 494.912C115.13 493.328 117.007 490.271 116.656 487.233C116.315 484.283 114.039 483.333 110.964 484.858L106.293 487.175ZM108.679 495.026L107.857 487.901L111.069 486.308C113.355 485.174 115.034 485.82 115.276 487.918C115.526 490.081 114.178 492.298 111.892 493.433L108.679 495.026ZM120.068 480.342L118.669 481.036L120.384 495.897L121.784 495.203L120.068 480.342ZM122.654 478.967C125.114 480.057 126.618 481.899 127.042 485.571C127.468 489.264 126.527 492.296 124.574 495.598L125.535 496.162C127.867 492.533 128.846 488.743 128.402 484.896C127.96 481.072 126.257 478.589 123.388 477.563L122.654 478.967Z" fill="black"/>
<path d="M28.0346 279.667C24.8812 281.231 22.9302 284.186 23.2734 287.159C23.5459 289.519 24.9465 290.28 27.6606 289.604L29.931 289.055C31.1018 288.728 31.4383 289.116 31.4963 289.619C31.5897 290.427 30.9973 291.253 29.7557 291.869C28.179 292.651 27.0633 292.372 26.6952 291.169L23.3644 292.821C24.1036 296.336 27.0051 296.56 30.0205 295.065C33.3709 293.403 35.3638 290.45 35.0207 287.478C34.7255 284.921 33.0029 284.62 30.491 285.242L28.5632 285.69C27.5303 285.948 26.9578 285.862 26.8644 285.054C26.7534 284.092 27.4615 283.186 28.6046 282.619C29.9645 281.945 30.6834 282.397 30.9895 283.424L34.3399 281.762C33.5432 277.928 30.2025 278.592 28.0346 279.667ZM44.1652 284.351C43.4734 284.856 42.9538 285.229 42.5006 285.454C41.5545 285.923 40.9422 285.673 40.8185 284.602L40.4678 281.564L43.7197 279.951L43.369 276.913L40.1171 278.526L39.7008 274.92L36.508 276.504L36.9243 280.11L35.052 281.039L35.4027 284.076L37.275 283.148L37.6384 286.295C37.9689 289.158 39.7231 290.275 42.029 289.131C42.975 288.662 43.6744 288.222 44.8656 287.169L44.1652 284.351ZM55.0779 271.105L51.8851 272.689L51.9507 273.257C51.1832 273.106 50.2807 273.23 49.2361 273.749C46.6543 275.029 44.7589 278.465 45.1247 281.634C45.488 284.781 47.931 286.088 50.5128 284.807C51.5573 284.289 52.3892 283.553 53.0406 282.698L53.1088 283.288L56.3015 281.705L55.0779 271.105ZM50.8079 281.588C49.5071 282.233 48.4274 281.544 48.2583 280.08C48.0893 278.615 48.8991 276.966 50.1998 276.321C50.9093 275.969 51.6269 275.867 52.3064 276.338L52.6849 279.617C52.182 280.675 51.5174 281.236 50.8079 281.588ZM65.4134 273.811C64.7216 274.316 64.2021 274.689 63.7488 274.914C62.8028 275.383 62.1904 275.133 62.0668 274.062L61.7161 271.024L64.968 269.411L64.6173 266.373L61.3654 267.986L60.9491 264.38L57.7563 265.964L58.1726 269.57L56.3003 270.499L56.651 273.536L58.5233 272.608L58.8866 275.755C59.2171 278.618 60.9713 279.735 63.2772 278.591C64.2233 278.122 64.9227 277.682 66.1138 276.629L65.4134 273.811ZM67.9676 262.955C68.9925 262.447 69.7416 261.174 69.6104 260.038C69.4766 258.879 68.5308 258.447 67.5059 258.956C66.4614 259.474 65.732 260.737 65.8657 261.895C65.9969 263.031 66.9231 263.473 67.9676 262.955ZM69.7755 263.814L66.5827 265.398L67.8064 275.998L70.9992 274.414L69.7755 263.814ZM77.6456 268.206C76.2857 268.88 75.3293 268.176 75.1628 266.734C74.9962 265.291 75.6978 263.788 77.0577 263.113C78.0432 262.625 78.8455 262.897 79.1142 263.78L82.1296 262.284C81.5975 259.66 79.353 258.809 76.7121 260.119C73.6967 261.615 71.7568 265.027 72.1277 268.239C72.5011 271.474 74.9759 272.696 77.9913 271.2C80.6322 269.89 82.4477 267.025 82.3491 264.186L79.3337 265.681C79.2871 266.721 78.631 267.717 77.6456 268.206ZM93.473 247.207C90.3196 248.771 88.3686 251.726 88.7118 254.698C88.9843 257.059 90.3848 257.82 93.0989 257.144L95.3694 256.595C96.5402 256.268 96.8767 256.656 96.9347 257.159C97.0281 257.967 96.4357 258.793 95.1941 259.408C93.6174 260.191 92.5017 259.912 92.1336 258.708L88.8028 260.361C89.542 263.876 92.4435 264.1 95.4589 262.604C98.8093 260.942 100.802 257.99 100.459 255.018C100.164 252.461 98.4413 252.16 95.9294 252.782L94.0015 253.23C92.9687 253.488 92.3962 253.402 92.3028 252.594C92.1918 251.632 92.8999 250.726 94.043 250.159C95.4029 249.485 96.1218 249.937 96.4279 250.963L99.7783 249.301C98.9816 245.468 95.6409 246.132 93.473 247.207ZM103.054 245.551C104.079 245.042 104.828 243.77 104.697 242.633C104.563 241.475 103.617 241.043 102.592 241.551C101.548 242.069 100.819 243.332 100.952 244.491C101.083 245.627 102.01 246.069 103.054 245.551ZM104.862 246.41L101.669 247.994L102.893 258.593L106.086 257.01L104.862 246.41ZM115.262 249.084C114.57 249.589 114.051 249.962 113.597 250.187C112.651 250.656 112.039 250.406 111.915 249.335L111.565 246.297L114.817 244.684L114.466 241.646L111.214 243.259L110.798 239.653L107.605 241.237L108.021 244.843L106.149 245.772L106.5 248.809L108.372 247.881L108.735 251.028C109.066 253.891 110.82 255.008 113.126 253.864C114.072 253.395 114.771 252.955 115.962 251.902L115.262 249.084ZM126.169 241.202C125.8 238.011 123.447 236.937 120.668 238.315C117.613 239.831 115.851 243.154 116.222 246.367C116.595 249.601 118.952 250.882 122.085 249.327C124.45 248.154 126.124 245.868 126.325 243.458L123.172 245.022C122.951 245.64 122.472 246.178 121.802 246.51C120.58 247.116 119.824 246.706 119.457 245.871L126.276 242.489L126.248 242.433C126.262 242.01 126.214 241.595 126.169 241.202ZM120.983 241.047C122.008 240.539 122.769 240.809 123.08 241.879L119.178 243.815C119.29 242.626 119.899 241.585 120.983 241.047ZM45.683 305.453L38.5091 309.011L38.8446 311.918L42.6928 310.055C42.2065 311.799 41.1223 313.237 39.5654 314.01C37.1806 315.193 35.4436 314.044 35.1736 311.706C34.8709 309.083 36.2406 306.509 38.5268 305.375C39.7291 304.778 41.1247 304.594 41.9153 306.028L45.4037 304.297C44.4234 301.04 41.3483 300.394 38.0766 302.017C33.9773 304.05 31.2787 308.832 31.8136 313.465C32.3055 317.726 35.6256 319.592 39.8235 317.509C41.6958 316.581 43.0043 315.1 43.8186 313.309L44.1635 315.033L46.6468 313.801L45.683 305.453ZM57.7073 302.469C57.3389 299.278 54.9854 298.204 52.2065 299.583C49.1517 301.098 47.3891 304.422 47.76 307.634C48.1334 310.869 50.49 312.149 53.6236 310.595C55.9886 309.422 57.6626 307.135 57.8636 304.725L54.7102 306.289C54.4898 306.907 54.0102 307.445 53.3401 307.778C52.1181 308.384 51.3623 307.973 50.9951 307.139L57.8142 303.756L57.7869 303.7C57.8006 303.278 57.7527 302.862 57.7073 302.469ZM52.5219 302.315C53.5467 301.806 54.3071 302.076 54.6182 303.146L50.7159 305.082C50.8288 303.894 51.4379 302.852 52.5219 302.315ZM64.5034 293.39C63.4786 293.899 62.674 294.691 61.9836 295.75L61.9003 295.028L58.7075 296.612L59.9312 307.212L63.124 305.628L62.357 298.984C62.8281 298.011 63.4159 297.327 64.0071 297.033C65.0517 296.515 65.8247 296.894 65.9988 298.402L66.6321 303.888L69.8446 302.294L69.1457 296.24C68.7975 293.224 66.9276 292.188 64.5034 293.39ZM80.6877 291.07C80.3193 287.879 77.9658 286.805 75.1869 288.183C72.1321 289.699 70.3695 293.022 70.7404 296.235C71.1138 299.469 73.4704 300.75 76.604 299.195C78.969 298.022 80.643 295.736 80.844 293.326L77.6906 294.89C77.4702 295.508 76.9906 296.046 76.3205 296.378C75.0986 296.985 74.3427 296.574 73.9755 295.739L80.7946 292.357L80.7673 292.301C80.7811 291.878 80.7331 291.463 80.6877 291.07ZM75.5023 290.915C76.5271 290.407 77.2876 290.677 77.5987 291.747L73.6964 293.683C73.8092 292.495 74.4183 291.453 75.5023 290.915ZM88.1519 281.822C86.7329 282.525 85.7661 283.536 85.0119 284.766L84.8807 283.629L81.688 285.213L82.9116 295.812L86.1044 294.229L85.4055 288.175C86.0586 286.973 86.991 286.025 88.5404 285.187L88.1519 281.822ZM99.613 276.321L96.4202 277.905L96.4858 278.473C95.7183 278.322 94.8158 278.447 93.7712 278.965C91.1894 280.246 89.294 283.681 89.6598 286.85C90.0231 289.997 92.4661 291.304 95.0479 290.023C96.0924 289.505 96.9243 288.769 97.5758 287.915L97.6439 288.505L100.837 286.921L99.613 276.321ZM95.343 286.804C94.0422 287.449 92.9625 286.76 92.7935 285.296C92.6244 283.831 93.4342 282.182 94.735 281.537C95.4445 281.185 96.162 281.083 96.8416 281.555L97.22 284.833C96.7171 285.891 96.0525 286.452 95.343 286.804ZM109.949 279.027C109.257 279.532 108.737 279.906 108.284 280.13C107.338 280.6 106.726 280.349 106.602 279.278L106.251 276.24L109.503 274.627L109.152 271.589L105.9 273.202L105.484 269.596L102.291 271.18L102.708 274.786L100.835 275.715L101.186 278.753L103.058 277.824L103.422 280.971C103.752 283.834 105.506 284.951 107.812 283.807C108.758 283.338 109.458 282.899 110.649 281.846L109.949 279.027ZM115.453 268.21C112.438 269.706 110.54 273.119 110.908 276.31C111.281 279.545 113.727 280.873 116.742 279.378C119.758 277.882 121.648 274.402 121.275 271.168C120.906 267.977 118.468 266.714 115.453 268.21ZM116.409 276.308C115.108 276.953 114.11 276.247 113.946 274.826C113.787 273.45 114.525 271.905 115.826 271.26C117.107 270.624 118.103 271.309 118.262 272.685C118.426 274.106 117.69 275.673 116.409 276.308ZM128.704 261.706C127.285 262.41 126.319 263.421 125.565 264.65L125.433 263.513L122.241 265.097L123.464 275.697L126.657 274.113L125.958 268.059C126.611 266.857 127.544 265.909 129.093 265.071L128.704 261.706ZM21.8613 346.379C21.4375 342.707 22.3768 339.654 24.3319 336.373L23.3709 335.81C21.0368 339.417 20.0599 343.229 20.5014 347.054C20.9455 350.9 22.6465 353.361 25.5179 354.409L26.2519 353.005C23.7897 351.892 22.2877 350.073 21.8613 346.379ZM34.5961 331.374L33.1771 332.078L34.272 341.563C34.5799 344.229 33.4041 346.499 31.4333 347.477C29.561 348.406 28.124 347.871 27.6432 346.053L26.2242 346.757C26.8625 349.398 28.9195 350.249 31.521 348.958C34.4575 347.502 36.1074 344.465 35.6936 340.881L34.5961 331.374ZM47.091 330.213L45.7508 330.878L45.882 332.015C44.9533 331.551 43.7891 331.574 42.4292 332.248C39.8277 333.539 37.9914 336.945 38.332 339.896C38.6751 342.868 41.0564 344.182 43.6579 342.892C45.0178 342.217 46.0609 341.145 46.7878 339.86L46.9164 340.975L48.2566 340.31L47.091 330.213ZM43.6839 341.493C41.6736 342.49 39.9442 341.407 39.6918 339.221C39.4421 337.058 40.7477 334.469 42.758 333.472C43.9996 332.856 45.1739 332.92 46.0838 333.763L46.5859 338.112C45.9586 339.717 44.9255 340.877 43.6839 341.493ZM59.1797 324.217L57.7213 324.94L55.1593 334.876L50.705 328.421L49.2663 329.134L54.7678 337.08L56.0094 336.465L59.1797 324.217ZM69.5517 319.072L68.2116 319.737L68.3428 320.873C67.4141 320.409 66.2499 320.432 64.89 321.107C62.2884 322.397 60.4521 325.804 60.7927 328.754C61.1359 331.727 63.5172 333.041 66.1187 331.75C67.4786 331.076 68.5217 330.004 69.2485 328.719L69.3772 329.834L70.7174 329.169L69.5517 319.072ZM66.1447 330.351C64.1344 331.348 62.4049 330.265 62.1526 328.08C61.9028 325.916 63.2085 323.327 65.2187 322.33C66.4604 321.714 67.6347 321.779 68.5446 322.621L69.0467 326.971C68.4193 328.576 67.3863 329.735 66.1447 330.351ZM73.0791 324.693C73.6397 326.841 75.3501 327.217 77.7151 326.044C79.9422 324.94 81.4048 322.989 81.1778 321.022C80.9557 319.099 79.4833 319.159 78.135 319.574L76.2815 320.124C74.9555 320.551 74.3947 320.205 74.3064 319.44C74.1928 318.456 74.999 317.317 76.4377 316.603C77.9749 315.841 79.0411 316.051 79.3699 317.275L80.6115 316.659C80.1864 314.42 78.1515 314.483 76.2989 315.401C74.1113 316.487 72.7891 318.39 72.9985 320.204C73.1953 321.909 74.4636 322.065 76.0114 321.575L78.1262 320.942C79.0702 320.635 79.7836 320.859 79.8871 321.755C80.0132 322.848 79.0888 324.046 77.6107 324.779C75.8369 325.659 74.7753 325.307 74.3405 324.067L73.0791 324.693ZM88.3059 319.289C86.2563 320.306 84.7117 319.2 84.4594 317.015C84.2096 314.851 85.3454 312.416 87.3951 311.399C88.8733 310.666 90.0804 311.015 90.535 312.245L91.9343 311.551C91.31 309.573 89.4238 308.937 87.2362 310.022C84.477 311.391 82.7564 314.717 83.0995 317.689C83.4452 320.683 85.7057 322.034 88.4649 320.666C90.6525 319.581 92.1956 317.244 92.3203 314.894L90.921 315.589C90.7843 317.112 89.7841 318.556 88.3059 319.289ZM95.5314 306.185L94.1912 306.85L95.3569 316.947L96.697 316.282L95.9351 309.682C96.5741 307.817 97.7396 306.36 99.2324 305.574L99.0684 304.153C97.5902 304.886 96.4344 306.245 95.7332 307.933L95.5314 306.185ZM101.914 300.038C102.446 299.774 102.812 299.153 102.744 298.563C102.679 297.995 102.214 297.763 101.682 298.027C101.17 298.282 100.806 298.924 100.872 299.492C100.94 300.082 101.402 300.292 101.914 300.038ZM102.91 302.525L101.57 303.19L102.735 313.287L104.075 312.622L102.91 302.525ZM111.11 298.18C109.77 298.845 108.707 299.926 107.983 301.233L107.849 300.075L106.509 300.739L108.3 316.256L109.641 315.592L108.884 309.035C109.815 309.521 110.999 309.488 112.339 308.823C114.96 307.523 116.777 304.126 116.434 301.154C116.093 298.204 113.731 296.88 111.11 298.18ZM112.03 307.59C110.769 308.216 109.594 308.151 108.679 307.265L108.187 303.003C108.81 301.354 109.843 300.195 111.104 299.569C113.095 298.582 114.844 299.655 115.094 301.819C115.346 304.004 114.02 306.603 112.03 307.59ZM125.403 300.656C124.928 301.053 124.369 301.446 123.896 301.681C122.516 302.365 121.78 301.945 121.568 300.109L120.97 294.929L124.419 293.218L124.271 291.929L120.822 293.64L120.39 289.903L119.05 290.567L119.481 294.305L117.057 295.507L117.206 296.797L119.63 295.594L120.228 300.774C120.531 303.396 121.749 304.202 123.838 303.165C124.449 302.862 124.971 302.511 125.769 301.838L125.403 300.656ZM125.636 286.122C128.095 287.213 129.6 289.054 130.024 292.726C130.45 296.419 129.508 299.452 127.556 302.754L128.517 303.317C130.848 299.688 131.828 295.898 131.384 292.051C130.942 288.227 129.239 285.745 126.37 284.718L125.636 286.122Z" fill="black"/>
<path d="M79.1211 697.157L80.8368 712.019L86.2369 709.34C90.4348 707.258 93.1167 702.692 92.6071 698.278C92.105 693.929 88.7192 692.396 84.5213 694.479L79.1211 697.157ZM83.784 707.045L82.8354 698.827L84.9048 697.801C87.0727 696.725 88.9523 697.665 89.2172 699.959C89.4897 702.32 88.0214 704.943 85.8534 706.018L83.784 707.045ZM103.926 689.359L100.733 690.943L100.799 691.511C100.031 691.36 99.1285 691.484 98.084 692.003C95.5021 693.283 93.6067 696.719 93.9725 699.888C94.3358 703.035 96.7788 704.342 99.3606 703.061C100.405 702.543 101.237 701.807 101.888 700.952L101.957 701.542L105.149 699.959L103.926 689.359ZM99.6557 699.842C98.3549 700.487 97.2752 699.798 97.1062 698.334C96.9371 696.869 97.7469 695.22 99.0477 694.575C99.7572 694.223 100.475 694.121 101.154 694.593L101.533 697.871C101.03 698.929 100.365 699.49 99.6557 699.842ZM114.261 692.065C113.569 692.57 113.05 692.943 112.597 693.168C111.651 693.638 111.038 693.387 110.915 692.316L110.564 689.278L113.816 687.665L113.465 684.627L110.213 686.24L109.797 682.634L106.604 684.218L107.02 687.824L105.148 688.753L105.499 691.791L107.371 690.862L107.734 694.009C108.065 696.872 109.819 697.989 112.125 696.845C113.071 696.376 113.771 695.936 114.962 694.883L114.261 692.065ZM125.174 678.819L121.981 680.403L122.047 680.971C121.279 680.82 120.377 680.944 119.332 681.463C116.75 682.743 114.855 686.179 115.221 689.348C115.584 692.495 118.027 693.802 120.609 692.521C121.653 692.003 122.485 691.267 123.137 690.412L123.205 691.002L126.398 689.419L125.174 678.819ZM120.904 689.302C119.603 689.947 118.523 689.258 118.354 687.794C118.185 686.329 118.995 684.68 120.296 684.035C121.005 683.683 121.723 683.581 122.403 684.053L122.781 687.331C122.278 688.389 121.613 688.95 120.904 689.302ZM86.5436 733.053L79.9216 736.337L78.5818 724.732L75.2511 726.385L76.9667 741.246L86.9195 736.309L86.5436 733.053ZM97.3034 719.952L94.1106 721.535L94.1762 722.103C93.4087 721.953 92.5062 722.077 91.4617 722.595C88.8798 723.876 86.9844 727.311 87.3502 730.48C87.7135 733.628 90.1565 734.934 92.7383 733.654C93.7829 733.136 94.6147 732.399 95.2662 731.545L95.3343 732.135L98.5271 730.551L97.3034 719.952ZM93.0334 730.434C91.7327 731.079 90.6529 730.39 90.4839 728.926C90.3148 727.462 91.1246 725.812 92.4254 725.167C93.1349 724.815 93.8524 724.713 94.532 725.185L94.9104 728.463C94.4075 729.521 93.7429 730.082 93.0334 730.434ZM110.493 713.409L107.143 715.071L105.414 722.837L101.92 717.661L98.5304 719.343L104.302 727.825L103.039 733.489L106.389 731.827L110.493 713.409ZM121.24 713.439C120.872 710.248 118.518 709.174 115.739 710.552C112.685 712.068 110.922 715.391 111.293 718.604C111.666 721.838 114.023 723.119 117.157 721.564C119.522 720.391 121.196 718.105 121.397 715.695L118.243 717.259C118.023 717.877 117.543 718.415 116.873 718.747C115.651 719.353 114.895 718.943 114.528 718.108L121.347 714.726L121.32 714.67C121.334 714.247 121.286 713.832 121.24 713.439ZM116.055 713.284C117.08 712.776 117.84 713.046 118.151 714.116L114.249 716.052C114.362 714.863 114.971 713.822 116.055 713.284ZM128.704 704.19C127.285 704.894 126.319 705.905 125.565 707.134L125.433 705.998L122.241 707.582L123.464 718.181L126.657 716.598L125.958 710.544C126.611 709.342 127.544 708.394 129.093 707.556L128.704 704.19Z" fill="black"/>
<path d="M633.083 96.4772L635.124 99.434H638.539L635.019 94.3828L638.257 90.898H634.86L631.886 94.1012V86.938H629.035V99.434H631.886V97.762L633.083 96.4772Z" fill="#083D4A"/>
<path d="M641.032 89.5604C641.947 89.5604 642.704 88.874 642.704 87.9588C642.704 87.026 641.947 86.3396 641.032 86.3396C640.099 86.3396 639.36 87.026 639.36 87.9588C639.36 88.874 640.099 89.5604 641.032 89.5604ZM642.475 90.898H639.624V99.434H642.475V90.898Z" fill="#083D4A"/>
<path d="M648.694 97.2164C647.48 97.2164 646.741 96.3188 646.741 95.1572C646.741 93.9956 647.48 93.1156 648.694 93.1156C649.574 93.1156 650.225 93.626 650.366 94.4004H653.059C652.865 92.2004 651.053 90.7044 648.694 90.7044C646.001 90.7044 644.03 92.57 644.03 95.1572C644.03 97.762 646.001 99.6276 648.694 99.6276C651.053 99.6276 652.865 98.1316 653.059 95.9316H650.366C650.225 96.706 649.574 97.2164 648.694 97.2164Z" fill="#083D4A"/>
<path d="M658.623 96.4772L660.665 99.434H664.079L660.559 94.3828L663.798 90.898H660.401L657.426 94.1012V86.938H654.575V99.434H657.426V97.762L658.623 96.4772Z" fill="#083D4A"/>
<path d="M664.273 96.4948C664.449 98.7652 666.261 99.698 668.497 99.698C670.714 99.698 672.492 98.7828 672.492 96.8116C672.492 95.298 671.436 94.5236 669.834 94.2244L668.233 93.9604C667.564 93.8372 667.353 93.5732 667.353 93.2916C667.353 92.9572 667.687 92.6756 668.426 92.6756C669.218 92.6756 669.817 92.9748 669.869 93.626H672.404C672.281 91.3732 670.221 90.6692 668.409 90.6692C666.138 90.6692 664.607 91.7252 664.607 93.5204C664.607 95.0164 665.628 95.8436 667.106 96.09L668.831 96.3892C669.394 96.4772 669.658 96.706 669.658 96.9876C669.658 97.3572 669.201 97.586 668.444 97.586C667.546 97.586 666.93 97.2516 666.807 96.5124L664.273 96.4948Z" fill="#083D4A"/>
<path d="M680.561 96.8644C679.928 96.9876 679.452 97.0756 679.048 97.0756C678.203 97.0756 677.71 96.6532 677.71 95.7908V93.3444H680.614V90.898H677.71V87.994H674.859V90.898H673.187V93.3444H674.859V95.8788C674.859 98.1844 676.232 99.698 678.291 99.698C679.136 99.698 679.769 99.6276 680.878 99.2756L680.561 96.8644Z" fill="#083D4A"/>
<path d="M691.07 90.898H688.219V91.3556C687.585 90.9508 686.811 90.7044 685.878 90.7044C683.573 90.7044 681.637 92.6052 681.637 95.1572C681.637 97.6916 683.573 99.61 685.878 99.61C686.811 99.61 687.585 99.3636 688.219 98.9588V99.434H691.07V90.898ZM686.441 97.2692C685.28 97.2692 684.435 96.3364 684.435 95.1572C684.435 93.978 685.28 93.0276 686.441 93.0276C687.075 93.0276 687.691 93.2212 688.219 93.8372V96.4772C687.691 97.0932 687.075 97.2692 686.441 97.2692Z" fill="#083D4A"/>
<path d="M698.797 90.7572C697.53 90.7572 696.615 91.162 695.858 91.8132V90.898H693.007V99.434H695.858V94.5588C696.527 93.89 697.407 93.5204 698.797 93.4676V90.7572Z" fill="#083D4A"/>
<path d="M706.875 96.8644C706.242 96.9876 705.766 97.0756 705.362 97.0756C704.517 97.0756 704.024 96.6532 704.024 95.7908V93.3444H706.928V90.898H704.024V87.994H701.173V90.898H699.501V93.3444H701.173V95.8788C701.173 98.1844 702.546 99.698 704.605 99.698C705.45 99.698 706.083 99.6276 707.192 99.2756L706.875 96.8644Z" fill="#083D4A"/>
<path d="M708.701 87.466V99.434H713.523C717.272 99.434 719.982 96.97 719.982 93.4148C719.982 89.9124 717.272 87.466 713.523 87.466H708.701ZM711.675 96.7588V90.1412H713.523C715.459 90.1412 716.955 91.5668 716.955 93.4148C716.955 95.3156 715.459 96.7588 713.523 96.7588H711.675Z" fill="#083D4A"/>
<path d="M726.209 87.202C723.393 87.202 721.457 88.7156 721.457 91.1092C721.457 93.01 722.566 94.1188 724.924 94.6292L726.895 95.0692C727.916 95.2628 728.162 95.6852 728.162 96.09C728.162 96.7412 727.582 97.146 726.473 97.146C725.065 97.146 724.15 96.5124 723.956 95.4564H720.982C721.263 98.4132 723.692 99.6804 726.385 99.6804C729.377 99.6804 731.348 98.1844 731.348 95.7908C731.348 93.7316 729.922 92.8516 727.74 92.3764L726.068 91.9892C725.17 91.7956 724.695 91.514 724.695 90.8628C724.695 90.0884 725.382 89.666 726.402 89.666C727.617 89.666 728.18 90.282 728.338 91.1796H731.33C731.031 87.9588 728.145 87.202 726.209 87.202Z" fill="#083D4A"/>
<path d="M598 81.8333C598 80.8208 598.821 80 599.833 80H618.167C619.179 80 620 80.8208 620 81.8333V100.167C620 101.179 619.179 102 618.167 102H599.833C598.821 102 598 101.179 598 100.167V81.8333Z" fill="#06566A"/>
<path fill-rule="evenodd" clip-rule="evenodd" d="M604.891 82.75H602.813V82.7501H602.125V83.6095H602.813V97.8954L604.198 99.2844H606.594V84.4571L604.891 82.75Z" fill="#ECFF00"/>
<path fill-rule="evenodd" clip-rule="evenodd" d="M610.581 91.1372H605.769L613.922 99.2906L616.328 96.8843L610.581 91.1372Z" fill="#ECFF00"/>
<path fill-rule="evenodd" clip-rule="evenodd" d="M606.615 93.4148H610.401L617.319 86.4971H611.467L605.582 92.382L606.615 93.4148Z" fill="#06566A"/>
<path fill-rule="evenodd" clip-rule="evenodd" d="M605.253 92.4094H609.722L615.257 86.875H610.788L605.253 92.4094Z" fill="#ECFF00"/>
<rect x="612.506" y="86.8752" width="2.75" height="0.859375" fill="#ECFF00"/>
<path fill-rule="evenodd" clip-rule="evenodd" d="M612.816 99.2234L615.608 96.4316L616.191 97.0149L613.4 99.8068L612.816 99.2234Z" fill="#ECFF00"/>
<path d="M539.122 564.406H545.332V561.76H536.08V574H545.332V571.354H539.122V569.23H544.54V566.638H539.122V564.406ZM553.879 570.742H547.381V567.97H553.879V570.742ZM562.856 571.408C560.858 571.408 559.472 569.914 559.472 567.88C559.472 565.846 560.858 564.352 562.856 564.352C564.476 564.352 565.556 565.306 565.898 566.836H569.012C568.634 563.668 566.222 561.508 562.874 561.508C559.184 561.508 556.394 564.19 556.394 567.88C556.394 571.57 559.184 574.252 562.874 574.252C566.222 574.252 568.634 572.092 569.012 568.924H565.898C565.556 570.454 564.476 571.408 562.856 571.408ZM577.077 561.508C573.387 561.508 570.597 564.316 570.597 567.88C570.597 571.444 573.387 574.252 577.077 574.252C580.785 574.252 583.575 571.444 583.575 567.88C583.575 564.316 580.785 561.508 577.077 561.508ZM577.077 571.426C575.097 571.426 573.675 569.806 573.675 567.88C573.675 565.954 575.097 564.334 577.077 564.334C579.057 564.334 580.479 565.954 580.479 567.88C580.479 569.806 579.057 571.426 577.077 571.426ZM598.634 561.76H596.366L592.028 568.294L587.672 561.76H585.422V574H588.464L588.446 567.826L591.182 572.056V572.074H592.874V572.056L595.592 567.862V574H598.634V561.76ZM613.997 561.76H611.729L607.391 568.294L603.035 561.76H600.785V574H603.827L603.809 567.826L606.545 572.056V572.074H608.237V572.056L610.955 567.862V574H613.997V561.76ZM619.19 564.406H625.4V561.76H616.148V574H625.4V571.354H619.19V569.23H624.608V566.638H619.19V564.406ZM632.067 570.454L634.695 574H638.367L635.217 569.86C636.675 569.122 637.557 567.772 637.557 566.062C637.557 563.416 635.523 561.76 632.499 561.76H627.135V574H630.177V570.454H632.067ZM630.177 567.718V564.442H632.427C633.597 564.442 634.533 565.072 634.533 566.062C634.533 567.07 633.597 567.718 632.427 567.718H630.177ZM645.332 571.408C643.334 571.408 641.948 569.914 641.948 567.88C641.948 565.846 643.334 564.352 645.332 564.352C646.952 564.352 648.032 565.306 648.374 566.836H651.488C651.11 563.668 648.698 561.508 645.35 561.508C641.66 561.508 638.87 564.19 638.87 567.88C638.87 571.57 641.66 574.252 645.35 574.252C648.698 574.252 651.11 572.092 651.488 568.924H648.374C648.032 570.454 646.952 571.408 645.332 571.408ZM656.403 564.406H662.613V561.76H653.361V574H662.613V571.354H656.403V569.23H661.821V566.638H656.403V564.406ZM573.77 586.806C573.752 584.304 572.096 582.468 569.72 582.468C567.182 582.468 565.4 584.394 565.4 586.842C565.4 589.308 567.182 591.234 569.72 591.234C571.556 591.234 573.014 590.316 573.5 588.894H572.168C571.79 589.686 570.908 590.172 569.756 590.172C567.956 590.172 566.822 588.912 566.642 587.328H573.68V587.292L573.752 587.328C573.77 587.166 573.77 586.986 573.77 586.806ZM569.684 583.53C571.322 583.53 572.384 584.7 572.528 586.374H566.642C566.822 584.808 567.938 583.53 569.684 583.53ZM575.959 591.234C576.427 591.234 576.805 590.874 576.805 590.406C576.805 589.938 576.427 589.578 575.959 589.578C575.491 589.578 575.113 589.938 575.113 590.406C575.113 590.874 575.491 591.234 575.959 591.234ZM587.115 582.684H585.891V583.584C585.099 582.846 584.019 582.396 582.759 582.396C580.383 582.396 578.565 584.268 578.565 586.734C578.565 589.056 580.383 591 582.759 591C584.019 591 585.099 590.55 585.891 589.812V591.27H585.873C585.873 593.106 584.703 594.24 582.975 594.24C581.463 594.24 580.383 593.448 580.131 592.278H578.871C579.159 594.096 580.797 595.374 582.975 595.374C585.441 595.374 587.115 593.772 587.115 591.27V582.684ZM582.921 589.92C581.103 589.92 579.807 588.408 579.807 586.734C579.807 584.916 581.103 583.476 582.921 583.476C584.073 583.476 585.171 583.98 585.891 585.042V588.354C585.171 589.416 584.073 589.92 582.921 589.92ZM590.32 591.234C590.788 591.234 591.166 590.874 591.166 590.406C591.166 589.938 590.788 589.578 590.32 589.578C589.852 589.578 589.474 589.938 589.474 590.406C589.474 590.874 589.852 591.234 590.32 591.234ZM602.745 578.49C600.153 578.49 598.407 579.894 598.407 582C598.407 583.656 599.541 584.79 601.791 585.204L603.915 585.618C605.499 585.906 606.219 586.68 606.219 587.706C606.219 589.164 604.977 590.118 603.015 590.118C600.765 590.118 599.433 589.002 599.127 587.094H597.867C598.155 589.74 600.027 591.27 602.961 591.27C605.697 591.27 607.515 589.794 607.515 587.562C607.515 585.816 606.291 584.79 604.113 584.376L602.259 584.016C600.639 583.728 599.757 583.044 599.757 581.928C599.757 580.506 600.981 579.606 602.835 579.606C604.887 579.606 605.967 580.578 606.255 582.072H607.515C607.209 579.66 605.229 578.49 602.745 578.49ZM614.326 582.414C613.102 582.414 612.022 582.882 611.248 583.674V578.22H610.024V591H611.248V585.096C611.968 584.106 613.048 583.548 614.11 583.548C615.622 583.548 616.648 584.538 616.648 586.266V591H617.872V586.212C617.872 583.872 616.414 582.414 614.326 582.414ZM624.496 582.468C621.994 582.468 620.068 584.376 620.068 586.842C620.068 589.344 621.994 591.27 624.496 591.27C626.98 591.27 628.906 589.344 628.906 586.842C628.906 584.376 626.98 582.468 624.496 582.468ZM624.496 590.154C622.678 590.154 621.31 588.678 621.31 586.842C621.31 585.06 622.678 583.602 624.496 583.602C626.314 583.602 627.682 585.06 627.682 586.842C627.682 588.678 626.314 590.154 624.496 590.154ZM635.681 582.468C634.457 582.468 633.431 582.9 632.675 583.638V582.684H631.451V595.464H632.675V590.064C633.431 590.802 634.457 591.234 635.681 591.234C638.075 591.234 639.983 589.29 639.983 586.842C639.983 584.412 638.075 582.468 635.681 582.468ZM635.537 590.154C634.385 590.154 633.377 589.65 632.675 588.606V585.096C633.377 584.052 634.385 583.548 635.537 583.548C637.355 583.548 638.759 585.06 638.759 586.842C638.759 588.642 637.355 590.154 635.537 590.154ZM653.949 582.684H652.617L650.259 589.056L648.099 582.684H647.001L644.841 589.074L642.501 582.684H641.169L644.301 591H645.417L647.559 584.664L649.701 591H650.817L653.949 582.684ZM663.633 582.684H662.409V583.62C661.653 582.9 660.645 582.468 659.403 582.468C657.027 582.468 655.101 584.412 655.101 586.842C655.101 589.29 657.027 591.234 659.403 591.234C660.645 591.234 661.653 590.802 662.409 590.082V591H663.633V582.684ZM659.565 590.154C657.729 590.154 656.343 588.642 656.343 586.842C656.343 585.06 657.729 583.548 659.565 583.548C660.699 583.548 661.707 584.052 662.409 585.06V588.642C661.707 589.65 660.699 590.154 659.565 590.154ZM667.902 582.684H666.678V591H667.902V585.564C668.64 584.358 669.792 583.674 671.16 583.638V582.468C669.81 582.468 668.676 583.08 667.902 584.124V582.684ZM680.768 586.806C680.75 584.304 679.094 582.468 676.718 582.468C674.18 582.468 672.398 584.394 672.398 586.842C672.398 589.308 674.18 591.234 676.718 591.234C678.554 591.234 680.012 590.316 680.498 588.894H679.166C678.788 589.686 677.906 590.172 676.754 590.172C674.954 590.172 673.82 588.912 673.64 587.328H680.678V587.292L680.75 587.328C680.768 587.166 680.768 586.986 680.768 586.806ZM676.682 583.53C678.32 583.53 679.382 584.7 679.526 586.374H673.64C673.82 584.808 674.936 583.53 676.682 583.53Z" fill="white"/>
<path d="M683.17 431.318H677.122V421.76H674.08V434H683.17V431.318ZM692.979 431.894L693.807 434H697.029L691.845 421.688H688.947L683.745 434H686.985L687.795 431.894H692.979ZM691.971 429.302H688.803L690.387 425.234L691.971 429.302ZM709.606 421.76H706.564V428.654L700.66 421.76H698.338V434H701.38V427.286L707.248 434H709.606V421.76ZM711.75 421.76V434H716.682C720.516 434 723.288 431.48 723.288 427.844C723.288 424.262 720.516 421.76 716.682 421.76H711.75ZM714.792 431.264V424.496H716.682C718.662 424.496 720.192 425.954 720.192 427.844C720.192 429.788 718.662 431.264 716.682 431.264H714.792ZM728.063 421.76H725.021V434H728.063V421.76ZM741.493 421.76H738.451V428.654L732.547 421.76H730.225V434H733.267V427.286L739.135 434H741.493V421.76ZM756.129 427.124H749.577V429.518L753.087 429.554C752.493 430.724 751.413 431.426 749.991 431.426C747.813 431.426 746.427 429.86 746.427 427.934C746.427 425.774 747.867 424.298 749.955 424.298C751.053 424.298 752.277 424.694 752.817 426.116H756.003C755.481 423.2 752.889 421.508 749.901 421.508C746.157 421.508 743.349 424.19 743.349 428.006C743.349 431.516 746.031 434.252 749.865 434.252C751.575 434.252 752.853 433.604 753.735 432.524L753.861 434H756.129V427.124ZM762.814 421.76V434H765.856V430.886H767.494C770.842 430.886 772.93 429.104 772.93 426.242C772.93 423.488 770.932 421.76 767.746 421.76H762.814ZM765.856 428.222V424.442H767.674C769.024 424.442 769.888 425.144 769.888 426.242C769.888 427.448 769.024 428.222 767.674 428.222H765.856ZM781.098 431.894L781.926 434H785.148L779.964 421.688H777.066L771.864 434H775.104L775.914 431.894H781.098ZM780.09 429.302H776.922L778.506 425.234L780.09 429.302ZM797.965 427.124H791.413V429.518L794.923 429.554C794.329 430.724 793.249 431.426 791.827 431.426C789.649 431.426 788.263 429.86 788.263 427.934C788.263 425.774 789.703 424.298 791.791 424.298C792.889 424.298 794.113 424.694 794.653 426.116H797.839C797.317 423.2 794.725 421.508 791.737 421.508C787.993 421.508 785.185 424.19 785.185 428.006C785.185 431.516 787.867 434.252 791.701 434.252C793.411 434.252 794.689 433.604 795.571 432.524L795.697 434H797.965V427.124ZM803.403 424.406H809.613V421.76H800.361V434H809.613V431.354H803.403V429.23H808.821V426.638H803.403V424.406ZM816.087 421.49C813.207 421.49 811.227 423.038 811.227 425.486C811.227 427.43 812.361 428.564 814.773 429.086L816.789 429.536C817.833 429.734 818.085 430.166 818.085 430.58C818.085 431.246 817.491 431.66 816.357 431.66C814.917 431.66 813.981 431.012 813.783 429.932H810.741C811.029 432.956 813.513 434.252 816.267 434.252C819.327 434.252 821.343 432.722 821.343 430.274C821.343 428.168 819.885 427.268 817.653 426.782L815.943 426.386C815.025 426.188 814.539 425.9 814.539 425.234C814.539 424.442 815.241 424.01 816.285 424.01C817.527 424.01 818.103 424.64 818.265 425.558H821.325C821.019 422.264 818.067 421.49 816.087 421.49ZM711.77 446.806C711.752 444.304 710.096 442.468 707.72 442.468C705.182 442.468 703.4 444.394 703.4 446.842C703.4 449.308 705.182 451.234 707.72 451.234C709.556 451.234 711.014 450.316 711.5 448.894H710.168C709.79 449.686 708.908 450.172 707.756 450.172C705.956 450.172 704.822 448.912 704.642 447.328H711.68V447.292L711.752 447.328C711.77 447.166 711.77 446.986 711.77 446.806ZM707.684 443.53C709.322 443.53 710.384 444.7 710.528 446.374H704.642C704.822 444.808 705.938 443.53 707.684 443.53ZM713.959 451.234C714.427 451.234 714.805 450.874 714.805 450.406C714.805 449.938 714.427 449.578 713.959 449.578C713.491 449.578 713.113 449.938 713.113 450.406C713.113 450.874 713.491 451.234 713.959 451.234ZM725.115 442.684H723.891V443.584C723.099 442.846 722.019 442.396 720.759 442.396C718.383 442.396 716.565 444.268 716.565 446.734C716.565 449.056 718.383 451 720.759 451C722.019 451 723.099 450.55 723.891 449.812V451.27H723.873C723.873 453.106 722.703 454.24 720.975 454.24C719.463 454.24 718.383 453.448 718.131 452.278H716.871C717.159 454.096 718.797 455.374 720.975 455.374C723.441 455.374 725.115 453.772 725.115 451.27V442.684ZM720.921 449.92C719.103 449.92 717.807 448.408 717.807 446.734C717.807 444.916 719.103 443.476 720.921 443.476C722.073 443.476 723.171 443.98 723.891 445.042V448.354C723.171 449.416 722.073 449.92 720.921 449.92ZM728.32 451.234C728.788 451.234 729.166 450.874 729.166 450.406C729.166 449.938 728.788 449.578 728.32 449.578C727.852 449.578 727.474 449.938 727.474 450.406C727.474 450.874 727.852 451.234 728.32 451.234ZM746.901 438.76H745.623V448.804L737.595 438.76H736.533V451H737.811V441.064L745.803 451H746.901V438.76ZM758.071 446.806C758.053 444.304 756.397 442.468 754.021 442.468C751.483 442.468 749.701 444.394 749.701 446.842C749.701 449.308 751.483 451.234 754.021 451.234C755.857 451.234 757.315 450.316 757.801 448.894H756.469C756.091 449.686 755.209 450.172 754.057 450.172C752.257 450.172 751.123 448.912 750.943 447.328H757.981V447.292L758.053 447.328C758.071 447.166 758.071 446.986 758.071 446.806ZM753.985 443.53C755.623 443.53 756.685 444.7 756.829 446.374H750.943C751.123 444.808 752.239 443.53 753.985 443.53ZM765.848 449.92C765.398 450.046 764.876 450.136 764.444 450.136C763.184 450.136 762.59 449.524 762.59 448.012V443.746H765.74V442.684H762.59V439.606H761.366V442.684H759.152V443.746H761.366V448.012C761.366 450.172 762.338 451.27 764.246 451.27C764.804 451.27 765.29 451.198 766.046 450.982L765.848 449.92ZM769.463 438.22H768.239V451H769.463V438.22ZM773.374 440.362C773.86 440.362 774.238 440.02 774.238 439.534C774.238 439.066 773.86 438.706 773.374 438.706C772.906 438.706 772.528 439.066 772.528 439.534C772.528 440.02 772.906 440.362 773.374 440.362ZM773.986 442.684H772.762V451H773.986V442.684ZM779.488 442.684V440.506C779.488 439.3 780.262 438.508 781.432 438.508C781.774 438.508 782.296 438.58 782.746 438.688L782.944 437.626C782.332 437.446 781.702 437.374 781.216 437.374C779.452 437.374 778.264 438.616 778.264 440.506V442.684H775.834V443.746H778.264V451H779.488V443.746H782.836V442.684H779.488ZM792.87 442.684H791.556L788.226 450.01L784.662 442.684H783.33L787.578 451.432L785.742 455.464H787.056L792.87 442.684ZM805.171 450.028C802.327 450.028 800.113 447.814 800.113 444.88C800.113 441.946 802.327 439.732 805.171 439.732C807.475 439.732 809.149 441.046 809.671 443.062H811.003C810.409 440.362 808.177 438.508 805.171 438.508C801.643 438.508 798.817 441.28 798.817 444.88C798.817 448.48 801.643 451.252 805.171 451.252C808.177 451.252 810.409 449.398 811.003 446.698H809.671C809.149 448.714 807.475 450.028 805.171 450.028ZM825.72 438.76H824.748L819.816 447.04L814.884 438.76H813.894V451H815.172L815.136 441.514L819.384 448.588H820.248L824.46 441.568L824.442 451H825.72V438.76ZM833.381 438.49C830.789 438.49 829.043 439.894 829.043 442C829.043 443.656 830.177 444.79 832.427 445.204L834.551 445.618C836.135 445.906 836.855 446.68 836.855 447.706C836.855 449.164 835.613 450.118 833.651 450.118C831.401 450.118 830.069 449.002 829.763 447.094H828.503C828.791 449.74 830.663 451.27 833.597 451.27C836.333 451.27 838.151 449.794 838.151 447.562C838.151 445.816 836.927 444.79 834.749 444.376L832.895 444.016C831.275 443.728 830.393 443.044 830.393 441.928C830.393 440.506 831.617 439.606 833.471 439.606C835.523 439.606 836.603 440.578 836.891 442.072H838.151C837.845 439.66 835.865 438.49 833.381 438.49Z" fill="white"/>
<path d="M455.292 191.76H453.024L448.686 198.294L444.33 191.76H442.08V204H445.122L445.104 197.826L447.84 202.056V202.074H449.532V202.056L452.25 197.862V204H455.292V191.76ZM460.485 194.406H466.695V191.76H457.443V204H466.695V201.354H460.485V199.23H465.903V196.638H460.485V194.406ZM473.17 191.49C470.29 191.49 468.31 193.038 468.31 195.486C468.31 197.43 469.444 198.564 471.856 199.086L473.872 199.536C474.916 199.734 475.168 200.166 475.168 200.58C475.168 201.246 474.574 201.66 473.44 201.66C472 201.66 471.064 201.012 470.866 199.932H467.824C468.112 202.956 470.596 204.252 473.35 204.252C476.41 204.252 478.426 202.722 478.426 200.274C478.426 198.168 476.968 197.268 474.736 196.782L473.026 196.386C472.108 196.188 471.622 195.9 471.622 195.234C471.622 194.442 472.324 194.01 473.368 194.01C474.61 194.01 475.186 194.64 475.348 195.558H478.408C478.102 192.264 475.15 191.49 473.17 191.49ZM491.33 191.76H488.288V196.674H483.302V191.76H480.26V204H483.302V199.41H488.288V204H491.33V191.76ZM479.77 216.806C479.752 214.304 478.096 212.468 475.72 212.468C473.182 212.468 471.4 214.394 471.4 216.842C471.4 219.308 473.182 221.234 475.72 221.234C477.556 221.234 479.014 220.316 479.5 218.894H478.168C477.79 219.686 476.908 220.172 475.756 220.172C473.956 220.172 472.822 218.912 472.642 217.328H479.68V217.292L479.752 217.328C479.77 217.166 479.77 216.986 479.77 216.806ZM475.684 213.53C477.322 213.53 478.384 214.7 478.528 216.374H472.642C472.822 214.808 473.938 213.53 475.684 213.53ZM481.959 221.234C482.427 221.234 482.805 220.874 482.805 220.406C482.805 219.938 482.427 219.578 481.959 219.578C481.491 219.578 481.113 219.938 481.113 220.406C481.113 220.874 481.491 221.234 481.959 221.234ZM493.115 212.684H491.891V213.584C491.099 212.846 490.019 212.396 488.759 212.396C486.383 212.396 484.565 214.268 484.565 216.734C484.565 219.056 486.383 221 488.759 221C490.019 221 491.099 220.55 491.891 219.812V221.27H491.873C491.873 223.106 490.703 224.24 488.975 224.24C487.463 224.24 486.383 223.448 486.131 222.278H484.871C485.159 224.096 486.797 225.374 488.975 225.374C491.441 225.374 493.115 223.772 493.115 221.27V212.684ZM488.921 219.92C487.103 219.92 485.807 218.408 485.807 216.734C485.807 214.916 487.103 213.476 488.921 213.476C490.073 213.476 491.171 213.98 491.891 215.042V218.354C491.171 219.416 490.073 219.92 488.921 219.92ZM496.32 221.234C496.788 221.234 497.166 220.874 497.166 220.406C497.166 219.938 496.788 219.578 496.32 219.578C495.852 219.578 495.474 219.938 495.474 220.406C495.474 220.874 495.852 221.234 496.32 221.234ZM515.968 214.88L516.004 214.592H509.974V215.762H514.654C514.33 218.174 512.692 220.01 510.082 220.01C507.166 220.01 505.06 217.724 505.06 214.952C505.06 211.946 507.31 209.732 510.19 209.732C512.098 209.732 513.988 210.776 514.6 212.792H515.968C515.302 210.092 512.854 208.508 510.172 208.508C506.626 208.508 503.764 211.28 503.764 214.952C503.764 218.408 506.482 221.252 510.082 221.252C512.368 221.252 513.97 220.118 514.834 218.39L514.942 221H515.986V214.88H515.968ZM527.165 212.684H525.941V213.62C525.185 212.9 524.177 212.468 522.935 212.468C520.559 212.468 518.633 214.412 518.633 216.842C518.633 219.29 520.559 221.234 522.935 221.234C524.177 221.234 525.185 220.802 525.941 220.082V221H527.165V212.684ZM523.097 220.154C521.261 220.154 519.875 218.642 519.875 216.842C519.875 215.06 521.261 213.548 523.097 213.548C524.231 213.548 525.239 214.052 525.941 215.06V218.642C525.239 219.65 524.231 220.154 523.097 220.154ZM535.447 219.92C534.997 220.046 534.475 220.136 534.043 220.136C532.783 220.136 532.189 219.524 532.189 218.012V213.746H535.339V212.684H532.189V209.606H530.965V212.684H528.751V213.746H530.965V218.012C530.965 220.172 531.937 221.27 533.845 221.27C534.403 221.27 534.889 221.198 535.645 220.982L535.447 219.92ZM537.245 218.426C537.515 220.316 538.955 221.27 541.115 221.27C543.149 221.27 544.607 220.316 544.607 218.696C544.607 217.112 543.329 216.59 542.123 216.392L540.467 216.104C539.279 215.924 538.829 215.438 538.829 214.808C538.829 213.998 539.639 213.422 540.953 213.422C542.357 213.422 543.257 213.998 543.419 215.078H544.553C544.409 213.17 542.645 212.432 540.953 212.432C538.955 212.432 537.623 213.404 537.623 214.898C537.623 216.302 538.703 216.914 540.089 217.13L541.979 217.454C542.825 217.58 543.419 218.03 543.419 218.768C543.419 219.668 542.501 220.244 541.151 220.244C539.531 220.244 538.649 219.56 538.397 218.426H537.245ZM551.525 212.468C550.301 212.468 549.275 212.9 548.519 213.62V208.22H547.295V221H548.519V220.064C549.275 220.784 550.301 221.216 551.525 221.216C553.919 221.216 555.827 219.272 555.827 216.842C555.827 214.412 553.919 212.468 551.525 212.468ZM551.381 220.136C550.229 220.136 549.221 219.632 548.519 218.588V215.096C549.221 214.052 550.229 213.53 551.381 213.53C553.199 213.53 554.603 215.042 554.603 216.842C554.603 218.624 553.199 220.136 551.381 220.136ZM566.143 212.684H564.829L561.499 220.01L557.935 212.684H556.603L560.851 221.432L559.015 225.464H560.329L566.143 212.684ZM576.639 212.468C574.137 212.468 572.211 214.376 572.211 216.842C572.211 219.344 574.137 221.27 576.639 221.27C579.123 221.27 581.049 219.344 581.049 216.842C581.049 214.376 579.123 212.468 576.639 212.468ZM576.639 220.154C574.821 220.154 573.453 218.678 573.453 216.842C573.453 215.06 574.821 213.602 576.639 213.602C578.457 213.602 579.825 215.06 579.825 216.842C579.825 218.678 578.457 220.154 576.639 220.154ZM584.695 212.684H583.471V221H584.695V215.564C585.433 214.358 586.585 213.674 587.953 213.638V212.468C586.603 212.468 585.469 213.08 584.695 214.124V212.684ZM605.287 208.76H604.009V218.804L595.981 208.76H594.919V221H596.197V211.064L604.189 221H605.287V208.76ZM616.458 216.806C616.44 214.304 614.784 212.468 612.408 212.468C609.87 212.468 608.088 214.394 608.088 216.842C608.088 219.308 609.87 221.234 612.408 221.234C614.244 221.234 615.702 220.316 616.188 218.894H614.856C614.478 219.686 613.596 220.172 612.444 220.172C610.644 220.172 609.51 218.912 609.33 217.328H616.368V217.292L616.44 217.328C616.458 217.166 616.458 216.986 616.458 216.806ZM612.372 213.53C614.01 213.53 615.072 214.7 615.216 216.374H609.33C609.51 214.808 610.626 213.53 612.372 213.53ZM624.324 221H625.8L622.38 216.842L625.728 212.684H624.216L621.552 215.942L618.906 212.684H617.394L620.742 216.842L617.322 221H618.798L621.57 217.688L624.324 221ZM633.059 219.92C632.609 220.046 632.087 220.136 631.655 220.136C630.395 220.136 629.801 219.524 629.801 218.012V213.746H632.951V212.684H629.801V209.606H628.577V212.684H626.363V213.746H628.577V218.012C628.577 220.172 629.549 221.27 631.457 221.27C632.015 221.27 632.501 221.198 633.257 220.982L633.059 219.92ZM635.627 221.234C636.095 221.234 636.473 220.874 636.473 220.406C636.473 219.938 636.095 219.578 635.627 219.578C635.159 219.578 634.781 219.938 634.781 220.406C634.781 220.874 635.159 221.234 635.627 221.234ZM646.369 208.76H645.073V216.572C645.073 218.768 643.831 220.082 642.031 220.082C640.321 220.082 639.133 219.11 638.899 217.508H637.603C637.891 219.812 639.583 221.27 641.959 221.27C644.641 221.27 646.369 219.542 646.369 216.59V208.76ZM653.694 208.49C651.102 208.49 649.356 209.894 649.356 212C649.356 213.656 650.49 214.79 652.74 215.204L654.864 215.618C656.448 215.906 657.168 216.68 657.168 217.706C657.168 219.164 655.926 220.118 653.964 220.118C651.714 220.118 650.382 219.002 650.076 217.094H648.816C649.104 219.74 650.976 221.27 653.91 221.27C656.646 221.27 658.464 219.794 658.464 217.562C658.464 215.816 657.24 214.79 655.062 214.376L653.208 214.016C651.588 213.728 650.706 213.044 650.706 211.928C650.706 210.506 651.93 209.606 653.784 209.606C655.836 209.606 656.916 210.578 657.204 212.072H658.464C658.158 209.66 656.178 208.49 653.694 208.49Z" fill="white"/>
<path d="M500.122 740.406H506.332V737.76H497.08V750H506.332V747.354H500.122V745.23H505.54V742.638H500.122V740.406ZM512.998 746.454L515.626 750H519.298L516.148 745.86C517.606 745.122 518.488 743.772 518.488 742.062C518.488 739.416 516.454 737.76 513.43 737.76H508.066V750H511.108V746.454H512.998ZM511.108 743.718V740.442H513.358C514.528 740.442 515.464 741.072 515.464 742.062C515.464 743.07 514.528 743.718 513.358 743.718H511.108ZM520.441 737.76V750H523.483V746.886H525.121C528.469 746.886 530.557 745.104 530.557 742.242C530.557 739.488 528.559 737.76 525.373 737.76H520.441ZM523.483 744.222V740.442H525.301C526.651 740.442 527.515 741.144 527.515 742.242C527.515 743.448 526.651 744.222 525.301 744.222H523.483ZM538.31 746.742H531.812V743.97H538.31V746.742ZM546.099 737.49C543.219 737.49 541.239 739.038 541.239 741.486C541.239 743.43 542.373 744.564 544.785 745.086L546.801 745.536C547.845 745.734 548.097 746.166 548.097 746.58C548.097 747.246 547.503 747.66 546.369 747.66C544.929 747.66 543.993 747.012 543.795 745.932H540.753C541.041 748.956 543.525 750.252 546.279 750.252C549.339 750.252 551.355 748.722 551.355 746.274C551.355 744.168 549.897 743.268 547.665 742.782L545.955 742.386C545.037 742.188 544.551 741.9 544.551 741.234C544.551 740.442 545.253 740.01 546.297 740.01C547.539 740.01 548.115 740.64 548.277 741.558H551.337C551.031 738.264 548.079 737.49 546.099 737.49ZM564.188 737.76H560.822L557.816 743.088L554.828 737.76H551.462L556.304 746.31V750H559.364V746.31L564.188 737.76ZM569.355 737.49C566.475 737.49 564.495 739.038 564.495 741.486C564.495 743.43 565.629 744.564 568.041 745.086L570.057 745.536C571.101 745.734 571.353 746.166 571.353 746.58C571.353 747.246 570.759 747.66 569.625 747.66C568.185 747.66 567.249 747.012 567.051 745.932H564.009C564.297 748.956 566.781 750.252 569.535 750.252C572.595 750.252 574.611 748.722 574.611 746.274C574.611 744.168 573.153 743.268 570.921 742.782L569.211 742.386C568.293 742.188 567.807 741.9 567.807 741.234C567.807 740.442 568.509 740.01 569.553 740.01C570.795 740.01 571.371 740.64 571.533 741.558H574.593C574.287 738.264 571.335 737.49 569.355 737.49ZM586.211 740.478V737.76H575.375V740.478H579.281V750H582.323V740.478H586.211ZM590.632 740.406H596.842V737.76H587.59V750H596.842V747.354H590.632V745.23H596.05V742.638H590.632V740.406ZM611.788 737.76H609.52L605.182 744.294L600.826 737.76H598.576V750H601.618L601.6 743.826L604.336 748.056V748.074H606.028V748.056L608.746 743.862V750H611.788V737.76ZM618.925 737.49C616.045 737.49 614.065 739.038 614.065 741.486C614.065 743.43 615.199 744.564 617.611 745.086L619.627 745.536C620.671 745.734 620.923 746.166 620.923 746.58C620.923 747.246 620.329 747.66 619.195 747.66C617.755 747.66 616.819 747.012 616.621 745.932H613.579C613.867 748.956 616.351 750.252 619.105 750.252C622.165 750.252 624.181 748.722 624.181 746.274C624.181 744.168 622.723 743.268 620.491 742.782L618.781 742.386C617.863 742.188 617.377 741.9 617.377 741.234C617.377 740.442 618.079 740.01 619.123 740.01C620.365 740.01 620.941 740.64 621.103 741.558H624.163C623.857 738.264 620.905 737.49 618.925 737.49ZM534.77 762.806C534.752 760.304 533.096 758.468 530.72 758.468C528.182 758.468 526.4 760.394 526.4 762.842C526.4 765.308 528.182 767.234 530.72 767.234C532.556 767.234 534.014 766.316 534.5 764.894H533.168C532.79 765.686 531.908 766.172 530.756 766.172C528.956 766.172 527.822 764.912 527.642 763.328H534.68V763.292L534.752 763.328C534.77 763.166 534.77 762.986 534.77 762.806ZM530.684 759.53C532.322 759.53 533.384 760.7 533.528 762.374H527.642C527.822 760.808 528.938 759.53 530.684 759.53ZM536.959 767.234C537.427 767.234 537.805 766.874 537.805 766.406C537.805 765.938 537.427 765.578 536.959 765.578C536.491 765.578 536.113 765.938 536.113 766.406C536.113 766.874 536.491 767.234 536.959 767.234ZM548.115 758.684H546.891V759.584C546.099 758.846 545.019 758.396 543.759 758.396C541.383 758.396 539.565 760.268 539.565 762.734C539.565 765.056 541.383 767 543.759 767C545.019 767 546.099 766.55 546.891 765.812V767.27H546.873C546.873 769.106 545.703 770.24 543.975 770.24C542.463 770.24 541.383 769.448 541.131 768.278H539.871C540.159 770.096 541.797 771.374 543.975 771.374C546.441 771.374 548.115 769.772 548.115 767.27V758.684ZM543.921 765.92C542.103 765.92 540.807 764.408 540.807 762.734C540.807 760.916 542.103 759.476 543.921 759.476C545.073 759.476 546.171 759.98 546.891 761.042V764.354C546.171 765.416 545.073 765.92 543.921 765.92ZM551.32 767.234C551.788 767.234 552.166 766.874 552.166 766.406C552.166 765.938 551.788 765.578 551.32 765.578C550.852 765.578 550.474 765.938 550.474 766.406C550.474 766.874 550.852 767.234 551.32 767.234ZM563.745 754.49C561.153 754.49 559.407 755.894 559.407 758C559.407 759.656 560.541 760.79 562.791 761.204L564.915 761.618C566.499 761.906 567.219 762.68 567.219 763.706C567.219 765.164 565.977 766.118 564.015 766.118C561.765 766.118 560.433 765.002 560.127 763.094H558.867C559.155 765.74 561.027 767.27 563.961 767.27C566.697 767.27 568.515 765.794 568.515 763.562C568.515 761.816 567.291 760.79 565.113 760.376L563.259 760.016C561.639 759.728 560.757 759.044 560.757 757.928C560.757 756.506 561.981 755.606 563.835 755.606C565.887 755.606 566.967 756.578 567.255 758.072H568.515C568.209 755.66 566.229 754.49 563.745 754.49ZM579.29 763.436L580.874 767H582.242L576.68 754.67H575.474L569.912 767H571.28L572.864 763.436H579.29ZM578.768 762.266H573.386L576.068 756.2L578.768 762.266ZM584.511 754.76V767H585.789V762.968H588.615C591.531 762.968 593.457 761.312 593.457 758.81C593.457 756.38 591.585 754.76 588.777 754.76H584.511ZM585.789 761.798V755.93H588.723C590.811 755.93 592.197 757.082 592.197 758.81C592.197 760.592 590.811 761.798 588.723 761.798H585.789ZM610.725 754.76H609.447V760.358H602.049V754.76H600.771V767H602.049V761.528H609.447V767H610.725V754.76ZM622.391 758.684H621.077L617.747 766.01L614.183 758.684H612.851L617.099 767.432L615.263 771.464H616.577L622.391 758.684ZM628.849 758.468C627.625 758.468 626.599 758.9 625.843 759.62V754.22H624.619V767H625.843V766.064C626.599 766.784 627.625 767.216 628.849 767.216C631.243 767.216 633.151 765.272 633.151 762.842C633.151 760.412 631.243 758.468 628.849 758.468ZM628.705 766.136C627.553 766.136 626.545 765.632 625.843 764.588V761.096C626.545 760.052 627.553 759.53 628.705 759.53C630.523 759.53 631.927 761.042 631.927 762.842C631.927 764.624 630.523 766.136 628.705 766.136ZM636.812 758.684H635.588V767H636.812V761.564C637.55 760.358 638.702 759.674 640.07 759.638V758.468C638.72 758.468 637.586 759.08 636.812 760.124V758.684ZM642.939 756.362C643.425 756.362 643.803 756.02 643.803 755.534C643.803 755.066 643.425 754.706 642.939 754.706C642.471 754.706 642.093 755.066 642.093 755.534C642.093 756.02 642.471 756.362 642.939 756.362ZM643.551 758.684H642.327V767H643.551V758.684ZM646.122 764.426C646.392 766.316 647.832 767.27 649.992 767.27C652.026 767.27 653.484 766.316 653.484 764.696C653.484 763.112 652.206 762.59 651 762.392L649.344 762.104C648.156 761.924 647.706 761.438 647.706 760.808C647.706 759.998 648.516 759.422 649.83 759.422C651.234 759.422 652.134 759.998 652.296 761.078H653.43C653.286 759.17 651.522 758.432 649.83 758.432C647.832 758.432 646.5 759.404 646.5 760.898C646.5 762.302 647.58 762.914 648.966 763.13L650.856 763.454C651.702 763.58 652.296 764.03 652.296 764.768C652.296 765.668 651.378 766.244 650.028 766.244C648.408 766.244 647.526 765.56 647.274 764.426H646.122Z" fill="white"/>
<path d="M302.63 454.7C303.71 454.322 304.34 453.152 304.34 452.018C304.34 450.02 302.774 448.76 300.128 448.76H294.08V461H300.488C303.242 461 304.88 459.632 304.88 457.598C304.88 456.284 304.124 455.024 302.63 454.7ZM297.122 451.244H299.66C300.83 451.244 301.424 451.658 301.424 452.432C301.424 453.224 300.794 453.746 299.66 453.746H297.122V451.244ZM297.122 458.48V456.068H300.146C301.262 456.068 301.892 456.446 301.892 457.202C301.892 457.922 301.334 458.48 300.092 458.48H297.122ZM315.668 458.318H309.62V448.76H306.578V461H315.668V458.318ZM322.684 448.508C318.994 448.508 316.204 451.316 316.204 454.88C316.204 458.444 318.994 461.252 322.684 461.252C326.392 461.252 329.182 458.444 329.182 454.88C329.182 451.316 326.392 448.508 322.684 448.508ZM322.684 458.426C320.704 458.426 319.282 456.806 319.282 454.88C319.282 452.954 320.704 451.334 322.684 451.334C324.664 451.334 326.086 452.954 326.086 454.88C326.086 456.806 324.664 458.426 322.684 458.426ZM343.521 454.124H336.969V456.518L340.479 456.554C339.885 457.724 338.805 458.426 337.383 458.426C335.205 458.426 333.819 456.86 333.819 454.934C333.819 452.774 335.259 451.298 337.347 451.298C338.445 451.298 339.669 451.694 340.209 453.116H343.395C342.873 450.2 340.281 448.508 337.293 448.508C333.549 448.508 330.741 451.19 330.741 455.006C330.741 458.516 333.423 461.252 337.257 461.252C338.967 461.252 340.245 460.604 341.127 459.524L341.253 461H343.521V454.124ZM331.77 473.806C331.752 471.304 330.096 469.468 327.72 469.468C325.182 469.468 323.4 471.394 323.4 473.842C323.4 476.308 325.182 478.234 327.72 478.234C329.556 478.234 331.014 477.316 331.5 475.894H330.168C329.79 476.686 328.908 477.172 327.756 477.172C325.956 477.172 324.822 475.912 324.642 474.328H331.68V474.292L331.752 474.328C331.77 474.166 331.77 473.986 331.77 473.806ZM327.684 470.53C329.322 470.53 330.384 471.7 330.528 473.374H324.642C324.822 471.808 325.938 470.53 327.684 470.53ZM333.959 478.234C334.427 478.234 334.805 477.874 334.805 477.406C334.805 476.938 334.427 476.578 333.959 476.578C333.491 476.578 333.113 476.938 333.113 477.406C333.113 477.874 333.491 478.234 333.959 478.234ZM345.115 469.684H343.891V470.584C343.099 469.846 342.019 469.396 340.759 469.396C338.383 469.396 336.565 471.268 336.565 473.734C336.565 476.056 338.383 478 340.759 478C342.019 478 343.099 477.55 343.891 476.812V478.27H343.873C343.873 480.106 342.703 481.24 340.975 481.24C339.463 481.24 338.383 480.448 338.131 479.278H336.871C337.159 481.096 338.797 482.374 340.975 482.374C343.441 482.374 345.115 480.772 345.115 478.27V469.684ZM340.921 476.92C339.103 476.92 337.807 475.408 337.807 473.734C337.807 471.916 339.103 470.476 340.921 470.476C342.073 470.476 343.171 470.98 343.891 472.042V475.354C343.171 476.416 342.073 476.92 340.921 476.92ZM348.32 478.234C348.788 478.234 349.166 477.874 349.166 477.406C349.166 476.938 348.788 476.578 348.32 476.578C347.852 476.578 347.474 476.938 347.474 477.406C347.474 477.874 347.852 478.234 348.32 478.234ZM368.481 478.054L372.657 465.76H371.325L367.851 476.146L364.377 465.76H363.261L359.769 476.164L356.295 465.76H354.963L359.157 478.09H360.399L363.819 467.992L367.221 478.09H368.481V478.054ZM377.399 469.468C374.897 469.468 372.971 471.376 372.971 473.842C372.971 476.344 374.897 478.27 377.399 478.27C379.883 478.27 381.809 476.344 381.809 473.842C381.809 471.376 379.883 469.468 377.399 469.468ZM377.399 477.154C375.581 477.154 374.213 475.678 374.213 473.842C374.213 472.06 375.581 470.602 377.399 470.602C379.217 470.602 380.585 472.06 380.585 473.842C380.585 475.678 379.217 477.154 377.399 477.154ZM385.455 469.684H384.231V478H385.455V472.564C386.193 471.358 387.345 470.674 388.713 470.638V469.468C387.363 469.468 386.229 470.08 385.455 471.124V469.684ZM398.483 465.22H397.259V470.602C396.503 469.882 395.495 469.468 394.253 469.468C391.877 469.468 389.951 471.412 389.951 473.842C389.951 476.272 391.877 478.216 394.253 478.216C395.495 478.216 396.503 477.802 397.259 477.082V478H398.483V465.22ZM394.415 477.136C392.579 477.136 391.193 475.624 391.193 473.842C391.193 472.042 392.579 470.53 394.415 470.53C395.549 470.53 396.557 471.034 397.259 472.06V475.624C396.557 476.632 395.549 477.136 394.415 477.136ZM405.758 469.468C404.534 469.468 403.508 469.9 402.752 470.638V469.684H401.528V482.464H402.752V477.064C403.508 477.802 404.534 478.234 405.758 478.234C408.152 478.234 410.06 476.29 410.06 473.842C410.06 471.412 408.152 469.468 405.758 469.468ZM405.614 477.154C404.462 477.154 403.454 476.65 402.752 475.606V472.096C403.454 471.052 404.462 470.548 405.614 470.548C407.432 470.548 408.836 472.06 408.836 473.842C408.836 475.642 407.432 477.154 405.614 477.154ZM413.72 469.684H412.496V478H413.72V472.564C414.458 471.358 415.61 470.674 416.978 470.638V469.468C415.628 469.468 414.494 470.08 413.72 471.124V469.684ZM426.587 473.806C426.569 471.304 424.913 469.468 422.537 469.468C419.999 469.468 418.217 471.394 418.217 473.842C418.217 476.308 419.999 478.234 422.537 478.234C424.373 478.234 425.831 477.316 426.317 475.894H424.985C424.607 476.686 423.725 477.172 422.573 477.172C420.773 477.172 419.639 475.912 419.459 474.328H426.497V474.292L426.569 474.328C426.587 474.166 426.587 473.986 426.587 473.806ZM422.501 470.53C424.139 470.53 425.201 471.7 425.345 473.374H419.459C419.639 471.808 420.755 470.53 422.501 470.53ZM428.427 475.426C428.697 477.316 430.137 478.27 432.297 478.27C434.331 478.27 435.789 477.316 435.789 475.696C435.789 474.112 434.511 473.59 433.305 473.392L431.649 473.104C430.461 472.924 430.011 472.438 430.011 471.808C430.011 470.998 430.821 470.422 432.135 470.422C433.539 470.422 434.439 470.998 434.601 472.078H435.735C435.591 470.17 433.827 469.432 432.135 469.432C430.137 469.432 428.805 470.404 428.805 471.898C428.805 473.302 429.885 473.914 431.271 474.13L433.161 474.454C434.007 474.58 434.601 475.03 434.601 475.768C434.601 476.668 433.683 477.244 432.333 477.244C430.713 477.244 429.831 476.56 429.579 475.426H428.427ZM437.567 475.426C437.837 477.316 439.277 478.27 441.437 478.27C443.471 478.27 444.929 477.316 444.929 475.696C444.929 474.112 443.651 473.59 442.445 473.392L440.789 473.104C439.601 472.924 439.151 472.438 439.151 471.808C439.151 470.998 439.961 470.422 441.275 470.422C442.679 470.422 443.579 470.998 443.741 472.078H444.875C444.731 470.17 442.967 469.432 441.275 469.432C439.277 469.432 437.945 470.404 437.945 471.898C437.945 473.302 439.025 473.914 440.411 474.13L442.301 474.454C443.147 474.58 443.741 475.03 443.741 475.768C443.741 476.668 442.823 477.244 441.473 477.244C439.853 477.244 438.971 476.56 438.719 475.426H437.567Z" fill="white"/>
<defs>
<filter id="filter0_d" x="414" y="32.0862" width="364" height="128.212" filterUnits="userSpaceOnUse" color-interpolation-filters="sRGB">
<feFlood flood-opacity="0" result="BackgroundImageFix"/>
<feColorMatrix in="SourceAlpha" type="matrix" values="0 0 0 0 0 0 0 0 0 0 0 0 0 0 0 0 0 0 127 0" result="hardAlpha"/>
<feOffset dx="-7" dy="5"/>
<feGaussianBlur stdDeviation="5"/>
<feComposite in2="hardAlpha" operator="out"/>
<feColorMatrix type="matrix" values="0 0 0 0 0 0 0 0 0 0 0 0 0 0 0 0 0 0 0.25 0"/>
<feBlend mode="normal" in2="BackgroundImageFix" result="effect1_dropShadow"/>
<feBlend mode="normal" in="SourceGraphic" in2="effect1_dropShadow" result="shape"/>
</filter>
<radialGradient id="paint0_radial" cx="0" cy="0" r="1" gradientUnits="userSpaceOnUse" gradientTransform="translate(452 411) rotate(90) scale(394 399)">
<stop stop-color="#ECFF00"/>
<stop offset="1" stop-color="#C4C4C4" stop-opacity="0"/>
</radialGradient>
<linearGradient id="paint1_linear" x1="363.196" y1="798.808" x2="865.032" y2="794.813" gradientUnits="userSpaceOnUse">
<stop stop-color="#8EA6AC"/>
<stop offset="1" stop-color="#89A5AC"/>
</linearGradient>
<linearGradient id="paint2_linear" x1="193.997" y1="756.868" x2="425.664" y2="761.861" gradientUnits="userSpaceOnUse">
<stop stop-color="#8DA6AC"/>
<stop offset="1" stop-color="#829BA0"/>
</linearGradient>
<radialGradient id="paint3_radial" cx="0" cy="0" r="1" gradientUnits="userSpaceOnUse" gradientTransform="translate(510.889 699.251) rotate(90) scale(5.80102 49.4913)">
<stop offset="0.286458" stop-color="#434343"/>
<stop offset="1" stop-color="#06566A" stop-opacity="0"/>
</radialGradient>
<radialGradient id="paint4_radial" cx="0" cy="0" r="1" gradientUnits="userSpaceOnUse" gradientTransform="translate(333.889 699.251) rotate(90) scale(5.80102 49.4913)">
<stop offset="0.286458" stop-color="#434343"/>
<stop offset="1" stop-color="#06566A" stop-opacity="0"/>
</radialGradient>
<radialGradient id="paint5_radial" cx="0" cy="0" r="1" gradientUnits="userSpaceOnUse" gradientTransform="translate(678.889 699.251) rotate(90) scale(5.80102 49.4913)">
<stop offset="0.286458" stop-color="#434343"/>
<stop offset="1" stop-color="#06566A" stop-opacity="0"/>
</radialGradient>
<linearGradient id="paint6_linear" x1="572.578" y1="621.324" x2="796.194" y2="621.324" gradientUnits="userSpaceOnUse">
<stop stop-color="#0C88BE"/>
<stop offset="0.479167" stop-color="#0E7EAF"/>
<stop offset="1" stop-color="#06A2E6"/>
</linearGradient>
<linearGradient id="paint7_linear" x1="379.86" y1="510.35" x2="546.712" y2="512.019" gradientUnits="userSpaceOnUse">
<stop stop-color="#00A5EC"/>
<stop offset="0.71875" stop-color="#0C88BE"/>
<stop offset="1" stop-color="#0A6891"/>
</linearGradient>
<linearGradient id="paint8_linear" x1="538.393" y1="610.477" x2="574.499" y2="610.477" gradientUnits="userSpaceOnUse">
<stop stop-color="#0F7CAB"/>
<stop offset="1" stop-color="#08A3E6"/>
</linearGradient>
<radialGradient id="paint9_radial" cx="0" cy="0" r="1" gradientUnits="userSpaceOnUse" gradientTransform="translate(565.386 531.536) rotate(90) scale(5.80102 49.4913)">
<stop offset="0.286458" stop-color="#434343"/>
<stop offset="1" stop-color="#06566A" stop-opacity="0"/>
</radialGradient>
<linearGradient id="paint10_linear" x1="313.505" y1="503.712" x2="490.844" y2="503.712" gradientUnits="userSpaceOnUse">
<stop stop-color="#08526A"/>
<stop offset="1" stop-color="#045C79"/>
</linearGradient>
<linearGradient id="paint11_linear" x1="178" y1="423.374" x2="309.283" y2="424.156" gradientUnits="userSpaceOnUse">
<stop stop-color="#035C79"/>
<stop offset="1" stop-color="#064A60"/>
</linearGradient>
<linearGradient id="paint12_linear" x1="510.31" y1="499.714" x2="486.839" y2="499.714" gradientUnits="userSpaceOnUse">
<stop stop-color="#07487D"/>
<stop offset="1" stop-color="#065669"/>
</linearGradient>
<radialGradient id="paint13_radial" cx="0" cy="0" r="1" gradientUnits="userSpaceOnUse" gradientTransform="translate(314.705 428.411) rotate(90) scale(5.80102 39.7147)">
<stop offset="0.463542" stop-color="#434343"/>
<stop offset="1" stop-color="#06566A" stop-opacity="0"/>
</radialGradient>
<linearGradient id="paint14_linear" x1="574.839" y1="403.057" x2="766.986" y2="403.871" gradientUnits="userSpaceOnUse">
<stop stop-color="#06708A"/>
<stop offset="1" stop-color="#2BC1C2"/>
</linearGradient>
<linearGradient id="paint15_linear" x1="500.714" y1="479.6" x2="960.786" y2="479.6" gradientUnits="userSpaceOnUse">
<stop stop-color="#06708A"/>
<stop offset="1" stop-color="#28C5C6"/>
</linearGradient>
<radialGradient id="paint16_radial" cx="0" cy="0" r="1" gradientUnits="userSpaceOnUse" gradientTransform="translate(704.137 396.893) rotate(90) scale(5.80102 39.7147)">
<stop offset="0.463542" stop-color="#434343"/>
<stop offset="1" stop-color="#06566A" stop-opacity="0"/>
</radialGradient>
<linearGradient id="paint17_linear" x1="475.801" y1="246.84" x2="850.963" y2="246.84" gradientUnits="userSpaceOnUse">
<stop stop-color="#5B2587"/>
<stop offset="1" stop-color="#4E167C"/>
</linearGradient>
<linearGradient id="paint18_linear" x1="191" y1="78.1362" x2="397.901" y2="93.5212" gradientUnits="userSpaceOnUse">
<stop stop-color="#4E167C"/>
<stop offset="1" stop-color="#421E61"/>
</linearGradient>
<linearGradient id="paint19_linear" x1="516.43" y1="78.0928" x2="540.351" y2="78.0928" gradientUnits="userSpaceOnUse">
<stop stop-color="#D2E01A"/>
<stop offset="1" stop-color="#9CA34C"/>
</linearGradient>
<linearGradient id="paint20_linear" x1="601.861" y1="127.073" x2="649.702" y2="127.073" gradientUnits="userSpaceOnUse">
<stop stop-color="#9AA420"/>
<stop offset="1" stop-color="#9CA34C"/>
</linearGradient>
<linearGradient id="paint21_linear" x1="694.894" y1="127.073" x2="775" y2="127.073" gradientUnits="userSpaceOnUse">
<stop stop-color="#949B30"/>
<stop offset="1" stop-color="#9CA34C"/>
</linearGradient>
<linearGradient id="paint22_linear" x1="672.483" y1="137.325" x2="720.324" y2="137.325" gradientUnits="userSpaceOnUse">
<stop stop-color="#9FA82F"/>
<stop offset="1" stop-color="#9CA34C"/>
</linearGradient>
<linearGradient id="paint23_linear" x1="540.938" y1="78.0928" x2="565.583" y2="78.0928" gradientUnits="userSpaceOnUse">
<stop stop-color="#AEB833"/>
<stop offset="1" stop-color="#80872F"/>
</linearGradient>
<linearGradient id="paint24_linear" x1="650.289" y1="127.073" x2="674.934" y2="127.073" gradientUnits="userSpaceOnUse">
<stop stop-color="#AEB833"/>
<stop offset="1" stop-color="#80872F"/>
</linearGradient>
<linearGradient id="paint25_linear" x1="431" y1="38.2252" x2="516.43" y2="38.2252" gradientUnits="userSpaceOnUse">
<stop stop-color="#D2E01A"/>
<stop offset="1" stop-color="#9CA34C"/>
</linearGradient>
<linearGradient id="paint26_linear" x1="559.715" y1="112.265" x2="645.146" y2="112.265" gradientUnits="userSpaceOnUse">
<stop stop-color="#B7C037"/>
<stop offset="1" stop-color="#9CA34C"/>
</linearGradient>
<linearGradient id="paint27_linear" x1="694.046" y1="127.073" x2="690.709" y2="127.073" gradientUnits="userSpaceOnUse">
<stop stop-color="#707716"/>
<stop offset="1" stop-color="#9CA34C"/>
</linearGradient>
</defs>
</svg>
