<?xml version="1.0" standalone="no"?>
<!DOCTYPE svg PUBLIC "-//W3C//DTD SVG 20010904//EN"
 "http://www.w3.org/TR/2001/REC-SVG-20010904/DTD/svg10.dtd">
<svg version="1.0" xmlns="http://www.w3.org/2000/svg"
 width="700.000000pt" height="700.000000pt" viewBox="0 0 700.000000 700.000000"
 preserveAspectRatio="xMidYMid meet">
<metadata>
Created by potrace 1.14, written by Peter Selinger 2001-2017
</metadata>
<g transform="translate(0.000000,700.000000) scale(0.100000,-0.100000)"
fill="#000000" stroke="none">
<path d="M1090 5985 l0 -131 108 0 107 1 2 -2245 c1 -1235 2 -2261 3 -2281 0
-33 16 -52 221 -255 l220 -220 492 0 492 1 1 985 1 985 -163 162 -162 163 781
0 780 -1 309 313 c170 172 505 509 744 749 l435 436 145 1 c80 0 149 3 152 7
4 4 7 62 7 131 l0 124 -75 0 c-41 0 -446 0 -899 0 l-824 0 -344 -348 c-526
-532 -877 -882 -883 -882 -3 0 -5 426 -5 947 l0 947 -272 271 -272 272 -550 0
-551 0 0 -132z"/>
<path d="M4457 2992 l-169 -169 -584 1 c-321 1 -583 -2 -582 -6 3 -6 1597
-1617 1730 -1747 32 -31 58 -60 58 -66 0 -5 -30 -39 -66 -76 l-66 -66 92 -92
92 -93 76 75 c42 41 268 267 502 502 234 235 440 441 458 459 l33 31 -703 708
-703 708 -168 -169z"/>
</g>
</svg>
