<svg width="2560" height="600" viewBox="0 0 2560 600" fill="none" xmlns="http://www.w3.org/2000/svg">
<g clip-path="url(#clip0_736_2784)">
<g opacity="0.2">
<path d="M1493.47 498.339L1534.91 547.77L1463.25 607.834L1400.98 593.48L1361.97 516.578L1373.3 472.501L1493.47 498.339Z" fill="#ECFF00" fill-opacity="0.4"/>
<path opacity="0.2" d="M73.9504 327.812L67.0459 317.225L73.9504 279.481L111.234 250.943L215.262 258.768V304.797L175.676 335.637L73.9504 327.812Z" fill="#065669" fill-opacity="0.2"/>
<path d="M27 191.564V132.186H113.076L148.518 179.136L130.567 256.466L96.5049 280.862L27 191.564Z" fill="#ECFF00" fill-opacity="0.4"/>
<path d="M2398.83 415.744L2531.44 283.138L2500.03 251.726L2409.22 251.748L2304.02 356.951L2362.82 415.753L2398.83 415.744Z" fill="#ECFF00" fill-opacity="0.2"/>
<path opacity="0.2" d="M2312.25 391.206L2290.85 367.908L2290.85 289.348L2350.18 226.77L2411.68 226.77L2420.61 235.168L2420.61 279.328L2312.25 391.206Z" fill="#065669" fill-opacity="0.4"/>
<path opacity="0.2" d="M941.026 190.297L929.177 183.361L917.563 143.331L939.94 97.4999L1044.83 54.6039L1067.17 99.333L1043.68 148.518L941.026 190.297Z" fill="#065669" fill-opacity="0.2"/>
<path opacity="0.2" d="M511.389 530.955L514.173 544.399L492.222 579.831L443.2 593.905L341.103 544.736L359.358 498.188L411.62 482.699L511.389 530.955Z" fill="#065669" fill-opacity="0.2"/>
<circle cx="2362.58" cy="324.811" r="2.05048" transform="rotate(-15 2362.58 324.811)" fill="white"/>
<circle cx="2375.46" cy="312.16" r="1.36699" transform="rotate(-15 2375.46 312.16)" fill="white"/>
<circle cx="2372.87" cy="315.685" r="1.36699" transform="rotate(-15 2372.87 315.685)" fill="white"/>
<circle cx="2362.83" cy="309.886" r="1.36699" transform="rotate(-15 2362.83 309.886)" fill="white"/>
<circle cx="2365.05" cy="294.429" r="4.10096" transform="rotate(-15 2365.05 294.429)" fill="white"/>
<circle cx="2354.72" cy="271.724" r="1.36699" transform="rotate(-15 2354.72 271.724)" fill="white"/>
<circle cx="2370.56" cy="336.117" r="3.41747" transform="rotate(-15 2370.56 336.117)" fill="white"/>
<circle cx="2352.62" cy="285.022" r="2.05048" transform="rotate(-15 2352.62 285.022)" fill="white"/>
<circle cx="2353.94" cy="313.683" r="2.05048" transform="rotate(-15 2353.94 313.683)" fill="white"/>
<path d="M2372.16 175.931L2378.44 173.243L2395.53 130.627L2383.16 101.718L2371.95 97.2222L2349.47 153.296L2356.46 169.636L2372.16 175.931Z" fill="#06708A"/>
<path d="M2359.18 182.966L2324.62 197.747L2290.57 183.315L2295.43 168.601L2309.57 162.554L2362.42 174.891L2359.18 182.966Z" fill="#06708A"/>
<path d="M2390.6 173.433L2353.21 189.423L2327.45 254.335L2363.73 339.174L2389.3 349.426L2461.57 318.52L2471.82 292.95L2426.94 188L2390.6 173.433Z" fill="#ECFF00"/>
<circle cx="2419.83" cy="322.615" r="1.70873" transform="rotate(-23.1535 2419.83 322.615)" fill="white"/>
<circle cx="2404.7" cy="270.73" r="1.36699" transform="rotate(-23.1535 2404.7 270.73)" fill="white"/>
<circle cx="2375.9" cy="265.951" r="2.05048" transform="rotate(-23.1535 2375.9 265.951)" fill="white"/>
<circle cx="2416.44" cy="299.906" r="1.36699" transform="rotate(-23.1535 2416.44 299.906)" fill="white"/>
<circle cx="2395.99" cy="288.582" r="1.36699" transform="rotate(-23.1535 2395.99 288.582)" fill="white"/>
<circle cx="2418.24" cy="295.421" r="1.36699" transform="rotate(-23.1535 2418.24 295.421)" fill="white"/>
<path d="M2341.57 204.806L2322.87 251.459L2361.17 341.012L2396.02 354.726L2456.52 338.889L2468.84 309.461L2423.97 191.498L2393.6 179.583L2341.57 204.806Z" stroke="#065669" stroke-opacity="0.4" stroke-width="2"/>
<circle cx="2396.6" cy="303.93" r="2.05048" transform="rotate(-23.1535 2396.6 303.93)" fill="white"/>
<circle cx="2398.92" cy="324.124" r="1.70873" transform="rotate(-23.1535 2398.92 324.124)" fill="white"/>
<circle cx="2406.58" cy="285.539" r="2.05048" transform="rotate(-23.1535 2406.58 285.539)" fill="white"/>
<circle cx="2405.51" cy="277.82" r="2.05048" transform="rotate(-23.1535 2405.51 277.82)" fill="white"/>
<circle cx="2397.34" cy="276.109" r="2.73397" transform="rotate(-23.1535 2397.34 276.109)" fill="white"/>
<path d="M997.248 9.67127L1118.04 44.9133L1120.16 47.1679L1120.6 88.8055L993.479 51.7179L993.102 15.3259L995.161 11.1872L997.248 9.67127Z" fill="#518997"/>
<path d="M998.453 10.0226L1118.04 44.913L1120.16 47.1676L1120.6 88.8052L998.901 53.2996L998.453 10.0226Z" fill="#1F6779"/>
<path fill-rule="evenodd" clip-rule="evenodd" d="M1007.25 21.8768L1007.34 55.7621L1118.19 88.1021L1117.79 51.3769L1010.52 20.0809L1007.25 21.8768Z" fill="#82AAB5"/>
<path d="M1049.91 34.3355L1000.97 33.2547L999.893 82.1929L1048.83 83.2737L1049.91 34.3355Z" fill="white"/>
<path d="M1037.8 42.8559L1012.7 42.3016L1012.01 73.6723L1037.1 74.2266L1037.8 42.8559Z" fill="#06566A" fill-opacity="0.25"/>
<path fill-rule="evenodd" clip-rule="evenodd" d="M1018.78 49.1532C1019.79 49.1758 1020.63 48.3929 1020.65 47.4056C1020.68 46.4178 1019.87 45.5994 1018.86 45.5769C1017.84 45.5545 1017.01 46.3372 1016.98 47.3244C1016.96 48.3119 1017.77 49.1308 1018.78 49.1532ZM1026.7 48.5331L1032.87 57.8129L1024.72 57.6329L1020.13 57.5317L1016.76 57.4574L1020.86 51.9822L1022.47 54.3345L1026.7 48.5331Z" fill="#06566A"/>
<path d="M1034.26 60.9818L1015.44 60.5661L1015.38 63.0758L1034.2 63.4915L1034.26 60.9818Z" fill="#06566A"/>
<path d="M1034.18 64.7459L1015.35 64.3302L1015.3 66.8399L1034.12 67.2556L1034.18 64.7459Z" fill="#06566A"/>
<path d="M1029.07 68.3995L1015.27 68.0947L1015.21 70.6043L1029.02 70.9092L1029.07 68.3995Z" fill="#06566A"/>
<path fill-rule="evenodd" clip-rule="evenodd" d="M1000.36 32.614L1050.55 33.7226L1049.44 83.9156L999.252 82.8071L1000.36 32.614ZM1001.59 33.8966L1000.53 81.58L1048.22 82.6331L1049.27 34.9497L1001.59 33.8966Z" fill="#06566A"/>
<path d="M1099.44 49.2916L1052.45 35.5815L1038.74 82.5725L1085.73 96.2826L1099.44 49.2916Z" fill="white"/>
<path d="M1068.34 46.1008L1062.31 44.3431L1061.78 46.1504L1067.81 47.9081L1068.34 46.1008Z" fill="#06566A"/>
<path d="M1075.57 48.2104L1069.54 46.4527L1069.01 48.2601L1075.04 50.0178L1075.57 48.2104Z" fill="#06566A"/>
<path d="M1079.51 52.6289L1061.43 47.3557L1060.38 50.9704L1078.45 56.2436L1079.51 52.6289Z" fill="#06566A"/>
<path d="M1083.6 61.0145L1059.5 53.9837L1054.22 72.0572L1078.32 79.088L1083.6 61.0145Z" fill="#06566A"/>
<path fill-rule="evenodd" clip-rule="evenodd" d="M1064.32 58.6591L1063.85 60.2658L1063.82 60.3791L1063.54 60.297L1061.13 59.5938L1058.12 69.9227L1060.81 70.7081L1061.05 70.7796L1063.54 71.5047L1074.38 74.6685L1076.19 75.1959L1076.66 73.5891L1079.24 64.7536L1079.71 63.1469L1077.9 62.6196L1066.15 59.192L1064.32 58.6591ZM1063.4 61.8123L1061.3 69.0351L1060.53 68.8106L1062.63 61.5879L1063.4 61.8123ZM1065.36 60.8278L1077.67 64.4181L1077.05 66.5267L1064.74 62.9364L1065.36 60.8278ZM1069.86 66.3075L1064.24 64.6684L1063.89 65.8733L1069.51 67.5124L1069.86 66.3075ZM1063.54 67.0782L1069.15 68.7173L1068.8 69.9222L1063.18 68.2831L1063.54 67.0782ZM1076.68 68.2979L1071.06 66.6591L1070.71 67.8639L1076.33 69.5028L1076.68 68.2979ZM1070.36 69.0688L1075.98 70.7077L1075.62 71.9126L1070.01 70.2737L1070.36 69.0688Z" fill="white"/>
<path d="M1077.44 82.0995L1053.35 75.0687L1052.73 77.1772L1076.83 84.2081L1077.44 82.0995Z" fill="#06566A" fill-opacity="0.25"/>
<path d="M1076.48 85.413L1052.38 78.3822L1051.76 80.4908L1075.86 87.5216L1076.48 85.413Z" fill="#06566A" fill-opacity="0.25"/>
<path fill-rule="evenodd" clip-rule="evenodd" d="M1052.02 34.8037L1100.22 48.8654L1086.15 97.0613L1037.96 82.9996L1052.02 34.8037ZM1052.87 36.3602L1039.51 82.1463L1085.3 95.5048L1098.66 49.7188L1052.87 36.3602Z" fill="#06566A"/>
<path d="M1135.21 71.7678L1093.37 46.3627L1067.97 88.204L1109.81 113.609L1135.21 71.7678Z" fill="white"/>
<path d="M1122.57 81.7106L1090.38 62.1682L1080.61 78.261L1112.8 97.8034L1122.57 81.7106Z" fill="#06566A"/>
<path d="M1091.06 73.7825L1089.89 73.069L1090.28 72.4176L1091.26 73.0167C1091.44 73.1223 1091.59 73.1867 1091.73 73.2099C1091.87 73.2317 1091.99 73.2159 1092.1 73.1632C1092.21 73.1096 1092.3 73.0199 1092.38 72.8938C1092.46 72.7515 1092.51 72.6196 1092.51 72.4983C1092.51 72.3789 1092.46 72.2648 1092.37 72.156C1092.29 72.0489 1092.16 71.9418 1091.98 71.8349L1091.33 71.4382L1089 75.2756L1088.05 74.7031L1090.83 70.127L1092.43 71.0964C1092.69 71.2577 1092.92 71.4272 1093.1 71.6049C1093.28 71.784 1093.41 71.969 1093.49 72.161C1093.58 72.3524 1093.61 72.5504 1093.59 72.755C1093.58 72.9566 1093.5 73.1648 1093.37 73.3786C1093.26 73.5668 1093.11 73.715 1092.93 73.8219C1092.75 73.9306 1092.54 73.9793 1092.29 73.9691C1092.05 73.9608 1091.78 73.873 1091.48 73.7066L1091.06 73.7825ZM1089.8 75.7663L1088.41 74.9208L1089.23 74.4086L1090.25 75.0305C1090.42 75.1311 1090.57 75.1869 1090.7 75.1986C1090.84 75.2075 1090.96 75.181 1091.07 75.1198C1091.18 75.058 1091.27 74.9676 1091.34 74.8477C1091.42 74.7137 1091.47 74.5832 1091.48 74.457C1091.5 74.3317 1091.47 74.2131 1091.4 74.1008C1091.34 73.9869 1091.23 73.8806 1091.06 73.7825L1090.16 73.2312L1090.55 72.5874L1091.69 73.2745L1091.75 73.6608C1092.03 73.8259 1092.22 74.0112 1092.33 74.2166C1092.44 74.4214 1092.49 74.6282 1092.47 74.8367C1092.45 75.0463 1092.38 75.2436 1092.27 75.428C1092.09 75.7213 1091.88 75.9294 1091.63 76.0532C1091.38 76.1749 1091.1 76.2106 1090.79 76.1612C1090.49 76.113 1090.16 75.9813 1089.8 75.7663ZM1097.47 74.1578L1098.41 74.7281L1096.57 77.752C1096.36 78.1035 1096.1 78.3544 1095.81 78.5037C1095.51 78.6543 1095.2 78.7104 1094.86 78.6714C1094.52 78.6342 1094.18 78.5118 1093.84 78.3043C1093.5 78.0968 1093.23 77.8515 1093.04 77.5687C1092.85 77.2869 1092.75 76.9794 1092.75 76.6471C1092.75 76.3158 1092.85 75.974 1093.07 75.6219L1094.9 72.5986L1095.85 73.1706L1094.01 76.1945C1093.88 76.4 1093.81 76.5869 1093.8 76.7568C1093.79 76.9259 1093.82 77.0781 1093.91 77.2126C1093.99 77.3485 1094.12 77.4672 1094.29 77.5691C1094.46 77.6734 1094.62 77.7311 1094.78 77.7429C1094.94 77.7557 1095.09 77.7165 1095.23 77.6251C1095.37 77.5343 1095.51 77.3866 1095.63 77.1811L1097.47 74.1578ZM1101.23 76.4419L1098.45 81.018L1097.51 80.4477L1100.29 75.871L1101.23 76.4419ZM1102.64 77.2967L1102.19 78.0354L1098.46 75.7685L1098.91 75.0298L1102.64 77.2967ZM1105.27 78.8961L1102.5 83.4728L1101.56 82.9017L1104.33 78.3258L1105.27 78.8961ZM1106.68 79.7508L1106.23 80.4895L1102.5 78.2225L1102.95 77.4841L1106.68 79.7508ZM1109.57 84.4878L1109.44 84.7045C1109.22 85.0527 1108.99 85.336 1108.72 85.5556C1108.46 85.7747 1108.19 85.9299 1107.9 86.0205C1107.61 86.1089 1107.31 86.132 1107.01 86.0892C1106.71 86.0483 1106.42 85.9403 1106.13 85.7644C1105.84 85.5904 1105.61 85.3789 1105.43 85.1314C1105.26 84.885 1105.14 84.6125 1105.09 84.3142C1105.03 84.0137 1105.04 83.6956 1105.11 83.3608C1105.18 83.0268 1105.33 82.6859 1105.54 82.3383L1105.67 82.1211C1105.88 81.7712 1106.12 81.488 1106.38 81.2706C1106.64 81.0509 1106.92 80.8961 1107.21 80.8056C1107.5 80.7163 1107.8 80.6922 1108.09 80.7335C1108.4 80.7757 1108.69 80.8843 1108.98 81.0584C1109.27 81.2343 1109.5 81.4451 1109.67 81.6915C1109.85 81.9391 1109.96 82.2125 1110.02 82.512C1110.07 82.8125 1110.06 83.1295 1109.99 83.4637C1109.92 83.7962 1109.78 84.138 1109.57 84.4878ZM1108.48 84.1265L1108.62 83.9032C1108.77 83.66 1108.87 83.4331 1108.94 83.2222C1109.01 83.0107 1109.04 82.8164 1109.03 82.6384C1109.02 82.4604 1108.97 82.3028 1108.89 82.1648C1108.8 82.0246 1108.68 81.9067 1108.52 81.8098C1108.36 81.713 1108.2 81.6595 1108.04 81.6492C1107.88 81.6386 1107.72 81.6699 1107.55 81.7436C1107.39 81.8184 1107.24 81.9346 1107.08 82.0922C1106.92 82.25 1106.77 82.4502 1106.63 82.6935L1106.49 82.9161C1106.34 83.1572 1106.24 83.3847 1106.17 83.5979C1106.1 83.8088 1106.07 84.0047 1106.08 84.1843C1106.09 84.3623 1106.13 84.5212 1106.22 84.6614C1106.3 84.801 1106.42 84.9195 1106.58 85.0163C1106.74 85.1132 1106.9 85.1667 1107.07 85.1764C1107.23 85.1867 1107.39 85.1541 1107.55 85.0791C1107.71 85.0027 1107.87 84.8849 1108.03 84.7277C1108.18 84.5678 1108.34 84.3674 1108.48 84.1265ZM1115.29 84.9804L1112.52 89.5565L1111.57 88.9839L1111.6 84.7998L1109.73 87.8675L1108.79 87.295L1111.57 82.7189L1112.51 83.2915L1112.49 87.4805L1114.36 84.4095L1115.29 84.9804Z" fill="#ECFF00"/>
<path fill-rule="evenodd" clip-rule="evenodd" d="M1093.16 45.4993L1136.07 71.5559L1110.02 114.47L1067.1 88.4136L1093.16 45.4993ZM1093.58 47.2236L1068.83 87.9921L1109.6 112.746L1134.35 71.9773L1093.58 47.2236Z" fill="#06566A"/>
<path d="M999.553 60.0274L1124.86 96.5877L1112.29 139.663L1103.35 144.57L990.988 111.788C987.662 110.818 985.751 107.333 986.722 104.006L999.553 60.0274Z" fill="#387888"/>
<path opacity="0.1" d="M999.553 60.0274L1013.41 64.0701L1124.86 96.5877L1123.28 102.01L1011.83 69.4921L1002.94 78.6664L987.129 102.611L990.27 91.8445L999.553 60.0274Z" fill="black"/>
<path d="M998.9 53.3L1126.29 90.4681L1128.5 93.0738L1126.92 98.4958L997.695 60.793L997.143 59.3245L998.9 53.3Z" fill="#518997"/>
<path d="M998.9 53.3L1126.29 90.4681L1128.5 93.0738L999.917 56.5383L997.695 60.793L997.143 59.3245L998.9 53.3Z" fill="#387888"/>
<path d="M1040.22 64.0475L1045.64 65.6294L1047.26 69.0435L1043.66 81.3937L1035.82 79.1087L1040.22 64.0475Z" fill="#CDDDE1"/>
<path d="M1040.22 64.0475L1045.64 65.6294L1040.58 68.4028L1037.33 79.5481L1035.82 79.1087L1040.22 64.0475Z" fill="#B4CCD2"/>
<path d="M1080.58 75.824L1086 77.4059L1087.62 80.82L1084.02 93.1702L1076.19 90.8852L1080.58 75.824Z" fill="#CDDDE1"/>
<path d="M1080.58 75.824L1086 77.4059L1080.95 80.1793L1077.69 91.3246L1076.19 90.8852L1080.58 75.824Z" fill="#B4CCD2"/>
<path d="M274.121 131.144L51.7075 76.901L42.0776 95.5276L43.683 109.804L290.951 170.109L297.14 144.735L274.121 131.144Z" fill="#9BBBC3"/>
<path d="M264.754 153.97L254.137 134.837M53.0677 81.959L62.8007 104.717L53.0677 81.959ZM90.6313 115.936L81.9182 88.9951L90.6313 115.936ZM109.885 99.6562L120.502 118.789L109.885 99.6562ZM149.352 125.825L139.619 103.067L149.352 125.825ZM167.585 113.728L177.319 136.487L167.585 113.728ZM206.033 144.08L197.32 117.14L206.033 144.08ZM225.287 127.801L234.883 151.116L225.287 127.801Z" stroke="#82AAB5" stroke-width="5"/>
<path d="M48.6271 108.647L292.332 168.082L293.583 179.909L284.797 189.288L43.3227 130.396L41.0306 119.202L48.6271 108.647Z" fill="#387888"/>
<path d="M57.2034 123.146L58.5635 117.569L63.5826 118.793L66.9627 125.526L61.1344 128.832L57.2034 123.146Z" fill="#9BBBC3"/>
<path d="M162.325 148.784L163.685 143.207L168.704 144.431L172.084 151.164L166.256 154.469L162.325 148.784Z" fill="#9BBBC3"/>
<path d="M102.089 132.912L99.879 135.918L95.7105 137.264L92.888 130.668L98.1586 127.226L102.089 132.912Z" fill="#9BBBC3"/>
<path d="M242.066 167.05L239.856 170.056L235.687 171.402L232.864 164.806L238.135 161.364L242.066 167.05Z" fill="#9BBBC3"/>
<path d="M127.743 139.168L128.321 142.854L133 145.472L136.944 141.412L132.599 136.216L127.743 139.168Z" fill="#9BBBC3"/>
<path d="M198.01 156.305L198.588 159.991L203.267 162.609L207.211 158.549L202.866 153.353L198.01 156.305Z" fill="#9BBBC3"/>
<path d="M266.026 91.3549L215.368 84.0168L206.211 127.936L254.669 140.345L266.026 91.3549Z" fill="#ECFF00"/>
<path d="M266.026 91.3549L215.368 84.0168L206.211 127.936L218.294 91.2813L266.026 91.3549Z" fill="#06566A" fill-opacity="0.2"/>
<path d="M267.173 94.4948L212.274 83.3029L215.837 71.0949L267.885 81.1731L267.173 94.4948Z" fill="#ECFF00"/>
<path d="M267.173 94.4948L212.274 83.3029L215.837 71.0949L267.885 81.1731L267.173 94.4948Z" fill="#06566A" fill-opacity="0.3"/>
<path d="M212.274 83.3027L215.837 71.0947L225.863 73.0361L221.078 73.9622L216.017 78.9674L216.621 84.3629L212.274 83.3027Z" fill="#06566A" fill-opacity="0.3"/>
<path opacity="0.2" fill-rule="evenodd" clip-rule="evenodd" d="M253.794 99.2186L224.802 92.1479L217.731 121.14L246.723 128.211L253.794 99.2186ZM218.858 120.455L225.487 93.2749L232.282 94.9321L231.84 96.7441L245.43 100.058L245.872 98.2465L252.667 99.9037L246.038 127.084L218.858 120.455Z" fill="#06566A"/>
<path d="M246.027 105.484L228.812 101.286L226.824 109.44L244.038 113.638L246.027 105.484Z" fill="#06566A" fill-opacity="0.25" stroke="#06566A"/>
<path d="M243.596 115.451L226.382 111.252L224.393 119.406L241.607 123.605L243.596 115.451Z" stroke="#06566A" stroke-opacity="0.25"/>
<path d="M142.71 64.6839L136.251 63.1082L133.39 75.5695L139.681 77.1036L139.455 69.1744L142.71 64.6839Z" fill="#06566A" fill-opacity="0.3"/>
<path d="M186.618 82.6251L135.96 75.2871L126.531 120.322L176.219 131.788L186.618 82.6251Z" fill="#ECFF00"/>
<path d="M141.724 71.6762L135.96 75.2871L126.531 120.322L137.156 92.8653L137.256 80.1565L171.374 83.9239L141.724 71.6762Z" fill="#06566A" fill-opacity="0.2"/>
<path d="M190.949 75.2383L136.251 63.1075L133.39 75.5688L187.291 87.9677L190.949 75.2383Z" fill="#ECFF00"/>
<path d="M190.949 75.2383L136.251 63.1075L133.39 75.5688L187.291 87.9677L190.949 75.2383Z" fill="#06566A" fill-opacity="0.3"/>
<path opacity="0.2" fill-rule="evenodd" clip-rule="evenodd" d="M174.254 92.7787L145.261 85.708L138.191 114.7L167.183 121.771L174.254 92.7787ZM139.318 114.015L145.947 86.835L152.742 88.4922L152.3 90.3042L165.89 93.6186L166.332 91.8066L173.127 93.4638L166.498 120.644L139.318 114.015Z" fill="#06566A"/>
<path d="M169.989 98.4584L146.432 92.7134L143.67 104.038L167.227 109.783L169.989 98.4584Z" fill="#06566A"/>
<path fill-rule="evenodd" clip-rule="evenodd" d="M150.252 98.2045C150.816 98.3418 151.383 97.9967 151.52 97.4338C151.658 96.8708 151.313 96.3033 150.75 96.1659C150.187 96.0287 149.619 96.3737 149.482 96.9366C149.344 97.4995 149.69 98.0672 150.252 98.2045ZM154.753 98.8221L157.018 104.894L152.493 103.79L149.947 103.169L148.073 102.712L151.057 100.08L151.654 101.625L154.753 98.8221Z" fill="white"/>
<path d="M165.309 100.917L159.42 99.4804L159.199 100.386L165.088 101.823L165.309 100.917Z" fill="#ECFF00"/>
<path d="M164.868 102.728L158.979 101.292L158.758 102.198L164.647 103.634L164.868 102.728Z" fill="#ECFF00"/>
<path d="M162.855 104.157L158.537 103.104L158.316 104.01L162.634 105.063L162.855 104.157Z" fill="#ECFF00"/>
<path d="M159.426 110.281L150.366 108.071L149.924 109.883L158.984 112.093L159.426 110.281Z" fill="#06566A" fill-opacity="0.25"/>
<path d="M159.559 113.672L148.687 111.021L148.466 111.927L159.338 114.578L159.559 113.672Z" fill="#06566A" fill-opacity="0.25"/>
<path d="M157.984 115.208L149.377 113.109L149.156 114.015L157.764 116.114L157.984 115.208Z" fill="#06566A" fill-opacity="0.25"/>
<path d="M113.658 57.1496L62.1565 48.4241L52.9993 92.3437L101.036 104.059L113.658 57.1496Z" fill="#ECFF00"/>
<path d="M75.3388 51.6393L62.1565 48.4244L52.9993 92.3439L57.6932 93.4887L63.4885 54.9669L73.0346 53.2155L75.3388 51.6393Z" fill="#06566A" fill-opacity="0.2"/>
<path d="M58.9293 48.2339L114.833 61.277L117.485 50.4024L115.105 48.0493L63.2408 35.4006L58.9293 48.2339Z" fill="#ECFF00"/>
<path d="M58.9293 48.2339L114.833 61.277L117.485 50.4024L115.105 48.0493L63.2408 35.4006L58.9293 48.2339Z" fill="#06566A" fill-opacity="0.3"/>
<path d="M58.8775 48.2895L60.6896 48.7314L65.5432 38.6699L115.053 48.1049L63.1891 35.4561L58.8775 48.2895Z" fill="#06566A" fill-opacity="0.3"/>
<path opacity="0.2" fill-rule="evenodd" clip-rule="evenodd" d="M100.016 64.5952L71.0236 57.5245L63.9528 86.5168L92.945 93.5875L100.016 64.5952ZM65.0798 85.8318L71.7086 58.6515L78.5037 60.3087L78.0617 62.1207L91.6518 65.4351L92.0937 63.6231L98.8888 65.2803L92.26 92.4606L65.0798 85.8318Z" fill="#06566A"/>
<path d="M84.194 66.4964L72.8689 63.7344L70.5488 73.2475L81.8739 76.0095L84.194 66.4964Z" fill="#06566A"/>
<path fill-rule="evenodd" clip-rule="evenodd" d="M74.9814 68.2333C75.4036 68.3362 75.8275 68.0851 75.9281 67.6723C76.0288 67.2595 75.7682 66.8413 75.346 66.7384C74.9238 66.6354 74.4999 66.8866 74.3993 67.2994C74.2986 67.7122 74.5592 68.1303 74.9814 68.2333ZM78.3549 68.7041L80.0749 73.1711L76.6809 72.3434L74.7714 71.8777L73.3663 71.535L75.5907 69.6138L76.0446 70.7501L78.3549 68.7041Z" fill="white"/>
<path d="M95.022 71.2967L85.9619 69.0871L85.6673 70.2951L94.7274 72.5047L95.022 71.2967Z" fill="#06566A"/>
<path d="M94.5064 73.4107L85.4463 71.2011L85.1517 72.4091L94.2117 74.6187L94.5064 73.4107Z" fill="#06566A"/>
<path d="M91.5747 74.9353L84.9307 73.3149L84.6361 74.5229L91.2801 76.1433L91.5747 74.9353Z" fill="#06566A"/>
<path d="M78.5595 79.7602L69.4994 77.5506L69.2048 78.7586L78.2648 80.9682L78.5595 79.7602Z" fill="#06566A"/>
<path d="M78.0437 81.8744L68.9836 79.6648L68.689 80.8728L77.7491 83.0824L78.0437 81.8744Z" fill="#06566A"/>
<path d="M75.1122 83.3989L68.4681 81.7785L68.1735 82.9865L74.8176 84.6069L75.1122 83.3989Z" fill="#06566A"/>
<path d="M92.6466 81.0362L81.3215 78.2742L79.0015 87.7872L90.3265 90.5492L92.6466 81.0362Z" fill="#06566A"/>
<path fill-rule="evenodd" clip-rule="evenodd" d="M83.434 82.773C83.8562 82.876 84.2801 82.6248 84.3808 82.212C84.4814 81.7992 84.2208 81.3811 83.7986 81.2781C83.3764 81.1751 82.9526 81.4264 82.8519 81.8391C82.7512 82.252 83.0118 82.6701 83.434 82.773ZM86.8075 83.2438L88.5275 87.711L85.1335 86.8832L83.224 86.4175L81.8189 86.0748L84.0433 84.1535L84.4973 85.2897L86.8075 83.2438Z" fill="white"/>
<path d="M532.494 392.128L611.959 441.688L630.651 487.796L630.18 488.438L630.973 490.394L592.729 542.518L526.962 544.292L478.23 498.628L478.343 496.438L477.908 496.03L478.47 485.137L500.15 476.348L507.729 452.265L493.045 434.314L474.592 426.507L474.27 423.909L484.71 405.811L532.494 392.128Z" fill="#387888"/>
<path d="M611.96 441.688L532.494 392.128L484.71 405.811L474.27 423.909L492.723 431.716L508.23 450.673L500.15 476.348L478.47 485.137L477.908 496.03L526.64 541.694L592.407 539.921L630.651 487.796L611.96 441.688Z" fill="#518997"/>
<path opacity="0.5" d="M611.96 441.688L532.494 392.128L484.71 405.811L474.27 423.909L492.723 431.716L508.23 450.673L500.15 476.348L478.47 485.137L477.908 496.03L500.745 499.581L522.339 476.967L513.261 433.847L537.643 409.216L611.96 441.688Z" fill="#387888"/>
<path d="M533.853 425.265L535.866 437.249L523.652 442.2L518.453 429.375L528.522 423.516L533.853 425.265Z" fill="#ECFF00"/>
<path d="M561.797 422.412L549.685 423.385L547.866 436.439L561.572 438.349L564.795 427.154L561.797 422.412Z" fill="#ECFF00"/>
<path d="M561.797 422.412L549.685 423.385L547.866 436.439L561.572 438.349L564.795 427.154L561.797 422.412Z" fill="#06566A" fill-opacity="0.3"/>
<path d="M590.238 446.656L581.678 455.28L570.532 448.246L577.918 436.543L588.55 441.305L590.238 446.656Z" fill="#ECFF00"/>
<path d="M590.238 446.656L581.678 455.28L570.532 448.246L577.918 436.543L588.55 441.305L590.238 446.656Z" fill="#06566A" fill-opacity="0.5"/>
<path d="M592.34 468.053L603.445 472.985L600.836 485.904L587.271 483.164L587.939 471.534L592.34 468.053Z" fill="#ECFF00"/>
<path d="M592.34 468.053L603.445 472.985L600.836 485.904L587.271 483.164L587.939 471.534L592.34 468.053Z" fill="#06566A" fill-opacity="0.6"/>
<path d="M573.724 507.955L584.344 502.051L593.095 511.906L582.747 521.094L573.858 513.565L573.724 507.955Z" fill="#ECFF00"/>
<path d="M573.724 507.955L584.344 502.051L593.095 511.906L582.747 521.094L573.858 513.565L573.724 507.955Z" fill="#06566A" fill-opacity="0.7"/>
<path d="M512.841 459.39L501.404 475.916L532.186 510.091L548.068 493.859L538.339 478.931L527.001 473.245L523.143 464.062L512.841 459.39Z" fill="#ECFF00"/>
<path d="M513.313 471.345L503.851 481.015M524.298 476.009L515.827 482.593L512.485 489.463M532.609 486.169L526.188 492.731L519.392 496.222M538.495 493.28L527.365 506.727" stroke="#06566A" stroke-opacity="0.2" stroke-width="2"/>
<path d="M477.061 517.876L497.405 502.561L504.591 509.592L478.952 531.688L471.081 523.987L477.061 517.876Z" fill="#82AAB5"/>
<path d="M483.773 522.797L502.172 507.709L504.59 509.594L478.951 531.69L476.14 528.94L480.094 527.518L483.773 522.797Z" fill="#6A9AA6"/>
<path d="M518.621 523.321L504.591 509.593L497.405 502.561L486.727 487.461L500.015 473.881L537.315 510.377L518.621 523.321Z" fill="#B4CCD2"/>
<path d="M518.621 523.319L504.591 509.591L497.405 502.56L486.727 487.46L500.015 473.879L501.827 475.291L491.979 487.926L518.621 523.319Z" fill="#06566A" fill-opacity="0.1"/>
<path d="M551.05 485.311L516.666 549.179L520.046 551.813L557.528 490.36L551.05 485.311Z" fill="#B4CCD2"/>
<path d="M557.529 490.36L552.343 493.236L520.331 548.913L516.666 549.179L520.046 551.813L557.529 490.36Z" fill="#9BBBC3"/>
<path d="M550.071 484.996L559.003 490.286L556.838 494.501L554.069 494.014L549.009 491.074L547.59 488.964L550.071 484.996Z" fill="white"/>
<path d="M556.152 489.566L559.002 490.286L556.837 494.501L554.068 494.014L554.878 492.975L555.232 490.746L556.152 489.566Z" fill="#E6EEF0"/>
<path d="M552.03 479.337L550.837 486.371L557.528 490.361L561.939 487.06L560.801 480.66L564.623 472.612L561.827 472.27L552.03 479.337Z" fill="#ECFF00"/>
<path d="M1349.11 544.321L1384.34 537.297L1379.85 563.127L1361.31 566.824L1352.52 561.399L1349.11 544.321Z" fill="#B4CCD2"/>
<path d="M1349.11 544.321L1354.76 543.194L1357.75 558.166L1364.71 566.146L1361.31 566.824L1352.52 561.399L1349.11 544.321Z" fill="#9BBBC3"/>
<path d="M1424.55 529.155L1455.97 522.889L1460.78 547.004L1440.68 551.011L1433.97 545.939L1424.55 529.155Z" fill="#B4CCD2"/>
<path d="M1424.55 529.155L1432.82 527.504L1439.45 544.846L1444.83 550.184L1440.68 551.011L1433.97 545.939L1424.55 529.155Z" fill="#9BBBC3"/>
<path d="M1319.44 459.318L1440.45 435.186L1465.09 444.825L1478.67 512.894L1471.51 523.969L1337.66 550.661L1319.44 459.318Z" fill="#387888"/>
<path d="M1315.06 456.393L1436.07 432.261L1460.71 441.9L1474.29 509.969L1467.12 521.044L1333.27 547.736L1315.06 456.393Z" fill="#518997"/>
<path d="M1315.06 456.393L1436.59 432.158L1407.79 440.315L1326.45 459.139L1340.3 528.617L1335.29 534.497L1332.22 542.432L1315.06 456.393Z" fill="#387888"/>
<path d="M1422.14 455.172L1313.08 476.921L1323.28 528.105L1323.71 530.272L1328.09 533.192L1331.33 532.547L1446.84 509.511L1437.62 463.291L1422.14 455.172Z" fill="#82AAB5"/>
<path d="M1313.08 476.921L1421.77 455.245L1433.83 463.289L1442.46 506.586L1327 529.611L1323.16 527.479L1313.08 476.921Z" fill="#6A9AA6"/>
<path d="M1328.07 445.438L1349.99 441.066L1351.6 449.105L1329.68 453.476L1328.07 445.438Z" fill="#B4CCD2"/>
<path d="M1328.07 445.438L1349.99 441.066L1331.03 446.998L1332.22 452.97L1329.68 453.476L1328.07 445.438Z" fill="#9BBBC3"/>
<path d="M1323.7 431.115L1352.56 425.359L1355.47 439.974L1322.59 446.531L1320.55 436.301L1323.7 431.115Z" fill="#9BBBC3"/>
<path d="M1323.7 431.115L1352.56 425.359L1325.15 433.853L1323.65 437.732L1322.59 446.531L1320.55 436.301L1323.7 431.115Z" fill="#82AAB5"/>
<path d="M1357.03 486.454L1406.05 476.678L1417.03 483.687L1418.79 492.532L1360.56 504.146L1357.03 486.454Z" fill="#518997"/>
<path d="M1355.15 485.2L1404.17 475.424L1415.15 482.433L1416.91 491.279L1358.68 502.892L1355.15 485.2Z" fill="#1F6779"/>
<path d="M1375.75 487.703L1405.33 481.805L1405.17 488.345L1377.94 493.775L1375.75 487.703Z" fill="#ECFF00"/>
<path d="M1375.75 487.703L1405.33 481.805L1405.17 488.345L1377.94 493.775L1375.75 487.703Z" fill="#06566A" fill-opacity="0.3"/>
<path d="M1367.3 489.388L1395.31 483.802L1395.15 490.343L1369.49 495.46L1367.3 489.388Z" fill="#ECFF00"/>
<path d="M1342.75 484.492L1335.56 485.926L1333.06 489.708L1334.48 496.87L1335.99 497.873L1346.31 495.815L1344.25 485.494L1342.75 484.492Z" fill="#518997"/>
<path d="M1335.56 485.926L1342.75 484.492L1344.8 494.812L1334.48 496.87L1333.06 489.708L1335.56 485.926Z" fill="#1F6779"/>
<path d="M1345.69 499.237L1335.37 501.295L1337.42 511.615L1338.93 512.617L1346.28 511.151L1348.68 507.744L1347.19 500.239L1345.69 499.237Z" fill="#518997"/>
<path d="M1335.37 501.295L1345.69 499.237L1347.18 506.742L1344.78 510.149L1337.42 511.615L1335.37 501.295Z" fill="#1F6779"/>
<path d="M1415.59 406.172L1406.16 401.716L1401.38 420.577L1407.63 421.534L1404.77 434.779L1416.01 415.18L1409.01 416.024L1415.59 406.172Z" fill="#ECFF00"/>
<path d="M1369.48 409.741L1360.91 415.678L1374.85 429.248L1378.81 424.312L1388.84 433.419L1377.49 413.882L1374.73 420.361L1369.48 409.741Z" fill="#ECFF00"/>
</g>
<path d="M1707.07 505.81L1730.25 188.187L1907.05 126.274L2226.5 157.692L2190.6 563.62L1796.54 549.796L1707.07 505.81Z" fill="#E6EEF0"/>
<path d="M1732.82 506.086L1753.7 188.424L1913 126.502L2200.84 157.925L2168.49 563.903L1813.43 550.077L1732.82 506.086Z" stroke="black" stroke-width="4"/>
<path d="M2072.32 188.815L2097.58 175.729L2114.96 201.513L2226.58 167.873L2247.35 366.913L2087.59 486.23L2013.47 484.009L2008.15 466.349L1995.7 405.344L2027.09 385.389L2014.49 343.566L1985.9 333.477L1949.31 251.435L1950.57 251.057L2065.88 216.303L2072.32 188.815Z" fill="#06566A"/>
<path d="M1950.57 251.057L1949.31 251.435L1943.87 253.074L1950.57 251.057Z" fill="#06566A"/>
<path opacity="0.35" d="M2072.32 188.815L2097.58 175.729L2114.96 201.513L2226.58 167.873L2247.35 366.913L2087.59 486.23L2013.47 484.009L2008.15 466.349L1995.7 405.344L2027.09 385.389L2014.49 343.566L1985.9 333.477L1949.31 251.435L2065.88 216.303L2072.32 188.815Z" fill="black"/>
<path d="M2063.02 174.687L2088.27 161.601L2105.66 187.385L2217.28 153.745L2238.05 352.785L2078.29 472.102L2004.17 469.881L1998.85 452.221L1986.39 391.216L2017.79 371.262L2005.18 329.438L1976.59 319.349L1940.01 237.307L2056.58 202.175L2063.02 174.687Z" fill="#06566A"/>
<path d="M2085.44 244.069H2069.96V244.071H2064.84V250.481H2069.96V357.041L2080.28 367.398H2098.13V323.458L2090.8 316.117H2121.43L2156.24 281.248H2162.64V274.839L2162.64 274.837H2129.36L2098.13 306.123V256.803L2085.44 244.069Z" fill="#ECFF00"/>
<path d="M2108.95 323.616L2148.34 363.067L2144.47 366.941L2148.81 371.292L2152.68 367.418L2152.71 367.442L2170.63 349.494L2135.64 314.45L2126.48 323.616H2108.95Z" fill="#ECFF00"/>
<path d="M1739.17 277.583L1764.8 264.304L1782.96 291.238L1900.29 255.879L1937.41 339.134L1966.42 349.372L1979.22 391.813L1947.36 412.063L1963.64 491.837L1733.21 484.934L1641.34 333.919L1732.4 306.474L1739.17 277.583Z" fill="#F03E2F"/>
<path d="M1739.17 277.583L1764.8 264.304L1782.96 291.238L1900.29 255.879L1937.41 339.134L1966.42 349.372L1979.22 391.813L1947.36 412.063L1963.64 491.837L1733.21 484.934L1641.34 333.919L1732.4 306.474L1739.17 277.583Z" fill="black" fill-opacity="0.2"/>
<path d="M1724.79 269.254L1750.42 255.975L1768.58 282.909L1885.9 247.55L1923.03 330.804L1952.04 341.043L1964.83 383.484L1932.97 403.734L1949.26 483.508L1718.82 476.605L1626.95 325.59L1718.02 298.144L1724.79 269.254Z" fill="#F03E2F"/>
<path d="M1760.89 332.695C1760.64 348.806 1770.62 358.549 1790.81 363.92L1812.22 369.149C1831.34 373.777 1842.85 384.713 1842.58 402.234C1842.61 409.869 1839.97 417.281 1835.1 423.228C1835.37 405.748 1826.31 396.159 1804.2 390.134L1783.18 385.093C1766.35 381.043 1753.45 371.999 1753.75 352.969C1753.77 345.618 1756.28 338.486 1760.89 332.695Z" fill="white"/>
<path opacity="0.8" d="M1822.29 397.627C1831.37 403.529 1835.26 411.647 1835.08 423.207C1827.34 432.634 1813.94 437.784 1798.27 437.54C1771.91 437.129 1753.66 424.093 1749.91 401.877L1775.22 402.272C1778.32 412.493 1786.88 417.339 1798.4 417.519C1812.46 417.738 1821.93 410.513 1822.31 397.587" fill="white"/>
<path opacity="0.8" d="M1773.68 356.784C1769.53 354.276 1766.15 350.712 1763.9 346.471C1761.65 342.229 1760.61 337.469 1760.89 332.695C1768.36 323.344 1781.18 317.762 1796.69 318.004C1823.55 318.423 1838.87 332.601 1842.4 352.276L1818.04 351.896C1815.48 344.121 1808.85 337.995 1796.59 337.804C1783.49 337.599 1774.44 344.951 1773.74 356.785" fill="white"/>
</g>
<defs>
<clipPath id="clip0_736_2784">
<rect width="2560" height="600" fill="white"/>
</clipPath>
</defs>
</svg>
