<svg width="1470" height="453" viewBox="0 0 1470 453" fill="none" xmlns="http://www.w3.org/2000/svg">
<path opacity="0.15" d="M962.931 130.187L954.068 124.998L945.381 95.0562L962.119 60.7741L1040.57 28.6878L1057.29 62.1453L1039.71 98.936L962.931 130.187Z" fill="white"/>
<path opacity="0.15" d="M67.7768 355.137L69.221 348.277L86.7321 336.182L112.547 339.612L150.277 383.48L132.225 401.532L104.604 398.102L67.7768 355.137Z" fill="white"/>
<path opacity="0.15" d="M102.799 283.288L126.087 260L159.845 293.758L155.332 326.072L117.963 349.36L95.0363 345.569L102.799 283.288Z" fill="#ECFF00"/>
<path opacity="0.15" d="M1112.46 353.06L1150.01 343L1164.59 397.426L1140.91 427.792L1088.97 429.542L1067.78 412.138L1112.46 353.06Z" fill="#ECFF00"/>
<path opacity="0.15" d="M365.911 88.6808L367.97 98.6217L351.739 124.82L315.491 135.227L240 98.8711L253.498 64.4525L292.141 53L365.911 88.6808Z" fill="white"/>
<path opacity="0.15" d="M1333.16 40.4372L1251.08 87.8257L1262.31 107.269L1306.64 119.136L1371.76 81.5405L1350.75 45.1442L1333.16 40.4372Z" fill="#ECFF00"/>
<path opacity="0.15" d="M1338 68L1353.9 68.6742L1381.84 96.6045L1383 139.945L1361.13 161.807L1354.96 162L1339.25 146.3L1338 68Z" fill="white"/>
<path opacity="0.15" d="M695.086 325.613L735.287 353.283L695.176 411.559L646.872 413.677L602.882 365.487L602.238 331.057L695.086 325.613Z" fill="#ECFF00"/>
</svg>
