<svg width="453" height="453" viewBox="0 0 453 453" fill="none" xmlns="http://www.w3.org/2000/svg">
<rect width="453" height="453" fill="white"/>
<path opacity="0.2" d="M43.4759 28.8315L48.5749 29.905L57.5652 42.9209L55.0157 62.1093L22.4089 90.1539L8.9904 76.7354L11.5399 56.2051L43.4759 28.8315Z" fill="#06566A"/>
<path opacity="0.25" d="M96.8812 54.8633L114.191 72.1731L89.0985 97.2656L65.0795 93.911L47.7696 66.1348L50.5875 49.0933L96.8812 54.8633Z" fill="#ECFF00"/>
<path opacity="0.2" d="M104.906 328.412L106 333.61L97.3753 347.311L78.1143 352.753L38 333.741L45.1723 315.742L65.7064 309.753L104.906 328.412Z" fill="#06566A"/>
<path opacity="0.25" d="M366.29 43.3143L299.435 81.9132L308.578 97.7499L344.688 107.416L397.728 76.7938L380.612 47.1483L366.29 43.3143Z" fill="#ECFF00"/>
<path opacity="0.2" d="M380 57.7527L393.073 58.3193L416.049 81.7926L417 118.217L399.015 136.591L393.944 136.753L381.029 123.558L380 57.7527Z" fill="#06566A"/>
<path opacity="0.2" d="M309.275 426.455L304.578 423.706L299.974 407.837L308.844 389.668L350.424 372.663L359.282 390.395L349.968 409.893L309.275 426.455Z" fill="#06566A"/>
<path opacity="0.25" d="M431.694 332.492L453 347.157L431.742 378.042L406.142 379.165L382.828 353.625L382.487 335.378L431.694 332.492Z" fill="#ECFF00"/>
<g opacity="0.3">
<path d="M246.443 63.1198L156.021 41.0674L152.106 48.64L152.759 54.4441L253.286 78.9609L255.801 68.6451L246.443 63.1198Z" fill="#9BBBC3"/>
<path d="M242.635 72.3997L238.319 64.6212M156.574 43.1237L160.531 52.3759L156.574 43.1237ZM171.846 56.9369L168.303 45.9842L171.846 56.9369ZM179.673 50.3185L183.989 58.097L179.673 50.3185ZM195.718 60.9576L191.761 51.7053L195.718 60.9576ZM203.131 56.0395L207.088 65.2918L203.131 56.0395ZM218.762 68.379L215.22 57.4264L218.762 68.379ZM226.59 61.7606L230.491 71.2396L226.59 61.7606Z" stroke="#82AAB5" stroke-width="5"/>
<path d="M154.769 53.9735L253.847 78.137L254.355 82.9452L250.783 86.7581L152.612 62.8158L151.68 58.2648L154.769 53.9735Z" fill="#387888"/>
<path d="M158.255 59.8685L158.808 57.6012L160.849 58.0988L162.223 60.8361L159.853 62.1798L158.255 59.8685Z" fill="#9BBBC3"/>
<path d="M200.993 70.2915L201.546 68.0242L203.586 68.5218L204.96 71.2591L202.591 72.6028L200.993 70.2915Z" fill="#9BBBC3"/>
<path d="M176.504 63.8389L175.605 65.0609L173.91 65.6084L172.763 62.9265L174.906 61.5274L176.504 63.8389Z" fill="#9BBBC3"/>
<path d="M233.411 77.7173L232.513 78.9393L230.818 79.4868L229.67 76.805L231.813 75.4058L233.411 77.7173Z" fill="#9BBBC3"/>
<path d="M186.933 66.382L187.168 67.8805L189.07 68.945L190.674 67.2943L188.907 65.1819L186.933 66.382Z" fill="#9BBBC3"/>
<path d="M215.5 73.349L215.735 74.8475L217.637 75.9121L219.241 74.2614L217.474 72.1489L215.5 73.349Z" fill="#9BBBC3"/>
<path d="M243.152 46.9437L222.557 43.9604L218.834 61.8159L238.535 66.8607L243.152 46.9437Z" fill="#ECFF00"/>
<path d="M243.152 46.9437L222.557 43.9604L218.834 61.8159L223.747 46.9138L243.152 46.9437Z" fill="#06566A" fill-opacity="0.2"/>
<path d="M243.618 48.2204L221.299 43.6703L222.748 38.7071L243.908 42.8044L243.618 48.2204Z" fill="#ECFF00"/>
<path d="M243.618 48.2204L221.299 43.6703L222.748 38.7071L243.908 42.8044L243.618 48.2204Z" fill="#06566A" fill-opacity="0.3"/>
<path d="M221.299 43.6702L222.748 38.7071L226.824 39.4964L224.878 39.8729L222.821 41.9077L223.067 44.1012L221.299 43.6702Z" fill="#06566A" fill-opacity="0.3"/>
<path d="M193.018 36.1008L190.392 35.4602L189.229 40.5263L191.786 41.15L191.695 37.9264L193.018 36.1008Z" fill="#06566A" fill-opacity="0.3"/>
<path d="M210.869 43.3947L190.274 40.4115L186.441 58.7203L206.641 63.382L210.869 43.3947Z" fill="#ECFF00"/>
<path d="M192.617 38.9435L190.274 40.4115L186.441 58.7203L190.76 47.5578L190.801 42.3911L204.671 43.9227L192.617 38.9435Z" fill="#06566A" fill-opacity="0.2"/>
<path d="M212.63 40.3915L190.392 35.4597L189.229 40.5258L211.142 45.5666L212.63 40.3915Z" fill="#ECFF00"/>
<path d="M212.63 40.3915L190.392 35.4597L189.229 40.5258L211.142 45.5666L212.63 40.3915Z" fill="#06566A" fill-opacity="0.3"/>
<path d="M181.207 33.0376L160.269 29.4902L156.546 47.3457L176.075 52.1086L181.207 33.0376Z" fill="#ECFF00"/>
<path d="M165.628 30.7975L160.269 29.4905L156.546 47.3459L158.455 47.8114L160.811 32.1504L164.692 31.4383L165.628 30.7975Z" fill="#06566A" fill-opacity="0.2"/>
<path d="M158.957 29.4132L181.685 34.7159L182.763 30.2948L181.795 29.3381L160.71 24.1958L158.957 29.4132Z" fill="#ECFF00"/>
<path d="M158.957 29.4132L181.685 34.7159L182.763 30.2948L181.795 29.3381L160.71 24.1958L158.957 29.4132Z" fill="#06566A" fill-opacity="0.3"/>
<path d="M158.936 29.4357L159.673 29.6153L161.646 25.5248L181.774 29.3606L160.689 24.2183L158.936 29.4357Z" fill="#06566A" fill-opacity="0.3"/>
</g>
<g opacity="0.5">
<path d="M114.749 321.323L148.879 342.609L156.908 362.412L156.705 362.688L157.046 363.528L140.62 385.915L112.373 386.677L91.4429 367.064L91.4914 366.124L91.3046 365.949L91.5457 361.27L100.857 357.495L104.113 347.152L97.8059 339.442L89.8802 336.088L89.7419 334.973L94.2259 327.199L114.749 321.323Z" fill="#387888"/>
<path d="M148.879 342.609L114.749 321.323L94.2259 327.199L89.7419 334.973L97.6675 338.326L104.328 346.468L100.857 357.495L91.5457 361.27L91.3046 365.949L112.235 385.561L140.482 384.8L156.908 362.412L148.879 342.609Z" fill="#518997"/>
<path opacity="0.5" d="M148.879 342.609L114.749 321.323L94.2259 327.199L89.7419 334.973L97.6675 338.326L104.328 346.468L100.857 357.495L91.5457 361.27L91.3046 365.949L101.113 367.474L110.387 357.761L106.489 339.241L116.961 328.662L148.879 342.609Z" fill="#387888"/>
<path d="M115.333 335.555L116.197 340.702L110.951 342.828L108.718 337.32L113.043 334.804L115.333 335.555Z" fill="#ECFF00"/>
<path d="M127.335 334.329L122.132 334.748L121.351 340.354L127.238 341.174L128.622 336.366L127.335 334.329Z" fill="#ECFF00"/>
<path d="M127.335 334.329L122.132 334.748L121.351 340.354L127.238 341.174L128.622 336.366L127.335 334.329Z" fill="#06566A" fill-opacity="0.3"/>
<path d="M139.55 344.742L135.874 348.446L131.087 345.425L134.259 340.399L138.825 342.444L139.55 344.742Z" fill="#ECFF00"/>
<path d="M139.55 344.742L135.874 348.446L131.087 345.425L134.259 340.399L138.825 342.444L139.55 344.742Z" fill="#06566A" fill-opacity="0.5"/>
<path d="M140.453 353.932L145.223 356.051L144.102 361.599L138.276 360.423L138.563 355.427L140.453 353.932Z" fill="#ECFF00"/>
<path d="M140.453 353.932L145.223 356.051L144.102 361.599L138.276 360.423L138.563 355.427L140.453 353.932Z" fill="#06566A" fill-opacity="0.6"/>
<path d="M132.458 371.07L137.019 368.534L140.777 372.767L136.333 376.714L132.515 373.48L132.458 371.07Z" fill="#ECFF00"/>
<path d="M132.458 371.07L137.019 368.534L140.777 372.767L136.333 376.714L132.515 373.48L132.458 371.07Z" fill="#06566A" fill-opacity="0.7"/>
<path d="M106.308 350.212L101.396 357.31L114.617 371.988L121.438 365.016L117.259 358.605L112.39 356.163L110.733 352.218L106.308 350.212Z" fill="#ECFF00"/>
<path d="M106.511 355.346L102.447 359.499M111.229 357.349L107.591 360.177L106.155 363.128M114.798 361.713L112.041 364.531L109.122 366.031M117.326 364.767L112.546 370.543" stroke="#06566A" stroke-opacity="0.2" stroke-width="2"/>
<path d="M90.9405 375.331L99.6783 368.753L102.765 371.773L91.7526 381.264L88.3723 377.956L90.9405 375.331Z" fill="#82AAB5"/>
<path d="M93.8233 377.445L101.726 370.965L102.764 371.774L91.7521 381.265L90.5448 380.083L92.243 379.473L93.8233 377.445Z" fill="#6A9AA6"/>
<path d="M108.791 377.67L102.765 371.774L99.6784 368.754L95.0922 362.268L100.799 356.436L116.819 372.111L108.791 377.67Z" fill="#B4CCD2"/>
<path d="M108.791 377.669L102.765 371.773L99.6785 368.753L95.0923 362.268L100.8 356.435L101.578 357.041L97.3479 362.468L108.791 377.669Z" fill="#06566A" fill-opacity="0.1"/>
<path d="M122.719 361.344L107.951 388.776L109.403 389.907L125.501 363.513L122.719 361.344Z" fill="#B4CCD2"/>
<path d="M125.501 363.513L123.274 364.748L109.525 388.662L107.951 388.776L109.403 389.907L125.501 363.513Z" fill="#9BBBC3"/>
<path d="M122.298 361.209L126.135 363.482L125.205 365.292L124.016 365.083L121.842 363.82L121.233 362.914L122.298 361.209Z" fill="white"/>
<path d="M124.91 363.172L126.134 363.481L125.204 365.292L124.015 365.083L124.363 364.636L124.515 363.679L124.91 363.172Z" fill="#E6EEF0"/>
<path d="M123.14 358.779L122.627 361.8L125.501 363.514L127.396 362.096L126.907 359.347L128.549 355.891L127.347 355.744L123.14 358.779Z" fill="#ECFF00"/>
</g>
<g opacity="0.4">
<path d="M296.08 321.334L367.611 340.5L368.891 341.799L369.685 366.293L294.409 346.122L293.714 324.715L294.872 322.253L296.08 321.334Z" fill="#518997"/>
<path d="M296.794 321.525L367.61 340.5L368.891 341.799L369.685 366.292L297.62 346.983L296.794 321.525Z" fill="#1F6779"/>
<path fill-rule="evenodd" clip-rule="evenodd" d="M302.122 328.386L302.618 348.322L368.258 365.91L367.547 344.307L304.026 327.286L302.122 328.386Z" fill="#82AAB5"/>
<path d="M298.091 350.933L372.297 370.816L365.462 396.325L360.26 399.328L293.724 381.5C291.754 380.972 290.585 378.947 291.113 376.976L298.091 350.933Z" fill="#387888"/>
<path opacity="0.1" d="M298.091 350.933L306.296 353.132L372.297 370.816L371.437 374.027L305.436 356.342L300.326 361.856L291.334 376.151L293.042 369.775L298.091 350.933Z" fill="black"/>
<path d="M297.62 346.983L373.06 367.197L374.393 368.702L373.533 371.912L297.008 351.408L296.664 350.551L297.62 346.983Z" fill="#518997"/>
<path d="M297.62 346.983L373.06 367.197L374.393 368.702L298.26 348.875L297.008 351.408L296.664 350.551L297.62 346.983Z" fill="#387888"/>
<path d="M322.071 352.77L325.281 353.63L326.278 355.618L324.319 362.931L319.681 361.689L322.071 352.77Z" fill="#CDDDE1"/>
<path d="M322.071 352.77L325.281 353.63L322.341 355.328L320.573 361.928L319.681 361.689L322.071 352.77Z" fill="#B4CCD2"/>
<path d="M345.973 359.175L349.184 360.035L350.181 362.023L348.221 369.336L343.584 368.094L345.973 359.175Z" fill="#CDDDE1"/>
<path d="M345.973 359.175L349.184 360.035L346.244 361.732L344.475 368.333L343.584 368.094L345.973 359.175Z" fill="#B4CCD2"/>
</g>
<path d="M92.8387 280.024L93.7933 276.461C97.1388 264.255 100.833 254.8 104.875 248.096C108.987 241.411 113.703 236.386 119.023 233.019C124.342 229.653 130.388 226.93 137.159 224.851C142.239 223.217 146.893 221.357 151.121 219.271C155.349 217.184 158.962 214.596 161.961 211.506C164.979 208.346 167.097 204.496 168.313 199.956C169.605 195.135 169.585 190.6 168.253 186.35C166.921 182.1 164.561 178.472 161.173 175.468C157.855 172.483 153.856 170.363 149.175 169.109C144.635 167.892 140.067 167.754 135.472 168.694C130.897 169.565 126.792 171.609 123.159 174.829C119.545 177.978 116.866 182.389 115.121 188.061L72.3691 176.606C76.462 162.728 82.9036 152.1 91.6939 144.722C100.503 137.274 110.746 132.719 122.422 131.056C134.117 129.323 146.287 130.15 158.931 133.538C172.833 137.263 184.51 142.863 193.962 150.337C203.434 157.742 210.048 166.589 213.804 176.88C217.561 187.171 217.801 198.428 214.525 210.653C212.335 218.827 209.027 225.727 204.599 231.354C200.26 236.93 195.025 241.517 188.894 245.115C182.783 248.644 175.92 251.484 168.305 253.637C161.906 255.441 156.449 257.648 151.931 260.256C147.484 262.882 143.76 266.302 140.759 270.514C137.829 274.746 135.411 280.275 133.507 287.102L132.552 290.665L92.8387 280.024ZM95.6168 352.645C88.6311 350.774 83.3135 346.728 79.6639 340.509C76.1029 334.239 75.2839 327.656 77.2069 320.758C78.9714 313.894 82.9538 308.672 89.154 305.092C95.4241 301.531 102.052 300.686 109.038 302.558C115.674 304.336 120.852 308.344 124.571 314.582C128.291 320.82 129.268 327.371 127.504 334.235C126.199 338.827 123.844 342.726 120.439 345.932C117.123 349.086 113.27 351.311 108.88 352.605C104.509 353.83 100.088 353.843 95.6168 352.645Z" fill="#04323E"/>
<path d="M407.69 208.413C410.357 230.093 402.605 250.919 387.989 266.861L407.69 315.759L356.503 288.809C348.523 292.158 339.872 294.499 330.734 295.624C283.028 301.494 240.137 271.964 234.932 229.669C229.728 187.373 264.183 148.327 311.888 142.458C359.594 136.588 402.486 166.117 407.69 208.413Z" fill="#CDDDE1"/>
<rect x="284" y="214" width="13.2353" height="13.2353" fill="#06566A"/>
<rect x="314.882" y="214" width="13.2353" height="13.2353" fill="#06566A"/>
<rect x="345.765" y="214" width="13.2353" height="13.2353" fill="#06566A"/>
<path d="M360.948 287.692L360.162 287.316L359.352 287.636C350.75 291.032 341.431 293.442 331.596 294.652C280.073 300.991 234.851 272.079 229.795 230.991C224.74 189.902 261.605 150.89 313.127 144.551C364.649 138.212 409.872 167.124 414.927 208.212C417.522 229.305 409.126 249.779 393.328 265.639L392.375 266.596L392.907 267.838L411.828 311.997L360.948 287.692Z" stroke="#06566A" stroke-width="4"/>
</svg>
