<svg width="480" height="340" viewBox="0 0 480 340" fill="none" xmlns="http://www.w3.org/2000/svg">
<g clip-path="url(#clip0_758_3111)">
<path d="M110.141 271.975H194.357L172.195 329.314H127.871L110.141 312.807V271.975Z" fill="#9BBBC3"/>
<path d="M110.141 271.975H123.653V307.772L136 329.314H127.871L110.141 312.807V271.975Z" fill="#82AAB5"/>
<path d="M290.558 271.692H365.687V329.35H317.639L304.535 314.609L290.558 271.692Z" fill="#9BBBC3"/>
<path d="M290.557 271.692H310.352L317.638 314.609L327.563 329.35H317.638L304.534 314.609L290.557 271.692Z" fill="#82AAB5"/>
<path d="M80.8922 62.9014L370.225 62.9014L422.469 96.3658V259.117L400.922 281.301H80.8922L80.8922 62.9014Z" fill="#06566A"/>
<path d="M72.1562 54.1653L361.489 54.1653L413.733 87.6297V250.381L392.186 272.565H72.1562L72.1562 54.1653Z" fill="#1F6779"/>
<path d="M72.1562 54.1653L362.73 54.1653L292.766 59.7179L97.0893 65.7041L97.0893 231.823L82.8719 243.048L72.1562 259.884L72.1562 54.1653Z" fill="#06566A"/>
<path d="M318.948 100.462L58.1797 100.462L58.1797 222.84V228.022L66.911 236.744H74.6419L350.835 236.744V126.234L318.948 100.462Z" fill="#82AAB5"/>
<path d="M58.1797 100.462L318.075 100.462L342.099 124.486V228.008L66.0366 228.008L58.1797 221.344L58.1797 100.462Z" fill="#6A9AA6"/>
<path d="M107.103 34.9424H159.519V54.1615H107.103V34.9424Z" fill="#B4CCD2"/>
<path d="M107.103 34.9424H159.519L113.18 39.8848V54.1615H107.103V34.9424Z" fill="#9BBBC3"/>
<path d="M103.608 0L172.622 0V34.9439L93.9981 34.9439V10.4832L103.608 0Z" fill="#9BBBC3"/>
<path d="M103.608 0L172.622 0L105.697 6.96182L100.459 15.193L93.9981 34.9439V10.4832L103.608 0Z" fill="#82AAB5"/>
<path d="M154.88 142.536H272.087L294.118 163.687V184.837H154.88V142.536Z" fill="#518997"/>
<path d="M151.139 138.792H268.346L290.377 159.942V181.093H151.139V138.792Z" fill="#1F6779"/>
<path d="M197.361 153.995H268.074L264.707 168.961H199.606L197.361 153.995Z" fill="#ECFF00"/>
<path d="M197.361 153.995H268.074L264.707 168.961H199.606L197.361 153.995Z" fill="#06566A" fill-opacity="0.3"/>
<path d="M177.158 153.995H244.129L240.762 168.961H179.403L177.158 153.995Z" fill="#ECFF00"/>
<path d="M122.937 131.477H105.745L98.262 139.027V156.152L101.255 159.145H125.93V134.47L122.937 131.477Z" fill="#518997"/>
<path d="M105.745 131.477H122.937V156.152H98.262V139.027L105.745 131.477Z" fill="#1F6779"/>
<path d="M122.937 166.73H98.262V191.405L101.255 194.398H118.831L125.93 187.669V169.723L122.937 166.73Z" fill="#518997"/>
<path d="M98.262 166.73H122.937V184.676L115.838 191.405H98.262V166.73Z" fill="#1F6779"/>
<path d="M325.881 17.111L306.243 2.54037L286.604 43.7183L300.541 48.7863L287.871 77.9276L322.714 38.0167L306.243 36.7497L325.881 17.111Z" fill="#ECFF00"/>
<path d="M218.7 4.17383L196.262 13.8961L222.103 51.4927L233.461 41.9568L252.363 67.5L235.221 17.3698L225.888 31.0008L218.7 4.17383Z" fill="#ECFF00"/>
</g>
<defs>
<clipPath id="clip0_758_3111">
<rect width="480" height="340" fill="white"/>
</clipPath>
</defs>
</svg>
