<svg width="1470" height="453" viewBox="0 0 1470 453" fill="none" xmlns="http://www.w3.org/2000/svg">
<g clip-path="url(#clip0_755_2821)">
<path opacity="0.15" d="M1108 427.845L1099.14 422.657L1090.45 392.715L1107.19 358.433L1185.64 326.347L1202.36 359.804L1184.78 396.595L1108 427.845Z" fill="white"/>
<path opacity="0.15" d="M86.5375 9.20833L92.7223 10.5104L103.627 26.298L100.535 49.5725L60.9844 83.589L44.7085 67.3132L47.8009 42.4111L86.5375 9.20833Z" fill="white"/>
<path opacity="0.15" d="M151.315 40.7836L172.311 61.7794L141.875 92.2153L112.742 88.1463L91.7458 54.4553L95.1637 33.7849L151.315 40.7836Z" fill="#ECFF00"/>
<path opacity="0.15" d="M155.911 398.18L157.97 408.121L141.739 434.32L105.491 444.726L30 408.371L43.4976 373.952L82.141 362.5L155.911 398.18Z" fill="white"/>
<path opacity="0.15" d="M833.962 34.5653L763 75.5354L772.705 92.345L811.033 102.605L867.332 70.1015L849.164 38.6348L833.962 34.5653Z" fill="#ECFF00"/>
<path opacity="0.15" d="M837.756 57.9751L851.566 58.561L875.838 82.8331L876.842 120.497L857.843 139.496L852.486 139.663L838.843 126.02L837.756 57.9751Z" fill="white"/>
<path opacity="0.15" d="M683.086 350.613L723.287 378.283L683.176 436.559L634.872 438.677L590.882 390.487L590.238 356.057L683.086 350.613Z" fill="#ECFF00"/>
<g opacity="0.7">
<path d="M1106.43 16.4944L1203.3 42.452L1205.04 44.2112L1206.11 77.3836L1104.17 50.0665L1103.23 21.0734L1104.79 17.7391L1106.43 16.4944Z" fill="#518997"/>
<path d="M1107.4 16.7531L1203.3 42.4518L1205.04 44.2109L1206.11 77.3833L1108.51 51.2314L1107.4 16.7531Z" fill="#1F6779"/>
<path fill-rule="evenodd" clip-rule="evenodd" d="M1114.61 26.0448L1115.28 53.0453L1204.18 76.8655L1203.22 47.6072L1117.19 24.556L1114.61 26.0448Z" fill="#82AAB5"/>
<path d="M1148.83 35.2217L1109.81 35.2217L1109.81 74.2382L1148.83 74.2382L1148.83 35.2217Z" fill="white"/>
<path fill-rule="evenodd" clip-rule="evenodd" d="M1119.32 42.2247L1139.33 42.2247L1139.33 67.2353L1119.32 67.2353L1119.32 42.2247ZM1125.75 46.152C1125.75 46.9391 1125.09 47.5778 1124.28 47.5776C1123.47 47.5776 1122.82 46.9392 1122.82 46.1519C1122.82 45.3648 1123.47 44.7263 1124.28 44.7263C1125.09 44.7265 1125.75 45.3644 1125.75 46.152ZM1135.66 54.2304L1130.58 46.9441L1127.31 51.6416L1125.99 49.7953L1122.82 54.2305L1125.51 54.2304L1129.16 54.2304L1135.66 54.2304Z" fill="#06566A"/>
<path d="M1136.83 56.7308L1121.82 56.7308L1121.82 58.7317L1136.83 58.7317L1136.83 56.7308Z" fill="#06566A"/>
<path d="M1136.83 59.7319L1121.82 59.7319L1121.82 61.7328L1136.83 61.7328L1136.83 59.7319Z" fill="#06566A"/>
<path d="M1132.82 62.7332L1121.82 62.7332L1121.82 64.734L1132.82 64.734L1132.82 62.7332Z" fill="#06566A"/>
<path fill-rule="evenodd" clip-rule="evenodd" d="M1109.31 34.722L1149.33 34.722L1149.33 74.739L1109.31 74.739L1109.31 34.722ZM1110.31 35.7225L1110.31 73.7386L1148.33 73.7386L1148.33 35.7225L1110.31 35.7225Z" fill="#06566A"/>
<path d="M1188.56 46.2683L1150.87 36.17L1140.77 73.8572L1178.46 83.9554L1188.56 46.2683Z" fill="white"/>
<path d="M1169.37 45.7933L1158.89 42.984L1158.24 45.3936L1168.73 48.2029L1169.37 45.7933Z" fill="#06566A"/>
<path d="M1172.73 49.2786L1158.24 45.3947L1157.46 48.2937L1171.96 52.1776L1172.73 49.2786Z" fill="#06566A"/>
<path d="M1176.14 55.8888L1156.81 50.7102L1152.93 65.2052L1172.26 70.3838L1176.14 55.8888Z" fill="#06566A"/>
<path d="M1171.61 72.7991L1152.28 67.6205L1151.83 69.3116L1171.16 74.4902L1171.61 72.7991Z" fill="#06566A" fill-opacity="0.25"/>
<path d="M1170.9 75.4565L1151.57 70.278L1151.12 71.969L1170.45 77.1476L1170.9 75.4565Z" fill="#06566A" fill-opacity="0.25"/>
<path fill-rule="evenodd" clip-rule="evenodd" d="M1150.52 35.5579L1189.17 45.915L1178.81 84.5685L1140.16 74.2113L1150.52 35.5579ZM1151.23 36.7831L1141.39 73.5039L1178.11 83.3432L1187.95 46.6224L1151.23 36.7831Z" fill="#06566A"/>
<path d="M1217.46 63.5493L1183.67 44.041L1164.16 77.8304L1197.95 97.3387L1217.46 63.5493Z" fill="white"/>
<path d="M1207.56 71.695L1181.57 56.6886L1174.07 69.6845L1200.06 84.6909L1207.56 71.695Z" fill="#06566A"/>
<path fill-rule="evenodd" clip-rule="evenodd" d="M1183.49 43.3568L1218.15 63.3653L1198.14 98.0211L1163.48 78.0126L1183.49 43.3568ZM1183.86 44.7234L1164.85 77.6464L1197.77 96.6545L1216.78 63.7315L1183.86 44.7234Z" fill="#06566A"/>
<path d="M1109.15 56.5813L1209.65 83.5099L1200.4 118.056L1193.35 122.124L1103.24 97.9789C1100.57 97.264 1098.99 94.5211 1099.7 91.8526L1109.15 56.5813Z" fill="#387888"/>
<path opacity="0.1" d="M1109.15 56.5813L1120.27 59.559L1209.65 83.5099L1208.49 87.8584L1119.1 63.9075L1112.18 71.3746L1100 90.734L1102.32 82.0989L1109.15 56.5813Z" fill="black"/>
<path d="M1108.51 51.2318L1210.68 78.6081L1212.49 80.6456L1211.33 84.9942L1107.69 57.224L1107.22 56.0635L1108.51 51.2318Z" fill="#518997"/>
<path d="M1108.51 51.2318L1210.68 78.6081L1212.49 80.6456L1109.38 53.7945L1107.69 57.224L1107.22 56.0635L1108.51 51.2318Z" fill="#387888"/>
<path d="M1141.63 59.069L1145.98 60.2342L1147.33 62.9263L1144.67 72.8312L1138.39 71.1482L1141.63 59.069Z" fill="#CDDDE1"/>
<path d="M1141.63 59.069L1145.98 60.2342L1142 62.5332L1139.6 71.4718L1138.39 71.1482L1141.63 59.069Z" fill="#B4CCD2"/>
<path d="M1174 67.743L1178.35 68.9082L1179.7 71.6003L1177.05 81.5053L1170.76 79.8222L1174 67.743Z" fill="#CDDDE1"/>
<path d="M1174 67.743L1178.35 68.9082L1174.37 71.2073L1171.97 80.1459L1170.76 79.8222L1174 67.743Z" fill="#B4CCD2"/>
</g>
<g opacity="0.7">
<path d="M595.825 80.2984L458.832 46.888L452.901 58.3608L453.89 67.1542L606.192 104.298L610.003 88.6693L595.825 80.2984Z" fill="#9BBBC3"/>
<path d="M590.056 94.3577L583.516 82.5729M459.67 50.0033L465.665 64.0208L459.67 50.0033ZM482.807 70.9309L477.44 54.3371L482.807 70.9309ZM494.666 60.9037L501.205 72.6885L494.666 60.9037ZM518.975 77.0224L512.98 63.0048L518.975 77.0224ZM530.206 69.5714L536.201 83.5889L530.206 69.5714ZM553.887 88.2662L548.521 71.6725L553.887 88.2662ZM565.746 78.2391L571.657 92.6001L565.746 78.2391Z" stroke="#82AAB5" stroke-width="5"/>
<path d="M456.935 66.4412L607.042 103.05L607.813 110.334L602.401 116.111L453.668 79.8376L452.256 72.9427L456.935 66.4412Z" fill="#387888"/>
<path d="M462.217 75.3723L463.055 71.9373L466.146 72.6912L468.228 76.8383L464.639 78.8741L462.217 75.3723Z" fill="#9BBBC3"/>
<path d="M526.966 91.1634L527.803 87.7284L530.895 88.4824L532.977 92.6295L529.387 94.6652L526.966 91.1634Z" fill="#9BBBC3"/>
<path d="M489.864 81.3874L488.503 83.2388L485.935 84.0682L484.197 80.0052L487.443 77.8854L489.864 81.3874Z" fill="#9BBBC3"/>
<path d="M576.081 102.414L574.72 104.265L572.152 105.095L570.414 101.032L573.66 98.912L576.081 102.414Z" fill="#9BBBC3"/>
<path d="M505.665 85.2406L506.021 87.5109L508.903 89.1236L511.333 86.6228L508.656 83.4224L505.665 85.2406Z" fill="#9BBBC3"/>
<path d="M548.945 95.796L549.301 98.0663L552.183 99.6791L554.613 97.1782L551.936 93.9778L548.945 95.796Z" fill="#9BBBC3"/>
<path d="M590.839 55.7906L559.637 51.2708L553.997 78.3226L583.844 85.9657L590.839 55.7906Z" fill="#ECFF00"/>
<path d="M590.839 55.7906L559.637 51.2708L553.997 78.3226L561.439 55.7453L590.839 55.7906Z" fill="#06566A" fill-opacity="0.2"/>
<path d="M591.545 57.7247L557.731 50.8312L559.926 43.3118L591.984 49.5194L591.545 57.7247Z" fill="#ECFF00"/>
<path d="M591.545 57.7247L557.731 50.8312L559.926 43.3118L591.984 49.5194L591.545 57.7247Z" fill="#06566A" fill-opacity="0.3"/>
<path d="M557.731 50.8311L559.926 43.3118L566.101 44.5076L563.154 45.078L560.037 48.1609L560.409 51.4841L557.731 50.8311Z" fill="#06566A" fill-opacity="0.3"/>
<path d="M514.884 39.3631L510.906 38.3926L509.143 46.068L513.018 47.0129L512.879 42.129L514.884 39.3631Z" fill="#06566A" fill-opacity="0.3"/>
<path d="M541.929 50.4139L510.727 45.8941L504.919 73.6328L535.524 80.6954L541.929 50.4139Z" fill="#ECFF00"/>
<path d="M514.277 43.6701L510.727 45.8941L504.919 73.6328L511.463 56.7212L511.525 48.8934L532.539 51.2139L514.277 43.6701Z" fill="#06566A" fill-opacity="0.2"/>
<path d="M544.596 45.8639L510.906 38.392L509.143 46.0674L542.343 53.7043L544.596 45.8639Z" fill="#ECFF00"/>
<path d="M544.596 45.8639L510.906 38.392L509.143 46.0674L542.343 53.7043L544.596 45.8639Z" fill="#06566A" fill-opacity="0.3"/>
<path d="M496.99 34.7223L465.268 29.348L459.628 56.3997L489.215 63.6157L496.99 34.7223Z" fill="#ECFF00"/>
<path d="M473.388 31.3284L465.268 29.3481L459.628 56.3999L462.519 57.105L466.088 33.378L471.968 32.2992L473.388 31.3284Z" fill="#06566A" fill-opacity="0.2"/>
<path d="M463.28 29.2311L497.714 37.2648L499.347 30.5667L497.881 29.1174L465.936 21.3265L463.28 29.2311Z" fill="#ECFF00"/>
<path d="M463.28 29.2311L497.714 37.2648L499.347 30.5667L497.881 29.1174L465.936 21.3265L463.28 29.2311Z" fill="#06566A" fill-opacity="0.3"/>
<path d="M463.248 29.2651L464.364 29.5373L467.354 23.34L497.849 29.1514L465.904 21.3605L463.248 29.2651Z" fill="#06566A" fill-opacity="0.3"/>
</g>
<g opacity="0.7">
<path d="M939.359 229.762L991.68 262.393L1003.99 292.751L1003.68 293.174L1004.2 294.461L979.018 328.78L935.717 329.948L903.631 299.883L903.706 298.441L903.419 298.172L903.789 291L918.063 285.213L923.053 269.357L913.386 257.538L901.236 252.397L901.024 250.687L907.898 238.771L939.359 229.762Z" fill="#387888"/>
<path d="M991.68 262.393L939.359 229.762L907.898 238.771L901.024 250.687L913.174 255.827L923.383 268.309L918.063 285.213L903.789 291L903.419 298.172L935.505 328.238L978.806 327.07L1003.99 292.751L991.68 262.393Z" fill="#518997"/>
<path opacity="0.5" d="M991.68 262.393L939.359 229.762L907.898 238.771L901.024 250.687L913.174 255.827L923.383 268.309L918.063 285.213L903.789 291L903.419 298.172L918.455 300.51L932.673 285.621L926.696 257.23L942.749 241.013L991.68 262.393Z" fill="#387888"/>
<path d="M940.254 251.58L941.579 259.47L933.537 262.73L930.114 254.286L936.743 250.428L940.254 251.58Z" fill="#ECFF00"/>
<path d="M958.652 249.701L950.677 250.342L949.48 258.936L958.504 260.194L960.626 252.823L958.652 249.701Z" fill="#ECFF00"/>
<path d="M958.652 249.701L950.677 250.342L949.48 258.936L958.504 260.194L960.626 252.823L958.652 249.701Z" fill="#06566A" fill-opacity="0.3"/>
<path d="M977.378 265.663L971.742 271.342L964.404 266.711L969.266 259.005L976.267 262.14L977.378 265.663Z" fill="#ECFF00"/>
<path d="M977.378 265.663L971.742 271.342L964.404 266.711L969.266 259.005L976.267 262.14L977.378 265.663Z" fill="#06566A" fill-opacity="0.5"/>
<path d="M978.762 279.752L986.074 282.999L984.356 291.505L975.425 289.701L975.865 282.044L978.762 279.752Z" fill="#ECFF00"/>
<path d="M978.762 279.752L986.074 282.999L984.356 291.505L975.425 289.701L975.865 282.044L978.762 279.752Z" fill="#06566A" fill-opacity="0.6"/>
<path d="M966.505 306.024L973.498 302.136L979.259 308.625L972.446 314.675L966.594 309.717L966.505 306.024Z" fill="#ECFF00"/>
<path d="M966.505 306.024L973.498 302.136L979.259 308.625L972.446 314.675L966.594 309.717L966.505 306.024Z" fill="#06566A" fill-opacity="0.7"/>
<path d="M926.42 274.048L918.889 284.929L939.156 307.43L949.613 296.743L943.207 286.914L935.743 283.171L933.202 277.124L926.42 274.048Z" fill="#ECFF00"/>
<path d="M926.73 281.919L920.5 288.286M933.962 284.99L928.385 289.325L926.185 293.848M939.434 291.679L935.207 296L930.733 298.298M943.31 296.362L935.982 305.215" stroke="#06566A" stroke-opacity="0.2" stroke-width="2"/>
<path d="M902.861 312.556L916.256 302.472L920.987 307.101L904.106 321.65L898.924 316.579L902.861 312.556Z" fill="#82AAB5"/>
<path d="M907.281 315.795L919.395 305.862L920.987 307.103L904.106 321.651L902.255 319.84L904.858 318.904L907.281 315.795Z" fill="#6A9AA6"/>
<path d="M930.225 316.14L920.988 307.102L916.256 302.472L909.226 292.53L917.975 283.589L942.533 307.618L930.225 316.14Z" fill="#B4CCD2"/>
<path d="M930.225 316.139L920.988 307.101L916.256 302.471L909.226 292.529L917.975 283.588L919.168 284.517L912.684 292.836L930.225 316.139Z" fill="#06566A" fill-opacity="0.1"/>
<path d="M951.576 291.114L928.937 333.165L931.163 334.9L955.842 294.439L951.576 291.114Z" fill="#B4CCD2"/>
<path d="M955.842 294.439L952.428 296.332L931.35 332.991L928.938 333.166L931.163 334.9L955.842 294.439Z" fill="#9BBBC3"/>
<path d="M950.932 290.907L956.813 294.39L955.387 297.165L953.564 296.845L950.233 294.909L949.299 293.52L950.932 290.907Z" fill="white"/>
<path d="M954.935 293.916L956.812 294.39L955.387 297.165L953.564 296.845L954.097 296.16L954.33 294.693L954.935 293.916Z" fill="#E6EEF0"/>
<path d="M952.222 287.181L951.436 291.812L955.842 294.44L958.746 292.266L957.997 288.052L960.513 282.753L958.672 282.528L952.222 287.181Z" fill="#ECFF00"/>
</g>
<g opacity="0.7">
<path d="M1389.18 176.011L1394.18 174.879L1412.57 145.728L1407.36 122.707L1399.69 117.867L1375.49 156.223L1378.44 169.235L1389.18 176.011Z" fill="#06708A"/>
<path d="M1378.64 179.447L1351.12 185.676L1327.93 170.405L1333.52 160.198L1344.78 157.65L1382.13 173.924L1378.64 179.447Z" fill="#06708A"/>
<path d="M1403.13 176.667L1373.36 183.405L1345.54 227.842L1360.82 295.403L1378.31 306.438L1435.87 293.415L1446.9 275.924L1427.99 192.348L1403.13 176.667Z" fill="#ECFF00"/>
<circle cx="1404.5" cy="290.782" r="1.28277" transform="rotate(-12.7509 1404.5 290.782)" fill="white"/>
<circle cx="1400.36" cy="250.42" r="1.02621" transform="rotate(-12.7509 1400.36 250.42)" fill="white"/>
<circle cx="1379.74" cy="242.987" r="1.53932" transform="rotate(-12.7509 1379.74 242.987)" fill="white"/>
<circle cx="1405.07" cy="273.554" r="1.02621" transform="rotate(-12.7509 1405.07 273.554)" fill="white"/>
<circle cx="1391.5" cy="262.42" r="1.02621" transform="rotate(-12.7509 1391.5 262.42)" fill="white"/>
<circle cx="1407" cy="270.486" r="1.02621" transform="rotate(-12.7509 1407 270.486)" fill="white"/>
<path d="M1362.68 193.186L1342.55 225.099L1358.69 296.413L1382.56 311.264L1429.38 307.771L1442.47 287.712L1425.33 194.529L1404.52 181.615L1362.68 193.186Z" stroke="#065669" stroke-opacity="0.4" stroke-width="2"/>
<circle cx="1389.88" cy="273.836" r="1.53932" transform="rotate(-12.7509 1389.88 273.836)" fill="white"/>
<circle cx="1388.85" cy="289.061" r="1.28277" transform="rotate(-12.7509 1388.85 289.061)" fill="white"/>
<circle cx="1399.73" cy="261.609" r="1.53932" transform="rotate(-12.7509 1399.73 261.609)" fill="white"/>
<circle cx="1399.99" cy="255.765" r="1.53932" transform="rotate(-12.7509 1399.99 255.765)" fill="white"/>
<circle cx="1394.19" cy="253.394" r="2.05243" transform="rotate(-12.7509 1394.19 253.394)" fill="white"/>
</g>
</g>
<defs>
<clipPath id="clip0_755_2821">
<rect width="1470" height="453" fill="white"/>
</clipPath>
</defs>
</svg>
