<svg width="250" height="250" viewBox="0 0 250 250" fill="none" xmlns="http://www.w3.org/2000/svg">
<path d="M43.869 54H195.201L198.415 55.8869L212.939 103.815H53.6811L40.9873 61.9251L41.9708 56.453L43.869 54Z" fill="#518997"/>
<path d="M45.3787 54H195.202L198.415 55.8869L212.939 103.815H60.4742L45.3787 54Z" fill="#1F6779"/>
<path fill-rule="evenodd" clip-rule="evenodd" d="M59.5239 64.7246L71.0486 103.815H209.92L197.088 61.5477H62.7008L59.5239 64.7246Z" fill="#82AAB5"/>
<path d="M112.982 64.7368L56.1152 79.9741L71.3525 136.841L128.219 121.603L112.982 64.7368Z" fill="white"/>
<path d="M101.864 78.655L72.7021 86.469L82.4697 122.922L111.632 115.108L101.864 78.655Z" fill="#06566A" fill-opacity="0.25"/>
<path fill-rule="evenodd" clip-rule="evenodd" d="M82.0283 92.3311C83.2065 92.0156 83.9114 90.8291 83.6042 89.6819C83.297 88.5338 82.0932 87.8598 80.915 88.1753C79.7375 88.4908 79.0318 89.6773 79.339 90.8246C79.6469 91.9718 80.8508 92.6466 82.0283 92.3311ZM90.9655 88.9467L101.209 97.5844L91.7407 100.121L86.4143 101.548L82.494 102.599L85.3855 94.8958L88.031 97.0711L90.9655 88.9467Z" fill="#06566A"/>
<path d="M103.885 100.775L82.0132 106.635L82.7946 109.551L104.666 103.691L103.885 100.775Z" fill="#06566A"/>
<path d="M105.057 105.148L83.1853 111.009L83.9667 113.925L105.838 108.065L105.057 105.148Z" fill="#06566A"/>
<path d="M100.396 111.086L84.3567 115.384L85.1381 118.3L101.177 114.002L100.396 111.086Z" fill="#06566A"/>
<path fill-rule="evenodd" clip-rule="evenodd" d="M55.1909 79.4403L113.515 63.8123L129.143 122.137L70.8189 137.765L55.1909 79.4403ZM57.0397 80.5077L71.8863 135.916L127.295 121.069L112.448 65.6611L57.0397 80.5077Z" fill="#06566A"/>
<path d="M175.2 65.3215H116.328V124.194H175.2V65.3215Z" fill="white"/>
<path d="M138.216 72.1145H130.668V74.3788H138.216V72.1145Z" fill="#06566A"/>
<path d="M147.273 72.1145H139.726V74.3788H147.273V72.1145Z" fill="#06566A"/>
<path d="M153.311 75.8884H130.668V80.4171H153.311V75.8884Z" fill="#06566A"/>
<path d="M160.859 84.1909H130.668V106.834H160.859V84.1909Z" fill="#06566A"/>
<path fill-rule="evenodd" clip-rule="evenodd" d="M137.814 87.9648V89.9778V90.1197H137.462H134.442V103.06H137.814H138.122H141.235H154.821H157.085V101.047V89.9778V87.9648H154.821H140.103H137.814ZM137.814 91.9153V100.964H136.851V91.9153H137.814ZM139.741 90.1197H155.158V92.7614H139.741V90.1197ZM146.78 94.9314H139.741V96.441H146.78V94.9314ZM139.741 97.9505H146.78V99.4601H139.741V97.9505ZM155.327 94.9314H148.289V96.441H155.327V94.9314ZM148.289 97.9505H155.327V99.4601H148.289V97.9505Z" fill="white"/>
<path d="M160.859 110.608H130.668V113.25H160.859V110.608Z" fill="#06566A" fill-opacity="0.25"/>
<path d="M160.859 114.759H130.668V117.401H160.859V114.759Z" fill="#06566A" fill-opacity="0.25"/>
<path fill-rule="evenodd" clip-rule="evenodd" d="M115.573 64.5668H175.955V124.949H115.573V64.5668ZM117.082 66.0763V123.439H174.445V66.0763H117.082Z" fill="#06566A"/>
<path d="M224.076 79.2191L167.209 63.9818L151.972 120.848L208.838 136.086L224.076 79.2191Z" fill="white"/>
<path d="M212.826 94.9578L169.083 83.2368L163.222 105.109L206.965 116.83L212.826 94.9578Z" fill="#06566A"/>
<path d="M173.782 96.4175L172.185 95.9895L172.413 95.1072L173.754 95.4665C173.99 95.5299 174.192 95.5517 174.358 95.5321C174.527 95.5102 174.663 95.4506 174.768 95.354C174.877 95.2551 174.955 95.12 175.001 94.9487C175.052 94.7555 175.057 94.5887 175.015 94.449C174.976 94.3109 174.887 94.1939 174.748 94.0981C174.611 94.0037 174.423 93.9245 174.184 93.8603L173.296 93.6225L171.898 98.838L170.616 98.4946L172.283 92.2753L174.453 92.8564C174.815 92.9531 175.129 93.0738 175.395 93.2187C175.665 93.3644 175.88 93.5335 176.042 93.7267C176.205 93.9192 176.309 94.1365 176.358 94.3788C176.406 94.6173 176.392 94.8823 176.314 95.1729C176.245 95.4287 176.124 95.6499 175.949 95.8348C175.777 96.0212 175.549 96.1488 175.264 96.219C174.983 96.2907 174.642 96.2801 174.243 96.188L173.782 96.4175ZM172.996 99.1324L171.104 98.6252L171.871 97.7595L173.264 98.1323C173.489 98.1927 173.682 98.2063 173.844 98.1738C174.006 98.1376 174.138 98.0659 174.24 97.9595C174.342 97.8523 174.414 97.7179 174.458 97.5549C174.506 97.373 174.518 97.2062 174.49 97.056C174.467 96.9058 174.398 96.7775 174.283 96.6703C174.169 96.5609 174.002 96.4764 173.782 96.4175L172.548 96.0869L172.792 95.2091L174.33 95.6212L174.533 96.0461C174.913 96.142 175.199 96.2907 175.393 96.4914C175.589 96.6907 175.712 96.9141 175.758 97.1617C175.808 97.41 175.799 97.6598 175.731 97.9104C175.625 98.3089 175.448 98.6214 175.201 98.8486C174.955 99.0728 174.645 99.2079 174.272 99.2547C173.902 99.3022 173.477 99.2615 172.996 99.1324ZM181.305 94.6928L182.582 95.0347L181.481 99.1445C181.353 99.6222 181.142 99.9981 180.849 100.271C180.56 100.544 180.213 100.715 179.81 100.784C179.41 100.854 178.978 100.827 178.513 100.702C178.049 100.578 177.658 100.385 177.341 100.123C177.027 99.8615 176.811 99.5392 176.693 99.1573C176.579 98.7754 176.586 98.3452 176.714 97.8666L177.815 93.7577L179.097 94.1003L177.996 98.2101C177.921 98.4893 177.904 98.7286 177.945 98.9294C177.986 99.1294 178.078 99.2932 178.221 99.42C178.367 99.5475 178.553 99.6419 178.781 99.703C179.015 99.7657 179.224 99.777 179.409 99.7377C179.596 99.6992 179.756 99.6034 179.889 99.4502C180.024 99.2969 180.129 99.0811 180.204 98.8018L181.305 94.6928ZM186.418 96.0627L184.752 102.282L183.475 101.94L185.141 95.7201L186.418 96.0627ZM188.332 96.5752L188.064 97.5791L182.988 96.2197L183.257 95.2159L188.332 96.5752ZM191.912 97.5345L190.246 103.755L188.968 103.412L190.635 97.1926L191.912 97.5345ZM193.826 98.047L193.557 99.0509L188.482 97.6915L188.751 96.6877L193.826 98.047ZM198.751 102.545L198.673 102.839C198.546 103.312 198.368 103.719 198.139 104.061C197.91 104.402 197.643 104.675 197.339 104.877C197.036 105.076 196.703 105.202 196.34 105.254C195.981 105.308 195.605 105.282 195.212 105.177C194.822 105.072 194.483 104.906 194.196 104.68C193.912 104.454 193.686 104.179 193.52 103.854C193.355 103.525 193.256 103.155 193.226 102.745C193.199 102.334 193.249 101.893 193.376 101.42L193.454 101.125C193.582 100.65 193.76 100.243 193.988 99.9038C194.217 99.5619 194.483 99.2902 194.788 99.0879C195.095 98.8863 195.429 98.7588 195.787 98.706C196.149 98.6531 196.525 98.6795 196.916 98.7837C197.309 98.8894 197.648 99.0547 197.932 99.2803C198.219 99.5068 198.444 99.7838 198.607 100.111C198.772 100.44 198.868 100.809 198.896 101.219C198.927 101.627 198.879 102.069 198.751 102.545ZM197.378 102.493L197.459 102.189C197.548 101.859 197.596 101.561 197.603 101.294C197.611 101.027 197.578 100.793 197.507 100.591C197.436 100.388 197.328 100.222 197.184 100.092C197.039 99.9581 196.859 99.863 196.642 99.8049C196.426 99.7468 196.222 99.7392 196.03 99.7823C195.842 99.8238 195.666 99.9143 195.504 100.054C195.344 100.194 195.201 100.382 195.074 100.616C194.947 100.851 194.839 101.133 194.751 101.464L194.669 101.767C194.582 102.094 194.534 102.393 194.526 102.662C194.518 102.929 194.55 103.165 194.62 103.37C194.691 103.572 194.799 103.74 194.943 103.873C195.088 104.006 195.268 104.102 195.485 104.16C195.701 104.218 195.905 104.226 196.097 104.182C196.288 104.139 196.464 104.047 196.623 103.906C196.784 103.764 196.928 103.574 197.054 103.34C197.183 103.103 197.29 102.82 197.378 102.493ZM205.531 101.184L203.864 107.403L202.582 107.06L201.2 102.221L200.083 106.39L198.802 106.047L200.468 99.8275L201.75 100.171L203.135 105.015L204.254 100.841L205.531 101.184Z" fill="#ECFF00"/>
<path fill-rule="evenodd" clip-rule="evenodd" d="M166.676 63.0575L225 78.6855L209.372 137.01L151.048 121.382L166.676 63.0575ZM167.743 64.9063L152.896 120.315L208.305 135.161L223.151 79.7529L167.743 64.9063Z" fill="#06566A"/>
<path d="M63.4932 111.363H220.486V165.329L211.806 174.009H71.0409C66.873 174.009 63.4932 170.63 63.4932 166.462V111.363Z" fill="#06566A"/>
<path opacity="0.1" d="M63.4932 111.363H80.853H220.486V118.156H80.853L73.6826 131.742V153.63C71.1443 158.707 63.4932 156.901 63.4932 151.225V111.363Z" fill="black"/>
<path d="M60.4741 103.815H220.077L223.506 106.08V112.872H61.6063L60.4741 111.363V103.815Z" fill="#518997"/>
<path d="M60.4741 103.815H220.077L223.506 106.08L62.7384 107.212L61.6063 112.872L60.4741 111.363V103.815Z" fill="#387888"/>
<path d="M111.799 102.306H118.592L121.611 105.702V121.175H111.799V102.306Z" fill="#CDDDE1"/>
<path d="M111.799 102.306H118.592L113.686 107.212V121.175H111.799V102.306Z" fill="#B4CCD2"/>
<path d="M162.369 102.306H169.162L172.181 105.702V121.175H162.369V102.306Z" fill="#CDDDE1"/>
<path d="M162.369 102.306H169.162L164.256 107.212V121.175H162.369V102.306Z" fill="#B4CCD2"/>
<path fill-rule="evenodd" clip-rule="evenodd" d="M136.322 125.022H132.074H130.668V126.817H132.074V156.655L134.905 159.556H139.802V128.588L136.322 125.022Z" fill="#ECFF00"/>
<path fill-rule="evenodd" clip-rule="evenodd" d="M147.953 142.54H138.116L154.78 159.569L159.698 154.543L147.953 142.54Z" fill="#ECFF00"/>
<path fill-rule="evenodd" clip-rule="evenodd" d="M139.845 147.296H147.584L161.723 132.848H149.762L137.734 145.139L139.845 147.296Z" fill="#06566A"/>
<path fill-rule="evenodd" clip-rule="evenodd" d="M137.062 145.196H146.195L157.507 133.637H148.374L137.062 145.196Z" fill="#ECFF00"/>
<path d="M157.508 133.637H151.887V135.433H157.508V133.637Z" fill="#ECFF00"/>
<path fill-rule="evenodd" clip-rule="evenodd" d="M152.52 159.428L158.226 153.596L159.418 154.815L153.712 160.646L152.52 159.428Z" fill="#ECFF00"/>
<path d="M78.9049 166.084L124.63 179.67L82.801 194.704L27.2639 177.345L78.9049 166.084Z" fill="#06566A" fill-opacity="0.3"/>
<path d="M98.9527 136.803L40.6282 121.175L25.0002 179.499L83.3247 195.127L98.9527 136.803Z" fill="white"/>
<g opacity="0.25">
<path opacity="0.25" d="M46.1601 129.69L45.4309 129.495L45.2362 130.224L33.5146 173.967L33.3198 174.696L34.0489 174.891L77.7919 186.612L78.521 186.808L78.7165 186.079L90.4374 142.335L90.6329 141.606L89.9038 141.411L46.1601 129.69Z" stroke="#06566A" stroke-width="2"/>
<mask id="mask0_1004_3683" style="mask-type:alpha" maskUnits="userSpaceOnUse" x="34" y="130" width="56" height="56">
<g opacity="0.25">
<path opacity="0.25" d="M45.9653 130.418L89.7083 142.14L77.9874 185.883L34.2437 174.162L45.9653 130.418Z" fill="#06566A"/>
</g>
</mask>
<g mask="url(#mask0_1004_3683)">
<g opacity="0.25">
<path opacity="0.25" d="M89.7087 142.139L45.9653 130.418L44.7932 134.793L88.5366 146.514L89.7087 142.139Z" fill="#06566A"/>
<path opacity="0.25" d="M78.7723 139.21L56.9006 133.349L56.1192 136.265L77.9909 142.126L78.7723 139.21Z" fill="white"/>
</g>
</g>
</g>
<path d="M65.8832 143.57L47.6567 138.686L43.5544 153.997L61.7808 158.88L65.8832 143.57Z" fill="#06566A"/>
<path fill-rule="evenodd" clip-rule="evenodd" d="M50.9106 146.044C51.5906 146.226 52.2857 145.835 52.4631 145.171C52.6412 144.506 52.2352 143.82 51.5559 143.638C50.8758 143.456 50.1807 143.847 50.0026 144.511C49.8252 145.176 50.2313 145.862 50.9106 146.044ZM56.3532 146.929L58.9731 154.221L53.5107 152.758L50.4381 151.934L48.1768 151.328L51.8465 148.3L52.5394 150.156L56.3532 146.929Z" fill="#ECFF00"/>
<path d="M83.2303 151.734L68.6492 147.827L68.1282 149.772L82.7094 153.679L83.2303 151.734Z" fill="#06566A"/>
<path d="M82.3187 155.137L67.7375 151.23L67.2166 153.174L81.7978 157.081L82.3187 155.137Z" fill="#06566A"/>
<path d="M77.5185 157.497L66.8257 154.632L66.3047 156.576L76.9976 159.441L77.5185 157.497Z" fill="#06566A"/>
<path d="M56.2796 164.829L41.6985 160.922L41.1776 162.866L55.7587 166.773L56.2796 164.829Z" fill="#06566A"/>
<path d="M55.3678 168.232L40.7866 164.325L40.2657 166.269L54.8468 170.176L55.3678 168.232Z" fill="#06566A"/>
<path d="M50.5678 170.592L39.875 167.727L39.3541 169.671L50.0469 172.536L50.5678 170.592Z" fill="#06566A"/>
<path d="M79.0306 167.409L60.8042 162.525L56.7018 177.835L74.9283 182.719L79.0306 167.409Z" fill="#06566A"/>
<path fill-rule="evenodd" clip-rule="evenodd" d="M64.058 169.883C64.7381 170.065 65.4325 169.674 65.6106 169.009C65.7887 168.345 65.3827 167.659 64.7026 167.477C64.0233 167.295 63.3282 167.686 63.1501 168.351C62.9719 169.015 63.3787 169.701 64.058 169.883ZM69.5 170.768L72.1205 178.06L66.6582 176.596L63.5856 175.773L61.3235 175.167L64.994 172.139L65.6868 173.995L69.5 170.768Z" fill="#ECFF00"/>
<path fill-rule="evenodd" clip-rule="evenodd" d="M40.6279 121.175L98.9525 136.803L83.3245 195.128L24.9999 179.5L40.6279 121.175ZM41.6953 123.024L26.8487 178.432L82.257 193.279L97.1037 137.871L41.6953 123.024Z" fill="#06566A"/>
</svg>
