<svg width="250" height="250" viewBox="0 0 250 250" fill="none" xmlns="http://www.w3.org/2000/svg">
<path d="M160.427 28.9395L165.302 25L173.31 27.3071L173.765 34.9823L168.246 38.7038L161.448 35.651L160.427 28.9395Z" fill="#ECFF00"/>
<path d="M139.519 183.877L141.792 181.602H151.642L155.178 183.269L161.863 215.688L158.209 216.406H148.359L145.833 214.739L139.519 183.877Z" fill="#518997"/>
<path d="M102.248 184.531L97.4102 215.509L99.4191 216.406H114.486L119.324 184.245L117.617 182.461H106.233L102.248 184.531Z" fill="#518997"/>
<path d="M102.041 189.766L93.9727 153.497V113.809L107.006 91.7971H179.313L203.519 108.473L211.277 163.502L190.485 189.766H174.348H110.11H102.041Z" fill="#9BBBC3"/>
<path d="M159.285 189.66L161.777 187.188H172.574L176.45 188.999L183.777 224.219L179.772 225H168.975L166.206 223.189L159.285 189.66Z" fill="#6A9AA6"/>
<path d="M102.041 189.766L93.9727 153.497V113.809L107.006 91.7971L123.764 126.399L127.488 166.42L117.558 185.735L110.11 189.766H102.041Z" fill="#CDDDE1"/>
<path d="M61.3164 153.608L70.6953 190.195H80.0741H93.6119H102.991L111.648 186.13L123.191 166.645L118.863 126.273L99.3835 91.3674H76.4668L61.3164 113.572V153.608Z" fill="#9BBBC3"/>
<path d="M70.8332 190.195L61.3164 153.608V113.572L76.6896 91.3674L96.4552 126.273L100.848 166.645L89.1347 186.13L80.3499 190.195H70.8332Z" fill="#CDDDE1"/>
<path d="M128.459 59.5707L118.894 63.1093L135.338 68.1644L156.984 66.6479L164.871 63.1093L147.755 59.5707H128.459Z" fill="#9BBBC3"/>
<path d="M128.547 59.5707L118.894 63.1093L135.49 68.1644H143.45L146.837 67.1534L147.683 59.5707H128.547Z" fill="#82AAB5"/>
<path d="M133.122 83.6878V92.4585L144.115 95.6643L151.982 92.4585V83.6878L161.265 75.562L165.3 63.4377L153.195 65.7999L132.345 64.6188L118.894 63.4377L122.257 77.4967L133.122 83.6878Z" fill="#CDDDE1"/>
<path d="M133.196 83.6878V92.4585L144.246 95.6643L141.204 89.9276L142.894 85.372L139.514 77.4967L142.894 65.2094L132.415 64.6188L118.894 63.4377L122.274 77.4967L133.196 83.6878Z" fill="#B4CCD2"/>
<path d="M43.3484 177.842L41.5508 184.609L42.0104 185.135L41.5508 186.865L54.9722 202.205L56.8303 202.656L90.5351 172.879V170.623L66.043 157.539L43.3484 177.842Z" fill="#6A9AA6"/>
<path d="M41.4323 184.743L43.2369 177.976L66.0199 157.675L90.6074 170.758L56.0946 201.436L41.4323 184.743Z" fill="#82AAB5"/>
<path d="M88.8141 122.197L65.9989 118.867L65.6133 119.43L65.9989 157.901L90.6233 170.86L91.3945 125.241L88.8141 122.197Z" fill="#1F6779"/>
<path d="M88.8141 122.203L65.9989 118.867L65.6133 119.431L65.9989 157.969H90.6233L91.3945 125.252L88.8141 122.203Z" fill="#06566A"/>
<path d="M157.213 53.6603L151.487 58.5877L144.941 55.5231L144.119 49.2778L148.534 44.7855L155.344 47.0644L157.213 53.6603Z" fill="#ECFF00"/>
<path fill-rule="evenodd" clip-rule="evenodd" d="M152.243 48.6479L154.817 49.5091L153.956 52.0825L152.908 51.7319L153.171 50.9469L151.218 51.9201L150.725 50.9315L152.678 49.9582L151.893 49.6954L152.243 48.6479Z" fill="#06566A" fill-opacity="0.5"/>
<path fill-rule="evenodd" clip-rule="evenodd" d="M148.967 54.5406L146.166 53.6031L147.027 51.0297L148.074 51.3803L147.782 52.2539L150.052 51.2675L150.493 52.2807L148.405 53.1877L149.317 53.493L148.967 54.5406Z" fill="#06566A" fill-opacity="0.5"/>
<path d="M127.046 46.7992L127.485 40.2494L134.429 37.9375L140.148 42.4372L139.316 48.6813L132.503 50.9495L127.046 46.7992Z" fill="#ECFF00"/>
<path fill-rule="evenodd" clip-rule="evenodd" d="M128.838 43.4377L133.03 42.0419L133.379 43.09L131.807 43.6135L132.985 47.1509L131.937 47.4998L130.759 43.9624L129.187 44.4859L128.838 43.4377Z" fill="#06566A" fill-opacity="0.5"/>
<path fill-rule="evenodd" clip-rule="evenodd" d="M133.248 43.5699L136.392 42.5231L136.741 43.5712L135.693 43.9202L136.391 46.0164L135.343 46.3654L134.645 44.2691L133.597 44.6181L133.248 43.5699Z" fill="#06566A" fill-opacity="0.5"/>
<path d="M121.199 189.871L115.887 223.593L118.092 224.57H134.636L139.949 189.559L138.074 187.617H125.574L121.199 189.871Z" fill="#6A9AA6"/>
</svg>
