<svg width="306" height="182" viewBox="0 0 306 182" fill="none" xmlns="http://www.w3.org/2000/svg">
<path d="M242.022 126.908L219.531 155.557L10.6212 160.95L2.60389 3.98306L245.936 2.01675L242.022 126.908Z" fill="#06708A" stroke="#06708A" stroke-width="4"/>
<path d="M14 11L233 15V125.93L210 157L27 162L14 11Z" fill="#2B859C"/>
<path d="M32.9978 142.043H65.9978L64.9978 161.543L32.9978 162.418V142.043Z" fill="#ECFF00"/>
<path d="M77 151.222L86.4709 149L93.574 151.222L103.045 149L114.094 151.222L124.749 149L136.193 153L146.453 149L155.135 151.222L165 149" stroke="#ECFF00" stroke-width="6"/>
<path d="M119.701 174.001L119.187 174.027L118.909 174.459L114.704 181H78.2988L79.2035 162H159.25V172.048L119.701 174.001Z" stroke="white" stroke-width="2"/>
<path d="M42 88L74 88V109.5L63.5 119L42 118L42 88Z" fill="#ECFF00"/>
<path d="M86 92.2222L95.4709 90L102.574 92.2222L112.045 90L123.094 92.2222L133.749 90L145.193 94L155.453 90L164.135 92.2222L174 90" stroke="#ECFF00" stroke-width="6"/>
<path d="M128.701 115.001L128.187 115.027L127.909 115.459L123.704 122H87.2988L88.2035 103H168.25V113.048L128.701 115.001Z" stroke="#ECFF00" stroke-width="2"/>
<path d="M34.75 38.5L42.5 30L68.5 30V60H36.5L34.75 38.5Z" fill="#ECFF00"/>
<path d="M80.5 35.2222L89.9709 33L97.074 35.2222L106.545 33L117.594 35.2222L128.249 33L139.693 37L149.953 33L158.635 35.2222L168.5 33" stroke="#ECFF00" stroke-width="6"/>
<path d="M123.201 58.0012L122.687 58.0266L122.409 58.4592L118.204 65H81.7988L82.7035 46H162.75V56.0482L123.201 58.0012Z" stroke="#ECFF00" stroke-width="2"/>
<path d="M303.669 149.632L205.136 147.662L203.483 147.629L203.611 149.277L204.544 161.38L202.914 162.504L156.612 130.05L204.606 96.37V112.682V114.248L206.17 114.18L290.262 110.565L304.12 122.061L303.669 149.632Z" fill="#ECFF00" stroke="#06708A" stroke-width="3"/>
<path d="M156.83 134.308L209.227 93.1968L205.103 116.944L204.988 117.607L205.656 117.526L291.779 107.083L304.491 123.45L303.047 152.755H205.595H205.095V153.255V165.45L202.417 167.383L156.83 134.308Z" stroke="#065669" stroke-opacity="0.4"/>
</svg>
