<svg width="303" height="168" viewBox="0 0 303 168" fill="none" xmlns="http://www.w3.org/2000/svg">
<rect width="303" height="168" fill="white"/>
<path d="M285.05 2.01684L3.04733 6.03723L2.00513 147.387L14.7031 163.437L298.037 165.982L300.989 30.6891L285.05 2.01684Z" fill="#06708A" stroke="#06708A" stroke-width="4"/>
<path d="M270.768 163L16.5 148.5L11 27.2639L23.4597 11.3575L283.271 9L286 135.325L270.768 163Z" fill="#2B859C"/>
<path d="M226.185 22L73.275 29.7411L66 110.609L87.5 111.957L78 126L111.5 113.305L232 116L226.185 22Z" fill="#ECFF00" fill-opacity="0.6"/>
<path d="M130.241 94C152.129 94 164.098 75.9194 164.098 60.2412C164.098 59.7276 164.087 59.2164 164.064 58.7075C166.388 57.0327 168.407 54.9426 170 52.5634C167.868 53.5084 165.573 54.1446 163.166 54.4314C165.623 52.9625 167.509 50.6388 168.399 47.8686C166.1 49.2277 163.554 50.2155 160.843 50.7487C158.671 48.4423 155.58 47 152.157 47C145.585 47 140.256 52.3136 140.256 58.8636C140.256 59.7947 140.361 60.7004 140.565 61.569C130.674 61.0728 121.905 56.3514 116.036 49.1722C115.014 50.9256 114.425 52.9625 114.425 55.1358C114.425 59.2523 116.526 62.8864 119.72 65.0123C117.768 64.9522 115.934 64.4178 114.331 63.5284C114.329 63.5781 114.329 63.6267 114.329 63.6799C114.329 69.4261 118.431 74.2238 123.876 75.311C122.876 75.5828 121.824 75.7286 120.738 75.7286C119.973 75.7286 119.227 75.6534 118.502 75.5146C120.017 80.2291 124.41 83.6596 129.618 83.7556C125.545 86.9387 120.415 88.8345 114.839 88.8345C113.879 88.8345 112.931 88.78 112 88.6702C117.266 92.036 123.52 94 130.241 94" fill="#065669"/>
<path d="M30 103.702C30 101.629 31.6416 99.948 33.6667 99.948H70.3333C72.3584 99.948 74 101.629 74 103.702V141.246C74 143.319 72.3584 145 70.3333 145H33.6667C31.6416 145 30 143.319 30 141.246V103.702Z" fill="#06566A"/>
<path fill-rule="evenodd" clip-rule="evenodd" d="M43.7819 105.58H39.625H38.25V107.339H39.625V136.595L42.3954 139.439H47.1875V109.076L43.7819 105.58Z" fill="#ECFF00"/>
<path fill-rule="evenodd" clip-rule="evenodd" d="M55.1625 122.756H45.5375L61.8436 139.452L66.6561 134.524L55.1625 122.756Z" fill="#ECFF00"/>
<path fill-rule="evenodd" clip-rule="evenodd" d="M47.2292 127.419H54.8019L68.6374 113.252H56.9332L45.1635 125.303L47.2292 127.419Z" fill="#06566A"/>
<path fill-rule="evenodd" clip-rule="evenodd" d="M44.5062 125.36H53.4438L64.5125 114.027H55.575L44.5062 125.36Z" fill="#ECFF00"/>
<path d="M64.5125 114.027H59.0125V115.787H64.5125V114.027Z" fill="#ECFF00"/>
<path fill-rule="evenodd" clip-rule="evenodd" d="M59.6312 139.313L65.2149 133.596L66.3816 134.791L60.7979 140.508L59.6312 139.313Z" fill="#ECFF00"/>
</svg>
