<svg width="303" height="168" viewBox="0 0 303 168" fill="none" xmlns="http://www.w3.org/2000/svg">
<rect width="303" height="168" fill="white"/>
<path d="M17.9504 2.01684L299.953 6.03723L300.995 147.387L288.297 163.437L4.96336 165.982L2.01134 30.6891L17.9504 2.01684Z" stroke="#06708A" stroke-width="4"/>
<path d="M93.2971 89.9573L96.9225 95.3333H102.985L96.7349 86.1493L102.485 79.8133H96.4537L91.1719 85.6373V72.6133H86.1089V95.3333H91.1719V92.2933L93.2971 89.9573Z" fill="#04323E"/>
<path d="M107.412 77.3814C109.037 77.3814 110.381 76.1334 110.381 74.4694C110.381 72.7734 109.037 71.5254 107.412 71.5254C105.756 71.5254 104.443 72.7734 104.443 74.4694C104.443 76.1334 105.756 77.3814 107.412 77.3814ZM109.975 79.8134H104.912V95.3334H109.975V79.8134Z" fill="#04323E"/>
<path d="M121.019 91.3014C118.863 91.3014 117.55 89.6694 117.55 87.5574C117.55 85.4454 118.863 83.8454 121.019 83.8454C122.582 83.8454 123.738 84.7734 123.988 86.1814H128.77C128.426 82.1814 125.207 79.4614 121.019 79.4614C116.237 79.4614 112.737 82.8534 112.737 87.5574C112.737 92.2934 116.237 95.6854 121.019 95.6854C125.207 95.6854 128.426 92.9654 128.77 88.9654H123.988C123.738 90.3734 122.582 91.3014 121.019 91.3014Z" fill="#04323E"/>
<path d="M138.65 89.9573L142.275 95.3333H148.338L142.088 86.1493L147.838 79.8133H141.807L136.525 85.6373V72.6133H131.462V95.3333H136.525V92.2933L138.65 89.9573Z" fill="#04323E"/>
<path d="M148.682 89.9895C148.994 94.1175 152.213 95.8135 156.182 95.8135C160.12 95.8135 163.277 94.1495 163.277 90.5655C163.277 87.8135 161.401 86.4055 158.557 85.8615L155.713 85.3815C154.526 85.1575 154.151 84.6775 154.151 84.1655C154.151 83.5575 154.745 83.0455 156.057 83.0455C157.464 83.0455 158.526 83.5895 158.62 84.7735H163.12C162.902 80.6775 159.245 79.3975 156.026 79.3975C151.994 79.3975 149.275 81.3175 149.275 84.5815C149.275 87.3015 151.088 88.8055 153.713 89.2535L156.776 89.7975C157.776 89.9575 158.245 90.3735 158.245 90.8855C158.245 91.5575 157.432 91.9735 156.088 91.9735C154.495 91.9735 153.401 91.3655 153.182 90.0215L148.682 89.9895Z" fill="#04323E"/>
<path d="M177.606 90.6614C176.481 90.8854 175.637 91.0454 174.918 91.0454C173.418 91.0454 172.543 90.2774 172.543 88.7094V84.2614H177.7V79.8134H172.543V74.5334H167.48V79.8134H164.511V84.2614H167.48V88.8694C167.48 93.0614 169.918 95.8134 173.574 95.8134C175.075 95.8134 176.2 95.6854 178.169 95.0454L177.606 90.6614Z" fill="#04323E"/>
<path d="M196.267 79.8134H191.204V80.6454C190.079 79.9094 188.704 79.4614 187.048 79.4614C182.953 79.4614 179.516 82.9174 179.516 87.5574C179.516 92.1654 182.953 95.6534 187.048 95.6534C188.704 95.6534 190.079 95.2054 191.204 94.4694V95.3334H196.267V79.8134ZM188.048 91.3974C185.985 91.3974 184.485 89.7014 184.485 87.5574C184.485 85.4134 185.985 83.6854 188.048 83.6854C189.173 83.6854 190.267 84.0374 191.204 85.1574V89.9574C190.267 91.0774 189.173 91.3974 188.048 91.3974Z" fill="#04323E"/>
<path d="M209.988 79.5574C207.738 79.5574 206.112 80.2934 204.769 81.4774V79.8134H199.706V95.3334H204.769V86.4694C205.956 85.2534 207.519 84.5814 209.988 84.4854V79.5574Z" fill="#04323E"/>
<path d="M224.332 90.6614C223.207 90.8854 222.363 91.0454 221.644 91.0454C220.144 91.0454 219.269 90.2774 219.269 88.7094V84.2614H224.426V79.8134H219.269V74.5334H214.206V79.8134H211.237V84.2614H214.206V88.8694C214.206 93.0614 216.644 95.8134 220.3 95.8134C221.801 95.8134 222.926 95.6854 224.895 95.0454L224.332 90.6614Z" fill="#04323E"/>
<path d="M227.574 73.5735V95.3335H236.137C242.794 95.3335 247.607 90.8535 247.607 84.3895C247.607 78.0215 242.794 73.5735 236.137 73.5735H227.574ZM232.856 90.4695V78.4375H236.137C239.575 78.4375 242.231 81.0295 242.231 84.3895C242.231 87.8455 239.575 90.4695 236.137 90.4695H232.856Z" fill="#04323E"/>
<path d="M258.663 73.0935C253.663 73.0935 250.225 75.8455 250.225 80.1975C250.225 83.6535 252.194 85.6695 256.382 86.5975L259.882 87.3975C261.695 87.7495 262.132 88.5175 262.132 89.2535C262.132 90.4375 261.101 91.1735 259.132 91.1735C256.632 91.1735 255.007 90.0215 254.663 88.1015H249.381C249.881 93.4775 254.194 95.7815 258.976 95.7815C264.289 95.7815 267.789 93.0615 267.789 88.7095C267.789 84.9655 265.258 83.3655 261.382 82.5015L258.413 81.7975C256.819 81.4455 255.976 80.9335 255.976 79.7495C255.976 78.3415 257.194 77.5735 259.007 77.5735C261.163 77.5735 262.164 78.6935 262.445 80.3255H267.758C267.226 74.4695 262.101 73.0935 258.663 73.0935Z" fill="#04323E"/>
<path d="M31 63.3333C31 61.4924 32.4575 60 34.2555 60H66.8104C68.6084 60 70.0659 61.4924 70.0659 63.3333V96.6667C70.0659 98.5076 68.6084 100 66.8104 100H34.2555C32.4575 100 31 98.5076 31 96.6667V63.3333Z" fill="#06566A"/>
<path fill-rule="evenodd" clip-rule="evenodd" d="M43.2364 65H39.5457H38.3249V66.5625H39.5457V92.5372L42.0054 95.0625H46.2601V68.1043L43.2364 65Z" fill="#ECFF00"/>
<path fill-rule="evenodd" clip-rule="evenodd" d="M53.3408 80.25H44.7952L59.2727 95.0737L63.5456 90.6987L53.3408 80.25Z" fill="#ECFF00"/>
<path fill-rule="evenodd" clip-rule="evenodd" d="M46.2972 84.3902H53.0207L65.3046 71.8125H54.913L44.4631 82.5122L46.2972 84.3902Z" fill="#06566A"/>
<path fill-rule="evenodd" clip-rule="evenodd" d="M43.8795 82.5625H51.8148L61.6423 72.5H53.7071L43.8795 82.5625Z" fill="#ECFF00"/>
<path d="M61.6423 72.5H56.7591V74.0625H61.6423V72.5Z" fill="#ECFF00"/>
<path fill-rule="evenodd" clip-rule="evenodd" d="M57.3084 94.9511L62.266 89.875L63.3019 90.9357L58.3443 96.0117L57.3084 94.9511Z" fill="#ECFF00"/>
</svg>
