<svg width="303" height="168" viewBox="0 0 303 168" fill="none" xmlns="http://www.w3.org/2000/svg">
<mask id="mask0_218_197" style="mask-type:alpha" maskUnits="userSpaceOnUse" x="0" y="0" width="303" height="168">
<path d="M303 2.06135L-6.07967e-06 0L4.89696 131.541L33.6378 162.364L292.933 168L303 2.06135Z" fill="#06708A"/>
</mask>
<g mask="url(#mask0_218_197)">
<path opacity="0.8" d="M303 2.06135L-6.07967e-06 0L4.89696 131.541L33.6378 162.364L292.933 168L303 2.06135Z" fill="white"/>
<path d="M214.415 12L10.0664 8V105L40.409 150L201.268 155L214.415 12Z" fill="#1F6779"/>
<path fill-rule="evenodd" clip-rule="evenodd" d="M110.459 131.942L100.61 133.714L97.3683 123.672L41.4261 123.672L54.6546 57.2165L150.413 34.1787L175.188 42.128L175.188 48.3647L173.187 69.3263L160.569 72.7227L160.569 87.4905L169.187 93.5454L173.187 123.672L172.726 123.672L115.425 123.672L110.459 131.942ZM172.726 123.672L173.187 123.672L175.188 123.672L172.726 123.672Z" fill="#ECFF00" fill-opacity="0.8"/>
<path fill-rule="evenodd" clip-rule="evenodd" d="M95.3714 105.904L86.7179 107.461L83.8685 98.6369L37.8662 98.6369L49.49 40.2432L132.283 20L154.052 26.985L154.052 32.4652L152.295 50.8839L141.207 53.8683L141.207 66.8449L148.779 72.1652L152.295 98.6369L154.052 98.6369L151.889 98.6369L99.7348 98.6369L95.3714 105.904Z" fill="#ECFF00"/>
<path d="M221.537 -2H303V164.477L215 166L221.537 -2Z" fill="white"/>
<path d="M264.431 24.6415L269.656 29.8324L262.467 39.3483L253.674 32.0442L264.431 24.6415Z" fill="#387888"/>
<path d="M273.259 22.1833L269.082 35.1356L257.701 25.2719L273.259 22.1833Z" fill="#387888"/>
<path d="M251.136 51.56L244.253 44.7221L251.595 36.4149L260.495 42.769L251.136 51.56Z" fill="#387888"/>
<path d="M241.139 53.3707L243.824 41.6085L255.445 51.9354L241.139 53.3707Z" fill="#387888"/>
<path d="M234.548 74.6122H253.64L252.635 93.5782L235.553 92.9008L234.548 74.6122Z" fill="#387888"/>
<path d="M273.867 76.2527L274.764 92.5781H257.783L258.68 75.6505L273.867 76.2527Z" stroke="#387888" stroke-width="2"/>
<rect x="235.548" y="123" width="38.2658" height="14" stroke="#387888" stroke-width="2"/>
<path d="M239.174 114H238.575V118H239.174C240.837 118 242.425 118.645 243.608 119.781V140.219C242.425 141.355 240.837 142 239.174 142H238.575V146H239.174C241.534 146 243.801 145.204 245.621 143.777C247.442 145.204 249.709 146 252.069 146H252.668V142H252.069C250.406 142 248.818 141.355 247.635 140.219V119.781C248.818 118.645 250.406 118 252.069 118H252.668V114H252.069C249.709 114 247.442 114.796 245.621 116.223C243.801 114.796 241.534 114 239.174 114Z" fill="#387888"/>
<path d="M6.86786 130.722L34.525 160.383L291.053 165.959L300.876 4.04695L2.07635 2.01417L6.86786 130.722Z" stroke="white" stroke-width="4"/>
</g>
</svg>
