<svg width="301" height="163" viewBox="0 0 301 163" fill="none" xmlns="http://www.w3.org/2000/svg">
<mask id="mask0_217:148" style="mask-type:alpha" maskUnits="userSpaceOnUse" x="0" y="0" width="301" height="163">
<path d="M301 2L1.84774e-06 0L4.86465 127.627L33.4158 157.532L290.999 163L301 2Z" fill="#06708A"/>
</mask>
<g mask="url(#mask0_217:148)">
<path d="M301 2L1.84774e-06 0L4.86465 127.627L33.4158 157.532L290.999 163L301 2Z" fill="#06708A"/>
<path d="M213 12L10 8V105L40.1423 150L199.939 155L213 12Z" fill="#2B859C"/>
<path fill-rule="evenodd" clip-rule="evenodd" d="M109.729 131.942L99.9462 133.714L96.7256 123.672L41.1526 123.672L54.2939 57.2165L149.42 34.1787L174.031 42.128L174.031 48.3647L172.044 69.3263L159.51 72.7227L159.51 87.4905L168.07 93.5454L172.044 123.672L171.586 123.672L114.663 123.672L109.729 131.942ZM171.586 123.672L172.044 123.672L174.031 123.672L171.586 123.672Z" fill="#ECFF00" fill-opacity="0.8"/>
<path fill-rule="evenodd" clip-rule="evenodd" d="M94.7419 105.904L86.1455 107.461L83.3149 98.6369L37.6162 98.6369L49.1634 40.2432L131.41 20L153.036 26.985L153.036 32.4652L151.289 50.8839L140.275 53.8683L140.275 66.8449L147.797 72.1652L151.289 98.6369L153.036 98.6369L150.887 98.6369L99.0765 98.6369L94.7419 105.904Z" fill="#ECFF00"/>
<path d="M220 -2H301V162L213.5 163.5L220 -2Z" fill="white"/>
<path d="M262.686 24.6415L267.877 29.8324L260.734 39.3483L252 32.0442L262.686 24.6415Z" fill="#06708A"/>
<path d="M271.455 22.1833L267.306 35.1356L256 25.2719L271.455 22.1833Z" fill="#06708A"/>
<path d="M249.479 51.56L242.641 44.7221L249.935 36.4149L258.776 42.769L249.479 51.56Z" fill="#06708A"/>
<path d="M239.547 53.3707L242.215 41.6085L253.759 51.9354L239.547 53.3707Z" fill="#06708A"/>
<path d="M233 74.6122H251.966L250.968 93.5782L233.998 92.9008L233 74.6122Z" fill="#06708A"/>
<path d="M272.053 76.2524L272.944 92.5781H256.088L256.979 75.6507L272.053 76.2524Z" stroke="#06708A" stroke-width="2"/>
<rect x="234" y="123" width="38" height="14" stroke="#06708A" stroke-width="2"/>
<path d="M237.595 114H237V118H237.595C239.247 118 240.825 118.645 242 119.781V140.219C240.825 141.355 239.247 142 237.595 142H237V146H237.595C239.94 146 242.192 145.204 244 143.777C245.808 145.204 248.06 146 250.405 146H251V142H250.405C248.753 142 247.175 141.355 246 140.219V119.781C247.175 118.645 248.753 118 250.405 118H251V114H250.405C248.06 114 245.808 114.796 244 116.223C242.192 114.796 239.94 114 237.595 114Z" fill="#06708A"/>
<path d="M6.83435 126.793L34.2888 155.55L289.122 160.96L298.873 3.98591L2.07822 2.01385L6.83435 126.793Z" stroke="#06708A" stroke-width="4"/>
</g>
</svg>
