<svg width="279" height="242" viewBox="0 0 279 242" fill="none" xmlns="http://www.w3.org/2000/svg">
<path d="M40 171L59.5556 169.545L64 164.455L54.2222 150.636L32 147V150.636L40 155.727L32 152.818L0 147L1.77778 155.727L40 171Z" fill="#ECFF00"/>
<path opacity="0.2" d="M164.5 242C227.737 242 279 190.513 279 127C279 63.4873 227.737 12 164.5 12C101.263 12 50 63.4873 50 127C50 190.513 101.263 242 164.5 242Z" fill="url(#paint0_radial_1994_4124)"/>
<rect x="122.44" y="164.936" width="73.7195" height="49.2334" fill="#ECFF00"/>
<path d="M124.695 72.7858L141.514 68.3589L152.397 55.4744L188.014 72.3233L200.876 72.7858L195.155 99.8763L181.734 125.645L163.28 130.799L143.149 125.645L131.406 99.8763L124.695 72.7858Z" fill="#ECFF00"/>
<path d="M155.023 87.8855C155.454 89.0521 155.415 90.3405 154.916 91.4793C154.417 92.6181 153.496 93.5183 152.347 93.9905C151.199 94.4627 149.912 94.4699 148.758 94.0106C147.605 93.5513 146.674 92.6614 146.162 91.5283C145.65 90.3951 145.597 89.1073 146.015 87.9359C146.432 86.7645 147.286 85.801 148.399 85.2483C149.511 84.6957 150.794 84.597 151.977 84.9731C153.161 85.3492 154.152 86.1706 154.743 87.2645L150.528 89.5491L155.023 87.8855Z" fill="black"/>
<ellipse cx="1.97329" cy="1.97679" rx="1.97329" ry="1.97679" transform="matrix(0.999769 0.0215057 -0.0214296 0.99977 148.111 90.6316)" fill="white"/>
<path d="M181.406 87.8855C181.836 89.0521 181.798 90.3405 181.299 91.4793C180.8 92.6181 179.879 93.5183 178.73 93.9905C177.582 94.4627 176.295 94.4699 175.141 94.0106C173.987 93.5513 173.057 92.6614 172.545 91.5283C172.033 90.3951 171.98 89.1073 172.397 87.9359C172.815 86.7645 173.669 85.801 174.781 85.2483C175.894 84.6957 177.177 84.597 178.36 84.9731C179.543 85.3492 180.535 86.1706 181.126 87.2645L176.911 89.5491L181.406 87.8855Z" fill="black"/>
<ellipse cx="1.97329" cy="1.97679" rx="1.97329" ry="1.97679" transform="matrix(0.999769 0.0215057 -0.0214296 0.99977 174.494 90.6316)" fill="white"/>
<path d="M115.536 17.8122L119.493 13.8477L207.469 0L218.003 6.0304L210.514 43.5812L115.536 47.5456V17.8122Z" fill="url(#paint1_linear_1994_4124)"/>
<path fill-rule="evenodd" clip-rule="evenodd" d="M208.791 47.5457L117.77 51.5101L125.685 101.066L139.536 130.799L163.281 136.746L185.047 130.799L200.876 101.066L208.791 47.5457ZM141.754 68.847L124.695 72.7861L131.406 99.8766L143.149 125.646L163.28 130.799L181.734 125.646L195.155 99.8766L200.876 72.7861L188.406 74.3748L152.397 55.4746L141.754 68.847Z" fill="#052F3A"/>
<path fill-rule="evenodd" clip-rule="evenodd" d="M105.897 220H82.1527L88.0889 162.515L73.5 139L136 137.5L150.419 147.648L105.897 157.559V220ZM111.834 162.515L198.5 140.5L206.812 150.5V220H111.834V162.515ZM143.493 178.373C143.493 182.752 139.95 186.302 135.578 186.302C131.207 186.302 127.663 182.752 127.663 178.373C127.663 173.994 131.207 170.444 135.578 170.444C139.95 170.444 143.493 173.994 143.493 178.373ZM183.067 182.338C187.439 182.338 190.982 178.788 190.982 174.409C190.982 170.03 187.439 166.48 183.067 166.48C178.696 166.48 175.152 170.03 175.152 174.409C175.152 178.788 178.696 182.338 183.067 182.338ZM143.493 204.142C143.493 208.521 139.95 212.071 135.578 212.071C131.207 212.071 127.663 208.521 127.663 204.142C127.663 199.763 131.207 196.213 135.578 196.213C139.95 196.213 143.493 199.763 143.493 204.142ZM183.067 212.071C187.439 212.071 190.982 208.521 190.982 204.142C190.982 199.763 187.439 196.213 183.067 196.213C178.696 196.213 175.152 199.763 175.152 204.142C175.152 208.521 178.696 212.071 183.067 212.071ZM233.5 163.5L212.749 153.5V220H242.5L233.5 163.5Z" fill="url(#paint2_linear_1994_4124)"/>
<path d="M62.6733 220H106L65.5 175L41 177.5L62.6733 220Z" fill="url(#paint3_linear_1994_4124)"/>
<path fill-rule="evenodd" clip-rule="evenodd" d="M149.5 212.5L157.5 206.658L168.242 200.661L177.031 197.328L192.535 196.914L196.283 197.331L200.593 198.02L204.904 198.708L209.142 199.988L213.38 201.268L217.388 203.075L221.396 204.882L224.66 206.117L227.925 207.353L234.218 208.744L240.511 210.135L241.261 210.507L242.011 210.88L240.137 210.65L238.262 210.42L233.952 209.564L229.642 208.708L225.484 207.417L221.326 206.126L215.492 203.731L209.658 201.335L206.156 200.453L202.655 199.572L199.015 199.103L195.376 198.634H190.099H184.821L181.369 199.086L177.917 199.538L175.106 200.332L172.295 201.125L177.167 200.927L182.04 200.728L187.312 201.445L192.585 202.162L195.371 202.84L198.157 203.517L206.079 205.895L214 208.272L221.699 209.815L229.398 211.358L236.829 212.276L244.26 213.193L245.048 213.373L245.837 213.553L246.056 216.954L246.276 220.355L247.971 224.319L249.665 228.282L251.208 230.368L253 233L254 233.5L255 234L254.874 239.162L250.878 238.88L246.883 238.596L236.201 238.154L225.519 237.712L216.523 237.281L207.527 236.851L192.722 236.153L177.917 235.455L172.857 235.382L167.797 235.309L166.11 236.119L164.424 236.929L161.987 237.552L159.551 238.176L153.929 238.451L148.306 238.726L143.407 238.216L138.507 237.706L134.786 236.516L131.065 235.326L125.817 235.394L120.57 235.462L106.327 236.158L92.0839 236.855L83.2757 237.283L74.4675 237.712L63.9726 238.16L53.4777 238.609L49.6718 238.888L45.8656 239.166L44.8929 238.027L43.9199 236.886V235.748L45 234.5H46L47.5 234L48.7423 232.454L50.0572 230.574L51.3724 228.693L52.7199 226.072L54.0673 223.45L54.8031 220.659L55.5392 217.867V215.726V213.585L56.3826 213.384L57.2259 213.184L64.5787 212.268L71.9311 211.351L78.6343 210.023L85.3372 208.694L89.0853 207.676L92.8335 206.658L98.8306 204.86L104.828 203.062L108.125 202.392L111.422 201.722L115.809 201.218L120.195 200.715L124.693 200.925L129.191 201.136L126.38 200.332L123.568 199.529L119.478 199.021L115.387 198.514L108.608 198.764L101.829 199.014L98.4445 199.689L95.0599 200.364L91.6978 201.496L88.3357 202.628L85.5246 203.888L82.7135 205.148L78.1002 206.718L73.4873 208.288L68.355 209.358L63.223 210.427L61.4242 210.628L59.6251 210.829L59.8061 210.618L59.9868 210.406L65.5405 209.179L71.0941 207.952L74.2801 206.993L77.466 206.035L81.589 204.147L85.712 202.259L88.1483 201.334L90.5846 200.41L93.7706 199.54L96.9565 198.67L99.5802 198.176L102.204 197.682L107.451 197.112L112.699 196.542L107.343 196.49L101.987 196.438L98.5206 196.891L95.0543 197.344L91.3204 198.37L87.5861 199.396L82.526 200.957L77.466 202.518L72.0312 203.405L66.5963 204.292L63.0472 204.561L59.498 204.83L59.7064 204.585L59.9148 204.341L66.0667 203.459L72.2186 202.577L75.3183 201.908L78.418 201.238L81.8266 199.933L85.2356 198.627L88.0973 197.792L90.9594 196.957L94.7076 196.149L98.4558 195.34L107.639 195.361L116.822 195.381L121.32 196.56L129.566 199.147L137.999 203.312L149.5 212.5Z" fill="#5F97A5"/>
<path d="M157.506 216.915L165.939 230.97L145.699 236.241L130.894 230.97L140.639 214.719H150.01L157.506 216.915Z" fill="black" fill-opacity="0.2"/>
<path d="M254.032 232.711H252.914L166.766 228L149.623 232.711L128.336 228L47.8474 232.711H46.3486H44.8495L43.9249 233.882L43 235.053V236.288V237.524L43.9781 238.762L44.9557 240L48.7818 239.698L52.6074 239.395L63.1567 238.907L73.706 238.42L82.5599 237.955L91.4137 237.49L105.731 236.733L120.048 235.977L125.322 235.903L130.597 235.83L134.337 237.122L138.077 238.414L143.003 238.968L147.928 239.522L153.579 239.223L159.231 238.924L161.68 238.247L164.129 237.57L165.824 236.69L167.519 235.811L172.606 235.891L177.692 235.97L192.574 236.728L207.456 237.486L216.498 237.953L225.54 238.42L236.278 238.901L247.016 239.381L251.032 239.689L255.048 239.996L256.024 238.76L257 237.524V236.288V235.053L256.075 233.882L255.15 232.711H254.032Z" fill="#083D4A"/>
<defs>
<radialGradient id="paint0_radial_1994_4124" cx="0" cy="0" r="1" gradientUnits="userSpaceOnUse" gradientTransform="translate(164.5 127) rotate(90) scale(115 114.5)">
<stop offset="0.348958" stop-color="#ECFF00"/>
<stop offset="1" stop-color="#C4C4C4" stop-opacity="0"/>
</radialGradient>
<linearGradient id="paint1_linear_1994_4124" x1="205.765" y1="10.522" x2="123.293" y2="43.5417" gradientUnits="userSpaceOnUse">
<stop stop-color="#07718B"/>
<stop offset="1" stop-color="#032C36"/>
<stop offset="1" stop-color="#07566B"/>
</linearGradient>
<linearGradient id="paint2_linear_1994_4124" x1="98.0726" y1="219.989" x2="196.581" y2="158.807" gradientUnits="userSpaceOnUse">
<stop stop-color="#06566A"/>
<stop offset="1" stop-color="#06708A"/>
</linearGradient>
<linearGradient id="paint3_linear_1994_4124" x1="106" y1="220" x2="53" y2="200" gradientUnits="userSpaceOnUse">
<stop stop-color="#174450"/>
<stop offset="1" stop-color="#06708A"/>
</linearGradient>
</defs>
</svg>
