<svg width="448" height="401" viewBox="0 0 448 401" fill="none" xmlns="http://www.w3.org/2000/svg">
<path opacity="0.2" d="M224 400C347.712 400 448 310.457 448 200C448 89.543 347.712 0 224 0C100.288 0 0 89.543 0 200C0 310.457 100.288 400 224 400Z" fill="url(#paint0_radial_1923_4668)"/>
<path d="M131.626 177.356L157.161 170.647L173.684 151.12L227.759 176.655L247.286 177.356L238.6 218.413L218.224 257.467L190.207 265.277L159.643 257.467L141.814 218.413L131.626 177.356Z" fill="#ECFF00"/>
<path d="M177.672 199.002C178.325 200.77 178.267 202.722 177.509 204.448C176.751 206.174 175.353 207.538 173.609 208.254C171.865 208.969 169.912 208.98 168.16 208.284C166.408 207.588 164.995 206.24 164.218 204.522C163.441 202.805 163.361 200.853 163.994 199.078C164.628 197.303 165.925 195.842 167.614 195.005C169.303 194.167 171.25 194.018 173.047 194.588C174.844 195.158 176.349 196.403 177.246 198.06L170.847 201.523L177.672 199.002Z" fill="black"/>
<circle cx="173.16" cy="200.145" r="2.99589" transform="rotate(1.2301 173.16 200.145)" fill="white"/>
<path d="M217.727 199.002C218.38 200.77 218.322 202.722 217.564 204.448C216.806 206.174 215.408 207.538 213.664 208.254C211.92 208.969 209.967 208.98 208.215 208.284C206.464 207.588 205.051 206.24 204.273 204.522C203.496 202.805 203.416 200.853 204.05 199.078C204.683 197.303 205.981 195.842 207.669 195.005C209.358 194.167 211.306 194.018 213.102 194.588C214.899 195.158 216.404 196.403 217.301 198.06L210.902 201.523L217.727 199.002Z" fill="black"/>
<circle cx="213.215" cy="200.145" r="2.99589" transform="rotate(1.2301 213.215 200.145)" fill="white"/>
<rect x="128.203" y="317.013" width="111.923" height="74.615" fill="#ECFF00"/>
<path d="M117.72 94.0414L123.728 88.0331L279.944 64L261.919 133.095L117.72 139.104V94.0414Z" fill="url(#paint1_linear_1923_4668)"/>
<path fill-rule="evenodd" clip-rule="evenodd" d="M259.302 139.104L121.112 145.112L133.128 220.215L154.157 265.277L190.207 274.29L223.253 265.277L247.286 220.215L259.302 139.104ZM157.161 170.647L131.626 177.357L141.814 218.413L159.643 257.467L190.207 265.278L218.224 257.467L238.6 218.413L247.286 177.357L227.759 176.656L173.684 151.12L157.161 170.647Z" fill="#052F3A"/>
<path fill-rule="evenodd" clip-rule="evenodd" d="M103.087 400.464H67.0373L76.0497 313.344L40 265.277L148.149 274.29L170.68 290.813L103.087 305.833V400.464ZM112.099 313.344L256.298 280.298V400.464H112.099V313.344ZM160.166 337.377C160.166 344.013 154.786 349.393 148.149 349.393C141.512 349.393 136.132 344.013 136.132 337.377C136.132 330.74 141.512 325.36 148.149 325.36C154.786 325.36 160.166 330.74 160.166 337.377ZM220.248 343.385C226.885 343.385 232.265 338.005 232.265 331.369C232.265 324.732 226.885 319.352 220.248 319.352C213.612 319.352 208.232 324.732 208.232 331.369C208.232 338.005 213.612 343.385 220.248 343.385ZM160.166 376.43C160.166 383.067 154.786 388.447 148.149 388.447C141.512 388.447 136.132 383.067 136.132 376.43C136.132 369.794 141.512 364.414 148.149 364.414C154.786 364.414 160.166 369.794 160.166 376.43ZM220.248 388.447C226.885 388.447 232.265 383.067 232.265 376.43C232.265 369.794 226.885 364.414 220.248 364.414C213.612 364.414 208.232 369.794 208.232 376.43C208.232 383.067 213.612 388.447 220.248 388.447ZM310.373 304.331L265.31 280.298V400.464H322.389L310.373 304.331Z" fill="url(#paint2_linear_1923_4668)"/>
<path d="M305.581 391.07L387 381.675V400.464H305.581V391.07Z" fill="#ECFF00"/>
<path d="M380.737 375.412L311.844 384.806L311.844 366.017L325.936 356.623L352.554 350.36L366.645 353.491L380.737 366.017L380.737 375.412Z" fill="#ECFF00"/>
<path d="M349.422 347.798L324.37 353.491L324.37 345.52L333.138 340.965L345.664 340.965L349.422 347.798Z" fill="#ECFF00"/>
<defs>
<radialGradient id="paint0_radial_1923_4668" cx="0" cy="0" r="1" gradientUnits="userSpaceOnUse" gradientTransform="translate(224 200) rotate(90) scale(200 224)">
<stop offset="0.348958" stop-color="#ECFF00"/>
<stop offset="1" stop-color="#C4C4C4" stop-opacity="0"/>
</radialGradient>
<linearGradient id="paint1_linear_1923_4668" x1="254.709" y1="82.9929" x2="129.559" y2="133.188" gradientUnits="userSpaceOnUse">
<stop stop-color="#07718B"/>
<stop offset="1" stop-color="#032C36"/>
<stop offset="1" stop-color="#07566B"/>
</linearGradient>
<linearGradient id="paint2_linear_1923_4668" x1="81.0594" y1="400.446" x2="243.856" y2="297.342" gradientUnits="userSpaceOnUse">
<stop stop-color="#06566A"/>
<stop offset="1" stop-color="#06708A"/>
</linearGradient>
</defs>
</svg>
