<svg width="240" height="40" viewBox="0 0 240 40" fill="none" xmlns="http://www.w3.org/2000/svg">
<path d="M63.1417 29.6545L66.8163 34.9762H72.9615L66.6262 25.885L72.4547 19.6131H66.3411L60.9877 25.3782V12.4858H55.8561V34.9762H60.9877V31.9669L63.1417 29.6545Z" fill="white"/>
<path d="M77.4483 17.2059C79.0955 17.2059 80.4576 15.9705 80.4576 14.3234C80.4576 12.6445 79.0955 11.4091 77.4483 11.4091C75.7694 11.4091 74.439 12.6445 74.439 14.3234C74.439 15.9705 75.7694 17.2059 77.4483 17.2059ZM80.0458 19.6133H74.9142V34.9765H80.0458V19.6133Z" fill="white"/>
<path d="M91.2398 30.9853C89.0541 30.9853 87.7237 29.3698 87.7237 27.2791C87.7237 25.1885 89.0541 23.6046 91.2398 23.6046C92.8236 23.6046 93.9957 24.5233 94.2491 25.917H99.0956C98.7471 21.9575 95.4845 19.265 91.2398 19.265C86.3933 19.265 82.8455 22.6227 82.8455 27.2791C82.8455 31.9673 86.3933 35.325 91.2398 35.325C95.4845 35.325 98.7471 32.6325 99.0956 28.6729H94.2491C93.9957 30.0667 92.8236 30.9853 91.2398 30.9853Z" fill="white"/>
<path d="M109.11 29.6545L112.784 34.9762H118.93L112.594 25.885L118.423 19.6131H112.309L106.956 25.3782V12.4858H101.824V34.9762H106.956V31.9669L109.11 29.6545Z" fill="white"/>
<path d="M119.277 29.686C119.594 33.7723 122.857 35.4511 126.88 35.4511C130.871 35.4511 134.07 33.804 134.07 30.2562C134.07 27.532 132.17 26.1382 129.287 25.5997L126.405 25.1246C125.201 24.9028 124.821 24.4277 124.821 23.9209C124.821 23.319 125.423 22.8122 126.753 22.8122C128.179 22.8122 129.256 23.3507 129.351 24.5227H133.912C133.69 20.4681 129.984 19.201 126.721 19.201C122.635 19.201 119.879 21.1016 119.879 24.3327C119.879 27.0252 121.717 28.514 124.377 28.9574L127.482 29.4959C128.495 29.6543 128.97 30.0661 128.97 30.5729C128.97 31.2381 128.147 31.6499 126.785 31.6499C125.169 31.6499 124.061 31.0481 123.839 29.7177L119.277 29.686Z" fill="white"/>
<path d="M148.594 30.3514C147.454 30.5731 146.599 30.7315 145.87 30.7315C144.35 30.7315 143.463 29.9713 143.463 28.4191V24.0161H148.689V19.613H143.463V14.3864H138.331V19.613H135.322V24.0161H138.331V28.5775C138.331 32.7271 140.802 35.4513 144.508 35.4513C146.028 35.4513 147.169 35.3246 149.164 34.6911L148.594 30.3514Z" fill="white"/>
<path d="M167.508 19.6134H162.377V20.437C161.236 19.7084 159.843 19.265 158.164 19.265C154.014 19.265 150.53 22.686 150.53 27.2791C150.53 31.8406 154.014 35.2933 158.164 35.2933C159.843 35.2933 161.236 34.8498 162.377 34.1213V34.9765H167.508V19.6134ZM159.177 31.0803C157.087 31.0803 155.566 29.4015 155.566 27.2791C155.566 25.1568 157.087 23.4463 159.177 23.4463C160.318 23.4463 161.427 23.7947 162.377 24.9034V29.6549C161.427 30.7636 160.318 31.0803 159.177 31.0803Z" fill="white"/>
<path d="M181.415 19.3594C179.134 19.3594 177.487 20.088 176.125 21.26V19.6128H170.993V34.976H176.125V26.2016C177.329 24.9979 178.912 24.3327 181.415 24.2376V19.3594Z" fill="white"/>
<path d="M195.954 30.3514C194.813 30.5731 193.958 30.7315 193.229 30.7315C191.709 30.7315 190.822 29.9713 190.822 28.4191V24.0161H196.049V19.613H190.822V14.3864H185.69V19.613H182.681V24.0161H185.69V28.5775C185.69 32.7271 188.161 35.4513 191.867 35.4513C193.388 35.4513 194.528 35.3246 196.524 34.6911L195.954 30.3514Z" fill="white"/>
<path d="M199.24 13.4365V34.9765H207.919C214.666 34.9765 219.544 30.5418 219.544 24.1431C219.544 17.8395 214.666 13.4365 207.919 13.4365H199.24ZM204.593 30.1617V18.2513H207.919C211.403 18.2513 214.096 20.8171 214.096 24.1431C214.096 27.5642 211.403 30.1617 207.919 30.1617H204.593Z" fill="white"/>
<path d="M230.75 12.9606C225.682 12.9606 222.198 15.6848 222.198 19.9928C222.198 23.4139 224.193 25.4095 228.438 26.3281L231.986 27.1201C233.823 27.4685 234.267 28.2287 234.267 28.9573C234.267 30.1293 233.221 30.8579 231.226 30.8579C228.691 30.8579 227.044 29.7175 226.696 27.8169H221.342C221.849 33.1386 226.221 35.4193 231.067 35.4193C236.452 35.4193 240 32.7268 240 28.4188C240 24.7126 237.434 23.1288 233.506 22.2735L230.497 21.5767C228.881 21.2282 228.026 20.7214 228.026 19.5494C228.026 18.1556 229.262 17.3953 231.099 17.3953C233.285 17.3953 234.298 18.504 234.583 20.1195H239.968C239.43 14.3227 234.235 12.9606 230.75 12.9606Z" fill="white"/>
<path d="M0 3.33333C0 1.49239 1.49239 0 3.33333 0H36.6667C38.5076 0 40 1.49239 40 3.33333V36.6667C40 38.5076 38.5076 40 36.6667 40H3.33333C1.49239 40 0 38.5076 0 36.6667V3.33333Z" fill="url(#paint0_linear_1924_4730)"/>
<path d="M12.5291 5L15.6251 8.10433V20.1248L23.25 12.4998H31.375L31.3751 14.0623H29.8126L21.3126 22.5623H13.8354L15.6251 24.3521V35.0625H11.2686L8.75006 32.5372V6.5625H7.50006V5H12.5291Z" fill="#ECFF00"/>
<path d="M18.2652 24.3901L27.8819 34.0068L26.9376 34.951L27.9983 36.0116L28.9488 35.0737L33.3238 30.6987L24.7813 22.1562L22.5474 24.3901H18.2652Z" fill="#ECFF00"/>
<path d="M0.5 3.33333C0.5 1.76853 1.76853 0.5 3.33333 0.5H36.6667C38.2315 0.5 39.5 1.76853 39.5 3.33333V36.6667C39.5 38.2315 38.2315 39.5 36.6667 39.5H3.33333C1.76853 39.5 0.5 38.2315 0.5 36.6667V3.33333Z" stroke="url(#paint1_linear_1924_4730)" stroke-opacity="0.35"/>
<defs>
<linearGradient id="paint0_linear_1924_4730" x1="32" y1="6.4" x2="-2.09808e-06" y2="38.4" gradientUnits="userSpaceOnUse">
<stop stop-color="#06708A"/>
<stop offset="1" stop-color="#055D73"/>
</linearGradient>
<linearGradient id="paint1_linear_1924_4730" x1="-1.03936e-06" y1="40" x2="28.25" y2="8.75" gradientUnits="userSpaceOnUse">
<stop stop-color="#ECFF00"/>
<stop offset="1" stop-color="#ECFF00" stop-opacity="0"/>
</linearGradient>
</defs>
</svg>
