<?xml version="1.0" encoding="UTF-8"?>
<svg width="379px" height="72px" viewBox="0 0 379 72" version="1.1" xmlns="http://www.w3.org/2000/svg" xmlns:xlink="http://www.w3.org/1999/xlink">
    <title>Group</title>
    <g id="Page-1" stroke="none" stroke-width="1" fill="none" fill-rule="evenodd">
        <g id="LP-HD" transform="translate(-118.000000, -79.000000)">
            <g id="Group" transform="translate(118.000000, 79.000000)">
                <g id="logo">
                    <rect id="Rectangle" fill="#06566A" x="0" y="0" width="60" height="60" rx="4.6875"></rect>
                    <path d="M18.7789964,7.56311896 L23.4449964,12.223119 L23.4453782,52.6890756 L15.0049964,52.688119 L11.2099964,48.897119 L11.2097311,9.81911896 L9.32773109,9.81941704 L9.32773109,7.56311922 L18.7789964,7.56311896 Z" id="Combined-Shape" fill="#ECFF00"></path>
                    <path d="M35.2581407,28.487395 L51.6797647,45.024395 L43.7567647,53.003395 L43.7437647,52.990395 L42.5420799,54.2016807 L40.9601862,52.6087099 L42.1617647,51.397395 L19.4117647,28.487395 L35.2581407,28.487395 Z" id="Combined-Shape" fill="#ECFF00"></path>
                    <path d="M55.7142857,17.1428571 L36.7286088,35.7983193 L23.5062689,35.7978571 L20.6722689,33.0128571 L36.822951,17.1428571 L55.7142857,17.1428571 Z" id="Combined-Shape" fill="#06566A"></path>
                    <path d="M49.4117647,17.8991597 L49.4117647,20.1680672 L46.7849664,20.1671597 L34.0238111,33.0252101 L20.8209664,33.0251597 L19.9169664,32.1131597 L34.0238111,17.8991597 L49.4117647,17.8991597 Z" id="Combined-Shape" fill="#ECFF00"></path>
                </g>
                <path d="M92.416,53 L92.416,48.44 L95.68,44.936 L101.248,53 L110.56,53 L100.96,39.224 L109.792,29.72 L100.528,29.72 L92.416,38.456 L92.416,18.92 L84.64,18.92 L84.64,53 L92.416,53 Z M117.376,26.072 C119.872,26.072 121.936,24.2 121.936,21.704 C121.936,19.16 119.872,17.288 117.376,17.288 C114.832,17.288 112.816,19.16 112.816,21.704 C112.816,24.2 114.832,26.072 117.376,26.072 Z M121.312,53 L121.312,29.72 L113.536,29.72 L113.536,53 L121.312,53 Z M138.256,53.528 C144.688,53.528 149.632,49.448 150.16,43.448 L142.816,43.448 C142.432,45.56 140.656,46.952 138.256,46.952 C134.944,46.952 132.928,44.504 132.928,41.336 C132.928,38.168 134.944,35.768 138.256,35.768 C140.656,35.768 142.432,37.16 142.816,39.272 L150.16,39.272 C149.632,33.272 144.688,29.192 138.256,29.192 C130.912,29.192 125.536,34.28 125.536,41.336 C125.536,48.44 130.912,53.528 138.256,53.528 Z M162.064,53 L162.064,48.44 L165.328,44.936 L170.896,53 L180.208,53 L170.608,39.224 L179.44,29.72 L170.176,29.72 L162.064,38.456 L162.064,18.92 L154.288,18.92 L154.288,53 L162.064,53 Z M192.256,53.72 C198.304,53.72 203.152,51.224 203.152,45.848 C203.152,41.72 200.272,39.608 195.904,38.792 L191.536,38.072 C189.712,37.736 189.136,37.016 189.136,36.248 C189.136,35.336 190.048,34.568 192.064,34.568 C194.224,34.568 195.856,35.384 196,37.16 L202.912,37.16 C202.576,31.016 196.96,29.096 192.016,29.096 C185.824,29.096 181.648,31.976 181.648,36.872 C181.648,40.952 184.432,43.208 188.464,43.88 L193.168,44.696 C194.704,44.936 195.424,45.56 195.424,46.328 C195.424,47.336 194.176,47.96 192.112,47.96 C189.664,47.96 187.984,47.048 187.648,45.032 L180.736,44.984 C181.216,51.176 186.16,53.72 192.256,53.72 Z M218.944,53.72 C221.248,53.72 222.976,53.528 226,52.568 L225.136,45.992 C223.408,46.328 222.112,46.568 221.008,46.568 C218.704,46.568 217.36,45.416 217.36,43.064 L217.36,36.392 L225.28,36.392 L225.28,29.72 L217.36,29.72 L217.36,21.8 L209.584,21.8 L209.584,29.72 L205.024,29.72 L205.024,36.392 L209.584,36.392 L209.584,43.304 C209.584,49.592 213.328,53.72 218.944,53.72 Z M239.632,53.48 C242.176,53.48 244.288,52.808 246.016,51.704 L246.016,53 L253.792,53 L253.792,29.72 L246.016,29.72 L246.016,30.968 C244.288,29.864 242.176,29.192 239.632,29.192 C233.344,29.192 228.064,34.376 228.064,41.336 C228.064,48.248 233.344,53.48 239.632,53.48 Z M241.168,47.096 C238,47.096 235.696,44.552 235.696,41.336 C235.696,38.12 238,35.528 241.168,35.528 C242.896,35.528 244.576,36.056 246.016,37.736 L246.016,44.936 C244.576,46.616 242.896,47.096 241.168,47.096 Z M266.848,53 L266.848,39.704 C268.672,37.88 271.072,36.872 274.864,36.728 L274.864,29.336 C271.408,29.336 268.912,30.44 266.848,32.216 L266.848,29.72 L259.072,29.72 L259.072,53 L266.848,53 Z M290.704,53.72 C293.008,53.72 294.736,53.528 297.76,52.568 L296.896,45.992 C295.168,46.328 293.872,46.568 292.768,46.568 C290.464,46.568 289.12,45.416 289.12,43.064 L289.12,36.392 L297.04,36.392 L297.04,29.72 L289.12,29.72 L289.12,21.8 L281.344,21.8 L281.344,29.72 L276.784,29.72 L276.784,36.392 L281.344,36.392 L281.344,43.304 C281.344,49.592 285.088,53.72 290.704,53.72 Z M327.376,53 C337.6,53 344.992,46.28 344.992,36.584 C344.992,27.032 337.6,20.36 327.376,20.36 L314.224,20.36 L314.224,53 L327.376,53 Z M327.376,45.704 L322.336,45.704 L322.336,27.656 L327.376,27.656 C332.656,27.656 336.736,31.544 336.736,36.584 C336.736,41.768 332.656,45.704 327.376,45.704 Z M362.416,53.672 C370.576,53.672 375.952,49.592 375.952,43.064 C375.952,37.448 372.064,35.048 366.112,33.752 L361.552,32.696 C359.104,32.168 357.808,31.4 357.808,29.624 C357.808,27.512 359.68,26.36 362.464,26.36 C365.776,26.36 367.312,28.04 367.744,30.488 L375.904,30.488 C375.088,21.704 367.216,19.64 361.936,19.64 C354.256,19.64 348.976,23.768 348.976,30.296 C348.976,35.48 352,38.504 358.432,39.896 L363.808,41.096 C366.592,41.624 367.264,42.776 367.264,43.88 C367.264,45.656 365.68,46.76 362.656,46.76 C358.816,46.76 356.32,45.032 355.792,42.152 L347.68,42.152 C348.448,50.216 355.072,53.672 362.416,53.672 Z" id="kickstartDS" fill="#083D4A" fill-rule="nonzero"></path>
            </g>
        </g>
    </g>
</svg>