<svg id="svg3476" xmlns="http://www.w3.org/2000/svg" viewBox="0 0 70.85 100"><defs><style>.cls-1{fill:#264de4;}.cls-2{fill:#2965f1;}.cls-3{fill:#ebebeb;}.cls-4{fill:#fff;}</style></defs><g id="layer1"><g id="g3013"><polygon id="polygon2989" class="cls-1" points="70.85 19.65 64.39 91.96 35.38 100 6.45 91.97 0 19.65 70.85 19.65"/><polygon id="polygon2991" class="cls-2" points="58.87 87.35 64.38 25.57 35.42 25.57 35.42 93.85 58.87 87.35"/><polygon id="polygon2993" class="cls-3" points="14.78 52.39 15.58 61.26 35.42 61.26 35.42 52.39 14.78 52.39"/><polygon id="polygon2995" class="cls-3" points="35.42 34.44 35.39 34.44 13.18 34.44 13.99 43.3 35.42 43.3 35.42 34.44"/><polygon id="polygon2997" class="cls-3" points="35.42 84.65 35.42 75.42 35.38 75.43 25.51 72.76 24.88 65.69 20.07 65.69 15.97 65.69 17.21 79.62 35.38 84.66 35.42 84.65"/><path id="path2999" d="M16.67,0H27.42V4.49H21.17V9h6.25v4.5H16.67Z"/><path id="path3001" d="M29.56,0H40.31V3.91H34.06v.78h6.25v9H29.56V9.57h6.25V8.79H29.56Z"/><path id="path3003" d="M42.45,0H53.2V3.91H47v.78H53.2v9H42.45V9.57H48.7V8.79H42.45Z"/><polygon id="polygon3005" class="cls-4" points="46.31 61.26 45.28 72.76 35.39 75.43 35.39 84.66 53.58 79.62 53.71 78.12 55.79 54.77 56.01 52.39 57.61 34.44 35.39 34.44 35.39 43.3 47.89 43.3 47.08 52.39 35.39 52.39 35.39 61.26 46.31 61.26"/></g></g></svg>