<svg width="660" height="660" viewBox="0 0 660 660" fill="none" xmlns="http://www.w3.org/2000/svg">
<path d="M568.312 365.484C545.286 365.6 525.275 370.91 508.518 378.76C502.37 367.1 496.222 356.71 495.137 349.091C493.931 340.201 492.485 334.775 493.931 324.154C495.378 313.533 501.888 298.41 501.767 297.255C501.647 296.101 500.321 290.675 487.06 290.559C473.799 290.444 462.347 292.984 461.021 296.332C459.695 299.68 457.163 307.299 455.475 315.149C453.185 326.694 428.954 367.908 415.091 389.497C410.63 381.069 406.773 373.681 405.929 367.793C404.723 358.904 403.277 353.478 404.723 342.857C406.17 332.235 412.68 317.112 412.559 315.958C412.439 314.803 411.112 309.377 397.852 309.262C384.591 309.146 373.139 311.686 371.813 315.034C370.487 318.382 369.04 326.232 366.267 333.852C363.495 341.471 331.307 410.277 322.869 428.056C318.529 437.176 314.792 444.449 312.14 449.414C312.14 449.414 312.019 449.76 311.657 450.337C309.367 454.609 308.041 456.918 308.041 456.918C308.041 456.918 308.041 456.918 308.041 457.033C306.233 460.15 304.304 463.036 303.339 463.036C302.616 463.036 301.29 454.724 303.58 443.41C308.403 419.513 319.855 382.339 319.734 381.069C319.734 380.377 321.904 373.912 312.26 370.564C302.857 367.216 299.482 372.757 298.638 372.757C297.794 372.757 297.191 374.72 297.191 374.72C297.191 374.72 307.679 332.928 277.18 332.928C258.132 332.928 231.852 352.9 218.833 370.91C210.635 375.182 193.155 384.302 174.47 394.115C167.357 397.924 160.004 401.734 153.132 405.313C152.65 404.851 152.168 404.274 151.685 403.812C114.797 366.061 46.5645 339.393 49.4577 288.712C50.5427 270.241 57.173 221.753 180.497 162.876C282.002 114.965 362.771 128.242 376.755 157.68C396.767 199.703 333.477 277.745 228.597 289.059C188.574 293.33 167.598 278.553 162.294 273.011C156.749 267.239 155.905 266.893 153.855 268.047C150.48 269.779 152.65 274.974 153.855 277.976C156.99 285.826 169.889 299.68 191.709 306.491C210.997 312.494 257.891 315.842 314.671 294.831C378.202 271.28 427.869 205.822 413.282 150.985C398.696 95.3394 302.254 76.9834 210.997 108.038C156.749 126.51 97.9195 155.602 55.6059 193.469C5.33587 238.493 -2.62053 277.629 0.634366 294.023C12.3279 352.208 96.1112 390.074 129.625 418.128C127.937 419.051 126.37 419.859 125.044 420.552C108.287 428.518 44.3946 460.496 28.4818 494.322C10.399 532.651 31.375 560.127 45.2384 563.821C88.2754 575.25 132.518 554.701 156.266 520.76C180.015 486.818 177.122 442.718 166.152 422.515C166.031 422.284 165.911 422.053 165.669 421.822C170.009 419.398 174.47 416.858 178.81 414.433C187.369 409.585 195.807 405.082 203.04 401.388C198.942 412.124 195.928 424.939 194.481 443.41C192.673 465.114 201.955 493.283 214.131 504.366C219.556 509.215 225.945 509.33 230.044 509.33C244.269 509.33 250.658 498.017 257.771 484.625C266.451 468.231 274.286 449.183 274.286 449.183C274.286 449.183 264.522 500.672 291.043 500.672C300.687 500.672 310.452 488.665 314.792 482.547C314.792 482.662 314.792 482.662 314.792 482.662C314.792 482.662 315.033 482.316 315.515 481.508C316.479 480.007 317.082 479.083 317.082 479.083C317.082 479.083 317.082 478.968 317.082 478.852C320.94 472.387 329.62 457.726 342.519 433.367C359.155 401.965 375.188 362.713 375.188 362.713C375.188 362.713 376.635 372.295 381.577 388.227C384.471 397.578 390.498 407.853 395.32 417.781C391.463 422.976 389.052 425.863 389.052 425.863C389.052 425.863 389.051 425.863 389.172 425.978C386.038 429.903 382.662 434.175 378.925 438.331C365.785 453.339 350.113 470.54 347.943 475.505C345.412 481.392 346.015 485.664 350.837 489.127C354.333 491.667 360.601 492.013 366.991 491.667C378.805 490.859 387.123 488.088 391.221 486.357C397.611 484.163 405.085 480.815 412.077 475.851C424.976 466.731 432.812 453.685 432.088 436.484C431.727 427.017 428.472 417.55 424.494 408.661C425.699 407.045 426.784 405.429 427.99 403.812C448.363 375.297 464.155 344.011 464.155 344.011C464.155 344.011 465.602 353.593 470.544 369.525C472.955 377.606 477.898 386.38 482.238 394.923C463.07 409.815 451.256 427.132 447.037 438.446C439.442 459.457 445.349 468.924 456.56 471.118C461.624 472.157 468.857 469.848 474.161 467.654C480.912 465.576 488.868 461.997 496.463 456.687C509.362 447.566 521.779 434.867 521.055 417.666C520.694 409.816 518.524 402.081 515.51 394.577C531.785 388.112 552.761 384.533 579.523 387.534C636.906 393.999 648.237 428.287 646.067 442.718C643.898 457.149 631.842 464.999 627.864 467.423C623.886 469.848 622.56 470.656 622.922 472.387C623.404 474.927 625.333 474.812 628.708 474.35C633.41 473.542 658.846 462.69 659.931 436.137C661.739 402.196 627.985 365.138 568.312 365.484ZM125.646 508.407C106.599 528.264 80.0778 535.768 68.6254 529.418C56.3292 522.607 61.1513 493.283 84.5383 472.272C98.7633 459.457 117.087 447.566 129.263 440.293C132.036 438.677 136.134 436.368 141.077 433.482C141.921 433.02 142.403 432.789 142.403 432.789C143.367 432.212 144.332 431.635 145.296 431.058C153.855 461.074 145.658 487.511 125.646 508.407ZM264.281 418.128C257.65 433.597 243.787 473.196 235.348 471.002C228.115 469.155 223.655 439.139 233.902 409.469C239.085 394.577 250.056 376.798 256.445 369.871C266.812 358.788 278.265 355.094 281.037 359.596C284.533 365.484 268.379 408.43 264.281 418.128ZM378.684 470.54C375.911 471.926 373.259 472.849 372.054 472.157C371.21 471.695 373.259 469.848 373.259 469.848C373.259 469.848 387.605 455.07 393.271 448.375C396.526 444.449 400.383 439.832 404.482 434.636C404.482 435.098 404.482 435.676 404.482 436.137C404.482 453.801 386.64 465.692 378.684 470.54ZM466.928 451.261C464.878 449.875 465.24 445.258 472.112 430.827C474.764 425.17 481.032 415.703 491.761 406.583C492.967 410.277 493.811 413.856 493.69 417.204C493.57 439.485 476.934 447.797 466.928 451.261Z" fill="#CD6799"/>
</svg>
