<svg width="24" height="24" viewBox="0 0 24 24" fill="none" xmlns="http://www.w3.org/2000/svg">
<g clip-path="url(#clip0_211:135)">
<rect width="24" height="24" fill="white"/>
<path fill-rule="evenodd" clip-rule="evenodd" d="M18.4792 18.6624C18.8322 19.8766 19.9528 20.7644 21.2811 20.7644C22.8932 20.7644 24.2 19.4576 24.2 17.8457C24.2 16.2338 22.8932 14.9269 21.2811 14.9269C19.9528 14.9269 18.8322 15.815 18.4792 17.0297H16.7489L14.048 12.3828L14.047 12.3786L14.0482 12.3742L16.7449 7.73491H18.467C18.8202 8.94956 19.9406 9.83752 21.2689 9.83752C22.881 9.83752 24.1878 8.53057 24.1878 6.91886C24.1878 5.30695 22.881 4 21.2689 4C19.9406 4 18.8202 4.88796 18.467 6.10261H15.8413L15.8144 6.08678L12.6342 11.5581L12.6098 11.5995H10.7208C10.3676 10.3849 9.24717 9.49691 7.91848 9.49691C6.30676 9.49691 5 10.8039 5 12.4158C5 14.0275 6.30676 15.3342 7.91848 15.3342C9.24717 15.3342 10.3676 14.4463 10.7208 13.232H12.6533L15.8144 18.6706L15.8289 18.6624H18.4792ZM19.78 17.6216C19.919 16.9179 20.5402 16.3854 21.284 16.3854H21.2838C22.1294 16.3854 22.8175 17.0735 22.8175 17.9191C22.8175 18.765 22.1294 19.4525 21.2838 19.4525C20.5402 19.4525 19.9192 18.9204 19.78 18.2172C19.78 18.2172 19.7396 17.9199 19.78 17.6216ZM6.41219 12.3883C6.41219 11.5425 7.10009 10.8548 7.94571 10.8548C8.79152 10.8548 9.47942 11.5425 9.47942 12.3883C9.47942 13.2337 8.79152 13.9218 7.94571 13.9218C7.10009 13.9218 6.41219 13.2337 6.41219 12.3883ZM22.8148 6.85762C22.8148 7.70305 22.1269 8.39114 21.2811 8.39114C20.5377 8.39114 19.9166 7.85887 19.7773 7.15533C19.743 6.88471 19.7773 6.56927 19.7773 6.56927V6.55992C19.9166 5.85638 20.5377 5.3241 21.2811 5.3241C22.1269 5.3241 22.8148 6.01181 22.8148 6.85762Z" fill="black"/>
</g>
<defs>
<clipPath id="clip0_211:135">
<rect width="24" height="24" fill="white"/>
</clipPath>
</defs>
</svg>
