<svg width="250" height="212" viewBox="0 0 250 212" fill="none" xmlns="http://www.w3.org/2000/svg">
<path d="M43.869 46H195.201L198.415 47.8869L212.939 95.8152H53.6811L40.9873 53.9251L41.9708 48.453L43.869 46Z" fill="#518997"/>
<path d="M45.3787 46H195.202L198.415 47.8869L212.939 95.8152H60.4742L45.3787 46Z" fill="#1F6779"/>
<path fill-rule="evenodd" clip-rule="evenodd" d="M59.5239 56.7246L71.0486 95.8151H209.92L197.088 53.5477H62.7008L59.5239 56.7246Z" fill="#82AAB5"/>
<path d="M112.982 56.7368L56.1152 71.9741L71.3525 128.841L128.219 113.603L112.982 56.7368Z" fill="white"/>
<path d="M101.864 70.655L72.7021 78.469L82.4697 114.922L111.632 107.108L101.864 70.655Z" fill="#06566A" fill-opacity="0.25"/>
<path fill-rule="evenodd" clip-rule="evenodd" d="M82.0283 84.3311C83.2065 84.0156 83.9114 82.8291 83.6042 81.6819C83.297 80.5338 82.0932 79.8598 80.915 80.1753C79.7375 80.4908 79.0318 81.6773 79.339 82.8246C79.6469 83.9718 80.8508 84.6466 82.0283 84.3311ZM90.9655 80.9467L101.209 89.5844L91.7407 92.1212L86.4143 93.5484L82.494 94.5991L85.3855 86.8958L88.031 89.0711L90.9655 80.9467Z" fill="#06566A"/>
<path d="M103.885 92.7745L82.0132 98.635L82.7946 101.551L104.666 95.6907L103.885 92.7745Z" fill="#06566A"/>
<path d="M105.057 97.1484L83.1853 103.009L83.9667 105.925L105.838 100.065L105.057 97.1484Z" fill="#06566A"/>
<path d="M100.396 103.086L84.3567 107.384L85.1381 110.3L101.177 106.002L100.396 103.086Z" fill="#06566A"/>
<path fill-rule="evenodd" clip-rule="evenodd" d="M55.1909 71.4403L113.515 55.8123L129.143 114.137L70.8189 129.765L55.1909 71.4403ZM57.0397 72.5077L71.8863 127.916L127.295 113.069L112.448 57.6611L57.0397 72.5077Z" fill="#06566A"/>
<path d="M175.2 57.3215H116.328V116.194H175.2V57.3215Z" fill="white"/>
<path d="M138.216 64.1145H130.668V66.3788H138.216V64.1145Z" fill="#06566A"/>
<path d="M147.273 64.1145H139.726V66.3788H147.273V64.1145Z" fill="#06566A"/>
<path d="M153.311 67.8884H130.668V72.4171H153.311V67.8884Z" fill="#06566A"/>
<path d="M160.859 76.1909H130.668V98.8342H160.859V76.1909Z" fill="#06566A"/>
<path fill-rule="evenodd" clip-rule="evenodd" d="M137.814 79.9648V81.9778V82.1197H137.462H134.442V95.0603H137.814H138.122H141.235H154.821H157.085V93.0474V81.9778V79.9648H154.821H140.103H137.814ZM137.814 83.9153V92.9643H136.851V83.9153H137.814ZM139.741 82.1197H155.158V84.7614H139.741V82.1197ZM146.78 86.9314H139.741V88.441H146.78V86.9314ZM139.741 89.9505H146.78V91.4601H139.741V89.9505ZM155.327 86.9314H148.289V88.441H155.327V86.9314ZM148.289 89.9505H155.327V91.4601H148.289V89.9505Z" fill="white"/>
<path d="M160.859 102.608H130.668V105.25H160.859V102.608Z" fill="#06566A" fill-opacity="0.25"/>
<path d="M160.859 106.759H130.668V109.401H160.859V106.759Z" fill="#06566A" fill-opacity="0.25"/>
<path fill-rule="evenodd" clip-rule="evenodd" d="M115.573 56.5668H175.955V116.949H115.573V56.5668ZM117.082 58.0763V115.439H174.445V58.0763H117.082Z" fill="#06566A"/>
<path d="M224.076 71.2191L167.209 55.9818L151.972 112.848L208.838 128.086L224.076 71.2191Z" fill="white"/>
<path d="M212.826 86.9578L169.083 75.2368L163.222 97.1085L206.965 108.83L212.826 86.9578Z" fill="#06566A"/>
<path d="M173.782 88.4175L172.185 87.9895L172.413 87.1072L173.754 87.4665C173.99 87.5299 174.192 87.5517 174.358 87.5321C174.527 87.5102 174.663 87.4506 174.768 87.354C174.877 87.2551 174.955 87.12 175.001 86.9487C175.052 86.7555 175.057 86.5887 175.015 86.449C174.976 86.3109 174.887 86.1939 174.748 86.0981C174.611 86.0037 174.423 85.9245 174.184 85.8603L173.296 85.6225L171.898 90.838L170.616 90.4946L172.283 84.2753L174.453 84.8564C174.815 84.9531 175.129 85.0738 175.395 85.2187C175.665 85.3644 175.88 85.5335 176.042 85.7267C176.205 85.9192 176.309 86.1365 176.358 86.3788C176.406 86.6173 176.392 86.8823 176.314 87.1729C176.245 87.4287 176.124 87.6499 175.949 87.8348C175.777 88.0212 175.549 88.1488 175.264 88.219C174.983 88.2907 174.642 88.2801 174.243 88.188L173.782 88.4175ZM172.996 91.1324L171.104 90.6252L171.871 89.7595L173.264 90.1323C173.489 90.1927 173.682 90.2063 173.844 90.1738C174.006 90.1376 174.138 90.0659 174.24 89.9595C174.342 89.8523 174.414 89.7179 174.458 89.5549C174.506 89.373 174.518 89.2062 174.49 89.056C174.467 88.9058 174.398 88.7775 174.283 88.6703C174.169 88.5609 174.002 88.4764 173.782 88.4175L172.548 88.0869L172.792 87.2091L174.33 87.6212L174.533 88.0461C174.913 88.142 175.199 88.2907 175.393 88.4914C175.589 88.6907 175.712 88.9141 175.758 89.1617C175.808 89.41 175.799 89.6598 175.731 89.9104C175.625 90.3089 175.448 90.6214 175.201 90.8486C174.955 91.0728 174.645 91.2079 174.272 91.2547C173.902 91.3022 173.477 91.2615 172.996 91.1324ZM181.305 86.6928L182.582 87.0347L181.481 91.1445C181.353 91.6222 181.142 91.9981 180.849 92.2706C180.56 92.5438 180.213 92.7152 179.81 92.7838C179.41 92.854 178.978 92.8269 178.513 92.7023C178.049 92.5778 177.658 92.3846 177.341 92.1227C177.027 91.8615 176.811 91.5392 176.693 91.1573C176.579 90.7754 176.586 90.3452 176.714 89.8666L177.815 85.7577L179.097 86.1003L177.996 90.2101C177.921 90.4893 177.904 90.7286 177.945 90.9294C177.986 91.1294 178.078 91.2932 178.221 91.42C178.367 91.5475 178.553 91.6419 178.781 91.703C179.015 91.7657 179.224 91.777 179.409 91.7377C179.596 91.6992 179.756 91.6034 179.889 91.4502C180.024 91.2969 180.129 91.0811 180.204 90.8018L181.305 86.6928ZM186.418 88.0627L184.752 94.2821L183.475 93.9402L185.141 87.7201L186.418 88.0627ZM188.332 88.5752L188.064 89.5791L182.988 88.2197L183.257 87.2159L188.332 88.5752ZM191.912 89.5345L190.246 95.7546L188.968 95.412L190.635 89.1926L191.912 89.5345ZM193.826 90.047L193.557 91.0509L188.482 89.6915L188.751 88.6877L193.826 90.047ZM198.751 94.5447L198.673 94.8391C198.546 95.3123 198.368 95.7192 198.139 96.0611C197.91 96.4022 197.643 96.6747 197.339 96.877C197.036 97.0763 196.703 97.2023 196.34 97.2544C195.981 97.308 195.605 97.2823 195.212 97.1766C194.822 97.0725 194.483 96.9064 194.196 96.68C193.912 96.4543 193.686 96.1788 193.52 95.8535C193.355 95.5252 193.256 95.1554 193.226 94.7448C193.199 94.3342 193.249 93.8926 193.376 93.4201L193.454 93.125C193.582 92.6495 193.76 92.2427 193.988 91.9038C194.217 91.5619 194.483 91.2902 194.788 91.0879C195.095 90.8863 195.429 90.7588 195.787 90.706C196.149 90.6531 196.525 90.6795 196.916 90.7837C197.309 90.8894 197.648 91.0547 197.932 91.2803C198.219 91.5068 198.444 91.7838 198.607 92.1113C198.772 92.4397 198.868 92.8088 198.896 93.2194C198.927 93.6269 198.879 94.0692 198.751 94.5447ZM197.378 94.4927L197.459 94.1892C197.548 93.8586 197.596 93.5605 197.603 93.2941C197.611 93.0269 197.578 92.7929 197.507 92.5906C197.436 92.3883 197.328 92.2223 197.184 92.0917C197.039 91.9581 196.859 91.863 196.642 91.8049C196.426 91.7468 196.222 91.7392 196.03 91.7823C195.842 91.8238 195.666 91.9143 195.504 92.054C195.344 92.1944 195.201 92.3816 195.074 92.6163C194.947 92.851 194.839 93.1333 194.751 93.4639L194.669 93.7666C194.582 94.0941 194.534 94.393 194.526 94.6625C194.518 94.9289 194.55 95.1652 194.62 95.3697C194.691 95.572 194.799 95.7395 194.943 95.8731C195.088 96.006 195.268 96.1018 195.485 96.16C195.701 96.2181 195.905 96.2256 196.097 96.1818C196.288 96.1388 196.464 96.0467 196.623 95.9064C196.784 95.7637 196.928 95.5743 197.054 95.3403C197.183 95.1025 197.29 94.8202 197.378 94.4927ZM205.531 93.1839L203.864 99.4032L202.582 99.0598L201.2 94.2209L200.083 98.3903L198.802 98.0469L200.468 91.8275L201.75 92.171L203.135 97.0151L204.254 92.8412L205.531 93.1839Z" fill="#ECFF00"/>
<path fill-rule="evenodd" clip-rule="evenodd" d="M166.676 55.0575L225 70.6855L209.372 129.01L151.048 113.382L166.676 55.0575ZM167.743 56.9063L152.896 112.315L208.305 127.161L223.151 71.7529L167.743 56.9063Z" fill="#06566A"/>
<path d="M63.4932 103.363H220.486V157.329L211.806 166.009H71.0409C66.873 166.009 63.4932 162.63 63.4932 158.462V103.363Z" fill="#06566A"/>
<path opacity="0.1" d="M63.4932 103.363H80.853H220.486V110.156H80.853L73.6826 123.742V145.63C71.1443 150.707 63.4932 148.901 63.4932 143.225V103.363Z" fill="black"/>
<path d="M60.4741 95.8152H220.077L223.506 98.0795V104.872H61.6063L60.4741 103.363V95.8152Z" fill="#518997"/>
<path d="M60.4741 95.8152H220.077L223.506 98.0795L62.7384 99.2117L61.6063 104.872L60.4741 103.363V95.8152Z" fill="#387888"/>
<path d="M111.799 94.3055H118.592L121.611 97.702V113.175H111.799V94.3055Z" fill="#CDDDE1"/>
<path d="M111.799 94.3055H118.592L113.686 99.2116V113.175H111.799V94.3055Z" fill="#B4CCD2"/>
<path d="M162.369 94.3055H169.162L172.181 97.702V113.175H162.369V94.3055Z" fill="#CDDDE1"/>
<path d="M162.369 94.3055H169.162L164.256 99.2116V113.175H162.369V94.3055Z" fill="#B4CCD2"/>
<path fill-rule="evenodd" clip-rule="evenodd" d="M136.322 117.022H132.074H130.668V118.817H132.074V148.655L134.905 151.556H139.802V120.588L136.322 117.022Z" fill="#ECFF00"/>
<path fill-rule="evenodd" clip-rule="evenodd" d="M147.953 134.54H138.116L154.78 151.569L159.698 146.543L147.953 134.54Z" fill="#ECFF00"/>
<path fill-rule="evenodd" clip-rule="evenodd" d="M139.845 139.296H147.584L161.723 124.848H149.762L137.734 137.139L139.845 139.296Z" fill="#06566A"/>
<path fill-rule="evenodd" clip-rule="evenodd" d="M137.062 137.196H146.195L157.507 125.637H148.374L137.062 137.196Z" fill="#ECFF00"/>
<path d="M157.508 125.637H151.887V127.433H157.508V125.637Z" fill="#ECFF00"/>
<path fill-rule="evenodd" clip-rule="evenodd" d="M152.52 151.428L158.226 145.596L159.418 146.815L153.712 152.646L152.52 151.428Z" fill="#ECFF00"/>
<path d="M78.9049 158.084L124.63 171.67L82.801 186.704L27.2639 169.345L78.9049 158.084Z" fill="#06566A" fill-opacity="0.3"/>
<path d="M98.9527 128.803L40.6282 113.175L25.0002 171.499L83.3247 187.127L98.9527 128.803Z" fill="white"/>
<g opacity="0.25">
<path opacity="0.25" d="M46.1601 121.69L45.4309 121.495L45.2362 122.224L33.5146 165.967L33.3198 166.696L34.0489 166.891L77.7919 178.612L78.521 178.808L78.7165 178.079L90.4374 134.335L90.6329 133.606L89.9038 133.411L46.1601 121.69Z" stroke="#06566A" stroke-width="2"/>
<mask id="mask0_1004_3683" style="mask-type:alpha" maskUnits="userSpaceOnUse" x="34" y="122" width="56" height="56">
<g opacity="0.25">
<path opacity="0.25" d="M45.9653 122.418L89.7083 134.14L77.9874 177.883L34.2437 166.162L45.9653 122.418Z" fill="#06566A"/>
</g>
</mask>
<g mask="url(#mask0_1004_3683)">
<g opacity="0.25">
<path opacity="0.25" d="M89.7087 134.139L45.9653 122.418L44.7932 126.793L88.5366 138.514L89.7087 134.139Z" fill="#06566A"/>
<path opacity="0.25" d="M78.7723 131.21L56.9006 125.349L56.1192 128.265L77.9909 134.126L78.7723 131.21Z" fill="white"/>
</g>
</g>
</g>
<path d="M65.8832 135.57L47.6567 130.686L43.5544 145.997L61.7808 150.88L65.8832 135.57Z" fill="#06566A"/>
<path fill-rule="evenodd" clip-rule="evenodd" d="M50.9106 138.044C51.5906 138.226 52.2857 137.835 52.4631 137.171C52.6412 136.506 52.2352 135.82 51.5559 135.638C50.8758 135.456 50.1807 135.847 50.0026 136.511C49.8252 137.176 50.2313 137.862 50.9106 138.044ZM56.3532 138.929L58.9731 146.221L53.5107 144.758L50.4381 143.934L48.1768 143.328L51.8465 140.3L52.5394 142.156L56.3532 138.929Z" fill="#ECFF00"/>
<path d="M83.2303 143.734L68.6492 139.827L68.1282 141.772L82.7094 145.679L83.2303 143.734Z" fill="#06566A"/>
<path d="M82.3187 147.137L67.7375 143.23L67.2166 145.174L81.7978 149.081L82.3187 147.137Z" fill="#06566A"/>
<path d="M77.5185 149.497L66.8257 146.632L66.3047 148.576L76.9976 151.441L77.5185 149.497Z" fill="#06566A"/>
<path d="M56.2796 156.829L41.6985 152.922L41.1776 154.866L55.7587 158.773L56.2796 156.829Z" fill="#06566A"/>
<path d="M55.3678 160.232L40.7866 156.325L40.2657 158.269L54.8468 162.176L55.3678 160.232Z" fill="#06566A"/>
<path d="M50.5678 162.592L39.875 159.727L39.3541 161.671L50.0469 164.536L50.5678 162.592Z" fill="#06566A"/>
<path d="M79.0306 159.409L60.8042 154.525L56.7018 169.835L74.9283 174.719L79.0306 159.409Z" fill="#06566A"/>
<path fill-rule="evenodd" clip-rule="evenodd" d="M64.058 161.883C64.7381 162.065 65.4325 161.674 65.6106 161.009C65.7887 160.345 65.3827 159.659 64.7026 159.477C64.0233 159.295 63.3282 159.686 63.1501 160.351C62.9719 161.015 63.3787 161.701 64.058 161.883ZM69.5 162.768L72.1205 170.06L66.6582 168.596L63.5856 167.773L61.3235 167.167L64.994 164.139L65.6868 165.995L69.5 162.768Z" fill="#ECFF00"/>
<path fill-rule="evenodd" clip-rule="evenodd" d="M40.6279 113.175L98.9525 128.803L83.3245 187.128L24.9999 171.5L40.6279 113.175ZM41.6953 115.024L26.8487 170.432L82.257 185.279L97.1037 129.871L41.6953 115.024Z" fill="#06566A"/>
</svg>
