<svg width="250" height="140" viewBox="0 0 250 140" fill="none" xmlns="http://www.w3.org/2000/svg">
<g clip-path="url(#clip0_1004_3683)">
<path d="M66.8638 39H175.304L177.607 40.3521L188.014 74.696H73.8948L64.7988 44.6789L65.5035 40.7578L66.8638 39Z" fill="#518997"/>
<path d="M67.9456 39H175.304L177.607 40.3521L188.014 74.696H78.7625L67.9456 39Z" fill="#1F6779"/>
<path fill-rule="evenodd" clip-rule="evenodd" d="M78.0815 46.6849L86.3398 74.696H185.85L176.656 44.4084H80.358L78.0815 46.6849Z" fill="#82AAB5"/>
<path d="M116.388 46.6936L75.6392 57.6122L86.5577 98.3609L127.306 87.4423L116.388 46.6936Z" fill="white"/>
<path d="M108.422 56.667L87.5249 62.2662L94.524 88.3872L115.421 82.7879L108.422 56.667Z" fill="#06566A" fill-opacity="0.25"/>
<path fill-rule="evenodd" clip-rule="evenodd" d="M94.2076 66.4668C95.0518 66.2407 95.557 65.3905 95.3368 64.5684C95.1167 63.7458 94.2541 63.2628 93.4098 63.4889C92.5661 63.715 92.0604 64.5652 92.2805 65.3873C92.5012 66.2094 93.3638 66.6929 94.2076 66.4668ZM100.612 64.0416L107.952 70.2311L101.167 72.0489L97.3504 73.0716L94.5413 73.8245L96.6133 68.3046L98.5089 69.8633L100.612 64.0416Z" fill="#06566A"/>
<path d="M109.869 72.5172L94.1968 76.7167L94.7567 78.8064L110.429 74.6069L109.869 72.5172Z" fill="#06566A"/>
<path d="M110.709 75.6514L95.0366 79.8508L95.5965 81.9405L111.269 77.7411L110.709 75.6514Z" fill="#06566A"/>
<path d="M107.369 79.906L95.876 82.9856L96.4359 85.0753L107.929 81.9957L107.369 79.906Z" fill="#06566A"/>
<path fill-rule="evenodd" clip-rule="evenodd" d="M74.9768 57.2297L116.77 46.0312L127.969 87.8247L86.1754 99.0233L74.9768 57.2297ZM76.3016 57.9946L86.9402 97.6985L126.644 87.0599L116.005 47.356L76.3016 57.9946Z" fill="#06566A"/>
<path d="M160.972 47.1128H118.785V89.299H160.972V47.1128Z" fill="white"/>
<path d="M134.47 51.9803H129.062V53.6029H134.47V51.9803Z" fill="#06566A"/>
<path d="M140.96 51.9803H135.552V53.6029H140.96V51.9803Z" fill="#06566A"/>
<path d="M145.287 54.6846H129.062V57.9297H145.287V54.6846Z" fill="#06566A"/>
<path d="M150.695 60.6339H129.062V76.8594H150.695V60.6339Z" fill="#06566A"/>
<path fill-rule="evenodd" clip-rule="evenodd" d="M134.182 63.3381V64.7806V64.8823H133.93H131.766V74.1551H134.182H134.403H136.634H146.369H147.991V72.7127V64.7806V63.3381H146.369H135.822H134.182ZM134.182 66.1689V72.6532H133.492V66.1689H134.182ZM135.563 64.8823H146.611V66.7752H135.563V64.8823ZM140.607 68.3302H135.563V69.4119H140.607V68.3302ZM135.563 70.4936H140.607V71.5753H135.563V70.4936ZM146.731 68.3302H141.688V69.4119H146.731V68.3302ZM141.688 70.4936H146.731V71.5753H141.688V70.4936Z" fill="white"/>
<path d="M150.695 79.5637H129.062V81.4567H150.695V79.5637Z" fill="#06566A" fill-opacity="0.25"/>
<path d="M150.695 82.5383H129.062V84.4313H150.695V82.5383Z" fill="#06566A" fill-opacity="0.25"/>
<path fill-rule="evenodd" clip-rule="evenodd" d="M118.244 46.5718H161.512V89.8396H118.244V46.5718ZM119.326 47.6535V88.758H160.431V47.6535H119.326Z" fill="#06566A"/>
<path d="M195.995 57.0712L155.246 46.1526L144.327 86.9013L185.076 97.8199L195.995 57.0712Z" fill="white"/>
<path d="M187.933 68.3491L156.588 59.9502L152.389 75.6228L183.734 84.0217L187.933 68.3491Z" fill="#06566A"/>
<path d="M159.956 69.3951L158.811 69.0884L158.974 68.4561L159.935 68.7136C160.105 68.759 160.249 68.7747 160.369 68.7606C160.489 68.745 160.587 68.7022 160.662 68.633C160.74 68.5621 160.796 68.4653 160.829 68.3426C160.866 68.2041 160.869 68.0846 160.839 67.9845C160.811 67.8856 160.747 67.8017 160.648 67.733C160.55 67.6654 160.415 67.6086 160.244 67.5627L159.607 67.3923L158.605 71.1296L157.687 70.8835L158.881 66.4269L160.437 66.8433C160.696 66.9126 160.921 66.9991 161.112 67.1029C161.305 67.2073 161.459 67.3285 161.575 67.4669C161.691 67.6049 161.767 67.7606 161.801 67.9342C161.836 68.1051 161.826 68.295 161.77 68.5032C161.721 68.6865 161.634 68.845 161.508 68.9775C161.385 69.1111 161.221 69.2025 161.018 69.2528C160.816 69.3042 160.572 69.2966 160.286 69.2306L159.956 69.3951ZM159.392 71.3405L158.036 70.977L158.586 70.3567L159.584 70.6239C159.745 70.6671 159.884 70.6769 160 70.6536C160.116 70.6277 160.211 70.5763 160.284 70.5C160.357 70.4232 160.409 70.3269 160.44 70.2101C160.475 70.0798 160.483 69.9602 160.463 69.8526C160.446 69.745 160.397 69.653 160.314 69.5762C160.233 69.4978 160.113 69.4372 159.956 69.3951L159.072 69.1582L159.246 68.5292L160.349 68.8245L160.493 69.129C160.766 69.1976 160.971 69.3042 161.11 69.4481C161.251 69.5908 161.338 69.7509 161.372 69.9283C161.407 70.1063 161.4 70.2853 161.352 70.4649C161.276 70.7504 161.149 70.9743 160.972 71.1371C160.796 71.2978 160.574 71.3946 160.307 71.4281C160.042 71.4622 159.737 71.433 159.392 71.3405ZM165.346 68.1592L166.262 68.4042L165.473 71.3491C165.381 71.6915 165.23 71.9608 165.02 72.1561C164.812 72.3519 164.564 72.4746 164.275 72.5239C163.988 72.5742 163.679 72.5547 163.346 72.4655C163.013 72.3762 162.733 72.2378 162.506 72.0501C162.28 71.8629 162.126 71.632 162.041 71.3583C161.96 71.0847 161.965 70.7764 162.057 70.4335L162.846 67.4891L163.764 67.7347L162.975 70.6796C162.921 70.8797 162.909 71.0511 162.939 71.195C162.968 71.3383 163.034 71.4557 163.136 71.5466C163.241 71.638 163.375 71.7056 163.538 71.7494C163.705 71.7943 163.855 71.8024 163.987 71.7743C164.121 71.7467 164.236 71.678 164.331 71.5682C164.428 71.4584 164.504 71.3037 164.557 71.1036L165.346 68.1592ZM169.01 69.1409L167.816 73.5974L166.901 73.3524L168.095 68.8953L169.01 69.1409ZM170.382 69.5081L170.189 70.2274L166.553 69.2534L166.745 68.534L170.382 69.5081ZM172.947 70.1955L171.753 74.6526L170.837 74.4071L172.032 69.9505L172.947 70.1955ZM174.318 70.5627L174.126 71.2821L170.489 70.308L170.682 69.5887L174.318 70.5627ZM177.848 73.7857L177.791 73.9966C177.701 74.3357 177.573 74.6272 177.409 74.8722C177.245 75.1167 177.054 75.3119 176.836 75.4569C176.618 75.5997 176.38 75.69 176.12 75.7273C175.863 75.7657 175.593 75.7473 175.312 75.6716C175.032 75.597 174.789 75.478 174.584 75.3157C174.38 75.154 174.218 74.9566 174.099 74.7235C173.981 74.4882 173.91 74.2232 173.889 73.929C173.869 73.6348 173.905 73.3184 173.996 72.9798L174.052 72.7683C174.143 72.4276 174.271 72.1361 174.434 71.8932C174.598 71.6482 174.789 71.4535 175.008 71.3086C175.228 71.1642 175.467 71.0728 175.724 71.0349C175.983 70.9971 176.253 71.016 176.532 71.0906C176.814 71.1663 177.057 71.2848 177.261 71.4465C177.466 71.6088 177.628 71.8072 177.744 72.042C177.863 72.2772 177.932 72.5417 177.952 72.8359C177.974 73.128 177.939 73.4449 177.848 73.7857ZM176.864 73.7483L176.922 73.5309C176.986 73.294 177.02 73.0804 177.025 72.8895C177.03 72.698 177.007 72.5304 176.956 72.3854C176.906 72.2405 176.828 72.1215 176.724 72.0279C176.621 71.9322 176.492 71.864 176.337 71.8224C176.181 71.7807 176.035 71.7753 175.898 71.8062C175.763 71.8359 175.637 71.9008 175.521 72.0009C175.406 72.1015 175.304 72.2356 175.213 72.4038C175.122 72.572 175.044 72.7743 174.981 73.0112L174.923 73.228C174.86 73.4628 174.826 73.677 174.82 73.87C174.815 74.061 174.837 74.2302 174.888 74.3768C174.938 74.5218 175.016 74.6418 175.119 74.7376C175.222 74.8327 175.352 74.9014 175.507 74.9431C175.662 74.9847 175.808 74.9901 175.946 74.9588C176.083 74.9279 176.209 74.862 176.323 74.7614C176.438 74.6591 176.541 74.5234 176.632 74.3557C176.724 74.1854 176.801 73.9831 176.864 73.7483ZM182.706 72.8105L181.511 77.2671L180.593 77.021L179.603 73.5536L178.802 76.5413L177.884 76.2952L179.078 71.8386L179.996 72.0847L180.989 75.5559L181.79 72.565L182.706 72.8105Z" fill="#ECFF00"/>
<path fill-rule="evenodd" clip-rule="evenodd" d="M154.863 45.4904L196.657 56.6889L185.458 98.4825L143.665 87.2839L154.863 45.4904ZM155.628 46.8152L144.99 86.519L184.693 97.1577L195.332 57.4538L155.628 46.8152Z" fill="#06566A"/>
<path d="M80.926 80.1045H193.422V118.775L187.203 124.995H86.3345C83.3479 124.995 80.926 122.574 80.926 119.586V80.1045Z" fill="#06566A"/>
<path opacity="0.1" d="M80.926 80.1045H93.3655H193.422V84.9721H93.3655L88.2275 94.7074V110.392C86.4086 114.03 80.926 112.736 80.926 108.668V80.1045Z" fill="black"/>
<path d="M78.7625 74.696H193.129L195.586 76.3186V81.1862H79.5737L78.7625 80.1045V74.696Z" fill="#518997"/>
<path d="M78.7625 74.696H193.129L195.586 76.3186L80.385 77.1299L79.5737 81.1862L78.7625 80.1045V74.696Z" fill="#387888"/>
<path d="M115.54 73.6143H120.408L122.571 76.0481V87.1355H115.54V73.6143Z" fill="#CDDDE1"/>
<path d="M115.54 73.6143H120.408L116.892 77.1298V87.1355H115.54V73.6143Z" fill="#B4CCD2"/>
<path d="M151.777 73.6143H156.645L158.808 76.0481V87.1355H151.777V73.6143Z" fill="#CDDDE1"/>
<path d="M151.777 73.6143H156.645L153.129 77.1298V87.1355H151.777V73.6143Z" fill="#B4CCD2"/>
<path fill-rule="evenodd" clip-rule="evenodd" d="M133.113 89.8922H130.069H129.062V91.1784H130.069V112.559L132.097 114.638H135.607V92.4472L133.113 89.8922Z" fill="#ECFF00"/>
<path fill-rule="evenodd" clip-rule="evenodd" d="M141.447 102.445H134.399L146.34 114.647L149.864 111.046L141.447 102.445Z" fill="#ECFF00"/>
<path fill-rule="evenodd" clip-rule="evenodd" d="M135.637 105.853H141.183L151.315 95.4996H142.743L134.125 104.307L135.637 105.853Z" fill="#06566A"/>
<path fill-rule="evenodd" clip-rule="evenodd" d="M133.643 104.349H140.188L148.294 96.0654H141.749L133.643 104.349Z" fill="#ECFF00"/>
<path d="M148.294 96.0654H144.267V97.3521H148.294V96.0654Z" fill="#ECFF00"/>
<path fill-rule="evenodd" clip-rule="evenodd" d="M144.72 114.546L148.809 110.368L149.663 111.241L145.574 115.419L144.72 114.546Z" fill="#ECFF00"/>
<path d="M91.9696 119.316L124.735 129.051L94.7615 139.824L54.9653 127.385L91.9696 119.316Z" fill="#06566A" fill-opacity="0.3"/>
<path d="M106.335 98.3339L64.5413 87.1354L53.3427 128.929L95.1363 140.127L106.335 98.3339Z" fill="white"/>
<g opacity="0.25">
<path opacity="0.25" d="M68.5056 93.2372L67.9831 93.0972L67.8436 93.6196L59.4442 124.965L59.3047 125.487L59.8271 125.627L91.172 134.026L91.6945 134.166L91.8346 133.643L100.233 102.298L100.373 101.776L99.851 101.636L68.5056 93.2372Z" stroke="#06566A" stroke-width="2"/>
<mask id="mask0_1004_3683" style="mask-type:alpha" maskUnits="userSpaceOnUse" x="59" y="93" width="41" height="41">
<g opacity="0.25">
<path opacity="0.25" d="M68.3659 93.759L99.7108 102.158L91.312 133.503L59.9666 125.104L68.3659 93.759Z" fill="#06566A"/>
</g>
</mask>
<g mask="url(#mask0_1004_3683)">
<g opacity="0.25">
<path opacity="0.25" d="M99.7109 102.158L68.3657 93.759L67.5258 96.8935L98.871 105.292L99.7109 102.158Z" fill="#06566A"/>
<path opacity="0.25" d="M91.8742 100.059L76.2017 95.8593L75.6417 97.9489L91.3143 102.148L91.8742 100.059Z" fill="white"/>
</g>
</g>
</g>
<path d="M82.6384 103.183L69.5779 99.6836L66.6383 110.654L79.6987 114.154L82.6384 103.183Z" fill="#06566A"/>
<path fill-rule="evenodd" clip-rule="evenodd" d="M71.9094 104.956C72.3967 105.086 72.8948 104.806 73.0219 104.33C73.1496 103.854 72.8586 103.363 72.3718 103.232C71.8845 103.101 71.3864 103.381 71.2588 103.857C71.1317 104.334 71.4226 104.826 71.9094 104.956ZM75.8095 105.59L77.6867 110.815L73.7726 109.767L71.5708 109.177L69.9504 108.742L72.58 106.572L73.0765 107.902L75.8095 105.59Z" fill="#ECFF00"/>
<path d="M95.0687 109.033L84.6204 106.234L84.2471 107.627L94.6955 110.427L95.0687 109.033Z" fill="#06566A"/>
<path d="M94.4154 111.472L83.967 108.672L83.5938 110.065L94.0421 112.865L94.4154 111.472Z" fill="#06566A"/>
<path d="M90.9759 113.163L83.3137 111.109L82.9404 112.503L90.6026 114.556L90.9759 113.163Z" fill="#06566A"/>
<path d="M75.7567 118.417L65.3083 115.617L64.9351 117.01L75.3835 119.81L75.7567 118.417Z" fill="#06566A"/>
<path d="M75.1032 120.855L64.6548 118.055L64.2815 119.448L74.7299 122.248L75.1032 120.855Z" fill="#06566A"/>
<path d="M71.6641 122.546L64.002 120.493L63.6287 121.887L71.2908 123.94L71.6641 122.546Z" fill="#06566A"/>
<path d="M92.0595 120.265L78.999 116.766L76.0594 127.737L89.1199 131.236L92.0595 120.265Z" fill="#06566A"/>
<path fill-rule="evenodd" clip-rule="evenodd" d="M81.3306 122.038C81.8179 122.169 82.3155 121.889 82.4431 121.412C82.5707 120.936 82.2798 120.445 81.7925 120.314C81.3057 120.184 80.8076 120.464 80.68 120.94C80.5523 121.416 80.8438 121.908 81.3306 122.038ZM85.2301 122.672L87.1079 127.898L83.1938 126.849L80.992 126.259L79.3711 125.824L82.0012 123.655L82.4977 124.985L85.2301 122.672Z" fill="#ECFF00"/>
<path fill-rule="evenodd" clip-rule="evenodd" d="M64.5413 87.1356L106.335 98.3342L95.1363 140.128L53.3427 128.929L64.5413 87.1356ZM65.3061 88.4604L54.6675 128.164L94.3714 138.803L105.01 99.099L65.3061 88.4604Z" fill="#06566A"/>
</g>
<defs>
<clipPath id="clip0_1004_3683">
<rect width="250" height="140" fill="white"/>
</clipPath>
</defs>
</svg>
