<svg width="250" height="212" viewBox="0 0 250 212" fill="none" xmlns="http://www.w3.org/2000/svg">
<path d="M138.349 149.006L140.449 146.903H149.55L152.817 148.444L158.993 178.396L155.617 179.06H146.516L144.183 177.52L138.349 149.006Z" fill="#518997"/>
<path d="M103.914 149.61L99.4436 178.231L101.3 179.06H115.22L119.69 149.345L118.113 147.697H107.595L103.914 149.61Z" fill="#518997"/>
<path d="M103.723 154.446L96.2678 120.936V84.2682L108.31 63.9309H175.116L197.48 79.3378L204.648 130.18L185.438 154.446H170.528H111.177H103.723Z" fill="#9BBBC3"/>
<path d="M156.611 154.349L158.913 152.064H168.889L172.47 153.738L179.24 186.279L175.54 187H165.564L163.006 185.326L156.611 154.349Z" fill="#6A9AA6"/>
<path d="M103.723 154.446L96.2678 120.936V84.2682L108.31 63.9309L123.793 95.9002L127.234 132.877L118.059 150.723L111.177 154.446H103.723Z" fill="#CDDDE1"/>
<path d="M66.0959 121.039L74.7613 154.843H83.4266H95.9345H104.6L112.599 151.087L123.264 133.084L119.264 95.7836L101.267 63.5339H80.0938L66.0959 84.0496V121.039Z" fill="#9BBBC3"/>
<path d="M74.8887 154.843L66.0959 121.039V84.0497L80.2996 63.5339L98.5615 95.7836L102.62 133.084L91.7978 151.087L83.6815 154.843H74.8887Z" fill="#CDDDE1"/>
<path d="M128.13 34.156L119.293 37.4254L134.487 42.096L154.486 40.6948L161.772 37.4254L145.959 34.156H128.13Z" fill="#9BBBC3"/>
<path d="M128.212 34.156L119.293 37.4254L134.627 42.096H141.981L145.11 41.1618L145.892 34.156H128.212Z" fill="#82AAB5"/>
<path d="M132.439 56.4386V64.542L142.595 67.5039L149.864 64.542V56.4386L158.441 48.931L162.169 37.7291L150.984 39.9116L131.721 38.8203L119.293 37.7291L122.4 50.7185L132.439 56.4386Z" fill="#CDDDE1"/>
<path d="M132.507 56.4386V64.542L142.716 67.5039L139.906 62.2037L141.467 57.9947L138.344 50.7185L141.467 39.366L131.786 38.8203L119.293 37.7291L122.417 50.7185L132.507 56.4386Z" fill="#B4CCD2"/>
<path d="M49.4948 143.43L47.834 149.682L48.2587 150.168L47.834 151.766L60.2343 165.939L61.951 166.356L93.0917 138.844V136.76L70.4629 124.672L49.4948 143.43Z" fill="#6A9AA6"/>
<path d="M47.7245 149.806L49.3918 143.554L70.4415 124.797L93.1585 136.884L61.2714 165.228L47.7245 149.806Z" fill="#82AAB5"/>
<path d="M91.5014 92.018L70.422 88.9418L70.0657 89.4614L70.422 125.006L93.173 136.978L93.8855 94.8301L91.5014 92.018Z" fill="#1F6779"/>
<path d="M91.5014 92.0234L70.422 88.9418L70.0657 89.4623L70.422 125.069H93.173L93.8855 94.8404L91.5014 92.0234Z" fill="#06566A"/>
<path d="M154.697 28.6954L149.406 33.248L143.358 30.4165L142.599 24.6463L146.678 20.4957L152.97 22.6013L154.697 28.6954Z" fill="#ECFF00"/>
<path d="M126.825 22.3563L127.231 16.3047L133.646 14.1687L138.93 18.3261L138.161 24.0951L131.867 26.1908L126.825 22.3563Z" fill="#ECFF00"/>
<path d="M121.423 154.543L116.514 185.7L118.552 186.603H133.838L138.746 154.255L137.014 152.461H125.465L121.423 154.543Z" fill="#6A9AA6"/>
</svg>
