<svg width="250" height="140" viewBox="0 0 250 140" fill="none" xmlns="http://www.w3.org/2000/svg">
<path d="M139.527 110.774L141.143 109.156H148.143L150.656 110.341L155.407 133.382L152.81 133.892H145.81L144.015 132.707L139.527 110.774Z" fill="#518997"/>
<path d="M104.985 111.238L101.546 133.254L102.974 133.892H113.682L117.121 111.035L115.907 109.767H107.816L104.985 111.238Z" fill="#518997"/>
<path d="M98.8089 116.154L93.0417 92.8019V67.2492L102.358 53.0769H168.538L185.839 63.8134L191.385 99.2438L176.523 116.154H164.989H104.576H98.8089Z" fill="#06566A"/>
<path d="M153.575 114.884L155.346 113.126H163.019L165.774 114.414L170.982 139.445L168.135 140H160.461L158.494 138.713L153.575 114.884Z" fill="#6A9AA6"/>
<path d="M98.7825 116.154L93.0417 92.8019V67.2492L102.315 53.0769L114.238 75.3551L116.888 101.123L109.822 113.559L104.523 116.154H98.7825Z" fill="#387888"/>
<path d="M70.1826 92.8019L76.8287 116.154H83.4748H93.068H99.7141L105.849 113.559L114.029 101.123L110.961 75.3551L97.1579 53.0769H80.9186L70.1826 67.2492V92.8019Z" fill="#06566A"/>
<path d="M77.0345 116.154L70.1826 92.8019V67.2492L81.251 53.0769L95.4818 75.3551L98.6442 101.123L90.2111 113.559L83.8863 116.154H77.0345Z" fill="#387888"/>
<path d="M128.039 33.8461L122.119 36.0633L132.298 39.2307L145.698 38.2805L150.58 36.0633L139.985 33.8461H128.039Z" fill="#9BBBC3"/>
<path d="M128.051 33.8461L122.119 36.0633L132.318 39.2307H137.209L139.291 38.5972L139.811 33.8461H128.051Z" fill="#82AAB5"/>
<path d="M130.845 48.7212V54.1644L137.587 56.1539L142.412 54.1644V48.7212L148.105 43.6783L150.58 36.1539L143.155 37.6199L130.368 36.8869L122.119 36.1539L124.181 44.879L130.845 48.7212Z" fill="#CDDDE1"/>
<path d="M130.797 48.7212V54.1644L137.503 56.1539L135.657 52.5937L136.683 49.7665L134.631 44.879L136.683 37.2534L130.324 36.8869L122.119 36.1539L124.17 44.879L130.797 48.7212Z" fill="#B4CCD2"/>
<path d="M57.6067 108.192L56.3364 112.461L56.6613 112.793L56.3364 113.885L65.8208 123.562L67.1339 123.846L90.9518 105.061V103.638L73.6441 95.3846L57.6067 108.192Z" fill="#6A9AA6"/>
<path d="M56.1247 112.687L57.4072 108.367L73.5993 95.4064L91.0739 103.758L66.5453 123.343L56.1247 112.687Z" fill="#82AAB5"/>
<path d="M89.8735 72.8875L73.5359 70.7693L73.2598 71.1271L73.5359 95.602L91.169 103.846L91.7213 74.8239L89.8735 72.8875Z" fill="#1F6779"/>
<path d="M89.8735 72.869L73.5359 70.7693L73.2598 71.124L73.5359 95.3847H91.169L91.7213 74.7884L89.8735 72.869Z" fill="#06566A"/>
<path d="M145.693 30.3013L142.221 33.2892L138.251 31.4309L137.753 27.6437L140.431 24.9196L144.56 26.3016L145.693 30.3013Z" fill="#ECFF00"/>
<path d="M127.4 26.1408L127.667 22.169L131.877 20.7671L135.345 23.4957L134.841 27.2821L130.709 28.6575L127.4 26.1408Z" fill="#ECFF00"/>
<path d="M118.453 115.033L114.677 139L116.245 139.695H128.003L131.779 114.812L130.446 113.432H121.562L118.453 115.033Z" fill="#6A9AA6"/>
</svg>
