<svg width="250" height="212" viewBox="0 0 250 212" fill="none" xmlns="http://www.w3.org/2000/svg">
<path d="M88.5556 57.6746L171.326 49L209.616 71.1065L209.637 71.8136L211.261 72.7514L212.93 130.177L167.803 167.348L108.701 161.964L107.584 160.367L107.057 160.319L101.499 152.377L111.893 134.373L104.05 113.353L83.9514 108.793L66.7525 113.401L65.1077 111.757L62.5383 93.3682L88.5556 57.6746Z" fill="#06566A"/>
<path d="M171.326 49L88.5556 57.6746L62.5383 93.3682L65.1077 111.757L82.3065 107.148L103.531 111.964L111.893 134.373L101.499 152.377L107.057 160.319L166.158 165.703L211.285 128.533L209.616 71.1065L171.326 49Z" fill="#1F6779"/>
<path opacity="0.5" d="M171.326 49L88.5556 57.6746L62.5383 93.3682L65.1077 111.757L82.3065 107.148L103.531 111.964L111.893 134.373L101.499 152.377L107.057 160.319L125.002 150.332L127.784 122.686L97.8654 97.4214L101.499 66.8383L171.326 49Z" fill="#06566A"/>
<path d="M107.61 80.1575L115.568 87.4565L109.712 97.5995L99.0614 91.4506L102.918 81.8436L107.61 80.1575Z" fill="#ECFF00"/>
<path d="M125.638 62.8945L117.68 70.1935L123.536 80.3364L134.186 74.1876L130.33 64.5805L125.638 62.8945Z" fill="#ECFF00"/>
<path d="M125.638 62.8945L117.68 70.1935L123.536 80.3364L134.186 74.1876L130.33 64.5805L125.638 62.8945Z" fill="#06566A" fill-opacity="0.3"/>
<path d="M158.816 64.3484L157.528 75.0693L145.873 76.228L144.656 63.9907L154.709 61.52L158.816 64.3484Z" fill="#ECFF00"/>
<path d="M158.816 64.3484L157.528 75.0693L145.873 76.228L144.656 63.9907L154.709 61.52L158.816 64.3484Z" fill="#06566A" fill-opacity="0.5"/>
<path d="M171.977 78.1958L182.454 75.586L187.683 86.0661L176.679 91.5562L170.794 83.0397L171.977 78.1958Z" fill="#ECFF00"/>
<path d="M171.977 78.1958L182.454 75.586L187.683 86.0661L176.679 91.5562L170.794 83.0397L171.977 78.1958Z" fill="#06566A" fill-opacity="0.6"/>
<path d="M180.729 116.334L184.947 106.394L196.464 108.521L194.23 120.614L183.887 120.192L180.729 116.334Z" fill="#ECFF00"/>
<path d="M180.729 116.334L184.947 106.394L196.464 108.521L194.23 120.614L183.887 120.192L180.729 116.334Z" fill="#06566A" fill-opacity="0.7"/>
<path d="M111.525 115.554L112.536 133.385L152.781 140.523L155.046 120.469L140.071 115.321L129.019 117.53L121.298 113.201L111.525 115.554Z" fill="#ECFF00"/>
<path d="M118.386 123.675L117.037 135.622M128.633 120.943L126.293 130.185L127.704 136.826M140.009 123.524L139.093 131.631L136.237 137.79M148.019 125.293L147.564 140.798" stroke="#06566A" stroke-opacity="0.2" stroke-width="2"/>
<path d="M118.397 176.093L124.29 154.245L133.167 155.248L127.268 184.741L117.544 183.643L118.397 176.093Z" fill="#82AAB5"/>
<path d="M125.789 175.874L130.443 155.248L133.167 155.248L127.268 184.741L123.795 184.349L125.789 181.193L125.789 175.874Z" fill="#6A9AA6"/>
<path d="M150.5 157.205L133.168 155.248L124.29 154.245L108.557 149.495L110.451 132.717L156.532 137.921L150.5 157.205Z" fill="white"/>
<path d="M150.5 157.205L133.167 155.248L124.29 154.245L108.557 149.495L110.451 132.717L112.492 132.717L112.492 146.952L150.5 157.205Z" fill="#06566A" fill-opacity="0.1"/>
<path d="M152.466 112.851L163.257 176.4H167.065L159.766 112.851H152.466Z" fill="#B4CCD2"/>
<path d="M159.766 112.851L157.702 117.699L165.68 174.211L163.257 176.4H167.065L159.766 112.851Z" fill="#9BBBC3"/>
<path d="M151.608 113.164L160.758 111.993L161.544 116.13L159.337 117.301L154.184 118.004L152.037 117.301L151.608 113.164Z" fill="white"/>
<path d="M158.367 113.045L160.758 111.993L161.543 116.13L159.336 117.301L159.336 116.13L158.367 114.375L158.367 113.045Z" fill="#E6EEF0"/>
<path d="M149.89 108.128L152.896 113.71L159.766 112.851L161.054 108.128L156.76 104.264L155.043 96.5348L152.896 97.8229L149.89 108.128Z" fill="#ECFF00"/>
<path d="M37.0701 118.149L44.5618 114.883H78.9467L87.9752 116.036V180.964L78.9467 183.653H44.5618L37.0701 179.235L37.0701 118.149Z" fill="#1F6779"/>
<path d="M87.9752 116.036L78.9467 114.883H44.5618L37.0701 118.149L45.1381 121.414L54.1665 122.759L77.6021 121.414L87.9752 116.036Z" fill="#06566A"/>
<path d="M82.2119 126.217L78.9463 114.883L87.9747 116.036V180.964L78.9463 183.653L81.6356 171.167L82.2119 126.217Z" fill="#06566A"/>
<path d="M48.2112 127.199V121.414H56.2792V127.199L54.9345 129.342V132.556L51.909 131.485V128.485L48.2112 127.199Z" fill="#ECFF00"/>
<path d="M45.5217 121.414L48.9794 124.68L51.0925 121.414H45.5217Z" fill="#ECFF00"/>
<path d="M76.257 125.536V121.414H65.4997V141.138L67.0365 144.082L69.3416 142.904V140.549L68.189 137.9V132.012V129.657L70.4942 128.185L73.1835 127.596L75.1044 128.185L75.4886 130.246L77.0254 129.657V127.302L76.257 125.536Z" fill="#ECFF00"/>
<path d="M59.2246 125.256L54.3582 123.527V121.414H68.7012L69.7257 124.296L59.2246 125.256Z" fill="#ECFF00"/>
<path opacity="0.3" d="M74.3001 173.465L52.274 175.152L46.4558 154.912L51.4429 148.588L75.9625 146.901L74.3001 173.465Z" fill="black"/>
<path d="M73.6724 172.837L51.6463 174.524L45.8281 154.285L50.8152 147.96L75.3348 146.273L73.6724 172.837Z" fill="#06566A"/>
<path d="M57.3598 152.551L55.063 152.551H54.3032V153.374H55.063V167.045L56.5932 168.374H59.2412V162.737L58.1537 161.795H62.6985L67.8641 157.321H68.8135V156.499L63.876 156.499L59.2412 160.513V154.185L57.3598 152.551Z" fill="#ECFF00"/>
<path d="M60.8469 162.757L66.6912 167.819L66.1173 168.316L66.7619 168.874L67.3359 168.377L69.9982 166.077L64.8068 161.581L63.449 162.757H60.8469Z" fill="#ECFF00"/>
</svg>
