<svg width="250" height="140" viewBox="0 0 250 140" fill="none" xmlns="http://www.w3.org/2000/svg">
<g clip-path="url(#clip0_1004_3772)">
<path d="M95.9278 36.9198L161.955 30L192.499 47.6346L192.515 48.1986L193.811 48.9467L195.143 94.756L159.144 124.407L111.998 120.112L111.107 118.838L110.686 118.8L106.253 112.465L114.545 98.1029L108.287 81.3352L92.255 77.6974L78.5353 81.3736L77.2232 80.0615L75.1736 65.393L95.9278 36.9198Z" fill="#06566A"/>
<path d="M161.955 30L95.9278 36.9198L75.1736 65.393L77.2232 80.0615L90.9429 76.3853L107.874 80.2269L114.545 98.1029L106.253 112.465L110.686 118.8L157.832 123.095L193.83 93.4439L192.499 47.6346L161.955 30Z" fill="#1F6779"/>
<path opacity="0.5" d="M161.955 30L95.9278 36.9198L75.1736 65.393L77.2232 80.0615L90.9429 76.3853L107.874 80.2269L114.545 98.1029L106.253 112.465L110.686 118.8L125.002 110.834L127.22 88.7798L103.354 68.6262L106.253 44.2298L161.955 30Z" fill="#06566A"/>
<path d="M111.128 54.8547L117.476 60.6772L112.804 68.7683L104.309 63.8633L107.385 56.1997L111.128 54.8547Z" fill="#ECFF00"/>
<path d="M125.509 41.0838L119.161 46.9063L123.833 54.9974L132.328 50.0925L129.252 42.4288L125.509 41.0838Z" fill="#ECFF00"/>
<path d="M125.509 41.0838L119.161 46.9063L123.833 54.9974L132.328 50.0925L129.252 42.4288L125.509 41.0838Z" fill="#06566A" fill-opacity="0.3"/>
<path d="M151.975 42.2436L150.948 50.7957L141.651 51.72L140.68 41.9582L148.7 39.9873L151.975 42.2436Z" fill="#ECFF00"/>
<path d="M151.975 42.2436L150.948 50.7957L141.651 51.72L140.68 41.9582L148.7 39.9873L151.975 42.2436Z" fill="#06566A" fill-opacity="0.5"/>
<path d="M162.474 53.2899L170.832 51.208L175.003 59.5681L166.225 63.9476L161.53 57.1539L162.474 53.2899Z" fill="#ECFF00"/>
<path d="M162.474 53.2899L170.832 51.208L175.003 59.5681L166.225 63.9476L161.53 57.1539L162.474 53.2899Z" fill="#06566A" fill-opacity="0.6"/>
<path d="M169.455 83.713L172.82 75.7836L182.007 77.4805L180.226 87.1273L171.975 86.791L169.455 83.713Z" fill="#ECFF00"/>
<path d="M169.455 83.713L172.82 75.7836L182.007 77.4805L180.226 87.1273L171.975 86.791L169.455 83.713Z" fill="#06566A" fill-opacity="0.7"/>
<path d="M114.251 83.091L115.058 97.3148L147.161 103.009L148.968 87.0119L137.022 82.9052L128.206 84.6671L122.046 81.2138L114.251 83.091Z" fill="#ECFF00"/>
<path d="M119.724 89.569L118.648 99.099M127.898 87.3898L126.032 94.7624L127.157 100.06M136.973 89.4488L136.242 95.9156L133.964 100.829M143.363 90.8599L143 103.228" stroke="#06566A" stroke-opacity="0.2" stroke-width="2"/>
<path d="M119.732 131.384L124.433 113.955L131.515 114.755L126.809 138.282L119.052 137.406L119.732 131.384Z" fill="#82AAB5"/>
<path d="M125.63 131.208L129.342 114.755L131.515 114.755L126.809 138.282L124.039 137.969L125.63 135.451L125.63 131.208Z" fill="#6A9AA6"/>
<path d="M145.342 116.316L131.515 114.755L124.433 113.955L111.883 110.165L113.395 96.7819L150.153 100.933L145.342 116.316Z" fill="white"/>
<path d="M145.342 116.316L131.515 114.755L124.433 113.955L111.883 110.166L113.394 96.782L115.022 96.7819L115.022 108.138L145.342 116.316Z" fill="#06566A" fill-opacity="0.1"/>
<path d="M146.91 80.9346L155.518 131.628H158.556L152.733 80.9346H146.91Z" fill="#B4CCD2"/>
<path d="M152.733 80.9346L151.087 84.8019L157.451 129.882L155.518 131.628H158.556L152.733 80.9346Z" fill="#9BBBC3"/>
<path d="M146.225 81.1843L153.524 80.25L154.151 83.5502L152.391 84.4844L148.28 85.0453L146.568 84.4843L146.225 81.1843Z" fill="white"/>
<path d="M151.617 81.0896L153.524 80.2502L154.151 83.5503L152.39 84.4845L152.39 83.5503L151.617 82.1503L151.617 81.0896Z" fill="#E6EEF0"/>
<path d="M144.855 77.1672L147.253 81.6199L152.733 80.9349L153.761 77.1672L150.336 74.0845L148.965 67.9191L147.253 68.9466L144.855 77.1672Z" fill="#ECFF00"/>
<path d="M54.8574 85.1606L60.8336 82.5555H88.2629L95.465 83.475V135.269L88.2629 137.414H60.8336L54.8574 133.89L54.8574 85.1606Z" fill="#1F6779"/>
<path d="M95.465 83.475L88.2629 82.5555H60.8336L54.8574 85.1606L61.2933 87.7656L68.4954 88.8382L87.1902 87.7656L95.465 83.475Z" fill="#06566A"/>
<path d="M90.8677 91.5966L88.2627 82.5557L95.4648 83.4751V135.269L88.2627 137.414L90.408 127.454L90.8677 91.5966Z" fill="#06566A"/>
<path d="M63.7449 92.3804V87.7656H70.1808V92.3804L69.1081 94.0896V96.6533L66.6947 95.7987V93.4059L63.7449 92.3804Z" fill="#ECFF00"/>
<path d="M61.5996 87.7657L64.3579 90.3708L66.0435 87.7657H61.5996Z" fill="#ECFF00"/>
<path d="M86.1175 91.0532V87.7656H77.5363V103.499L78.7622 105.847L80.601 104.908V103.03L79.6816 100.916V96.2195V94.3408L81.5204 93.1667L83.6657 92.697L85.1981 93.1667L85.5046 94.8105L86.7305 94.3408V92.4622L86.1175 91.0532Z" fill="#ECFF00"/>
<path d="M72.5307 90.8303L68.6487 89.4512V87.7656H80.0903L80.9076 90.0642L72.5307 90.8303Z" fill="#ECFF00"/>
<path opacity="0.3" d="M84.5564 129.287L66.986 130.633L62.3447 114.487L66.3229 109.442L85.8825 108.096L84.5564 129.287Z" fill="black"/>
<path d="M84.0557 128.786L66.4852 130.132L61.844 113.987L65.8222 108.941L85.3817 107.596L84.0557 128.786Z" fill="#06566A"/>
<path d="M71.043 112.604L69.2108 112.604H68.6047V113.26H69.2108V124.166L70.4314 125.226H72.5438V120.729L71.6763 119.978H75.3018L79.4224 116.409H80.1798V115.753L76.2411 115.753L72.5438 118.955V113.907L71.043 112.604Z" fill="#ECFF00"/>
<path d="M73.8247 120.745L78.4868 124.783L78.029 125.179L78.5432 125.625L79.001 125.228L81.1248 123.394L76.9835 119.807L75.9004 120.745H73.8247Z" fill="#ECFF00"/>
</g>
<defs>
<clipPath id="clip0_1004_3772">
<rect width="250" height="140" fill="white"/>
</clipPath>
</defs>
</svg>
