<svg width="250" height="140" viewBox="0 0 250 140" fill="none" xmlns="http://www.w3.org/2000/svg">
<path d="M80.0815 119.996H109.14L101.493 139.78H86.199L80.0815 134.085V119.996Z" fill="#518997"/>
<path d="M80.0815 119.996H84.7437V132.348L89.0039 139.78H86.199L80.0815 134.085V119.996Z" fill="#387888"/>
<path d="M142.332 119.897H168.255V139.792H151.677L147.155 134.706L142.332 119.897Z" fill="#518997"/>
<path d="M142.332 119.897H149.162L151.676 134.706L155.101 139.792H151.676L147.155 134.706L142.332 119.897Z" fill="#387888"/>
<path d="M69.9893 47.8558H169.822L187.848 59.4025V115.559L180.413 123.213H69.9893V47.8558Z" fill="#06566A"/>
<path d="M66.9749 44.8414H166.807L184.834 56.3881V112.544L177.399 120.199H66.9749V44.8414Z" fill="#387888"/>
<path d="M66.9749 44.8414H167.236L143.095 46.7573L75.5778 48.8228V106.141L70.6722 110.014L66.9749 115.823V44.8414Z" fill="#1F6779"/>
<path d="M152.129 60.8174H62.1521V103.043V104.831L65.1648 107.84H67.8323H163.131V69.7095L152.129 60.8174Z" fill="#82AAB5"/>
<path d="M62.1521 60.8174H151.827L160.116 69.1067V104.826H64.8631L62.1521 102.527V60.8174Z" fill="#06566A"/>
<path d="M79.0322 38.2101H97.1179V44.8415H79.0322V38.2101Z" fill="#B4CCD2"/>
<path d="M79.0322 38.2101H97.1179L81.1291 39.9154V44.8415H79.0322V38.2101Z" fill="#9BBBC3"/>
<path d="M77.8265 26.1528H101.639V38.21H74.5107V29.77L77.8265 26.1528Z" fill="#06566A"/>
<path d="M77.8265 26.1528H101.639L78.5472 28.555L76.7399 31.3951L74.5107 38.21V29.77L77.8265 26.1528Z" fill="#387888"/>
<path d="M95.5178 75.3356H135.959L143.561 82.6333V89.931H95.5178V75.3356Z" fill="#9BBBC3"/>
<path d="M94.2266 74.0446H134.668L142.27 81.3423V88.64H94.2266V74.0446Z" fill="#387888"/>
<path d="M110.176 79.2893H134.575L133.413 84.4531H110.95L110.176 79.2893Z" fill="#ECFF00"/>
<path d="M110.176 79.2893H134.575L133.413 84.4531H110.95L110.176 79.2893Z" fill="#06566A" fill-opacity="0.3"/>
<path d="M103.205 79.2893H126.313L125.151 84.4531H103.979L103.205 79.2893Z" fill="#ECFF00"/>
<path d="M84.4969 71.5204H78.5648L75.9829 74.1256V80.0344L77.0157 81.0672H85.5297V72.5531L84.4969 71.5204Z" fill="#518997"/>
<path d="M78.5648 71.5204H84.4969V80.0344H75.9829V74.1256L78.5648 71.5204Z" fill="#ECFF00"/>
<path d="M84.4969 83.6832H75.9829V92.1972L77.0157 93.23H83.08L85.5297 90.908V84.716L84.4969 83.6832Z" fill="#518997"/>
<path d="M75.9829 83.6832H84.4969V89.8753L82.0472 92.1972H75.9829V83.6832Z" fill="#ECFF00"/>
<path d="M154.685 20.9021L147.909 15.8746L141.133 30.0827L145.942 31.8314L141.57 41.8864L153.592 28.1155L147.909 27.6783L154.685 20.9021Z" fill="#ECFF00"/>
<path d="M117.539 16.4402L109.797 19.7948L118.713 32.7673L122.632 29.477L129.154 38.2905L123.239 20.9934L120.019 25.6967L117.539 16.4402Z" fill="#ECFF00"/>
</svg>
