<svg width="250" height="212" viewBox="0 0 250 212" fill="none" xmlns="http://www.w3.org/2000/svg">
<path d="M69.2832 162.237H105.327L95.8417 186.778H76.8713L69.2832 179.713V162.237Z" fill="#518997"/>
<path d="M69.2832 162.237H75.0662V177.558L80.3505 186.778H76.8713L69.2832 179.713V162.237Z" fill="#387888"/>
<path d="M146.499 162.115H178.654V186.792H158.089L152.481 180.483L146.499 162.115Z" fill="#518997"/>
<path d="M146.499 162.115H154.971L158.089 180.483L162.337 186.792H158.089L152.481 180.483L146.499 162.115Z" fill="#387888"/>
<path d="M56.7646 72.7544H180.597L202.957 87.0769V156.733L193.735 166.227H56.7646V72.7544Z" fill="#06566A"/>
<path d="M53.0256 69.0154H176.858L199.218 83.3379V152.994L189.996 162.488H53.0256V69.0154Z" fill="#387888"/>
<path d="M53.0256 69.0154H177.389L147.445 71.3918L63.6968 73.9539V145.052L57.6119 149.855L53.0256 157.061V69.0154Z" fill="#1F6779"/>
<path d="M158.65 88.8319H47.0435V141.209V143.426L50.7804 147.159H54.0892H172.297V99.8617L158.65 88.8319Z" fill="#82AAB5"/>
<path d="M47.0435 88.8319H158.276L168.558 99.1139V143.42H50.4062L47.0435 140.568V88.8319Z" fill="#06566A"/>
<path d="M67.9814 60.7898H90.415V69.0154H67.9814V60.7898Z" fill="#B4CCD2"/>
<path d="M67.9814 60.7898H90.415L70.5825 62.9051V69.0154H67.9814V60.7898Z" fill="#9BBBC3"/>
<path d="M66.4859 45.834H96.0234V60.7897H62.373V50.3207L66.4859 45.834Z" fill="#06566A"/>
<path d="M66.4859 45.834H96.0234L67.3799 48.8136L65.1381 52.3364L62.373 60.7897V50.3207L66.4859 45.834Z" fill="#387888"/>
<path d="M88.4302 106.84H138.594L148.023 115.892V124.944H88.4302V106.84Z" fill="#9BBBC3"/>
<path d="M86.8289 105.239H136.993L146.422 114.291V123.343H86.8289V105.239Z" fill="#387888"/>
<path d="M106.612 111.745H136.876L135.435 118.15H107.573L106.612 111.745Z" fill="#ECFF00"/>
<path d="M106.612 111.745H136.876L135.435 118.15H107.573L106.612 111.745Z" fill="#06566A" fill-opacity="0.3"/>
<path d="M97.9648 111.745H126.628L125.187 118.15H98.9256L97.9648 111.745Z" fill="#ECFF00"/>
<path d="M74.76 102.108H67.4018L64.1992 105.339V112.669L65.4803 113.95H76.041V103.389L74.76 102.108Z" fill="#518997"/>
<path d="M67.4018 102.108H74.76V112.669H64.1992V105.339L67.4018 102.108Z" fill="#ECFF00"/>
<path d="M74.76 117.195H64.1992V127.755L65.4803 129.037H73.0025L76.041 126.156V118.476L74.76 117.195Z" fill="#518997"/>
<path d="M64.1992 117.195H74.76V124.875L71.7214 127.755H64.1992V117.195Z" fill="#ECFF00"/>
<path d="M161.822 39.3209L153.416 33.0848L145.011 50.7086L150.976 52.8777L145.554 65.3499L160.466 48.2684L153.416 47.7261L161.822 39.3209Z" fill="#ECFF00"/>
<path d="M115.745 33.7864L106.142 37.9475L117.202 54.0385L122.063 49.9572L130.153 60.8895L122.816 39.4342L118.821 45.2681L115.745 33.7864Z" fill="#ECFF00"/>
</svg>
