<svg width="250" height="80" viewBox="0 0 250 80" fill="none" xmlns="http://www.w3.org/2000/svg">
<rect width="250" height="80" fill="white"/>
<rect width="80" height="80" fill="#06566A" fill-opacity="0.05"/>
<rect width="60" height="30" transform="translate(10 25)" fill="#06566A"/>
<path d="M20.5352 40.2559H18.3438L18.332 39.0488H20.1719C20.4961 39.0488 20.7617 39.0078 20.9688 38.9258C21.1758 38.8398 21.3301 38.7168 21.4316 38.5566C21.5371 38.3926 21.5898 38.1934 21.5898 37.959C21.5898 37.6934 21.5391 37.4785 21.4375 37.3145C21.3398 37.1504 21.1855 37.0312 20.9746 36.957C20.7676 36.8828 20.5 36.8457 20.1719 36.8457H18.9531V44H17.1953V35.4688H20.1719C20.668 35.4688 21.1113 35.5156 21.502 35.6094C21.8965 35.7031 22.2305 35.8457 22.5039 36.0371C22.7773 36.2285 22.9863 36.4707 23.1309 36.7637C23.2754 37.0527 23.3477 37.3965 23.3477 37.7949C23.3477 38.1465 23.2676 38.4707 23.1074 38.7676C22.9512 39.0645 22.7031 39.3066 22.3633 39.4941C22.0273 39.6816 21.5879 39.7852 21.0449 39.8047L20.5352 40.2559ZM20.459 44H17.8633L18.5488 42.6289H20.459C20.7676 42.6289 21.0195 42.5801 21.2148 42.4824C21.4102 42.3809 21.5547 42.2441 21.6484 42.0723C21.7422 41.9004 21.7891 41.7031 21.7891 41.4805C21.7891 41.2305 21.7461 41.0137 21.6602 40.8301C21.5781 40.6465 21.4453 40.5059 21.2617 40.4082C21.0781 40.3066 20.8359 40.2559 20.5352 40.2559H18.8418L18.8535 39.0488H20.9629L21.3672 39.5234C21.8867 39.5156 22.3047 39.6074 22.6211 39.7988C22.9414 39.9863 23.1738 40.2305 23.3184 40.5312C23.4668 40.832 23.541 41.1543 23.541 41.498C23.541 42.0449 23.4219 42.5059 23.1836 42.8809C22.9453 43.252 22.5957 43.5312 22.1348 43.7188C21.6777 43.9062 21.1191 44 20.459 44ZM29.5703 35.4688H31.3223V41.1055C31.3223 41.7617 31.1816 42.3145 30.9004 42.7637C30.623 43.2129 30.2383 43.5508 29.7461 43.7773C29.2578 44.0039 28.6953 44.1172 28.0586 44.1172C27.4219 44.1172 26.8555 44.0039 26.3594 43.7773C25.8672 43.5508 25.4805 43.2129 25.1992 42.7637C24.9219 42.3145 24.7832 41.7617 24.7832 41.1055V35.4688H26.541V41.1055C26.541 41.4883 26.6016 41.8008 26.7227 42.043C26.8438 42.2852 27.0176 42.4629 27.2441 42.5762C27.4746 42.6895 27.7461 42.7461 28.0586 42.7461C28.3789 42.7461 28.6504 42.6895 28.873 42.5762C29.0996 42.4629 29.2715 42.2852 29.3887 42.043C29.5098 41.8008 29.5703 41.4883 29.5703 41.1055V35.4688ZM36.584 35.4688V44H34.832V35.4688H36.584ZM39.209 35.4688V36.8457H32.248V35.4688H39.209ZM44.1191 35.4688V44H42.3672V35.4688H44.1191ZM46.7441 35.4688V36.8457H39.7832V35.4688H46.7441ZM54.5898 39.5352V39.9395C54.5898 40.5879 54.502 41.1699 54.3262 41.6855C54.1504 42.2012 53.9023 42.6406 53.582 43.0039C53.2617 43.3633 52.8789 43.6387 52.4336 43.8301C51.9922 44.0215 51.502 44.1172 50.9629 44.1172C50.4277 44.1172 49.9375 44.0215 49.4922 43.8301C49.0508 43.6387 48.668 43.3633 48.3438 43.0039C48.0195 42.6406 47.7676 42.2012 47.5879 41.6855C47.4121 41.1699 47.3242 40.5879 47.3242 39.9395V39.5352C47.3242 38.8828 47.4121 38.3008 47.5879 37.7891C47.7637 37.2734 48.0117 36.834 48.332 36.4707C48.6562 36.1074 49.0391 35.8301 49.4805 35.6387C49.9258 35.4473 50.416 35.3516 50.9512 35.3516C51.4902 35.3516 51.9805 35.4473 52.4219 35.6387C52.8672 35.8301 53.25 36.1074 53.5703 36.4707C53.8945 36.834 54.1445 37.2734 54.3203 37.7891C54.5 38.3008 54.5898 38.8828 54.5898 39.5352ZM52.8145 39.9395V39.5234C52.8145 39.0703 52.7734 38.6719 52.6914 38.3281C52.6094 37.9844 52.4883 37.6953 52.3281 37.4609C52.168 37.2266 51.9727 37.0508 51.7422 36.9336C51.5117 36.8125 51.248 36.752 50.9512 36.752C50.6543 36.752 50.3906 36.8125 50.1602 36.9336C49.9336 37.0508 49.7402 37.2266 49.5801 37.4609C49.4238 37.6953 49.3047 37.9844 49.2227 38.3281C49.1406 38.6719 49.0996 39.0703 49.0996 39.5234V39.9395C49.0996 40.3887 49.1406 40.7871 49.2227 41.1348C49.3047 41.4785 49.4258 41.7695 49.5859 42.0078C49.7461 42.2422 49.9414 42.4199 50.1719 42.541C50.4023 42.6621 50.666 42.7227 50.9629 42.7227C51.2598 42.7227 51.5234 42.6621 51.7539 42.541C51.9844 42.4199 52.1777 42.2422 52.334 42.0078C52.4902 41.7695 52.6094 41.4785 52.6914 41.1348C52.7734 40.7871 52.8145 40.3887 52.8145 39.9395ZM62.7988 35.4688V44H61.041L57.6133 38.2812V44H55.8555V35.4688H57.6133L61.0469 41.1934V35.4688H62.7988Z" fill="#ECFF00"/>
</svg>
