<svg width="250" height="80" viewBox="0 0 250 80" fill="none" xmlns="http://www.w3.org/2000/svg">
<rect width="250" height="80" fill="white"/>
<rect width="80" height="80" fill="#06566A" fill-opacity="0.05"/>
<rect x="12" y="29" width="56" height="22" rx="11" fill="#06566A"/>
<path d="M28.457 42.6289V44H24.1621V42.6289H28.457ZM24.7305 35.4688V44H22.9727V35.4688H24.7305ZM33.0508 36.9277L30.7305 44H28.8613L32.0312 35.4688H33.2207L33.0508 36.9277ZM34.9785 44L32.6523 36.9277L32.4648 35.4688H33.666L36.8535 44H34.9785ZM34.873 40.8242V42.2012H30.3672V40.8242H34.873ZM40.9844 40.2559H38.793L38.7812 39.0488H40.6211C40.9453 39.0488 41.2109 39.0078 41.418 38.9258C41.625 38.8398 41.7793 38.7168 41.8809 38.5566C41.9863 38.3926 42.0391 38.1934 42.0391 37.959C42.0391 37.6934 41.9883 37.4785 41.8867 37.3145C41.7891 37.1504 41.6348 37.0312 41.4238 36.957C41.2168 36.8828 40.9492 36.8457 40.6211 36.8457H39.4023V44H37.6445V35.4688H40.6211C41.1172 35.4688 41.5605 35.5156 41.9512 35.6094C42.3457 35.7031 42.6797 35.8457 42.9531 36.0371C43.2266 36.2285 43.4355 36.4707 43.5801 36.7637C43.7246 37.0527 43.7969 37.3965 43.7969 37.7949C43.7969 38.1465 43.7168 38.4707 43.5566 38.7676C43.4004 39.0645 43.1523 39.3066 42.8125 39.4941C42.4766 39.6816 42.0371 39.7852 41.4941 39.8047L40.9844 40.2559ZM40.9082 44H38.3125L38.998 42.6289H40.9082C41.2168 42.6289 41.4688 42.5801 41.6641 42.4824C41.8594 42.3809 42.0039 42.2441 42.0977 42.0723C42.1914 41.9004 42.2383 41.7031 42.2383 41.4805C42.2383 41.2305 42.1953 41.0137 42.1094 40.8301C42.0273 40.6465 41.8945 40.5059 41.7109 40.4082C41.5273 40.3066 41.2852 40.2559 40.9844 40.2559H39.291L39.3027 39.0488H41.4121L41.8164 39.5234C42.3359 39.5156 42.7539 39.6074 43.0703 39.7988C43.3906 39.9863 43.623 40.2305 43.7676 40.5312C43.916 40.832 43.9902 41.1543 43.9902 41.498C43.9902 42.0449 43.8711 42.5059 43.6328 42.8809C43.3945 43.252 43.0449 43.5312 42.584 43.7188C42.127 43.9062 41.5684 44 40.9082 44ZM51.0332 42.6289V44H46.4922V42.6289H51.0332ZM47.0664 35.4688V44H45.3086V35.4688H47.0664ZM50.4414 38.9434V40.2793H46.4922V38.9434H50.4414ZM51.0273 35.4688V36.8457H46.4922V35.4688H51.0273ZM57.543 42.6289V44H53.248V42.6289H57.543ZM53.8164 35.4688V44H52.0586V35.4688H53.8164Z" fill="#ECFF00"/>
</svg>
