<?xml version="1.0" encoding="UTF-8"?>
<svg width="401px" height="316px" viewBox="0 0 401 316" version="1.1" xmlns="http://www.w3.org/2000/svg" xmlns:xlink="http://www.w3.org/1999/xlink">
    <!-- Generator: Sketch 63.1 (92452) - https://sketch.com -->
    <title>Button_frame</title>
    <desc>Created with Sketch.</desc>
    <defs>
        <radialGradient cx="73.8677938%" cy="18.9976084%" fx="73.8677938%" fy="18.9976084%" r="161.599762%" gradientTransform="translate(0.738678,0.189976),scale(0.787756,1.000000),rotate(38.229490),translate(-0.738678,-0.189976)" id="radialGradient-1">
            <stop stop-color="#06566A" stop-opacity="0.22" offset="0%"></stop>
            <stop stop-color="#06566A" stop-opacity="0.06" offset="100%"></stop>
        </radialGradient>
        <rect id="path-2" x="1.33002742" y="1.34763097" width="242.002904" height="107.810478"></rect>
    </defs>
    <g id="Button_frame" stroke="none" stroke-width="1" fill="none" fill-rule="evenodd">
        <g id="Group" transform="translate(0.500000, 0.000000)" fill="url(#radialGradient-1)" fill-rule="nonzero" opacity="0.653390067">
            <path d="M400.457258,315.462675 L-4.77484718e-12,315.462675 L-4.77484718e-12,-2.1032065e-12 L400.457258,-2.16004992e-12 L400.457258,315.462675 Z M390.457,29.726 L9.999,29.726 L10,305.461803 L390.457,305.461803 L390.457,29.726 Z" id="Combined-Shape"></path>
        </g>
        <g id="icon/Button" transform="translate(66.553942, 34.813800)">
            <g id="Group" transform="translate(12.114578, 79.510227)">
                <mask id="mask-3" fill="white">
                    <use xlink:href="#path-2"></use>
                </mask>
                <use id="Rectangle" fill="#E6EEF0" xlink:href="#path-2"></use>
                <path d="M59.9663647,74.1197036 C64.307852,74.084609 67.6514974,73.1195087 69.997301,71.2244026 C72.3431046,69.3292966 73.5160064,66.5392793 73.5160064,62.8543509 C73.5160064,60.6960357 72.951438,58.8711187 71.8223012,57.3796001 C70.6931644,55.8880814 69.1482602,54.8966602 67.1875885,54.4053364 C68.9031762,53.7385398 70.242385,52.6900899 71.2052148,51.2599867 C72.1680447,49.8298836 72.6494596,48.1760526 72.6494596,46.2984938 C72.6494596,42.8592273 71.4502988,40.2490696 69.0519772,38.4680209 C66.6536556,36.6869721 63.1349502,35.7964477 58.4958609,35.7964477 L58.4958609,35.7964477 L45.1037732,35.7964477 L45.1037732,74.1197036 L59.9663647,74.1197036 Z M58.8109689,51.8522074 L52.9814719,51.8522074 L52.9814719,42.1924307 L58.4958609,42.1924307 C60.6666046,42.1924307 62.2552738,42.574084 63.2618686,43.3373906 C64.2684635,44.1006972 64.7717609,45.3509408 64.7717609,47.0881213 C64.7717609,50.1939896 62.7848302,51.7820183 58.8109689,51.8522074 L58.8109689,51.8522074 Z M59.7300337,67.7763624 L52.9814719,67.7763624 L52.9814719,57.4322419 L60.2026957,57.4322419 C63.8264371,57.4848837 65.6383078,59.2659325 65.6383078,62.7753881 C65.6383078,64.3370959 65.1175043,65.5610186 64.0758975,66.4471561 C63.0342907,67.3332937 61.5856694,67.7763624 59.7300337,67.7763624 L59.7300337,67.7763624 Z M88.168526,74.6461219 C91.4771595,74.6461219 94.068047,73.5055488 95.9411887,71.2244026 L95.9411887,71.2244026 L96.1512607,74.1197036 L103.293708,74.1197036 L103.293708,45.6404709 L95.6785988,45.6404709 L95.6785988,65.8022936 C94.7157689,67.592116 92.9476632,68.4870272 90.3742816,68.4870272 C87.6783581,68.4870272 86.3303963,67.0042822 86.3303963,64.0387922 L86.3303963,64.0387922 L86.3303963,45.6404709 L78.7415466,45.6404709 L78.7415466,64.3020013 C78.7765586,67.6886261 79.5949639,70.2593023 81.1967627,72.0140302 C82.7985614,73.768758 85.1224825,74.6461219 88.168526,74.6461219 Z M118.65522,74.6461219 C120.23076,74.6461219 121.762534,74.4180073 123.250544,73.961778 L123.250544,73.961778 L123.250544,68.1974971 C122.602822,68.3203281 121.858817,68.3817435 121.01853,68.3817435 C119.88064,68.3817435 119.110376,68.1536289 118.707738,67.6973997 C118.3051,67.2411705 118.103781,66.4866375 118.103781,65.4338008 L118.103781,65.4338008 L118.103781,51.2205054 L122.961695,51.2205054 L122.961695,45.6404709 L118.103781,45.6404709 L118.103781,38.6391068 L110.514931,38.6391068 L110.514931,45.6404709 L106.36601,45.6404709 L106.36601,51.2205054 L110.514931,51.2205054 L110.514931,66.5656002 C110.619967,71.9526147 113.333397,74.6461219 118.65522,74.6461219 Z M136.826445,74.6461219 C138.401985,74.6461219 139.933759,74.4180073 141.421769,73.961778 L141.421769,73.961778 L141.421769,68.1974971 C140.774047,68.3203281 140.030042,68.3817435 139.189755,68.3817435 C138.051865,68.3817435 137.281601,68.1536289 136.878963,67.6973997 C136.476325,67.2411705 136.275006,66.4866375 136.275006,65.4338008 L136.275006,65.4338008 L136.275006,51.2205054 L141.13292,51.2205054 L141.13292,45.6404709 L136.275006,45.6404709 L136.275006,38.6391068 L128.686156,38.6391068 L128.686156,45.6404709 L124.537235,45.6404709 L124.537235,51.2205054 L128.686156,51.2205054 L128.686156,66.5656002 C128.791192,71.9526147 131.504622,74.6461219 136.826445,74.6461219 Z M157.649828,74.6461219 C161.746232,74.6461219 165.0111,73.3256892 167.444434,70.6848238 C169.877767,68.0439584 171.094434,64.5388896 171.094434,60.1696173 L171.094434,60.1696173 L171.041916,58.2218694 C170.76182,54.1859954 169.409482,50.9923907 166.984901,48.6410555 C164.560321,46.2897202 161.431124,45.1140525 157.59731,45.1140525 C154.901387,45.1140525 152.533701,45.7194336 150.494252,46.9301958 C148.454804,48.140958 146.892393,49.8518177 145.807021,52.0627747 C144.72165,54.2737318 144.178964,56.7917662 144.178964,59.616878 L144.178964,59.616878 L144.178964,59.95905 C144.178964,64.4862478 145.400007,68.0658925 147.842094,70.6979843 C150.28418,73.330076 153.553425,74.6461219 157.649828,74.6461219 Z M157.649828,68.5133481 C155.759181,68.5133481 154.306183,67.7982965 153.290835,66.3681934 C152.275487,64.9380902 151.767813,62.8718982 151.767813,60.1696173 C151.767813,57.1339382 152.275487,54.8922734 153.290835,53.4446229 C154.306183,51.9969724 155.741675,51.2731472 157.59731,51.2731472 C159.470452,51.2731472 160.92345,52.0013593 161.956304,53.4577834 C162.989158,54.9142074 163.505585,56.967239 163.505585,59.616878 C163.505585,62.7227463 162.989158,64.9819584 161.956304,66.3945143 C160.92345,67.8070702 159.487958,68.5133481 157.649828,68.5133481 Z M183.199831,74.1197036 L183.199831,54.0368435 C184.267697,52.2119266 185.869496,51.2994681 188.005227,51.2994681 C189.633285,51.2994681 190.797434,51.6635741 191.497674,52.3917862 C192.197914,53.1199982 192.548034,54.2912791 192.548034,55.9056287 L192.548034,55.9056287 L192.548034,74.1197036 L200.136883,74.1197036 L200.136883,55.7213823 C200.101871,52.1943793 199.349114,49.5447403 197.87861,47.7724652 C196.408106,46.0001901 194.167338,45.1140525 191.156307,45.1140525 C187.742637,45.1140525 185.020455,46.3862302 182.989759,48.9305855 L182.989759,48.9305855 L182.753428,45.6404709 L175.610982,45.6404709 L175.610982,74.1197036 L183.199831,74.1197036 Z" id="Button" fill="#06566A" mask="url(#mask-3)"></path>
            </g>
        </g>
    </g>
</svg>