<svg width="400" height="400" viewBox="0 0 400 400" fill="none" xmlns="http://www.w3.org/2000/svg">
<path d="M105.031 242.46C131.431 214.46 179.697 230.794 200.531 242.46V280.5C179.864 286.667 140 287 105.031 318.5C83.9991 337.445 14.5307 300.46 37.0307 304.46C59.5307 308.46 72.0307 277.46 105.031 242.46Z" fill="#ECFF00"/>
<path d="M295.5 242.46C269.1 214.46 220.833 230.794 200 242.46V280.5C220.667 286.667 260.531 287 295.5 318.5C316.532 337.445 386 300.46 363.5 304.46C341 308.46 328.5 277.46 295.5 242.46Z" fill="#ECFF00"/>
<path d="M105.031 242.46C131.431 214.46 179.697 230.794 200.531 242.46V280.5C179.864 286.667 140 287 105.031 318.5C83.9991 337.445 14.5307 300.46 37.0307 304.46C59.5307 308.46 72.0307 277.46 105.031 242.46Z" stroke="black" stroke-width="8"/>
<path d="M295.5 242.46C269.1 214.46 220.833 230.794 200 242.46V280.5C220.667 286.667 260.531 287 295.5 318.5C316.532 337.445 386 300.46 363.5 304.46C341 308.46 328.5 277.46 295.5 242.46Z" stroke="black" stroke-width="8"/>
<circle cx="268" cy="125" r="51" fill="#ECFF00" stroke="black" stroke-width="10"/>
<path d="M317.435 130.827L351 146.5L371 169L371 283.5" stroke="black" stroke-width="10"/>
</svg>
