<svg width="400" height="400" viewBox="0 0 400 400" fill="none" xmlns="http://www.w3.org/2000/svg">
<path fill-rule="evenodd" clip-rule="evenodd" d="M166.678 92.0348V91.9937H166.731L261.865 18L357 91.9937V126.8L261.839 200.814L166.678 126.8V92.0348Z" fill="#ECFF00"/>
<path d="M261.866 22.9113L172.993 92.0349L261.813 161.117L350.686 91.9938L261.866 22.9113Z" fill="#ECFF00"/>
<path fill-rule="evenodd" clip-rule="evenodd" d="M174.678 95.9476V122.887L261.839 190.679L349 122.887V95.9064L261.865 28.1349L174.678 95.9476ZM261.865 18L166.731 91.9937H166.678V126.8L261.839 200.814L357 126.8V91.9937L261.865 18Z" fill="#06708A"/>
<path fill-rule="evenodd" clip-rule="evenodd" d="M166.678 92.0349L261.865 18L357 91.9937L261.813 166.029L166.678 92.0349ZM179.307 92.0349L261.813 156.206L344.371 91.9938L261.866 27.8228L179.307 92.0349Z" fill="#06708A"/>
<path fill-rule="evenodd" clip-rule="evenodd" d="M43 193.496V193.455H43.0529L138.188 119.461L233.322 193.455V228.261L138.161 302.275L43 228.261V193.496Z" fill="#ECFF00"/>
<path d="M138.188 124.372L49.3148 193.496L138.135 262.579L227.008 193.455L138.188 124.372Z" fill="#ECFF00"/>
<path fill-rule="evenodd" clip-rule="evenodd" d="M51 197.409V224.348L138.161 292.14L225.322 224.348V197.368L138.188 129.596L51 197.409ZM138.188 119.461L43.0529 193.455H43V228.261L138.161 302.275L233.322 228.261V193.455L138.188 119.461Z" fill="#06708A"/>
<path fill-rule="evenodd" clip-rule="evenodd" d="M43 193.496L138.188 119.461L233.323 193.455L138.135 267.49L43 193.496ZM55.6296 193.496L138.135 257.667L220.693 193.455L138.188 129.284L55.6296 193.496Z" fill="#06708A"/>
<path fill-rule="evenodd" clip-rule="evenodd" d="M43 123.496V123.455H43.0529L138.188 49.4609L233.322 123.455V158.261L138.161 232.275L43 158.261V123.496Z" fill="#ECFF00"/>
<path d="M138.188 54.3725L49.3148 123.496L138.135 192.579L227.008 123.455L138.188 54.3725Z" fill="#ECFF00"/>
<path fill-rule="evenodd" clip-rule="evenodd" d="M138.188 49.4609L233.323 123.455L233.322 123.456V158.261L138.161 232.275L43 158.261V123.455H43.0529L138.188 49.4609ZM55.8301 123.652L138.135 187.667L220.492 123.611L138.188 59.5958L55.8301 123.652ZM225.322 129.678L138.135 197.49L51 129.718V154.348L138.161 222.14L225.322 154.348V129.678Z" fill="#06708A"/>
<path fill-rule="evenodd" clip-rule="evenodd" d="M337 274.113V308.919L241.839 382.934L146.678 308.919V274.113H146.731L241.865 200.12L337 274.113Z" fill="#ECFF00"/>
<path d="M241.866 205.03L152.993 274.154L241.813 343.237L330.686 274.113L241.866 205.03Z" fill="#ECFF00"/>
<path fill-rule="evenodd" clip-rule="evenodd" d="M146.678 308.919L241.839 382.934L337 308.919V274.114L337.001 274.113L241.866 200.119L146.731 274.113H146.678V308.919ZM159.508 274.31L241.865 210.255L324.17 274.269L241.813 338.325L159.508 274.31ZM154.678 280.376L241.813 348.148L329 280.336V305.006L241.839 372.799L154.678 305.006V280.376Z" fill="#06708A"/>
</svg>
