<svg width="400" height="400" viewBox="0 0 400 400" fill="none" xmlns="http://www.w3.org/2000/svg">
<path d="M206.876 346.743C245.757 337.409 275.565 320.027 277.6 306.276L277.46 302.656L271.3 276.992L194.554 295.414L117.809 313.837L123.969 339.501L125.488 342.791C133.544 354.119 167.994 356.076 206.876 346.743Z" fill="#ECFF00"/>
<path fill-rule="evenodd" clip-rule="evenodd" d="M277.6 306.276L277.46 302.656L271.3 276.992L117.809 313.837L123.969 339.501L125.488 342.791C133.544 354.119 167.994 356.076 206.876 346.743C245.757 337.409 275.565 320.027 277.6 306.276ZM205.009 338.964C223.872 334.435 240.297 328.004 252.065 321.232C257.962 317.839 262.456 314.494 265.486 311.447C268.177 308.74 269.227 306.762 269.569 305.618L269.497 303.755L265.388 286.638L196.421 303.193L127.455 319.749L131.564 336.865L132.345 338.558C133.169 339.423 135.003 340.709 138.63 341.899C142.712 343.238 148.235 344.179 155.03 344.525C168.59 345.217 186.145 343.492 205.009 338.964Z" fill="#06708A"/>
<path d="M267.173 276.938C267.617 278.785 267.071 281.426 264.285 284.97C261.533 288.47 257 292.297 250.822 296.155C238.504 303.849 220.434 311.187 199.544 316.202C178.654 321.217 159.223 322.88 144.754 321.617C137.498 320.983 131.722 319.632 127.681 317.762C123.589 315.868 121.905 313.763 121.461 311.916C121.018 310.07 121.563 307.429 124.35 303.885C127.101 300.384 131.635 296.558 137.813 292.699C150.131 285.006 168.2 277.667 189.09 272.653C209.98 267.638 229.412 265.974 243.88 267.238C251.136 267.872 256.913 269.223 260.954 271.093C265.046 272.986 266.73 275.092 267.173 276.938Z" fill="#ECFF00" stroke="#06708A" stroke-width="8"/>
<path d="M247.868 227.676C286.935 236.203 321.336 233.533 329.156 222.04L330.606 218.719L336.234 192.933L259.123 176.104L182.013 159.275L176.385 185.061L176.32 188.683C178.64 202.389 208.801 219.15 247.868 227.676Z" fill="#ECFF00"/>
<path fill-rule="evenodd" clip-rule="evenodd" d="M247.868 227.676C286.935 236.203 321.336 233.533 329.156 222.04L330.606 218.719L336.234 192.933L182.013 159.275L176.385 185.061L176.32 188.683C178.64 202.389 208.801 219.15 247.868 227.676ZM184.336 187.858C184.701 188.996 185.793 190.952 188.539 193.602C191.631 196.585 196.194 199.837 202.159 203.107C214.066 209.634 230.62 215.724 249.574 219.86C268.528 223.997 286.114 225.358 299.657 224.386C306.442 223.899 311.944 222.844 315.999 221.42C319.599 220.156 321.406 218.833 322.212 217.951L322.958 216.242L326.712 199.043L257.417 183.92L188.123 168.797L184.37 185.995L184.336 187.858Z" fill="#06708A"/>
<path d="M332.542 191.089C332.138 192.944 330.497 195.084 326.445 197.062C322.444 199.015 316.697 200.485 309.455 201.269C295.016 202.832 275.554 201.571 254.565 196.99C233.576 192.409 215.358 185.447 202.883 178.01C196.627 174.28 192.015 170.549 189.191 167.106C186.332 163.62 185.732 160.991 186.137 159.136C186.542 157.281 188.183 155.14 192.234 153.163C196.236 151.21 201.983 149.739 209.224 148.955C223.663 147.392 243.125 148.653 264.115 153.234C285.104 157.815 303.322 164.777 315.796 172.215C322.053 175.944 326.665 179.676 329.489 183.118C332.348 186.604 332.947 189.234 332.542 191.089Z" fill="#ECFF00" stroke="#06708A" stroke-width="8"/>
<path d="M170.339 147.223C196.731 117.183 211.068 85.7982 204.805 73.388L202.604 70.5104L182.776 53.0902L130.683 112.383L78.5903 171.675L98.4181 189.096L101.555 190.908C114.668 195.522 143.947 177.263 170.339 147.223Z" fill="#ECFF00"/>
<path fill-rule="evenodd" clip-rule="evenodd" d="M130.683 112.383L182.776 53.0902L202.604 70.5104L204.805 73.388C211.068 85.7982 196.731 117.183 170.339 147.223C143.947 177.263 114.668 195.522 101.555 190.908L98.4181 189.096L78.5903 171.675L130.683 112.383ZM89.8804 170.945L136.693 117.663L183.506 64.3803L196.73 75.9986L197.862 77.4793C198.243 78.6118 198.525 80.8337 197.886 84.5965C197.167 88.8327 195.423 94.1565 192.56 100.328C186.847 112.646 177.133 127.369 164.329 141.943C151.525 156.517 138.175 168.046 126.695 175.297C120.943 178.931 115.888 181.345 111.78 182.604C108.13 183.722 105.89 183.729 104.719 183.497L103.104 182.564L89.8804 170.945Z" fill="#06708A"/>
<path d="M179.373 55.4251C180.8 56.6784 181.877 59.1508 181.643 63.6531C181.412 68.0997 179.913 73.8397 177.089 80.5537C171.458 93.9412 160.923 110.354 146.743 126.493C132.564 142.632 117.644 155.193 105.093 162.5C98.7986 166.165 93.2994 168.391 88.9195 169.192C84.4847 170.003 81.8943 169.254 80.4678 168C79.0414 166.747 77.9646 164.275 78.1982 159.772C78.429 155.326 79.9283 149.586 82.7522 142.872C88.383 129.484 98.9183 113.072 113.098 96.9327C127.277 80.7934 142.197 68.2329 154.748 60.9255C161.043 57.2608 166.542 55.035 170.922 54.2337C175.357 53.4223 177.947 54.1719 179.373 55.4251Z" fill="#ECFF00" stroke="#06708A" stroke-width="8"/>
</svg>
