<svg width="400" height="400" viewBox="0 0 400 400" fill="none" xmlns="http://www.w3.org/2000/svg">
<mask id="path-1-inside-1" fill="white">
<path fill-rule="evenodd" clip-rule="evenodd" d="M277.46 302.656L278.29 306.111L277.6 306.276C275.565 320.027 245.757 337.409 206.876 346.743C167.994 356.076 133.544 354.119 125.488 342.791L124.799 342.956L123.969 339.501L117.809 313.837L194.554 295.414L271.3 276.992L277.46 302.656Z"/>
</mask>
<path fill-rule="evenodd" clip-rule="evenodd" d="M277.46 302.656L278.29 306.111L277.6 306.276C275.565 320.027 245.757 337.409 206.876 346.743C167.994 356.076 133.544 354.119 125.488 342.791L124.799 342.956L123.969 339.501L117.809 313.837L194.554 295.414L271.3 276.992L277.46 302.656Z" fill="#ECFF00"/>
<path d="M277.46 302.656L285.239 300.788L277.46 302.656ZM278.29 306.111L280.157 313.89L287.936 312.022L286.069 304.243L278.29 306.111ZM277.6 306.276L275.733 298.497L270.478 299.758L269.687 305.105L277.6 306.276ZM125.488 342.791L132.008 338.154L128.876 333.75L123.621 335.011L125.488 342.791ZM124.799 342.956L117.02 344.823L118.887 352.602L126.666 350.735L124.799 342.956ZM117.809 313.837L115.941 306.058L108.162 307.925L110.03 315.704L117.809 313.837ZM271.3 276.992L279.079 275.124L277.211 267.345L269.432 269.213L271.3 276.992ZM269.681 304.523L270.511 307.978L286.069 304.243L285.239 300.788L269.681 304.523ZM276.422 298.331L275.733 298.497L279.468 314.055L280.157 313.89L276.422 298.331ZM269.687 305.105C269.538 306.108 268.636 308.279 265.486 311.447C262.456 314.494 257.962 317.839 252.065 321.232C240.297 328.004 223.872 334.435 205.008 338.964L208.743 354.522C228.761 349.716 246.681 342.79 260.045 335.1C266.715 331.262 272.485 327.1 276.831 322.729C281.057 318.479 284.645 313.319 285.514 307.447L269.687 305.105ZM205.008 338.964C186.144 343.492 168.59 345.217 155.03 344.525C148.235 344.179 142.712 343.238 138.63 341.899C134.384 340.506 132.596 338.981 132.008 338.154L118.968 347.427C122.408 352.264 127.947 355.233 133.642 357.101C139.499 359.023 146.529 360.113 154.214 360.505C169.613 361.29 188.725 359.327 208.743 354.522L205.008 338.964ZM123.621 335.011L122.931 335.177L126.666 350.735L127.355 350.57L123.621 335.011ZM132.578 341.089L131.748 337.634L116.19 341.369L117.02 344.823L132.578 341.089ZM131.748 337.634L125.588 311.97L110.03 315.704L116.19 341.369L131.748 337.634ZM119.676 321.616L196.422 303.193L192.687 287.635L115.941 306.058L119.676 321.616ZM196.422 303.193L273.167 284.771L269.432 269.213L192.687 287.635L196.422 303.193ZM263.521 278.859L269.681 304.523L285.239 300.788L279.079 275.124L263.521 278.859Z" fill="black" mask="url(#path-1-inside-1)"/>
<path d="M267.173 276.938C267.617 278.785 267.071 281.426 264.285 284.97C261.533 288.47 257 292.297 250.822 296.155C238.504 303.849 220.434 311.187 199.544 316.202C178.654 321.217 159.223 322.88 144.754 321.617C137.498 320.983 131.722 319.632 127.681 317.762C123.589 315.868 121.905 313.763 121.461 311.916C121.018 310.07 121.563 307.429 124.35 303.885C127.101 300.384 131.635 296.558 137.813 292.699C150.131 285.006 168.2 277.667 189.09 272.653C209.98 267.638 229.412 265.974 243.88 267.238C251.136 267.872 256.913 269.223 260.954 271.093C265.046 272.986 266.73 275.092 267.173 276.938Z" fill="#ECFF00" stroke="black" stroke-width="8"/>
<mask id="path-4-inside-2" fill="white">
<path fill-rule="evenodd" clip-rule="evenodd" d="M330.606 218.719L329.849 222.191L329.156 222.04C321.336 233.533 286.935 236.203 247.868 227.676C208.801 219.15 178.64 202.389 176.32 188.683L175.627 188.532L176.385 185.061L182.013 159.275L259.123 176.104L336.234 192.933L330.606 218.719Z"/>
</mask>
<path fill-rule="evenodd" clip-rule="evenodd" d="M330.606 218.719L329.849 222.191L329.156 222.04C321.336 233.533 286.935 236.203 247.868 227.676C208.801 219.15 178.64 202.389 176.32 188.683L175.627 188.532L176.385 185.061L182.013 159.275L259.123 176.104L336.234 192.933L330.606 218.719Z" fill="#ECFF00"/>
<path d="M329.849 222.191L328.143 230.007L335.959 231.713L337.665 223.897L329.849 222.191ZM329.156 222.04L330.862 214.224L325.582 213.071L322.542 217.539L329.156 222.04ZM176.32 188.683L184.208 187.348L183.306 182.02L178.026 180.867L176.32 188.683ZM175.627 188.532L167.811 186.826L166.105 194.642L173.921 196.348L175.627 188.532ZM182.013 159.275L183.719 151.459L175.903 149.753L174.197 157.569L182.013 159.275ZM259.123 176.104L260.829 168.288L259.123 176.104ZM336.234 192.933L344.05 194.639L345.756 186.823L337.94 185.117L336.234 192.933ZM322.79 217.014L322.033 220.485L337.665 223.897L338.422 220.425L322.79 217.014ZM331.554 214.375L330.862 214.224L327.45 229.856L328.143 230.007L331.554 214.375ZM322.542 217.539C321.971 218.378 320.214 219.939 315.999 221.42C311.944 222.844 306.442 223.899 299.657 224.386C286.113 225.358 268.527 223.997 249.574 219.86L246.162 235.492C266.275 239.882 285.423 241.449 300.802 240.345C308.478 239.794 315.484 238.559 321.3 236.516C326.955 234.53 332.431 231.447 335.77 226.54L322.542 217.539ZM249.574 219.86C230.62 215.724 214.066 209.634 202.159 203.107C196.193 199.837 191.631 196.586 188.539 193.602C185.324 190.5 184.377 188.349 184.208 187.348L168.432 190.018C169.423 195.871 173.116 200.955 177.429 205.116C181.866 209.397 187.72 213.438 194.468 217.137C207.989 224.549 226.049 231.103 246.162 235.492L249.574 219.86ZM178.026 180.867L177.333 180.716L173.921 196.348L174.614 196.499L178.026 180.867ZM183.443 190.238L184.201 186.767L168.569 183.355L167.811 186.826L183.443 190.238ZM184.201 186.767L189.829 160.98L174.197 157.569L168.569 183.355L184.201 186.767ZM180.307 167.091L257.418 183.92L260.829 168.288L183.719 151.459L180.307 167.091ZM257.418 183.92L334.528 200.749L337.94 185.117L260.829 168.288L257.418 183.92ZM328.418 191.227L322.79 217.014L338.422 220.425L344.05 194.639L328.418 191.227Z" fill="black" mask="url(#path-4-inside-2)"/>
<path d="M332.542 191.089C332.138 192.944 330.497 195.084 326.445 197.062C322.444 199.015 316.697 200.485 309.455 201.269C295.016 202.832 275.554 201.571 254.565 196.99C233.576 192.409 215.358 185.447 202.883 178.01C196.627 174.28 192.015 170.549 189.191 167.106C186.332 163.62 185.732 160.991 186.137 159.136C186.542 157.281 188.183 155.14 192.234 153.163C196.236 151.21 201.983 149.739 209.224 148.955C223.663 147.392 243.125 148.653 264.115 153.234C285.104 157.815 303.322 164.777 315.796 172.215C322.053 175.944 326.665 179.676 329.489 183.118C332.348 186.604 332.947 189.234 332.542 191.089Z" fill="#ECFF00" stroke="black" stroke-width="8"/>
<mask id="path-7-inside-3" fill="white">
<path fill-rule="evenodd" clip-rule="evenodd" d="M202.604 70.5104L205.273 72.8554L204.805 73.388C211.068 85.7982 196.731 117.183 170.339 147.223C143.947 177.263 114.668 195.522 101.555 190.908L101.087 191.441L98.4181 189.096L78.5903 171.675L130.683 112.383L182.776 53.0902L202.604 70.5104Z"/>
</mask>
<path fill-rule="evenodd" clip-rule="evenodd" d="M202.604 70.5104L205.273 72.8554L204.805 73.388C211.068 85.7982 196.731 117.183 170.339 147.223C143.947 177.263 114.668 195.522 101.555 190.908L101.087 191.441L98.4181 189.096L78.5903 171.675L130.683 112.383L182.776 53.0902L202.604 70.5104Z" fill="#ECFF00"/>
<path d="M205.273 72.8554L211.283 78.1356L216.563 72.1256L210.553 66.8454L205.273 72.8554ZM204.805 73.388L198.795 68.1078L195.228 72.1678L197.663 76.9926L204.805 73.388ZM101.555 190.908L104.21 183.361L99.1122 181.568L95.5452 185.628L101.555 190.908ZM101.087 191.441L95.807 197.451L101.817 202.731L107.097 196.721L101.087 191.441ZM98.4181 189.096L93.1379 195.106L98.4181 189.096ZM78.5903 171.675L72.5804 166.395L67.3002 172.405L73.3101 177.685L78.5903 171.675ZM130.683 112.383L136.693 117.663L130.683 112.383ZM182.776 53.0902L188.056 47.0803L182.046 41.8001L176.766 47.8101L182.776 53.0902ZM197.324 76.5203L199.993 78.8653L210.553 66.8454L207.884 64.5004L197.324 76.5203ZM199.263 67.5752L198.795 68.1078L210.815 78.6682L211.283 78.1356L199.263 67.5752ZM197.663 76.9926C198.12 77.8983 198.634 80.1916 197.886 84.5966C197.167 88.8328 195.423 94.1566 192.56 100.328C186.847 112.646 177.133 127.369 164.329 141.943L176.349 152.503C189.936 137.038 200.587 121.048 207.075 107.061C210.313 100.08 212.628 93.353 213.661 87.2753C214.664 81.3665 214.622 75.0828 211.947 69.7835L197.663 76.9926ZM164.329 141.943C151.524 156.517 138.175 168.046 126.695 175.297C120.943 178.93 115.888 181.345 111.78 182.604C107.508 183.913 105.167 183.698 104.21 183.361L98.9 198.455C104.5 200.425 110.736 199.658 116.467 197.902C122.361 196.096 128.734 192.934 135.24 188.824C148.276 180.59 162.761 167.969 176.349 152.503L164.329 141.943ZM95.5452 185.628L95.0772 186.16L107.097 196.721L107.565 196.188L95.5452 185.628ZM106.367 185.431L103.698 183.086L93.1379 195.106L95.807 197.451L106.367 185.431ZM103.698 183.086L83.8705 165.665L73.3101 177.685L93.1379 195.106L103.698 183.086ZM84.6003 176.956L136.693 117.663L124.673 107.103L72.5804 166.395L84.6003 176.956ZM136.693 117.663L188.786 58.3704L176.766 47.8101L124.673 107.103L136.693 117.663ZM177.496 59.1002L197.324 76.5203L207.884 64.5004L188.056 47.0803L177.496 59.1002Z" fill="black" mask="url(#path-7-inside-3)"/>
<path d="M179.373 55.4251C180.8 56.6784 181.877 59.1508 181.643 63.6531C181.412 68.0997 179.913 73.8397 177.089 80.5537C171.458 93.9412 160.923 110.354 146.743 126.493C132.564 142.632 117.644 155.193 105.093 162.5C98.7986 166.165 93.2994 168.391 88.9195 169.192C84.4847 170.003 81.8943 169.254 80.4678 168C79.0414 166.747 77.9646 164.275 78.1982 159.772C78.429 155.326 79.9283 149.586 82.7522 142.872C88.383 129.484 98.9183 113.072 113.098 96.9327C127.277 80.7934 142.197 68.2329 154.748 60.9255C161.043 57.2608 166.542 55.035 170.922 54.2337C175.357 53.4223 177.947 54.1719 179.373 55.4251Z" fill="#ECFF00" stroke="black" stroke-width="8"/>
</svg>
