<svg width="400" height="400" viewBox="0 0 400 400" fill="none" xmlns="http://www.w3.org/2000/svg">
<path d="M105.031 242.46C131.431 214.46 179.697 230.794 200.531 242.46V280.5C179.864 286.667 140 287 105.031 318.5C83.9991 337.445 14.5307 300.46 37.0307 304.46C59.5307 308.46 72.0307 277.46 105.031 242.46Z" fill="#ECFF00"/>
<path d="M295.5 242.46C269.1 214.46 220.833 230.794 200 242.46V280.5C220.667 286.667 260.531 287 295.5 318.5C316.532 337.445 386 300.46 363.5 304.46C341 308.46 328.5 277.46 295.5 242.46Z" fill="#ECFF00"/>
<path fill-rule="evenodd" clip-rule="evenodd" d="M298.41 239.716C283.989 224.421 263.806 221.498 245.211 223.611C227.824 225.586 211.161 232.011 200.265 237.763C189.369 232.012 172.707 225.586 155.32 223.611C136.725 221.498 116.542 224.421 102.121 239.716C93.7568 248.587 86.707 257.188 80.515 264.989C78.8441 267.094 77.2439 269.13 75.7014 271.092C71.4849 276.457 67.6981 281.274 64.0689 285.467C54.0081 297.09 46.6184 302.102 37.7308 300.522C36.2189 300.253 34.7997 300.097 33.5982 300.175C33.0079 300.213 32.2117 300.321 31.4116 300.67C30.5759 301.035 29.4107 301.824 28.866 303.338C28.3409 304.798 28.7006 306.09 29.0183 306.818C29.3391 307.552 29.791 308.136 30.1543 308.546C30.8926 309.379 31.8758 310.172 32.8915 310.893C36.9711 313.787 44.5654 317.587 53.3145 320.834C62.1062 324.098 72.435 326.942 82.0452 327.723C91.4733 328.489 101.188 327.345 107.708 321.472C133.739 298.024 162.014 292.552 183.705 288.354C189.813 287.172 195.399 286.091 200.266 284.739C205.132 286.091 210.718 287.172 216.826 288.354C238.517 292.552 266.792 298.024 292.823 321.472C299.343 327.345 309.058 328.489 318.486 327.723C328.096 326.942 338.425 324.098 347.216 320.834C355.965 317.587 363.56 313.787 367.639 310.893C368.655 310.172 369.638 309.379 370.376 308.546C370.74 308.136 371.192 307.552 371.512 306.817C371.83 306.09 372.19 304.798 371.665 303.338C371.12 301.824 369.955 301.035 369.119 300.67C368.319 300.321 367.523 300.213 366.933 300.175C365.731 300.097 364.312 300.253 362.8 300.522C353.912 302.102 346.523 297.09 336.462 285.467C332.833 281.274 329.046 276.457 324.829 271.092L324.82 271.081C323.281 269.122 321.683 267.09 320.016 264.989C313.824 257.188 306.774 248.587 298.41 239.716ZM196 244.56V277.579C192.372 278.471 188.162 279.278 183.504 280.172C161.772 284.342 130.263 290.388 102.354 315.528C98.3579 319.127 91.5023 320.465 82.6929 319.749C74.0658 319.048 64.4902 316.449 56.0983 313.334C51.8409 311.754 47.9825 310.077 44.7838 308.504C54.3568 306.961 62.2512 299.791 70.1176 290.703C73.8808 286.355 77.8411 281.317 82.1021 275.895C83.6218 273.962 85.1801 271.979 86.781 269.962C92.9172 262.232 99.8051 253.833 107.941 245.204C119.92 232.499 137.07 229.589 154.417 231.56C170.339 233.369 185.788 239.245 196 244.56ZM204.531 277.579C208.159 278.471 212.369 279.278 217.027 280.172C238.759 284.342 270.268 290.388 298.177 315.528C302.173 319.127 309.029 320.465 317.838 319.749C326.465 319.048 336.041 316.449 344.433 313.334C348.69 311.754 352.548 310.077 355.747 308.504C346.174 306.961 338.28 299.791 330.413 290.703C326.65 286.355 322.69 281.317 318.429 275.896L318.428 275.895C316.909 273.962 315.351 271.979 313.75 269.962C307.614 262.232 300.726 253.833 292.59 245.204C280.611 232.499 263.461 229.589 246.114 231.56C230.191 233.369 214.743 239.245 204.531 244.56V277.579Z" fill="#06708A"/>
<path d="M268 176C296.167 176 319 153.167 319 125C319 96.8335 296.167 74 268 74C239.833 74 217 96.8335 217 125C217 153.167 239.833 176 268 176Z" fill="#ECFF00"/>
<path fill-rule="evenodd" clip-rule="evenodd" d="M268 70C237.624 70 213 94.6243 213 125C213 155.376 237.624 180 268 180C294.281 180 316.257 161.567 321.704 136.924L340.434 145.721C346.12 148.392 351.203 152.195 355.37 156.897C362.863 165.35 367 176.255 367 187.551V283H375V187.551C375 174.299 370.147 161.507 361.357 151.59C356.468 146.075 350.506 141.614 343.835 138.48L322.882 128.639C322.96 127.436 323 126.223 323 125C323 94.6243 298.376 70 268 70ZM221 125C221 99.0426 242.043 78 268 78C293.957 78 315 99.0426 315 125C315 150.957 293.957 172 268 172C242.043 172 221 150.957 221 125Z" fill="#06708A"/>
</svg>
