<svg width="400" height="400" viewBox="0 0 400 400" fill="none" xmlns="http://www.w3.org/2000/svg">
<mask id="path-1-inside-1" fill="white">
<path fill-rule="evenodd" clip-rule="evenodd" d="M166.678 92.0348V91.9937H166.731L261.865 18L357 91.9937L357 126.8L261.839 200.814L166.678 126.8V92.0348Z"/>
</mask>
<path fill-rule="evenodd" clip-rule="evenodd" d="M166.678 92.0348V91.9937H166.731L261.865 18L357 91.9937L357 126.8L261.839 200.814L166.678 126.8V92.0348Z" fill="#ECFF00"/>
<path d="M166.678 91.9937V83.9937H158.678V91.9937H166.678ZM166.731 91.9937V99.9937H169.475L171.642 98.3085L166.731 91.9937ZM261.865 18L266.777 11.6852L261.865 7.8651L256.954 11.6852L261.865 18ZM357 91.9937L365 91.9937L365 88.081L361.912 85.6789L357 91.9937ZM357 126.8L361.912 133.115L365 130.712L365 126.8L357 126.8ZM261.839 200.814L256.927 207.129L261.839 210.949L266.75 207.129L261.839 200.814ZM166.678 126.8H158.678V130.712L161.766 133.115L166.678 126.8ZM174.678 92.0348V91.9937H158.678V92.0348H174.678ZM166.678 99.9937H166.731V83.9937H166.678V99.9937ZM171.642 98.3085L266.777 24.3148L256.954 11.6852L161.819 85.6789L171.642 98.3085ZM256.954 24.3148L352.089 98.3085L361.912 85.6789L266.777 11.6852L256.954 24.3148ZM349 91.9937L349 126.8L365 126.8L365 91.9937L349 91.9937ZM352.089 120.485L256.927 194.499L266.75 207.129L361.912 133.115L352.089 120.485ZM266.75 194.499L171.589 120.485L161.766 133.115L256.927 207.129L266.75 194.499ZM174.678 126.8V92.0348H158.678V126.8H174.678Z" fill="black" mask="url(#path-1-inside-1)"/>
<rect x="6.31482" width="112.59" height="112.523" transform="matrix(0.789352 -0.613941 0.789352 0.613941 168.008 95.9118)" fill="#ECFF00" stroke="black" stroke-width="8"/>
<mask id="path-4-inside-2" fill="white">
<path fill-rule="evenodd" clip-rule="evenodd" d="M43 193.496V193.455H43.0529L138.188 119.461L233.322 193.455L233.322 228.261L138.161 302.275L43 228.261V193.496Z"/>
</mask>
<path fill-rule="evenodd" clip-rule="evenodd" d="M43 193.496V193.455H43.0529L138.188 119.461L233.322 193.455L233.322 228.261L138.161 302.275L43 228.261V193.496Z" fill="#ECFF00"/>
<path d="M43 193.455V185.455H35V193.455H43ZM43.0529 193.455V201.455H45.7978L47.9644 199.769L43.0529 193.455ZM138.188 119.461L143.099 113.146L138.188 109.326L133.276 113.146L138.188 119.461ZM233.322 193.455L241.322 193.455L241.322 189.542L238.234 187.14L233.322 193.455ZM233.322 228.261L238.234 234.575L241.322 232.173L241.322 228.261L233.322 228.261ZM138.161 302.275L133.25 308.59L138.161 312.41L143.073 308.59L138.161 302.275ZM43 228.261H35V232.173L38.0885 234.575L43 228.261ZM51 193.496V193.455H35V193.496H51ZM43 201.455H43.0529V185.455H43V201.455ZM47.9644 199.769L143.099 125.776L133.276 113.146L38.1414 187.14L47.9644 199.769ZM133.276 125.776L228.411 199.769L238.234 187.14L143.099 113.146L133.276 125.776ZM225.322 193.455L225.322 228.261L241.322 228.261L241.322 193.455L225.322 193.455ZM228.411 221.946L133.25 295.96L143.073 308.59L238.234 234.575L228.411 221.946ZM143.073 295.96L47.9115 221.946L38.0885 234.575L133.25 308.59L143.073 295.96ZM51 228.261V193.496H35V228.261H51Z" fill="black" mask="url(#path-4-inside-2)"/>
<rect x="6.31482" width="112.59" height="112.523" transform="matrix(0.789352 -0.613941 0.789352 0.613941 44.3302 197.373)" fill="#ECFF00" stroke="black" stroke-width="8"/>
<mask id="path-7-inside-3" fill="white">
<path fill-rule="evenodd" clip-rule="evenodd" d="M43 123.496V123.455H43.0529L138.188 49.4609L233.322 123.455L233.322 158.261L138.161 232.275L43 158.261V123.496Z"/>
</mask>
<path fill-rule="evenodd" clip-rule="evenodd" d="M43 123.496V123.455H43.0529L138.188 49.4609L233.322 123.455L233.322 158.261L138.161 232.275L43 158.261V123.496Z" fill="#ECFF00"/>
<path d="M43 123.455V115.455H35V123.455H43ZM43.0529 123.455V131.455H45.7978L47.9644 129.769L43.0529 123.455ZM138.188 49.4609L143.099 43.1461L138.188 39.326L133.276 43.1461L138.188 49.4609ZM233.322 123.455L241.322 123.455L241.322 119.542L238.234 117.14L233.322 123.455ZM233.322 158.261L238.234 164.575L241.322 162.173L241.322 158.261L233.322 158.261ZM138.161 232.275L133.25 238.59L138.161 242.41L143.073 238.59L138.161 232.275ZM43 158.261H35V162.173L38.0885 164.575L43 158.261ZM51 123.496V123.455H35V123.496H51ZM43 131.455H43.0529V115.455H43V131.455ZM47.9644 129.769L143.099 55.7758L133.276 43.1461L38.1414 117.14L47.9644 129.769ZM133.276 55.7758L228.411 129.769L238.234 117.14L143.099 43.1461L133.276 55.7758ZM225.322 123.455L225.322 158.261L241.322 158.261L241.322 123.455L225.322 123.455ZM228.411 151.946L133.25 225.96L143.073 238.59L238.234 164.575L228.411 151.946ZM143.073 225.96L47.9115 151.946L38.0885 164.575L133.25 238.59L143.073 225.96ZM51 158.261V123.496H35V158.261H51Z" fill="black" mask="url(#path-7-inside-3)"/>
<rect x="6.31482" width="112.59" height="112.523" transform="matrix(0.789352 -0.613941 0.789352 0.613941 44.3302 127.373)" fill="#ECFF00" stroke="black" stroke-width="8"/>
<mask id="path-10-inside-4" fill="white">
<path fill-rule="evenodd" clip-rule="evenodd" d="M337 274.113L337 308.919L241.839 382.934L146.678 308.919V274.113H146.731L241.865 200.12L337 274.113Z"/>
</mask>
<path fill-rule="evenodd" clip-rule="evenodd" d="M337 274.113L337 308.919L241.839 382.934L146.678 308.919V274.113H146.731L241.865 200.12L337 274.113Z" fill="#ECFF00"/>
<path d="M337 274.113L345 274.113L345 270.201L341.912 267.799L337 274.113ZM337 308.919L341.912 315.234L345 312.832L345 308.919L337 308.919ZM241.839 382.934L236.927 389.249L241.839 393.069L246.75 389.249L241.839 382.934ZM146.678 308.919H138.678V312.832L141.766 315.234L146.678 308.919ZM146.678 274.113V266.113H138.678V274.113H146.678ZM146.731 274.113V282.113H149.475L151.642 280.428L146.731 274.113ZM241.865 200.12L246.777 193.805L241.865 189.985L236.954 193.805L241.865 200.12ZM329 274.113L329 308.919L345 308.919L345 274.113L329 274.113ZM332.089 302.605L236.927 376.619L246.75 389.249L341.912 315.234L332.089 302.605ZM246.75 376.619L151.589 302.605L141.766 315.234L236.927 389.249L246.75 376.619ZM154.678 308.919V274.113H138.678V308.919H154.678ZM146.678 282.113H146.731V266.113H146.678V282.113ZM151.642 280.428L246.777 206.434L236.954 193.805L141.819 267.799L151.642 280.428ZM236.954 206.434L332.089 280.428L341.912 267.799L246.777 193.805L236.954 206.434Z" fill="black" mask="url(#path-10-inside-4)"/>
<rect x="6.31482" width="112.59" height="112.523" transform="matrix(0.789352 -0.613941 0.789352 0.613941 148.008 278.031)" fill="#ECFF00" stroke="black" stroke-width="8"/>
</svg>
