<?xml version="1.0" encoding="UTF-8"?>
<svg width="402px" height="316px" viewBox="0 0 402 316" version="1.1" xmlns="http://www.w3.org/2000/svg" xmlns:xlink="http://www.w3.org/1999/xlink">
    <!-- Generator: Sketch 63.1 (92452) - https://sketch.com -->
    <title>Headline-dark</title>
    <desc>Created with Sketch.</desc>
    <g id="Headline-dark" stroke="none" stroke-width="1" fill="none" fill-rule="evenodd">
        <g id="Icon/TextMedia" transform="translate(92.553942, 60.813800)">
            <polygon id="Rectangle" fill-opacity="0.25" fill="#ECFF00" points="0.88921154 0.952619474 216.002904 0.952619474 216.002904 216.573575 0.88921154 216.573575"></polygon>
            <g id="mockup/text/icon" transform="translate(41.223029, 89.896264)" fill="#06566A" fill-opacity="0.3">
                <path d="M87.1952895,87.0776937 C87.1952895,91.0853339 83.9464552,94.3341682 79.938815,94.3341682 L7.25647447,94.3341682 C3.24883428,94.3341682 4.71475879e-12,91.0853339 4.714268e-12,87.0776937 C4.71377721e-12,83.0700535 3.24883428,79.8212192 7.25647447,79.8212192 L79.938815,79.8212192 C83.9464552,79.8212192 87.1952895,83.0700535 87.1952895,87.0776937 Z M136.462749,60.4706206 C136.462749,64.4782608 133.213914,67.7270951 129.206274,67.7270951 L7.25647447,67.7270951 C3.24883428,67.7270951 -9.05634246e-13,64.4782608 -9.0612504e-13,60.4706206 C-9.06615834e-13,56.4629804 3.24883428,53.2141461 7.25647447,53.2141461 L129.206274,53.2141461 C133.213914,53.2141461 136.462749,56.4629804 136.462749,60.4706206 Z M136.462749,33.8635475 C136.462749,37.8711877 133.213914,41.120022 129.206274,41.120022 L7.25647447,41.120022 C3.24883428,41.120022 -9.05634246e-13,37.8711877 -9.0612504e-13,33.8635475 C-9.06615834e-13,29.8559074 3.24883428,26.6070731 7.25647447,26.6070731 L129.206274,26.6070731 C133.213914,26.6070731 136.462749,29.8559074 136.462749,33.8635475 Z M136.462749,7.25647447 C136.462749,11.2641147 133.213914,14.5129489 129.206274,14.5129489 L7.25647447,14.5129489 C3.24883428,14.5129489 -9.05634246e-13,11.2641147 -9.0612504e-13,7.25647447 C-9.06615834e-13,3.24883428 3.24883428,7.36191559e-16 7.25647447,0 L129.206274,0 C133.213914,2.76583745e-14 136.462749,3.24883428 136.462749,7.25647447 Z" id="Shape"></path>
            </g>
            <rect id="Rectangle" fill="#ECFF00" x="21.0561202" y="34.6433938" width="174.779875" height="36.8825319"></rect>
        </g>
    </g>
</svg>