<?xml version="1.0" encoding="iso-8859-1"?>
<!-- Generator: Adobe Illustrator 16.0.0, SVG Export Plug-In . SVG Version: 6.00 Build 0)  -->
<!DOCTYPE svg PUBLIC "-//W3C//DTD SVG 1.1//EN" "http://www.w3.org/Graphics/SVG/1.1/DTD/svg11.dtd">
<svg version="1.1" id="Capa_1" xmlns="http://www.w3.org/2000/svg" xmlns:xlink="http://www.w3.org/1999/xlink" x="0px" y="0px"
	 width="408.741px" height="408.74px" viewBox="0 0 408.741 408.74" style="enable-background:new 0 0 408.741 408.74;"
	 xml:space="preserve">
<g>
	<g>
		<path fill="#06566a" d="M279.001,32.023c-46.153,0-83.7,37.547-83.7,83.7s37.547,83.7,83.7,83.7c25.286,0,48.942-11.254,64.926-30.876
			c5.906-7.248,10.41-15.322,13.59-24c12.814,0.902,22.196,4.941,27.918,12.037c10.462,12.965,6.307,32.79,6.265,32.962
			c-0.127,0.577-0.2,1.179-0.2,1.771v172.8c0,4.473,3.628,8.101,8.1,8.101c4.478,0,8.101-3.628,8.101-8.101V192.117
			c0.949-5.086,4.276-28.289-9.562-45.581c-8.163-10.19-20.439-16.118-36.481-17.818c0.665-4.29,1.028-8.625,1.028-12.994
			C362.701,69.57,325.16,32.023,279.001,32.023z M343.986,134.057c-2.505,8.889-6.75,17.055-12.614,24.258
			c-12.894,15.831-31.979,24.904-52.365,24.904c-37.22,0-67.5-30.277-67.5-67.5s30.28-67.5,67.5-67.5c37.23,0,67.5,30.277,67.5,67.5
			C346.501,121.949,345.663,128.122,343.986,134.057z"/>
		<path fill="#06566a" d="M171.903,348.198c5.205-2.215,10.046-5.306,14.344-9.134c4.298,3.828,9.149,6.919,14.349,9.134
			c25.593,18.932,50.499,28.519,74.045,28.519c65.111,0,95.929-71.213,97.21-74.239c1.256-2.99,0.623-6.434-1.635-8.775
			c-2.246-2.331-5.663-3.096-8.695-1.951c-16.854,6.396-32.137,9.619-45.437,9.619c-27.416,0-40.368-13.79-45.778-22.401
			c-0.991-2.337-2.162-4.662-3.538-6.961c-9.72-16.132-26.721-25.771-45.479-25.771c-13.052,0-25.423,4.735-35.042,13.221
			c-9.619-8.485-21.979-13.221-35.042-13.221c-18.758,0-35.759,9.64-45.483,25.771c-1.371,2.299-2.558,4.624-3.533,6.961
			c-5.411,8.627-18.367,22.401-45.784,22.401c-13.294,0-28.582-3.238-45.436-9.619c-3.022-1.139-6.45-0.38-8.701,1.951
			c-2.247,2.342-2.89,5.785-1.63,8.775c1.282,3.037,32.115,74.239,97.211,74.239C121.41,376.717,146.321,367.13,171.903,348.198z"/>
	</g>
</g>
</svg>