<?xml version="1.0" encoding="UTF-8"?>
<svg width="401px" height="316px" viewBox="0 0 401 316" version="1.1" xmlns="http://www.w3.org/2000/svg" xmlns:xlink="http://www.w3.org/1999/xlink">
    <!-- Generator: Sketch 63.1 (92452) - https://sketch.com -->
    <title>Quote</title>
    <desc>Created with Sketch.</desc>
    <g id="Quote" stroke="none" stroke-width="1" fill="none" fill-rule="evenodd">
        <g id="icon/Quote" transform="translate(66.553942, 34.813800)">
            <g id="Icon-Background" transform="translate(26.889212, 26.952619)" fill="#FFFFFF" fill-opacity="0.5">
                <polygon id="Rectangle" points="1.19412087e-13 0 215.113692 0 215.113692 215.620956 0 215.620956"></polygon>
            </g>
            <rect id="Rectangle" fill="#E6EEF0" x="20.1669087" y="51.209977" width="227.213838" height="167.106241"></rect>
            <path d="M206.73517,159.141992 C206.73517,162.814017 203.758405,165.790781 200.08638,165.790781 L141.094847,165.790781 C137.422822,165.790781 134.446058,162.814017 134.446058,159.141992 C134.446058,155.469967 137.422822,152.493202 141.094847,152.493202 L200.08638,152.493202 C203.758405,152.493202 206.73517,155.469967 206.73517,159.141992 Z M228.558298,134.763097 C228.558298,138.435122 225.581534,141.411887 221.909509,141.411887 L141.094847,141.411887 C137.422822,141.411887 134.446058,138.435122 134.446058,134.763097 C134.446058,131.091072 137.422822,128.114308 141.094847,128.114308 L221.909509,128.114308 C225.581534,128.114308 228.558298,131.091072 228.558298,134.763097 Z M228.558298,110.384203 C228.558298,114.056228 225.581534,117.032992 221.909509,117.032992 L141.094847,117.032992 C137.422822,117.032992 134.446058,114.056228 134.446058,110.384203 C134.446058,106.712178 137.422822,103.735413 141.094847,103.735413 L221.909509,103.735413 C225.581534,103.735413 228.558298,106.712178 228.558298,110.384203 Z" id="Shape" fill-opacity="0.3" fill="#06566A"></path>
            <path d="M101.884903,108.231613 L86.7597216,108.231613 C83.6283364,108.231613 81.0877785,110.778161 81.0877785,113.916931 L81.0877785,129.077779 C81.0877785,132.216549 83.6283364,134.763097 86.7597216,134.763097 L96.21296,134.763097 L96.21296,142.343522 C96.21296,146.524599 92.8216108,149.923946 88.6503693,149.923946 L87.7050455,149.923946 C86.1334446,149.923946 84.8690739,151.191298 84.8690739,152.766605 L84.8690739,158.451923 C84.8690739,160.02723 86.1334446,161.294582 87.7050455,161.294582 L88.6503693,161.294582 C99.0961978,161.294582 107.556846,152.813983 107.556846,142.343522 L107.556846,113.916931 C107.556846,110.778161 105.016288,108.231613 101.884903,108.231613 Z M67.8532447,108.231613 L52.7280633,108.231613 C49.596678,108.231613 47.0561202,110.778161 47.0561202,113.916931 L47.0561202,129.077779 C47.0561202,132.216549 49.596678,134.763097 52.7280633,134.763097 L62.1813017,134.763097 L62.1813017,142.343522 C62.1813017,146.524599 58.7899524,149.923946 54.6187109,149.923946 L53.6733871,149.923946 C52.1017862,149.923946 50.8374156,151.191298 50.8374156,152.766605 L50.8374156,158.451923 C50.8374156,160.02723 52.1017862,161.294582 53.6733871,161.294582 L54.6187109,161.294582 C65.0645394,161.294582 73.5251878,152.813983 73.5251878,142.343522 L73.5251878,113.916931 C73.5251878,110.778161 70.98463,108.231613 67.8532447,108.231613 Z" id="Shape" fill="#06566A"></path>
        </g>
    </g>
</svg>