<?xml version="1.0" encoding="UTF-8"?>
<svg width="401px" height="316px" viewBox="0 0 401 316" version="1.1" xmlns="http://www.w3.org/2000/svg" xmlns:xlink="http://www.w3.org/1999/xlink">
    <!-- Generator: Sketch 63.1 (92452) - https://sketch.com -->
    <title>Quote-dark</title>
    <desc>Created with Sketch.</desc>
    <g id="Quote-dark" stroke="none" stroke-width="1" fill="none" fill-rule="evenodd">
        <g id="Icon/Button" transform="translate(81.553942, 60.813800)">
            <path d="M227.446058,0.186199847 L227.446058,217.1862 L10.4460577,217.1862 L10.4460577,0.186199847 L227.446058,0.186199847 Z M222.021058,5.61119985 L15.8710577,5.61119985 L15.8710577,211.7612 L222.021058,211.7612 L222.021058,5.61119985 Z" id="Rectangle" fill-opacity="0.25" fill="#ECFF00"></path>
            <rect id="Rectangle" fill="#ECFF00" x="0.339138698" y="25.209977" width="237.213838" height="167.106241"></rect>
            <path d="M191.73517,133.141992 C191.73517,136.814017 188.758405,139.790781 185.08638,139.790781 L126.094847,139.790781 C122.422822,139.790781 119.446058,136.814017 119.446058,133.141992 C119.446058,129.469967 122.422822,126.493202 126.094847,126.493202 L185.08638,126.493202 C188.758405,126.493202 191.73517,129.469967 191.73517,133.141992 Z M213.558298,108.763097 C213.558298,112.435122 210.581534,115.411887 206.909509,115.411887 L126.094847,115.411887 C122.422822,115.411887 119.446058,112.435122 119.446058,108.763097 C119.446058,105.091072 122.422822,102.114308 126.094847,102.114308 L206.909509,102.114308 C210.581534,102.114308 213.558298,105.091072 213.558298,108.763097 Z M213.558298,84.3842028 C213.558298,88.0562278 210.581534,91.0329922 206.909509,91.0329922 L126.094847,91.0329922 C122.422822,91.0329922 119.446058,88.0562278 119.446058,84.3842028 C119.446058,80.7121778 122.422822,77.7354134 126.094847,77.7354134 L206.909509,77.7354134 C210.581534,77.7354134 213.558298,80.7121778 213.558298,84.3842028 Z" id="Shape" fill-opacity="0.3" fill="#06566A"></path>
            <path d="M86.8849031,82.2316126 L71.7597216,82.2316126 C68.6283364,82.2316126 66.0877785,84.7781613 66.0877785,87.9169307 L66.0877785,103.077779 C66.0877785,106.216549 68.6283364,108.763097 71.7597216,108.763097 L81.21296,108.763097 L81.21296,116.343522 C81.21296,120.524599 77.8216108,123.923946 73.6503693,123.923946 L72.7050455,123.923946 C71.1334446,123.923946 69.8690739,125.191298 69.8690739,126.766605 L69.8690739,132.451923 C69.8690739,134.02723 71.1334446,135.294582 72.7050455,135.294582 L73.6503693,135.294582 C84.0961978,135.294582 92.5568462,126.813983 92.5568462,116.343522 L92.5568462,87.9169307 C92.5568462,84.7781613 90.0162883,82.2316126 86.8849031,82.2316126 Z M52.8532447,82.2316126 L37.7280633,82.2316126 C34.596678,82.2316126 32.0561202,84.7781613 32.0561202,87.9169307 L32.0561202,103.077779 C32.0561202,106.216549 34.596678,108.763097 37.7280633,108.763097 L47.1813017,108.763097 L47.1813017,116.343522 C47.1813017,120.524599 43.7899524,123.923946 39.6187109,123.923946 L38.6733871,123.923946 C37.1017862,123.923946 35.8374156,125.191298 35.8374156,126.766605 L35.8374156,132.451923 C35.8374156,134.02723 37.1017862,135.294582 38.6733871,135.294582 L39.6187109,135.294582 C50.0645394,135.294582 58.5251878,126.813983 58.5251878,116.343522 L58.5251878,87.9169307 C58.5251878,84.7781613 55.98463,82.2316126 52.8532447,82.2316126 Z" id="Shape" fill="#06566A"></path>
        </g>
    </g>
</svg>