<?xml version="1.0" encoding="UTF-8"?>
<svg width="401px" height="316px" viewBox="0 0 401 316" version="1.1" xmlns="http://www.w3.org/2000/svg" xmlns:xlink="http://www.w3.org/1999/xlink">
    <!-- Generator: Sketch 63.1 (92452) - https://sketch.com -->
    <title>Slider</title>
    <desc>Created with Sketch.</desc>
    <g id="Slider" stroke="none" stroke-width="1" fill="none" fill-rule="evenodd">
        <g id="icon/Slider" transform="translate(65.328943, 34.813800)">
            <path d="M242.384193,26.9526195 L242.384193,242.573575 L26.931577,242.573575 L26.931577,26.9526195 L242.384193,26.9526195 Z M236.997878,32.3431434 L32.3178924,32.3431434 L32.3178924,237.183051 L236.997878,237.183051 L236.997878,32.3431434 Z" id="Rectangle" fill="#E6EEF0" fill-rule="nonzero"></path>
            <rect id="Rectangle" fill="#E6EEF0" fill-rule="evenodd" x="20.1986828" y="51.209977" width="227.571826" height="167.106241"></rect>
            <g id="solid/chevron-down" transform="translate(220.838932, 134.763097) rotate(-90.000000) translate(-220.838932, -134.763097) translate(172.362093, 86.248382)" fill="#06566A" fill-rule="evenodd">
                <path d="M71.135317,41.2981512 L49.789349,62.6607974 C48.840011,63.6068343 47.3089508,63.6068343 46.3596127,62.6607974 L24.9449692,41.229422 C24.0037106,40.287428 24.0037106,38.7470858 24.9449692,37.8010488 L28.3787453,34.3686327 C29.3200039,33.4225958 30.8591436,33.4225958 31.8044419,34.3686327 L48.072461,50.6493625 L64.2798841,34.4373619 C65.2211427,33.491325 66.7602823,33.491325 67.7015409,34.4373619 L71.135317,37.869778 C72.0765756,38.8158149 72.0765756,40.3521142 71.135317,41.2981512" id="Fill-1"></path>
            </g>
            <g id="solid/chevron-down" transform="translate(48.476839, 134.763097) scale(-1, 1) rotate(-90.000000) translate(-48.476839, -134.763097) translate(-0.000000, 86.248382)" fill="#06566A" fill-rule="evenodd">
                <path d="M71.135317,41.2981512 L49.789349,62.6607974 C48.840011,63.6068343 47.3089508,63.6068343 46.3596127,62.6607974 L24.9449692,41.229422 C24.0037106,40.287428 24.0037106,38.7470858 24.9449692,37.8010488 L28.3787453,34.3686327 C29.3200039,33.4225958 30.8591436,33.4225958 31.8044419,34.3686327 L48.072461,50.6493625 L64.2798841,34.4373619 C65.2211427,33.491325 66.7602823,33.491325 67.7015409,34.4373619 L71.135317,37.869778 C72.0765756,38.8158149 72.0765756,40.3521142 71.135317,41.2981512" id="Fill-1"></path>
            </g>
            <path d="M160.652712,159.838532 C160.652712,163.615472 157.590897,166.677287 153.813957,166.677287 L93.0198013,166.677287 C89.2428613,166.677287 86.1810465,163.615472 86.1810465,159.838532 C86.1810465,156.061592 89.2428613,152.999777 93.0198013,152.999777 L153.813957,152.999777 C157.590897,152.999777 160.652712,156.061592 160.652712,159.838532 Z M183.134724,134.763097 C183.134724,138.540037 180.072909,141.601852 176.295969,141.601852 L93.0198013,141.601852 C89.2428613,141.601852 86.1810465,138.540037 86.1810465,134.763097 C86.1810465,130.986157 89.2428613,127.924343 93.0198013,127.924343 L176.295969,127.924343 C180.072909,127.924343 183.134724,130.986157 183.134724,134.763097 Z M183.134724,109.687663 C183.134724,113.464603 180.072909,116.526418 176.295969,116.526418 L93.0198013,116.526418 C89.2428613,116.526418 86.1810465,113.464603 86.1810465,109.687663 C86.1810465,105.910723 89.2428613,102.848908 93.0198013,102.848908 L176.295969,102.848908 C180.072909,102.848908 183.134724,105.910723 183.134724,109.687663 Z" id="Shape-Copy" fill-opacity="0.3" fill="#06566A" fill-rule="evenodd"></path>
        </g>
    </g>
</svg>