<?xml version="1.0" encoding="UTF-8"?>
<svg width="401px" height="316px" viewBox="0 0 401 316" version="1.1" xmlns="http://www.w3.org/2000/svg" xmlns:xlink="http://www.w3.org/1999/xlink">
    <!-- Generator: Sketch 63.1 (92452) - https://sketch.com -->
    <title>Slider-dark</title>
    <desc>Created with Sketch.</desc>
    <g id="Slider-dark" stroke="none" stroke-width="1" fill="none" fill-rule="evenodd">
        <path d="M309,61 L309,278 L92,278 L92,61 L309,61 Z M303.575,66.425 L97.425,66.425 L97.425,272.575 L303.575,272.575 L303.575,66.425 Z" id="Rectangle" fill="#ECFF00" fill-rule="nonzero"></path>
        <g id="Icon/Storytelling" transform="translate(64.328943, 85.813800)">
            <rect id="Rectangle" fill="#ECFF00" x="17.3851444" y="0.209977" width="237.571826" height="167.106241"></rect>
            <g id="solid/chevron-down" transform="translate(221.838932, 83.763097) rotate(-90.000000) translate(-221.838932, -83.763097) translate(173.362093, 35.248382)" fill="#06566A">
                <path d="M71.135317,41.2981512 L49.789349,62.6607974 C48.840011,63.6068343 47.3089508,63.6068343 46.3596127,62.6607974 L24.9449692,41.229422 C24.0037106,40.287428 24.0037106,38.7470858 24.9449692,37.8010488 L28.3787453,34.3686327 C29.3200039,33.4225958 30.8591436,33.4225958 31.8044419,34.3686327 L48.072461,50.6493625 L64.2798841,34.4373619 C65.2211427,33.491325 66.7602823,33.491325 67.7015409,34.4373619 L71.135317,37.869778 C72.0765756,38.8158149 72.0765756,40.3521142 71.135317,41.2981512" id="Fill-1"></path>
            </g>
            <g id="solid/chevron-down" transform="translate(49.476839, 83.763097) scale(-1, 1) rotate(-90.000000) translate(-49.476839, -83.763097) translate(1.000000, 35.248382)" fill="#06566A">
                <path d="M71.135317,41.2981512 L49.789349,62.6607974 C48.840011,63.6068343 47.3089508,63.6068343 46.3596127,62.6607974 L24.9449692,41.229422 C24.0037106,40.287428 24.0037106,38.7470858 24.9449692,37.8010488 L28.3787453,34.3686327 C29.3200039,33.4225958 30.8591436,33.4225958 31.8044419,34.3686327 L48.072461,50.6493625 L64.2798841,34.4373619 C65.2211427,33.491325 66.7602823,33.491325 67.7015409,34.4373619 L71.135317,37.869778 C72.0765756,38.8158149 72.0765756,40.3521142 71.135317,41.2981512" id="Fill-1"></path>
            </g>
            <path d="M161.652712,108.838532 C161.652712,112.615472 158.590897,115.677287 154.813957,115.677287 L94.0198013,115.677287 C90.2428613,115.677287 87.1810465,112.615472 87.1810465,108.838532 C87.1810465,105.061592 90.2428613,101.999777 94.0198013,101.999777 L154.813957,101.999777 C158.590897,101.999777 161.652712,105.061592 161.652712,108.838532 Z M184.134724,83.7630974 C184.134724,87.5400374 181.072909,90.6018522 177.295969,90.6018522 L94.0198013,90.6018522 C90.2428613,90.6018522 87.1810465,87.5400374 87.1810465,83.7630974 C87.1810465,79.9861574 90.2428613,76.9243425 94.0198013,76.9243425 L177.295969,76.9243425 C181.072909,76.9243425 184.134724,79.9861574 184.134724,83.7630974 Z M184.134724,58.687663 C184.134724,62.464603 181.072909,65.5264178 177.295969,65.5264178 L94.0198013,65.5264178 C90.2428613,65.5264178 87.1810465,62.464603 87.1810465,58.687663 C87.1810465,54.910723 90.2428613,51.8489082 94.0198013,51.8489082 L177.295969,51.8489082 C181.072909,51.8489082 184.134724,54.910723 184.134724,58.687663 Z" id="Shape-Copy" fill-opacity="0.3" fill="#06566A"></path>
        </g>
    </g>
</svg>