<?xml version="1.0" encoding="UTF-8"?>
<svg width="401px" height="316px" viewBox="0 0 401 316" version="1.1" xmlns="http://www.w3.org/2000/svg" xmlns:xlink="http://www.w3.org/1999/xlink">
    <!-- Generator: Sketch 63.1 (92452) - https://sketch.com -->
    <title>Storytelling_frame</title>
    <desc>Created with Sketch.</desc>
    <defs>
        <radialGradient cx="50%" cy="0%" fx="50%" fy="0%" r="163.67557%" gradientTransform="translate(0.500000,0.000000),scale(0.787756,1.000000),rotate(50.585841),translate(-0.500000,-0.000000)" id="radialGradient-1">
            <stop stop-color="#06566A" stop-opacity="0.22" offset="0%"></stop>
            <stop stop-color="#06566A" stop-opacity="0.06" offset="100%"></stop>
        </radialGradient>
    </defs>
    <g id="Storytelling_frame" stroke="none" stroke-width="1" fill="none" fill-rule="evenodd">
        <path d="M400.728629,315.462675 L0.271370968,315.462675 L0.271370968,-2.07478479e-12 L400.728629,-2.13162821e-12 L400.728629,315.462675 Z M390.728371,29.726 L10.270371,29.726 L10.271371,305.461803 L390.728371,305.461803 L390.728371,29.726 Z" id="Combined-Shape" fill="url(#radialGradient-1)" fill-rule="nonzero" opacity="0.653390067"></path>
        <g id="icon/Storytelling" transform="translate(65.328943, 34.813800)">
            <g id="mockup/text/icon" transform="translate(149.470252, 53.905239)" fill="#06566A" fill-opacity="0.3">
                <path d="M49.9043832,49.7586821 C49.9043832,52.0487622 48.0479065,53.9052389 45.7578264,53.9052389 L4.14655684,53.9052389 C1.85647673,53.9052389 2.70135446e-12,52.0487622 2.701074e-12,49.7586821 C2.70079355e-12,47.468602 1.85647673,45.6121253 4.14655684,45.6121253 L45.7578264,45.6121253 C48.0479065,45.6121253 49.9043832,47.468602 49.9043832,49.7586821 Z M78.1015734,34.5546404 C78.1015734,36.8447205 76.2450966,38.7011972 73.9550165,38.7011972 L4.14655684,38.7011972 C1.85647673,38.7011972 -5.13851423e-13,36.8447205 -5.14131876e-13,34.5546404 C-5.1441233e-13,32.2645602 1.85647673,30.4080835 4.14655684,30.4080835 L73.9550165,30.4080835 C76.2450966,30.4080835 78.1015734,32.2645602 78.1015734,34.5546404 Z M78.1015734,19.3505986 C78.1015734,21.6406787 76.2450966,23.4971554 73.9550165,23.4971554 L4.14655684,23.4971554 C1.85647673,23.4971554 -5.13851423e-13,21.6406787 -5.14131876e-13,19.3505986 C-5.1441233e-13,17.0605185 1.85647673,15.2040418 4.14655684,15.2040418 L73.9550165,15.2040418 C76.2450966,15.2040418 78.1015734,17.0605185 78.1015734,19.3505986 Z M78.1015734,4.14655684 C78.1015734,6.43663695 76.2450966,8.29311368 73.9550165,8.29311368 L4.14655684,8.29311368 C1.85647673,8.29311368 -5.13851423e-13,6.43663695 -5.14131876e-13,4.14655684 C-5.1441233e-13,1.85647673 1.85647673,1.30885931e-15 4.14655684,0 L73.9550165,0 C76.2450966,5.79656805e-15 78.1015734,1.85647673 78.1015734,4.14655684 Z" id="Shape"></path>
            </g>
            <g id="mockup/text/icon" transform="translate(41.743944, 161.715717)" fill="#06566A" fill-opacity="0.3">
                <path d="M49.9043832,49.7586821 C49.9043832,52.0487622 48.0479065,53.9052389 45.7578264,53.9052389 L4.14655684,53.9052389 C1.85647673,53.9052389 2.70135446e-12,52.0487622 2.701074e-12,49.7586821 C2.70079355e-12,47.468602 1.85647673,45.6121253 4.14655684,45.6121253 L45.7578264,45.6121253 C48.0479065,45.6121253 49.9043832,47.468602 49.9043832,49.7586821 Z M78.1015734,34.5546404 C78.1015734,36.8447205 76.2450966,38.7011972 73.9550165,38.7011972 L4.14655684,38.7011972 C1.85647673,38.7011972 -5.13851423e-13,36.8447205 -5.14131876e-13,34.5546404 C-5.1441233e-13,32.2645602 1.85647673,30.4080835 4.14655684,30.4080835 L73.9550165,30.4080835 C76.2450966,30.4080835 78.1015734,32.2645602 78.1015734,34.5546404 Z M78.1015734,19.3505986 C78.1015734,21.6406787 76.2450966,23.4971554 73.9550165,23.4971554 L4.14655684,23.4971554 C1.85647673,23.4971554 -5.13851423e-13,21.6406787 -5.14131876e-13,19.3505986 C-5.1441233e-13,17.0605185 1.85647673,15.2040418 4.14655684,15.2040418 L73.9550165,15.2040418 C76.2450966,15.2040418 78.1015734,17.0605185 78.1015734,19.3505986 Z M78.1015734,4.14655684 C78.1015734,6.43663695 76.2450966,8.29311368 73.9550165,8.29311368 L4.14655684,8.29311368 C1.85647673,8.29311368 -5.13851423e-13,6.43663695 -5.14131876e-13,4.14655684 C-5.1441233e-13,1.85647673 1.85647673,4.20680891e-16 4.14655684,0 L73.9550165,0 C76.2450966,5.79656805e-15 78.1015734,1.85647673 78.1015734,4.14655684 Z" id="Shape"></path>
            </g>
            <g id="Group" stroke-width="1" transform="translate(21.545262, 21.562096)">
                <polygon id="Rectangle-Copy-2" fill="#E6EEF0" points="0 0 113.112623 0 113.112623 113.201002 0 113.201002"></polygon>
                <g id="solid/image" transform="translate(8.079473, 8.085786)" fill="#06566A">
                    <path d="M79.9867838,77.6235441 L16.9668935,77.6235441 C12.9508904,77.6235441 9.69536773,74.3654778 9.69536773,70.3463368 L9.69536773,26.6830933 C9.69536773,22.6639524 12.9508904,19.405886 16.9668935,19.405886 L79.9867838,19.405886 C84.0027869,19.405886 87.2583096,22.6639524 87.2583096,26.6830933 L87.2583096,70.3463368 C87.2583096,74.3654778 84.0027869,77.6235441 79.9867838,77.6235441 Z M26.6622613,27.8959612 C21.9769748,27.8959612 18.1788145,31.6970891 18.1788145,36.3860363 C18.1788145,41.0749835 21.9769748,44.8761114 26.6622613,44.8761114 C31.3475477,44.8761114 35.145708,41.0749835 35.145708,36.3860363 C35.145708,31.6970891 31.3475477,27.8959612 26.6622613,27.8959612 Z M19.3907355,67.9206011 L77.5629418,67.9206011 L77.5629418,50.9404508 L64.3052839,37.6724343 C63.5954012,36.9619969 62.4443793,36.9619969 61.7343451,37.6724343 L41.2053128,58.2176581 L32.7953388,49.801113 C32.0854561,49.0906757 30.9344341,49.0906757 30.2244,49.801113 L19.3907355,60.6433938 L19.3907355,67.9206011 Z" id="Shape"></path>
                </g>
            </g>
            <g id="Group-2" stroke-width="1" transform="translate(134.657885, 134.763097)">
                <polygon id="Rectangle-Copy-3" fill="#E6EEF0" points="113.112623 113.201002 0 113.201002 2.00928382e-14 0 113.112623 2.01085374e-14"></polygon>
                <g id="solid/image" transform="translate(8.079473, 8.085786)" fill="#06566A">
                    <path d="M79.9867838,77.6235441 L16.9668935,77.6235441 C12.9508904,77.6235441 9.69536773,74.3654778 9.69536773,70.3463368 L9.69536773,26.6830933 C9.69536773,22.6639524 12.9508904,19.405886 16.9668935,19.405886 L79.9867838,19.405886 C84.0027869,19.405886 87.2583096,22.6639524 87.2583096,26.6830933 L87.2583096,70.3463368 C87.2583096,74.3654778 84.0027869,77.6235441 79.9867838,77.6235441 Z M26.6622613,27.8959612 C21.9769748,27.8959612 18.1788145,31.6970891 18.1788145,36.3860363 C18.1788145,41.0749835 21.9769748,44.8761114 26.6622613,44.8761114 C31.3475477,44.8761114 35.145708,41.0749835 35.145708,36.3860363 C35.145708,31.6970891 31.3475477,27.8959612 26.6622613,27.8959612 Z M19.3907355,67.9206011 L77.5629418,67.9206011 L77.5629418,50.9404508 L64.3052839,37.6724343 C63.5954012,36.9619969 62.4443793,36.9619969 61.7343451,37.6724343 L41.2053128,58.2176581 L32.7953388,49.801113 C32.0854561,49.0906757 30.9344341,49.0906757 30.2244,49.801113 L19.3907355,60.6433938 L19.3907355,67.9206011 Z" id="Shape"></path>
                </g>
            </g>
        </g>
    </g>
</svg>