<?xml version="1.0" encoding="UTF-8"?>
<svg width="402px" height="316px" viewBox="0 0 402 316" version="1.1" xmlns="http://www.w3.org/2000/svg" xmlns:xlink="http://www.w3.org/1999/xlink">
    <!-- Generator: Sketch 63.1 (92452) - https://sketch.com -->
    <title>TextMedia</title>
    <desc>Created with Sketch.</desc>
    <defs>
        <radialGradient cx="25.6432601%" cy="19.2146727%" fx="25.6432601%" fy="19.2146727%" r="161.599762%" gradientTransform="translate(0.256433,0.192147),scale(0.787756,1.000000),rotate(38.229490),translate(-0.256433,-0.192147)" id="radialGradient-1">
            <stop stop-color="#06566A" stop-opacity="0.22" offset="0%"></stop>
            <stop stop-color="#06566A" stop-opacity="0.06" offset="100%"></stop>
        </radialGradient>
    </defs>
    <g id="TextMedia" stroke="none" stroke-width="1" fill="none" fill-rule="evenodd">
        <g id="icon/TextMedia" transform="translate(66.553942, 34.813800)">
            <rect id="Rectangle" fill="#E6EEF0" x="48.4005808" y="61.9910248" width="171.55317" height="145.544145"></rect>
            <path d="M179.497827,171.293096 C180.602397,171.293096 181.497827,172.188527 181.497827,173.293096 L181.497827,179.557283 C181.497827,180.661853 180.602397,181.557283 179.497827,181.557283 L64.2248218,181.557283 C63.1202523,181.557283 62.2248218,180.661853 62.2248218,179.557283 L62.2248218,173.293096 C62.2248218,172.188527 63.1202523,171.293096 64.2248218,171.293096 L179.497827,171.293096 Z M202.737643,150.705733 C203.842212,150.705733 204.737643,151.601164 204.737643,152.705733 L204.737643,158.96992 C204.737643,160.07449 203.842212,160.96992 202.737643,160.96992 L64.2248218,160.96992 C63.1202523,160.96992 62.2248218,160.07449 62.2248218,158.96992 L62.2248218,152.705733 C62.2248218,151.601164 63.1202523,150.705733 64.2248218,150.705733 L202.737643,150.705733 Z M202.737643,130.11837 C203.842212,130.11837 204.737643,131.013801 204.737643,132.11837 L204.737643,138.382557 C204.737643,139.487127 203.842212,140.382557 202.737643,140.382557 L152.95922,140.382557 C151.85465,140.382557 150.95922,139.487127 150.95922,138.382557 L150.95922,132.11837 C150.95922,131.013801 151.85465,130.11837 152.95922,130.11837 L202.737643,130.11837 Z M202.737643,109.531007 C203.842212,109.531007 204.737643,110.426438 204.737643,111.531007 L204.737643,117.795194 C204.737643,118.899763 203.842212,119.795194 202.737643,119.795194 L152.95922,119.795194 C151.85465,119.795194 150.95922,118.899763 150.95922,117.795194 L150.95922,111.531007 C150.95922,110.426438 151.85465,109.531007 152.95922,109.531007 L202.737643,109.531007 Z M202.737643,88.9436443 C203.842212,88.9436443 204.737643,89.8390748 204.737643,90.9436443 L204.737643,97.207831 C204.737643,98.3124005 203.842212,99.207831 202.737643,99.207831 L152.95922,99.207831 C151.85465,99.207831 150.95922,98.3124005 150.95922,97.207831 L150.95922,90.9436443 C150.95922,89.8390748 151.85465,88.9436443 152.95922,88.9436443 L202.737643,88.9436443 Z" id="Combined-Shape" fill-opacity="0.3" fill="#06566A"></path>
            <path d="M133.733806,140.153621 L69.0408646,140.153621 C64.9182447,140.153621 61.5762944,136.80379 61.5762944,132.671449 L61.5762944,93.7305549 C61.5762944,89.5982133 64.9182447,86.2483823 69.0408646,86.2483823 L133.733806,86.2483823 C137.856426,86.2483823 141.198377,89.5982133 141.198377,93.7305549 L141.198377,132.671449 C141.198377,136.80379 137.856426,140.153621 133.733806,140.153621 Z M78.9936249,92.5133424 C74.1839535,92.5133424 70.2849597,96.4215306 70.2849597,101.242544 C70.2849597,106.063557 74.1839535,109.971745 78.9936249,109.971745 C83.8032963,109.971745 87.7022902,106.063557 87.7022902,101.242544 C87.7022902,96.4215306 83.8032963,92.5133424 78.9936249,92.5133424 Z M71.5290547,132.890497 L131.245616,132.890497 L131.245616,115.432094 L117.635994,101.790379 C116.907266,101.059932 115.725686,101.059932 114.996802,101.790379 L93.9227653,122.914267 L85.2895234,114.260667 C84.5607947,113.53022 83.3792154,113.53022 82.6503312,114.260667 L71.5290547,125.408324 L71.5290547,132.890497 Z" id="Shape" fill="#06566A"></path>
        </g>
        <path d="M401.228629,315.462675 L0.771370968,315.462675 L0.771370968,-2.07478479e-12 L401.228629,-2.13162821e-12 L401.228629,315.462675 Z M391.228371,29.726 L10.770371,29.726 L10.771371,305.461803 L391.228371,305.461803 L391.228371,29.726 Z" id="Combined-Shape" fill="url(#radialGradient-1)" fill-rule="nonzero" opacity="0.653390067"></path>
    </g>
</svg>