<svg width="300" height="300" viewBox="0 0 300 300" fill="none" xmlns="http://www.w3.org/2000/svg">
<path d="M45 134V234L108.5 262L199 256L248.5 228V163L199 58H159L45 134Z" fill="#E6EEF0"/>
<path fill-rule="evenodd" clip-rule="evenodd" d="M55.2443 118.656C52.4177 115.829 51.6311 111.817 51.9863 107.657C52.3431 103.476 53.8735 98.6949 56.2633 93.6581C61.0549 83.5589 69.6 71.8116 80.7058 60.7058C91.8116 49.6 103.559 41.0548 113.658 36.2632C118.695 33.8735 123.477 32.3431 127.657 31.9862C131.817 31.6311 135.829 32.4176 138.656 35.2443L152.763 49.3512C155.589 52.1778 156.376 56.19 156.021 60.3502C155.664 64.5306 154.134 69.3122 151.744 74.349C146.952 84.4482 138.407 96.1955 127.301 107.301C116.196 118.407 104.448 126.952 94.349 131.744C89.3122 134.134 84.5306 135.664 80.3502 136.021C76.19 136.376 72.1778 135.589 69.3512 132.763L55.2443 118.656ZM59.5 114.4C58.4311 113.331 57.7215 111.417 57.9964 108.197C58.2696 104.996 59.4955 100.942 61.7151 96.2636C66.1422 86.9327 74.2281 75.7331 84.9806 64.9806C95.7332 54.2281 106.933 46.1422 116.264 41.7151C120.942 39.4955 124.996 38.2696 128.197 37.9964C131.418 37.7214 133.331 38.4311 134.4 39.5C135.469 40.5688 136.179 42.4827 135.904 45.7035C135.631 48.904 134.405 52.9583 132.185 57.6365C127.758 66.9674 119.672 78.167 108.92 88.9196C98.1671 99.6721 86.9675 107.758 77.6366 112.185C72.9583 114.405 68.9041 115.631 65.7035 115.904C62.4827 116.179 60.5689 115.469 59.5 114.4ZM141.844 46.9436L148.38 53.4796L148.38 53.4852C148.424 53.5252 148.466 53.5657 148.507 53.6068C149.576 54.6757 150.286 56.5896 150.011 59.8104C149.738 63.0109 148.512 67.0652 146.292 71.7434C141.865 81.0743 133.779 92.2739 123.026 103.026C112.274 113.779 101.074 121.865 91.7434 126.292C87.0652 128.512 83.0109 129.737 79.8104 130.011C76.5896 130.286 74.6758 129.576 73.6069 128.507C73.5658 128.466 73.5252 128.424 73.4852 128.38L73.4797 128.38L66.9436 121.844C70.9544 121.385 75.4844 119.894 80.2421 117.637C90.3413 112.845 102.089 104.3 113.194 93.1944C124.3 82.0886 132.845 70.3413 137.637 60.2421C139.894 55.4844 141.385 50.9543 141.844 46.9436Z" fill="#1F6779"/>
<path fill-rule="evenodd" clip-rule="evenodd" d="M141.225 111.154C142.259 107.292 145.341 104.605 149.121 102.833C152.92 101.052 157.826 99.9861 163.383 99.5373C174.525 98.6374 188.971 100.164 204.142 104.229C219.313 108.294 232.587 114.195 241.786 120.545C246.374 123.712 250.09 127.088 252.489 130.53C254.877 133.955 256.202 137.823 255.167 141.685L250.004 160.955C248.969 164.816 245.888 167.503 242.107 169.276C238.308 171.057 233.402 172.123 227.845 172.571C216.703 173.471 202.257 171.945 187.087 167.88C171.916 163.815 158.642 157.914 149.443 151.563C144.855 148.396 141.138 145.02 138.739 141.579C136.352 138.153 135.027 134.285 136.061 130.424L141.225 111.154ZM147.038 112.711C147.429 111.251 148.732 109.68 151.659 108.308C154.567 106.944 158.691 105.978 163.852 105.562C174.147 104.73 187.889 106.133 202.577 110.069C217.265 114.004 229.868 119.66 238.367 125.528C242.629 128.469 245.717 131.368 247.554 134.003C249.403 136.654 249.745 138.667 249.354 140.127C248.963 141.587 247.66 143.158 244.733 144.531C241.825 145.894 237.701 146.86 232.539 147.277C222.245 148.108 208.503 146.705 193.815 142.77C179.127 138.834 166.524 133.178 158.025 127.311C153.763 124.369 150.675 121.471 148.838 118.836C146.989 116.184 146.647 114.172 147.038 112.711ZM246.629 150.295L244.237 159.223L244.232 159.226C244.219 159.284 244.205 159.341 244.19 159.397C243.799 160.857 242.496 162.429 239.57 163.801C236.661 165.165 232.537 166.13 227.376 166.547C217.082 167.379 203.34 165.976 188.651 162.04C173.963 158.104 161.361 152.448 152.861 146.581C148.6 143.639 145.511 140.741 143.674 138.106C141.826 135.454 141.483 133.442 141.875 131.982C141.89 131.926 141.906 131.869 141.924 131.813L141.921 131.808L144.314 122.88C146.716 126.124 150.272 129.301 154.606 132.293C163.805 138.643 177.079 144.544 192.25 148.609C207.421 152.674 221.867 154.201 233.009 153.301C238.258 152.877 242.926 151.903 246.629 150.295Z" fill="#1F6779"/>
<path fill-rule="evenodd" clip-rule="evenodd" d="M83.9953 239.308C82.9606 235.447 84.2856 231.579 86.6732 228.154C89.0725 224.712 92.7887 221.336 97.3766 218.169C106.576 211.819 119.85 205.918 135.021 201.853C150.191 197.788 164.637 196.261 175.779 197.161C181.336 197.61 186.243 198.675 190.041 200.456C193.822 202.229 196.903 204.916 197.938 208.777L203.101 228.048C204.136 231.909 202.811 235.777 200.423 239.202C198.024 242.644 194.308 246.02 189.72 249.187C180.521 255.537 167.247 261.438 152.076 265.503C136.905 269.568 122.459 271.095 111.317 270.195C105.76 269.746 100.854 268.681 97.0551 266.9C93.2748 265.127 90.1934 262.44 89.1587 258.579L83.9953 239.308ZM89.8087 237.751C89.4174 236.29 89.7598 234.278 91.6083 231.626C93.4452 228.991 96.5339 226.093 100.795 223.151C109.295 217.284 121.897 211.628 136.585 207.692C151.274 203.757 165.016 202.354 175.31 203.185C180.471 203.602 184.595 204.568 187.504 205.931C190.43 207.304 191.733 208.875 192.124 210.335C192.516 211.795 192.173 213.808 190.325 216.459C188.488 219.095 185.399 221.993 181.138 224.934C172.638 230.802 160.036 236.458 145.348 240.393C130.659 244.329 116.917 245.732 106.623 244.901C101.462 244.484 97.3376 243.518 94.4293 242.154C91.5025 240.782 90.1999 239.211 89.8087 237.751ZM194.849 220.503L197.241 229.432L197.239 229.437C197.256 229.493 197.273 229.549 197.288 229.606C197.679 231.066 197.337 233.078 195.488 235.73C193.651 238.365 190.563 241.263 186.301 244.205C177.802 250.072 165.199 255.728 150.511 259.664C135.823 263.6 122.081 265.002 111.786 264.171C106.625 263.754 102.501 262.789 99.5928 261.425C96.666 260.053 95.3634 258.481 94.9721 257.021C94.9571 256.965 94.9431 256.908 94.9303 256.85L94.9256 256.847L92.5332 247.919C96.2361 249.527 100.905 250.501 106.153 250.925C117.295 251.825 131.742 250.298 146.912 246.233C162.083 242.168 175.357 236.267 184.556 229.917C188.89 226.925 192.446 223.747 194.849 220.503Z" fill="#1F6779"/>
</svg>
