<svg width="507" height="437" viewBox="0 0 507 437" fill="none" xmlns="http://www.w3.org/2000/svg">
<path d="M0 395H507V437H15L0 422L0 395Z" fill="#063F4F"/>
<mask id="mask0_2149_4815" style="mask-type:alpha" maskUnits="userSpaceOnUse" x="11" y="0" width="485" height="395">
<path d="M456 0L496 50V395H11V0H456Z" fill="white"/>
</mask>
<g mask="url(#mask0_2149_4815)">
<path d="M456 0L496 50V395H11V0H456Z" fill="#074A5B"/>
<path opacity="0.6" d="M481 388C688.107 388 856 220.107 856 13C856 -194.107 688.107 -362 481 -362C273.893 -362 106 -194.107 106 13C106 220.107 273.893 388 481 388Z" fill="url(#paint0_radial_2149_4815)"/>
<path d="M170.458 168.973L196.357 162.168L213.116 142.363L267.962 168.262L287.768 168.973L278.958 210.616L258.291 250.227L229.874 258.149L198.874 250.227L180.791 210.616L170.458 168.973Z" fill="#ECFF00"/>
<path d="M217.161 190.928C217.823 192.721 217.764 194.701 216.995 196.452C216.226 198.202 214.808 199.586 213.04 200.312C211.271 201.037 209.29 201.049 207.513 200.343C205.736 199.637 204.303 198.269 203.515 196.527C202.726 194.785 202.645 192.806 203.287 191.005C203.93 189.205 205.246 187.723 206.959 186.874C208.672 186.024 210.647 185.873 212.47 186.451C214.292 187.029 215.819 188.292 216.728 189.973L210.238 193.485L217.161 190.928Z" fill="#052F3A"/>
<path d="M212.519 195.125C214.197 195.162 215.586 193.831 215.622 192.153C215.658 190.475 214.327 189.086 212.649 189.05C210.971 189.014 209.582 190.345 209.546 192.022C209.51 193.7 210.841 195.089 212.519 195.125Z" fill="white"/>
<path d="M257.787 190.928C258.45 192.721 258.391 194.701 257.622 196.452C256.853 198.202 255.435 199.586 253.666 200.312C251.897 201.037 249.917 201.049 248.14 200.343C246.364 199.637 244.93 198.269 244.141 196.527C243.353 194.785 243.272 192.806 243.915 191.005C244.557 189.205 245.874 187.723 247.586 186.874C249.299 186.024 251.275 185.873 253.096 186.451C254.919 187.029 256.445 188.292 257.355 189.973L250.865 193.485L257.787 190.928Z" fill="#052F3A"/>
<path d="M253.145 195.125C254.823 195.162 256.212 193.831 256.248 192.153C256.284 190.475 254.954 189.086 253.276 189.05C251.598 189.014 250.209 190.345 250.173 192.022C250.137 193.7 251.467 195.089 253.145 195.125Z" fill="white"/>
<path d="M280.506 310.623H166.985V386.303H280.506V310.623Z" fill="#ECFF00"/>
<path d="M156.353 84.4701L162.446 78.3761L320.892 54L302.609 124.081L156.353 130.176V84.4701Z" fill="url(#paint1_linear_2149_4815)"/>
<path fill-rule="evenodd" clip-rule="evenodd" d="M299.955 130.175L159.793 136.269L171.98 212.444L193.31 258.149L229.874 267.29L263.392 258.149L287.768 212.444L299.955 130.175ZM196.356 162.168L170.457 168.974L180.79 210.616L198.874 250.227L229.874 258.15L258.291 250.227L278.958 210.616L287.768 168.974L267.962 168.263L213.115 142.363L196.356 162.168Z" fill="#052F3A"/>
<path fill-rule="evenodd" clip-rule="evenodd" d="M141.511 395.266H104.947L114.088 306.902L77.5239 258.149L187.216 267.291L210.069 284.05L141.511 299.284V395.266ZM150.652 306.902L296.909 273.385V395.266H150.652V306.902ZM199.405 331.278C199.405 338.009 193.948 343.466 187.216 343.466C180.485 343.466 175.028 338.009 175.028 331.278C175.028 324.547 180.485 319.09 187.216 319.09C193.948 319.09 199.405 324.547 199.405 331.278ZM260.344 337.372C267.076 337.372 272.533 331.915 272.533 325.185C272.533 318.453 267.076 312.996 260.344 312.996C253.613 312.996 248.157 318.453 248.157 325.185C248.157 331.915 253.613 337.372 260.344 337.372ZM199.405 370.889C199.405 377.62 193.948 383.077 187.216 383.077C180.485 383.077 175.028 377.62 175.028 370.889C175.028 364.158 180.485 358.701 187.216 358.701C193.948 358.701 199.405 364.158 199.405 370.889ZM260.344 383.077C267.076 383.077 272.533 377.62 272.533 370.889C272.533 364.158 267.076 358.701 260.344 358.701C253.613 358.701 248.157 364.158 248.157 370.889C248.157 377.62 253.613 383.077 260.344 383.077ZM351.755 297.761L306.049 273.385V395.266H363.943L351.755 297.761Z" fill="url(#paint2_linear_2149_4815)"/>
<path d="M346.895 385.738L429.476 376.208V395.266H346.895V385.738Z" fill="#ECFF00"/>
<path d="M423.123 369.855L353.247 379.383V360.326L367.54 350.798L394.538 344.446L408.83 347.621L423.123 360.326V369.855Z" fill="#ECFF00"/>
<path d="M391.362 341.848L365.952 347.622V339.537L374.845 334.917H387.55L391.362 341.848Z" fill="#ECFF00"/>
</g>
<defs>
<radialGradient id="paint0_radial_2149_4815" cx="0" cy="0" r="1" gradientUnits="userSpaceOnUse" gradientTransform="translate(481 13) rotate(90) scale(375)">
<stop stop-color="#ECFF00" stop-opacity="0.45"/>
<stop offset="0.0885417" stop-color="#ECFF00" stop-opacity="0.3"/>
<stop offset="1" stop-color="#ECFF00" stop-opacity="0"/>
</radialGradient>
<linearGradient id="paint1_linear_2149_4815" x1="295.296" y1="73.2639" x2="168.36" y2="124.175" gradientUnits="userSpaceOnUse">
<stop stop-color="#07718B"/>
<stop offset="1" stop-color="#07566B"/>
</linearGradient>
<linearGradient id="paint2_linear_2149_4815" x1="119.169" y1="395.247" x2="284.289" y2="290.672" gradientUnits="userSpaceOnUse">
<stop stop-color="#06566A"/>
<stop offset="1" stop-color="#06708A"/>
</linearGradient>
</defs>
</svg>
