<svg width="315" height="242" viewBox="0 0 315 242" fill="none" xmlns="http://www.w3.org/2000/svg">
<path d="M40 171L59.5556 169.545L64 164.455L54.2222 150.636L32 147V150.636L40 155.727L32 152.818L0 147L1.77778 155.727L40 171Z" fill="#ECFF00"/>
<path opacity="0.2" d="M164.5 242C227.737 242 279 190.513 279 127C279 63.4873 227.737 12 164.5 12C101.263 12 50 63.4873 50 127C50 190.513 101.263 242 164.5 242Z" fill="url(#paint0_radial_2028_4154)"/>
<rect x="121.94" y="164.936" width="73.7195" height="49.2334" fill="#ECFF00"/>
<path d="M124.195 72.7858L141.014 68.3589L151.897 55.4744L187.514 72.3233L200.376 72.7858L194.655 99.8763L181.234 125.645L162.78 130.799L142.649 125.645L130.906 99.8763L124.195 72.7858Z" fill="#ECFF00"/>
<path d="M154.523 87.8855C154.954 89.0521 154.915 90.3405 154.416 91.4793C153.917 92.6181 152.996 93.5183 151.847 93.9905C150.699 94.4627 149.412 94.4699 148.258 94.0106C147.105 93.5513 146.174 92.6614 145.662 91.5283C145.15 90.3951 145.097 89.1073 145.515 87.9359C145.932 86.7645 146.786 85.801 147.899 85.2483C149.011 84.6957 150.294 84.597 151.477 84.9731C152.661 85.3492 153.652 86.1706 154.243 87.2645L150.028 89.5491L154.523 87.8855Z" fill="black"/>
<ellipse cx="1.97329" cy="1.97679" rx="1.97329" ry="1.97679" transform="matrix(0.999769 0.0215057 -0.0214296 0.99977 147.611 90.6316)" fill="white"/>
<path d="M180.906 87.8855C181.336 89.0521 181.298 90.3405 180.799 91.4793C180.3 92.6181 179.379 93.5183 178.23 93.9905C177.082 94.4627 175.795 94.4699 174.641 94.0106C173.487 93.5513 172.557 92.6614 172.045 91.5283C171.533 90.3951 171.48 89.1073 171.897 87.9359C172.315 86.7645 173.169 85.801 174.281 85.2483C175.394 84.6957 176.677 84.597 177.86 84.9731C179.043 85.3492 180.035 86.1706 180.626 87.2645L176.411 89.5491L180.906 87.8855Z" fill="black"/>
<ellipse cx="1.97329" cy="1.97679" rx="1.97329" ry="1.97679" transform="matrix(0.999769 0.0215057 -0.0214296 0.99977 173.994 90.6316)" fill="white"/>
<path d="M115.036 17.8122L118.993 13.8477L206.969 0L217.503 6.0304L210.014 43.5812L115.036 47.5456V17.8122Z" fill="url(#paint1_linear_2028_4154)"/>
<path fill-rule="evenodd" clip-rule="evenodd" d="M208.291 47.5457L117.27 51.5101L125.185 101.066L139.036 130.799L162.781 136.746L184.547 130.799L200.376 101.066L208.291 47.5457ZM141.254 68.847L124.195 72.7861L130.906 99.8766L142.649 125.646L162.78 130.799L181.234 125.646L194.655 99.8766L200.376 72.7861L187.906 74.3748L151.897 55.4746L141.254 68.847Z" fill="#052F3A"/>
<path fill-rule="evenodd" clip-rule="evenodd" d="M105.397 220H81.6527L87.5889 162.515L73 139L135.5 137.5L149.919 147.648L105.397 157.559V220ZM111.334 162.515L198 140.5L206.312 150.5V220H111.334V162.515ZM142.993 178.373C142.993 182.752 139.45 186.302 135.078 186.302C130.707 186.302 127.163 182.752 127.163 178.373C127.163 173.994 130.707 170.444 135.078 170.444C139.45 170.444 142.993 173.994 142.993 178.373ZM182.567 182.338C186.939 182.338 190.482 178.788 190.482 174.409C190.482 170.03 186.939 166.48 182.567 166.48C178.196 166.48 174.652 170.03 174.652 174.409C174.652 178.788 178.196 182.338 182.567 182.338ZM142.993 204.142C142.993 208.521 139.45 212.071 135.078 212.071C130.707 212.071 127.163 208.521 127.163 204.142C127.163 199.763 130.707 196.213 135.078 196.213C139.45 196.213 142.993 199.763 142.993 204.142ZM182.567 212.071C186.939 212.071 190.482 208.521 190.482 204.142C190.482 199.763 186.939 196.213 182.567 196.213C178.196 196.213 174.652 199.763 174.652 204.142C174.652 208.521 178.196 212.071 182.567 212.071ZM233 163.5L212.249 153.5V220H242L233 163.5Z" fill="url(#paint2_linear_2028_4154)"/>
<path d="M62.6733 220H106L65.5 175L41 177.5L62.6733 220Z" fill="url(#paint3_linear_2028_4154)"/>
<path fill-rule="evenodd" clip-rule="evenodd" d="M157.5 212.5L165.5 206.658L176.242 200.661L185.031 197.328L200.535 196.914L204.283 197.331L208.593 198.02L212.904 198.708L217.142 199.988L221.38 201.268L225.388 203.075L229.396 204.882L232.66 206.117L235.925 207.353L242.218 208.744L248.511 210.135L249.261 210.507L250.011 210.88L248.137 210.65L246.262 210.42L241.952 209.564L237.642 208.708L233.484 207.417L229.326 206.126L223.492 203.731L217.658 201.335L214.156 200.453L210.655 199.572L207.015 199.103L203.376 198.634H198.099H192.821L189.369 199.086L185.917 199.538L183.106 200.332L180.295 201.125L185.167 200.927L190.04 200.728L195.312 201.445L200.585 202.162L203.371 202.84L206.157 203.517L214.079 205.895L222 208.272L229.699 209.815L237.398 211.358L244.829 212.276L252.26 213.193L253.048 213.373L253.837 213.553L254.056 216.954L254.276 220.355L255.971 224.319L257.665 228.282L259.208 230.368L261 233L262 233.5L263 234L262.874 239.162L258.878 238.88L254.883 238.596L244.201 238.154L233.519 237.712L224.523 237.281L215.527 236.851L200.722 236.153L185.917 235.455L180.857 235.382L175.797 235.309L174.11 236.119L172.424 236.929L169.987 237.552L167.551 238.176L161.929 238.451L156.306 238.726L151.407 238.216L146.507 237.706L142.786 236.516L139.065 235.326L133.817 235.394L128.57 235.462L114.327 236.158L100.084 236.855L91.2757 237.283L82.4675 237.712L71.9726 238.16L61.4777 238.609L57.6718 238.888L53.8656 239.166L52.8929 238.027L51.9199 236.886V235.748L53 234.5H54L55.5 234L56.7423 232.454L58.0572 230.574L59.3724 228.693L60.7199 226.072L62.0673 223.45L62.8031 220.659L63.5392 217.867V215.726V213.585L64.3826 213.384L65.2259 213.184L72.5787 212.268L79.9311 211.351L86.6343 210.023L93.3372 208.694L97.0853 207.676L100.834 206.658L106.831 204.86L112.828 203.062L116.125 202.392L119.422 201.722L123.809 201.218L128.195 200.715L132.693 200.925L137.191 201.136L134.38 200.332L131.568 199.529L127.478 199.021L123.387 198.514L116.608 198.764L109.829 199.014L106.445 199.689L103.06 200.364L99.6978 201.496L96.3357 202.628L93.5246 203.888L90.7135 205.148L86.1002 206.718L81.4873 208.288L76.355 209.358L71.223 210.427L69.4242 210.628L67.6251 210.829L67.8061 210.618L67.9868 210.406L73.5405 209.179L79.0941 207.952L82.2801 206.993L85.466 206.035L89.589 204.147L93.712 202.259L96.1483 201.334L98.5846 200.41L101.771 199.54L104.956 198.67L107.58 198.176L110.204 197.682L115.451 197.112L120.699 196.542L115.343 196.49L109.987 196.438L106.521 196.891L103.054 197.344L99.3204 198.37L95.5861 199.396L90.526 200.957L85.466 202.518L80.0312 203.405L74.5963 204.292L71.0472 204.561L67.498 204.83L67.7064 204.585L67.9148 204.341L74.0667 203.459L80.2186 202.577L83.3183 201.908L86.418 201.238L89.8266 199.933L93.2356 198.627L96.0973 197.792L98.9594 196.957L102.708 196.149L106.456 195.34L115.639 195.361L124.822 195.381L129.32 196.56L137.566 199.147L145.999 203.312L157.5 212.5Z" fill="#5F97A5"/>
<path d="M165.506 216.915L173.939 230.97L153.699 236.241L138.894 230.97L148.639 214.719H158.01L165.506 216.915Z" fill="black" fill-opacity="0.2"/>
<path d="M262.032 232.711H260.914L174.766 228L157.623 232.711L136.336 228L55.8474 232.711H54.3486H52.8495L51.9249 233.882L51 235.053V236.288V237.524L51.9781 238.762L52.9557 240L56.7818 239.698L60.6074 239.395L71.1567 238.907L81.706 238.42L90.5599 237.955L99.4137 237.49L113.731 236.733L128.048 235.977L133.322 235.903L138.597 235.83L142.337 237.122L146.077 238.414L151.003 238.968L155.928 239.522L161.579 239.223L167.231 238.924L169.68 238.247L172.129 237.57L173.824 236.69L175.519 235.811L180.606 235.891L185.692 235.97L200.574 236.728L215.456 237.486L224.498 237.953L233.54 238.42L244.278 238.901L255.016 239.381L259.032 239.689L263.048 239.996L264.024 238.76L265 237.524V236.288V235.053L264.075 233.882L263.15 232.711H262.032Z" fill="#083D4A"/>
<defs>
<radialGradient id="paint0_radial_2028_4154" cx="0" cy="0" r="1" gradientUnits="userSpaceOnUse" gradientTransform="translate(164.5 127) rotate(90) scale(115 114.5)">
<stop offset="0.348958" stop-color="#ECFF00"/>
<stop offset="1" stop-color="#C4C4C4" stop-opacity="0"/>
</radialGradient>
<linearGradient id="paint1_linear_2028_4154" x1="205.265" y1="10.522" x2="122.793" y2="43.5417" gradientUnits="userSpaceOnUse">
<stop stop-color="#07718B"/>
<stop offset="1" stop-color="#032C36"/>
<stop offset="1" stop-color="#07566B"/>
</linearGradient>
<linearGradient id="paint2_linear_2028_4154" x1="97.5726" y1="219.989" x2="196.081" y2="158.807" gradientUnits="userSpaceOnUse">
<stop stop-color="#06566A"/>
<stop offset="1" stop-color="#06708A"/>
</linearGradient>
<linearGradient id="paint3_linear_2028_4154" x1="106" y1="220" x2="53" y2="200" gradientUnits="userSpaceOnUse">
<stop stop-color="#174450"/>
<stop offset="1" stop-color="#06708A"/>
</linearGradient>
</defs>
</svg>
