<svg width="250" height="80" viewBox="0 0 250 80" fill="none" xmlns="http://www.w3.org/2000/svg">
<rect width="250" height="80" fill="white"/>
<rect width="80" height="80" fill="#06566A" fill-opacity="0.05"/>
<mask id="mask0_758_4212" style="mask-type:alpha" maskUnits="userSpaceOnUse" x="10" y="20" width="60" height="40">
<rect x="10" y="20" width="60" height="40" fill="#06566A"/>
</mask>
<g mask="url(#mask0_758_4212)">
<rect x="10" y="20" width="60" height="40" fill="#06566A" fill-opacity="0.25"/>
<path d="M29.9531 45.3633V48H18.2812V45.75L23.8008 39.832C24.3555 39.2148 24.793 38.6719 25.1133 38.2031C25.4336 37.7266 25.6641 37.3008 25.8047 36.9258C25.9531 36.543 26.0273 36.1797 26.0273 35.8359C26.0273 35.3203 25.9414 34.8789 25.7695 34.5117C25.5977 34.1367 25.3438 33.8477 25.0078 33.6445C24.6797 33.4414 24.2734 33.3398 23.7891 33.3398C23.2734 33.3398 22.8281 33.4648 22.4531 33.7148C22.0859 33.9648 21.8047 34.3125 21.6094 34.7578C21.4219 35.2031 21.3281 35.707 21.3281 36.2695H17.9414C17.9414 35.2539 18.1836 34.3242 18.668 33.4805C19.1523 32.6289 19.8359 31.9531 20.7188 31.4531C21.6016 30.9453 22.6484 30.6914 23.8594 30.6914C25.0547 30.6914 26.0625 30.8867 26.8828 31.2773C27.7109 31.6602 28.3359 32.2148 28.7578 32.9414C29.1875 33.6602 29.4023 34.5195 29.4023 35.5195C29.4023 36.082 29.3125 36.6328 29.1328 37.1719C28.9531 37.7031 28.6953 38.2344 28.3594 38.7656C28.0312 39.2891 27.6328 39.8203 27.1641 40.3594C26.6953 40.8984 26.1758 41.457 25.6055 42.0352L22.6406 45.3633H29.9531Z" fill="#06566A" fill-opacity="0.25"/>
<path d="M45.7773 43.3242C45.7773 44.3945 45.5273 45.2969 45.0273 46.0312C44.5273 46.7578 43.8398 47.3086 42.9648 47.6836C42.0977 48.0508 41.1133 48.2344 40.0117 48.2344C38.9102 48.2344 37.9219 48.0508 37.0469 47.6836C36.1719 47.3086 35.4805 46.7578 34.9727 46.0312C34.4648 45.2969 34.2109 44.3945 34.2109 43.3242C34.2109 42.6055 34.3555 41.957 34.6445 41.3789C34.9336 40.793 35.3359 40.293 35.8516 39.8789C36.375 39.457 36.9883 39.1367 37.6914 38.918C38.3945 38.6914 39.1602 38.5781 39.9883 38.5781C41.0977 38.5781 42.0898 38.7734 42.9648 39.1641C43.8398 39.5547 44.5273 40.1055 45.0273 40.8164C45.5273 41.5273 45.7773 42.3633 45.7773 43.3242ZM42.3789 43.1016C42.3789 42.5781 42.2773 42.1289 42.0742 41.7539C41.8789 41.3711 41.6016 41.0781 41.2422 40.875C40.8828 40.6719 40.4648 40.5703 39.9883 40.5703C39.5117 40.5703 39.0938 40.6719 38.7344 40.875C38.375 41.0781 38.0938 41.3711 37.8906 41.7539C37.6953 42.1289 37.5977 42.5781 37.5977 43.1016C37.5977 43.6172 37.6953 44.0625 37.8906 44.4375C38.0938 44.8125 38.375 45.1016 38.7344 45.3047C39.1016 45.5 39.5273 45.5977 40.0117 45.5977C40.4961 45.5977 40.9141 45.5 41.2656 45.3047C41.625 45.1016 41.8984 44.8125 42.0859 44.4375C42.2812 44.0625 42.3789 43.6172 42.3789 43.1016ZM45.4141 35.4609C45.4141 36.3281 45.1836 37.0977 44.7227 37.7695C44.2617 38.4336 43.6211 38.9531 42.8008 39.3281C41.9883 39.7031 41.0586 39.8906 40.0117 39.8906C38.957 39.8906 38.0195 39.7031 37.1992 39.3281C36.3789 38.9531 35.7383 38.4336 35.2773 37.7695C34.8164 37.0977 34.5859 36.3281 34.5859 35.4609C34.5859 34.4297 34.8164 33.5625 35.2773 32.8594C35.7461 32.1484 36.3867 31.6094 37.1992 31.2422C38.0195 30.875 38.9492 30.6914 39.9883 30.6914C41.043 30.6914 41.9766 30.875 42.7891 31.2422C43.6094 31.6094 44.25 32.1484 44.7109 32.8594C45.1797 33.5625 45.4141 34.4297 45.4141 35.4609ZM42.0391 35.6133C42.0391 35.1523 41.957 34.7539 41.793 34.418C41.6289 34.0742 41.3945 33.8086 41.0898 33.6211C40.793 33.4336 40.4258 33.3398 39.9883 33.3398C39.5664 33.3398 39.2031 33.4297 38.8984 33.6094C38.6016 33.7891 38.3711 34.0508 38.207 34.3945C38.0508 34.7305 37.9727 35.1367 37.9727 35.6133C37.9727 36.0742 38.0508 36.4805 38.207 36.832C38.3711 37.1758 38.6055 37.4453 38.9102 37.6406C39.2148 37.8359 39.582 37.9336 40.0117 37.9336C40.4414 37.9336 40.8047 37.8359 41.1016 37.6406C41.4062 37.4453 41.6367 37.1758 41.793 36.832C41.957 36.4805 42.0391 36.0742 42.0391 35.6133Z" fill="#06566A" fill-opacity="0.25"/>
<path d="M58.9883 22.7617H59.4805V25.457H59.2812C58.3906 25.457 57.5977 25.5898 56.9023 25.8555C56.207 26.1211 55.6172 26.5 55.1328 26.9922C54.6562 27.4766 54.2891 28.0625 54.0312 28.75C53.7812 29.4375 53.6562 30.207 53.6562 31.0586V33.8945C53.6562 34.5039 53.7148 35.043 53.832 35.5117C53.957 35.9727 54.1328 36.3594 54.3594 36.6719C54.5938 36.9766 54.8672 37.207 55.1797 37.3633C55.4922 37.5117 55.8438 37.5859 56.2344 37.5859C56.6016 37.5859 56.9336 37.5078 57.2305 37.3516C57.5352 37.1953 57.793 36.9766 58.0039 36.6953C58.2227 36.4062 58.3867 36.0703 58.4961 35.6875C58.6133 35.2969 58.6719 34.8711 58.6719 34.4102C58.6719 33.9492 58.6133 33.5234 58.4961 33.1328C58.3867 32.7422 58.2227 32.4062 58.0039 32.125C57.7852 31.8359 57.5195 31.6133 57.207 31.457C56.8945 31.3008 56.543 31.2227 56.1523 31.2227C55.6211 31.2227 55.1523 31.3477 54.7461 31.5977C54.3477 31.8398 54.0352 32.1523 53.8086 32.5352C53.582 32.918 53.4609 33.3203 53.4453 33.7422L52.4258 33.0859C52.4492 32.4844 52.5742 31.9141 52.8008 31.375C53.0352 30.8359 53.3555 30.3594 53.7617 29.9453C54.1758 29.5234 54.6719 29.1953 55.25 28.9609C55.8281 28.7188 56.4805 28.5977 57.207 28.5977C58.0039 28.5977 58.7031 28.75 59.3047 29.0547C59.9141 29.3594 60.4219 29.7773 60.8281 30.3086C61.2344 30.8398 61.5391 31.4531 61.7422 32.1484C61.9453 32.8438 62.0469 33.5859 62.0469 34.375C62.0469 35.2031 61.9102 35.9727 61.6367 36.6836C61.3711 37.3945 60.9844 38.0156 60.4766 38.5469C59.9766 39.0781 59.375 39.4922 58.6719 39.7891C57.9688 40.0859 57.1797 40.2344 56.3047 40.2344C55.3984 40.2344 54.5742 40.0703 53.832 39.7422C53.0977 39.4062 52.4648 38.9375 51.9336 38.3359C51.4023 37.7344 50.9922 37.0195 50.7031 36.1914C50.4219 35.3633 50.2812 34.457 50.2812 33.4727V32.1602C50.2812 30.7852 50.4805 29.5273 50.8789 28.3867C51.2852 27.2383 51.8672 26.2461 52.625 25.4102C53.3828 24.5664 54.2969 23.9141 55.3672 23.4531C56.4375 22.9922 57.6445 22.7617 58.9883 22.7617Z" fill="#06566A"/>
<path d="M53.457 55.2305L50.7617 54.5859L51.7344 45.9375H61.3203V48.668H54.5117L54.0898 52.4531C54.3164 52.3203 54.6602 52.1797 55.1211 52.0312C55.582 51.875 56.0977 51.7969 56.668 51.7969C57.4961 51.7969 58.2305 51.9258 58.8711 52.1836C59.5117 52.4414 60.0547 52.8164 60.5 53.3086C60.9531 53.8008 61.2969 54.4023 61.5312 55.1133C61.7656 55.8242 61.8828 56.6289 61.8828 57.5273C61.8828 58.2852 61.7656 59.0078 61.5312 59.6953C61.2969 60.375 60.9414 60.9844 60.4648 61.5234C59.9883 62.0547 59.3906 62.4727 58.6719 62.7773C57.9531 63.082 57.1016 63.2344 56.1172 63.2344C55.3828 63.2344 54.6719 63.125 53.9844 62.9062C53.3047 62.6875 52.6914 62.3633 52.1445 61.9336C51.6055 61.5039 51.1719 60.9844 50.8438 60.375C50.5234 59.7578 50.3555 59.0547 50.3398 58.2656H53.6914C53.7383 58.75 53.8633 59.168 54.0664 59.5195C54.2773 59.8633 54.5547 60.1289 54.8984 60.3164C55.2422 60.5039 55.6445 60.5977 56.1055 60.5977C56.5352 60.5977 56.9023 60.5156 57.207 60.3516C57.5117 60.1875 57.7578 59.9609 57.9453 59.6719C58.1328 59.375 58.2695 59.0312 58.3555 58.6406C58.4492 58.2422 58.4961 57.8125 58.4961 57.3516C58.4961 56.8906 58.4414 56.4727 58.332 56.0977C58.2227 55.7227 58.0547 55.3984 57.8281 55.125C57.6016 54.8516 57.3125 54.6406 56.9609 54.4922C56.6172 54.3438 56.2148 54.2695 55.7539 54.2695C55.1289 54.2695 54.6445 54.3672 54.3008 54.5625C53.9648 54.7578 53.6836 54.9805 53.457 55.2305Z" fill="#06566A"/>
</g>
</svg>
