<?xml version="1.0" encoding="UTF-8"?>
<svg width="1920px" height="640px" viewBox="0 0 1920 640" version="1.1" xmlns="http://www.w3.org/2000/svg" xmlns:xlink="http://www.w3.org/1999/xlink">
    <title>bg_1-d</title>
    <g id="bg_1-d" stroke="none" stroke-width="1" fill="none" fill-rule="evenodd" fill-opacity="0.25">
        <polygon id="Rectangle" fill="#FFFFFF" points="1815.97295 211.814464 1924.43836 176.579561 1991.58471 210.69376 2009.29496 229.596752 1977.93613 288.574135 1774.96738 338.218279 1766.26983 305.292436"></polygon>
        <polygon id="Rectangle-Copy" fill="#FFFFFF" points="1743.29468 373.248526 1771.04874 470.015143 1822.56421 501.917572 1854.03153 492.297047 1867.24902 414.0985 1825.57374 277.784819 1787.16791 290.734985"></polygon>
        <polygon id="Rectangle" fill="#FFFFFF" points="1834.53311 441.078829 1844.7098 474.365303 1806.90985 547.668216 1689.44913 583.579561 1662.77279 566.592781 1652.39879 532.660963 1673.62263 490.274098"></polygon>
        <polygon id="Rectangle" fill="#FFFFFF" points="-3.02950172 91.1300565 232.694254 220.90694 246.863331 264.55026 199.491444 342.791537 141.989979 369.383566 9.66202688 296.530878 -47 163.753465"></polygon>
        <polygon id="Rectangle" fill="#FFFFFF" points="139.922578 61.4964208 347.693588 175.884018 368 229.840219 305.735334 332.678997 87.0307981 212.271986 79.827483 118.32563 110.733482 67.2800626"></polygon>
    </g>
</svg>