<?xml version="1.0" encoding="UTF-8"?>
<svg width="471px" height="1853px" viewBox="0 0 471 1853" version="1.1" xmlns="http://www.w3.org/2000/svg" xmlns:xlink="http://www.w3.org/1999/xlink">
    <title>bg_2</title>
    <g id="bg_2" stroke="none" stroke-width="1" fill="none" fill-rule="evenodd">
        <polygon id="Rectangle" fill="#FFFFFF" opacity="0.148489816" transform="translate(364.879697, 306.296787) rotate(-270.000000) translate(-364.879697, -306.296787) " points="316.703605 284.786234 373.802159 250.482916 416.497543 261.075198 429.06012 269.506038 418.962622 307.190413 309.97513 362.110659 300.699274 344.515214"></polygon>
        <polygon id="Rectangle-Copy" fill="#ECFF00" opacity="0.40272304" transform="translate(225.861162, 1119.668902) rotate(-270.000000) translate(-225.861162, -1119.668902) " points="186.530064 1120.83303 215.038933 1172.25666 248.548133 1183.64392 265.19226 1174.03443 262.440036 1127.79479 220.812559 1055.69388 200.657179 1068.10992"></polygon>
        <polygon id="Rectangle" fill="#ECFF00" opacity="0.40272304" transform="translate(94.888536, 147.756122) rotate(-270.000000) translate(-94.888536, -147.756122) " points="45.3067596 80.7585175 158.821425 143.253617 165.644658 164.270408 142.832345 201.948122 115.142054 214.753727 51.418467 179.670931 24.1324135 115.730902"></polygon>
        <polygon id="Rectangle-Copy-2" fill="#ECFF00" opacity="0.40272304" transform="translate(27.890931, 1506.756122) rotate(-270.000000) translate(-27.890931, -1506.756122) " points="-21.690845 1439.75852 91.8238206 1502.25362 98.6470532 1523.27041 75.8347408 1560.94812 48.1444491 1573.75373 -15.5791376 1538.67093 -42.8651912 1474.7309"></polygon>
        <polygon id="Rectangle" fill="#FFFFFF" opacity="0.148489816" transform="translate(340.409855, 663.691208) rotate(-270.000000) translate(-340.409855, -663.691208) " points="299.963237 598.396136 400.017033 653.480401 409.795749 679.463442 379.811699 728.98628 274.492776 671.003318 271.023962 625.762697 285.906994 601.181295"></polygon>
        <polygon id="Rectangle-Copy-4" fill="#FFFFFF" opacity="0.148489816" points="365.258309 1687.39614 465.312106 1742.4804 475.090821 1768.46344 445.106772 1817.98628 339.787848 1760.00332 336.319034 1714.7627 351.202066 1690.18129"></polygon>
        <polygon id="Rectangle-Copy-3" fill="#FFFFFF" opacity="0.148489816" transform="translate(83.488813, 846.073558) rotate(-30.000000) translate(-83.488813, -846.073558) " points="35.3127213 824.563005 92.4112744 790.259686 135.106659 800.851968 147.669236 809.282809 137.571738 846.967183 28.584246 901.887429 19.3083894 884.291985"></polygon>
    </g>
</svg>