<svg width="2560" height="600" viewBox="0 0 2560 600" fill="none" xmlns="http://www.w3.org/2000/svg">
<g clip-path="url(#clip0_736_2784)">
<path opacity="0.2" d="M1735.47 491.339L1776.91 540.77L1705.25 600.834L1642.98 586.48L1603.97 509.578L1615.3 465.501L1735.47 491.339Z" fill="#ECFF00" fill-opacity="0.4"/>
<g opacity="0.2">
<path opacity="0.2" d="M73.9504 327.812L67.0459 317.225L73.9504 279.481L111.234 250.943L215.262 258.768V304.797L175.676 335.637L73.9504 327.812Z" fill="#065669" fill-opacity="0.2"/>
<path d="M27 191.564V132.186H113.076L148.518 179.136L130.567 256.466L96.5049 280.862L27 191.564Z" fill="#ECFF00" fill-opacity="0.4"/>
</g>
<g opacity="0.2">
<path d="M2398.83 415.744L2531.44 283.138L2500.03 251.726L2409.22 251.748L2304.02 356.951L2362.82 415.753L2398.83 415.744Z" fill="#ECFF00" fill-opacity="0.2"/>
<path opacity="0.2" d="M2312.25 391.206L2290.85 367.908L2290.85 289.348L2350.18 226.77L2411.68 226.77L2420.61 235.168L2420.61 279.328L2312.25 391.206Z" fill="#065669" fill-opacity="0.4"/>
</g>
<g opacity="0.2">
<path opacity="0.2" d="M716.026 188.297L704.177 181.361L692.563 141.331L714.94 95.4999L819.827 52.6039L842.172 97.333L818.676 146.518L716.026 188.297Z" fill="#065669" fill-opacity="0.2"/>
</g>
<g opacity="0.2">
<path opacity="0.2" d="M511.389 530.955L514.173 544.399L492.222 579.831L443.2 593.905L341.103 544.736L359.358 498.188L411.62 482.699L511.389 530.955Z" fill="#065669" fill-opacity="0.2"/>
</g>
<g opacity="0.2">
<circle cx="2362.58" cy="324.811" r="2.05048" transform="rotate(-15 2362.58 324.811)" fill="white"/>
<circle cx="2375.46" cy="312.16" r="1.36699" transform="rotate(-15 2375.46 312.16)" fill="white"/>
<circle cx="2372.87" cy="315.685" r="1.36699" transform="rotate(-15 2372.87 315.685)" fill="white"/>
<circle cx="2362.83" cy="309.886" r="1.36699" transform="rotate(-15 2362.83 309.886)" fill="white"/>
<circle cx="2365.05" cy="294.429" r="4.10096" transform="rotate(-15 2365.05 294.429)" fill="white"/>
<circle cx="2354.72" cy="271.724" r="1.36699" transform="rotate(-15 2354.72 271.724)" fill="white"/>
<circle cx="2370.56" cy="336.117" r="3.41747" transform="rotate(-15 2370.56 336.117)" fill="white"/>
<circle cx="2352.62" cy="285.022" r="2.05048" transform="rotate(-15 2352.62 285.022)" fill="white"/>
<circle cx="2353.94" cy="313.683" r="2.05048" transform="rotate(-15 2353.94 313.683)" fill="white"/>
<path d="M2372.16 175.931L2378.44 173.243L2395.53 130.627L2383.16 101.718L2371.95 97.2222L2349.47 153.296L2356.46 169.636L2372.16 175.931Z" fill="#06708A"/>
<path d="M2359.18 182.966L2324.62 197.747L2290.57 183.315L2295.43 168.601L2309.57 162.554L2362.42 174.891L2359.18 182.966Z" fill="#06708A"/>
<path d="M2390.6 173.433L2353.21 189.423L2327.45 254.335L2363.73 339.174L2389.3 349.426L2461.57 318.52L2471.82 292.95L2426.94 188L2390.6 173.433Z" fill="#ECFF00"/>
<circle cx="2419.83" cy="322.615" r="1.70873" transform="rotate(-23.1535 2419.83 322.615)" fill="white"/>
<circle cx="2404.7" cy="270.73" r="1.36699" transform="rotate(-23.1535 2404.7 270.73)" fill="white"/>
<circle cx="2375.9" cy="265.951" r="2.05048" transform="rotate(-23.1535 2375.9 265.951)" fill="white"/>
<circle cx="2416.44" cy="299.906" r="1.36699" transform="rotate(-23.1535 2416.44 299.906)" fill="white"/>
<circle cx="2395.99" cy="288.582" r="1.36699" transform="rotate(-23.1535 2395.99 288.582)" fill="white"/>
<circle cx="2418.24" cy="295.421" r="1.36699" transform="rotate(-23.1535 2418.24 295.421)" fill="white"/>
<path d="M2341.57 204.806L2322.87 251.459L2361.17 341.012L2396.02 354.726L2456.52 338.889L2468.84 309.461L2423.97 191.498L2393.6 179.583L2341.57 204.806Z" stroke="#065669" stroke-opacity="0.4" stroke-width="2"/>
<circle cx="2396.6" cy="303.93" r="2.05048" transform="rotate(-23.1535 2396.6 303.93)" fill="white"/>
<circle cx="2398.92" cy="324.124" r="1.70873" transform="rotate(-23.1535 2398.92 324.124)" fill="white"/>
<circle cx="2406.58" cy="285.539" r="2.05048" transform="rotate(-23.1535 2406.58 285.539)" fill="white"/>
<circle cx="2405.51" cy="277.82" r="2.05048" transform="rotate(-23.1535 2405.51 277.82)" fill="white"/>
<circle cx="2397.34" cy="276.109" r="2.73397" transform="rotate(-23.1535 2397.34 276.109)" fill="white"/>
</g>
<g opacity="0.2">
<path d="M772.248 7.67127L893.038 42.9133L895.164 45.1679L895.595 86.8055L768.479 49.7179L768.102 13.3259L770.161 9.18717L772.248 7.67127Z" fill="#518997"/>
<path d="M773.453 8.02255L893.039 42.913L895.164 45.1676L895.595 86.8052L773.901 51.2996L773.453 8.02255Z" fill="#1F6779"/>
<path fill-rule="evenodd" clip-rule="evenodd" d="M782.246 19.8768L782.341 53.7621L893.186 86.1021L892.787 49.3769L785.521 18.0809L782.246 19.8768Z" fill="#82AAB5"/>
<path d="M824.912 32.3355L775.973 31.2547L774.893 80.1929L823.831 81.2737L824.912 32.3355Z" fill="white"/>
<path d="M812.797 40.8559L787.7 40.3016L787.007 71.6723L812.104 72.2266L812.797 40.8559Z" fill="#06566A" fill-opacity="0.25"/>
<path fill-rule="evenodd" clip-rule="evenodd" d="M793.779 47.1532C794.793 47.1758 795.632 46.3929 795.654 45.4056C795.676 44.4178 794.872 43.5994 793.858 43.5769C792.845 43.5545 792.005 44.3372 791.983 45.3244C791.962 46.3119 792.766 47.1308 793.779 47.1532ZM801.701 46.5331L807.865 55.8129L799.717 55.6329L795.133 55.5317L791.76 55.4574L795.861 49.9822L797.466 52.3345L801.701 46.5331Z" fill="#06566A"/>
<path d="M809.258 58.9818L790.436 58.5661L790.38 61.0758L809.203 61.4915L809.258 58.9818Z" fill="#06566A"/>
<path d="M809.176 62.7459L790.353 62.3302L790.298 64.8399L809.12 65.2556L809.176 62.7459Z" fill="#06566A"/>
<path d="M804.073 66.3995L790.269 66.0947L790.214 68.6043L804.017 68.9092L804.073 66.3995Z" fill="#06566A"/>
<path fill-rule="evenodd" clip-rule="evenodd" d="M775.36 30.614L825.553 31.7226L824.445 81.9156L774.252 80.8071L775.36 30.614ZM776.587 31.8966L775.534 79.58L823.217 80.6331L824.271 32.9497L776.587 31.8966Z" fill="#06566A"/>
<path d="M874.437 47.2916L827.446 33.5815L813.736 80.5725L860.727 94.2826L874.437 47.2916Z" fill="white"/>
<path d="M843.335 44.1008L837.311 42.3431L836.783 44.1504L842.808 45.9081L843.335 44.1008Z" fill="#06566A"/>
<path d="M850.565 46.2104L844.541 44.4527L844.013 46.2601L850.038 48.0178L850.565 46.2104Z" fill="#06566A"/>
<path d="M854.505 50.6289L836.432 45.3557L835.377 48.9704L853.45 54.2436L854.505 50.6289Z" fill="#06566A"/>
<path d="M858.596 59.0145L834.498 51.9837L829.225 70.0572L853.323 77.088L858.596 59.0145Z" fill="#06566A"/>
<path fill-rule="evenodd" clip-rule="evenodd" d="M839.324 56.6591L838.855 58.2658L838.822 58.3791L838.54 58.297L836.13 57.5938L833.116 67.9227L835.808 68.7081L836.053 68.7796L838.539 69.5047L849.383 72.6685L851.19 73.1959L851.659 71.5891L854.237 62.7536L854.705 61.1469L852.898 60.6196L841.15 57.192L839.324 56.6591ZM838.404 59.8123L836.296 67.0351L835.527 66.8106L837.634 59.5879L838.404 59.8123ZM840.36 58.8278L852.665 62.4181L852.05 64.5267L839.745 60.9364L840.36 58.8278ZM844.857 64.3075L839.239 62.6684L838.888 63.8733L844.506 65.5124L844.857 64.3075ZM838.536 65.0782L844.154 66.7173L843.803 67.9222L838.185 66.2831L838.536 65.0782ZM851.679 66.2979L846.062 64.6591L845.711 65.8639L851.328 67.5028L851.679 66.2979ZM845.359 67.0688L850.976 68.7077L850.625 69.9126L845.007 68.2737L845.359 67.0688Z" fill="white"/>
<path d="M852.444 80.0995L828.346 73.0687L827.731 75.1772L851.829 82.2081L852.444 80.0995Z" fill="#06566A" fill-opacity="0.25"/>
<path d="M851.477 83.413L827.379 76.3822L826.764 78.4908L850.862 85.5216L851.477 83.413Z" fill="#06566A" fill-opacity="0.25"/>
<path fill-rule="evenodd" clip-rule="evenodd" d="M827.019 32.8037L875.215 46.8654L861.153 95.0613L812.958 80.9996L827.019 32.8037ZM827.873 34.3602L814.514 80.1463L860.3 93.5048L873.659 47.7188L827.873 34.3602Z" fill="#06566A"/>
<path d="M910.212 69.7678L868.371 44.3627L842.966 86.204L884.807 111.609L910.212 69.7678Z" fill="white"/>
<path d="M897.568 79.7106L865.382 60.1682L855.611 76.261L887.797 95.8034L897.568 79.7106Z" fill="#06566A"/>
<path d="M866.064 71.7825L864.889 71.069L865.276 70.4176L866.262 71.0167C866.436 71.1223 866.592 71.1867 866.73 71.2099C866.869 71.2317 866.992 71.2159 867.098 71.1632C867.208 71.1096 867.302 71.0199 867.378 70.8938C867.464 70.7515 867.507 70.6196 867.506 70.4983C867.507 70.3789 867.463 70.2648 867.375 70.156C867.287 70.0489 867.156 69.9418 866.98 69.8349L866.326 69.4382L863.996 73.2756L863.053 72.7031L865.831 68.127L867.429 69.0964C867.695 69.2577 867.917 69.4272 868.096 69.6049C868.277 69.784 868.41 69.969 868.494 70.161C868.579 70.3524 868.612 70.5504 868.594 70.755C868.577 70.9566 868.504 71.1648 868.374 71.3786C868.26 71.5668 868.111 71.715 867.929 71.8219C867.748 71.9306 867.536 71.9793 867.293 71.9691C867.051 71.9608 866.782 71.873 866.485 71.7066L866.064 71.7825ZM864.804 73.7663L863.412 72.9208L864.226 72.4086L865.251 73.0305C865.416 73.1311 865.567 73.1869 865.704 73.1986C865.842 73.2075 865.964 73.181 866.07 73.1198C866.176 73.058 866.265 72.9676 866.338 72.8477C866.419 72.7137 866.467 72.5832 866.48 72.457C866.497 72.3317 866.471 72.2131 866.404 72.1008C866.339 71.9869 866.225 71.8806 866.064 71.7825L865.156 71.2312L865.555 70.5874L866.687 71.2745L866.749 71.6608C867.03 71.8259 867.224 72.0112 867.332 72.2166C867.442 72.4214 867.488 72.6282 867.468 72.8367C867.449 73.0463 867.384 73.2436 867.272 73.428C867.094 73.7213 866.88 73.9294 866.63 74.0532C866.381 74.1749 866.103 74.2106 865.794 74.1612C865.488 74.113 865.158 73.9813 864.804 73.7663ZM872.47 72.1578L873.41 72.7281L871.574 75.752C871.36 76.1035 871.104 76.3544 870.807 76.5037C870.512 76.6543 870.196 76.7104 869.858 76.6714C869.523 76.6342 869.184 76.5118 868.842 76.3043C868.501 76.0968 868.234 75.8515 868.042 75.5687C867.851 75.2869 867.754 74.9794 867.749 74.6471C867.747 74.3158 867.852 73.974 868.066 73.6219L869.902 70.5986L870.845 71.1706L869.009 74.1945C868.885 74.4 868.815 74.5869 868.801 74.7568C868.787 74.9259 868.823 75.0781 868.907 75.2126C868.994 75.3485 869.121 75.4672 869.289 75.5691C869.46 75.6734 869.625 75.7311 869.781 75.7429C869.94 75.7557 870.09 75.7165 870.231 75.6251C870.375 75.5343 870.51 75.3866 870.634 75.1811L872.47 72.1578ZM876.232 74.4419L873.453 79.018L872.514 78.4477L875.292 73.871L876.232 74.4419ZM877.64 75.2967L877.192 76.0354L873.458 73.7685L873.906 73.0298L877.64 75.2967ZM880.274 76.8961L877.496 81.4728L876.556 80.9017L879.335 76.3258L880.274 76.8961ZM881.682 77.7508L881.234 78.4895L877.5 76.2225L877.949 75.4841L881.682 77.7508ZM884.567 82.4878L884.435 82.7045C884.224 83.0527 883.987 83.336 883.725 83.5556C883.463 83.7747 883.186 83.9299 882.896 84.0205C882.608 84.1089 882.313 84.132 882.011 84.0892C881.712 84.0483 881.418 83.9403 881.129 83.7644C880.842 83.5904 880.61 83.3789 880.433 83.1314C880.259 82.885 880.143 82.6125 880.086 82.3142C880.031 82.0137 880.038 81.6956 880.11 81.3608C880.184 81.0268 880.327 80.6859 880.538 80.3383L880.669 80.1211C880.882 79.7712 881.119 79.488 881.379 79.2706C881.642 79.0509 881.918 78.8961 882.208 78.8056C882.5 78.7163 882.796 78.6922 883.095 78.7335C883.396 78.7757 883.69 78.8843 883.977 79.0584C884.266 79.2343 884.498 79.4451 884.673 79.6915C884.849 79.9391 884.964 80.2125 885.018 80.512C885.074 80.8125 885.064 81.1295 884.991 81.4637C884.921 81.7962 884.779 82.138 884.567 82.4878ZM883.483 82.1265L883.618 81.9032C883.766 81.66 883.873 81.4331 883.941 81.2222C884.01 81.0107 884.038 80.8164 884.029 80.6384C884.019 80.4604 883.972 80.3028 883.886 80.1648C883.803 80.0246 883.681 79.9067 883.521 79.8098C883.362 79.713 883.201 79.6595 883.038 79.6492C882.878 79.6386 882.717 79.6699 882.555 79.7436C882.394 79.8184 882.237 79.9346 882.08 80.0922C881.925 80.25 881.773 80.4502 881.625 80.6935L881.49 80.9161C881.344 81.1572 881.236 81.3847 881.167 81.5979C881.099 81.8088 881.069 82.0047 881.077 82.1843C881.087 82.3623 881.134 82.5212 881.218 82.6614C881.302 82.801 881.424 82.9195 881.583 83.0163C881.742 83.1132 881.903 83.1667 882.066 83.1764C882.23 83.1867 882.391 83.1541 882.551 83.0791C882.713 83.0027 882.871 82.8849 883.027 82.7277C883.185 82.5678 883.336 82.3674 883.483 82.1265ZM890.295 82.9804L887.516 87.5565L886.573 86.9839L886.597 82.7998L884.734 85.8675L883.791 85.295L886.57 80.7189L887.513 81.2915L887.49 85.4805L889.355 82.4095L890.295 82.9804Z" fill="#ECFF00"/>
<path fill-rule="evenodd" clip-rule="evenodd" d="M868.16 43.4993L911.075 69.5559L885.018 112.47L842.104 86.4136L868.16 43.4993ZM868.582 45.2236L843.828 85.9921L884.597 110.746L909.35 69.9773L868.582 45.2236Z" fill="#06566A"/>
<path d="M774.553 58.0274L899.862 94.5877L887.295 137.663L878.345 142.57L765.988 109.788C762.662 108.818 760.751 105.333 761.722 102.006L774.553 58.0274Z" fill="#387888"/>
<path opacity="0.1" d="M774.553 58.0274L788.409 62.0701L899.862 94.5877L898.28 100.01L786.827 67.4921L777.94 76.6664L762.129 100.611L765.27 89.8445L774.553 58.0274Z" fill="black"/>
<path d="M773.9 51.3L901.293 88.4681L903.502 91.0738L901.92 96.4958L772.695 58.793L772.143 57.3245L773.9 51.3Z" fill="#518997"/>
<path d="M773.9 51.3L901.293 88.4681L903.502 91.0738L774.917 54.5383L772.695 58.793L772.143 57.3245L773.9 51.3Z" fill="#387888"/>
<path d="M815.219 62.0475L820.641 63.6294L822.26 67.0435L818.656 79.3937L810.825 77.1087L815.219 62.0475Z" fill="#CDDDE1"/>
<path d="M815.219 62.0475L820.641 63.6294L815.582 66.4028L812.331 77.5481L810.825 77.1087L815.219 62.0475Z" fill="#B4CCD2"/>
<path d="M855.582 73.824L861.005 75.4059L862.623 78.82L859.02 91.1702L851.188 88.8852L855.582 73.824Z" fill="#CDDDE1"/>
<path d="M855.582 73.824L861.005 75.4059L855.946 78.1793L852.694 89.3246L851.188 88.8852L855.582 73.824Z" fill="#B4CCD2"/>
</g>
<g opacity="0.2">
<path d="M274.121 131.144L51.7075 76.901L42.0776 95.5276L43.683 109.804L290.951 170.109L297.14 144.735L274.121 131.144Z" fill="#9BBBC3"/>
<path d="M264.754 153.97L254.137 134.837M53.0677 81.959L62.8007 104.717L53.0677 81.959ZM90.6313 115.936L81.9182 88.9951L90.6313 115.936ZM109.885 99.6562L120.502 118.789L109.885 99.6562ZM149.352 125.825L139.619 103.067L149.352 125.825ZM167.585 113.728L177.319 136.487L167.585 113.728ZM206.033 144.08L197.32 117.14L206.033 144.08ZM225.287 127.801L234.883 151.116L225.287 127.801Z" stroke="#82AAB5" stroke-width="5"/>
<path d="M48.6271 108.647L292.332 168.082L293.583 179.909L284.797 189.288L43.3227 130.396L41.0306 119.202L48.6271 108.647Z" fill="#387888"/>
<path d="M57.2034 123.146L58.5635 117.569L63.5826 118.793L66.9627 125.526L61.1344 128.832L57.2034 123.146Z" fill="#9BBBC3"/>
<path d="M162.325 148.784L163.685 143.207L168.704 144.431L172.084 151.164L166.256 154.469L162.325 148.784Z" fill="#9BBBC3"/>
<path d="M102.089 132.912L99.879 135.918L95.7105 137.264L92.888 130.668L98.1586 127.226L102.089 132.912Z" fill="#9BBBC3"/>
<path d="M242.066 167.05L239.856 170.056L235.687 171.402L232.864 164.806L238.135 161.364L242.066 167.05Z" fill="#9BBBC3"/>
<path d="M127.743 139.168L128.321 142.854L133 145.472L136.944 141.412L132.599 136.216L127.743 139.168Z" fill="#9BBBC3"/>
<path d="M198.01 156.305L198.588 159.991L203.267 162.609L207.211 158.549L202.866 153.353L198.01 156.305Z" fill="#9BBBC3"/>
<path d="M266.026 91.3549L215.368 84.0168L206.211 127.936L254.669 140.345L266.026 91.3549Z" fill="#ECFF00"/>
<path d="M266.026 91.3549L215.368 84.0168L206.211 127.936L218.294 91.2813L266.026 91.3549Z" fill="#06566A" fill-opacity="0.2"/>
<path d="M267.173 94.4948L212.274 83.3029L215.837 71.0949L267.885 81.1731L267.173 94.4948Z" fill="#ECFF00"/>
<path d="M267.173 94.4948L212.274 83.3029L215.837 71.0949L267.885 81.1731L267.173 94.4948Z" fill="#06566A" fill-opacity="0.3"/>
<path d="M212.274 83.3027L215.837 71.0947L225.863 73.0361L221.078 73.9622L216.017 78.9674L216.621 84.3629L212.274 83.3027Z" fill="#06566A" fill-opacity="0.3"/>
<path opacity="0.2" fill-rule="evenodd" clip-rule="evenodd" d="M253.794 99.2186L224.802 92.1479L217.731 121.14L246.723 128.211L253.794 99.2186ZM218.858 120.455L225.487 93.2749L232.282 94.9321L231.84 96.7441L245.43 100.058L245.872 98.2465L252.667 99.9037L246.038 127.084L218.858 120.455Z" fill="#06566A"/>
<path d="M246.027 105.484L228.812 101.286L226.824 109.44L244.038 113.638L246.027 105.484Z" fill="#06566A" fill-opacity="0.25" stroke="#06566A"/>
<path d="M243.596 115.451L226.382 111.252L224.393 119.406L241.607 123.605L243.596 115.451Z" stroke="#06566A" stroke-opacity="0.25"/>
<path d="M142.71 64.6839L136.251 63.1082L133.39 75.5695L139.681 77.1036L139.455 69.1744L142.71 64.6839Z" fill="#06566A" fill-opacity="0.3"/>
<path d="M186.618 82.6251L135.96 75.2871L126.531 120.322L176.219 131.788L186.618 82.6251Z" fill="#ECFF00"/>
<path d="M141.724 71.6762L135.96 75.2871L126.531 120.322L137.156 92.8653L137.256 80.1565L171.374 83.9239L141.724 71.6762Z" fill="#06566A" fill-opacity="0.2"/>
<path d="M190.949 75.2383L136.251 63.1075L133.39 75.5688L187.291 87.9677L190.949 75.2383Z" fill="#ECFF00"/>
<path d="M190.949 75.2383L136.251 63.1075L133.39 75.5688L187.291 87.9677L190.949 75.2383Z" fill="#06566A" fill-opacity="0.3"/>
<path opacity="0.2" fill-rule="evenodd" clip-rule="evenodd" d="M174.254 92.7787L145.261 85.708L138.191 114.7L167.183 121.771L174.254 92.7787ZM139.318 114.015L145.947 86.835L152.742 88.4922L152.3 90.3042L165.89 93.6186L166.332 91.8066L173.127 93.4638L166.498 120.644L139.318 114.015Z" fill="#06566A"/>
<path d="M169.989 98.4584L146.432 92.7134L143.67 104.038L167.227 109.783L169.989 98.4584Z" fill="#06566A"/>
<path fill-rule="evenodd" clip-rule="evenodd" d="M150.252 98.2045C150.816 98.3418 151.383 97.9967 151.52 97.4338C151.658 96.8708 151.313 96.3033 150.75 96.1659C150.187 96.0287 149.619 96.3737 149.482 96.9366C149.344 97.4995 149.69 98.0672 150.252 98.2045ZM154.753 98.8221L157.018 104.894L152.493 103.79L149.947 103.169L148.073 102.712L151.057 100.08L151.654 101.625L154.753 98.8221Z" fill="white"/>
<path d="M165.309 100.917L159.42 99.4804L159.199 100.386L165.088 101.823L165.309 100.917Z" fill="#ECFF00"/>
<path d="M164.868 102.728L158.979 101.292L158.758 102.198L164.647 103.634L164.868 102.728Z" fill="#ECFF00"/>
<path d="M162.855 104.157L158.537 103.104L158.316 104.01L162.634 105.063L162.855 104.157Z" fill="#ECFF00"/>
<path d="M159.426 110.281L150.366 108.071L149.924 109.883L158.984 112.093L159.426 110.281Z" fill="#06566A" fill-opacity="0.25"/>
<path d="M159.559 113.672L148.687 111.021L148.466 111.927L159.338 114.578L159.559 113.672Z" fill="#06566A" fill-opacity="0.25"/>
<path d="M157.984 115.208L149.377 113.109L149.156 114.015L157.764 116.114L157.984 115.208Z" fill="#06566A" fill-opacity="0.25"/>
<path d="M113.658 57.1496L62.1565 48.4241L52.9993 92.3437L101.036 104.059L113.658 57.1496Z" fill="#ECFF00"/>
<path d="M75.3388 51.6393L62.1565 48.4244L52.9993 92.3439L57.6932 93.4887L63.4885 54.9669L73.0346 53.2155L75.3388 51.6393Z" fill="#06566A" fill-opacity="0.2"/>
<path d="M58.9293 48.2339L114.833 61.277L117.485 50.4024L115.105 48.0493L63.2408 35.4006L58.9293 48.2339Z" fill="#ECFF00"/>
<path d="M58.9293 48.2339L114.833 61.277L117.485 50.4024L115.105 48.0493L63.2408 35.4006L58.9293 48.2339Z" fill="#06566A" fill-opacity="0.3"/>
<path d="M58.8775 48.2895L60.6896 48.7314L65.5432 38.6699L115.053 48.1049L63.1891 35.4561L58.8775 48.2895Z" fill="#06566A" fill-opacity="0.3"/>
<path opacity="0.2" fill-rule="evenodd" clip-rule="evenodd" d="M100.016 64.5952L71.0236 57.5245L63.9528 86.5168L92.945 93.5875L100.016 64.5952ZM65.0798 85.8318L71.7086 58.6515L78.5037 60.3087L78.0617 62.1207L91.6518 65.4351L92.0937 63.6231L98.8888 65.2803L92.26 92.4606L65.0798 85.8318Z" fill="#06566A"/>
<path d="M84.194 66.4964L72.8689 63.7344L70.5488 73.2475L81.8739 76.0095L84.194 66.4964Z" fill="#06566A"/>
<path fill-rule="evenodd" clip-rule="evenodd" d="M74.9814 68.2333C75.4036 68.3362 75.8275 68.0851 75.9281 67.6723C76.0288 67.2595 75.7682 66.8413 75.346 66.7384C74.9238 66.6354 74.4999 66.8866 74.3993 67.2994C74.2986 67.7122 74.5592 68.1303 74.9814 68.2333ZM78.3549 68.7041L80.0749 73.1711L76.6809 72.3434L74.7714 71.8777L73.3663 71.535L75.5907 69.6138L76.0446 70.7501L78.3549 68.7041Z" fill="white"/>
<path d="M95.022 71.2967L85.9619 69.0871L85.6673 70.2951L94.7274 72.5047L95.022 71.2967Z" fill="#06566A"/>
<path d="M94.5064 73.4107L85.4463 71.2011L85.1517 72.4091L94.2117 74.6187L94.5064 73.4107Z" fill="#06566A"/>
<path d="M91.5747 74.9353L84.9307 73.3149L84.6361 74.5229L91.2801 76.1433L91.5747 74.9353Z" fill="#06566A"/>
<path d="M78.5595 79.7602L69.4994 77.5506L69.2048 78.7586L78.2648 80.9682L78.5595 79.7602Z" fill="#06566A"/>
<path d="M78.0437 81.8744L68.9836 79.6648L68.689 80.8728L77.7491 83.0824L78.0437 81.8744Z" fill="#06566A"/>
<path d="M75.1122 83.3989L68.4681 81.7785L68.1735 82.9865L74.8176 84.6069L75.1122 83.3989Z" fill="#06566A"/>
<path d="M92.6466 81.0362L81.3215 78.2742L79.0015 87.7872L90.3265 90.5492L92.6466 81.0362Z" fill="#06566A"/>
<path fill-rule="evenodd" clip-rule="evenodd" d="M83.434 82.773C83.8562 82.876 84.2801 82.6248 84.3808 82.212C84.4814 81.7992 84.2208 81.3811 83.7986 81.2781C83.3764 81.1751 82.9526 81.4264 82.8519 81.8391C82.7512 82.252 83.0118 82.6701 83.434 82.773ZM86.8075 83.2438L88.5275 87.711L85.1335 86.8832L83.224 86.4175L81.8189 86.0748L84.0433 84.1535L84.4973 85.2897L86.8075 83.2438Z" fill="white"/>
</g>
<g opacity="0.2">
<path d="M532.494 392.128L611.959 441.688L630.651 487.796L630.18 488.438L630.973 490.394L592.729 542.518L526.962 544.292L478.23 498.628L478.343 496.438L477.908 496.03L478.47 485.137L500.15 476.348L507.729 452.265L493.045 434.314L474.592 426.507L474.27 423.909L484.71 405.811L532.494 392.128Z" fill="#387888"/>
<path d="M611.96 441.688L532.494 392.128L484.71 405.811L474.27 423.909L492.723 431.716L508.23 450.673L500.15 476.348L478.47 485.137L477.908 496.03L526.64 541.694L592.407 539.921L630.651 487.796L611.96 441.688Z" fill="#518997"/>
<path opacity="0.5" d="M611.96 441.688L532.494 392.128L484.71 405.811L474.27 423.909L492.723 431.716L508.23 450.673L500.15 476.348L478.47 485.137L477.908 496.03L500.745 499.581L522.339 476.967L513.261 433.847L537.643 409.216L611.96 441.688Z" fill="#387888"/>
<path d="M533.853 425.265L535.866 437.249L523.652 442.2L518.453 429.375L528.522 423.516L533.853 425.265Z" fill="#ECFF00"/>
<path d="M561.797 422.412L549.685 423.385L547.866 436.439L561.572 438.349L564.795 427.154L561.797 422.412Z" fill="#ECFF00"/>
<path d="M561.797 422.412L549.685 423.385L547.866 436.439L561.572 438.349L564.795 427.154L561.797 422.412Z" fill="#06566A" fill-opacity="0.3"/>
<path d="M590.238 446.656L581.678 455.28L570.532 448.246L577.918 436.543L588.55 441.305L590.238 446.656Z" fill="#ECFF00"/>
<path d="M590.238 446.656L581.678 455.28L570.532 448.246L577.918 436.543L588.55 441.305L590.238 446.656Z" fill="#06566A" fill-opacity="0.5"/>
<path d="M592.34 468.053L603.445 472.985L600.836 485.904L587.271 483.164L587.939 471.534L592.34 468.053Z" fill="#ECFF00"/>
<path d="M592.34 468.053L603.445 472.985L600.836 485.904L587.271 483.164L587.939 471.534L592.34 468.053Z" fill="#06566A" fill-opacity="0.6"/>
<path d="M573.724 507.955L584.344 502.051L593.095 511.906L582.747 521.094L573.858 513.565L573.724 507.955Z" fill="#ECFF00"/>
<path d="M573.724 507.955L584.344 502.051L593.095 511.906L582.747 521.094L573.858 513.565L573.724 507.955Z" fill="#06566A" fill-opacity="0.7"/>
<path d="M512.841 459.39L501.404 475.916L532.186 510.091L548.068 493.859L538.339 478.931L527.001 473.245L523.143 464.062L512.841 459.39Z" fill="#ECFF00"/>
<path d="M513.313 471.345L503.851 481.015M524.298 476.009L515.827 482.593L512.485 489.463M532.609 486.169L526.188 492.731L519.392 496.222M538.495 493.28L527.365 506.727" stroke="#06566A" stroke-opacity="0.2" stroke-width="2"/>
<path d="M477.061 517.876L497.405 502.561L504.591 509.592L478.952 531.688L471.081 523.987L477.061 517.876Z" fill="#82AAB5"/>
<path d="M483.773 522.797L502.172 507.709L504.59 509.594L478.951 531.69L476.14 528.94L480.094 527.518L483.773 522.797Z" fill="#6A9AA6"/>
<path d="M518.621 523.321L504.591 509.593L497.405 502.561L486.727 487.461L500.015 473.881L537.315 510.377L518.621 523.321Z" fill="#B4CCD2"/>
<path d="M518.621 523.319L504.591 509.591L497.405 502.56L486.727 487.46L500.015 473.879L501.827 475.291L491.979 487.926L518.621 523.319Z" fill="#06566A" fill-opacity="0.1"/>
<path d="M551.05 485.311L516.666 549.179L520.046 551.813L557.528 490.36L551.05 485.311Z" fill="#B4CCD2"/>
<path d="M557.529 490.36L552.343 493.236L520.331 548.913L516.666 549.179L520.046 551.813L557.529 490.36Z" fill="#9BBBC3"/>
<path d="M550.071 484.996L559.003 490.286L556.838 494.501L554.069 494.014L549.009 491.074L547.59 488.964L550.071 484.996Z" fill="white"/>
<path d="M556.152 489.566L559.002 490.286L556.837 494.501L554.068 494.014L554.878 492.975L555.232 490.746L556.152 489.566Z" fill="#E6EEF0"/>
<path d="M552.03 479.337L550.837 486.371L557.528 490.361L561.939 487.06L560.801 480.66L564.623 472.612L561.827 472.27L552.03 479.337Z" fill="#ECFF00"/>
</g>
<g opacity="0.2">
<path d="M1591.11 537.321L1626.34 530.297L1621.85 556.127L1603.31 559.824L1594.52 554.399L1591.11 537.321Z" fill="#B4CCD2"/>
<path d="M1591.11 537.321L1596.76 536.194L1599.75 551.166L1606.71 559.146L1603.31 559.824L1594.52 554.399L1591.11 537.321Z" fill="#9BBBC3"/>
<path d="M1666.55 522.155L1697.97 515.889L1702.78 540.004L1682.68 544.011L1675.97 538.939L1666.55 522.155Z" fill="#B4CCD2"/>
<path d="M1666.55 522.155L1674.82 520.504L1681.45 537.846L1686.83 543.184L1682.68 544.011L1675.97 538.939L1666.55 522.155Z" fill="#9BBBC3"/>
<path d="M1561.44 452.318L1682.45 428.186L1707.09 437.825L1720.67 505.894L1713.51 516.969L1579.66 543.661L1561.44 452.318Z" fill="#387888"/>
<path d="M1557.06 449.393L1678.07 425.261L1702.71 434.9L1716.29 502.969L1709.12 514.044L1575.27 540.736L1557.06 449.393Z" fill="#518997"/>
<path d="M1557.06 449.393L1678.59 425.158L1649.79 433.315L1568.45 452.139L1582.3 521.617L1577.29 527.497L1574.22 535.432L1557.06 449.393Z" fill="#387888"/>
<path d="M1664.14 448.172L1555.08 469.921L1565.28 521.105L1565.71 523.272L1570.09 526.192L1573.33 525.547L1688.84 502.511L1679.62 456.291L1664.14 448.172Z" fill="#82AAB5"/>
<path d="M1555.08 469.921L1663.77 448.245L1675.83 456.289L1684.46 499.586L1569 522.611L1565.16 520.479L1555.08 469.921Z" fill="#6A9AA6"/>
<path d="M1570.07 438.438L1591.99 434.066L1593.6 442.105L1571.68 446.476L1570.07 438.438Z" fill="#B4CCD2"/>
<path d="M1570.07 438.438L1591.99 434.066L1573.03 439.998L1574.22 445.97L1571.68 446.476L1570.07 438.438Z" fill="#9BBBC3"/>
<path d="M1565.7 424.115L1594.56 418.359L1597.47 432.974L1564.59 439.531L1562.55 429.301L1565.7 424.115Z" fill="#9BBBC3"/>
<path d="M1565.7 424.115L1594.56 418.359L1567.15 426.853L1565.65 430.732L1564.59 439.531L1562.55 429.301L1565.7 424.115Z" fill="#82AAB5"/>
<path d="M1599.03 479.454L1648.05 469.678L1659.03 476.687L1660.79 485.532L1602.56 497.146L1599.03 479.454Z" fill="#518997"/>
<path d="M1597.15 478.2L1646.17 468.424L1657.15 475.433L1658.91 484.279L1600.68 495.892L1597.15 478.2Z" fill="#1F6779"/>
<path d="M1617.75 480.703L1647.33 474.805L1647.17 481.345L1619.94 486.775L1617.75 480.703Z" fill="#ECFF00"/>
<path d="M1617.75 480.703L1647.33 474.805L1647.17 481.345L1619.94 486.775L1617.75 480.703Z" fill="#06566A" fill-opacity="0.3"/>
<path d="M1609.3 482.388L1637.31 476.802L1637.15 483.343L1611.49 488.46L1609.3 482.388Z" fill="#ECFF00"/>
<path d="M1584.75 477.492L1577.56 478.926L1575.06 482.708L1576.48 489.87L1577.99 490.873L1588.31 488.815L1586.25 478.494L1584.75 477.492Z" fill="#518997"/>
<path d="M1577.56 478.926L1584.75 477.492L1586.8 487.812L1576.48 489.87L1575.06 482.708L1577.56 478.926Z" fill="#1F6779"/>
<path d="M1587.69 492.237L1577.37 494.295L1579.42 504.615L1580.93 505.617L1588.28 504.151L1590.68 500.744L1589.19 493.239L1587.69 492.237Z" fill="#518997"/>
<path d="M1577.37 494.295L1587.69 492.237L1589.18 499.742L1586.78 503.149L1579.42 504.615L1577.37 494.295Z" fill="#1F6779"/>
<path d="M1657.59 399.172L1648.16 394.716L1643.38 413.577L1649.63 414.534L1646.77 427.779L1658.01 408.18L1651.01 409.024L1657.59 399.172Z" fill="#ECFF00"/>
<path d="M1611.48 402.741L1602.91 408.678L1616.85 422.248L1620.81 417.312L1630.84 426.419L1619.49 406.882L1616.73 413.361L1611.48 402.741Z" fill="#ECFF00"/>
</g>
</g>
<defs>
<clipPath id="clip0_736_2784">
<rect width="2560" height="600" fill="white"/>
</clipPath>
</defs>
</svg>
