<svg width="402" height="589" viewBox="0 0 402 589" fill="none" xmlns="http://www.w3.org/2000/svg">
<path opacity="0.2" d="M30.3291 348.897L25.8689 342.058L30.3291 317.676L54.4139 299.241L121.614 304.296V334.03L96.042 353.952L30.3291 348.897Z" fill="#065669" fill-opacity="0.2"/>
<path opacity="0.4" d="M0 260.883V222.526H55.6033L78.4988 252.855L66.9023 302.809L44.8989 318.568L0 260.883Z" fill="#ECFF00" fill-opacity="0.4"/>
<path opacity="0.2" d="M229.44 109.567L221.786 105.087L214.284 79.2285L228.738 49.6221L296.493 21.912L310.928 50.8062L295.75 82.5791L229.44 109.567Z" fill="#065669" fill-opacity="0.2"/>
<path opacity="0.2" d="M399.587 547.816L401.385 556.501L387.205 579.389L355.538 588.481L289.585 556.719L301.377 526.649L335.138 516.644L399.587 547.816Z" fill="#065669" fill-opacity="0.2"/>
<g opacity="0.2">
<path d="M258.982 1.04935L358.243 27.6463L360.019 29.4488L361.122 63.438L256.663 35.4483L255.699 5.74108L257.306 2.32469L258.982 1.04935Z" fill="#518997"/>
<path d="M259.972 1.31439L358.243 27.646L360.019 29.4485L361.122 63.4378L261.118 36.6419L259.972 1.31439Z" fill="#1F6779"/>
<path fill-rule="evenodd" clip-rule="evenodd" d="M267.365 10.8348L268.054 38.5003L359.142 62.9071L358.154 32.9282L270.008 9.30938L267.365 10.8348Z" fill="#82AAB5"/>
<path d="M302.427 20.2379L262.449 20.2379L262.449 60.2154L302.427 60.2154L302.427 20.2379Z" fill="white"/>
<path d="M292.689 27.4132L272.187 27.4132L272.187 53.0398L292.689 53.0398L292.689 27.4132Z" fill="#06566A" fill-opacity="0.25"/>
<path fill-rule="evenodd" clip-rule="evenodd" d="M277.274 32.898C278.102 32.8981 278.773 32.2438 278.773 31.4373C278.774 30.6303 278.103 29.9766 277.274 29.9765C276.447 29.9765 275.775 30.6307 275.775 31.4372C275.775 32.2438 276.446 32.898 277.274 32.898ZM283.731 32.2488L288.932 39.7146L282.276 39.7145L278.531 39.7146L275.775 39.7147L279.025 35.1703L280.378 37.062L283.731 32.2488Z" fill="#06566A"/>
<path d="M290.126 42.2769L274.75 42.2769L274.75 44.327L290.126 44.327L290.126 42.2769Z" fill="#06566A"/>
<path d="M290.127 45.3517L274.751 45.3517L274.751 47.4019L290.127 47.4019L290.127 45.3517Z" fill="#06566A"/>
<path d="M286.026 48.4269L274.75 48.4269L274.75 50.477L286.026 50.477L286.026 48.4269Z" fill="#06566A"/>
<path fill-rule="evenodd" clip-rule="evenodd" d="M261.937 19.7259L302.939 19.7259L302.939 60.7284L261.937 60.7284L261.937 19.7259ZM262.962 20.751L262.962 59.7033L301.914 59.7033L301.914 20.751L262.962 20.751Z" fill="#06566A"/>
<path d="M343.134 31.5565L304.519 21.2096L294.172 59.8249L332.787 70.1718L343.134 31.5565Z" fill="white"/>
<path d="M317.682 29.5121L312.731 28.1855L312.333 29.6707L317.284 30.9973L317.682 29.5121Z" fill="#06566A"/>
<path d="M323.623 31.1042L318.672 29.7777L318.274 31.2629L323.225 32.5894L323.623 31.1042Z" fill="#06566A"/>
<path d="M326.92 34.6408L312.068 30.6612L311.272 33.6316L326.124 37.6112L326.92 34.6408Z" fill="#06566A"/>
<path d="M330.411 41.4139L310.608 36.1078L306.629 50.9599L326.431 56.266L330.411 41.4139Z" fill="#06566A"/>
<path d="M325.768 58.7407L305.965 53.4346L305.501 55.1673L325.304 60.4734L325.768 58.7407Z" fill="#06566A" fill-opacity="0.25"/>
<path d="M325.039 61.4636L305.236 56.1575L304.772 57.8902L324.574 63.1963L325.039 61.4636Z" fill="#06566A" fill-opacity="0.25"/>
<path fill-rule="evenodd" clip-rule="evenodd" d="M304.156 20.5823L343.761 31.1945L333.149 70.7999L293.544 60.1877L304.156 20.5823ZM304.881 21.8377L294.799 59.4628L332.424 69.5445L342.506 31.9193L304.881 21.8377Z" fill="#06566A"/>
<path d="M372.749 49.2631L338.128 29.2744L318.139 63.8959L352.761 83.8846L372.749 49.2631Z" fill="white"/>
<path d="M362.605 57.6095L335.973 42.2335L328.285 55.5495L354.917 70.9254L362.605 57.6095Z" fill="#06566A"/>
<path fill-rule="evenodd" clip-rule="evenodd" d="M337.94 28.5733L373.45 49.0746L352.948 84.5838L317.439 64.0826L337.94 28.5733ZM338.316 29.9736L318.839 63.7074L352.573 83.1836L372.049 49.4498L338.316 29.9736Z" fill="#06566A"/>
<path d="M261.772 42.1234L364.746 69.7152L355.262 105.112L348.043 109.28L255.713 84.5405C252.979 83.808 251.356 80.9975 252.089 78.2633L261.772 42.1234Z" fill="#387888"/>
<path opacity="0.1" d="M261.772 42.1234L273.159 45.1744L364.746 69.7152L363.552 74.1708L271.965 49.63L264.874 57.281L252.396 77.1171L254.766 68.2693L261.772 42.1234Z" fill="black"/>
<path d="M261.118 36.6422L365.804 64.6927L367.655 66.7805L366.461 71.2361L260.269 42.782L259.792 41.5929L261.118 36.6422Z" fill="#518997"/>
<path d="M261.118 36.6422L365.804 64.6927L367.655 66.7805L262.006 39.268L260.269 42.782L259.792 41.5929L261.118 36.6422Z" fill="#387888"/>
<path d="M295.048 44.6725L299.504 45.8663L300.887 48.6248L298.168 58.7736L291.732 57.0492L295.048 44.6725Z" fill="#CDDDE1"/>
<path d="M295.048 44.6725L299.504 45.8663L295.424 48.222L292.97 57.3808L291.732 57.0492L295.048 44.6725Z" fill="#B4CCD2"/>
<path d="M328.218 53.5601L332.673 54.754L334.056 57.5124L331.337 67.6613L324.901 65.9368L328.218 53.5601Z" fill="#CDDDE1"/>
<path d="M328.218 53.5601L332.673 54.754L328.593 57.1097L326.139 66.2685L324.901 65.9368L328.218 53.5601Z" fill="#B4CCD2"/>
</g>
<g opacity="0.2">
<path d="M195.087 234.893L51.4116 199.853L45.1908 211.885L46.2279 221.108L205.959 260.063L209.956 243.672L195.087 234.893Z" fill="#9BBBC3"/>
<path d="M189.036 249.638L182.177 237.278M52.2903 203.12L58.5776 217.821L52.2903 203.12ZM76.5556 225.069L70.9272 207.665L76.5556 225.069ZM88.9929 214.552L95.8514 226.912L88.9929 214.552ZM114.488 231.457L108.201 216.756L114.488 231.457ZM126.267 223.643L132.554 238.344L126.267 223.643ZM151.103 243.249L145.475 225.846L151.103 243.249ZM163.541 232.733L169.74 247.795L163.541 232.733Z" stroke="#82AAB5" stroke-width="5"/>
<path d="M49.4216 220.36L206.85 258.754L207.659 266.394L201.983 272.453L45.9951 234.41L44.5144 227.178L49.4216 220.36Z" fill="#387888"/>
<path d="M54.9617 229.726L55.8403 226.124L59.0826 226.915L61.2661 231.264L57.5011 233.399L54.9617 229.726Z" fill="#9BBBC3"/>
<path d="M122.868 246.288L123.747 242.685L126.989 243.476L129.173 247.825L125.408 249.96L122.868 246.288Z" fill="#9BBBC3"/>
<path d="M83.9573 236.035L82.5295 237.977L79.8367 238.846L78.0134 234.585L81.4182 232.362L83.9573 236.035Z" fill="#9BBBC3"/>
<path d="M174.38 258.087L172.952 260.029L170.259 260.899L168.436 256.638L171.84 254.414L174.38 258.087Z" fill="#9BBBC3"/>
<path d="M100.529 240.076L100.902 242.457L103.925 244.148L106.473 241.526L103.666 238.169L100.529 240.076Z" fill="#9BBBC3"/>
<path d="M145.92 251.146L146.294 253.527L149.316 255.219L151.864 252.596L149.057 249.239L145.92 251.146Z" fill="#9BBBC3"/>
<path d="M189.857 209.19L157.133 204.449L151.218 232.821L182.521 240.837L189.857 209.19Z" fill="#ECFF00"/>
<path d="M189.857 209.19L157.133 204.449L151.218 232.821L159.023 209.142L189.857 209.19Z" fill="#06566A" fill-opacity="0.2"/>
<path d="M190.598 211.218L155.135 203.988L157.436 196.102L191.058 202.613L190.598 211.218Z" fill="#ECFF00"/>
<path d="M190.598 211.218L155.135 203.988L157.436 196.102L191.058 202.613L190.598 211.218Z" fill="#06566A" fill-opacity="0.3"/>
<path d="M155.135 203.988L157.436 196.102L163.913 197.356L160.821 197.954L157.553 201.188L157.943 204.673L155.135 203.988Z" fill="#06566A" fill-opacity="0.3"/>
<path d="M110.197 191.961L106.025 190.943L104.177 198.993L108.241 199.984L108.095 194.862L110.197 191.961Z" fill="#06566A" fill-opacity="0.3"/>
<path d="M138.561 203.55L105.837 198.81L99.7461 227.902L131.844 235.309L138.561 203.55Z" fill="#ECFF00"/>
<path d="M109.561 196.478L105.837 198.81L99.7461 227.902L106.61 210.165L106.674 201.956L128.714 204.389L109.561 196.478Z" fill="#06566A" fill-opacity="0.2"/>
<path d="M141.359 198.779L106.025 190.942L104.177 198.992L138.996 207.002L141.359 198.779Z" fill="#ECFF00"/>
<path d="M141.359 198.779L106.025 190.942L104.177 198.992L138.996 207.002L141.359 198.779Z" fill="#06566A" fill-opacity="0.3"/>
<path d="M91.4305 187.094L58.1614 181.457L52.246 209.828L83.2769 217.396L91.4305 187.094Z" fill="#ECFF00"/>
<path d="M66.6769 183.534L58.1614 181.457L52.246 209.829L55.2782 210.568L59.0218 185.684L65.1884 184.552L66.6769 183.534Z" fill="#06566A" fill-opacity="0.2"/>
<path d="M56.0767 181.334L92.1894 189.76L93.9027 182.735L92.3651 181.215L58.8618 173.044L56.0767 181.334Z" fill="#ECFF00"/>
<path d="M56.0767 181.334L92.1894 189.76L93.9027 182.735L92.3651 181.215L58.8618 173.044L56.0767 181.334Z" fill="#06566A" fill-opacity="0.3"/>
<path d="M56.0432 181.37L57.2138 181.656L60.3491 175.156L92.3315 181.251L58.8284 173.08L56.0432 181.37Z" fill="#06566A" fill-opacity="0.3"/>
</g>
<g opacity="0.2">
<path d="M286.632 440.287L343.872 475.985L357.336 509.198L356.996 509.66L357.568 511.069L330.02 548.615L282.647 549.892L247.545 517L247.627 515.422L247.313 515.129L247.718 507.282L263.334 500.951L268.793 483.604L258.217 470.674L244.925 465.05L244.693 463.179L252.213 450.143L286.632 440.287Z" fill="#387888"/>
<path d="M343.872 475.985L286.632 440.287L252.213 450.143L244.693 463.179L257.985 468.803L269.154 482.458L263.334 500.951L247.718 507.282L247.313 515.129L282.416 548.021L329.788 546.743L357.336 509.198L343.872 475.985Z" fill="#518997"/>
<path opacity="0.5" d="M343.872 475.985L286.632 440.287L252.213 450.143L244.693 463.179L257.985 468.803L269.154 482.458L263.334 500.951L247.718 507.282L247.313 515.129L263.762 517.686L279.317 501.397L272.778 470.337L290.341 452.595L343.872 475.985Z" fill="#387888"/>
<path d="M287.611 464.156L289.061 472.788L280.263 476.354L276.518 467.116L283.77 462.896L287.611 464.156Z" fill="#ECFF00"/>
<path d="M307.739 462.101L299.014 462.802L297.704 472.205L307.577 473.58L309.899 465.517L307.739 462.101Z" fill="#ECFF00"/>
<path d="M307.739 462.101L299.014 462.802L297.704 472.205L307.577 473.58L309.899 465.517L307.739 462.101Z" fill="#06566A" fill-opacity="0.3"/>
<path d="M328.225 479.564L322.06 485.776L314.031 480.709L319.351 472.28L327.009 475.709L328.225 479.564Z" fill="#ECFF00"/>
<path d="M328.225 479.564L322.06 485.776L314.031 480.709L319.351 472.28L327.009 475.709L328.225 479.564Z" fill="#06566A" fill-opacity="0.5"/>
<path d="M329.74 494.976L337.739 498.529L335.859 507.835L326.088 505.861L326.57 497.484L329.74 494.976Z" fill="#ECFF00"/>
<path d="M329.74 494.976L337.739 498.529L335.859 507.835L326.088 505.861L326.57 497.484L329.74 494.976Z" fill="#06566A" fill-opacity="0.6"/>
<path d="M316.331 523.719L323.98 519.465L330.284 526.564L322.83 533.183L316.427 527.759L316.331 523.719Z" fill="#ECFF00"/>
<path d="M316.331 523.719L323.98 519.465L330.284 526.564L322.83 533.183L316.427 527.759L316.331 523.719Z" fill="#06566A" fill-opacity="0.7"/>
<path d="M272.476 488.737L264.237 500.64L286.41 525.257L297.85 513.565L290.842 502.812L282.675 498.717L279.896 492.102L272.476 488.737Z" fill="#ECFF00"/>
<path d="M272.816 497.348L266 504.313M280.728 500.707L274.627 505.45L272.219 510.398M286.715 508.026L282.09 512.752L277.195 515.267M290.954 513.148L282.938 522.834" stroke="#06566A" stroke-opacity="0.2" stroke-width="2"/>
<path d="M246.703 530.865L261.357 519.833L266.533 524.898L248.065 540.814L242.396 535.266L246.703 530.865Z" fill="#82AAB5"/>
<path d="M251.538 534.409L264.791 523.541L266.533 524.899L248.064 540.815L246.039 538.834L248.887 537.81L251.538 534.409Z" fill="#6A9AA6"/>
<path d="M276.639 534.786L266.533 524.898L261.357 519.833L253.666 508.956L263.237 499.174L290.104 525.463L276.639 534.786Z" fill="#B4CCD2"/>
<path d="M276.639 534.785L266.534 524.897L261.357 519.832L253.666 508.955L263.237 499.173L264.542 500.19L257.449 509.291L276.639 534.785Z" fill="#06566A" fill-opacity="0.1"/>
<path d="M299.998 507.407L275.231 553.412L277.665 555.31L304.664 511.045L299.998 507.407Z" fill="#B4CCD2"/>
<path d="M304.665 511.045L300.929 513.116L277.871 553.221L275.231 553.412L277.666 555.31L304.665 511.045Z" fill="#9BBBC3"/>
<path d="M299.293 507.18L305.726 510.991L304.167 514.027L302.173 513.677L298.528 511.559L297.506 510.039L299.293 507.18Z" fill="white"/>
<path d="M303.673 510.473L305.726 510.991L304.166 514.028L302.172 513.677L302.756 512.928L303.01 511.323L303.673 510.473Z" fill="#E6EEF0"/>
<path d="M300.704 503.105L299.844 508.171L304.664 511.045L307.841 508.667L307.022 504.057L309.775 498.26L307.761 498.014L300.704 503.105Z" fill="#ECFF00"/>
</g>
</svg>
