<svg width="275" height="574" viewBox="0 0 275 574" fill="none" xmlns="http://www.w3.org/2000/svg">
<path opacity="0.2" d="M203.681 471.228L235.422 509.096L180.529 555.108L132.828 544.113L102.939 485.201L111.62 451.435L203.681 471.228Z" fill="#ECFF00" fill-opacity="0.4"/>
<g opacity="0.2">
<path d="M172.521 260.669L274.105 159.084L250.042 135.021L180.476 135.037L99.8836 215.63L144.929 260.675L172.521 260.669Z" fill="#ECFF00" fill-opacity="0.2"/>
<path d="M106.196 241.871L89.8012 224.024L89.8012 163.841L135.249 115.903L182.358 115.903L189.206 122.336V156.165L106.196 241.871Z" fill="#065669" fill-opacity="0.2"/>
</g>
<g opacity="0.2">
<path d="M131.609 86.054L136.469 88.0025L168.809 74.1727L177.771 51.8169L174.132 43.3064L131.58 61.5035L126.514 74.1394L131.609 86.054Z" fill="#06708A"/>
<path d="M120.77 82.837L94.0405 72.1206L83.4145 45.8602L94.0167 40.5209L104.952 44.9049L126.898 80.2166L120.77 82.837Z" fill="#06708A"/>
<path d="M142.954 94.6923L114.037 83.0992L64.919 104.305L38.6153 169.915L46.9132 189.319L102.803 211.725L122.207 203.428L154.745 122.266L142.954 94.6923Z" fill="#ECFF00"/>
<circle cx="77.9764" cy="191.336" r="1.309" transform="rotate(21.8465 77.9764 191.336)" fill="white"/>
<circle cx="97.8885" cy="155.037" r="1.0472" transform="rotate(21.8465 97.8885 155.037)" fill="white"/>
<circle cx="84.874" cy="136.845" r="1.5708" transform="rotate(21.8465 84.874 136.845)" fill="white"/>
<circle cx="88.4399" cy="177.198" r="1.0472" transform="rotate(21.8465 88.4399 177.198)" fill="white"/>
<circle cx="83.4947" cy="159.984" r="1.0472" transform="rotate(21.8465 83.4947 159.984)" fill="white"/>
<circle cx="91.844" cy="175.742" r="1.0472" transform="rotate(21.8465 91.844 175.742)" fill="white"/>
<path d="M99.402 85.1296L63.9984 100.27L36.2334 169.524L47.6858 195.834L89.038 220.028L111.651 210.76L151.245 122.555L141.248 99.6498L99.402 85.1296Z" stroke="#065669" stroke-opacity="0.4" stroke-width="2"/>
<circle cx="75.515" cy="168.631" r="1.5708" transform="rotate(21.8465 75.515 168.631)" fill="white"/>
<circle cx="65.8312" cy="180.826" r="1.309" transform="rotate(21.8465 65.8312 180.826)" fill="white"/>
<circle cx="90.8809" cy="164.074" r="1.5708" transform="rotate(21.8465 90.8809 164.074)" fill="white"/>
<circle cx="94.4821" cy="159.312" r="1.5708" transform="rotate(21.8465 94.4821 159.312)" fill="white"/>
<circle cx="90.9862" cy="153.962" r="2.09439" transform="rotate(21.8465 90.9862 153.962)" fill="white"/>
</g>
<g opacity="0.2">
<path d="M93.0912 506.454L120.074 501.073L116.637 520.86L102.435 523.692L95.7 519.536L93.0912 506.454Z" fill="#B4CCD2"/>
<path d="M93.0912 506.454L97.4204 505.59L99.7075 517.06L105.04 523.173L102.435 523.692L95.7 519.536L93.0912 506.454Z" fill="#9BBBC3"/>
<path d="M150.878 494.835L174.949 490.035L178.633 508.508L163.239 511.578L158.098 507.693L150.878 494.835Z" fill="#B4CCD2"/>
<path d="M150.878 494.836L157.22 493.571L162.296 506.856L166.418 510.944L163.238 511.579L158.098 507.693L150.878 494.836Z" fill="#9BBBC3"/>
<path d="M70.3614 441.336L163.063 422.849L181.94 430.233L192.339 482.378L186.852 490.863L84.3155 511.31L70.3614 441.336Z" fill="#387888"/>
<path d="M67.0043 439.095L159.706 420.609L178.583 427.992L188.981 480.138L183.495 488.622L80.9584 509.069L67.0043 439.095Z" fill="#518997"/>
<path d="M67.0043 439.095L160.104 420.529L138.042 426.778L75.7301 441.199L86.3439 494.423L82.5058 498.928L80.1483 505.007L67.0043 439.095Z" fill="#387888"/>
<path d="M149.034 438.16L65.4843 454.821L73.3033 494.031L73.6344 495.691L76.9891 497.928L79.4661 497.434L167.958 479.787L160.897 444.38L149.034 438.16Z" fill="#82AAB5"/>
<path d="M65.4843 454.821L148.754 438.216L157.986 444.378L164.601 477.546L76.1508 495.184L73.2077 493.551L65.4843 454.821Z" fill="#6A9AA6"/>
<path d="M76.9728 430.703L93.7668 427.354L94.9947 433.512L78.2008 436.861L76.9728 430.703Z" fill="#B4CCD2"/>
<path d="M76.9728 430.703L93.7668 427.354L79.2358 431.898L80.1479 436.472L78.2008 436.861L76.9728 430.703Z" fill="#9BBBC3"/>
<path d="M73.6205 419.731L95.7324 415.321L97.9651 426.517L72.7742 431.541L71.2114 423.703L73.6205 419.731Z" fill="#9BBBC3"/>
<path d="M73.6205 419.731L95.7324 415.321L74.7346 421.828L73.5822 424.8L72.7742 431.541L71.2114 423.703L73.6205 419.731Z" fill="#82AAB5"/>
<path d="M99.1551 462.124L136.708 454.635L145.118 460.004L146.47 466.78L101.858 475.676L99.1551 462.124Z" fill="#518997"/>
<path d="M97.7172 461.163L135.27 453.674L143.68 459.043L145.032 465.82L100.42 474.716L97.7172 461.163Z" fill="#1F6779"/>
<path d="M113.498 463.081L136.154 458.562L136.032 463.573L115.173 467.732L113.498 463.081Z" fill="#ECFF00"/>
<path d="M113.498 463.081L136.154 458.562L136.032 463.573L115.173 467.732L113.498 463.081Z" fill="#06566A" fill-opacity="0.3"/>
<path d="M107.025 464.371L128.482 460.092L128.36 465.103L108.7 469.023L107.025 464.371Z" fill="#ECFF00"/>
<path d="M88.214 460.621L82.7057 461.719L80.7906 464.616L81.8847 470.103L83.035 470.871L90.9408 469.294L89.3643 461.389L88.214 460.621Z" fill="#518997"/>
<path d="M82.7057 461.719L88.214 460.621L89.7906 468.527L81.8847 470.103L80.7906 464.616L82.7057 461.719Z" fill="#1F6779"/>
<path d="M90.4665 471.916L82.5607 473.492L84.1372 481.398L85.2875 482.166L90.9186 481.043L92.7634 478.433L91.6168 472.684L90.4665 471.916Z" fill="#518997"/>
<path d="M82.5607 473.492L90.4665 471.916L91.6131 477.666L89.7684 480.275L84.1372 481.398L82.5607 473.492Z" fill="#1F6779"/>
<path d="M144.017 400.623L136.794 397.209L133.133 411.658L137.922 412.391L135.725 422.537L144.338 407.524L138.98 408.17L144.017 400.623Z" fill="#ECFF00"/>
<path d="M108.697 403.357L102.129 407.905L112.811 418.3L115.84 414.519L123.529 421.495L114.833 406.529L112.714 411.493L108.697 403.357Z" fill="#ECFF00"/>
</g>
</svg>
